G04 (created by PCBNEW (2013-07-07 BZR 4022)-stable) date 4/21/2018 10:45:42 AM*
%MOIN*%
G04 Gerber Fmt 3.4, Leading zero omitted, Abs format*
%FSLAX34Y34*%
G01*
G70*
G90*
G04 APERTURE LIST*
%ADD10C,0.00590551*%
%ADD11R,0.11X0.11*%
%ADD12C,0.11*%
%ADD13R,0.055X0.035*%
%ADD14R,0.07X0.07*%
%ADD15C,0.07*%
%ADD16R,0.0802031X0.021148*%
%ADD17R,0.0848031X0.025748*%
%ADD18R,0.0612X0.0809*%
%ADD19R,0.1596X0.0809*%
%ADD20R,0.0494X0.0415*%
%ADD21R,0.065X0.045*%
%ADD22R,0.045X0.065*%
%ADD23R,0.035X0.055*%
%ADD24R,0.0651X0.0336*%
%ADD25R,0.0277X0.0887*%
%ADD26R,0.0887X0.0277*%
%ADD27R,0.0729921X0.0729921*%
%ADD28C,0.0729921*%
%ADD29R,0.075X0.026*%
%ADD30C,0.108425*%
%ADD31R,0.0808661X0.0808661*%
%ADD32C,0.0808661*%
%ADD33R,0.198976X0.20685*%
%ADD34R,0.0651181X0.0651181*%
%ADD35R,0.0966X0.073*%
%ADD36C,0.0395*%
%ADD37C,0.1281*%
%ADD38R,0.0336X0.0651*%
%ADD39C,0.055*%
%ADD40R,0.0206X0.0494*%
%ADD41C,0.076*%
%ADD42R,0.0769X0.0927*%
%ADD43R,0.0927X0.0769*%
%ADD44R,0.06X0.11*%
%ADD45R,0.09X0.07*%
%ADD46R,0.075X0.13*%
%ADD47R,0.25X0.25*%
%ADD48R,0.0552756X0.0395276*%
%ADD49R,0.157638X0.189528*%
%ADD50C,0.1537*%
%ADD51R,0.0691X0.0691*%
%ADD52C,0.0691*%
%ADD53C,0.255906*%
%ADD54O,0.0493701X0.0769291*%
%ADD55C,0.0277165*%
%ADD56R,0.0257X0.0336*%
%ADD57R,0.0415X0.12*%
%ADD58R,0.035X0.123*%
%ADD59R,0.0336X0.0415*%
%ADD60R,0.0415X0.0336*%
%ADD61R,0.0651181X0.100551*%
%ADD62R,0.0651181X0.0592126*%
%ADD63R,0.100551X0.0651181*%
%ADD64R,0.0592126X0.0651181*%
%ADD65C,0.085*%
%ADD66R,0.085X0.085*%
%ADD67R,0.03X0.04*%
%ADD68R,0.0415X0.0494*%
%ADD69R,0.08X0.038*%
%ADD70R,0.120236X0.218661*%
%ADD71R,0.16X0.065*%
%ADD72R,0.0641339X0.108425*%
%ADD73O,0.0690551X0.0926772*%
%ADD74R,0.0887402X0.0662992*%
%ADD75R,0.0887402X0.0674803*%
%ADD76R,0.025748X0.0887402*%
%ADD77O,0.0454331X0.12811*%
G04 APERTURE END LIST*
G54D10*
G54D11*
X64248Y-44094D03*
G54D12*
X65748Y-44094D03*
X67248Y-44094D03*
G54D13*
X55400Y-24500D03*
X55400Y-25100D03*
G54D14*
X46600Y-43100D03*
G54D15*
X45600Y-43100D03*
X44600Y-43100D03*
X43600Y-43100D03*
X42600Y-43100D03*
G54D16*
X62100Y-32787D03*
X62100Y-33260D03*
G54D17*
X62100Y-33732D03*
G54D18*
X39506Y-40219D03*
X38600Y-40219D03*
X37694Y-40219D03*
G54D19*
X38600Y-42581D03*
G54D20*
X63333Y-37100D03*
X62467Y-37475D03*
X62467Y-36725D03*
X46633Y-38500D03*
X45767Y-38875D03*
X45767Y-38125D03*
G54D21*
X46200Y-40125D03*
X46200Y-40875D03*
G54D22*
X61413Y-38833D03*
X60663Y-38833D03*
G54D21*
X47500Y-37175D03*
X47500Y-36425D03*
X59100Y-28525D03*
X59100Y-29275D03*
G54D22*
X58975Y-35910D03*
X58225Y-35910D03*
G54D14*
X53100Y-37100D03*
G54D15*
X52100Y-37100D03*
X53100Y-36100D03*
X52100Y-36100D03*
X53100Y-35100D03*
X52100Y-35100D03*
G54D23*
X42200Y-41700D03*
X42800Y-41700D03*
X46000Y-41700D03*
X45400Y-41700D03*
G54D24*
X61655Y-36350D03*
X59555Y-36350D03*
X61655Y-36850D03*
X61655Y-37350D03*
X61655Y-37850D03*
X59555Y-36850D03*
X59555Y-37350D03*
X59555Y-37850D03*
G54D25*
X59693Y-34296D03*
X59378Y-34296D03*
X59063Y-34296D03*
X58748Y-34296D03*
X58433Y-34296D03*
X58118Y-34296D03*
X57803Y-34296D03*
X57488Y-34296D03*
X57490Y-30530D03*
X59700Y-30530D03*
X59380Y-30530D03*
X59060Y-30530D03*
X58750Y-30530D03*
X58430Y-30530D03*
X58120Y-30530D03*
X57800Y-30530D03*
G54D26*
X56700Y-33512D03*
X56700Y-33198D03*
X56700Y-32882D03*
X56700Y-32568D03*
X56700Y-32252D03*
X56700Y-31938D03*
X56700Y-31622D03*
X56700Y-31308D03*
X60480Y-33510D03*
X60480Y-33200D03*
X60480Y-32880D03*
X60480Y-32570D03*
X60480Y-32260D03*
X60480Y-31940D03*
X60480Y-31620D03*
X60480Y-31300D03*
G54D21*
X34300Y-34825D03*
X34300Y-35575D03*
X59900Y-29275D03*
X59900Y-28525D03*
G54D22*
X52325Y-24300D03*
X53075Y-24300D03*
G54D27*
X38192Y-38600D03*
G54D28*
X37207Y-38600D03*
G54D29*
X42950Y-40175D03*
X42950Y-40425D03*
X42950Y-40675D03*
X42950Y-40925D03*
X45050Y-39425D03*
X42950Y-39425D03*
X42950Y-39675D03*
X42950Y-39925D03*
X45050Y-41175D03*
X45050Y-40925D03*
X45050Y-40675D03*
X45050Y-40425D03*
X45050Y-40175D03*
X45050Y-39925D03*
X42950Y-41175D03*
X45050Y-39675D03*
G54D23*
X46000Y-42400D03*
X45400Y-42400D03*
X42200Y-42400D03*
X42800Y-42400D03*
G54D22*
X42965Y-38220D03*
X43715Y-38220D03*
G54D30*
X35178Y-19300D03*
X37147Y-19300D03*
X39115Y-19300D03*
X41084Y-19300D03*
X45021Y-19300D03*
X43052Y-19300D03*
G54D22*
X60025Y-26100D03*
X59275Y-26100D03*
X33075Y-33000D03*
X32325Y-33000D03*
G54D31*
X32100Y-38115D03*
G54D32*
X32100Y-40084D03*
G54D33*
X37600Y-23200D03*
G54D34*
X36143Y-22786D03*
X36143Y-23613D03*
G54D33*
X44500Y-23200D03*
G54D34*
X43043Y-22786D03*
X43043Y-23613D03*
G54D35*
X35200Y-39148D03*
X35200Y-37652D03*
G54D13*
X44900Y-38800D03*
X44900Y-38200D03*
G54D23*
X45900Y-36500D03*
X46500Y-36500D03*
G54D13*
X44600Y-42400D03*
X44600Y-41800D03*
X43600Y-42400D03*
X43600Y-41800D03*
G54D23*
X57600Y-39000D03*
X57000Y-39000D03*
G54D13*
X52300Y-23000D03*
X52300Y-23600D03*
G54D23*
X45900Y-37200D03*
X46500Y-37200D03*
G54D13*
X49700Y-41800D03*
X49700Y-42400D03*
G54D23*
X32500Y-31400D03*
X33100Y-31400D03*
G54D13*
X31000Y-34200D03*
X31000Y-34800D03*
G54D23*
X47500Y-33900D03*
X48100Y-33900D03*
G54D13*
X39900Y-44500D03*
X39900Y-43900D03*
X39500Y-28000D03*
X39500Y-28600D03*
X40200Y-28000D03*
X40200Y-28600D03*
X51000Y-33200D03*
X51000Y-33800D03*
G54D23*
X48000Y-38200D03*
X47400Y-38200D03*
G54D36*
X60000Y-44000D03*
G54D37*
X60000Y-44000D03*
G54D38*
X33450Y-36250D03*
X33450Y-34150D03*
X32950Y-36250D03*
X32450Y-36250D03*
X31950Y-36250D03*
X32950Y-34150D03*
X32450Y-34150D03*
X31950Y-34150D03*
G54D22*
X58775Y-23600D03*
X58025Y-23600D03*
G54D13*
X53200Y-23000D03*
X53200Y-23600D03*
G54D39*
X40800Y-39000D03*
G54D24*
X53050Y-26050D03*
X50950Y-26050D03*
X53050Y-26550D03*
X53050Y-27050D03*
X53050Y-27550D03*
X50950Y-26550D03*
X50950Y-27050D03*
X50950Y-27550D03*
G54D40*
X57750Y-26525D03*
X57950Y-26525D03*
X58150Y-26525D03*
X58350Y-26525D03*
X58550Y-26525D03*
X58550Y-24775D03*
X58350Y-24775D03*
X58150Y-24775D03*
X57950Y-24775D03*
X57750Y-24775D03*
G54D13*
X54000Y-26000D03*
X54000Y-26600D03*
X54000Y-27800D03*
X54000Y-27200D03*
G54D22*
X58325Y-22500D03*
X59075Y-22500D03*
X60025Y-27100D03*
X59275Y-27100D03*
G54D13*
X48900Y-41800D03*
X48900Y-42400D03*
G54D41*
X49600Y-43900D03*
X48600Y-43900D03*
X47600Y-43900D03*
G54D22*
X52275Y-28400D03*
X51525Y-28400D03*
G54D14*
X70800Y-38600D03*
G54D15*
X70800Y-39600D03*
G54D42*
X51250Y-24381D03*
X51250Y-23019D03*
X54300Y-24431D03*
X54300Y-23069D03*
G54D43*
X34769Y-43250D03*
X36131Y-43250D03*
X59269Y-24900D03*
X60631Y-24900D03*
G54D44*
X64000Y-38700D03*
X62800Y-38700D03*
G54D21*
X58400Y-37575D03*
X58400Y-36825D03*
G54D22*
X41465Y-38220D03*
X42215Y-38220D03*
G54D45*
X44640Y-35770D03*
X44640Y-37070D03*
G54D46*
X41640Y-36920D03*
G54D47*
X42540Y-34420D03*
G54D46*
X43440Y-36920D03*
G54D48*
X39579Y-25250D03*
X39579Y-25750D03*
X39579Y-26250D03*
X39579Y-26750D03*
X41820Y-26750D03*
X41820Y-26250D03*
X41820Y-25750D03*
X41820Y-25250D03*
G54D49*
X40908Y-26000D03*
G54D48*
X39579Y-22450D03*
X39579Y-22950D03*
X39579Y-23450D03*
X39579Y-23950D03*
X41820Y-23950D03*
X41820Y-23450D03*
X41820Y-22950D03*
X41820Y-22450D03*
G54D49*
X40908Y-23200D03*
G54D13*
X48100Y-41800D03*
X48100Y-42400D03*
G54D50*
X62180Y-43700D03*
X57507Y-43700D03*
G54D51*
X58092Y-41200D03*
G54D52*
X58592Y-40200D03*
X59092Y-41200D03*
X59592Y-40200D03*
X60092Y-41200D03*
X60592Y-40200D03*
X61092Y-41200D03*
X61592Y-40200D03*
G54D50*
X55881Y-43700D03*
X51208Y-43700D03*
G54D51*
X51793Y-41200D03*
G54D52*
X52293Y-40200D03*
X52793Y-41200D03*
X53293Y-40200D03*
X53793Y-41200D03*
X54293Y-40200D03*
X54793Y-41200D03*
X55293Y-40200D03*
G54D13*
X52100Y-31500D03*
X52100Y-32100D03*
X53100Y-31500D03*
X53100Y-32100D03*
G54D14*
X52100Y-33100D03*
G54D15*
X53100Y-33100D03*
G54D53*
X66255Y-26714D03*
X66255Y-41085D03*
X35744Y-26714D03*
X35744Y-41085D03*
G54D54*
X46107Y-44600D03*
X43292Y-44600D03*
G54D55*
X44955Y-44292D03*
X44700Y-44796D03*
X44444Y-44292D03*
X44188Y-44796D03*
X45211Y-44796D03*
G54D56*
X40543Y-24590D03*
X40897Y-24590D03*
G54D15*
X70800Y-29600D03*
X70800Y-30600D03*
X70800Y-31600D03*
X70800Y-32600D03*
X70800Y-33600D03*
X70800Y-34600D03*
X70800Y-35600D03*
G54D14*
X70800Y-36600D03*
X72800Y-36600D03*
G54D15*
X72800Y-35600D03*
X72800Y-34600D03*
X72800Y-33600D03*
X72800Y-32600D03*
X72800Y-31600D03*
X72800Y-30600D03*
X72800Y-29600D03*
X69800Y-29600D03*
X69800Y-30600D03*
X69800Y-31600D03*
X69800Y-32600D03*
X69800Y-33600D03*
X69800Y-34600D03*
X69800Y-35600D03*
X69800Y-36600D03*
G54D20*
X46733Y-35500D03*
X45867Y-35875D03*
X45867Y-35125D03*
G54D45*
X47750Y-39500D03*
X47750Y-40800D03*
G54D21*
X58100Y-28525D03*
X58100Y-29275D03*
G54D20*
X46733Y-33900D03*
X45867Y-34275D03*
X45867Y-33525D03*
G54D22*
X46675Y-32800D03*
X45925Y-32800D03*
X59175Y-39000D03*
X58425Y-39000D03*
G54D10*
G36*
X55282Y-23215D02*
X55282Y-21985D01*
X55697Y-22485D01*
X55697Y-22715D01*
X55282Y-23215D01*
X55282Y-23215D01*
G37*
G54D57*
X55990Y-22600D03*
G54D58*
X55210Y-22600D03*
G54D10*
G36*
X55482Y-23200D02*
X55782Y-22600D01*
X55897Y-22600D01*
X56197Y-23200D01*
X55482Y-23200D01*
X55482Y-23200D01*
G37*
G36*
X56197Y-22000D02*
X55897Y-22600D01*
X55782Y-22600D01*
X55482Y-22000D01*
X56197Y-22000D01*
X56197Y-22000D01*
G37*
G36*
X33992Y-24495D02*
X33992Y-23265D01*
X34407Y-23765D01*
X34407Y-23995D01*
X33992Y-24495D01*
X33992Y-24495D01*
G37*
G54D57*
X34700Y-23880D03*
G54D58*
X33920Y-23880D03*
G54D10*
G36*
X34192Y-24480D02*
X34492Y-23880D01*
X34607Y-23880D01*
X34907Y-24480D01*
X34192Y-24480D01*
X34192Y-24480D01*
G37*
G36*
X34907Y-23280D02*
X34607Y-23880D01*
X34492Y-23880D01*
X34192Y-23280D01*
X34907Y-23280D01*
X34907Y-23280D01*
G37*
G54D59*
X65165Y-23100D03*
X65835Y-23100D03*
X62635Y-23300D03*
X61965Y-23300D03*
G54D60*
X54600Y-36035D03*
X54600Y-35365D03*
X51200Y-36135D03*
X51200Y-35465D03*
X54600Y-37135D03*
X54600Y-36465D03*
G54D61*
X33650Y-41697D03*
G54D62*
X33650Y-42612D03*
G54D63*
X36552Y-31500D03*
G54D64*
X35637Y-31500D03*
G54D45*
X36600Y-29350D03*
X36600Y-30650D03*
G54D21*
X48600Y-34825D03*
X48600Y-35575D03*
X34100Y-33025D03*
X34100Y-33775D03*
G54D22*
X62675Y-24200D03*
X61925Y-24200D03*
X65225Y-24000D03*
X65975Y-24000D03*
G54D13*
X61800Y-26000D03*
X61800Y-25400D03*
G54D23*
X52800Y-25100D03*
X53400Y-25100D03*
G54D13*
X34100Y-32400D03*
X34100Y-31800D03*
G54D23*
X41100Y-40300D03*
X40500Y-40300D03*
G54D13*
X54900Y-26300D03*
X54900Y-26900D03*
X55800Y-30200D03*
X55800Y-30800D03*
G54D23*
X63900Y-24400D03*
X64500Y-24400D03*
G54D13*
X49500Y-28800D03*
X49500Y-28200D03*
G54D23*
X49700Y-36800D03*
X49100Y-36800D03*
X60600Y-23300D03*
X61200Y-23300D03*
G54D13*
X62800Y-25400D03*
X62800Y-26000D03*
X64100Y-25300D03*
X64100Y-25900D03*
G54D23*
X46000Y-31900D03*
X46600Y-31900D03*
G54D13*
X64200Y-22800D03*
X64200Y-23400D03*
X47300Y-41800D03*
X47300Y-42400D03*
G54D65*
X38284Y-33913D03*
X38284Y-35487D03*
G54D66*
X36316Y-35487D03*
G54D65*
X36316Y-33913D03*
G54D39*
X49450Y-23550D03*
G54D67*
X49325Y-35700D03*
X50075Y-35700D03*
X49325Y-34700D03*
X49700Y-35700D03*
X50075Y-34700D03*
G54D68*
X49500Y-29567D03*
X49875Y-30433D03*
X49125Y-30433D03*
G54D21*
X49450Y-24975D03*
X49450Y-25725D03*
G54D13*
X48600Y-29400D03*
X48600Y-28800D03*
X50400Y-28800D03*
X50400Y-29400D03*
G54D69*
X39625Y-31050D03*
X39625Y-30550D03*
X39625Y-30050D03*
X39625Y-29550D03*
X37775Y-29550D03*
X37775Y-30050D03*
X37775Y-30550D03*
X37775Y-31050D03*
G54D70*
X35311Y-34600D03*
X39288Y-34600D03*
G54D39*
X39900Y-45200D03*
X38150Y-44300D03*
X56600Y-22500D03*
X54350Y-20600D03*
X52300Y-20600D03*
X36200Y-44400D03*
X48700Y-32200D03*
X47300Y-24300D03*
X47400Y-27600D03*
X33300Y-27000D03*
X34600Y-22900D03*
X50100Y-32200D03*
G54D36*
X67400Y-24100D03*
G54D37*
X67400Y-24100D03*
G54D36*
X32300Y-28700D03*
G54D37*
X32300Y-28700D03*
G54D23*
X53100Y-22200D03*
X52500Y-22200D03*
G54D10*
G36*
X45257Y-25285D02*
X45257Y-26515D01*
X44842Y-26015D01*
X44842Y-25785D01*
X45257Y-25285D01*
X45257Y-25285D01*
G37*
G54D57*
X44550Y-25900D03*
G54D58*
X45330Y-25900D03*
G54D10*
G36*
X45057Y-25300D02*
X44757Y-25900D01*
X44642Y-25900D01*
X44342Y-25300D01*
X45057Y-25300D01*
X45057Y-25300D01*
G37*
G36*
X44342Y-26500D02*
X44642Y-25900D01*
X44757Y-25900D01*
X45057Y-26500D01*
X44342Y-26500D01*
X44342Y-26500D01*
G37*
G54D61*
X65200Y-36752D03*
G54D62*
X65200Y-35837D03*
G54D61*
X50100Y-39747D03*
G54D62*
X50100Y-40662D03*
G54D71*
X65300Y-34800D03*
X65300Y-33000D03*
G54D39*
X65100Y-22200D03*
X62650Y-22200D03*
G54D68*
X49000Y-40533D03*
X48625Y-39667D03*
X49375Y-39667D03*
G54D30*
X39768Y-48400D03*
X35831Y-48400D03*
X37800Y-48400D03*
X66074Y-19200D03*
X64105Y-19200D03*
X62137Y-19200D03*
X60168Y-19200D03*
X58200Y-19200D03*
X56231Y-19200D03*
X54262Y-19200D03*
X50325Y-19200D03*
X52294Y-19200D03*
G54D14*
X70800Y-38600D03*
G54D15*
X71800Y-38600D03*
G54D39*
X68700Y-39600D03*
X62600Y-39900D03*
G54D72*
X44330Y-45778D03*
X45069Y-45778D03*
G54D73*
X43085Y-45700D03*
G54D74*
X45841Y-44487D03*
G54D75*
X43558Y-44487D03*
G54D76*
X44188Y-44597D03*
X44444Y-44597D03*
X44700Y-44597D03*
X44956Y-44597D03*
X45212Y-44597D03*
G54D73*
X46314Y-45700D03*
G54D77*
X43764Y-46113D03*
X45635Y-46113D03*
M02*
