G04 (created by PCBNEW (2013-07-07 BZR 4022)-stable) date 2/4/2017 6:27:51 AM*
%MOIN*%
G04 Gerber Fmt 3.4, Leading zero omitted, Abs format*
%FSLAX34Y34*%
G01*
G70*
G90*
G04 APERTURE LIST*
%ADD10C,0.00590551*%
%ADD11C,0.01*%
%ADD12O,0.0708661X0.0433071*%
%ADD13O,0.0866142X0.0433071*%
%ADD14R,0.06X0.06*%
%ADD15C,0.06*%
%ADD16R,0.015748X0.0748031*%
%ADD17C,0.1437*%
%ADD18R,0.0591X0.0591*%
%ADD19C,0.0591*%
%ADD20R,0.0709X0.0512*%
%ADD21R,0.0709X0.1496*%
%ADD22R,0.0315X0.0394*%
%ADD23R,0.035X0.055*%
%ADD24R,0.055X0.035*%
%ADD25C,0.011811*%
%ADD26C,0.125*%
%ADD27R,0.025X0.045*%
%ADD28R,0.0551X0.0236*%
%ADD29R,0.0787X0.0177*%
%ADD30R,0.0177X0.0787*%
%ADD31R,0.0629921X0.0629921*%
%ADD32C,0.0629921*%
%ADD33R,0.065X0.016*%
%ADD34R,0.06X0.08*%
%ADD35R,0.0394X0.0315*%
%ADD36C,0.0984252*%
%ADD37R,0.0708661X0.0708661*%
%ADD38C,0.0708661*%
%ADD39R,0.188976X0.19685*%
%ADD40R,0.0551181X0.0551181*%
%ADD41R,0.063X0.0866*%
%ADD42R,0.045X0.025*%
%ADD43C,0.0295*%
%ADD44C,0.045*%
%ADD45R,0.0236X0.0551*%
%ADD46R,0.0394X0.0106*%
%ADD47C,0.066*%
%ADD48R,0.0315X0.11*%
%ADD49R,0.025X0.113*%
%ADD50R,0.1X0.1*%
%ADD51C,0.1*%
%ADD52R,0.05X0.025*%
%ADD53R,0.0827X0.0669*%
%ADD54R,0.0669X0.0827*%
%ADD55R,0.1X0.05*%
%ADD56R,0.12X0.065*%
%ADD57R,0.24X0.24*%
%ADD58C,0.075*%
%ADD59R,0.075X0.075*%
%ADD60R,0.0295276X0.0452756*%
%ADD61R,0.179528X0.147638*%
%ADD62O,0.0393701X0.0669291*%
%ADD63C,0.0177165*%
%ADD64R,0.0236X0.0157*%
%ADD65R,0.0236X0.0315*%
%ADD66R,0.0315X0.0236*%
%ADD67R,0.0551181X0.0905512*%
%ADD68R,0.0551181X0.0492126*%
%ADD69R,0.0905512X0.0551181*%
%ADD70R,0.0492126X0.0551181*%
%ADD71R,0.0649606X0.0649606*%
%ADD72C,0.0649606*%
%ADD73C,0.04*%
%ADD74C,0.016*%
%ADD75C,0.02*%
%ADD76C,0.008*%
G04 APERTURE END LIST*
G54D10*
G54D11*
X34914Y-38711D02*
X34685Y-38711D01*
X34800Y-38711D02*
X34800Y-38311D01*
X34761Y-38369D01*
X34723Y-38407D01*
X34685Y-38426D01*
G54D12*
X47297Y-21100D03*
X49502Y-21100D03*
G54D13*
X48400Y-20253D03*
G54D14*
X47150Y-22550D03*
G54D15*
X48150Y-22550D03*
X49150Y-22550D03*
X50150Y-22550D03*
X51150Y-22550D03*
G54D16*
X42892Y-33440D03*
X42420Y-33440D03*
X41947Y-33440D03*
G54D17*
X33600Y-24162D03*
X33600Y-28835D03*
G54D18*
X36100Y-28250D03*
G54D19*
X37100Y-27750D03*
X36100Y-27250D03*
X37100Y-26750D03*
X36100Y-26250D03*
X37100Y-25750D03*
X36100Y-25250D03*
X37100Y-24750D03*
G54D17*
X33600Y-30462D03*
X33600Y-35135D03*
G54D18*
X36100Y-34550D03*
G54D19*
X37100Y-34050D03*
X36100Y-33550D03*
X37100Y-33050D03*
X36100Y-32550D03*
X37100Y-32050D03*
X36100Y-31550D03*
X37100Y-31050D03*
G54D20*
X55619Y-22494D03*
X55619Y-23400D03*
X55619Y-24306D03*
G54D21*
X57981Y-23400D03*
G54D22*
X37200Y-35633D03*
X36825Y-34767D03*
X37575Y-34767D03*
X46500Y-26283D03*
X46125Y-25417D03*
X46875Y-25417D03*
X43400Y-26433D03*
X43025Y-25567D03*
X43775Y-25567D03*
G54D23*
X51275Y-25450D03*
X50525Y-25450D03*
G54D24*
X32100Y-33275D03*
X32100Y-32525D03*
X44500Y-25625D03*
X44500Y-26375D03*
G54D23*
X46915Y-30080D03*
X46165Y-30080D03*
X46935Y-30900D03*
X46185Y-30900D03*
G54D24*
X39825Y-30600D03*
X39825Y-29850D03*
G54D14*
X40000Y-28100D03*
G54D15*
X41000Y-28100D03*
X40000Y-27100D03*
X41000Y-27100D03*
X40000Y-26100D03*
X41000Y-26100D03*
G54D25*
X41950Y-34150D03*
X43350Y-33500D03*
X43150Y-32900D03*
X41500Y-33500D03*
X41750Y-32900D03*
X42440Y-32870D03*
G54D26*
X69291Y-21259D03*
X33070Y-37795D03*
G54D27*
X46850Y-24000D03*
X47450Y-24000D03*
X50000Y-24000D03*
X49400Y-24000D03*
G54D24*
X33500Y-27375D03*
X33500Y-26625D03*
G54D28*
X35150Y-32050D03*
X33050Y-32050D03*
X35150Y-32550D03*
X35150Y-33050D03*
X35150Y-33550D03*
X33050Y-32550D03*
X33050Y-33050D03*
X33050Y-33550D03*
G54D29*
X41179Y-31468D03*
X41179Y-31153D03*
X41179Y-30838D03*
X41179Y-30523D03*
X41179Y-30208D03*
X41179Y-29893D03*
X41179Y-29578D03*
X41179Y-29263D03*
X44945Y-29265D03*
X44945Y-31475D03*
X44945Y-31155D03*
X44945Y-30835D03*
X44945Y-30525D03*
X44945Y-30205D03*
X44945Y-29895D03*
X44945Y-29575D03*
G54D30*
X41963Y-28475D03*
X42277Y-28475D03*
X42593Y-28475D03*
X42907Y-28475D03*
X43223Y-28475D03*
X43537Y-28475D03*
X43853Y-28475D03*
X44167Y-28475D03*
X41965Y-32255D03*
X42275Y-32255D03*
X42595Y-32255D03*
X42905Y-32255D03*
X43215Y-32255D03*
X43535Y-32255D03*
X43855Y-32255D03*
X44175Y-32255D03*
G54D24*
X60850Y-35625D03*
X60850Y-36375D03*
G54D23*
X46175Y-31800D03*
X46925Y-31800D03*
X48925Y-33100D03*
X49675Y-33100D03*
X41275Y-22500D03*
X40525Y-22500D03*
G54D31*
X54600Y-38192D03*
G54D32*
X54600Y-37207D03*
G54D33*
X49750Y-25525D03*
X49750Y-25275D03*
X49750Y-25025D03*
X49750Y-24775D03*
X47650Y-26275D03*
X49750Y-26275D03*
X49750Y-26025D03*
X49750Y-25775D03*
X47650Y-24525D03*
X47650Y-24775D03*
X47650Y-25025D03*
X47650Y-25275D03*
X47650Y-25525D03*
X47650Y-25775D03*
X49750Y-24525D03*
X47650Y-26025D03*
G54D27*
X50050Y-23300D03*
X49450Y-23300D03*
X46850Y-23350D03*
X47450Y-23350D03*
G54D34*
X46700Y-27050D03*
X48000Y-27050D03*
G54D24*
X52100Y-36975D03*
X52100Y-36225D03*
G54D35*
X53083Y-27280D03*
X52217Y-27655D03*
X52217Y-26905D03*
G54D23*
X53675Y-25400D03*
X52925Y-25400D03*
X51675Y-24700D03*
X50925Y-24700D03*
X49575Y-30900D03*
X48825Y-30900D03*
G54D36*
X69200Y-34721D03*
X69200Y-32752D03*
X69200Y-30784D03*
X69200Y-28815D03*
X69200Y-24878D03*
X69200Y-26847D03*
G54D25*
X42900Y-34150D03*
X59200Y-34500D03*
X61300Y-35250D03*
X58350Y-33550D03*
X60150Y-34200D03*
X58350Y-34250D03*
X59200Y-33950D03*
X58350Y-34800D03*
X61250Y-34200D03*
G54D24*
X34800Y-23575D03*
X34800Y-22825D03*
G54D34*
X55550Y-30400D03*
X54250Y-30400D03*
G54D23*
X60525Y-34850D03*
X61275Y-34850D03*
G54D37*
X56584Y-34100D03*
G54D38*
X54615Y-34100D03*
G54D39*
X66400Y-33700D03*
G54D40*
X67856Y-34113D03*
X67856Y-33286D03*
G54D39*
X67200Y-25200D03*
G54D40*
X65743Y-24786D03*
X65743Y-25613D03*
G54D41*
X55352Y-35800D03*
X56848Y-35800D03*
G54D27*
X46750Y-24700D03*
X46150Y-24700D03*
G54D42*
X42300Y-25600D03*
X42300Y-26200D03*
X48800Y-23300D03*
X48800Y-23900D03*
X48100Y-23300D03*
X48100Y-23900D03*
X33500Y-26000D03*
X33500Y-25400D03*
G54D27*
X42600Y-22500D03*
X42000Y-22500D03*
G54D42*
X45300Y-26200D03*
X45300Y-25600D03*
G54D27*
X38100Y-38200D03*
X37500Y-38200D03*
X61200Y-38000D03*
X60600Y-38000D03*
X48900Y-31600D03*
X49500Y-31600D03*
X49600Y-33900D03*
X49000Y-33900D03*
G54D42*
X60602Y-34199D03*
X60602Y-33599D03*
G54D27*
X52800Y-28300D03*
X52200Y-28300D03*
X53000Y-26200D03*
X53600Y-26200D03*
G54D42*
X56000Y-21500D03*
X56000Y-20900D03*
X54400Y-23500D03*
X54400Y-22900D03*
X55900Y-27400D03*
X55900Y-28000D03*
X55900Y-29200D03*
X55900Y-28600D03*
X48150Y-31150D03*
X48150Y-30550D03*
X45300Y-27000D03*
X45300Y-27600D03*
G54D27*
X51150Y-26200D03*
X50550Y-26200D03*
G54D25*
X47800Y-36900D03*
X49200Y-38400D03*
X49200Y-36900D03*
X47800Y-38100D03*
X48630Y-37630D03*
G54D43*
X65400Y-20800D03*
G54D28*
X57700Y-35250D03*
X59800Y-35250D03*
X57700Y-34750D03*
X57700Y-34250D03*
X57700Y-33750D03*
X59800Y-34750D03*
X59800Y-34250D03*
X59800Y-33750D03*
G54D24*
X41000Y-25175D03*
X41000Y-24425D03*
G54D27*
X38700Y-33400D03*
X38100Y-33400D03*
G54D42*
X41800Y-20900D03*
X41800Y-21500D03*
G54D44*
X56700Y-38200D03*
G54D45*
X53650Y-27350D03*
X53650Y-29450D03*
X54150Y-27350D03*
X54650Y-27350D03*
X55150Y-27350D03*
X54150Y-29450D03*
X54650Y-29450D03*
X55150Y-29450D03*
X45350Y-24550D03*
X45350Y-22450D03*
X44850Y-24550D03*
X44350Y-24550D03*
X43850Y-24550D03*
X44850Y-22450D03*
X44350Y-22450D03*
X43850Y-22450D03*
G54D27*
X39300Y-33400D03*
X39900Y-33400D03*
G54D46*
X38125Y-24000D03*
X38125Y-24200D03*
X38125Y-24400D03*
X38125Y-24600D03*
X38125Y-24800D03*
X39875Y-24800D03*
X39875Y-24600D03*
X39875Y-24400D03*
X39875Y-24200D03*
X39875Y-24000D03*
G54D15*
X39500Y-36500D03*
X40500Y-36500D03*
X41500Y-36500D03*
X42500Y-36500D03*
X43500Y-36500D03*
X44500Y-36500D03*
X45500Y-36500D03*
G54D14*
X46500Y-36500D03*
X46500Y-38500D03*
G54D15*
X45500Y-38500D03*
X44500Y-38500D03*
X43500Y-38500D03*
X42500Y-38500D03*
X41500Y-38500D03*
X40500Y-38500D03*
X39500Y-38500D03*
X39500Y-35500D03*
X40500Y-35500D03*
X41500Y-35500D03*
X42500Y-35500D03*
X43500Y-35500D03*
X44500Y-35500D03*
X45500Y-35500D03*
X46500Y-35500D03*
G54D42*
X42175Y-23775D03*
X42175Y-23175D03*
G54D27*
X43000Y-24600D03*
X42400Y-24600D03*
G54D42*
X41800Y-25100D03*
X41800Y-24500D03*
G54D23*
X35775Y-21000D03*
X35025Y-21000D03*
X35775Y-21800D03*
X35025Y-21800D03*
G54D14*
X38400Y-32400D03*
G54D15*
X39400Y-32400D03*
G54D23*
X50975Y-33100D03*
X50225Y-33100D03*
G54D27*
X50300Y-33900D03*
X50900Y-33900D03*
X51000Y-31600D03*
X50400Y-31600D03*
X38100Y-36200D03*
X37500Y-36200D03*
G54D47*
X37400Y-37200D03*
X36400Y-37200D03*
X35400Y-37200D03*
G54D42*
X51700Y-31200D03*
X51700Y-30600D03*
G54D36*
X42752Y-21300D03*
X40784Y-21300D03*
X36847Y-21300D03*
X38815Y-21300D03*
G54D10*
G36*
X40107Y-19935D02*
X40107Y-21065D01*
X39792Y-20565D01*
X39792Y-20435D01*
X40107Y-19935D01*
X40107Y-19935D01*
G37*
G54D48*
X39450Y-20500D03*
G54D49*
X40230Y-20500D03*
G54D10*
G36*
X39907Y-19950D02*
X39607Y-20450D01*
X39592Y-20450D01*
X39292Y-19950D01*
X39907Y-19950D01*
X39907Y-19950D01*
G37*
G36*
X39292Y-21050D02*
X39592Y-20550D01*
X39607Y-20550D01*
X39907Y-21050D01*
X39292Y-21050D01*
X39292Y-21050D01*
G37*
G54D24*
X43050Y-23875D03*
X43050Y-23125D03*
G54D43*
X34500Y-36450D03*
G54D50*
X35000Y-28300D03*
G54D51*
X35000Y-26800D03*
X35000Y-25300D03*
G54D27*
X50200Y-30400D03*
X50800Y-30400D03*
G54D52*
X50800Y-29750D03*
X50800Y-29250D03*
X50800Y-28750D03*
X50800Y-28250D03*
X48600Y-28250D03*
X48600Y-28750D03*
X48600Y-29250D03*
X48600Y-29750D03*
G54D36*
X60837Y-21400D03*
X58868Y-21400D03*
X56900Y-21400D03*
X52962Y-21400D03*
X54931Y-21400D03*
G54D27*
X52900Y-22500D03*
X52300Y-22500D03*
G54D14*
X38800Y-29800D03*
G54D15*
X38800Y-30800D03*
G54D53*
X44019Y-21000D03*
X45381Y-21000D03*
X39581Y-22900D03*
X38219Y-22900D03*
G54D54*
X55000Y-31719D03*
X55000Y-33081D03*
G54D53*
X35669Y-22900D03*
X37031Y-22900D03*
G54D55*
X37400Y-29950D03*
X37400Y-28750D03*
G54D24*
X35200Y-34325D03*
X35200Y-35075D03*
X52100Y-38375D03*
X52100Y-37625D03*
G54D34*
X49650Y-35300D03*
X50950Y-35300D03*
G54D56*
X50800Y-38300D03*
G54D57*
X48300Y-37400D03*
G54D56*
X50800Y-36500D03*
G54D58*
X58113Y-38184D03*
X59687Y-38184D03*
G54D59*
X59687Y-36216D03*
G54D58*
X58113Y-36216D03*
G54D60*
X65950Y-30320D03*
X66450Y-30320D03*
X66950Y-30320D03*
X67450Y-30320D03*
X67450Y-28079D03*
X66950Y-28079D03*
X66450Y-28079D03*
X65950Y-28079D03*
G54D61*
X66700Y-28991D03*
G54D60*
X62950Y-30320D03*
X63450Y-30320D03*
X63950Y-30320D03*
X64450Y-30320D03*
X64450Y-28079D03*
X63950Y-28079D03*
X63450Y-28079D03*
X62950Y-28079D03*
G54D61*
X63700Y-28991D03*
G54D42*
X50500Y-21900D03*
X50500Y-21300D03*
X51200Y-21900D03*
X51200Y-21300D03*
G54D23*
X56525Y-37100D03*
X57275Y-37100D03*
G54D27*
X55900Y-37100D03*
X55300Y-37100D03*
X54900Y-26000D03*
X54300Y-26000D03*
G54D62*
X46992Y-21100D03*
X49807Y-21100D03*
G54D63*
X48144Y-20792D03*
X48400Y-21296D03*
X48655Y-20792D03*
X48911Y-21296D03*
X47888Y-21296D03*
G54D42*
X41375Y-23175D03*
X41375Y-23775D03*
X40625Y-23200D03*
X40625Y-23800D03*
X44100Y-27000D03*
X44100Y-27600D03*
G54D64*
X65200Y-29323D03*
X65200Y-29677D03*
G54D65*
X48865Y-32300D03*
X49535Y-32300D03*
X38735Y-26400D03*
X38065Y-26400D03*
X38735Y-25400D03*
X38065Y-25400D03*
G54D66*
X38800Y-28035D03*
X38800Y-27365D03*
G54D65*
X51035Y-32300D03*
X50365Y-32300D03*
G54D67*
X53500Y-31947D03*
G54D68*
X53500Y-32862D03*
G54D67*
X56500Y-33102D03*
G54D68*
X56500Y-32187D03*
G54D69*
X50102Y-27100D03*
G54D70*
X49187Y-27100D03*
G54D71*
X51800Y-32400D03*
G54D72*
X51800Y-33400D03*
G54D71*
X48100Y-32400D03*
G54D72*
X48100Y-33400D03*
G54D73*
X50950Y-27100D03*
X44050Y-25100D03*
X40360Y-25160D03*
X51700Y-27650D03*
X45300Y-26590D03*
X47300Y-31800D03*
X51700Y-35500D03*
X51700Y-34900D03*
X35200Y-33900D03*
X48820Y-30360D03*
X44320Y-23120D03*
X39000Y-33400D03*
X32500Y-33100D03*
X40425Y-30025D03*
X49900Y-34400D03*
X43560Y-29980D03*
X50000Y-32000D03*
X58400Y-25600D03*
X58400Y-28400D03*
X60400Y-28400D03*
X60400Y-24800D03*
X62200Y-22800D03*
X63600Y-21200D03*
X63800Y-23400D03*
X64800Y-24600D03*
X64800Y-25600D03*
X63400Y-27200D03*
X64400Y-27200D03*
X65400Y-27200D03*
X66400Y-27200D03*
X44180Y-29550D03*
X50350Y-31050D03*
X64400Y-36600D03*
X65600Y-37800D03*
X65600Y-35600D03*
X64800Y-33600D03*
X63600Y-33600D03*
X62200Y-33600D03*
X60800Y-32400D03*
X59000Y-32400D03*
X59000Y-30600D03*
X60800Y-30600D03*
X62200Y-31400D03*
X63200Y-31400D03*
X64200Y-31400D03*
X65200Y-31400D03*
X66000Y-31400D03*
X66800Y-31400D03*
X67600Y-31400D03*
X43610Y-29370D03*
X43340Y-30830D03*
X42790Y-30770D03*
X45300Y-28000D03*
X65300Y-30180D03*
X51820Y-29420D03*
X45920Y-29240D03*
X54110Y-24150D03*
X46700Y-27800D03*
X41990Y-30210D03*
X55150Y-28130D03*
X67850Y-30320D03*
X56480Y-27400D03*
X64820Y-30320D03*
X56080Y-29680D03*
X38740Y-28380D03*
X38800Y-38200D03*
X42430Y-29210D03*
X38500Y-36200D03*
X39500Y-25340D03*
X38800Y-24400D03*
X39440Y-31468D03*
X48060Y-28610D03*
X42600Y-27540D03*
X54520Y-27960D03*
X51200Y-20900D03*
X50500Y-20900D03*
X48680Y-27050D03*
X67200Y-21200D03*
X67200Y-23200D03*
X69000Y-23400D03*
X68200Y-36000D03*
X63520Y-35460D03*
X63540Y-38160D03*
X63560Y-36880D03*
X54150Y-26730D03*
X65200Y-28950D03*
X43700Y-23150D03*
X40410Y-24480D03*
X37580Y-24100D03*
X43430Y-27030D03*
X34700Y-24100D03*
X38100Y-25900D03*
X38700Y-27000D03*
X51370Y-28130D03*
X46050Y-27050D03*
X51700Y-30000D03*
X50470Y-24830D03*
X52450Y-25400D03*
X51400Y-37400D03*
X54835Y-24235D03*
X46410Y-24000D03*
X46430Y-23350D03*
X52550Y-26250D03*
X35220Y-35490D03*
X36700Y-35600D03*
X48140Y-30120D03*
X49290Y-28270D03*
X51710Y-25440D03*
X48290Y-25720D03*
X34200Y-25700D03*
X35140Y-31550D03*
X62040Y-35580D03*
X61960Y-38160D03*
X61920Y-36880D03*
X43880Y-26060D03*
X44840Y-21800D03*
X46100Y-21600D03*
X46100Y-20300D03*
X46200Y-21000D03*
X50000Y-32500D03*
X32600Y-32500D03*
X47460Y-30060D03*
X47400Y-30900D03*
X45700Y-30520D03*
X40425Y-30525D03*
X49590Y-30365D03*
X55850Y-32250D03*
X55700Y-31280D03*
X33760Y-33300D03*
X40420Y-31880D03*
X33780Y-32060D03*
X40440Y-31100D03*
X39300Y-24400D03*
X34800Y-22300D03*
X37950Y-26950D03*
X41670Y-21880D03*
X45350Y-23850D03*
X45640Y-25070D03*
X49100Y-26110D03*
X44960Y-23100D03*
X41600Y-22500D03*
X51610Y-26250D03*
X48790Y-24820D03*
X55480Y-26010D03*
X53250Y-33700D03*
X53750Y-33700D03*
X38300Y-37600D03*
X43740Y-23840D03*
X53200Y-29450D03*
X53200Y-30000D03*
G54D74*
X50102Y-27100D02*
X50950Y-27100D01*
G54D11*
X43025Y-25567D02*
X43025Y-25125D01*
X43050Y-25100D02*
X44050Y-25100D01*
X43025Y-25125D02*
X43050Y-25100D01*
X39875Y-24800D02*
X40180Y-24800D01*
G54D74*
X40375Y-25175D02*
X41000Y-25175D01*
X40375Y-25175D02*
X40360Y-25160D01*
G54D11*
X40180Y-24800D02*
X40360Y-25160D01*
G54D74*
X51705Y-27655D02*
X51700Y-27650D01*
X51705Y-27655D02*
X52217Y-27655D01*
X46925Y-31800D02*
X47300Y-31800D01*
X52100Y-35500D02*
X51700Y-35500D01*
X52100Y-36225D02*
X52100Y-35500D01*
X52100Y-35500D02*
X52100Y-35000D01*
X52000Y-34900D02*
X51700Y-34900D01*
X52100Y-35000D02*
X52000Y-34900D01*
X35150Y-33550D02*
X35150Y-33850D01*
X35200Y-33900D02*
X35200Y-34325D01*
X35150Y-33850D02*
X35200Y-33900D01*
X48600Y-29750D02*
X48600Y-29950D01*
X48820Y-30170D02*
X48820Y-30360D01*
X48600Y-29950D02*
X48820Y-30170D01*
X45300Y-26590D02*
X45300Y-26200D01*
G54D11*
X39875Y-24800D02*
X40060Y-24800D01*
G54D74*
X44350Y-22450D02*
X44350Y-23090D01*
X44350Y-23090D02*
X44320Y-23120D01*
X39300Y-33400D02*
X39000Y-33400D01*
X39000Y-33400D02*
X38700Y-33400D01*
X32100Y-33275D02*
X32325Y-33275D01*
X32550Y-33050D02*
X32500Y-33100D01*
X32550Y-33050D02*
X33050Y-33050D01*
X32325Y-33275D02*
X32500Y-33100D01*
G54D11*
X40425Y-30025D02*
X40225Y-29825D01*
X40608Y-30208D02*
X40425Y-30025D01*
X41179Y-30208D02*
X40608Y-30208D01*
X39850Y-29825D02*
X39825Y-29850D01*
X40225Y-29825D02*
X39850Y-29825D01*
G54D74*
X48810Y-30350D02*
X48820Y-30360D01*
G54D75*
X48820Y-30360D02*
X48820Y-30895D01*
X48825Y-30355D02*
X48820Y-30360D01*
X48820Y-30895D02*
X48825Y-30900D01*
G54D74*
X45300Y-27000D02*
X45300Y-26590D01*
X49600Y-34100D02*
X49900Y-34400D01*
X49600Y-34100D02*
X49600Y-33900D01*
X50300Y-33900D02*
X50300Y-34000D01*
X50300Y-34000D02*
X49900Y-34400D01*
G54D11*
X47650Y-25025D02*
X48501Y-25025D01*
X48510Y-25030D02*
X48510Y-25033D01*
X48506Y-25030D02*
X48510Y-25030D01*
X48501Y-25025D02*
X48506Y-25030D01*
X49750Y-25775D02*
X49035Y-25775D01*
X49035Y-25775D02*
X48910Y-25650D01*
X48910Y-25650D02*
X48910Y-25433D01*
X48910Y-25433D02*
X48510Y-25033D01*
X48251Y-24775D02*
X47650Y-24775D01*
X48510Y-25033D02*
X48251Y-24775D01*
X49750Y-25775D02*
X50345Y-25775D01*
X50525Y-25595D02*
X50525Y-25450D01*
X50345Y-25775D02*
X50525Y-25595D01*
X47650Y-25025D02*
X46965Y-25025D01*
X46750Y-24810D02*
X46750Y-24700D01*
X46965Y-25025D02*
X46750Y-24810D01*
X47650Y-24775D02*
X46825Y-24775D01*
X46825Y-24775D02*
X46750Y-24700D01*
X43215Y-32255D02*
X43215Y-31595D01*
X43700Y-30120D02*
X43560Y-29980D01*
X43700Y-31110D02*
X43700Y-30120D01*
X43215Y-31595D02*
X43700Y-31110D01*
X49500Y-31600D02*
X49850Y-31600D01*
X50000Y-31750D02*
X50000Y-32000D01*
X49850Y-31600D02*
X50000Y-31750D01*
X60400Y-28400D02*
X58400Y-28400D01*
X60400Y-24600D02*
X60400Y-24800D01*
X62200Y-22800D02*
X60400Y-24600D01*
X63600Y-23200D02*
X63600Y-21200D01*
X63800Y-23400D02*
X63600Y-23200D01*
X64800Y-25600D02*
X64800Y-24600D01*
X64400Y-27200D02*
X63400Y-27200D01*
X66400Y-27200D02*
X65400Y-27200D01*
X43535Y-32255D02*
X43535Y-31635D01*
X43920Y-29810D02*
X44180Y-29550D01*
X43920Y-31250D02*
X43920Y-29810D01*
X43535Y-31635D02*
X43920Y-31250D01*
X50400Y-31100D02*
X50400Y-31600D01*
X50350Y-31050D02*
X50400Y-31100D01*
X66400Y-33700D02*
X66400Y-34800D01*
X65600Y-37800D02*
X64400Y-36600D01*
X66400Y-34800D02*
X65600Y-35600D01*
X69200Y-30784D02*
X68215Y-30784D01*
X62200Y-33600D02*
X63600Y-33600D01*
X59000Y-32400D02*
X60800Y-32400D01*
X60800Y-30600D02*
X59000Y-30600D01*
X63200Y-31400D02*
X62200Y-31400D01*
X65200Y-31400D02*
X64200Y-31400D01*
X66800Y-31400D02*
X66000Y-31400D01*
X68215Y-30784D02*
X67600Y-31400D01*
X34680Y-34690D02*
X35960Y-34690D01*
X34450Y-32550D02*
X34440Y-32550D01*
X34680Y-34690D02*
X34440Y-34450D01*
X34440Y-34450D02*
X34440Y-32550D01*
X35960Y-34690D02*
X36100Y-34550D01*
X38800Y-30800D02*
X38440Y-30800D01*
X37575Y-31665D02*
X37575Y-34767D01*
X38440Y-30800D02*
X37575Y-31665D01*
X34450Y-32550D02*
X34450Y-31360D01*
X35000Y-30810D02*
X35000Y-28280D01*
X34450Y-31360D02*
X35000Y-30810D01*
X35000Y-28280D02*
X36070Y-28280D01*
X36070Y-28280D02*
X36100Y-28250D01*
X35150Y-32550D02*
X34450Y-32550D01*
X37595Y-34747D02*
X37595Y-34985D01*
X36300Y-35200D02*
X36100Y-35000D01*
X37380Y-35200D02*
X36300Y-35200D01*
X36100Y-35000D02*
X36100Y-34550D01*
X37595Y-34985D02*
X37380Y-35200D01*
X37400Y-28750D02*
X37400Y-28050D01*
X37400Y-28050D02*
X37100Y-27750D01*
X37100Y-27750D02*
X37080Y-27750D01*
X35610Y-29990D02*
X35610Y-33050D01*
X36630Y-28970D02*
X35610Y-29990D01*
X36630Y-28200D02*
X36630Y-28970D01*
X37080Y-27750D02*
X36630Y-28200D01*
X36845Y-34747D02*
X36845Y-34305D01*
X36845Y-34305D02*
X37100Y-34050D01*
X35150Y-33050D02*
X35610Y-33050D01*
X35610Y-33050D02*
X36410Y-33050D01*
X36410Y-33050D02*
X36820Y-33460D01*
X36820Y-33460D02*
X36820Y-33770D01*
X36820Y-33770D02*
X37100Y-34050D01*
G54D74*
X36770Y-29430D02*
X37935Y-29430D01*
X38149Y-27949D02*
X37470Y-27270D01*
X38149Y-29215D02*
X38149Y-27949D01*
X37935Y-29430D02*
X38149Y-29215D01*
X36570Y-26790D02*
X36570Y-26280D01*
X36570Y-26280D02*
X37100Y-25750D01*
X37100Y-32050D02*
X36720Y-31670D01*
X36570Y-27050D02*
X36790Y-27270D01*
X36570Y-27050D02*
X36570Y-26790D01*
X36790Y-27270D02*
X37470Y-27270D01*
X36570Y-26790D02*
X36570Y-26780D01*
X36740Y-29430D02*
X36770Y-29430D01*
X36420Y-29750D02*
X36740Y-29430D01*
X36420Y-31130D02*
X36420Y-29750D01*
X36720Y-31430D02*
X36420Y-31130D01*
X36720Y-31670D02*
X36720Y-31430D01*
X33500Y-27375D02*
X34405Y-27375D01*
X34405Y-27375D02*
X35000Y-26780D01*
X35000Y-26780D02*
X36570Y-26780D01*
G54D11*
X43853Y-28475D02*
X43853Y-29127D01*
X43853Y-29127D02*
X43610Y-29370D01*
X43223Y-28475D02*
X43223Y-30713D01*
X43223Y-30713D02*
X43340Y-30830D01*
X42907Y-28475D02*
X42907Y-30653D01*
X42907Y-30653D02*
X42790Y-30770D01*
X44945Y-31155D02*
X45575Y-31155D01*
X43990Y-36010D02*
X43500Y-36500D01*
X43990Y-35270D02*
X43990Y-36010D01*
X45710Y-33550D02*
X43990Y-35270D01*
X45710Y-31290D02*
X45710Y-33550D01*
X45575Y-31155D02*
X45710Y-31290D01*
X44945Y-31475D02*
X44945Y-33945D01*
X43010Y-35990D02*
X42500Y-36500D01*
X43010Y-35170D02*
X43010Y-35990D01*
X43190Y-34990D02*
X43010Y-35170D01*
X43900Y-34990D02*
X43190Y-34990D01*
X44945Y-33945D02*
X43900Y-34990D01*
X44945Y-29895D02*
X44245Y-29895D01*
X41990Y-36010D02*
X41500Y-36500D01*
X41990Y-35180D02*
X41990Y-36010D01*
X42380Y-34790D02*
X41990Y-35180D01*
X43820Y-34790D02*
X42380Y-34790D01*
X44510Y-34100D02*
X43820Y-34790D01*
X44510Y-31800D02*
X44510Y-34100D01*
X44180Y-31470D02*
X44510Y-31800D01*
X44180Y-29960D02*
X44180Y-31470D01*
X44245Y-29895D02*
X44180Y-29960D01*
X44175Y-32255D02*
X44175Y-34105D01*
X40990Y-36010D02*
X40500Y-36500D01*
X40990Y-34950D02*
X40990Y-36010D01*
X41340Y-34600D02*
X40990Y-34950D01*
X43680Y-34600D02*
X41340Y-34600D01*
X44175Y-34105D02*
X43680Y-34600D01*
X43855Y-32255D02*
X43855Y-34145D01*
X39980Y-36020D02*
X39500Y-36500D01*
X39980Y-34970D02*
X39980Y-36020D01*
X40540Y-34410D02*
X39980Y-34970D01*
X43590Y-34410D02*
X40540Y-34410D01*
X43855Y-34145D02*
X43590Y-34410D01*
X65200Y-29677D02*
X65200Y-30080D01*
X65200Y-30080D02*
X65300Y-30180D01*
X43537Y-28475D02*
X43537Y-27423D01*
X44720Y-28000D02*
X45300Y-28000D01*
X44650Y-27930D02*
X44720Y-28000D01*
X44650Y-27460D02*
X44650Y-27930D01*
X44490Y-27300D02*
X44650Y-27460D01*
X43660Y-27300D02*
X44490Y-27300D01*
X43537Y-27423D02*
X43660Y-27300D01*
X45300Y-27600D02*
X45300Y-28000D01*
X52200Y-28300D02*
X51930Y-28300D01*
X51930Y-28300D02*
X51820Y-28410D01*
X51820Y-28410D02*
X51820Y-29420D01*
X45895Y-29265D02*
X45920Y-29240D01*
X45895Y-29265D02*
X44945Y-29265D01*
X54400Y-23500D02*
X54400Y-23860D01*
X54400Y-23860D02*
X54110Y-24150D01*
X46700Y-27800D02*
X46700Y-29310D01*
X46435Y-29575D02*
X44945Y-29575D01*
X46700Y-29310D02*
X46435Y-29575D01*
X41673Y-29893D02*
X41990Y-30210D01*
X41179Y-29893D02*
X41673Y-29893D01*
X55150Y-28130D02*
X55150Y-27350D01*
X55900Y-28000D02*
X55900Y-28600D01*
X54650Y-29450D02*
X54650Y-28880D01*
X55890Y-28610D02*
X55900Y-28600D01*
X54920Y-28610D02*
X55890Y-28610D01*
X54650Y-28880D02*
X54920Y-28610D01*
X67849Y-30320D02*
X67850Y-30320D01*
X67450Y-30320D02*
X67849Y-30320D01*
X56480Y-27400D02*
X55900Y-27400D01*
X55900Y-29500D02*
X56080Y-29680D01*
X55900Y-29200D02*
X55900Y-29500D01*
X64819Y-30320D02*
X64820Y-30320D01*
X64819Y-30320D02*
X64450Y-30320D01*
X40000Y-28100D02*
X39370Y-28100D01*
X39370Y-28100D02*
X39070Y-28400D01*
X38740Y-28380D02*
X38740Y-28060D01*
X38740Y-28060D02*
X38800Y-28000D01*
X38760Y-28400D02*
X38740Y-28380D01*
X39070Y-28400D02*
X38760Y-28400D01*
X38800Y-38200D02*
X38100Y-38200D01*
X41179Y-29263D02*
X40463Y-29263D01*
X40000Y-28800D02*
X40000Y-28700D01*
X40000Y-28700D02*
X40000Y-28100D01*
X40463Y-29263D02*
X40000Y-28800D01*
X41963Y-28475D02*
X41963Y-28943D01*
X41963Y-28943D02*
X42220Y-29200D01*
X42220Y-29200D02*
X42430Y-29210D01*
X38500Y-36200D02*
X38100Y-36200D01*
X38125Y-24800D02*
X38960Y-24800D01*
X38960Y-24800D02*
X39500Y-25340D01*
X41965Y-32255D02*
X39545Y-32255D01*
X39545Y-32255D02*
X39400Y-32400D01*
X39900Y-33400D02*
X39900Y-32900D01*
X39900Y-32900D02*
X39400Y-32400D01*
X38125Y-24600D02*
X38600Y-24600D01*
X38600Y-24600D02*
X38800Y-24400D01*
X41179Y-31468D02*
X39440Y-31468D01*
X39440Y-31468D02*
X38872Y-31468D01*
X38872Y-31468D02*
X38400Y-31940D01*
X38400Y-31940D02*
X38400Y-32400D01*
X38100Y-33400D02*
X38100Y-32700D01*
X38100Y-32700D02*
X38400Y-32400D01*
X42593Y-28475D02*
X42593Y-27547D01*
X48280Y-29250D02*
X48060Y-29030D01*
X48060Y-29030D02*
X48060Y-28610D01*
X48280Y-29250D02*
X48600Y-29250D01*
X42593Y-27547D02*
X42600Y-27540D01*
X54650Y-27350D02*
X54650Y-27830D01*
X54650Y-27830D02*
X54520Y-27960D01*
X51200Y-21300D02*
X51200Y-20900D01*
X50500Y-21300D02*
X50500Y-20900D01*
G54D74*
X48680Y-25500D02*
X48680Y-27050D01*
X48455Y-25275D02*
X48680Y-25500D01*
X47650Y-25275D02*
X48455Y-25275D01*
X48680Y-27050D02*
X48650Y-27050D01*
X48000Y-27050D02*
X48650Y-27050D01*
X48650Y-27050D02*
X49137Y-27050D01*
X49137Y-27050D02*
X49187Y-27100D01*
X48050Y-27100D02*
X48000Y-27050D01*
X48000Y-26880D02*
X48000Y-27050D01*
X48080Y-26800D02*
X48000Y-26880D01*
G54D11*
X56848Y-35800D02*
X56848Y-35722D01*
X57580Y-35370D02*
X57700Y-35250D01*
X57200Y-35370D02*
X57580Y-35370D01*
X56848Y-35722D02*
X57200Y-35370D01*
X59687Y-36216D02*
X59687Y-35787D01*
X59687Y-35787D02*
X59500Y-35600D01*
X41400Y-25567D02*
X41407Y-25567D01*
X41407Y-25567D02*
X41680Y-25840D01*
X42300Y-26200D02*
X41680Y-26200D01*
X42300Y-26200D02*
X42700Y-26200D01*
X42933Y-26433D02*
X43400Y-26433D01*
X42700Y-26200D02*
X42933Y-26433D01*
X43400Y-26433D02*
X44442Y-26433D01*
X44442Y-26433D02*
X44500Y-26375D01*
X42277Y-28475D02*
X42277Y-27877D01*
X42277Y-27877D02*
X42120Y-27720D01*
X42120Y-27720D02*
X41900Y-27720D01*
X41900Y-27720D02*
X41680Y-27500D01*
X41680Y-27500D02*
X41680Y-26200D01*
X41680Y-26200D02*
X41680Y-25840D01*
X40533Y-25567D02*
X40000Y-26100D01*
X41400Y-25567D02*
X40533Y-25567D01*
X67200Y-25200D02*
X67552Y-25200D01*
X67552Y-25200D02*
X69200Y-26847D01*
X67200Y-25200D02*
X68878Y-25200D01*
X68878Y-25200D02*
X69200Y-24878D01*
X69200Y-24878D02*
X69200Y-23600D01*
X67200Y-23200D02*
X67200Y-21200D01*
X69200Y-23600D02*
X69000Y-23400D01*
G54D74*
X54150Y-27350D02*
X54150Y-26730D01*
G54D11*
X65200Y-28950D02*
X65200Y-29323D01*
X43050Y-23125D02*
X43675Y-23125D01*
X43675Y-23125D02*
X43700Y-23150D01*
X39875Y-24600D02*
X40290Y-24600D01*
G54D74*
X41165Y-24485D02*
X41000Y-24425D01*
X41165Y-24485D02*
X40410Y-24480D01*
G54D11*
X40290Y-24600D02*
X40410Y-24480D01*
X38105Y-24200D02*
X37680Y-24200D01*
X37680Y-24000D02*
X37580Y-24100D01*
X37680Y-24000D02*
X38105Y-24000D01*
X37680Y-24200D02*
X37580Y-24100D01*
G54D74*
X44100Y-27000D02*
X43460Y-27000D01*
X43460Y-27000D02*
X43430Y-27030D01*
X34800Y-23675D02*
X34800Y-24000D01*
X34800Y-24000D02*
X34700Y-24100D01*
X38100Y-25400D02*
X38100Y-25900D01*
X38100Y-25900D02*
X38100Y-26400D01*
X38800Y-27400D02*
X38800Y-27100D01*
X38800Y-27100D02*
X38700Y-27000D01*
X50800Y-28250D02*
X51250Y-28250D01*
X51250Y-28250D02*
X51370Y-28130D01*
X46700Y-27050D02*
X46050Y-27050D01*
X51700Y-30600D02*
X51700Y-30000D01*
X50925Y-24700D02*
X50800Y-24500D01*
X50800Y-24500D02*
X50470Y-24830D01*
X52925Y-25400D02*
X52450Y-25400D01*
X52100Y-37625D02*
X51625Y-37625D01*
X51625Y-37625D02*
X51400Y-37400D01*
X55619Y-24306D02*
X54906Y-24306D01*
X54906Y-24306D02*
X54835Y-24235D01*
X46850Y-24000D02*
X46410Y-24000D01*
X46850Y-23350D02*
X46430Y-23350D01*
X52100Y-36975D02*
X52100Y-37625D01*
X52217Y-26905D02*
X52217Y-26583D01*
X52600Y-26200D02*
X52550Y-26250D01*
X52600Y-26200D02*
X53000Y-26200D01*
X52217Y-26583D02*
X52550Y-26250D01*
X35200Y-35075D02*
X35200Y-35470D01*
X35200Y-35470D02*
X35220Y-35490D01*
X37200Y-35633D02*
X36733Y-35633D01*
X36733Y-35633D02*
X36700Y-35600D01*
X48150Y-30550D02*
X48150Y-30130D01*
X48150Y-30130D02*
X48140Y-30120D01*
X48600Y-28250D02*
X49270Y-28250D01*
X49270Y-28250D02*
X49290Y-28270D01*
G54D75*
X49590Y-30365D02*
X49590Y-30885D01*
X49590Y-30885D02*
X49575Y-30900D01*
G54D74*
X50470Y-24830D02*
X50420Y-24830D01*
X50195Y-25025D02*
X50390Y-24830D01*
X50390Y-24830D02*
X50470Y-24830D01*
X49750Y-25025D02*
X50195Y-25025D01*
X49975Y-25275D02*
X49750Y-25275D01*
X50420Y-24830D02*
X49975Y-25275D01*
X51275Y-25450D02*
X51700Y-25450D01*
X51700Y-25450D02*
X51710Y-25440D01*
X47650Y-25525D02*
X48095Y-25525D01*
X48095Y-25525D02*
X48290Y-25720D01*
X33500Y-25400D02*
X33900Y-25400D01*
X33900Y-25400D02*
X34200Y-25700D01*
X35150Y-32050D02*
X35150Y-31560D01*
X35150Y-31560D02*
X35140Y-31550D01*
X43775Y-25567D02*
X43775Y-25955D01*
X43775Y-25955D02*
X43880Y-26060D01*
X44850Y-22450D02*
X44850Y-21810D01*
X44850Y-21810D02*
X44840Y-21800D01*
X45491Y-21000D02*
X45500Y-21000D01*
X45500Y-21000D02*
X46100Y-21600D01*
X45491Y-21000D02*
X45491Y-20909D01*
X45491Y-20909D02*
X46100Y-20300D01*
X45491Y-21000D02*
X46200Y-21000D01*
X49675Y-33100D02*
X49675Y-32825D01*
X49675Y-32825D02*
X50000Y-32500D01*
X50225Y-33100D02*
X50225Y-32725D01*
X50225Y-32725D02*
X50000Y-32500D01*
X50400Y-32300D02*
X50200Y-32300D01*
X49800Y-32300D02*
X50000Y-32500D01*
X49800Y-32300D02*
X49500Y-32300D01*
X50200Y-32300D02*
X50000Y-32500D01*
X32100Y-32525D02*
X32575Y-32525D01*
X32650Y-32550D02*
X32600Y-32500D01*
X32650Y-32550D02*
X33050Y-32550D01*
X32575Y-32525D02*
X32600Y-32500D01*
X46915Y-30080D02*
X47440Y-30080D01*
X47440Y-30080D02*
X47460Y-30060D01*
X46935Y-30900D02*
X47400Y-30900D01*
X44945Y-30525D02*
X45695Y-30525D01*
X45695Y-30525D02*
X45700Y-30520D01*
G54D11*
X40425Y-30525D02*
X39900Y-30525D01*
X40427Y-30523D02*
X40425Y-30525D01*
X41179Y-30523D02*
X40427Y-30523D01*
X39900Y-30525D02*
X39825Y-30600D01*
G54D74*
X49625Y-30400D02*
X49590Y-30365D01*
G54D75*
X49575Y-30350D02*
X49590Y-30365D01*
G54D74*
X50200Y-30400D02*
X49625Y-30400D01*
G54D11*
X39950Y-20500D02*
X40230Y-20500D01*
X40230Y-20500D02*
X40650Y-20500D01*
X40650Y-20500D02*
X40784Y-20634D01*
X40784Y-20634D02*
X40784Y-21300D01*
X41800Y-20900D02*
X41800Y-20700D01*
X40000Y-20550D02*
X39950Y-20500D01*
X41650Y-20550D02*
X40000Y-20550D01*
X41800Y-20700D02*
X41650Y-20550D01*
X42752Y-21300D02*
X42752Y-21947D01*
X42752Y-21947D02*
X42600Y-22100D01*
X44019Y-21000D02*
X43052Y-21000D01*
X43052Y-21000D02*
X42752Y-21300D01*
X42600Y-22500D02*
X42600Y-22100D01*
X56500Y-32187D02*
X55912Y-32187D01*
X55912Y-32187D02*
X55850Y-32250D01*
X55000Y-31719D02*
X55261Y-31719D01*
X55261Y-31719D02*
X55700Y-31280D01*
X56900Y-21400D02*
X56100Y-21400D01*
X56100Y-21400D02*
X56000Y-21500D01*
G54D75*
X55619Y-23400D02*
X57981Y-23400D01*
X57981Y-23400D02*
X57981Y-21719D01*
X58300Y-21400D02*
X58868Y-21400D01*
X57981Y-21719D02*
X58300Y-21400D01*
G54D11*
X48100Y-32400D02*
X48100Y-31200D01*
X48100Y-31200D02*
X48150Y-31150D01*
X50800Y-30400D02*
X50800Y-29750D01*
X50070Y-29000D02*
X50070Y-28180D01*
X51650Y-26710D02*
X52080Y-26280D01*
X51650Y-27200D02*
X51650Y-26710D01*
X51150Y-27700D02*
X51650Y-27200D01*
X50550Y-27700D02*
X51150Y-27700D01*
X50070Y-28180D02*
X50550Y-27700D01*
X50800Y-29250D02*
X50290Y-29250D01*
X52080Y-26280D02*
X52080Y-24710D01*
X50070Y-29030D02*
X50070Y-29000D01*
X50290Y-29250D02*
X50070Y-29030D01*
X51675Y-24700D02*
X52080Y-24700D01*
X52080Y-24700D02*
X52080Y-24710D01*
X52080Y-23140D02*
X52300Y-22920D01*
X52080Y-24710D02*
X52080Y-24640D01*
X52080Y-24640D02*
X52080Y-23140D01*
X52300Y-22500D02*
X52300Y-22920D01*
X33510Y-33550D02*
X33760Y-33300D01*
X33510Y-33550D02*
X33050Y-33550D01*
X41733Y-31153D02*
X41179Y-31153D01*
X41733Y-31153D02*
X41800Y-31220D01*
X41800Y-31220D02*
X41800Y-31620D01*
X41800Y-31620D02*
X41540Y-31880D01*
X41540Y-31880D02*
X40420Y-31880D01*
X33780Y-32060D02*
X33770Y-32050D01*
X33770Y-32050D02*
X33050Y-32050D01*
X40440Y-30960D02*
X40440Y-31100D01*
X41179Y-30838D02*
X40562Y-30838D01*
X40562Y-30838D02*
X40440Y-30960D01*
X51800Y-32400D02*
X51800Y-31300D01*
X51800Y-31300D02*
X51700Y-31200D01*
X48100Y-33400D02*
X48925Y-33400D01*
X48900Y-32300D02*
X48900Y-33075D01*
X48900Y-33075D02*
X48925Y-33100D01*
X48900Y-31600D02*
X48900Y-32300D01*
X48900Y-32300D02*
X48925Y-32325D01*
X48925Y-32325D02*
X48925Y-33400D01*
X48925Y-33400D02*
X48925Y-33650D01*
X48925Y-33650D02*
X48925Y-33775D01*
X53675Y-25400D02*
X53675Y-22785D01*
X53930Y-22530D02*
X53930Y-21270D01*
X53675Y-22785D02*
X53930Y-22530D01*
X53083Y-27280D02*
X53083Y-27617D01*
X52800Y-27900D02*
X52800Y-28300D01*
X53083Y-27617D02*
X52800Y-27900D01*
X53600Y-26200D02*
X53600Y-26480D01*
X53600Y-26480D02*
X53083Y-26997D01*
X53083Y-27280D02*
X53083Y-26997D01*
X56000Y-20900D02*
X56000Y-20670D01*
X56000Y-20670D02*
X55880Y-20550D01*
X55880Y-20550D02*
X54650Y-20550D01*
X54650Y-20550D02*
X53930Y-21270D01*
X53600Y-26200D02*
X53600Y-25475D01*
X53600Y-25475D02*
X53675Y-25400D01*
X53700Y-25375D02*
X53675Y-25400D01*
X53700Y-25375D02*
X53675Y-25400D01*
X35025Y-21800D02*
X35025Y-22075D01*
X35025Y-22075D02*
X34800Y-22300D01*
X35669Y-22900D02*
X35669Y-22409D01*
X35560Y-22300D02*
X34800Y-22300D01*
X35669Y-22409D02*
X35560Y-22300D01*
X34800Y-22825D02*
X35594Y-22825D01*
X35594Y-22825D02*
X35669Y-22900D01*
X39300Y-24400D02*
X39875Y-24400D01*
X34800Y-22925D02*
X34800Y-22300D01*
X35025Y-21000D02*
X35025Y-22075D01*
X35025Y-22075D02*
X34800Y-22300D01*
X35025Y-21800D02*
X35025Y-21000D01*
X37100Y-26750D02*
X37750Y-26750D01*
X37750Y-26750D02*
X37950Y-26950D01*
X59800Y-34750D02*
X60425Y-34750D01*
X60425Y-34750D02*
X60525Y-34850D01*
X37500Y-36200D02*
X35870Y-36200D01*
X35400Y-36670D02*
X35400Y-37200D01*
X35870Y-36200D02*
X35400Y-36670D01*
X60850Y-35625D02*
X60335Y-35625D01*
X59960Y-35250D02*
X59800Y-35250D01*
X60335Y-35625D02*
X59960Y-35250D01*
X55900Y-37100D02*
X56525Y-37100D01*
X44167Y-28475D02*
X44167Y-27667D01*
X44167Y-27667D02*
X44100Y-27600D01*
X60600Y-33600D02*
X61280Y-33600D01*
X61280Y-33600D02*
X61650Y-33970D01*
X60600Y-33600D02*
X59950Y-33600D01*
X61650Y-33970D02*
X61650Y-35470D01*
X61650Y-35470D02*
X61530Y-35590D01*
X61530Y-35590D02*
X61530Y-37530D01*
X61200Y-37860D02*
X61200Y-38000D01*
X61530Y-37530D02*
X61200Y-37860D01*
X59950Y-33600D02*
X59800Y-33750D01*
X37400Y-37200D02*
X37400Y-38100D01*
X37400Y-38100D02*
X37500Y-38200D01*
X44945Y-30205D02*
X45495Y-30205D01*
X45620Y-30080D02*
X46165Y-30080D01*
X45495Y-30205D02*
X45620Y-30080D01*
X42595Y-32255D02*
X42595Y-32655D01*
X42892Y-32952D02*
X42892Y-33440D01*
X42595Y-32655D02*
X42892Y-32952D01*
X51800Y-33400D02*
X50900Y-33400D01*
X50900Y-33900D02*
X50900Y-33400D01*
X50900Y-33400D02*
X50900Y-33175D01*
X50900Y-33175D02*
X50975Y-33100D01*
X51000Y-32300D02*
X51000Y-31600D01*
X50975Y-33100D02*
X50975Y-32325D01*
X50975Y-32325D02*
X51000Y-32300D01*
X43000Y-24600D02*
X43800Y-24600D01*
X43800Y-24600D02*
X43850Y-24550D01*
X49400Y-24000D02*
X49400Y-23900D01*
X48800Y-23490D02*
X48800Y-23300D01*
X48930Y-23620D02*
X48800Y-23490D01*
X49120Y-23620D02*
X48930Y-23620D01*
X49400Y-23900D02*
X49120Y-23620D01*
X49150Y-22550D02*
X49180Y-22550D01*
X49450Y-22820D02*
X49450Y-23300D01*
X49180Y-22550D02*
X49450Y-22820D01*
X49450Y-23300D02*
X49450Y-23950D01*
X49450Y-23950D02*
X49400Y-24000D01*
X54400Y-22900D02*
X54400Y-22530D01*
X54436Y-22494D02*
X55619Y-22494D01*
X54400Y-22530D02*
X54436Y-22494D01*
X53650Y-27350D02*
X53650Y-26970D01*
X53650Y-26970D02*
X53800Y-26820D01*
X54070Y-26000D02*
X53940Y-26130D01*
X53940Y-26130D02*
X53940Y-26460D01*
X53940Y-26460D02*
X53800Y-26600D01*
X54300Y-26000D02*
X54070Y-26000D01*
X53800Y-26820D02*
X53800Y-26600D01*
X41800Y-24500D02*
X41800Y-24110D01*
X41800Y-24110D02*
X41810Y-24100D01*
X41375Y-23775D02*
X41375Y-24075D01*
X41375Y-24075D02*
X41350Y-24100D01*
X39875Y-24200D02*
X40220Y-24200D01*
X42175Y-24075D02*
X42175Y-23775D01*
X42150Y-24100D02*
X42175Y-24075D01*
X40320Y-24100D02*
X41350Y-24100D01*
X41350Y-24100D02*
X41810Y-24100D01*
X41810Y-24100D02*
X42150Y-24100D01*
X40220Y-24200D02*
X40320Y-24100D01*
X42175Y-23175D02*
X42175Y-23480D01*
X42175Y-23480D02*
X42170Y-23480D01*
X40625Y-23800D02*
X40625Y-23555D01*
X42400Y-24500D02*
X42400Y-24600D01*
X42580Y-24320D02*
X42400Y-24500D01*
X42580Y-23560D02*
X42580Y-24320D01*
X42500Y-23480D02*
X42580Y-23560D01*
X40700Y-23480D02*
X42170Y-23480D01*
X42170Y-23480D02*
X42500Y-23480D01*
X40625Y-23555D02*
X40700Y-23480D01*
X39875Y-24000D02*
X39875Y-23855D01*
X39930Y-23800D02*
X40625Y-23800D01*
X39875Y-23855D02*
X39930Y-23800D01*
X42400Y-24600D02*
X42400Y-24600D01*
X33500Y-26000D02*
X33500Y-26625D01*
X37400Y-29950D02*
X38650Y-29950D01*
X38650Y-29950D02*
X38800Y-29800D01*
X42275Y-32255D02*
X42275Y-32705D01*
X41947Y-33032D02*
X41947Y-33440D01*
X42275Y-32705D02*
X41947Y-33032D01*
X47450Y-24000D02*
X47450Y-23920D01*
X48100Y-23520D02*
X48100Y-23300D01*
X48040Y-23580D02*
X48100Y-23520D01*
X47790Y-23580D02*
X48040Y-23580D01*
X47450Y-23920D02*
X47790Y-23580D01*
X48150Y-22550D02*
X48130Y-22550D01*
X47450Y-23230D02*
X47450Y-23350D01*
X48130Y-22550D02*
X47450Y-23230D01*
X47450Y-23350D02*
X47450Y-24000D01*
X40625Y-23200D02*
X40625Y-22600D01*
X40625Y-22600D02*
X40525Y-22500D01*
X45350Y-24550D02*
X45350Y-23850D01*
X40525Y-22500D02*
X40525Y-22375D01*
X41800Y-21750D02*
X41800Y-21500D01*
X41500Y-22050D02*
X41670Y-21880D01*
X41670Y-21880D02*
X41800Y-21750D01*
X40850Y-22050D02*
X41500Y-22050D01*
X40525Y-22375D02*
X40850Y-22050D01*
X46875Y-25417D02*
X46875Y-25405D01*
X46630Y-25160D02*
X46540Y-25160D01*
X46875Y-25405D02*
X46630Y-25160D01*
X46150Y-24700D02*
X46150Y-24770D01*
X46150Y-24770D02*
X46540Y-25160D01*
X48100Y-23900D02*
X48100Y-24430D01*
X48100Y-24430D02*
X48005Y-24525D01*
X47650Y-24525D02*
X48005Y-24525D01*
X48800Y-23900D02*
X48800Y-24380D01*
X48945Y-24525D02*
X49750Y-24525D01*
X48800Y-24380D02*
X48945Y-24525D01*
X46125Y-25417D02*
X46125Y-25395D01*
X45800Y-25070D02*
X45640Y-25070D01*
X46125Y-25395D02*
X45800Y-25070D01*
X49750Y-26025D02*
X49185Y-26025D01*
X49185Y-26025D02*
X49100Y-26110D01*
X41375Y-23175D02*
X41375Y-22600D01*
X41375Y-22600D02*
X41275Y-22500D01*
X45350Y-22450D02*
X45350Y-23010D01*
X45260Y-23100D02*
X44960Y-23100D01*
X45350Y-23010D02*
X45260Y-23100D01*
X41600Y-22500D02*
X41275Y-22500D01*
X41600Y-22500D02*
X42000Y-22500D01*
X49750Y-26275D02*
X50475Y-26275D01*
X50475Y-26275D02*
X50550Y-26200D01*
X40000Y-27100D02*
X39550Y-27100D01*
X39190Y-26740D02*
X39190Y-26490D01*
X39550Y-27100D02*
X39190Y-26740D01*
X38700Y-26400D02*
X39100Y-26400D01*
X39100Y-26400D02*
X39190Y-26490D01*
X51610Y-26250D02*
X51200Y-26250D01*
X51200Y-26250D02*
X51150Y-26200D01*
X42905Y-32255D02*
X42905Y-31390D01*
X42435Y-30920D02*
X42435Y-29735D01*
X42905Y-31390D02*
X42435Y-30920D01*
X40000Y-27100D02*
X40500Y-27600D01*
X41600Y-28900D02*
X42435Y-29735D01*
X40750Y-28900D02*
X41600Y-28900D01*
X40500Y-28650D02*
X40750Y-28900D01*
X40500Y-27600D02*
X40500Y-28650D01*
X40020Y-29240D02*
X38850Y-29240D01*
X40358Y-29578D02*
X40020Y-29240D01*
X41179Y-29578D02*
X40358Y-29578D01*
X38360Y-28750D02*
X38360Y-26780D01*
X38850Y-29240D02*
X38360Y-28750D01*
X38700Y-25400D02*
X38700Y-25710D01*
X38420Y-26720D02*
X38360Y-26780D01*
X38420Y-25990D02*
X38420Y-26720D01*
X38700Y-25710D02*
X38420Y-25990D01*
X38700Y-25400D02*
X38940Y-25400D01*
X40490Y-26590D02*
X41000Y-27100D01*
X39630Y-26590D02*
X40490Y-26590D01*
X39440Y-26400D02*
X39630Y-26590D01*
X39440Y-25900D02*
X39440Y-26400D01*
X38940Y-25400D02*
X39440Y-25900D01*
X49750Y-25525D02*
X49255Y-25525D01*
X49120Y-25150D02*
X48790Y-24820D01*
X49120Y-25390D02*
X49120Y-25150D01*
X49255Y-25525D02*
X49120Y-25390D01*
X46500Y-26283D02*
X46500Y-25920D01*
X45420Y-25600D02*
X45300Y-25600D01*
X45650Y-25830D02*
X45420Y-25600D01*
X46410Y-25830D02*
X45650Y-25830D01*
X46500Y-25920D02*
X46410Y-25830D01*
X44500Y-25625D02*
X45275Y-25625D01*
X45275Y-25625D02*
X45300Y-25600D01*
X46175Y-31800D02*
X46175Y-30910D01*
X46175Y-30910D02*
X46185Y-30900D01*
X44945Y-30835D02*
X45515Y-30835D01*
X45580Y-30900D02*
X46185Y-30900D01*
X45515Y-30835D02*
X45580Y-30900D01*
X52962Y-21400D02*
X52962Y-22437D01*
X52962Y-22437D02*
X52900Y-22500D01*
X55470Y-26000D02*
X54900Y-26000D01*
X55480Y-26010D02*
X55470Y-26000D01*
X35775Y-21000D02*
X35775Y-20925D01*
X38800Y-20500D02*
X36200Y-20500D01*
X35775Y-20925D02*
X36200Y-20500D01*
X38815Y-21300D02*
X38815Y-20500D01*
X38815Y-20500D02*
X38800Y-20500D01*
X39450Y-20500D02*
X38800Y-20500D01*
G54D74*
X53500Y-32862D02*
X53500Y-33450D01*
X53500Y-33450D02*
X53250Y-33700D01*
X53500Y-33450D02*
X53750Y-33700D01*
X44350Y-24550D02*
X44350Y-24050D01*
X44140Y-23840D02*
X43740Y-23840D01*
X44350Y-24050D02*
X44140Y-23840D01*
X43740Y-23840D02*
X43085Y-23840D01*
X43085Y-23840D02*
X43050Y-23875D01*
X53650Y-29450D02*
X53200Y-29450D01*
X53650Y-29450D02*
X53650Y-29550D01*
X53650Y-29550D02*
X53200Y-30000D01*
G54D10*
G36*
X43535Y-34196D02*
X43511Y-34220D01*
X41365Y-34220D01*
X41365Y-32865D01*
X41552Y-32865D01*
X41707Y-32445D01*
X41736Y-32445D01*
X41736Y-32676D01*
X41757Y-32727D01*
X41797Y-32767D01*
X41848Y-32788D01*
X41904Y-32788D01*
X41922Y-32788D01*
X41813Y-32898D01*
X41772Y-32959D01*
X41770Y-32966D01*
X41750Y-32986D01*
X41728Y-33038D01*
X41728Y-33093D01*
X41728Y-33841D01*
X41750Y-33893D01*
X41789Y-33932D01*
X41840Y-33953D01*
X41896Y-33954D01*
X42054Y-33954D01*
X42105Y-33932D01*
X42123Y-33914D01*
X42137Y-33950D01*
X42205Y-34017D01*
X42293Y-34054D01*
X42320Y-34054D01*
X42380Y-33994D01*
X42380Y-33500D01*
X42352Y-33500D01*
X42352Y-33380D01*
X42380Y-33380D01*
X42380Y-32885D01*
X42371Y-32877D01*
X42409Y-32839D01*
X42409Y-32839D01*
X42409Y-32839D01*
X42450Y-32777D01*
X42450Y-32776D01*
X42452Y-32777D01*
X42460Y-32789D01*
X42508Y-32837D01*
X42459Y-32885D01*
X42459Y-33380D01*
X42487Y-33380D01*
X42487Y-33500D01*
X42459Y-33500D01*
X42459Y-33994D01*
X42519Y-34054D01*
X42546Y-34054D01*
X42634Y-34017D01*
X42702Y-33950D01*
X42716Y-33914D01*
X42734Y-33932D01*
X42785Y-33953D01*
X42841Y-33954D01*
X42998Y-33954D01*
X43050Y-33932D01*
X43089Y-33893D01*
X43111Y-33841D01*
X43111Y-33786D01*
X43111Y-33038D01*
X43089Y-32986D01*
X43082Y-32979D01*
X43082Y-32952D01*
X43067Y-32879D01*
X43026Y-32818D01*
X43026Y-32818D01*
X42997Y-32788D01*
X43021Y-32788D01*
X43060Y-32772D01*
X43085Y-32782D01*
X43085Y-32865D01*
X43535Y-32865D01*
X43535Y-34196D01*
X43535Y-34196D01*
G37*
G54D76*
X43535Y-34196D02*
X43511Y-34220D01*
X41365Y-34220D01*
X41365Y-32865D01*
X41552Y-32865D01*
X41707Y-32445D01*
X41736Y-32445D01*
X41736Y-32676D01*
X41757Y-32727D01*
X41797Y-32767D01*
X41848Y-32788D01*
X41904Y-32788D01*
X41922Y-32788D01*
X41813Y-32898D01*
X41772Y-32959D01*
X41770Y-32966D01*
X41750Y-32986D01*
X41728Y-33038D01*
X41728Y-33093D01*
X41728Y-33841D01*
X41750Y-33893D01*
X41789Y-33932D01*
X41840Y-33953D01*
X41896Y-33954D01*
X42054Y-33954D01*
X42105Y-33932D01*
X42123Y-33914D01*
X42137Y-33950D01*
X42205Y-34017D01*
X42293Y-34054D01*
X42320Y-34054D01*
X42380Y-33994D01*
X42380Y-33500D01*
X42352Y-33500D01*
X42352Y-33380D01*
X42380Y-33380D01*
X42380Y-32885D01*
X42371Y-32877D01*
X42409Y-32839D01*
X42409Y-32839D01*
X42409Y-32839D01*
X42450Y-32777D01*
X42450Y-32776D01*
X42452Y-32777D01*
X42460Y-32789D01*
X42508Y-32837D01*
X42459Y-32885D01*
X42459Y-33380D01*
X42487Y-33380D01*
X42487Y-33500D01*
X42459Y-33500D01*
X42459Y-33994D01*
X42519Y-34054D01*
X42546Y-34054D01*
X42634Y-34017D01*
X42702Y-33950D01*
X42716Y-33914D01*
X42734Y-33932D01*
X42785Y-33953D01*
X42841Y-33954D01*
X42998Y-33954D01*
X43050Y-33932D01*
X43089Y-33893D01*
X43111Y-33841D01*
X43111Y-33786D01*
X43111Y-33038D01*
X43089Y-32986D01*
X43082Y-32979D01*
X43082Y-32952D01*
X43067Y-32879D01*
X43026Y-32818D01*
X43026Y-32818D01*
X42997Y-32788D01*
X43021Y-32788D01*
X43060Y-32772D01*
X43085Y-32782D01*
X43085Y-32865D01*
X43535Y-32865D01*
X43535Y-34196D01*
G54D10*
G36*
X70210Y-29610D02*
X65687Y-29610D01*
X65687Y-20743D01*
X65643Y-20637D01*
X65563Y-20556D01*
X65457Y-20512D01*
X65343Y-20512D01*
X65237Y-20556D01*
X65156Y-20636D01*
X65112Y-20742D01*
X65112Y-20856D01*
X65156Y-20962D01*
X65236Y-21043D01*
X65342Y-21087D01*
X65456Y-21087D01*
X65562Y-21043D01*
X65643Y-20963D01*
X65687Y-20857D01*
X65687Y-20743D01*
X65687Y-29610D01*
X65458Y-29610D01*
X65458Y-29570D01*
X65436Y-29519D01*
X65417Y-29500D01*
X65436Y-29480D01*
X65457Y-29429D01*
X65458Y-29373D01*
X65458Y-29216D01*
X65445Y-29185D01*
X65488Y-29142D01*
X65539Y-29017D01*
X65540Y-28882D01*
X65488Y-28757D01*
X65392Y-28661D01*
X65267Y-28610D01*
X65132Y-28609D01*
X65007Y-28661D01*
X64911Y-28757D01*
X64860Y-28882D01*
X64859Y-29017D01*
X64911Y-29142D01*
X64954Y-29185D01*
X64942Y-29216D01*
X64941Y-29272D01*
X64941Y-29429D01*
X64963Y-29480D01*
X64982Y-29499D01*
X64963Y-29519D01*
X64942Y-29570D01*
X64941Y-29610D01*
X61619Y-29610D01*
X61619Y-21245D01*
X61500Y-20957D01*
X61280Y-20737D01*
X60993Y-20618D01*
X60682Y-20617D01*
X60394Y-20736D01*
X60174Y-20956D01*
X60055Y-21243D01*
X60054Y-21554D01*
X60173Y-21842D01*
X60393Y-22062D01*
X60680Y-22181D01*
X60991Y-22182D01*
X61279Y-22063D01*
X61499Y-21843D01*
X61618Y-21556D01*
X61619Y-21245D01*
X61619Y-29610D01*
X56440Y-29610D01*
X56440Y-27739D01*
X56547Y-27740D01*
X56672Y-27688D01*
X56768Y-27592D01*
X56819Y-27467D01*
X56820Y-27332D01*
X56768Y-27207D01*
X56672Y-27111D01*
X56547Y-27060D01*
X56440Y-27059D01*
X56440Y-23790D01*
X57336Y-23790D01*
X57336Y-24205D01*
X57380Y-24312D01*
X57462Y-24393D01*
X57568Y-24437D01*
X57683Y-24438D01*
X58392Y-24438D01*
X58499Y-24393D01*
X58581Y-24312D01*
X58625Y-24205D01*
X58625Y-24090D01*
X58625Y-22594D01*
X58581Y-22487D01*
X58499Y-22406D01*
X58393Y-22362D01*
X58371Y-22362D01*
X58371Y-22008D01*
X58424Y-22062D01*
X58712Y-22181D01*
X59023Y-22182D01*
X59310Y-22063D01*
X59531Y-21843D01*
X59650Y-21556D01*
X59650Y-21245D01*
X59531Y-20957D01*
X59312Y-20737D01*
X59024Y-20618D01*
X58713Y-20617D01*
X58426Y-20736D01*
X58205Y-20956D01*
X58173Y-21035D01*
X58150Y-21039D01*
X58024Y-21124D01*
X58024Y-21124D01*
X57705Y-21443D01*
X57682Y-21477D01*
X57682Y-21245D01*
X57563Y-20957D01*
X57343Y-20737D01*
X57056Y-20618D01*
X56745Y-20617D01*
X56457Y-20736D01*
X56440Y-20754D01*
X56440Y-20290D01*
X66010Y-20290D01*
X66010Y-26572D01*
X68088Y-27840D01*
X70210Y-27840D01*
X70210Y-29610D01*
X70210Y-29610D01*
G37*
G54D76*
X70210Y-29610D02*
X65687Y-29610D01*
X65687Y-20743D01*
X65643Y-20637D01*
X65563Y-20556D01*
X65457Y-20512D01*
X65343Y-20512D01*
X65237Y-20556D01*
X65156Y-20636D01*
X65112Y-20742D01*
X65112Y-20856D01*
X65156Y-20962D01*
X65236Y-21043D01*
X65342Y-21087D01*
X65456Y-21087D01*
X65562Y-21043D01*
X65643Y-20963D01*
X65687Y-20857D01*
X65687Y-20743D01*
X65687Y-29610D01*
X65458Y-29610D01*
X65458Y-29570D01*
X65436Y-29519D01*
X65417Y-29500D01*
X65436Y-29480D01*
X65457Y-29429D01*
X65458Y-29373D01*
X65458Y-29216D01*
X65445Y-29185D01*
X65488Y-29142D01*
X65539Y-29017D01*
X65540Y-28882D01*
X65488Y-28757D01*
X65392Y-28661D01*
X65267Y-28610D01*
X65132Y-28609D01*
X65007Y-28661D01*
X64911Y-28757D01*
X64860Y-28882D01*
X64859Y-29017D01*
X64911Y-29142D01*
X64954Y-29185D01*
X64942Y-29216D01*
X64941Y-29272D01*
X64941Y-29429D01*
X64963Y-29480D01*
X64982Y-29499D01*
X64963Y-29519D01*
X64942Y-29570D01*
X64941Y-29610D01*
X61619Y-29610D01*
X61619Y-21245D01*
X61500Y-20957D01*
X61280Y-20737D01*
X60993Y-20618D01*
X60682Y-20617D01*
X60394Y-20736D01*
X60174Y-20956D01*
X60055Y-21243D01*
X60054Y-21554D01*
X60173Y-21842D01*
X60393Y-22062D01*
X60680Y-22181D01*
X60991Y-22182D01*
X61279Y-22063D01*
X61499Y-21843D01*
X61618Y-21556D01*
X61619Y-21245D01*
X61619Y-29610D01*
X56440Y-29610D01*
X56440Y-27739D01*
X56547Y-27740D01*
X56672Y-27688D01*
X56768Y-27592D01*
X56819Y-27467D01*
X56820Y-27332D01*
X56768Y-27207D01*
X56672Y-27111D01*
X56547Y-27060D01*
X56440Y-27059D01*
X56440Y-23790D01*
X57336Y-23790D01*
X57336Y-24205D01*
X57380Y-24312D01*
X57462Y-24393D01*
X57568Y-24437D01*
X57683Y-24438D01*
X58392Y-24438D01*
X58499Y-24393D01*
X58581Y-24312D01*
X58625Y-24205D01*
X58625Y-24090D01*
X58625Y-22594D01*
X58581Y-22487D01*
X58499Y-22406D01*
X58393Y-22362D01*
X58371Y-22362D01*
X58371Y-22008D01*
X58424Y-22062D01*
X58712Y-22181D01*
X59023Y-22182D01*
X59310Y-22063D01*
X59531Y-21843D01*
X59650Y-21556D01*
X59650Y-21245D01*
X59531Y-20957D01*
X59312Y-20737D01*
X59024Y-20618D01*
X58713Y-20617D01*
X58426Y-20736D01*
X58205Y-20956D01*
X58173Y-21035D01*
X58150Y-21039D01*
X58024Y-21124D01*
X58024Y-21124D01*
X57705Y-21443D01*
X57682Y-21477D01*
X57682Y-21245D01*
X57563Y-20957D01*
X57343Y-20737D01*
X57056Y-20618D01*
X56745Y-20617D01*
X56457Y-20736D01*
X56440Y-20754D01*
X56440Y-20290D01*
X66010Y-20290D01*
X66010Y-26572D01*
X68088Y-27840D01*
X70210Y-27840D01*
X70210Y-29610D01*
G54D10*
G36*
X70210Y-31810D02*
X68388Y-31810D01*
X67360Y-32478D01*
X67360Y-38710D01*
X63690Y-38710D01*
X63690Y-38465D01*
X63732Y-38448D01*
X63828Y-38352D01*
X63879Y-38227D01*
X63880Y-38092D01*
X63828Y-37967D01*
X63732Y-37871D01*
X63690Y-37854D01*
X63690Y-37194D01*
X63752Y-37168D01*
X63848Y-37072D01*
X63899Y-36947D01*
X63900Y-36812D01*
X63848Y-36687D01*
X63752Y-36591D01*
X63690Y-36565D01*
X63690Y-35757D01*
X63712Y-35748D01*
X63808Y-35652D01*
X63859Y-35527D01*
X63860Y-35392D01*
X63808Y-35267D01*
X63712Y-35171D01*
X63587Y-35120D01*
X63452Y-35119D01*
X63327Y-35171D01*
X63239Y-35260D01*
X62155Y-35260D01*
X62107Y-35240D01*
X61972Y-35239D01*
X61924Y-35260D01*
X61840Y-35260D01*
X61840Y-33970D01*
X61839Y-33969D01*
X61840Y-33969D01*
X61837Y-33957D01*
X61825Y-33897D01*
X61784Y-33835D01*
X61784Y-33835D01*
X61690Y-33741D01*
X61690Y-33160D01*
X57740Y-33160D01*
X57740Y-30910D01*
X56023Y-30910D01*
X55977Y-30864D01*
X55797Y-30790D01*
X55602Y-30789D01*
X55422Y-30864D01*
X55377Y-30910D01*
X54990Y-30910D01*
X54990Y-29140D01*
X55534Y-29140D01*
X55534Y-29352D01*
X55556Y-29404D01*
X55595Y-29443D01*
X55647Y-29464D01*
X55702Y-29465D01*
X55710Y-29465D01*
X55710Y-29500D01*
X55724Y-29572D01*
X55744Y-29602D01*
X55740Y-29612D01*
X55739Y-29747D01*
X55791Y-29872D01*
X55887Y-29968D01*
X56012Y-30019D01*
X56147Y-30020D01*
X56220Y-29990D01*
X64208Y-29990D01*
X64183Y-30014D01*
X64162Y-30065D01*
X64162Y-30121D01*
X64162Y-30574D01*
X64183Y-30625D01*
X64222Y-30665D01*
X64274Y-30686D01*
X64330Y-30686D01*
X64625Y-30686D01*
X64676Y-30665D01*
X64702Y-30639D01*
X64752Y-30659D01*
X64887Y-30660D01*
X65012Y-30608D01*
X65108Y-30512D01*
X65123Y-30474D01*
X65232Y-30519D01*
X65367Y-30520D01*
X65492Y-30468D01*
X65588Y-30372D01*
X65639Y-30247D01*
X65640Y-30112D01*
X65589Y-29990D01*
X67208Y-29990D01*
X67183Y-30014D01*
X67162Y-30065D01*
X67162Y-30121D01*
X67162Y-30574D01*
X67183Y-30625D01*
X67222Y-30665D01*
X67274Y-30686D01*
X67330Y-30686D01*
X67625Y-30686D01*
X67676Y-30665D01*
X67711Y-30630D01*
X67782Y-30659D01*
X67917Y-30660D01*
X68042Y-30608D01*
X68138Y-30512D01*
X68189Y-30387D01*
X68190Y-30252D01*
X68138Y-30127D01*
X68042Y-30031D01*
X67941Y-29990D01*
X70210Y-29990D01*
X70210Y-31810D01*
X70210Y-31810D01*
G37*
G54D76*
X70210Y-31810D02*
X68388Y-31810D01*
X67360Y-32478D01*
X67360Y-38710D01*
X63690Y-38710D01*
X63690Y-38465D01*
X63732Y-38448D01*
X63828Y-38352D01*
X63879Y-38227D01*
X63880Y-38092D01*
X63828Y-37967D01*
X63732Y-37871D01*
X63690Y-37854D01*
X63690Y-37194D01*
X63752Y-37168D01*
X63848Y-37072D01*
X63899Y-36947D01*
X63900Y-36812D01*
X63848Y-36687D01*
X63752Y-36591D01*
X63690Y-36565D01*
X63690Y-35757D01*
X63712Y-35748D01*
X63808Y-35652D01*
X63859Y-35527D01*
X63860Y-35392D01*
X63808Y-35267D01*
X63712Y-35171D01*
X63587Y-35120D01*
X63452Y-35119D01*
X63327Y-35171D01*
X63239Y-35260D01*
X62155Y-35260D01*
X62107Y-35240D01*
X61972Y-35239D01*
X61924Y-35260D01*
X61840Y-35260D01*
X61840Y-33970D01*
X61839Y-33969D01*
X61840Y-33969D01*
X61837Y-33957D01*
X61825Y-33897D01*
X61784Y-33835D01*
X61784Y-33835D01*
X61690Y-33741D01*
X61690Y-33160D01*
X57740Y-33160D01*
X57740Y-30910D01*
X56023Y-30910D01*
X55977Y-30864D01*
X55797Y-30790D01*
X55602Y-30789D01*
X55422Y-30864D01*
X55377Y-30910D01*
X54990Y-30910D01*
X54990Y-29140D01*
X55534Y-29140D01*
X55534Y-29352D01*
X55556Y-29404D01*
X55595Y-29443D01*
X55647Y-29464D01*
X55702Y-29465D01*
X55710Y-29465D01*
X55710Y-29500D01*
X55724Y-29572D01*
X55744Y-29602D01*
X55740Y-29612D01*
X55739Y-29747D01*
X55791Y-29872D01*
X55887Y-29968D01*
X56012Y-30019D01*
X56147Y-30020D01*
X56220Y-29990D01*
X64208Y-29990D01*
X64183Y-30014D01*
X64162Y-30065D01*
X64162Y-30121D01*
X64162Y-30574D01*
X64183Y-30625D01*
X64222Y-30665D01*
X64274Y-30686D01*
X64330Y-30686D01*
X64625Y-30686D01*
X64676Y-30665D01*
X64702Y-30639D01*
X64752Y-30659D01*
X64887Y-30660D01*
X65012Y-30608D01*
X65108Y-30512D01*
X65123Y-30474D01*
X65232Y-30519D01*
X65367Y-30520D01*
X65492Y-30468D01*
X65588Y-30372D01*
X65639Y-30247D01*
X65640Y-30112D01*
X65589Y-29990D01*
X67208Y-29990D01*
X67183Y-30014D01*
X67162Y-30065D01*
X67162Y-30121D01*
X67162Y-30574D01*
X67183Y-30625D01*
X67222Y-30665D01*
X67274Y-30686D01*
X67330Y-30686D01*
X67625Y-30686D01*
X67676Y-30665D01*
X67711Y-30630D01*
X67782Y-30659D01*
X67917Y-30660D01*
X68042Y-30608D01*
X68138Y-30512D01*
X68189Y-30387D01*
X68190Y-30252D01*
X68138Y-30127D01*
X68042Y-30031D01*
X67941Y-29990D01*
X70210Y-29990D01*
X70210Y-31810D01*
G54D10*
G36*
X39590Y-35505D02*
X39505Y-35590D01*
X39500Y-35584D01*
X39494Y-35590D01*
X39409Y-35505D01*
X39415Y-35500D01*
X39409Y-35494D01*
X39494Y-35409D01*
X39500Y-35415D01*
X39505Y-35409D01*
X39590Y-35494D01*
X39584Y-35500D01*
X39590Y-35505D01*
X39590Y-35505D01*
G37*
G54D76*
X39590Y-35505D02*
X39505Y-35590D01*
X39500Y-35584D01*
X39494Y-35590D01*
X39409Y-35505D01*
X39415Y-35500D01*
X39409Y-35494D01*
X39494Y-35409D01*
X39500Y-35415D01*
X39505Y-35409D01*
X39590Y-35494D01*
X39584Y-35500D01*
X39590Y-35505D01*
G54D10*
G36*
X40590Y-35505D02*
X40505Y-35590D01*
X40500Y-35584D01*
X40494Y-35590D01*
X40409Y-35505D01*
X40415Y-35500D01*
X40409Y-35494D01*
X40494Y-35409D01*
X40500Y-35415D01*
X40505Y-35409D01*
X40590Y-35494D01*
X40584Y-35500D01*
X40590Y-35505D01*
X40590Y-35505D01*
G37*
G54D76*
X40590Y-35505D02*
X40505Y-35590D01*
X40500Y-35584D01*
X40494Y-35590D01*
X40409Y-35505D01*
X40415Y-35500D01*
X40409Y-35494D01*
X40494Y-35409D01*
X40500Y-35415D01*
X40505Y-35409D01*
X40590Y-35494D01*
X40584Y-35500D01*
X40590Y-35505D01*
G54D10*
G36*
X41590Y-35505D02*
X41505Y-35590D01*
X41500Y-35584D01*
X41494Y-35590D01*
X41409Y-35505D01*
X41415Y-35500D01*
X41409Y-35494D01*
X41494Y-35409D01*
X41500Y-35415D01*
X41505Y-35409D01*
X41590Y-35494D01*
X41584Y-35500D01*
X41590Y-35505D01*
X41590Y-35505D01*
G37*
G54D76*
X41590Y-35505D02*
X41505Y-35590D01*
X41500Y-35584D01*
X41494Y-35590D01*
X41409Y-35505D01*
X41415Y-35500D01*
X41409Y-35494D01*
X41494Y-35409D01*
X41500Y-35415D01*
X41505Y-35409D01*
X41590Y-35494D01*
X41584Y-35500D01*
X41590Y-35505D01*
G54D10*
G36*
X42590Y-35505D02*
X42505Y-35590D01*
X42500Y-35584D01*
X42494Y-35590D01*
X42409Y-35505D01*
X42415Y-35500D01*
X42409Y-35494D01*
X42494Y-35409D01*
X42500Y-35415D01*
X42505Y-35409D01*
X42590Y-35494D01*
X42584Y-35500D01*
X42590Y-35505D01*
X42590Y-35505D01*
G37*
G54D76*
X42590Y-35505D02*
X42505Y-35590D01*
X42500Y-35584D01*
X42494Y-35590D01*
X42409Y-35505D01*
X42415Y-35500D01*
X42409Y-35494D01*
X42494Y-35409D01*
X42500Y-35415D01*
X42505Y-35409D01*
X42590Y-35494D01*
X42584Y-35500D01*
X42590Y-35505D01*
G54D10*
G36*
X43590Y-35505D02*
X43505Y-35590D01*
X43500Y-35584D01*
X43494Y-35590D01*
X43409Y-35505D01*
X43415Y-35500D01*
X43409Y-35494D01*
X43494Y-35409D01*
X43500Y-35415D01*
X43505Y-35409D01*
X43590Y-35494D01*
X43584Y-35500D01*
X43590Y-35505D01*
X43590Y-35505D01*
G37*
G54D76*
X43590Y-35505D02*
X43505Y-35590D01*
X43500Y-35584D01*
X43494Y-35590D01*
X43409Y-35505D01*
X43415Y-35500D01*
X43409Y-35494D01*
X43494Y-35409D01*
X43500Y-35415D01*
X43505Y-35409D01*
X43590Y-35494D01*
X43584Y-35500D01*
X43590Y-35505D01*
G54D10*
G36*
X52410Y-37760D02*
X49860Y-37760D01*
X49860Y-38710D01*
X49590Y-38710D01*
X49590Y-35880D01*
X49590Y-35360D01*
X49170Y-35360D01*
X49110Y-35420D01*
X49109Y-35652D01*
X49110Y-35747D01*
X49146Y-35836D01*
X49214Y-35903D01*
X49302Y-35940D01*
X49530Y-35940D01*
X49590Y-35880D01*
X49590Y-38710D01*
X47046Y-38710D01*
X47046Y-35569D01*
X47031Y-35355D01*
X46978Y-35226D01*
X46886Y-35198D01*
X46801Y-35282D01*
X46801Y-35113D01*
X46773Y-35021D01*
X46569Y-34953D01*
X46355Y-34968D01*
X46226Y-35021D01*
X46198Y-35113D01*
X46500Y-35415D01*
X46801Y-35113D01*
X46801Y-35282D01*
X46584Y-35500D01*
X46886Y-35801D01*
X46978Y-35773D01*
X47046Y-35569D01*
X47046Y-38710D01*
X46940Y-38710D01*
X46940Y-38172D01*
X46940Y-36772D01*
X46940Y-36172D01*
X46918Y-36120D01*
X46879Y-36081D01*
X46827Y-36060D01*
X46801Y-36060D01*
X46801Y-35886D01*
X46500Y-35584D01*
X46415Y-35669D01*
X46415Y-35500D01*
X46113Y-35198D01*
X46021Y-35226D01*
X46002Y-35285D01*
X45978Y-35226D01*
X45886Y-35198D01*
X45801Y-35282D01*
X45801Y-35113D01*
X45773Y-35021D01*
X45569Y-34953D01*
X45355Y-34968D01*
X45226Y-35021D01*
X45198Y-35113D01*
X45500Y-35415D01*
X45801Y-35113D01*
X45801Y-35282D01*
X45584Y-35500D01*
X45886Y-35801D01*
X45978Y-35773D01*
X45997Y-35714D01*
X46021Y-35773D01*
X46113Y-35801D01*
X46415Y-35500D01*
X46415Y-35669D01*
X46198Y-35886D01*
X46226Y-35978D01*
X46430Y-36046D01*
X46644Y-36031D01*
X46773Y-35978D01*
X46801Y-35886D01*
X46801Y-36060D01*
X46772Y-36059D01*
X46172Y-36059D01*
X46120Y-36081D01*
X46081Y-36120D01*
X46060Y-36172D01*
X46059Y-36227D01*
X46059Y-36827D01*
X46081Y-36879D01*
X46120Y-36918D01*
X46172Y-36939D01*
X46227Y-36940D01*
X46827Y-36940D01*
X46879Y-36918D01*
X46918Y-36879D01*
X46939Y-36827D01*
X46940Y-36772D01*
X46940Y-38172D01*
X46918Y-38120D01*
X46879Y-38081D01*
X46827Y-38060D01*
X46772Y-38059D01*
X46172Y-38059D01*
X46120Y-38081D01*
X46081Y-38120D01*
X46060Y-38172D01*
X46059Y-38227D01*
X46059Y-38710D01*
X45889Y-38710D01*
X45939Y-38587D01*
X45940Y-38412D01*
X45940Y-36412D01*
X45873Y-36251D01*
X45801Y-36179D01*
X45801Y-35886D01*
X45500Y-35584D01*
X45415Y-35669D01*
X45415Y-35500D01*
X45113Y-35198D01*
X45021Y-35226D01*
X45002Y-35285D01*
X44978Y-35226D01*
X44886Y-35198D01*
X44584Y-35500D01*
X44886Y-35801D01*
X44978Y-35773D01*
X44997Y-35714D01*
X45021Y-35773D01*
X45113Y-35801D01*
X45415Y-35500D01*
X45415Y-35669D01*
X45198Y-35886D01*
X45226Y-35978D01*
X45430Y-36046D01*
X45644Y-36031D01*
X45773Y-35978D01*
X45801Y-35886D01*
X45801Y-36179D01*
X45749Y-36127D01*
X45587Y-36060D01*
X45412Y-36059D01*
X45251Y-36126D01*
X45127Y-36250D01*
X45060Y-36412D01*
X45059Y-36587D01*
X45126Y-36748D01*
X45250Y-36872D01*
X45412Y-36939D01*
X45587Y-36940D01*
X45748Y-36873D01*
X45872Y-36749D01*
X45939Y-36587D01*
X45940Y-36412D01*
X45940Y-38412D01*
X45873Y-38251D01*
X45749Y-38127D01*
X45587Y-38060D01*
X45412Y-38059D01*
X45251Y-38126D01*
X45127Y-38250D01*
X45060Y-38412D01*
X45059Y-38587D01*
X45110Y-38710D01*
X44889Y-38710D01*
X44939Y-38587D01*
X44940Y-38412D01*
X44940Y-36412D01*
X44873Y-36251D01*
X44801Y-36179D01*
X44749Y-36127D01*
X44587Y-36060D01*
X44412Y-36059D01*
X44251Y-36126D01*
X44127Y-36250D01*
X44060Y-36412D01*
X44059Y-36587D01*
X44126Y-36748D01*
X44250Y-36872D01*
X44412Y-36939D01*
X44587Y-36940D01*
X44748Y-36873D01*
X44872Y-36749D01*
X44939Y-36587D01*
X44940Y-36412D01*
X44940Y-38412D01*
X44873Y-38251D01*
X44749Y-38127D01*
X44587Y-38060D01*
X44412Y-38059D01*
X44251Y-38126D01*
X44127Y-38250D01*
X44060Y-38412D01*
X44059Y-38587D01*
X44110Y-38710D01*
X43889Y-38710D01*
X43939Y-38587D01*
X43940Y-38412D01*
X43873Y-38251D01*
X43749Y-38127D01*
X43587Y-38060D01*
X43412Y-38059D01*
X43251Y-38126D01*
X43127Y-38250D01*
X43060Y-38412D01*
X43059Y-38587D01*
X43110Y-38710D01*
X42889Y-38710D01*
X42939Y-38587D01*
X42940Y-38412D01*
X42873Y-38251D01*
X42749Y-38127D01*
X42587Y-38060D01*
X42412Y-38059D01*
X42251Y-38126D01*
X42127Y-38250D01*
X42060Y-38412D01*
X42059Y-38587D01*
X42110Y-38710D01*
X41889Y-38710D01*
X41939Y-38587D01*
X41940Y-38412D01*
X41873Y-38251D01*
X41749Y-38127D01*
X41587Y-38060D01*
X41412Y-38059D01*
X41251Y-38126D01*
X41127Y-38250D01*
X41060Y-38412D01*
X41059Y-38587D01*
X41110Y-38710D01*
X40889Y-38710D01*
X40939Y-38587D01*
X40940Y-38412D01*
X40873Y-38251D01*
X40749Y-38127D01*
X40587Y-38060D01*
X40412Y-38059D01*
X40251Y-38126D01*
X40127Y-38250D01*
X40060Y-38412D01*
X40059Y-38587D01*
X40110Y-38710D01*
X39889Y-38710D01*
X39939Y-38587D01*
X39940Y-38412D01*
X39873Y-38251D01*
X39749Y-38127D01*
X39587Y-38060D01*
X39412Y-38059D01*
X39251Y-38126D01*
X39240Y-38137D01*
X39240Y-36862D01*
X39250Y-36872D01*
X39412Y-36939D01*
X39587Y-36940D01*
X39748Y-36873D01*
X39872Y-36749D01*
X39939Y-36587D01*
X39940Y-36412D01*
X39915Y-36353D01*
X40114Y-36154D01*
X40155Y-36092D01*
X40170Y-36020D01*
X40170Y-35914D01*
X40198Y-35886D01*
X40226Y-35978D01*
X40430Y-36046D01*
X40644Y-36031D01*
X40739Y-35992D01*
X40646Y-36084D01*
X40587Y-36060D01*
X40412Y-36059D01*
X40251Y-36126D01*
X40127Y-36250D01*
X40060Y-36412D01*
X40059Y-36587D01*
X40126Y-36748D01*
X40250Y-36872D01*
X40412Y-36939D01*
X40587Y-36940D01*
X40748Y-36873D01*
X40872Y-36749D01*
X40939Y-36587D01*
X40940Y-36412D01*
X40915Y-36353D01*
X41124Y-36144D01*
X41165Y-36082D01*
X41180Y-36010D01*
X41180Y-35904D01*
X41198Y-35886D01*
X41226Y-35978D01*
X41430Y-36046D01*
X41644Y-36031D01*
X41739Y-35992D01*
X41646Y-36084D01*
X41587Y-36060D01*
X41412Y-36059D01*
X41251Y-36126D01*
X41127Y-36250D01*
X41060Y-36412D01*
X41059Y-36587D01*
X41126Y-36748D01*
X41250Y-36872D01*
X41412Y-36939D01*
X41587Y-36940D01*
X41748Y-36873D01*
X41872Y-36749D01*
X41939Y-36587D01*
X41940Y-36412D01*
X41915Y-36353D01*
X42124Y-36144D01*
X42165Y-36082D01*
X42180Y-36010D01*
X42180Y-35904D01*
X42198Y-35886D01*
X42226Y-35978D01*
X42430Y-36046D01*
X42644Y-36031D01*
X42739Y-35992D01*
X42646Y-36084D01*
X42587Y-36060D01*
X42412Y-36059D01*
X42251Y-36126D01*
X42127Y-36250D01*
X42060Y-36412D01*
X42059Y-36587D01*
X42126Y-36748D01*
X42250Y-36872D01*
X42412Y-36939D01*
X42587Y-36940D01*
X42748Y-36873D01*
X42872Y-36749D01*
X42939Y-36587D01*
X42940Y-36412D01*
X42915Y-36353D01*
X43144Y-36124D01*
X43185Y-36062D01*
X43200Y-35990D01*
X43200Y-35892D01*
X43226Y-35978D01*
X43430Y-36046D01*
X43644Y-36031D01*
X43739Y-35992D01*
X43646Y-36084D01*
X43587Y-36060D01*
X43412Y-36059D01*
X43251Y-36126D01*
X43127Y-36250D01*
X43060Y-36412D01*
X43059Y-36587D01*
X43126Y-36748D01*
X43250Y-36872D01*
X43412Y-36939D01*
X43587Y-36940D01*
X43748Y-36873D01*
X43872Y-36749D01*
X43939Y-36587D01*
X43940Y-36412D01*
X43915Y-36353D01*
X44124Y-36144D01*
X44165Y-36082D01*
X44180Y-36010D01*
X44180Y-35904D01*
X44198Y-35886D01*
X44226Y-35978D01*
X44430Y-36046D01*
X44644Y-36031D01*
X44773Y-35978D01*
X44801Y-35886D01*
X44500Y-35584D01*
X44494Y-35590D01*
X44409Y-35505D01*
X44415Y-35500D01*
X44409Y-35494D01*
X44494Y-35409D01*
X44500Y-35415D01*
X44801Y-35113D01*
X44773Y-35021D01*
X44573Y-34955D01*
X44588Y-34940D01*
X49109Y-34940D01*
X49109Y-34947D01*
X49110Y-35180D01*
X49170Y-35240D01*
X49590Y-35240D01*
X49590Y-35232D01*
X49710Y-35232D01*
X49710Y-35240D01*
X49717Y-35240D01*
X49717Y-35360D01*
X49710Y-35360D01*
X49710Y-35880D01*
X49770Y-35940D01*
X49860Y-35940D01*
X49860Y-37090D01*
X52410Y-37090D01*
X52410Y-37760D01*
X52410Y-37760D01*
G37*
G54D76*
X52410Y-37760D02*
X49860Y-37760D01*
X49860Y-38710D01*
X49590Y-38710D01*
X49590Y-35880D01*
X49590Y-35360D01*
X49170Y-35360D01*
X49110Y-35420D01*
X49109Y-35652D01*
X49110Y-35747D01*
X49146Y-35836D01*
X49214Y-35903D01*
X49302Y-35940D01*
X49530Y-35940D01*
X49590Y-35880D01*
X49590Y-38710D01*
X47046Y-38710D01*
X47046Y-35569D01*
X47031Y-35355D01*
X46978Y-35226D01*
X46886Y-35198D01*
X46801Y-35282D01*
X46801Y-35113D01*
X46773Y-35021D01*
X46569Y-34953D01*
X46355Y-34968D01*
X46226Y-35021D01*
X46198Y-35113D01*
X46500Y-35415D01*
X46801Y-35113D01*
X46801Y-35282D01*
X46584Y-35500D01*
X46886Y-35801D01*
X46978Y-35773D01*
X47046Y-35569D01*
X47046Y-38710D01*
X46940Y-38710D01*
X46940Y-38172D01*
X46940Y-36772D01*
X46940Y-36172D01*
X46918Y-36120D01*
X46879Y-36081D01*
X46827Y-36060D01*
X46801Y-36060D01*
X46801Y-35886D01*
X46500Y-35584D01*
X46415Y-35669D01*
X46415Y-35500D01*
X46113Y-35198D01*
X46021Y-35226D01*
X46002Y-35285D01*
X45978Y-35226D01*
X45886Y-35198D01*
X45801Y-35282D01*
X45801Y-35113D01*
X45773Y-35021D01*
X45569Y-34953D01*
X45355Y-34968D01*
X45226Y-35021D01*
X45198Y-35113D01*
X45500Y-35415D01*
X45801Y-35113D01*
X45801Y-35282D01*
X45584Y-35500D01*
X45886Y-35801D01*
X45978Y-35773D01*
X45997Y-35714D01*
X46021Y-35773D01*
X46113Y-35801D01*
X46415Y-35500D01*
X46415Y-35669D01*
X46198Y-35886D01*
X46226Y-35978D01*
X46430Y-36046D01*
X46644Y-36031D01*
X46773Y-35978D01*
X46801Y-35886D01*
X46801Y-36060D01*
X46772Y-36059D01*
X46172Y-36059D01*
X46120Y-36081D01*
X46081Y-36120D01*
X46060Y-36172D01*
X46059Y-36227D01*
X46059Y-36827D01*
X46081Y-36879D01*
X46120Y-36918D01*
X46172Y-36939D01*
X46227Y-36940D01*
X46827Y-36940D01*
X46879Y-36918D01*
X46918Y-36879D01*
X46939Y-36827D01*
X46940Y-36772D01*
X46940Y-38172D01*
X46918Y-38120D01*
X46879Y-38081D01*
X46827Y-38060D01*
X46772Y-38059D01*
X46172Y-38059D01*
X46120Y-38081D01*
X46081Y-38120D01*
X46060Y-38172D01*
X46059Y-38227D01*
X46059Y-38710D01*
X45889Y-38710D01*
X45939Y-38587D01*
X45940Y-38412D01*
X45940Y-36412D01*
X45873Y-36251D01*
X45801Y-36179D01*
X45801Y-35886D01*
X45500Y-35584D01*
X45415Y-35669D01*
X45415Y-35500D01*
X45113Y-35198D01*
X45021Y-35226D01*
X45002Y-35285D01*
X44978Y-35226D01*
X44886Y-35198D01*
X44584Y-35500D01*
X44886Y-35801D01*
X44978Y-35773D01*
X44997Y-35714D01*
X45021Y-35773D01*
X45113Y-35801D01*
X45415Y-35500D01*
X45415Y-35669D01*
X45198Y-35886D01*
X45226Y-35978D01*
X45430Y-36046D01*
X45644Y-36031D01*
X45773Y-35978D01*
X45801Y-35886D01*
X45801Y-36179D01*
X45749Y-36127D01*
X45587Y-36060D01*
X45412Y-36059D01*
X45251Y-36126D01*
X45127Y-36250D01*
X45060Y-36412D01*
X45059Y-36587D01*
X45126Y-36748D01*
X45250Y-36872D01*
X45412Y-36939D01*
X45587Y-36940D01*
X45748Y-36873D01*
X45872Y-36749D01*
X45939Y-36587D01*
X45940Y-36412D01*
X45940Y-38412D01*
X45873Y-38251D01*
X45749Y-38127D01*
X45587Y-38060D01*
X45412Y-38059D01*
X45251Y-38126D01*
X45127Y-38250D01*
X45060Y-38412D01*
X45059Y-38587D01*
X45110Y-38710D01*
X44889Y-38710D01*
X44939Y-38587D01*
X44940Y-38412D01*
X44940Y-36412D01*
X44873Y-36251D01*
X44801Y-36179D01*
X44749Y-36127D01*
X44587Y-36060D01*
X44412Y-36059D01*
X44251Y-36126D01*
X44127Y-36250D01*
X44060Y-36412D01*
X44059Y-36587D01*
X44126Y-36748D01*
X44250Y-36872D01*
X44412Y-36939D01*
X44587Y-36940D01*
X44748Y-36873D01*
X44872Y-36749D01*
X44939Y-36587D01*
X44940Y-36412D01*
X44940Y-38412D01*
X44873Y-38251D01*
X44749Y-38127D01*
X44587Y-38060D01*
X44412Y-38059D01*
X44251Y-38126D01*
X44127Y-38250D01*
X44060Y-38412D01*
X44059Y-38587D01*
X44110Y-38710D01*
X43889Y-38710D01*
X43939Y-38587D01*
X43940Y-38412D01*
X43873Y-38251D01*
X43749Y-38127D01*
X43587Y-38060D01*
X43412Y-38059D01*
X43251Y-38126D01*
X43127Y-38250D01*
X43060Y-38412D01*
X43059Y-38587D01*
X43110Y-38710D01*
X42889Y-38710D01*
X42939Y-38587D01*
X42940Y-38412D01*
X42873Y-38251D01*
X42749Y-38127D01*
X42587Y-38060D01*
X42412Y-38059D01*
X42251Y-38126D01*
X42127Y-38250D01*
X42060Y-38412D01*
X42059Y-38587D01*
X42110Y-38710D01*
X41889Y-38710D01*
X41939Y-38587D01*
X41940Y-38412D01*
X41873Y-38251D01*
X41749Y-38127D01*
X41587Y-38060D01*
X41412Y-38059D01*
X41251Y-38126D01*
X41127Y-38250D01*
X41060Y-38412D01*
X41059Y-38587D01*
X41110Y-38710D01*
X40889Y-38710D01*
X40939Y-38587D01*
X40940Y-38412D01*
X40873Y-38251D01*
X40749Y-38127D01*
X40587Y-38060D01*
X40412Y-38059D01*
X40251Y-38126D01*
X40127Y-38250D01*
X40060Y-38412D01*
X40059Y-38587D01*
X40110Y-38710D01*
X39889Y-38710D01*
X39939Y-38587D01*
X39940Y-38412D01*
X39873Y-38251D01*
X39749Y-38127D01*
X39587Y-38060D01*
X39412Y-38059D01*
X39251Y-38126D01*
X39240Y-38137D01*
X39240Y-36862D01*
X39250Y-36872D01*
X39412Y-36939D01*
X39587Y-36940D01*
X39748Y-36873D01*
X39872Y-36749D01*
X39939Y-36587D01*
X39940Y-36412D01*
X39915Y-36353D01*
X40114Y-36154D01*
X40155Y-36092D01*
X40170Y-36020D01*
X40170Y-35914D01*
X40198Y-35886D01*
X40226Y-35978D01*
X40430Y-36046D01*
X40644Y-36031D01*
X40739Y-35992D01*
X40646Y-36084D01*
X40587Y-36060D01*
X40412Y-36059D01*
X40251Y-36126D01*
X40127Y-36250D01*
X40060Y-36412D01*
X40059Y-36587D01*
X40126Y-36748D01*
X40250Y-36872D01*
X40412Y-36939D01*
X40587Y-36940D01*
X40748Y-36873D01*
X40872Y-36749D01*
X40939Y-36587D01*
X40940Y-36412D01*
X40915Y-36353D01*
X41124Y-36144D01*
X41165Y-36082D01*
X41180Y-36010D01*
X41180Y-35904D01*
X41198Y-35886D01*
X41226Y-35978D01*
X41430Y-36046D01*
X41644Y-36031D01*
X41739Y-35992D01*
X41646Y-36084D01*
X41587Y-36060D01*
X41412Y-36059D01*
X41251Y-36126D01*
X41127Y-36250D01*
X41060Y-36412D01*
X41059Y-36587D01*
X41126Y-36748D01*
X41250Y-36872D01*
X41412Y-36939D01*
X41587Y-36940D01*
X41748Y-36873D01*
X41872Y-36749D01*
X41939Y-36587D01*
X41940Y-36412D01*
X41915Y-36353D01*
X42124Y-36144D01*
X42165Y-36082D01*
X42180Y-36010D01*
X42180Y-35904D01*
X42198Y-35886D01*
X42226Y-35978D01*
X42430Y-36046D01*
X42644Y-36031D01*
X42739Y-35992D01*
X42646Y-36084D01*
X42587Y-36060D01*
X42412Y-36059D01*
X42251Y-36126D01*
X42127Y-36250D01*
X42060Y-36412D01*
X42059Y-36587D01*
X42126Y-36748D01*
X42250Y-36872D01*
X42412Y-36939D01*
X42587Y-36940D01*
X42748Y-36873D01*
X42872Y-36749D01*
X42939Y-36587D01*
X42940Y-36412D01*
X42915Y-36353D01*
X43144Y-36124D01*
X43185Y-36062D01*
X43200Y-35990D01*
X43200Y-35892D01*
X43226Y-35978D01*
X43430Y-36046D01*
X43644Y-36031D01*
X43739Y-35992D01*
X43646Y-36084D01*
X43587Y-36060D01*
X43412Y-36059D01*
X43251Y-36126D01*
X43127Y-36250D01*
X43060Y-36412D01*
X43059Y-36587D01*
X43126Y-36748D01*
X43250Y-36872D01*
X43412Y-36939D01*
X43587Y-36940D01*
X43748Y-36873D01*
X43872Y-36749D01*
X43939Y-36587D01*
X43940Y-36412D01*
X43915Y-36353D01*
X44124Y-36144D01*
X44165Y-36082D01*
X44180Y-36010D01*
X44180Y-35904D01*
X44198Y-35886D01*
X44226Y-35978D01*
X44430Y-36046D01*
X44644Y-36031D01*
X44773Y-35978D01*
X44801Y-35886D01*
X44500Y-35584D01*
X44494Y-35590D01*
X44409Y-35505D01*
X44415Y-35500D01*
X44409Y-35494D01*
X44494Y-35409D01*
X44500Y-35415D01*
X44801Y-35113D01*
X44773Y-35021D01*
X44573Y-34955D01*
X44588Y-34940D01*
X49109Y-34940D01*
X49109Y-34947D01*
X49110Y-35180D01*
X49170Y-35240D01*
X49590Y-35240D01*
X49590Y-35232D01*
X49710Y-35232D01*
X49710Y-35240D01*
X49717Y-35240D01*
X49717Y-35360D01*
X49710Y-35360D01*
X49710Y-35880D01*
X49770Y-35940D01*
X49860Y-35940D01*
X49860Y-37090D01*
X52410Y-37090D01*
X52410Y-37760D01*
G54D10*
G36*
X52460Y-36686D02*
X52454Y-36681D01*
X52402Y-36660D01*
X52347Y-36659D01*
X51797Y-36659D01*
X51745Y-36681D01*
X51706Y-36720D01*
X51685Y-36772D01*
X51684Y-36827D01*
X51684Y-36860D01*
X51537Y-36860D01*
X51540Y-36852D01*
X51540Y-36147D01*
X51518Y-36095D01*
X51479Y-36056D01*
X51427Y-36035D01*
X51390Y-36034D01*
X51390Y-35672D01*
X51390Y-34927D01*
X51389Y-34872D01*
X51368Y-34820D01*
X51329Y-34781D01*
X51277Y-34759D01*
X51045Y-34760D01*
X51010Y-34795D01*
X51010Y-35240D01*
X51355Y-35240D01*
X51390Y-35205D01*
X51390Y-34927D01*
X51390Y-35672D01*
X51390Y-35395D01*
X51355Y-35360D01*
X51010Y-35360D01*
X51010Y-35805D01*
X51045Y-35840D01*
X51277Y-35840D01*
X51329Y-35818D01*
X51368Y-35779D01*
X51389Y-35727D01*
X51390Y-35672D01*
X51390Y-36034D01*
X51372Y-36034D01*
X50895Y-36035D01*
X50890Y-36040D01*
X50890Y-35805D01*
X50890Y-35360D01*
X50890Y-35240D01*
X50890Y-34795D01*
X50855Y-34760D01*
X50622Y-34759D01*
X50570Y-34781D01*
X50531Y-34820D01*
X50510Y-34872D01*
X50509Y-34927D01*
X50510Y-35205D01*
X50545Y-35240D01*
X50890Y-35240D01*
X50890Y-35360D01*
X50545Y-35360D01*
X50510Y-35395D01*
X50509Y-35672D01*
X50510Y-35727D01*
X50531Y-35779D01*
X50570Y-35818D01*
X50622Y-35840D01*
X50855Y-35840D01*
X50890Y-35805D01*
X50890Y-36040D01*
X50860Y-36070D01*
X50860Y-36440D01*
X51505Y-36440D01*
X51540Y-36405D01*
X51540Y-36147D01*
X51540Y-36852D01*
X51540Y-36595D01*
X51505Y-36560D01*
X50860Y-36560D01*
X50860Y-36567D01*
X50740Y-36567D01*
X50740Y-36560D01*
X50732Y-36560D01*
X50732Y-36440D01*
X50740Y-36440D01*
X50740Y-36070D01*
X50705Y-36035D01*
X50227Y-36034D01*
X50172Y-36035D01*
X50140Y-36048D01*
X50140Y-34540D01*
X52460Y-34540D01*
X52460Y-36686D01*
X52460Y-36686D01*
G37*
G54D76*
X52460Y-36686D02*
X52454Y-36681D01*
X52402Y-36660D01*
X52347Y-36659D01*
X51797Y-36659D01*
X51745Y-36681D01*
X51706Y-36720D01*
X51685Y-36772D01*
X51684Y-36827D01*
X51684Y-36860D01*
X51537Y-36860D01*
X51540Y-36852D01*
X51540Y-36147D01*
X51518Y-36095D01*
X51479Y-36056D01*
X51427Y-36035D01*
X51390Y-36034D01*
X51390Y-35672D01*
X51390Y-34927D01*
X51389Y-34872D01*
X51368Y-34820D01*
X51329Y-34781D01*
X51277Y-34759D01*
X51045Y-34760D01*
X51010Y-34795D01*
X51010Y-35240D01*
X51355Y-35240D01*
X51390Y-35205D01*
X51390Y-34927D01*
X51390Y-35672D01*
X51390Y-35395D01*
X51355Y-35360D01*
X51010Y-35360D01*
X51010Y-35805D01*
X51045Y-35840D01*
X51277Y-35840D01*
X51329Y-35818D01*
X51368Y-35779D01*
X51389Y-35727D01*
X51390Y-35672D01*
X51390Y-36034D01*
X51372Y-36034D01*
X50895Y-36035D01*
X50890Y-36040D01*
X50890Y-35805D01*
X50890Y-35360D01*
X50890Y-35240D01*
X50890Y-34795D01*
X50855Y-34760D01*
X50622Y-34759D01*
X50570Y-34781D01*
X50531Y-34820D01*
X50510Y-34872D01*
X50509Y-34927D01*
X50510Y-35205D01*
X50545Y-35240D01*
X50890Y-35240D01*
X50890Y-35360D01*
X50545Y-35360D01*
X50510Y-35395D01*
X50509Y-35672D01*
X50510Y-35727D01*
X50531Y-35779D01*
X50570Y-35818D01*
X50622Y-35840D01*
X50855Y-35840D01*
X50890Y-35805D01*
X50890Y-36040D01*
X50860Y-36070D01*
X50860Y-36440D01*
X51505Y-36440D01*
X51540Y-36405D01*
X51540Y-36147D01*
X51540Y-36852D01*
X51540Y-36595D01*
X51505Y-36560D01*
X50860Y-36560D01*
X50860Y-36567D01*
X50740Y-36567D01*
X50740Y-36560D01*
X50732Y-36560D01*
X50732Y-36440D01*
X50740Y-36440D01*
X50740Y-36070D01*
X50705Y-36035D01*
X50227Y-36034D01*
X50172Y-36035D01*
X50140Y-36048D01*
X50140Y-34540D01*
X52460Y-34540D01*
X52460Y-36686D01*
G54D10*
G36*
X45010Y-25350D02*
X44995Y-25356D01*
X44956Y-25395D01*
X44940Y-25435D01*
X44915Y-25435D01*
X44915Y-25422D01*
X44893Y-25370D01*
X44854Y-25331D01*
X44802Y-25310D01*
X44747Y-25309D01*
X44197Y-25309D01*
X44145Y-25331D01*
X44106Y-25370D01*
X44085Y-25422D01*
X44084Y-25477D01*
X44084Y-25763D01*
X44072Y-25763D01*
X44072Y-25736D01*
X44072Y-25342D01*
X44051Y-25290D01*
X44011Y-25251D01*
X43960Y-25230D01*
X43904Y-25229D01*
X43589Y-25229D01*
X43538Y-25251D01*
X43498Y-25290D01*
X43477Y-25342D01*
X43477Y-25397D01*
X43477Y-25766D01*
X43322Y-25766D01*
X43322Y-25736D01*
X43322Y-25397D01*
X43322Y-25342D01*
X43301Y-25290D01*
X43261Y-25251D01*
X43210Y-25229D01*
X43120Y-25230D01*
X43085Y-25265D01*
X43085Y-25507D01*
X43287Y-25507D01*
X43322Y-25472D01*
X43322Y-25397D01*
X43322Y-25736D01*
X43322Y-25662D01*
X43287Y-25627D01*
X43085Y-25627D01*
X43085Y-25634D01*
X42965Y-25634D01*
X42965Y-25627D01*
X42965Y-25507D01*
X42965Y-25265D01*
X42930Y-25230D01*
X42839Y-25229D01*
X42788Y-25251D01*
X42748Y-25290D01*
X42727Y-25342D01*
X42727Y-25397D01*
X42727Y-25472D01*
X42762Y-25507D01*
X42965Y-25507D01*
X42965Y-25627D01*
X42762Y-25627D01*
X42727Y-25662D01*
X42727Y-25736D01*
X42727Y-25769D01*
X42658Y-25769D01*
X42665Y-25752D01*
X42665Y-25447D01*
X42643Y-25395D01*
X42604Y-25356D01*
X42552Y-25335D01*
X42497Y-25334D01*
X42395Y-25335D01*
X42360Y-25370D01*
X42360Y-25540D01*
X42630Y-25540D01*
X42665Y-25505D01*
X42665Y-25447D01*
X42665Y-25752D01*
X42665Y-25695D01*
X42630Y-25660D01*
X42360Y-25660D01*
X42360Y-25667D01*
X42240Y-25667D01*
X42240Y-25660D01*
X42240Y-25540D01*
X42240Y-25370D01*
X42205Y-25335D01*
X42113Y-25334D01*
X42143Y-25304D01*
X42165Y-25252D01*
X42165Y-24947D01*
X42143Y-24895D01*
X42104Y-24856D01*
X42052Y-24835D01*
X41997Y-24834D01*
X41895Y-24835D01*
X41860Y-24870D01*
X41860Y-25040D01*
X42130Y-25040D01*
X42165Y-25005D01*
X42165Y-24947D01*
X42165Y-25252D01*
X42165Y-25195D01*
X42130Y-25160D01*
X41860Y-25160D01*
X41860Y-25330D01*
X41895Y-25365D01*
X41986Y-25365D01*
X41956Y-25395D01*
X41934Y-25447D01*
X41935Y-25505D01*
X41970Y-25540D01*
X42240Y-25540D01*
X42240Y-25660D01*
X41970Y-25660D01*
X41935Y-25695D01*
X41934Y-25752D01*
X41943Y-25772D01*
X41856Y-25772D01*
X41855Y-25767D01*
X41855Y-25767D01*
X41814Y-25705D01*
X41814Y-25705D01*
X41740Y-25631D01*
X41740Y-25330D01*
X41740Y-25160D01*
X41740Y-25040D01*
X41740Y-24870D01*
X41705Y-24835D01*
X41602Y-24834D01*
X41547Y-24835D01*
X41495Y-24856D01*
X41456Y-24895D01*
X41434Y-24947D01*
X41435Y-25005D01*
X41470Y-25040D01*
X41740Y-25040D01*
X41740Y-25160D01*
X41470Y-25160D01*
X41435Y-25195D01*
X41434Y-25252D01*
X41456Y-25304D01*
X41495Y-25343D01*
X41547Y-25364D01*
X41602Y-25365D01*
X41705Y-25365D01*
X41740Y-25330D01*
X41740Y-25631D01*
X41541Y-25432D01*
X41479Y-25391D01*
X41414Y-25378D01*
X41415Y-25377D01*
X41415Y-24972D01*
X41393Y-24920D01*
X41354Y-24881D01*
X41302Y-24860D01*
X41247Y-24859D01*
X41095Y-24860D01*
X41060Y-24895D01*
X41060Y-25115D01*
X41380Y-25115D01*
X41415Y-25080D01*
X41415Y-24972D01*
X41415Y-25377D01*
X41415Y-25270D01*
X41380Y-25235D01*
X41060Y-25235D01*
X41060Y-25242D01*
X40940Y-25242D01*
X40940Y-25235D01*
X40940Y-25115D01*
X40940Y-24895D01*
X40905Y-24860D01*
X40752Y-24859D01*
X40697Y-24860D01*
X40645Y-24881D01*
X40606Y-24920D01*
X40584Y-24972D01*
X40585Y-25080D01*
X40620Y-25115D01*
X40940Y-25115D01*
X40940Y-25235D01*
X40620Y-25235D01*
X40585Y-25270D01*
X40584Y-25377D01*
X40533Y-25377D01*
X40460Y-25391D01*
X40398Y-25432D01*
X40398Y-25432D01*
X40146Y-25684D01*
X40087Y-25660D01*
X40010Y-25660D01*
X40010Y-24993D01*
X40044Y-24993D01*
X40099Y-24992D01*
X40151Y-24971D01*
X40190Y-24932D01*
X40212Y-24880D01*
X40212Y-24861D01*
X40177Y-24826D01*
X40010Y-24826D01*
X40010Y-24793D01*
X40099Y-24793D01*
X40107Y-24790D01*
X40269Y-24790D01*
X40342Y-24819D01*
X40477Y-24820D01*
X40602Y-24768D01*
X40610Y-24760D01*
X41535Y-24760D01*
X41547Y-24764D01*
X41602Y-24765D01*
X42052Y-24765D01*
X42064Y-24760D01*
X42134Y-24760D01*
X42134Y-24852D01*
X42156Y-24904D01*
X42195Y-24943D01*
X42247Y-24964D01*
X42302Y-24965D01*
X42552Y-24965D01*
X42604Y-24943D01*
X42643Y-24904D01*
X42664Y-24852D01*
X42665Y-24797D01*
X42665Y-24760D01*
X42734Y-24760D01*
X42734Y-24852D01*
X42756Y-24904D01*
X42795Y-24943D01*
X42847Y-24964D01*
X42902Y-24965D01*
X43152Y-24965D01*
X43204Y-24943D01*
X43243Y-24904D01*
X43264Y-24852D01*
X43265Y-24797D01*
X43265Y-24790D01*
X43591Y-24790D01*
X43591Y-24853D01*
X43613Y-24904D01*
X43652Y-24944D01*
X43704Y-24965D01*
X43759Y-24965D01*
X43995Y-24965D01*
X44047Y-24944D01*
X44086Y-24904D01*
X44100Y-24872D01*
X44113Y-24904D01*
X44152Y-24944D01*
X44204Y-24965D01*
X44259Y-24965D01*
X44495Y-24965D01*
X44547Y-24944D01*
X44586Y-24904D01*
X44600Y-24872D01*
X44613Y-24904D01*
X44652Y-24944D01*
X44704Y-24965D01*
X44756Y-24965D01*
X44791Y-24930D01*
X44791Y-24610D01*
X44782Y-24610D01*
X44782Y-24490D01*
X44791Y-24490D01*
X44791Y-24169D01*
X44756Y-24134D01*
X44704Y-24134D01*
X44652Y-24155D01*
X44613Y-24195D01*
X44599Y-24227D01*
X44586Y-24195D01*
X44570Y-24178D01*
X44570Y-24050D01*
X44553Y-23965D01*
X44505Y-23894D01*
X44505Y-23894D01*
X44295Y-23684D01*
X44224Y-23636D01*
X44140Y-23620D01*
X44000Y-23620D01*
X44000Y-23619D01*
X44000Y-23314D01*
X44039Y-23217D01*
X44040Y-23082D01*
X44000Y-22985D01*
X44000Y-22863D01*
X44047Y-22844D01*
X44086Y-22804D01*
X44100Y-22772D01*
X44113Y-22804D01*
X44152Y-22844D01*
X44204Y-22865D01*
X44256Y-22865D01*
X44291Y-22830D01*
X44291Y-22510D01*
X44282Y-22510D01*
X44282Y-22440D01*
X44417Y-22440D01*
X44417Y-22510D01*
X44409Y-22510D01*
X44409Y-22830D01*
X44444Y-22865D01*
X44495Y-22865D01*
X44547Y-22844D01*
X44586Y-22804D01*
X44600Y-22772D01*
X44613Y-22804D01*
X44652Y-22844D01*
X44704Y-22865D01*
X44713Y-22865D01*
X44671Y-22907D01*
X44620Y-23032D01*
X44619Y-23167D01*
X44671Y-23292D01*
X44767Y-23388D01*
X44892Y-23439D01*
X45010Y-23440D01*
X45010Y-23849D01*
X45009Y-23917D01*
X45010Y-23917D01*
X45010Y-24140D01*
X44995Y-24134D01*
X44944Y-24134D01*
X44909Y-24169D01*
X44909Y-24490D01*
X44917Y-24490D01*
X44917Y-24610D01*
X44909Y-24610D01*
X44909Y-24930D01*
X44944Y-24965D01*
X44995Y-24965D01*
X45010Y-24959D01*
X45010Y-25350D01*
X45010Y-25350D01*
G37*
G54D76*
X45010Y-25350D02*
X44995Y-25356D01*
X44956Y-25395D01*
X44940Y-25435D01*
X44915Y-25435D01*
X44915Y-25422D01*
X44893Y-25370D01*
X44854Y-25331D01*
X44802Y-25310D01*
X44747Y-25309D01*
X44197Y-25309D01*
X44145Y-25331D01*
X44106Y-25370D01*
X44085Y-25422D01*
X44084Y-25477D01*
X44084Y-25763D01*
X44072Y-25763D01*
X44072Y-25736D01*
X44072Y-25342D01*
X44051Y-25290D01*
X44011Y-25251D01*
X43960Y-25230D01*
X43904Y-25229D01*
X43589Y-25229D01*
X43538Y-25251D01*
X43498Y-25290D01*
X43477Y-25342D01*
X43477Y-25397D01*
X43477Y-25766D01*
X43322Y-25766D01*
X43322Y-25736D01*
X43322Y-25397D01*
X43322Y-25342D01*
X43301Y-25290D01*
X43261Y-25251D01*
X43210Y-25229D01*
X43120Y-25230D01*
X43085Y-25265D01*
X43085Y-25507D01*
X43287Y-25507D01*
X43322Y-25472D01*
X43322Y-25397D01*
X43322Y-25736D01*
X43322Y-25662D01*
X43287Y-25627D01*
X43085Y-25627D01*
X43085Y-25634D01*
X42965Y-25634D01*
X42965Y-25627D01*
X42965Y-25507D01*
X42965Y-25265D01*
X42930Y-25230D01*
X42839Y-25229D01*
X42788Y-25251D01*
X42748Y-25290D01*
X42727Y-25342D01*
X42727Y-25397D01*
X42727Y-25472D01*
X42762Y-25507D01*
X42965Y-25507D01*
X42965Y-25627D01*
X42762Y-25627D01*
X42727Y-25662D01*
X42727Y-25736D01*
X42727Y-25769D01*
X42658Y-25769D01*
X42665Y-25752D01*
X42665Y-25447D01*
X42643Y-25395D01*
X42604Y-25356D01*
X42552Y-25335D01*
X42497Y-25334D01*
X42395Y-25335D01*
X42360Y-25370D01*
X42360Y-25540D01*
X42630Y-25540D01*
X42665Y-25505D01*
X42665Y-25447D01*
X42665Y-25752D01*
X42665Y-25695D01*
X42630Y-25660D01*
X42360Y-25660D01*
X42360Y-25667D01*
X42240Y-25667D01*
X42240Y-25660D01*
X42240Y-25540D01*
X42240Y-25370D01*
X42205Y-25335D01*
X42113Y-25334D01*
X42143Y-25304D01*
X42165Y-25252D01*
X42165Y-24947D01*
X42143Y-24895D01*
X42104Y-24856D01*
X42052Y-24835D01*
X41997Y-24834D01*
X41895Y-24835D01*
X41860Y-24870D01*
X41860Y-25040D01*
X42130Y-25040D01*
X42165Y-25005D01*
X42165Y-24947D01*
X42165Y-25252D01*
X42165Y-25195D01*
X42130Y-25160D01*
X41860Y-25160D01*
X41860Y-25330D01*
X41895Y-25365D01*
X41986Y-25365D01*
X41956Y-25395D01*
X41934Y-25447D01*
X41935Y-25505D01*
X41970Y-25540D01*
X42240Y-25540D01*
X42240Y-25660D01*
X41970Y-25660D01*
X41935Y-25695D01*
X41934Y-25752D01*
X41943Y-25772D01*
X41856Y-25772D01*
X41855Y-25767D01*
X41855Y-25767D01*
X41814Y-25705D01*
X41814Y-25705D01*
X41740Y-25631D01*
X41740Y-25330D01*
X41740Y-25160D01*
X41740Y-25040D01*
X41740Y-24870D01*
X41705Y-24835D01*
X41602Y-24834D01*
X41547Y-24835D01*
X41495Y-24856D01*
X41456Y-24895D01*
X41434Y-24947D01*
X41435Y-25005D01*
X41470Y-25040D01*
X41740Y-25040D01*
X41740Y-25160D01*
X41470Y-25160D01*
X41435Y-25195D01*
X41434Y-25252D01*
X41456Y-25304D01*
X41495Y-25343D01*
X41547Y-25364D01*
X41602Y-25365D01*
X41705Y-25365D01*
X41740Y-25330D01*
X41740Y-25631D01*
X41541Y-25432D01*
X41479Y-25391D01*
X41414Y-25378D01*
X41415Y-25377D01*
X41415Y-24972D01*
X41393Y-24920D01*
X41354Y-24881D01*
X41302Y-24860D01*
X41247Y-24859D01*
X41095Y-24860D01*
X41060Y-24895D01*
X41060Y-25115D01*
X41380Y-25115D01*
X41415Y-25080D01*
X41415Y-24972D01*
X41415Y-25377D01*
X41415Y-25270D01*
X41380Y-25235D01*
X41060Y-25235D01*
X41060Y-25242D01*
X40940Y-25242D01*
X40940Y-25235D01*
X40940Y-25115D01*
X40940Y-24895D01*
X40905Y-24860D01*
X40752Y-24859D01*
X40697Y-24860D01*
X40645Y-24881D01*
X40606Y-24920D01*
X40584Y-24972D01*
X40585Y-25080D01*
X40620Y-25115D01*
X40940Y-25115D01*
X40940Y-25235D01*
X40620Y-25235D01*
X40585Y-25270D01*
X40584Y-25377D01*
X40533Y-25377D01*
X40460Y-25391D01*
X40398Y-25432D01*
X40398Y-25432D01*
X40146Y-25684D01*
X40087Y-25660D01*
X40010Y-25660D01*
X40010Y-24993D01*
X40044Y-24993D01*
X40099Y-24992D01*
X40151Y-24971D01*
X40190Y-24932D01*
X40212Y-24880D01*
X40212Y-24861D01*
X40177Y-24826D01*
X40010Y-24826D01*
X40010Y-24793D01*
X40099Y-24793D01*
X40107Y-24790D01*
X40269Y-24790D01*
X40342Y-24819D01*
X40477Y-24820D01*
X40602Y-24768D01*
X40610Y-24760D01*
X41535Y-24760D01*
X41547Y-24764D01*
X41602Y-24765D01*
X42052Y-24765D01*
X42064Y-24760D01*
X42134Y-24760D01*
X42134Y-24852D01*
X42156Y-24904D01*
X42195Y-24943D01*
X42247Y-24964D01*
X42302Y-24965D01*
X42552Y-24965D01*
X42604Y-24943D01*
X42643Y-24904D01*
X42664Y-24852D01*
X42665Y-24797D01*
X42665Y-24760D01*
X42734Y-24760D01*
X42734Y-24852D01*
X42756Y-24904D01*
X42795Y-24943D01*
X42847Y-24964D01*
X42902Y-24965D01*
X43152Y-24965D01*
X43204Y-24943D01*
X43243Y-24904D01*
X43264Y-24852D01*
X43265Y-24797D01*
X43265Y-24790D01*
X43591Y-24790D01*
X43591Y-24853D01*
X43613Y-24904D01*
X43652Y-24944D01*
X43704Y-24965D01*
X43759Y-24965D01*
X43995Y-24965D01*
X44047Y-24944D01*
X44086Y-24904D01*
X44100Y-24872D01*
X44113Y-24904D01*
X44152Y-24944D01*
X44204Y-24965D01*
X44259Y-24965D01*
X44495Y-24965D01*
X44547Y-24944D01*
X44586Y-24904D01*
X44600Y-24872D01*
X44613Y-24904D01*
X44652Y-24944D01*
X44704Y-24965D01*
X44756Y-24965D01*
X44791Y-24930D01*
X44791Y-24610D01*
X44782Y-24610D01*
X44782Y-24490D01*
X44791Y-24490D01*
X44791Y-24169D01*
X44756Y-24134D01*
X44704Y-24134D01*
X44652Y-24155D01*
X44613Y-24195D01*
X44599Y-24227D01*
X44586Y-24195D01*
X44570Y-24178D01*
X44570Y-24050D01*
X44553Y-23965D01*
X44505Y-23894D01*
X44505Y-23894D01*
X44295Y-23684D01*
X44224Y-23636D01*
X44140Y-23620D01*
X44000Y-23620D01*
X44000Y-23619D01*
X44000Y-23314D01*
X44039Y-23217D01*
X44040Y-23082D01*
X44000Y-22985D01*
X44000Y-22863D01*
X44047Y-22844D01*
X44086Y-22804D01*
X44100Y-22772D01*
X44113Y-22804D01*
X44152Y-22844D01*
X44204Y-22865D01*
X44256Y-22865D01*
X44291Y-22830D01*
X44291Y-22510D01*
X44282Y-22510D01*
X44282Y-22440D01*
X44417Y-22440D01*
X44417Y-22510D01*
X44409Y-22510D01*
X44409Y-22830D01*
X44444Y-22865D01*
X44495Y-22865D01*
X44547Y-22844D01*
X44586Y-22804D01*
X44600Y-22772D01*
X44613Y-22804D01*
X44652Y-22844D01*
X44704Y-22865D01*
X44713Y-22865D01*
X44671Y-22907D01*
X44620Y-23032D01*
X44619Y-23167D01*
X44671Y-23292D01*
X44767Y-23388D01*
X44892Y-23439D01*
X45010Y-23440D01*
X45010Y-23849D01*
X45009Y-23917D01*
X45010Y-23917D01*
X45010Y-24140D01*
X44995Y-24134D01*
X44944Y-24134D01*
X44909Y-24169D01*
X44909Y-24490D01*
X44917Y-24490D01*
X44917Y-24610D01*
X44909Y-24610D01*
X44909Y-24930D01*
X44944Y-24965D01*
X44995Y-24965D01*
X45010Y-24959D01*
X45010Y-25350D01*
G54D10*
G36*
X44210Y-21960D02*
X43859Y-21960D01*
X43859Y-21439D01*
X43859Y-21160D01*
X43859Y-20840D01*
X43859Y-20560D01*
X43824Y-20525D01*
X43577Y-20525D01*
X43526Y-20546D01*
X43486Y-20586D01*
X43465Y-20637D01*
X43465Y-20693D01*
X43465Y-20805D01*
X43500Y-20840D01*
X43859Y-20840D01*
X43859Y-21160D01*
X43500Y-21160D01*
X43465Y-21195D01*
X43465Y-21306D01*
X43465Y-21362D01*
X43486Y-21413D01*
X43526Y-21453D01*
X43577Y-21474D01*
X43824Y-21474D01*
X43859Y-21439D01*
X43859Y-21960D01*
X43397Y-21960D01*
X43397Y-21290D01*
X43351Y-21062D01*
X43281Y-20997D01*
X43055Y-21223D01*
X43055Y-20770D01*
X42990Y-20700D01*
X42742Y-20655D01*
X42515Y-20700D01*
X42450Y-20770D01*
X42752Y-21073D01*
X43055Y-20770D01*
X43055Y-21223D01*
X42979Y-21300D01*
X43281Y-21602D01*
X43351Y-21537D01*
X43397Y-21290D01*
X43397Y-21960D01*
X43055Y-21960D01*
X43055Y-21829D01*
X42752Y-21526D01*
X42450Y-21829D01*
X42515Y-21899D01*
X42762Y-21944D01*
X42990Y-21899D01*
X43055Y-21829D01*
X43055Y-21960D01*
X42140Y-21960D01*
X42140Y-21708D01*
X42143Y-21704D01*
X42164Y-21652D01*
X42165Y-21597D01*
X42165Y-21548D01*
X42223Y-21602D01*
X42526Y-21300D01*
X42223Y-20997D01*
X42164Y-21051D01*
X42165Y-20997D01*
X42165Y-20747D01*
X42143Y-20695D01*
X42140Y-20692D01*
X42140Y-20390D01*
X44210Y-20390D01*
X44210Y-20529D01*
X44179Y-20560D01*
X44179Y-20840D01*
X44186Y-20840D01*
X44186Y-21160D01*
X44179Y-21160D01*
X44179Y-21439D01*
X44210Y-21470D01*
X44210Y-21960D01*
X44210Y-21960D01*
G37*
G54D76*
X44210Y-21960D02*
X43859Y-21960D01*
X43859Y-21439D01*
X43859Y-21160D01*
X43859Y-20840D01*
X43859Y-20560D01*
X43824Y-20525D01*
X43577Y-20525D01*
X43526Y-20546D01*
X43486Y-20586D01*
X43465Y-20637D01*
X43465Y-20693D01*
X43465Y-20805D01*
X43500Y-20840D01*
X43859Y-20840D01*
X43859Y-21160D01*
X43500Y-21160D01*
X43465Y-21195D01*
X43465Y-21306D01*
X43465Y-21362D01*
X43486Y-21413D01*
X43526Y-21453D01*
X43577Y-21474D01*
X43824Y-21474D01*
X43859Y-21439D01*
X43859Y-21960D01*
X43397Y-21960D01*
X43397Y-21290D01*
X43351Y-21062D01*
X43281Y-20997D01*
X43055Y-21223D01*
X43055Y-20770D01*
X42990Y-20700D01*
X42742Y-20655D01*
X42515Y-20700D01*
X42450Y-20770D01*
X42752Y-21073D01*
X43055Y-20770D01*
X43055Y-21223D01*
X42979Y-21300D01*
X43281Y-21602D01*
X43351Y-21537D01*
X43397Y-21290D01*
X43397Y-21960D01*
X43055Y-21960D01*
X43055Y-21829D01*
X42752Y-21526D01*
X42450Y-21829D01*
X42515Y-21899D01*
X42762Y-21944D01*
X42990Y-21899D01*
X43055Y-21829D01*
X43055Y-21960D01*
X42140Y-21960D01*
X42140Y-21708D01*
X42143Y-21704D01*
X42164Y-21652D01*
X42165Y-21597D01*
X42165Y-21548D01*
X42223Y-21602D01*
X42526Y-21300D01*
X42223Y-20997D01*
X42164Y-21051D01*
X42165Y-20997D01*
X42165Y-20747D01*
X42143Y-20695D01*
X42140Y-20692D01*
X42140Y-20390D01*
X44210Y-20390D01*
X44210Y-20529D01*
X44179Y-20560D01*
X44179Y-20840D01*
X44186Y-20840D01*
X44186Y-21160D01*
X44179Y-21160D01*
X44179Y-21439D01*
X44210Y-21470D01*
X44210Y-21960D01*
G54D10*
G36*
X41410Y-21659D02*
X41381Y-21687D01*
X41330Y-21812D01*
X41330Y-21860D01*
X41058Y-21860D01*
X41086Y-21829D01*
X40784Y-21526D01*
X40481Y-21829D01*
X40546Y-21899D01*
X40703Y-21927D01*
X40546Y-22084D01*
X40322Y-22084D01*
X40270Y-22106D01*
X40231Y-22145D01*
X40210Y-22197D01*
X40209Y-22252D01*
X40209Y-22802D01*
X40231Y-22854D01*
X40260Y-22883D01*
X40260Y-23075D01*
X40259Y-23102D01*
X40259Y-23352D01*
X40260Y-23352D01*
X40260Y-23360D01*
X40057Y-23360D01*
X40073Y-23353D01*
X40113Y-23313D01*
X40134Y-23262D01*
X40134Y-23206D01*
X40134Y-22593D01*
X40134Y-22537D01*
X40113Y-22486D01*
X40073Y-22446D01*
X40022Y-22425D01*
X39776Y-22425D01*
X39741Y-22460D01*
X39741Y-22740D01*
X40099Y-22740D01*
X40134Y-22705D01*
X40134Y-22593D01*
X40134Y-23206D01*
X40134Y-23095D01*
X40099Y-23060D01*
X39741Y-23060D01*
X39741Y-23067D01*
X39421Y-23067D01*
X39421Y-23060D01*
X39413Y-23060D01*
X39413Y-22740D01*
X39421Y-22740D01*
X39421Y-22460D01*
X39386Y-22425D01*
X39190Y-22425D01*
X39190Y-21819D01*
X39351Y-21658D01*
X39442Y-21440D01*
X40140Y-21440D01*
X40140Y-21310D01*
X40185Y-21537D01*
X40255Y-21602D01*
X40557Y-21300D01*
X40255Y-20997D01*
X40247Y-21004D01*
X40247Y-20440D01*
X41410Y-20440D01*
X41410Y-21196D01*
X41383Y-21062D01*
X41313Y-20997D01*
X41086Y-21223D01*
X41086Y-20770D01*
X41021Y-20700D01*
X40774Y-20655D01*
X40546Y-20700D01*
X40481Y-20770D01*
X40784Y-21073D01*
X41086Y-20770D01*
X41086Y-21223D01*
X41010Y-21300D01*
X41313Y-21602D01*
X41383Y-21537D01*
X41410Y-21392D01*
X41410Y-21659D01*
X41410Y-21659D01*
G37*
G54D76*
X41410Y-21659D02*
X41381Y-21687D01*
X41330Y-21812D01*
X41330Y-21860D01*
X41058Y-21860D01*
X41086Y-21829D01*
X40784Y-21526D01*
X40481Y-21829D01*
X40546Y-21899D01*
X40703Y-21927D01*
X40546Y-22084D01*
X40322Y-22084D01*
X40270Y-22106D01*
X40231Y-22145D01*
X40210Y-22197D01*
X40209Y-22252D01*
X40209Y-22802D01*
X40231Y-22854D01*
X40260Y-22883D01*
X40260Y-23075D01*
X40259Y-23102D01*
X40259Y-23352D01*
X40260Y-23352D01*
X40260Y-23360D01*
X40057Y-23360D01*
X40073Y-23353D01*
X40113Y-23313D01*
X40134Y-23262D01*
X40134Y-23206D01*
X40134Y-22593D01*
X40134Y-22537D01*
X40113Y-22486D01*
X40073Y-22446D01*
X40022Y-22425D01*
X39776Y-22425D01*
X39741Y-22460D01*
X39741Y-22740D01*
X40099Y-22740D01*
X40134Y-22705D01*
X40134Y-22593D01*
X40134Y-23206D01*
X40134Y-23095D01*
X40099Y-23060D01*
X39741Y-23060D01*
X39741Y-23067D01*
X39421Y-23067D01*
X39421Y-23060D01*
X39413Y-23060D01*
X39413Y-22740D01*
X39421Y-22740D01*
X39421Y-22460D01*
X39386Y-22425D01*
X39190Y-22425D01*
X39190Y-21819D01*
X39351Y-21658D01*
X39442Y-21440D01*
X40140Y-21440D01*
X40140Y-21310D01*
X40185Y-21537D01*
X40255Y-21602D01*
X40557Y-21300D01*
X40255Y-20997D01*
X40247Y-21004D01*
X40247Y-20440D01*
X41410Y-20440D01*
X41410Y-21196D01*
X41383Y-21062D01*
X41313Y-20997D01*
X41086Y-21223D01*
X41086Y-20770D01*
X41021Y-20700D01*
X40774Y-20655D01*
X40546Y-20700D01*
X40481Y-20770D01*
X40784Y-21073D01*
X41086Y-20770D01*
X41086Y-21223D01*
X41010Y-21300D01*
X41313Y-21602D01*
X41383Y-21537D01*
X41410Y-21392D01*
X41410Y-21659D01*
G54D10*
G36*
X38700Y-23750D02*
X38069Y-23750D01*
X38069Y-23347D01*
X38069Y-23050D01*
X38069Y-22750D01*
X38069Y-22453D01*
X38031Y-22415D01*
X37775Y-22415D01*
X37720Y-22438D01*
X37678Y-22480D01*
X37655Y-22535D01*
X37655Y-22595D01*
X37655Y-22712D01*
X37693Y-22750D01*
X38069Y-22750D01*
X38069Y-23050D01*
X37693Y-23050D01*
X37655Y-23087D01*
X37655Y-23204D01*
X37655Y-23264D01*
X37678Y-23319D01*
X37720Y-23361D01*
X37775Y-23384D01*
X38031Y-23384D01*
X38069Y-23347D01*
X38069Y-23750D01*
X37594Y-23750D01*
X37594Y-23204D01*
X37594Y-22595D01*
X37594Y-22535D01*
X37571Y-22480D01*
X37529Y-22438D01*
X37501Y-22426D01*
X37501Y-21302D01*
X37453Y-21052D01*
X37450Y-21046D01*
X37376Y-20982D01*
X37059Y-21300D01*
X37376Y-21617D01*
X37450Y-21553D01*
X37501Y-21302D01*
X37501Y-22426D01*
X37474Y-22415D01*
X37218Y-22415D01*
X37181Y-22453D01*
X37181Y-22750D01*
X37557Y-22750D01*
X37594Y-22712D01*
X37594Y-22595D01*
X37594Y-23204D01*
X37594Y-23087D01*
X37557Y-23050D01*
X37181Y-23050D01*
X37181Y-23347D01*
X37218Y-23384D01*
X37474Y-23384D01*
X37529Y-23361D01*
X37571Y-23319D01*
X37594Y-23264D01*
X37594Y-23204D01*
X37594Y-23750D01*
X37164Y-23750D01*
X37164Y-21829D01*
X36847Y-21512D01*
X36635Y-21724D01*
X36635Y-21300D01*
X36317Y-20982D01*
X36243Y-21046D01*
X36192Y-21297D01*
X36241Y-21547D01*
X36243Y-21553D01*
X36317Y-21617D01*
X36635Y-21300D01*
X36635Y-21724D01*
X36529Y-21829D01*
X36594Y-21903D01*
X36844Y-21954D01*
X37095Y-21905D01*
X37100Y-21903D01*
X37164Y-21829D01*
X37164Y-23750D01*
X36881Y-23750D01*
X36881Y-23347D01*
X36881Y-23050D01*
X36881Y-22750D01*
X36881Y-22453D01*
X36843Y-22415D01*
X36587Y-22415D01*
X36532Y-22438D01*
X36490Y-22480D01*
X36467Y-22535D01*
X36467Y-22595D01*
X36467Y-22712D01*
X36505Y-22750D01*
X36881Y-22750D01*
X36881Y-23050D01*
X36505Y-23050D01*
X36467Y-23087D01*
X36467Y-23204D01*
X36467Y-23264D01*
X36490Y-23319D01*
X36532Y-23361D01*
X36587Y-23384D01*
X36843Y-23384D01*
X36881Y-23347D01*
X36881Y-23750D01*
X35600Y-23750D01*
X35600Y-23414D01*
X36118Y-23414D01*
X36184Y-23387D01*
X36235Y-23336D01*
X36262Y-23270D01*
X36262Y-23198D01*
X36262Y-22529D01*
X36235Y-22463D01*
X36184Y-22412D01*
X36118Y-22385D01*
X36100Y-22385D01*
X36046Y-22385D01*
X35894Y-22385D01*
X35881Y-22320D01*
X35881Y-22320D01*
X35831Y-22246D01*
X35810Y-22225D01*
X35900Y-22225D01*
X35979Y-22225D01*
X36034Y-22202D01*
X36077Y-22160D01*
X36099Y-22104D01*
X36100Y-22045D01*
X36100Y-21975D01*
X36062Y-21937D01*
X35862Y-21937D01*
X35862Y-21957D01*
X35687Y-21957D01*
X35687Y-21937D01*
X35617Y-21937D01*
X35617Y-21662D01*
X35687Y-21662D01*
X35687Y-21642D01*
X35862Y-21642D01*
X35862Y-21662D01*
X36062Y-21662D01*
X36100Y-21625D01*
X36100Y-21554D01*
X36099Y-21495D01*
X36077Y-21439D01*
X36058Y-21421D01*
X36102Y-21377D01*
X36129Y-21310D01*
X36130Y-21239D01*
X36130Y-20895D01*
X36295Y-20730D01*
X36564Y-20730D01*
X36529Y-20770D01*
X36847Y-21087D01*
X37164Y-20770D01*
X37129Y-20730D01*
X37900Y-20730D01*
X37900Y-22200D01*
X38700Y-22200D01*
X38700Y-22431D01*
X38662Y-22415D01*
X38406Y-22415D01*
X38369Y-22453D01*
X38369Y-22750D01*
X38376Y-22750D01*
X38376Y-23050D01*
X38369Y-23050D01*
X38369Y-23347D01*
X38406Y-23384D01*
X38662Y-23384D01*
X38700Y-23368D01*
X38700Y-23750D01*
X38700Y-23750D01*
G37*
G54D11*
X38700Y-23750D02*
X38069Y-23750D01*
X38069Y-23347D01*
X38069Y-23050D01*
X38069Y-22750D01*
X38069Y-22453D01*
X38031Y-22415D01*
X37775Y-22415D01*
X37720Y-22438D01*
X37678Y-22480D01*
X37655Y-22535D01*
X37655Y-22595D01*
X37655Y-22712D01*
X37693Y-22750D01*
X38069Y-22750D01*
X38069Y-23050D01*
X37693Y-23050D01*
X37655Y-23087D01*
X37655Y-23204D01*
X37655Y-23264D01*
X37678Y-23319D01*
X37720Y-23361D01*
X37775Y-23384D01*
X38031Y-23384D01*
X38069Y-23347D01*
X38069Y-23750D01*
X37594Y-23750D01*
X37594Y-23204D01*
X37594Y-22595D01*
X37594Y-22535D01*
X37571Y-22480D01*
X37529Y-22438D01*
X37501Y-22426D01*
X37501Y-21302D01*
X37453Y-21052D01*
X37450Y-21046D01*
X37376Y-20982D01*
X37059Y-21300D01*
X37376Y-21617D01*
X37450Y-21553D01*
X37501Y-21302D01*
X37501Y-22426D01*
X37474Y-22415D01*
X37218Y-22415D01*
X37181Y-22453D01*
X37181Y-22750D01*
X37557Y-22750D01*
X37594Y-22712D01*
X37594Y-22595D01*
X37594Y-23204D01*
X37594Y-23087D01*
X37557Y-23050D01*
X37181Y-23050D01*
X37181Y-23347D01*
X37218Y-23384D01*
X37474Y-23384D01*
X37529Y-23361D01*
X37571Y-23319D01*
X37594Y-23264D01*
X37594Y-23204D01*
X37594Y-23750D01*
X37164Y-23750D01*
X37164Y-21829D01*
X36847Y-21512D01*
X36635Y-21724D01*
X36635Y-21300D01*
X36317Y-20982D01*
X36243Y-21046D01*
X36192Y-21297D01*
X36241Y-21547D01*
X36243Y-21553D01*
X36317Y-21617D01*
X36635Y-21300D01*
X36635Y-21724D01*
X36529Y-21829D01*
X36594Y-21903D01*
X36844Y-21954D01*
X37095Y-21905D01*
X37100Y-21903D01*
X37164Y-21829D01*
X37164Y-23750D01*
X36881Y-23750D01*
X36881Y-23347D01*
X36881Y-23050D01*
X36881Y-22750D01*
X36881Y-22453D01*
X36843Y-22415D01*
X36587Y-22415D01*
X36532Y-22438D01*
X36490Y-22480D01*
X36467Y-22535D01*
X36467Y-22595D01*
X36467Y-22712D01*
X36505Y-22750D01*
X36881Y-22750D01*
X36881Y-23050D01*
X36505Y-23050D01*
X36467Y-23087D01*
X36467Y-23204D01*
X36467Y-23264D01*
X36490Y-23319D01*
X36532Y-23361D01*
X36587Y-23384D01*
X36843Y-23384D01*
X36881Y-23347D01*
X36881Y-23750D01*
X35600Y-23750D01*
X35600Y-23414D01*
X36118Y-23414D01*
X36184Y-23387D01*
X36235Y-23336D01*
X36262Y-23270D01*
X36262Y-23198D01*
X36262Y-22529D01*
X36235Y-22463D01*
X36184Y-22412D01*
X36118Y-22385D01*
X36100Y-22385D01*
X36046Y-22385D01*
X35894Y-22385D01*
X35881Y-22320D01*
X35881Y-22320D01*
X35831Y-22246D01*
X35810Y-22225D01*
X35900Y-22225D01*
X35979Y-22225D01*
X36034Y-22202D01*
X36077Y-22160D01*
X36099Y-22104D01*
X36100Y-22045D01*
X36100Y-21975D01*
X36062Y-21937D01*
X35862Y-21937D01*
X35862Y-21957D01*
X35687Y-21957D01*
X35687Y-21937D01*
X35617Y-21937D01*
X35617Y-21662D01*
X35687Y-21662D01*
X35687Y-21642D01*
X35862Y-21642D01*
X35862Y-21662D01*
X36062Y-21662D01*
X36100Y-21625D01*
X36100Y-21554D01*
X36099Y-21495D01*
X36077Y-21439D01*
X36058Y-21421D01*
X36102Y-21377D01*
X36129Y-21310D01*
X36130Y-21239D01*
X36130Y-20895D01*
X36295Y-20730D01*
X36564Y-20730D01*
X36529Y-20770D01*
X36847Y-21087D01*
X37164Y-20770D01*
X37129Y-20730D01*
X37900Y-20730D01*
X37900Y-22200D01*
X38700Y-22200D01*
X38700Y-22431D01*
X38662Y-22415D01*
X38406Y-22415D01*
X38369Y-22453D01*
X38369Y-22750D01*
X38376Y-22750D01*
X38376Y-23050D01*
X38369Y-23050D01*
X38369Y-23347D01*
X38406Y-23384D01*
X38662Y-23384D01*
X38700Y-23368D01*
X38700Y-23750D01*
G54D10*
G36*
X60810Y-38910D02*
X60540Y-38910D01*
X60540Y-38405D01*
X60540Y-38060D01*
X60295Y-38060D01*
X60235Y-38120D01*
X60234Y-38177D01*
X60235Y-38272D01*
X60271Y-38361D01*
X60339Y-38428D01*
X60427Y-38465D01*
X60480Y-38465D01*
X60540Y-38405D01*
X60540Y-38910D01*
X50140Y-38910D01*
X50140Y-37940D01*
X52990Y-37940D01*
X52990Y-32690D01*
X54010Y-32690D01*
X54010Y-37640D01*
X54506Y-37640D01*
X54513Y-37642D01*
X54686Y-37642D01*
X54693Y-37640D01*
X60271Y-37640D01*
X60235Y-37727D01*
X60234Y-37822D01*
X60235Y-37880D01*
X60295Y-37940D01*
X60540Y-37940D01*
X60540Y-37932D01*
X60660Y-37932D01*
X60660Y-37940D01*
X60667Y-37940D01*
X60667Y-38060D01*
X60660Y-38060D01*
X60660Y-38405D01*
X60720Y-38465D01*
X60772Y-38465D01*
X60810Y-38449D01*
X60810Y-38910D01*
X60810Y-38910D01*
G37*
G54D76*
X60810Y-38910D02*
X60540Y-38910D01*
X60540Y-38405D01*
X60540Y-38060D01*
X60295Y-38060D01*
X60235Y-38120D01*
X60234Y-38177D01*
X60235Y-38272D01*
X60271Y-38361D01*
X60339Y-38428D01*
X60427Y-38465D01*
X60480Y-38465D01*
X60540Y-38405D01*
X60540Y-38910D01*
X50140Y-38910D01*
X50140Y-37940D01*
X52990Y-37940D01*
X52990Y-32690D01*
X54010Y-32690D01*
X54010Y-37640D01*
X54506Y-37640D01*
X54513Y-37642D01*
X54686Y-37642D01*
X54693Y-37640D01*
X60271Y-37640D01*
X60235Y-37727D01*
X60234Y-37822D01*
X60235Y-37880D01*
X60295Y-37940D01*
X60540Y-37940D01*
X60540Y-37932D01*
X60660Y-37932D01*
X60660Y-37940D01*
X60667Y-37940D01*
X60667Y-38060D01*
X60660Y-38060D01*
X60660Y-38405D01*
X60720Y-38465D01*
X60772Y-38465D01*
X60810Y-38449D01*
X60810Y-38910D01*
G54D10*
G36*
X56010Y-36754D02*
X56001Y-36754D01*
X55907Y-36754D01*
X55907Y-36185D01*
X55907Y-35414D01*
X55906Y-35319D01*
X55870Y-35230D01*
X55802Y-35163D01*
X55714Y-35126D01*
X55472Y-35127D01*
X55412Y-35187D01*
X55412Y-35740D01*
X55847Y-35740D01*
X55907Y-35680D01*
X55907Y-35414D01*
X55907Y-36185D01*
X55907Y-35920D01*
X55847Y-35860D01*
X55412Y-35860D01*
X55412Y-36413D01*
X55472Y-36473D01*
X55714Y-36473D01*
X55802Y-36436D01*
X55870Y-36369D01*
X55906Y-36280D01*
X55907Y-36185D01*
X55907Y-36754D01*
X55751Y-36754D01*
X55707Y-36773D01*
X55673Y-36806D01*
X55664Y-36827D01*
X55664Y-36827D01*
X55628Y-36738D01*
X55560Y-36671D01*
X55472Y-36634D01*
X55420Y-36635D01*
X55360Y-36695D01*
X55360Y-37040D01*
X55367Y-37040D01*
X55367Y-37160D01*
X55360Y-37160D01*
X55360Y-37167D01*
X55292Y-37167D01*
X55292Y-36413D01*
X55292Y-35860D01*
X55292Y-35740D01*
X55292Y-35187D01*
X55232Y-35127D01*
X54989Y-35126D01*
X54940Y-35147D01*
X54940Y-33674D01*
X54940Y-33141D01*
X54485Y-33141D01*
X54425Y-33201D01*
X54425Y-33542D01*
X54461Y-33630D01*
X54529Y-33697D01*
X54617Y-33734D01*
X54713Y-33734D01*
X54880Y-33734D01*
X54940Y-33674D01*
X54940Y-35147D01*
X54901Y-35163D01*
X54833Y-35230D01*
X54797Y-35319D01*
X54796Y-35414D01*
X54797Y-35680D01*
X54857Y-35740D01*
X55292Y-35740D01*
X55292Y-35860D01*
X54857Y-35860D01*
X54797Y-35920D01*
X54796Y-36185D01*
X54797Y-36280D01*
X54833Y-36369D01*
X54901Y-36436D01*
X54989Y-36473D01*
X55232Y-36473D01*
X55292Y-36413D01*
X55292Y-37167D01*
X55240Y-37167D01*
X55240Y-37160D01*
X55240Y-37040D01*
X55240Y-36695D01*
X55180Y-36635D01*
X55127Y-36634D01*
X55039Y-36671D01*
X54971Y-36738D01*
X54935Y-36827D01*
X54934Y-36922D01*
X54935Y-36980D01*
X54995Y-37040D01*
X55240Y-37040D01*
X55240Y-37160D01*
X54995Y-37160D01*
X54935Y-37220D01*
X54934Y-37277D01*
X54935Y-37372D01*
X54971Y-37460D01*
X54240Y-37460D01*
X54240Y-32790D01*
X54425Y-32790D01*
X54425Y-32961D01*
X54485Y-33021D01*
X54940Y-33021D01*
X54940Y-33013D01*
X55060Y-33013D01*
X55060Y-33021D01*
X55067Y-33021D01*
X55067Y-33141D01*
X55060Y-33141D01*
X55060Y-33674D01*
X55120Y-33734D01*
X55286Y-33734D01*
X55382Y-33734D01*
X55470Y-33697D01*
X55510Y-33658D01*
X55510Y-34614D01*
X56010Y-35214D01*
X56010Y-36754D01*
X56010Y-36754D01*
G37*
G54D76*
X56010Y-36754D02*
X56001Y-36754D01*
X55907Y-36754D01*
X55907Y-36185D01*
X55907Y-35414D01*
X55906Y-35319D01*
X55870Y-35230D01*
X55802Y-35163D01*
X55714Y-35126D01*
X55472Y-35127D01*
X55412Y-35187D01*
X55412Y-35740D01*
X55847Y-35740D01*
X55907Y-35680D01*
X55907Y-35414D01*
X55907Y-36185D01*
X55907Y-35920D01*
X55847Y-35860D01*
X55412Y-35860D01*
X55412Y-36413D01*
X55472Y-36473D01*
X55714Y-36473D01*
X55802Y-36436D01*
X55870Y-36369D01*
X55906Y-36280D01*
X55907Y-36185D01*
X55907Y-36754D01*
X55751Y-36754D01*
X55707Y-36773D01*
X55673Y-36806D01*
X55664Y-36827D01*
X55664Y-36827D01*
X55628Y-36738D01*
X55560Y-36671D01*
X55472Y-36634D01*
X55420Y-36635D01*
X55360Y-36695D01*
X55360Y-37040D01*
X55367Y-37040D01*
X55367Y-37160D01*
X55360Y-37160D01*
X55360Y-37167D01*
X55292Y-37167D01*
X55292Y-36413D01*
X55292Y-35860D01*
X55292Y-35740D01*
X55292Y-35187D01*
X55232Y-35127D01*
X54989Y-35126D01*
X54940Y-35147D01*
X54940Y-33674D01*
X54940Y-33141D01*
X54485Y-33141D01*
X54425Y-33201D01*
X54425Y-33542D01*
X54461Y-33630D01*
X54529Y-33697D01*
X54617Y-33734D01*
X54713Y-33734D01*
X54880Y-33734D01*
X54940Y-33674D01*
X54940Y-35147D01*
X54901Y-35163D01*
X54833Y-35230D01*
X54797Y-35319D01*
X54796Y-35414D01*
X54797Y-35680D01*
X54857Y-35740D01*
X55292Y-35740D01*
X55292Y-35860D01*
X54857Y-35860D01*
X54797Y-35920D01*
X54796Y-36185D01*
X54797Y-36280D01*
X54833Y-36369D01*
X54901Y-36436D01*
X54989Y-36473D01*
X55232Y-36473D01*
X55292Y-36413D01*
X55292Y-37167D01*
X55240Y-37167D01*
X55240Y-37160D01*
X55240Y-37040D01*
X55240Y-36695D01*
X55180Y-36635D01*
X55127Y-36634D01*
X55039Y-36671D01*
X54971Y-36738D01*
X54935Y-36827D01*
X54934Y-36922D01*
X54935Y-36980D01*
X54995Y-37040D01*
X55240Y-37040D01*
X55240Y-37160D01*
X54995Y-37160D01*
X54935Y-37220D01*
X54934Y-37277D01*
X54935Y-37372D01*
X54971Y-37460D01*
X54240Y-37460D01*
X54240Y-32790D01*
X54425Y-32790D01*
X54425Y-32961D01*
X54485Y-33021D01*
X54940Y-33021D01*
X54940Y-33013D01*
X55060Y-33013D01*
X55060Y-33021D01*
X55067Y-33021D01*
X55067Y-33141D01*
X55060Y-33141D01*
X55060Y-33674D01*
X55120Y-33734D01*
X55286Y-33734D01*
X55382Y-33734D01*
X55470Y-33697D01*
X55510Y-33658D01*
X55510Y-34614D01*
X56010Y-35214D01*
X56010Y-36754D01*
G54D10*
G36*
X58010Y-34910D02*
X56217Y-34910D01*
X55840Y-34484D01*
X55840Y-32790D01*
X57510Y-32790D01*
X57510Y-33540D01*
X58010Y-33540D01*
X58010Y-33910D01*
X57260Y-33910D01*
X57260Y-34590D01*
X58010Y-34590D01*
X58010Y-34910D01*
X58010Y-34910D01*
G37*
G54D76*
X58010Y-34910D02*
X56217Y-34910D01*
X55840Y-34484D01*
X55840Y-32790D01*
X57510Y-32790D01*
X57510Y-33540D01*
X58010Y-33540D01*
X58010Y-33910D01*
X57260Y-33910D01*
X57260Y-34590D01*
X58010Y-34590D01*
X58010Y-34910D01*
G54D10*
G36*
X54610Y-30910D02*
X54010Y-30910D01*
X54010Y-32310D01*
X52990Y-32310D01*
X52990Y-30242D01*
X53018Y-30271D01*
X53136Y-30319D01*
X53263Y-30320D01*
X53381Y-30271D01*
X53471Y-30181D01*
X53519Y-30063D01*
X53520Y-29962D01*
X53637Y-29845D01*
X53791Y-29845D01*
X53835Y-29827D01*
X53869Y-29793D01*
X53887Y-29749D01*
X53888Y-29701D01*
X53888Y-29150D01*
X53883Y-29140D01*
X54416Y-29140D01*
X54412Y-29150D01*
X54411Y-29198D01*
X54411Y-29749D01*
X54430Y-29793D01*
X54463Y-29827D01*
X54508Y-29845D01*
X54555Y-29845D01*
X54610Y-29845D01*
X54610Y-30910D01*
X54610Y-30910D01*
G37*
G54D76*
X54610Y-30910D02*
X54010Y-30910D01*
X54010Y-32310D01*
X52990Y-32310D01*
X52990Y-30242D01*
X53018Y-30271D01*
X53136Y-30319D01*
X53263Y-30320D01*
X53381Y-30271D01*
X53471Y-30181D01*
X53519Y-30063D01*
X53520Y-29962D01*
X53637Y-29845D01*
X53791Y-29845D01*
X53835Y-29827D01*
X53869Y-29793D01*
X53887Y-29749D01*
X53888Y-29701D01*
X53888Y-29150D01*
X53883Y-29140D01*
X54416Y-29140D01*
X54412Y-29150D01*
X54411Y-29198D01*
X54411Y-29749D01*
X54430Y-29793D01*
X54463Y-29827D01*
X54508Y-29845D01*
X54555Y-29845D01*
X54610Y-29845D01*
X54610Y-30910D01*
G54D10*
G36*
X57210Y-32360D02*
X54340Y-32360D01*
X54340Y-31090D01*
X57210Y-31090D01*
X57210Y-32360D01*
X57210Y-32360D01*
G37*
G54D76*
X57210Y-32360D02*
X54340Y-32360D01*
X54340Y-31090D01*
X57210Y-31090D01*
X57210Y-32360D01*
G54D10*
G36*
X61310Y-37360D02*
X60790Y-37360D01*
X60790Y-36730D01*
X60790Y-36435D01*
X60790Y-36315D01*
X60790Y-36020D01*
X60730Y-35960D01*
X60622Y-35959D01*
X60527Y-35960D01*
X60438Y-35996D01*
X60371Y-36064D01*
X60334Y-36152D01*
X60335Y-36255D01*
X60395Y-36315D01*
X60790Y-36315D01*
X60790Y-36435D01*
X60395Y-36435D01*
X60335Y-36495D01*
X60334Y-36597D01*
X60371Y-36685D01*
X60438Y-36753D01*
X60527Y-36789D01*
X60622Y-36790D01*
X60730Y-36790D01*
X60790Y-36730D01*
X60790Y-37360D01*
X57690Y-37360D01*
X57690Y-37327D01*
X57690Y-36872D01*
X57689Y-36777D01*
X57653Y-36688D01*
X57585Y-36621D01*
X57497Y-36584D01*
X57403Y-36584D01*
X57403Y-36185D01*
X57403Y-35414D01*
X57402Y-35319D01*
X57366Y-35230D01*
X57298Y-35163D01*
X57210Y-35126D01*
X56968Y-35127D01*
X56908Y-35187D01*
X56908Y-35740D01*
X57343Y-35740D01*
X57403Y-35680D01*
X57403Y-35414D01*
X57403Y-36185D01*
X57403Y-35920D01*
X57343Y-35860D01*
X56908Y-35860D01*
X56908Y-36413D01*
X56968Y-36473D01*
X57210Y-36473D01*
X57298Y-36436D01*
X57366Y-36369D01*
X57402Y-36280D01*
X57403Y-36185D01*
X57403Y-36584D01*
X57395Y-36585D01*
X57335Y-36645D01*
X57335Y-37040D01*
X57630Y-37040D01*
X57690Y-36980D01*
X57690Y-36872D01*
X57690Y-37327D01*
X57690Y-37220D01*
X57630Y-37160D01*
X57335Y-37160D01*
X57335Y-37167D01*
X57215Y-37167D01*
X57215Y-37160D01*
X57215Y-37040D01*
X57215Y-36645D01*
X57155Y-36585D01*
X57052Y-36584D01*
X56964Y-36621D01*
X56896Y-36688D01*
X56860Y-36777D01*
X56859Y-36872D01*
X56860Y-36980D01*
X56920Y-37040D01*
X57215Y-37040D01*
X57215Y-37160D01*
X56920Y-37160D01*
X56860Y-37220D01*
X56859Y-37327D01*
X56859Y-37360D01*
X56820Y-37360D01*
X56820Y-37351D01*
X56820Y-36801D01*
X56801Y-36757D01*
X56768Y-36723D01*
X56723Y-36705D01*
X56676Y-36704D01*
X56440Y-36704D01*
X56440Y-36454D01*
X56485Y-36473D01*
X56728Y-36473D01*
X56788Y-36413D01*
X56788Y-35860D01*
X56780Y-35860D01*
X56780Y-35740D01*
X56788Y-35740D01*
X56788Y-35187D01*
X56728Y-35127D01*
X56485Y-35126D01*
X56440Y-35145D01*
X56440Y-35090D01*
X59412Y-35090D01*
X59404Y-35108D01*
X59404Y-35155D01*
X59404Y-35391D01*
X59422Y-35435D01*
X59456Y-35469D01*
X59500Y-35487D01*
X59510Y-35487D01*
X59510Y-35690D01*
X60159Y-35690D01*
X60214Y-35745D01*
X60214Y-35745D01*
X60269Y-35782D01*
X60335Y-35795D01*
X60454Y-35795D01*
X60454Y-35823D01*
X60473Y-35867D01*
X60506Y-35901D01*
X60551Y-35919D01*
X60598Y-35920D01*
X61148Y-35920D01*
X61192Y-35901D01*
X61226Y-35868D01*
X61244Y-35823D01*
X61245Y-35776D01*
X61245Y-35690D01*
X61310Y-35690D01*
X61310Y-36045D01*
X61261Y-35996D01*
X61172Y-35960D01*
X61077Y-35959D01*
X60970Y-35960D01*
X60910Y-36020D01*
X60910Y-36315D01*
X60917Y-36315D01*
X60917Y-36435D01*
X60910Y-36435D01*
X60910Y-36730D01*
X60970Y-36790D01*
X61077Y-36790D01*
X61172Y-36789D01*
X61261Y-36753D01*
X61310Y-36704D01*
X61310Y-37360D01*
X61310Y-37360D01*
G37*
G54D76*
X61310Y-37360D02*
X60790Y-37360D01*
X60790Y-36730D01*
X60790Y-36435D01*
X60790Y-36315D01*
X60790Y-36020D01*
X60730Y-35960D01*
X60622Y-35959D01*
X60527Y-35960D01*
X60438Y-35996D01*
X60371Y-36064D01*
X60334Y-36152D01*
X60335Y-36255D01*
X60395Y-36315D01*
X60790Y-36315D01*
X60790Y-36435D01*
X60395Y-36435D01*
X60335Y-36495D01*
X60334Y-36597D01*
X60371Y-36685D01*
X60438Y-36753D01*
X60527Y-36789D01*
X60622Y-36790D01*
X60730Y-36790D01*
X60790Y-36730D01*
X60790Y-37360D01*
X57690Y-37360D01*
X57690Y-37327D01*
X57690Y-36872D01*
X57689Y-36777D01*
X57653Y-36688D01*
X57585Y-36621D01*
X57497Y-36584D01*
X57403Y-36584D01*
X57403Y-36185D01*
X57403Y-35414D01*
X57402Y-35319D01*
X57366Y-35230D01*
X57298Y-35163D01*
X57210Y-35126D01*
X56968Y-35127D01*
X56908Y-35187D01*
X56908Y-35740D01*
X57343Y-35740D01*
X57403Y-35680D01*
X57403Y-35414D01*
X57403Y-36185D01*
X57403Y-35920D01*
X57343Y-35860D01*
X56908Y-35860D01*
X56908Y-36413D01*
X56968Y-36473D01*
X57210Y-36473D01*
X57298Y-36436D01*
X57366Y-36369D01*
X57402Y-36280D01*
X57403Y-36185D01*
X57403Y-36584D01*
X57395Y-36585D01*
X57335Y-36645D01*
X57335Y-37040D01*
X57630Y-37040D01*
X57690Y-36980D01*
X57690Y-36872D01*
X57690Y-37327D01*
X57690Y-37220D01*
X57630Y-37160D01*
X57335Y-37160D01*
X57335Y-37167D01*
X57215Y-37167D01*
X57215Y-37160D01*
X57215Y-37040D01*
X57215Y-36645D01*
X57155Y-36585D01*
X57052Y-36584D01*
X56964Y-36621D01*
X56896Y-36688D01*
X56860Y-36777D01*
X56859Y-36872D01*
X56860Y-36980D01*
X56920Y-37040D01*
X57215Y-37040D01*
X57215Y-37160D01*
X56920Y-37160D01*
X56860Y-37220D01*
X56859Y-37327D01*
X56859Y-37360D01*
X56820Y-37360D01*
X56820Y-37351D01*
X56820Y-36801D01*
X56801Y-36757D01*
X56768Y-36723D01*
X56723Y-36705D01*
X56676Y-36704D01*
X56440Y-36704D01*
X56440Y-36454D01*
X56485Y-36473D01*
X56728Y-36473D01*
X56788Y-36413D01*
X56788Y-35860D01*
X56780Y-35860D01*
X56780Y-35740D01*
X56788Y-35740D01*
X56788Y-35187D01*
X56728Y-35127D01*
X56485Y-35126D01*
X56440Y-35145D01*
X56440Y-35090D01*
X59412Y-35090D01*
X59404Y-35108D01*
X59404Y-35155D01*
X59404Y-35391D01*
X59422Y-35435D01*
X59456Y-35469D01*
X59500Y-35487D01*
X59510Y-35487D01*
X59510Y-35690D01*
X60159Y-35690D01*
X60214Y-35745D01*
X60214Y-35745D01*
X60269Y-35782D01*
X60335Y-35795D01*
X60454Y-35795D01*
X60454Y-35823D01*
X60473Y-35867D01*
X60506Y-35901D01*
X60551Y-35919D01*
X60598Y-35920D01*
X61148Y-35920D01*
X61192Y-35901D01*
X61226Y-35868D01*
X61244Y-35823D01*
X61245Y-35776D01*
X61245Y-35690D01*
X61310Y-35690D01*
X61310Y-36045D01*
X61261Y-35996D01*
X61172Y-35960D01*
X61077Y-35959D01*
X60970Y-35960D01*
X60910Y-36020D01*
X60910Y-36315D01*
X60917Y-36315D01*
X60917Y-36435D01*
X60910Y-36435D01*
X60910Y-36730D01*
X60970Y-36790D01*
X61077Y-36790D01*
X61172Y-36789D01*
X61261Y-36753D01*
X61310Y-36704D01*
X61310Y-37360D01*
G54D10*
G36*
X61410Y-35360D02*
X61204Y-35360D01*
X61193Y-35348D01*
X61148Y-35330D01*
X61101Y-35329D01*
X60551Y-35329D01*
X60507Y-35348D01*
X60495Y-35360D01*
X60310Y-35360D01*
X60195Y-35245D01*
X60195Y-35108D01*
X60177Y-35064D01*
X60143Y-35030D01*
X60099Y-35012D01*
X60051Y-35011D01*
X59690Y-35011D01*
X59690Y-34988D01*
X60099Y-34988D01*
X60143Y-34969D01*
X60177Y-34936D01*
X60183Y-34920D01*
X60229Y-34920D01*
X60229Y-35148D01*
X60248Y-35192D01*
X60281Y-35226D01*
X60326Y-35244D01*
X60373Y-35245D01*
X60723Y-35245D01*
X60767Y-35226D01*
X60801Y-35193D01*
X60819Y-35148D01*
X60820Y-35101D01*
X60820Y-34551D01*
X60801Y-34507D01*
X60768Y-34473D01*
X60723Y-34455D01*
X60676Y-34454D01*
X60326Y-34454D01*
X60282Y-34473D01*
X60248Y-34506D01*
X60230Y-34551D01*
X60229Y-34580D01*
X60183Y-34580D01*
X60177Y-34564D01*
X60143Y-34530D01*
X60099Y-34512D01*
X60051Y-34511D01*
X59500Y-34511D01*
X59456Y-34530D01*
X59422Y-34563D01*
X59404Y-34608D01*
X59404Y-34655D01*
X59404Y-34891D01*
X59412Y-34910D01*
X58240Y-34910D01*
X58240Y-34360D01*
X57440Y-34360D01*
X57440Y-34140D01*
X58240Y-34140D01*
X58240Y-33440D01*
X59899Y-33440D01*
X59884Y-33442D01*
X59829Y-33479D01*
X59829Y-33479D01*
X59797Y-33511D01*
X59500Y-33511D01*
X59456Y-33530D01*
X59422Y-33563D01*
X59404Y-33608D01*
X59404Y-33655D01*
X59404Y-33891D01*
X59422Y-33935D01*
X59456Y-33969D01*
X59500Y-33987D01*
X59548Y-33988D01*
X60099Y-33988D01*
X60143Y-33969D01*
X60177Y-33936D01*
X60195Y-33891D01*
X60195Y-33844D01*
X60195Y-33770D01*
X60266Y-33770D01*
X60275Y-33791D01*
X60308Y-33825D01*
X60353Y-33843D01*
X60400Y-33844D01*
X60850Y-33844D01*
X60894Y-33825D01*
X60928Y-33792D01*
X60937Y-33770D01*
X61209Y-33770D01*
X61410Y-33970D01*
X61410Y-35360D01*
X61410Y-35360D01*
G37*
G54D76*
X61410Y-35360D02*
X61204Y-35360D01*
X61193Y-35348D01*
X61148Y-35330D01*
X61101Y-35329D01*
X60551Y-35329D01*
X60507Y-35348D01*
X60495Y-35360D01*
X60310Y-35360D01*
X60195Y-35245D01*
X60195Y-35108D01*
X60177Y-35064D01*
X60143Y-35030D01*
X60099Y-35012D01*
X60051Y-35011D01*
X59690Y-35011D01*
X59690Y-34988D01*
X60099Y-34988D01*
X60143Y-34969D01*
X60177Y-34936D01*
X60183Y-34920D01*
X60229Y-34920D01*
X60229Y-35148D01*
X60248Y-35192D01*
X60281Y-35226D01*
X60326Y-35244D01*
X60373Y-35245D01*
X60723Y-35245D01*
X60767Y-35226D01*
X60801Y-35193D01*
X60819Y-35148D01*
X60820Y-35101D01*
X60820Y-34551D01*
X60801Y-34507D01*
X60768Y-34473D01*
X60723Y-34455D01*
X60676Y-34454D01*
X60326Y-34454D01*
X60282Y-34473D01*
X60248Y-34506D01*
X60230Y-34551D01*
X60229Y-34580D01*
X60183Y-34580D01*
X60177Y-34564D01*
X60143Y-34530D01*
X60099Y-34512D01*
X60051Y-34511D01*
X59500Y-34511D01*
X59456Y-34530D01*
X59422Y-34563D01*
X59404Y-34608D01*
X59404Y-34655D01*
X59404Y-34891D01*
X59412Y-34910D01*
X58240Y-34910D01*
X58240Y-34360D01*
X57440Y-34360D01*
X57440Y-34140D01*
X58240Y-34140D01*
X58240Y-33440D01*
X59899Y-33440D01*
X59884Y-33442D01*
X59829Y-33479D01*
X59829Y-33479D01*
X59797Y-33511D01*
X59500Y-33511D01*
X59456Y-33530D01*
X59422Y-33563D01*
X59404Y-33608D01*
X59404Y-33655D01*
X59404Y-33891D01*
X59422Y-33935D01*
X59456Y-33969D01*
X59500Y-33987D01*
X59548Y-33988D01*
X60099Y-33988D01*
X60143Y-33969D01*
X60177Y-33936D01*
X60195Y-33891D01*
X60195Y-33844D01*
X60195Y-33770D01*
X60266Y-33770D01*
X60275Y-33791D01*
X60308Y-33825D01*
X60353Y-33843D01*
X60400Y-33844D01*
X60850Y-33844D01*
X60894Y-33825D01*
X60928Y-33792D01*
X60937Y-33770D01*
X61209Y-33770D01*
X61410Y-33970D01*
X61410Y-35360D01*
G54D10*
G36*
X70210Y-27410D02*
X68060Y-27410D01*
X66290Y-26377D01*
X66290Y-20290D01*
X68047Y-20290D01*
X67965Y-20372D01*
X67726Y-20947D01*
X67726Y-21569D01*
X67963Y-22145D01*
X68403Y-22585D01*
X68978Y-22824D01*
X69601Y-22825D01*
X70176Y-22587D01*
X70210Y-22554D01*
X70210Y-27410D01*
X70210Y-27410D01*
G37*
G54D76*
X70210Y-27410D02*
X68060Y-27410D01*
X66290Y-26377D01*
X66290Y-20290D01*
X68047Y-20290D01*
X67965Y-20372D01*
X67726Y-20947D01*
X67726Y-21569D01*
X67963Y-22145D01*
X68403Y-22585D01*
X68978Y-22824D01*
X69601Y-22825D01*
X70176Y-22587D01*
X70210Y-22554D01*
X70210Y-27410D01*
G54D10*
G36*
X70210Y-36411D02*
X69617Y-36165D01*
X68968Y-36164D01*
X68368Y-36412D01*
X67909Y-36870D01*
X67661Y-37469D01*
X67660Y-38118D01*
X67905Y-38710D01*
X67640Y-38710D01*
X67640Y-32821D01*
X68512Y-32240D01*
X70210Y-32240D01*
X70210Y-36411D01*
X70210Y-36411D01*
G37*
G54D76*
X70210Y-36411D02*
X69617Y-36165D01*
X68968Y-36164D01*
X68368Y-36412D01*
X67909Y-36870D01*
X67661Y-37469D01*
X67660Y-38118D01*
X67905Y-38710D01*
X67640Y-38710D01*
X67640Y-32821D01*
X68512Y-32240D01*
X70210Y-32240D01*
X70210Y-36411D01*
G54D10*
G36*
X51360Y-24970D02*
X51339Y-24990D01*
X51340Y-24927D01*
X51340Y-24472D01*
X51339Y-24377D01*
X51303Y-24288D01*
X51235Y-24221D01*
X51147Y-24184D01*
X51045Y-24185D01*
X50985Y-24245D01*
X50985Y-24640D01*
X51280Y-24640D01*
X51340Y-24580D01*
X51340Y-24472D01*
X51340Y-24927D01*
X51340Y-24820D01*
X51280Y-24760D01*
X50985Y-24760D01*
X50985Y-24767D01*
X50865Y-24767D01*
X50865Y-24760D01*
X50865Y-24640D01*
X50865Y-24245D01*
X50805Y-24185D01*
X50702Y-24184D01*
X50696Y-24187D01*
X50696Y-22619D01*
X50681Y-22405D01*
X50628Y-22276D01*
X50536Y-22248D01*
X50451Y-22332D01*
X50451Y-22163D01*
X50440Y-22125D01*
X50440Y-21960D01*
X50095Y-21960D01*
X50038Y-22016D01*
X50005Y-22018D01*
X49876Y-22071D01*
X49848Y-22163D01*
X50150Y-22465D01*
X50350Y-22265D01*
X50380Y-22265D01*
X50440Y-22205D01*
X50440Y-22175D01*
X50451Y-22163D01*
X50451Y-22332D01*
X50234Y-22550D01*
X50536Y-22851D01*
X50628Y-22823D01*
X50696Y-22619D01*
X50696Y-24187D01*
X50614Y-24221D01*
X50546Y-24288D01*
X50510Y-24377D01*
X50509Y-24472D01*
X50510Y-24580D01*
X50570Y-24640D01*
X50865Y-24640D01*
X50865Y-24760D01*
X50570Y-24760D01*
X50510Y-24820D01*
X50509Y-24927D01*
X50510Y-25022D01*
X50523Y-25054D01*
X50415Y-25054D01*
X50415Y-23477D01*
X50415Y-23420D01*
X50355Y-23360D01*
X50110Y-23360D01*
X50110Y-23545D01*
X50060Y-23595D01*
X50060Y-23940D01*
X50305Y-23940D01*
X50365Y-23880D01*
X50365Y-23822D01*
X50364Y-23727D01*
X50349Y-23689D01*
X50378Y-23661D01*
X50414Y-23572D01*
X50415Y-23477D01*
X50415Y-25054D01*
X50326Y-25054D01*
X50284Y-25072D01*
X50278Y-25059D01*
X50211Y-24991D01*
X50195Y-24985D01*
X50255Y-24985D01*
X50315Y-24925D01*
X50315Y-24897D01*
X50278Y-24809D01*
X50211Y-24741D01*
X50195Y-24734D01*
X50195Y-24671D01*
X50186Y-24650D01*
X50194Y-24628D01*
X50195Y-24581D01*
X50195Y-24455D01*
X50260Y-24428D01*
X50328Y-24361D01*
X50364Y-24272D01*
X50365Y-24177D01*
X50365Y-24120D01*
X50305Y-24060D01*
X50060Y-24060D01*
X50060Y-24067D01*
X49940Y-24067D01*
X49940Y-24060D01*
X49932Y-24060D01*
X49932Y-23940D01*
X49940Y-23940D01*
X49940Y-23755D01*
X49990Y-23705D01*
X49990Y-23360D01*
X49982Y-23360D01*
X49982Y-23240D01*
X49990Y-23240D01*
X49990Y-23232D01*
X50110Y-23232D01*
X50110Y-23240D01*
X50355Y-23240D01*
X50415Y-23180D01*
X50415Y-23122D01*
X50414Y-23031D01*
X50423Y-23028D01*
X50451Y-22936D01*
X50150Y-22634D01*
X50144Y-22640D01*
X50059Y-22555D01*
X50065Y-22550D01*
X49763Y-22248D01*
X49671Y-22276D01*
X49640Y-22372D01*
X49640Y-21740D01*
X50034Y-21740D01*
X50035Y-21780D01*
X50095Y-21840D01*
X50440Y-21840D01*
X50440Y-21832D01*
X50560Y-21832D01*
X50560Y-21840D01*
X50795Y-21840D01*
X50905Y-21840D01*
X51140Y-21840D01*
X51140Y-21832D01*
X51260Y-21832D01*
X51260Y-21840D01*
X51267Y-21840D01*
X51267Y-21960D01*
X51260Y-21960D01*
X51260Y-21967D01*
X51140Y-21967D01*
X51140Y-21960D01*
X50905Y-21960D01*
X50795Y-21960D01*
X50560Y-21960D01*
X50560Y-22205D01*
X50620Y-22265D01*
X50677Y-22265D01*
X50772Y-22264D01*
X50850Y-22232D01*
X50866Y-22239D01*
X50794Y-22311D01*
X50730Y-22466D01*
X50729Y-22633D01*
X50793Y-22787D01*
X50911Y-22905D01*
X51066Y-22969D01*
X51233Y-22970D01*
X51360Y-22917D01*
X51360Y-24970D01*
X51360Y-24970D01*
G37*
G54D76*
X51360Y-24970D02*
X51339Y-24990D01*
X51340Y-24927D01*
X51340Y-24472D01*
X51339Y-24377D01*
X51303Y-24288D01*
X51235Y-24221D01*
X51147Y-24184D01*
X51045Y-24185D01*
X50985Y-24245D01*
X50985Y-24640D01*
X51280Y-24640D01*
X51340Y-24580D01*
X51340Y-24472D01*
X51340Y-24927D01*
X51340Y-24820D01*
X51280Y-24760D01*
X50985Y-24760D01*
X50985Y-24767D01*
X50865Y-24767D01*
X50865Y-24760D01*
X50865Y-24640D01*
X50865Y-24245D01*
X50805Y-24185D01*
X50702Y-24184D01*
X50696Y-24187D01*
X50696Y-22619D01*
X50681Y-22405D01*
X50628Y-22276D01*
X50536Y-22248D01*
X50451Y-22332D01*
X50451Y-22163D01*
X50440Y-22125D01*
X50440Y-21960D01*
X50095Y-21960D01*
X50038Y-22016D01*
X50005Y-22018D01*
X49876Y-22071D01*
X49848Y-22163D01*
X50150Y-22465D01*
X50350Y-22265D01*
X50380Y-22265D01*
X50440Y-22205D01*
X50440Y-22175D01*
X50451Y-22163D01*
X50451Y-22332D01*
X50234Y-22550D01*
X50536Y-22851D01*
X50628Y-22823D01*
X50696Y-22619D01*
X50696Y-24187D01*
X50614Y-24221D01*
X50546Y-24288D01*
X50510Y-24377D01*
X50509Y-24472D01*
X50510Y-24580D01*
X50570Y-24640D01*
X50865Y-24640D01*
X50865Y-24760D01*
X50570Y-24760D01*
X50510Y-24820D01*
X50509Y-24927D01*
X50510Y-25022D01*
X50523Y-25054D01*
X50415Y-25054D01*
X50415Y-23477D01*
X50415Y-23420D01*
X50355Y-23360D01*
X50110Y-23360D01*
X50110Y-23545D01*
X50060Y-23595D01*
X50060Y-23940D01*
X50305Y-23940D01*
X50365Y-23880D01*
X50365Y-23822D01*
X50364Y-23727D01*
X50349Y-23689D01*
X50378Y-23661D01*
X50414Y-23572D01*
X50415Y-23477D01*
X50415Y-25054D01*
X50326Y-25054D01*
X50284Y-25072D01*
X50278Y-25059D01*
X50211Y-24991D01*
X50195Y-24985D01*
X50255Y-24985D01*
X50315Y-24925D01*
X50315Y-24897D01*
X50278Y-24809D01*
X50211Y-24741D01*
X50195Y-24734D01*
X50195Y-24671D01*
X50186Y-24650D01*
X50194Y-24628D01*
X50195Y-24581D01*
X50195Y-24455D01*
X50260Y-24428D01*
X50328Y-24361D01*
X50364Y-24272D01*
X50365Y-24177D01*
X50365Y-24120D01*
X50305Y-24060D01*
X50060Y-24060D01*
X50060Y-24067D01*
X49940Y-24067D01*
X49940Y-24060D01*
X49932Y-24060D01*
X49932Y-23940D01*
X49940Y-23940D01*
X49940Y-23755D01*
X49990Y-23705D01*
X49990Y-23360D01*
X49982Y-23360D01*
X49982Y-23240D01*
X49990Y-23240D01*
X49990Y-23232D01*
X50110Y-23232D01*
X50110Y-23240D01*
X50355Y-23240D01*
X50415Y-23180D01*
X50415Y-23122D01*
X50414Y-23031D01*
X50423Y-23028D01*
X50451Y-22936D01*
X50150Y-22634D01*
X50144Y-22640D01*
X50059Y-22555D01*
X50065Y-22550D01*
X49763Y-22248D01*
X49671Y-22276D01*
X49640Y-22372D01*
X49640Y-21740D01*
X50034Y-21740D01*
X50035Y-21780D01*
X50095Y-21840D01*
X50440Y-21840D01*
X50440Y-21832D01*
X50560Y-21832D01*
X50560Y-21840D01*
X50795Y-21840D01*
X50905Y-21840D01*
X51140Y-21840D01*
X51140Y-21832D01*
X51260Y-21832D01*
X51260Y-21840D01*
X51267Y-21840D01*
X51267Y-21960D01*
X51260Y-21960D01*
X51260Y-21967D01*
X51140Y-21967D01*
X51140Y-21960D01*
X50905Y-21960D01*
X50795Y-21960D01*
X50560Y-21960D01*
X50560Y-22205D01*
X50620Y-22265D01*
X50677Y-22265D01*
X50772Y-22264D01*
X50850Y-22232D01*
X50866Y-22239D01*
X50794Y-22311D01*
X50730Y-22466D01*
X50729Y-22633D01*
X50793Y-22787D01*
X50911Y-22905D01*
X51066Y-22969D01*
X51233Y-22970D01*
X51360Y-22917D01*
X51360Y-24970D01*
M02*
