G04 (created by PCBNEW (2013-07-07 BZR 4022)-stable) date 2/4/2017 6:27:51 AM*
%MOIN*%
G04 Gerber Fmt 3.4, Leading zero omitted, Abs format*
%FSLAX34Y34*%
G01*
G70*
G90*
G04 APERTURE LIST*
%ADD10C,0.00590551*%
%ADD11C,0.01*%
%ADD12O,0.0708661X0.0433071*%
%ADD13O,0.0866142X0.0433071*%
%ADD14R,0.06X0.06*%
%ADD15C,0.06*%
%ADD16C,0.1437*%
%ADD17R,0.0591X0.0591*%
%ADD18C,0.0591*%
%ADD19C,0.011811*%
%ADD20C,0.125*%
%ADD21R,0.0629921X0.0629921*%
%ADD22C,0.0629921*%
%ADD23C,0.0984252*%
%ADD24R,0.0708661X0.0708661*%
%ADD25C,0.0708661*%
%ADD26C,0.045*%
%ADD27C,0.066*%
%ADD28R,0.1X0.1*%
%ADD29C,0.1*%
%ADD30C,0.075*%
%ADD31R,0.075X0.075*%
%ADD32O,0.0393701X0.0669291*%
%ADD33C,0.0177165*%
%ADD34R,0.0649606X0.0649606*%
%ADD35C,0.0649606*%
%ADD36C,0.04*%
%ADD37C,0.016*%
%ADD38C,0.008*%
G04 APERTURE END LIST*
G54D10*
G54D11*
X35416Y-38311D02*
X35664Y-38311D01*
X35530Y-38464D01*
X35588Y-38464D01*
X35626Y-38483D01*
X35645Y-38502D01*
X35664Y-38540D01*
X35664Y-38635D01*
X35645Y-38673D01*
X35626Y-38692D01*
X35588Y-38711D01*
X35473Y-38711D01*
X35435Y-38692D01*
X35416Y-38673D01*
G54D12*
X47297Y-21100D03*
X49502Y-21100D03*
G54D13*
X48400Y-20253D03*
G54D14*
X47150Y-22550D03*
G54D15*
X48150Y-22550D03*
X49150Y-22550D03*
X50150Y-22550D03*
X51150Y-22550D03*
G54D16*
X33600Y-24162D03*
X33600Y-28835D03*
G54D17*
X36100Y-28250D03*
G54D18*
X37100Y-27750D03*
X36100Y-27250D03*
X37100Y-26750D03*
X36100Y-26250D03*
X37100Y-25750D03*
X36100Y-25250D03*
X37100Y-24750D03*
G54D16*
X33600Y-30462D03*
X33600Y-35135D03*
G54D17*
X36100Y-34550D03*
G54D18*
X37100Y-34050D03*
X36100Y-33550D03*
X37100Y-33050D03*
X36100Y-32550D03*
X37100Y-32050D03*
X36100Y-31550D03*
X37100Y-31050D03*
G54D14*
X40000Y-28100D03*
G54D15*
X41000Y-28100D03*
X40000Y-27100D03*
X41000Y-27100D03*
X40000Y-26100D03*
X41000Y-26100D03*
G54D19*
X41950Y-34150D03*
X43350Y-33500D03*
X43150Y-32900D03*
X41500Y-33500D03*
X41750Y-32900D03*
X42440Y-32870D03*
G54D20*
X69291Y-21259D03*
X33070Y-37795D03*
G54D21*
X54600Y-38192D03*
G54D22*
X54600Y-37207D03*
G54D23*
X69200Y-34721D03*
X69200Y-32752D03*
X69200Y-30784D03*
X69200Y-28815D03*
X69200Y-24878D03*
X69200Y-26847D03*
G54D19*
X42900Y-34150D03*
X59200Y-34500D03*
X61300Y-35250D03*
X58350Y-33550D03*
X60150Y-34200D03*
X58350Y-34250D03*
X59200Y-33950D03*
X58350Y-34800D03*
X61250Y-34200D03*
G54D24*
X56584Y-34100D03*
G54D25*
X54615Y-34100D03*
G54D19*
X47800Y-36900D03*
X49200Y-38400D03*
X49200Y-36900D03*
X47800Y-38100D03*
X48630Y-37630D03*
G54D26*
X56700Y-38200D03*
G54D15*
X39500Y-36500D03*
X40500Y-36500D03*
X41500Y-36500D03*
X42500Y-36500D03*
X43500Y-36500D03*
X44500Y-36500D03*
X45500Y-36500D03*
G54D14*
X46500Y-36500D03*
X46500Y-38500D03*
G54D15*
X45500Y-38500D03*
X44500Y-38500D03*
X43500Y-38500D03*
X42500Y-38500D03*
X41500Y-38500D03*
X40500Y-38500D03*
X39500Y-38500D03*
X39500Y-35500D03*
X40500Y-35500D03*
X41500Y-35500D03*
X42500Y-35500D03*
X43500Y-35500D03*
X44500Y-35500D03*
X45500Y-35500D03*
X46500Y-35500D03*
G54D14*
X38400Y-32400D03*
G54D15*
X39400Y-32400D03*
G54D27*
X37400Y-37200D03*
X36400Y-37200D03*
X35400Y-37200D03*
G54D23*
X42752Y-21300D03*
X40784Y-21300D03*
X36847Y-21300D03*
X38815Y-21300D03*
G54D28*
X35000Y-28300D03*
G54D29*
X35000Y-26800D03*
X35000Y-25300D03*
G54D23*
X60837Y-21400D03*
X58868Y-21400D03*
X56900Y-21400D03*
X52962Y-21400D03*
X54931Y-21400D03*
G54D14*
X38800Y-29800D03*
G54D15*
X38800Y-30800D03*
G54D30*
X58113Y-38184D03*
X59687Y-38184D03*
G54D31*
X59687Y-36216D03*
G54D30*
X58113Y-36216D03*
G54D32*
X46992Y-21100D03*
X49807Y-21100D03*
G54D33*
X48144Y-20792D03*
X48400Y-21296D03*
X48655Y-20792D03*
X48911Y-21296D03*
X47888Y-21296D03*
G54D34*
X51800Y-32400D03*
G54D35*
X51800Y-33400D03*
G54D34*
X48100Y-32400D03*
G54D35*
X48100Y-33400D03*
G54D36*
X50950Y-27100D03*
X44050Y-25100D03*
X40360Y-25160D03*
X51700Y-27650D03*
X45300Y-26590D03*
X47300Y-31800D03*
X51700Y-35500D03*
X51700Y-34900D03*
X35200Y-33900D03*
X48820Y-30360D03*
X44320Y-23120D03*
X39000Y-33400D03*
X32500Y-33100D03*
X40425Y-30025D03*
X49900Y-34400D03*
X43560Y-29980D03*
X50000Y-32000D03*
X58400Y-25600D03*
X58400Y-28400D03*
X60400Y-28400D03*
X60400Y-24800D03*
X62200Y-22800D03*
X63600Y-21200D03*
X63800Y-23400D03*
X64800Y-24600D03*
X64800Y-25600D03*
X63400Y-27200D03*
X64400Y-27200D03*
X65400Y-27200D03*
X66400Y-27200D03*
X44180Y-29550D03*
X50350Y-31050D03*
X64400Y-36600D03*
X65600Y-37800D03*
X65600Y-35600D03*
X64800Y-33600D03*
X63600Y-33600D03*
X62200Y-33600D03*
X60800Y-32400D03*
X59000Y-32400D03*
X59000Y-30600D03*
X60800Y-30600D03*
X62200Y-31400D03*
X63200Y-31400D03*
X64200Y-31400D03*
X65200Y-31400D03*
X66000Y-31400D03*
X66800Y-31400D03*
X67600Y-31400D03*
X43610Y-29370D03*
X43340Y-30830D03*
X42790Y-30770D03*
X45300Y-28000D03*
X65300Y-30180D03*
X51820Y-29420D03*
X45920Y-29240D03*
X54110Y-24150D03*
X46700Y-27800D03*
X41990Y-30210D03*
X55150Y-28130D03*
X67850Y-30320D03*
X56480Y-27400D03*
X64820Y-30320D03*
X56080Y-29680D03*
X38740Y-28380D03*
X38800Y-38200D03*
X42430Y-29210D03*
X38500Y-36200D03*
X39500Y-25340D03*
X38800Y-24400D03*
X39440Y-31468D03*
X48060Y-28610D03*
X42600Y-27540D03*
X54520Y-27960D03*
X51200Y-20900D03*
X50500Y-20900D03*
X48680Y-27050D03*
X67200Y-21200D03*
X67200Y-23200D03*
X69000Y-23400D03*
X68200Y-36000D03*
X63520Y-35460D03*
X63540Y-38160D03*
X63560Y-36880D03*
X54150Y-26730D03*
X65200Y-28950D03*
X43700Y-23150D03*
X40410Y-24480D03*
X37580Y-24100D03*
X43430Y-27030D03*
X34700Y-24100D03*
X38100Y-25900D03*
X38700Y-27000D03*
X51370Y-28130D03*
X46050Y-27050D03*
X51700Y-30000D03*
X50470Y-24830D03*
X52450Y-25400D03*
X51400Y-37400D03*
X54835Y-24235D03*
X46410Y-24000D03*
X46430Y-23350D03*
X52550Y-26250D03*
X35220Y-35490D03*
X36700Y-35600D03*
X48140Y-30120D03*
X49290Y-28270D03*
X51710Y-25440D03*
X48290Y-25720D03*
X34200Y-25700D03*
X35140Y-31550D03*
X62040Y-35580D03*
X61960Y-38160D03*
X61920Y-36880D03*
X43880Y-26060D03*
X44840Y-21800D03*
X46100Y-21600D03*
X46100Y-20300D03*
X46200Y-21000D03*
X50000Y-32500D03*
X32600Y-32500D03*
X47460Y-30060D03*
X47400Y-30900D03*
X45700Y-30520D03*
X40425Y-30525D03*
X49590Y-30365D03*
X55850Y-32250D03*
X55700Y-31280D03*
X33760Y-33300D03*
X40420Y-31880D03*
X33780Y-32060D03*
X40440Y-31100D03*
X39300Y-24400D03*
X34800Y-22300D03*
X37950Y-26950D03*
X41670Y-21880D03*
X45350Y-23850D03*
X45640Y-25070D03*
X49100Y-26110D03*
X44960Y-23100D03*
X41600Y-22500D03*
X51610Y-26250D03*
X48790Y-24820D03*
X55480Y-26010D03*
X53250Y-33700D03*
X53750Y-33700D03*
X38300Y-37600D03*
X43740Y-23840D03*
X53200Y-29450D03*
X53200Y-30000D03*
G54D11*
X56480Y-27400D02*
X56480Y-29370D01*
X67340Y-29810D02*
X67850Y-30320D01*
X56920Y-29810D02*
X67340Y-29810D01*
X56480Y-29370D02*
X56920Y-29810D01*
X56860Y-27180D02*
X56860Y-27570D01*
X57010Y-29570D02*
X64980Y-29570D01*
X56720Y-29280D02*
X57010Y-29570D01*
X56720Y-27710D02*
X56720Y-29280D01*
X56860Y-27570D02*
X56720Y-27710D01*
X65200Y-28950D02*
X65200Y-29350D01*
X54360Y-26940D02*
X54150Y-26730D01*
X56620Y-26940D02*
X54360Y-26940D01*
X56860Y-27180D02*
X56620Y-26940D01*
X65200Y-29350D02*
X64980Y-29570D01*
G54D37*
X57978Y-38660D02*
X47280Y-38660D01*
X47280Y-38660D02*
X46980Y-38360D01*
X46980Y-38360D02*
X46980Y-38080D01*
X58230Y-37842D02*
X58230Y-38530D01*
X58230Y-38530D02*
X57978Y-38660D01*
X46500Y-37600D02*
X46980Y-38080D01*
X38300Y-37600D02*
X46500Y-37600D01*
G54D10*
G36*
X62400Y-38700D02*
X59943Y-38700D01*
X60012Y-38671D01*
X60174Y-38510D01*
X60261Y-38298D01*
X60262Y-38070D01*
X60262Y-38069D01*
X60262Y-36551D01*
X60262Y-35801D01*
X60231Y-35727D01*
X60175Y-35671D01*
X60101Y-35641D01*
X60022Y-35640D01*
X59272Y-35640D01*
X59198Y-35671D01*
X59142Y-35727D01*
X59112Y-35801D01*
X59111Y-35880D01*
X59111Y-36630D01*
X59142Y-36704D01*
X59198Y-36760D01*
X59272Y-36790D01*
X59351Y-36791D01*
X60101Y-36791D01*
X60175Y-36760D01*
X60231Y-36704D01*
X60261Y-36630D01*
X60262Y-36551D01*
X60262Y-38069D01*
X60174Y-37858D01*
X60013Y-37696D01*
X59801Y-37609D01*
X59573Y-37608D01*
X59361Y-37696D01*
X59199Y-37857D01*
X59112Y-38069D01*
X59111Y-38297D01*
X59199Y-38509D01*
X59360Y-38671D01*
X59430Y-38700D01*
X58449Y-38700D01*
X58464Y-38674D01*
X58488Y-38637D01*
X58491Y-38625D01*
X58496Y-38615D01*
X58496Y-38613D01*
X58600Y-38510D01*
X58687Y-38298D01*
X58688Y-38070D01*
X58688Y-36102D01*
X58600Y-35890D01*
X58439Y-35728D01*
X58227Y-35641D01*
X57999Y-35640D01*
X57787Y-35728D01*
X57625Y-35889D01*
X57538Y-36101D01*
X57537Y-36329D01*
X57625Y-36541D01*
X57786Y-36703D01*
X57998Y-36790D01*
X58226Y-36791D01*
X58438Y-36703D01*
X58600Y-36542D01*
X58687Y-36330D01*
X58688Y-36102D01*
X58688Y-38070D01*
X58600Y-37858D01*
X58491Y-37749D01*
X58488Y-37734D01*
X58427Y-37644D01*
X58337Y-37583D01*
X58230Y-37562D01*
X58122Y-37583D01*
X58084Y-37608D01*
X57999Y-37608D01*
X57787Y-37696D01*
X57625Y-37857D01*
X57538Y-38069D01*
X57537Y-38297D01*
X57571Y-38380D01*
X57138Y-38380D01*
X57138Y-34414D01*
X57138Y-33706D01*
X57108Y-33632D01*
X57052Y-33576D01*
X56978Y-33545D01*
X56898Y-33545D01*
X56350Y-33545D01*
X56350Y-32150D01*
X56274Y-31967D01*
X56133Y-31826D01*
X55949Y-31750D01*
X55871Y-31750D01*
X55982Y-31704D01*
X56123Y-31563D01*
X56199Y-31379D01*
X56200Y-31180D01*
X56124Y-30997D01*
X55983Y-30856D01*
X55799Y-30780D01*
X55600Y-30779D01*
X55417Y-30855D01*
X55276Y-30996D01*
X55200Y-31180D01*
X55199Y-31379D01*
X55275Y-31562D01*
X55416Y-31703D01*
X55600Y-31779D01*
X55678Y-31779D01*
X55567Y-31825D01*
X55426Y-31966D01*
X55350Y-32150D01*
X55349Y-32349D01*
X55425Y-32532D01*
X55566Y-32673D01*
X55750Y-32749D01*
X55949Y-32750D01*
X56132Y-32674D01*
X56273Y-32533D01*
X56349Y-32349D01*
X56350Y-32150D01*
X56350Y-33545D01*
X56190Y-33545D01*
X56116Y-33576D01*
X56060Y-33632D01*
X56029Y-33705D01*
X56029Y-33785D01*
X56029Y-34493D01*
X56060Y-34567D01*
X56116Y-34623D01*
X56189Y-34654D01*
X56269Y-34654D01*
X56978Y-34654D01*
X57051Y-34623D01*
X57108Y-34567D01*
X57138Y-34494D01*
X57138Y-34414D01*
X57138Y-38380D01*
X57085Y-38380D01*
X57124Y-38284D01*
X57125Y-38115D01*
X57060Y-37959D01*
X56941Y-37839D01*
X56784Y-37775D01*
X56615Y-37774D01*
X56459Y-37839D01*
X56339Y-37958D01*
X56275Y-38115D01*
X56274Y-38284D01*
X56314Y-38380D01*
X55114Y-38380D01*
X55114Y-37837D01*
X55084Y-37764D01*
X55028Y-37707D01*
X54954Y-37677D01*
X54875Y-37677D01*
X54245Y-37677D01*
X54171Y-37707D01*
X54150Y-37729D01*
X54150Y-33620D01*
X54089Y-33473D01*
X53976Y-33361D01*
X53829Y-33300D01*
X53670Y-33299D01*
X53600Y-33329D01*
X53600Y-29920D01*
X53539Y-29773D01*
X53490Y-29725D01*
X53538Y-29676D01*
X53599Y-29529D01*
X53600Y-29370D01*
X53539Y-29223D01*
X53426Y-29111D01*
X53279Y-29050D01*
X53120Y-29049D01*
X52973Y-29110D01*
X52861Y-29223D01*
X52800Y-29370D01*
X52799Y-29529D01*
X52860Y-29676D01*
X52909Y-29724D01*
X52861Y-29773D01*
X52800Y-29920D01*
X52799Y-30079D01*
X52860Y-30226D01*
X52973Y-30338D01*
X53120Y-30399D01*
X53279Y-30400D01*
X53426Y-30339D01*
X53538Y-30226D01*
X53599Y-30079D01*
X53600Y-29920D01*
X53600Y-33329D01*
X53523Y-33360D01*
X53500Y-33384D01*
X53476Y-33361D01*
X53329Y-33300D01*
X53170Y-33299D01*
X53023Y-33360D01*
X52911Y-33473D01*
X52850Y-33620D01*
X52849Y-33779D01*
X52910Y-33926D01*
X53023Y-34038D01*
X53170Y-34099D01*
X53329Y-34100D01*
X53476Y-34039D01*
X53499Y-34015D01*
X53523Y-34038D01*
X53670Y-34099D01*
X53829Y-34100D01*
X53976Y-34039D01*
X54088Y-33926D01*
X54149Y-33779D01*
X54150Y-33620D01*
X54150Y-37729D01*
X54115Y-37763D01*
X54085Y-37837D01*
X54085Y-37916D01*
X54085Y-38380D01*
X52324Y-38380D01*
X52324Y-33296D01*
X52245Y-33103D01*
X52097Y-32955D01*
X52024Y-32924D01*
X52164Y-32924D01*
X52237Y-32894D01*
X52294Y-32838D01*
X52324Y-32764D01*
X52324Y-32685D01*
X52324Y-32035D01*
X52294Y-31962D01*
X52238Y-31905D01*
X52220Y-31898D01*
X52220Y-29340D01*
X52159Y-29193D01*
X52100Y-29134D01*
X52100Y-27570D01*
X52039Y-27423D01*
X52010Y-27394D01*
X52010Y-26170D01*
X51949Y-26023D01*
X51836Y-25911D01*
X51689Y-25850D01*
X51650Y-25850D01*
X51650Y-22450D01*
X51574Y-22267D01*
X51433Y-22126D01*
X51249Y-22050D01*
X51050Y-22049D01*
X50867Y-22125D01*
X50726Y-22266D01*
X50679Y-22378D01*
X50631Y-22262D01*
X50535Y-22234D01*
X50465Y-22305D01*
X50465Y-22164D01*
X50437Y-22068D01*
X50231Y-21995D01*
X50013Y-22006D01*
X49862Y-22068D01*
X49834Y-22164D01*
X50150Y-22479D01*
X50465Y-22164D01*
X50465Y-22305D01*
X50220Y-22550D01*
X50535Y-22865D01*
X50631Y-22837D01*
X50676Y-22712D01*
X50725Y-22832D01*
X50866Y-22973D01*
X51050Y-23049D01*
X51249Y-23050D01*
X51432Y-22974D01*
X51573Y-22833D01*
X51649Y-22649D01*
X51650Y-22450D01*
X51650Y-25850D01*
X51530Y-25849D01*
X51383Y-25910D01*
X51271Y-26023D01*
X51210Y-26170D01*
X51209Y-26329D01*
X51270Y-26476D01*
X51383Y-26588D01*
X51530Y-26649D01*
X51689Y-26650D01*
X51836Y-26589D01*
X51948Y-26476D01*
X52009Y-26329D01*
X52010Y-26170D01*
X52010Y-27394D01*
X51926Y-27311D01*
X51779Y-27250D01*
X51620Y-27249D01*
X51473Y-27310D01*
X51361Y-27423D01*
X51350Y-27449D01*
X51350Y-27020D01*
X51289Y-26873D01*
X51176Y-26761D01*
X51029Y-26700D01*
X50870Y-26699D01*
X50723Y-26760D01*
X50611Y-26873D01*
X50550Y-27020D01*
X50549Y-27179D01*
X50610Y-27326D01*
X50723Y-27438D01*
X50870Y-27499D01*
X51029Y-27500D01*
X51176Y-27439D01*
X51288Y-27326D01*
X51349Y-27179D01*
X51350Y-27020D01*
X51350Y-27449D01*
X51300Y-27570D01*
X51299Y-27729D01*
X51360Y-27876D01*
X51473Y-27988D01*
X51620Y-28049D01*
X51779Y-28050D01*
X51926Y-27989D01*
X52038Y-27876D01*
X52099Y-27729D01*
X52100Y-27570D01*
X52100Y-29134D01*
X52046Y-29081D01*
X51899Y-29020D01*
X51740Y-29019D01*
X51593Y-29080D01*
X51481Y-29193D01*
X51420Y-29340D01*
X51419Y-29499D01*
X51480Y-29646D01*
X51593Y-29758D01*
X51740Y-29819D01*
X51899Y-29820D01*
X52046Y-29759D01*
X52158Y-29646D01*
X52219Y-29499D01*
X52220Y-29340D01*
X52220Y-31898D01*
X52164Y-31875D01*
X52085Y-31875D01*
X51435Y-31875D01*
X51362Y-31905D01*
X51305Y-31961D01*
X51275Y-32035D01*
X51275Y-32114D01*
X51275Y-32764D01*
X51305Y-32837D01*
X51361Y-32894D01*
X51435Y-32924D01*
X51514Y-32924D01*
X51575Y-32924D01*
X51503Y-32954D01*
X51355Y-33102D01*
X51275Y-33295D01*
X51275Y-33503D01*
X51354Y-33696D01*
X51502Y-33844D01*
X51695Y-33924D01*
X51903Y-33924D01*
X52096Y-33845D01*
X52244Y-33697D01*
X52324Y-33504D01*
X52324Y-33296D01*
X52324Y-38380D01*
X52100Y-38380D01*
X52100Y-35420D01*
X52039Y-35273D01*
X51965Y-35199D01*
X52038Y-35126D01*
X52099Y-34979D01*
X52100Y-34820D01*
X52039Y-34673D01*
X51926Y-34561D01*
X51779Y-34500D01*
X51620Y-34499D01*
X51473Y-34560D01*
X51361Y-34673D01*
X51300Y-34820D01*
X51299Y-34979D01*
X51360Y-35126D01*
X51434Y-35200D01*
X51361Y-35273D01*
X51300Y-35420D01*
X51299Y-35579D01*
X51360Y-35726D01*
X51473Y-35838D01*
X51620Y-35899D01*
X51779Y-35900D01*
X51926Y-35839D01*
X52038Y-35726D01*
X52099Y-35579D01*
X52100Y-35420D01*
X52100Y-38380D01*
X50750Y-38380D01*
X50750Y-30970D01*
X50689Y-30823D01*
X50576Y-30711D01*
X50465Y-30664D01*
X50465Y-22935D01*
X50150Y-22620D01*
X50079Y-22691D01*
X50079Y-22550D01*
X49764Y-22234D01*
X49668Y-22262D01*
X49623Y-22387D01*
X49574Y-22267D01*
X49433Y-22126D01*
X49249Y-22050D01*
X49077Y-22049D01*
X49077Y-21525D01*
X48911Y-21359D01*
X48745Y-21525D01*
X48746Y-21599D01*
X48874Y-21640D01*
X49009Y-21628D01*
X49077Y-21599D01*
X49077Y-21525D01*
X49077Y-22049D01*
X49050Y-22049D01*
X48867Y-22125D01*
X48726Y-22266D01*
X48650Y-22450D01*
X48650Y-22451D01*
X48650Y-22450D01*
X48574Y-22267D01*
X48433Y-22126D01*
X48249Y-22050D01*
X48050Y-22049D01*
X47867Y-22125D01*
X47726Y-22266D01*
X47650Y-22450D01*
X47650Y-22510D01*
X47650Y-22210D01*
X47619Y-22136D01*
X47563Y-22080D01*
X47489Y-22050D01*
X47410Y-22049D01*
X46810Y-22049D01*
X46736Y-22080D01*
X46680Y-22136D01*
X46650Y-22210D01*
X46649Y-22289D01*
X46649Y-22889D01*
X46680Y-22963D01*
X46736Y-23019D01*
X46810Y-23049D01*
X46889Y-23050D01*
X47489Y-23050D01*
X47563Y-23019D01*
X47619Y-22963D01*
X47649Y-22889D01*
X47650Y-22810D01*
X47650Y-22649D01*
X47725Y-22832D01*
X47866Y-22973D01*
X48050Y-23049D01*
X48249Y-23050D01*
X48432Y-22974D01*
X48573Y-22833D01*
X48649Y-22649D01*
X48650Y-22450D01*
X48650Y-22451D01*
X48649Y-22649D01*
X48725Y-22832D01*
X48866Y-22973D01*
X49050Y-23049D01*
X49249Y-23050D01*
X49432Y-22974D01*
X49573Y-22833D01*
X49620Y-22721D01*
X49668Y-22837D01*
X49764Y-22865D01*
X50079Y-22550D01*
X50079Y-22691D01*
X49834Y-22935D01*
X49862Y-23031D01*
X50068Y-23104D01*
X50286Y-23093D01*
X50437Y-23031D01*
X50465Y-22935D01*
X50465Y-30664D01*
X50429Y-30650D01*
X50270Y-30649D01*
X50123Y-30710D01*
X50011Y-30823D01*
X49950Y-30970D01*
X49949Y-31129D01*
X50010Y-31276D01*
X50123Y-31388D01*
X50270Y-31449D01*
X50429Y-31450D01*
X50576Y-31389D01*
X50688Y-31276D01*
X50749Y-31129D01*
X50750Y-30970D01*
X50750Y-38380D01*
X50400Y-38380D01*
X50400Y-31920D01*
X50339Y-31773D01*
X50226Y-31661D01*
X50079Y-31600D01*
X49920Y-31599D01*
X49773Y-31660D01*
X49661Y-31773D01*
X49600Y-31920D01*
X49599Y-32079D01*
X49660Y-32226D01*
X49773Y-32338D01*
X49920Y-32399D01*
X50079Y-32400D01*
X50226Y-32339D01*
X50338Y-32226D01*
X50399Y-32079D01*
X50400Y-31920D01*
X50400Y-38380D01*
X50300Y-38380D01*
X50300Y-34320D01*
X50239Y-34173D01*
X50126Y-34061D01*
X49979Y-34000D01*
X49820Y-33999D01*
X49673Y-34060D01*
X49561Y-34173D01*
X49500Y-34320D01*
X49500Y-26030D01*
X49439Y-25883D01*
X49326Y-25771D01*
X49190Y-25714D01*
X49190Y-24740D01*
X49129Y-24593D01*
X49016Y-24481D01*
X48869Y-24420D01*
X48710Y-24419D01*
X48563Y-24480D01*
X48451Y-24593D01*
X48390Y-24740D01*
X48389Y-24899D01*
X48450Y-25046D01*
X48563Y-25158D01*
X48710Y-25219D01*
X48869Y-25220D01*
X49016Y-25159D01*
X49128Y-25046D01*
X49189Y-24899D01*
X49190Y-24740D01*
X49190Y-25714D01*
X49179Y-25710D01*
X49020Y-25709D01*
X48873Y-25770D01*
X48761Y-25883D01*
X48700Y-26030D01*
X48699Y-26189D01*
X48760Y-26336D01*
X48873Y-26448D01*
X49020Y-26509D01*
X49179Y-26510D01*
X49326Y-26449D01*
X49438Y-26336D01*
X49499Y-26189D01*
X49500Y-26030D01*
X49500Y-34320D01*
X49499Y-34479D01*
X49560Y-34626D01*
X49673Y-34738D01*
X49820Y-34799D01*
X49979Y-34800D01*
X50126Y-34739D01*
X50238Y-34626D01*
X50299Y-34479D01*
X50300Y-34320D01*
X50300Y-38380D01*
X49220Y-38380D01*
X49220Y-30280D01*
X49159Y-30133D01*
X49080Y-30054D01*
X49080Y-26970D01*
X49019Y-26823D01*
X48906Y-26711D01*
X48759Y-26650D01*
X48600Y-26649D01*
X48453Y-26710D01*
X48341Y-26823D01*
X48280Y-26970D01*
X48279Y-27129D01*
X48340Y-27276D01*
X48453Y-27388D01*
X48600Y-27449D01*
X48759Y-27450D01*
X48906Y-27389D01*
X49018Y-27276D01*
X49079Y-27129D01*
X49080Y-26970D01*
X49080Y-30054D01*
X49046Y-30021D01*
X48899Y-29960D01*
X48740Y-29959D01*
X48593Y-30020D01*
X48481Y-30133D01*
X48460Y-30183D01*
X48460Y-28530D01*
X48399Y-28383D01*
X48286Y-28271D01*
X48139Y-28210D01*
X47980Y-28209D01*
X47833Y-28270D01*
X47721Y-28383D01*
X47660Y-28530D01*
X47659Y-28689D01*
X47720Y-28836D01*
X47833Y-28948D01*
X47980Y-29009D01*
X48139Y-29010D01*
X48286Y-28949D01*
X48398Y-28836D01*
X48459Y-28689D01*
X48460Y-28530D01*
X48460Y-30183D01*
X48420Y-30280D01*
X48419Y-30439D01*
X48480Y-30586D01*
X48593Y-30698D01*
X48740Y-30759D01*
X48899Y-30760D01*
X49046Y-30699D01*
X49158Y-30586D01*
X49219Y-30439D01*
X49220Y-30280D01*
X49220Y-38380D01*
X48624Y-38380D01*
X48624Y-33296D01*
X48545Y-33103D01*
X48397Y-32955D01*
X48324Y-32924D01*
X48464Y-32924D01*
X48537Y-32894D01*
X48594Y-32838D01*
X48624Y-32764D01*
X48624Y-32685D01*
X48624Y-32035D01*
X48594Y-31962D01*
X48538Y-31905D01*
X48464Y-31875D01*
X48385Y-31875D01*
X47735Y-31875D01*
X47694Y-31891D01*
X47699Y-31879D01*
X47700Y-31720D01*
X47639Y-31573D01*
X47526Y-31461D01*
X47379Y-31400D01*
X47220Y-31399D01*
X47100Y-31449D01*
X47100Y-27720D01*
X47039Y-27573D01*
X46926Y-27461D01*
X46779Y-27400D01*
X46620Y-27399D01*
X46473Y-27460D01*
X46361Y-27573D01*
X46300Y-27720D01*
X46299Y-27879D01*
X46360Y-28026D01*
X46473Y-28138D01*
X46620Y-28199D01*
X46779Y-28200D01*
X46926Y-28139D01*
X47038Y-28026D01*
X47099Y-27879D01*
X47100Y-27720D01*
X47100Y-31449D01*
X47073Y-31460D01*
X46961Y-31573D01*
X46900Y-31720D01*
X46899Y-31879D01*
X46960Y-32026D01*
X47073Y-32138D01*
X47220Y-32199D01*
X47379Y-32200D01*
X47526Y-32139D01*
X47575Y-32090D01*
X47575Y-32114D01*
X47575Y-32764D01*
X47605Y-32837D01*
X47661Y-32894D01*
X47735Y-32924D01*
X47814Y-32924D01*
X47875Y-32924D01*
X47803Y-32954D01*
X47655Y-33102D01*
X47575Y-33295D01*
X47575Y-33503D01*
X47654Y-33696D01*
X47802Y-33844D01*
X47995Y-33924D01*
X48203Y-33924D01*
X48396Y-33845D01*
X48544Y-33697D01*
X48624Y-33504D01*
X48624Y-33296D01*
X48624Y-38380D01*
X47395Y-38380D01*
X47260Y-38244D01*
X47260Y-38080D01*
X47242Y-37990D01*
X47238Y-37972D01*
X47238Y-37972D01*
X47177Y-37882D01*
X47054Y-37758D01*
X47054Y-35581D01*
X47043Y-35363D01*
X46981Y-35212D01*
X46885Y-35184D01*
X46815Y-35255D01*
X46815Y-35114D01*
X46787Y-35018D01*
X46581Y-34945D01*
X46363Y-34956D01*
X46320Y-34974D01*
X46320Y-29160D01*
X46259Y-29013D01*
X46146Y-28901D01*
X46040Y-28856D01*
X46040Y-24990D01*
X45979Y-24843D01*
X45866Y-24731D01*
X45750Y-24682D01*
X45750Y-23770D01*
X45689Y-23623D01*
X45576Y-23511D01*
X45429Y-23450D01*
X45360Y-23450D01*
X45360Y-23020D01*
X45299Y-22873D01*
X45186Y-22761D01*
X45039Y-22700D01*
X44880Y-22699D01*
X44733Y-22760D01*
X44629Y-22864D01*
X44546Y-22781D01*
X44399Y-22720D01*
X44240Y-22719D01*
X44093Y-22780D01*
X43981Y-22893D01*
X43920Y-23040D01*
X43919Y-23199D01*
X43980Y-23346D01*
X44093Y-23458D01*
X44240Y-23519D01*
X44399Y-23520D01*
X44546Y-23459D01*
X44650Y-23355D01*
X44733Y-23438D01*
X44880Y-23499D01*
X45039Y-23500D01*
X45186Y-23439D01*
X45298Y-23326D01*
X45359Y-23179D01*
X45360Y-23020D01*
X45360Y-23450D01*
X45270Y-23449D01*
X45123Y-23510D01*
X45011Y-23623D01*
X44950Y-23770D01*
X44949Y-23929D01*
X45010Y-24076D01*
X45123Y-24188D01*
X45270Y-24249D01*
X45429Y-24250D01*
X45576Y-24189D01*
X45688Y-24076D01*
X45749Y-23929D01*
X45750Y-23770D01*
X45750Y-24682D01*
X45719Y-24670D01*
X45560Y-24669D01*
X45413Y-24730D01*
X45301Y-24843D01*
X45240Y-24990D01*
X45239Y-25149D01*
X45300Y-25296D01*
X45413Y-25408D01*
X45560Y-25469D01*
X45719Y-25470D01*
X45866Y-25409D01*
X45978Y-25296D01*
X46039Y-25149D01*
X46040Y-24990D01*
X46040Y-28856D01*
X45999Y-28840D01*
X45840Y-28839D01*
X45700Y-28898D01*
X45700Y-27920D01*
X45700Y-26510D01*
X45639Y-26363D01*
X45526Y-26251D01*
X45379Y-26190D01*
X45220Y-26189D01*
X45073Y-26250D01*
X44961Y-26363D01*
X44900Y-26510D01*
X44899Y-26669D01*
X44960Y-26816D01*
X45073Y-26928D01*
X45220Y-26989D01*
X45379Y-26990D01*
X45526Y-26929D01*
X45638Y-26816D01*
X45699Y-26669D01*
X45700Y-26510D01*
X45700Y-27920D01*
X45639Y-27773D01*
X45526Y-27661D01*
X45379Y-27600D01*
X45220Y-27599D01*
X45073Y-27660D01*
X44961Y-27773D01*
X44900Y-27920D01*
X44899Y-28079D01*
X44960Y-28226D01*
X45073Y-28338D01*
X45220Y-28399D01*
X45379Y-28400D01*
X45526Y-28339D01*
X45638Y-28226D01*
X45699Y-28079D01*
X45700Y-27920D01*
X45700Y-28898D01*
X45693Y-28900D01*
X45581Y-29013D01*
X45520Y-29160D01*
X45519Y-29319D01*
X45580Y-29466D01*
X45693Y-29578D01*
X45840Y-29639D01*
X45999Y-29640D01*
X46146Y-29579D01*
X46258Y-29466D01*
X46319Y-29319D01*
X46320Y-29160D01*
X46320Y-34974D01*
X46212Y-35018D01*
X46184Y-35114D01*
X46500Y-35429D01*
X46815Y-35114D01*
X46815Y-35255D01*
X46570Y-35500D01*
X46885Y-35815D01*
X46981Y-35787D01*
X47054Y-35581D01*
X47054Y-37758D01*
X47000Y-37704D01*
X47000Y-36760D01*
X47000Y-36160D01*
X46969Y-36086D01*
X46913Y-36030D01*
X46839Y-36000D01*
X46760Y-35999D01*
X46742Y-35999D01*
X46787Y-35981D01*
X46815Y-35885D01*
X46500Y-35570D01*
X46429Y-35641D01*
X46429Y-35500D01*
X46114Y-35184D01*
X46018Y-35212D01*
X46001Y-35260D01*
X45981Y-35212D01*
X45885Y-35184D01*
X45815Y-35255D01*
X45815Y-35114D01*
X45787Y-35018D01*
X45581Y-34945D01*
X45363Y-34956D01*
X45212Y-35018D01*
X45184Y-35114D01*
X45500Y-35429D01*
X45815Y-35114D01*
X45815Y-35255D01*
X45570Y-35500D01*
X45885Y-35815D01*
X45981Y-35787D01*
X45998Y-35739D01*
X46018Y-35787D01*
X46114Y-35815D01*
X46429Y-35500D01*
X46429Y-35641D01*
X46184Y-35885D01*
X46212Y-35981D01*
X46264Y-35999D01*
X46160Y-35999D01*
X46086Y-36030D01*
X46030Y-36086D01*
X46000Y-36160D01*
X45999Y-36239D01*
X45999Y-36400D01*
X45924Y-36217D01*
X45783Y-36076D01*
X45671Y-36029D01*
X45787Y-35981D01*
X45815Y-35885D01*
X45500Y-35570D01*
X45429Y-35641D01*
X45429Y-35500D01*
X45114Y-35184D01*
X45018Y-35212D01*
X45001Y-35260D01*
X44981Y-35212D01*
X44885Y-35184D01*
X44815Y-35255D01*
X44815Y-35114D01*
X44787Y-35018D01*
X44581Y-34945D01*
X44580Y-34945D01*
X44580Y-29470D01*
X44519Y-29323D01*
X44450Y-29254D01*
X44450Y-25020D01*
X44389Y-24873D01*
X44276Y-24761D01*
X44140Y-24704D01*
X44140Y-23760D01*
X44079Y-23613D01*
X43966Y-23501D01*
X43819Y-23440D01*
X43660Y-23439D01*
X43513Y-23500D01*
X43445Y-23569D01*
X43445Y-21162D01*
X43339Y-20908D01*
X43145Y-20713D01*
X42891Y-20607D01*
X42615Y-20607D01*
X42361Y-20712D01*
X42166Y-20907D01*
X42060Y-21161D01*
X42060Y-21437D01*
X42165Y-21691D01*
X42360Y-21886D01*
X42614Y-21992D01*
X42889Y-21992D01*
X43144Y-21887D01*
X43339Y-21692D01*
X43444Y-21438D01*
X43445Y-21162D01*
X43445Y-23569D01*
X43401Y-23613D01*
X43340Y-23760D01*
X43339Y-23919D01*
X43400Y-24066D01*
X43513Y-24178D01*
X43660Y-24239D01*
X43819Y-24240D01*
X43966Y-24179D01*
X44078Y-24066D01*
X44139Y-23919D01*
X44140Y-23760D01*
X44140Y-24704D01*
X44129Y-24700D01*
X43970Y-24699D01*
X43823Y-24760D01*
X43711Y-24873D01*
X43650Y-25020D01*
X43649Y-25179D01*
X43710Y-25326D01*
X43823Y-25438D01*
X43970Y-25499D01*
X44129Y-25500D01*
X44276Y-25439D01*
X44388Y-25326D01*
X44449Y-25179D01*
X44450Y-25020D01*
X44450Y-29254D01*
X44406Y-29211D01*
X44259Y-29150D01*
X44100Y-29149D01*
X43973Y-29202D01*
X43949Y-29143D01*
X43836Y-29031D01*
X43689Y-28970D01*
X43530Y-28969D01*
X43383Y-29030D01*
X43271Y-29143D01*
X43210Y-29290D01*
X43209Y-29449D01*
X43270Y-29596D01*
X43324Y-29650D01*
X43221Y-29753D01*
X43160Y-29900D01*
X43159Y-30059D01*
X43220Y-30206D01*
X43333Y-30318D01*
X43480Y-30379D01*
X43639Y-30380D01*
X43786Y-30319D01*
X43898Y-30206D01*
X43959Y-30059D01*
X43960Y-29900D01*
X43955Y-29889D01*
X44100Y-29949D01*
X44259Y-29950D01*
X44406Y-29889D01*
X44518Y-29776D01*
X44579Y-29629D01*
X44580Y-29470D01*
X44580Y-34945D01*
X44363Y-34956D01*
X44212Y-35018D01*
X44184Y-35114D01*
X44500Y-35429D01*
X44815Y-35114D01*
X44815Y-35255D01*
X44570Y-35500D01*
X44885Y-35815D01*
X44981Y-35787D01*
X44998Y-35739D01*
X45018Y-35787D01*
X45114Y-35815D01*
X45429Y-35500D01*
X45429Y-35641D01*
X45184Y-35885D01*
X45212Y-35981D01*
X45337Y-36026D01*
X45217Y-36075D01*
X45076Y-36216D01*
X45000Y-36400D01*
X45000Y-36401D01*
X45000Y-36400D01*
X44924Y-36217D01*
X44783Y-36076D01*
X44671Y-36029D01*
X44787Y-35981D01*
X44815Y-35885D01*
X44500Y-35570D01*
X44429Y-35641D01*
X44429Y-35500D01*
X44114Y-35184D01*
X44018Y-35212D01*
X44001Y-35260D01*
X43981Y-35212D01*
X43885Y-35184D01*
X43815Y-35255D01*
X43815Y-35114D01*
X43787Y-35018D01*
X43740Y-35001D01*
X43740Y-30750D01*
X43679Y-30603D01*
X43566Y-30491D01*
X43419Y-30430D01*
X43260Y-30429D01*
X43113Y-30490D01*
X43095Y-30509D01*
X43016Y-30431D01*
X43000Y-30424D01*
X43000Y-27460D01*
X42939Y-27313D01*
X42826Y-27201D01*
X42679Y-27140D01*
X42520Y-27139D01*
X42373Y-27200D01*
X42261Y-27313D01*
X42200Y-27460D01*
X42199Y-27619D01*
X42260Y-27766D01*
X42373Y-27878D01*
X42520Y-27939D01*
X42679Y-27940D01*
X42826Y-27879D01*
X42938Y-27766D01*
X42999Y-27619D01*
X43000Y-27460D01*
X43000Y-30424D01*
X42869Y-30370D01*
X42830Y-30370D01*
X42830Y-29130D01*
X42769Y-28983D01*
X42656Y-28871D01*
X42509Y-28810D01*
X42350Y-28809D01*
X42203Y-28870D01*
X42091Y-28983D01*
X42070Y-29033D01*
X42070Y-21800D01*
X42009Y-21653D01*
X41896Y-21541D01*
X41749Y-21480D01*
X41590Y-21479D01*
X41443Y-21540D01*
X41426Y-21557D01*
X41476Y-21438D01*
X41476Y-21162D01*
X41371Y-20908D01*
X41176Y-20713D01*
X40922Y-20607D01*
X40647Y-20607D01*
X40392Y-20712D01*
X40197Y-20907D01*
X40092Y-21161D01*
X40092Y-21437D01*
X40197Y-21691D01*
X40391Y-21886D01*
X40645Y-21992D01*
X40921Y-21992D01*
X41175Y-21887D01*
X41275Y-21787D01*
X41270Y-21800D01*
X41269Y-21959D01*
X41330Y-22106D01*
X41381Y-22157D01*
X41373Y-22160D01*
X41261Y-22273D01*
X41200Y-22420D01*
X41199Y-22579D01*
X41260Y-22726D01*
X41373Y-22838D01*
X41520Y-22899D01*
X41679Y-22900D01*
X41826Y-22839D01*
X41938Y-22726D01*
X41999Y-22579D01*
X42000Y-22420D01*
X41939Y-22273D01*
X41888Y-22222D01*
X41896Y-22219D01*
X42008Y-22106D01*
X42069Y-21959D01*
X42070Y-21800D01*
X42070Y-29033D01*
X42030Y-29130D01*
X42029Y-29289D01*
X42090Y-29436D01*
X42203Y-29548D01*
X42350Y-29609D01*
X42509Y-29610D01*
X42656Y-29549D01*
X42768Y-29436D01*
X42829Y-29289D01*
X42830Y-29130D01*
X42830Y-30370D01*
X42710Y-30369D01*
X42563Y-30430D01*
X42451Y-30543D01*
X42390Y-30690D01*
X42390Y-30130D01*
X42329Y-29983D01*
X42216Y-29871D01*
X42069Y-29810D01*
X41910Y-29809D01*
X41763Y-29870D01*
X41651Y-29983D01*
X41590Y-30130D01*
X41589Y-30289D01*
X41650Y-30436D01*
X41763Y-30548D01*
X41910Y-30609D01*
X42069Y-30610D01*
X42216Y-30549D01*
X42328Y-30436D01*
X42389Y-30289D01*
X42390Y-30130D01*
X42390Y-30690D01*
X42389Y-30849D01*
X42450Y-30996D01*
X42563Y-31108D01*
X42710Y-31169D01*
X42869Y-31170D01*
X43016Y-31109D01*
X43034Y-31090D01*
X43113Y-31168D01*
X43260Y-31229D01*
X43419Y-31230D01*
X43566Y-31169D01*
X43678Y-31056D01*
X43739Y-30909D01*
X43740Y-30750D01*
X43740Y-35001D01*
X43581Y-34945D01*
X43363Y-34956D01*
X43212Y-35018D01*
X43184Y-35114D01*
X43500Y-35429D01*
X43815Y-35114D01*
X43815Y-35255D01*
X43570Y-35500D01*
X43885Y-35815D01*
X43981Y-35787D01*
X43998Y-35739D01*
X44018Y-35787D01*
X44114Y-35815D01*
X44429Y-35500D01*
X44429Y-35641D01*
X44184Y-35885D01*
X44212Y-35981D01*
X44337Y-36026D01*
X44217Y-36075D01*
X44076Y-36216D01*
X44000Y-36400D01*
X44000Y-36401D01*
X44000Y-36400D01*
X43924Y-36217D01*
X43783Y-36076D01*
X43671Y-36029D01*
X43787Y-35981D01*
X43815Y-35885D01*
X43500Y-35570D01*
X43429Y-35641D01*
X43429Y-35500D01*
X43114Y-35184D01*
X43018Y-35212D01*
X43001Y-35260D01*
X42981Y-35212D01*
X42885Y-35184D01*
X42815Y-35255D01*
X42815Y-35114D01*
X42787Y-35018D01*
X42581Y-34945D01*
X42363Y-34956D01*
X42212Y-35018D01*
X42184Y-35114D01*
X42500Y-35429D01*
X42815Y-35114D01*
X42815Y-35255D01*
X42570Y-35500D01*
X42885Y-35815D01*
X42981Y-35787D01*
X42998Y-35739D01*
X43018Y-35787D01*
X43114Y-35815D01*
X43429Y-35500D01*
X43429Y-35641D01*
X43184Y-35885D01*
X43212Y-35981D01*
X43337Y-36026D01*
X43217Y-36075D01*
X43076Y-36216D01*
X43000Y-36400D01*
X43000Y-36401D01*
X43000Y-36400D01*
X42924Y-36217D01*
X42783Y-36076D01*
X42671Y-36029D01*
X42787Y-35981D01*
X42815Y-35885D01*
X42500Y-35570D01*
X42429Y-35641D01*
X42429Y-35500D01*
X42114Y-35184D01*
X42018Y-35212D01*
X42001Y-35260D01*
X41981Y-35212D01*
X41885Y-35184D01*
X41815Y-35255D01*
X41815Y-35114D01*
X41787Y-35018D01*
X41581Y-34945D01*
X41500Y-34949D01*
X41500Y-28000D01*
X41500Y-27000D01*
X41424Y-26817D01*
X41283Y-26676D01*
X41099Y-26600D01*
X40900Y-26599D01*
X40760Y-26658D01*
X40760Y-25080D01*
X40699Y-24933D01*
X40586Y-24821D01*
X40439Y-24760D01*
X40280Y-24759D01*
X40133Y-24820D01*
X40021Y-24933D01*
X39960Y-25080D01*
X39959Y-25239D01*
X40020Y-25386D01*
X40133Y-25498D01*
X40280Y-25559D01*
X40439Y-25560D01*
X40586Y-25499D01*
X40698Y-25386D01*
X40759Y-25239D01*
X40760Y-25080D01*
X40760Y-26658D01*
X40717Y-26675D01*
X40576Y-26816D01*
X40500Y-27000D01*
X40499Y-27199D01*
X40575Y-27382D01*
X40716Y-27523D01*
X40900Y-27599D01*
X41099Y-27600D01*
X41282Y-27524D01*
X41423Y-27383D01*
X41499Y-27199D01*
X41500Y-27000D01*
X41500Y-28000D01*
X41424Y-27817D01*
X41283Y-27676D01*
X41099Y-27600D01*
X40900Y-27599D01*
X40717Y-27675D01*
X40576Y-27816D01*
X40500Y-28000D01*
X40500Y-28060D01*
X40500Y-27760D01*
X40469Y-27686D01*
X40413Y-27630D01*
X40339Y-27600D01*
X40260Y-27599D01*
X40099Y-27599D01*
X40282Y-27524D01*
X40423Y-27383D01*
X40499Y-27199D01*
X40500Y-27000D01*
X40500Y-26000D01*
X40424Y-25817D01*
X40283Y-25676D01*
X40099Y-25600D01*
X39900Y-25599D01*
X39738Y-25667D01*
X39838Y-25566D01*
X39899Y-25419D01*
X39900Y-25260D01*
X39839Y-25113D01*
X39726Y-25001D01*
X39700Y-24989D01*
X39700Y-24320D01*
X39639Y-24173D01*
X39526Y-24061D01*
X39507Y-24053D01*
X39507Y-21162D01*
X39402Y-20908D01*
X39208Y-20713D01*
X38954Y-20607D01*
X38678Y-20607D01*
X38424Y-20712D01*
X38229Y-20907D01*
X38123Y-21161D01*
X38123Y-21437D01*
X38228Y-21691D01*
X38423Y-21886D01*
X38677Y-21992D01*
X38952Y-21992D01*
X39207Y-21887D01*
X39402Y-21692D01*
X39507Y-21438D01*
X39507Y-21162D01*
X39507Y-24053D01*
X39379Y-24000D01*
X39220Y-23999D01*
X39073Y-24060D01*
X39050Y-24084D01*
X39026Y-24061D01*
X38879Y-24000D01*
X38720Y-23999D01*
X38573Y-24060D01*
X38461Y-24173D01*
X38400Y-24320D01*
X38399Y-24479D01*
X38460Y-24626D01*
X38573Y-24738D01*
X38720Y-24799D01*
X38879Y-24800D01*
X39026Y-24739D01*
X39049Y-24715D01*
X39073Y-24738D01*
X39220Y-24799D01*
X39379Y-24800D01*
X39526Y-24739D01*
X39638Y-24626D01*
X39699Y-24479D01*
X39700Y-24320D01*
X39700Y-24989D01*
X39579Y-24940D01*
X39420Y-24939D01*
X39273Y-25000D01*
X39161Y-25113D01*
X39100Y-25260D01*
X39099Y-25419D01*
X39160Y-25566D01*
X39273Y-25678D01*
X39420Y-25739D01*
X39579Y-25740D01*
X39704Y-25688D01*
X39576Y-25816D01*
X39500Y-26000D01*
X39499Y-26199D01*
X39575Y-26382D01*
X39716Y-26523D01*
X39900Y-26599D01*
X40099Y-26600D01*
X40282Y-26524D01*
X40423Y-26383D01*
X40499Y-26199D01*
X40500Y-26000D01*
X40500Y-27000D01*
X40424Y-26817D01*
X40283Y-26676D01*
X40099Y-26600D01*
X39900Y-26599D01*
X39717Y-26675D01*
X39576Y-26816D01*
X39500Y-27000D01*
X39499Y-27199D01*
X39575Y-27382D01*
X39716Y-27523D01*
X39900Y-27599D01*
X39960Y-27599D01*
X39660Y-27599D01*
X39586Y-27630D01*
X39530Y-27686D01*
X39500Y-27760D01*
X39499Y-27839D01*
X39499Y-28439D01*
X39530Y-28513D01*
X39586Y-28569D01*
X39660Y-28599D01*
X39739Y-28600D01*
X40339Y-28600D01*
X40413Y-28569D01*
X40469Y-28513D01*
X40499Y-28439D01*
X40500Y-28360D01*
X40500Y-28199D01*
X40575Y-28382D01*
X40716Y-28523D01*
X40900Y-28599D01*
X41099Y-28600D01*
X41282Y-28524D01*
X41423Y-28383D01*
X41499Y-28199D01*
X41500Y-28000D01*
X41500Y-34949D01*
X41363Y-34956D01*
X41212Y-35018D01*
X41184Y-35114D01*
X41500Y-35429D01*
X41815Y-35114D01*
X41815Y-35255D01*
X41570Y-35500D01*
X41885Y-35815D01*
X41981Y-35787D01*
X41998Y-35739D01*
X42018Y-35787D01*
X42114Y-35815D01*
X42429Y-35500D01*
X42429Y-35641D01*
X42184Y-35885D01*
X42212Y-35981D01*
X42337Y-36026D01*
X42217Y-36075D01*
X42076Y-36216D01*
X42000Y-36400D01*
X42000Y-36401D01*
X42000Y-36400D01*
X41924Y-36217D01*
X41783Y-36076D01*
X41671Y-36029D01*
X41787Y-35981D01*
X41815Y-35885D01*
X41500Y-35570D01*
X41429Y-35641D01*
X41429Y-35500D01*
X41114Y-35184D01*
X41018Y-35212D01*
X41001Y-35260D01*
X40981Y-35212D01*
X40885Y-35184D01*
X40840Y-35230D01*
X40840Y-31020D01*
X40825Y-30984D01*
X40825Y-29945D01*
X40764Y-29798D01*
X40651Y-29686D01*
X40504Y-29625D01*
X40345Y-29624D01*
X40198Y-29685D01*
X40086Y-29798D01*
X40025Y-29945D01*
X40024Y-30104D01*
X40085Y-30251D01*
X40198Y-30363D01*
X40345Y-30424D01*
X40504Y-30425D01*
X40651Y-30364D01*
X40763Y-30251D01*
X40824Y-30104D01*
X40825Y-29945D01*
X40825Y-30984D01*
X40779Y-30873D01*
X40666Y-30761D01*
X40519Y-30700D01*
X40360Y-30699D01*
X40213Y-30760D01*
X40101Y-30873D01*
X40040Y-31020D01*
X40039Y-31179D01*
X40100Y-31326D01*
X40213Y-31438D01*
X40326Y-31485D01*
X40193Y-31540D01*
X40081Y-31653D01*
X40020Y-31800D01*
X40019Y-31959D01*
X40080Y-32106D01*
X40193Y-32218D01*
X40340Y-32279D01*
X40499Y-32280D01*
X40646Y-32219D01*
X40758Y-32106D01*
X40819Y-31959D01*
X40820Y-31800D01*
X40759Y-31653D01*
X40646Y-31541D01*
X40533Y-31494D01*
X40666Y-31439D01*
X40778Y-31326D01*
X40839Y-31179D01*
X40840Y-31020D01*
X40840Y-35230D01*
X40815Y-35255D01*
X40815Y-35114D01*
X40787Y-35018D01*
X40581Y-34945D01*
X40363Y-34956D01*
X40212Y-35018D01*
X40184Y-35114D01*
X40500Y-35429D01*
X40815Y-35114D01*
X40815Y-35255D01*
X40570Y-35500D01*
X40885Y-35815D01*
X40981Y-35787D01*
X40998Y-35739D01*
X41018Y-35787D01*
X41114Y-35815D01*
X41429Y-35500D01*
X41429Y-35641D01*
X41184Y-35885D01*
X41212Y-35981D01*
X41337Y-36026D01*
X41217Y-36075D01*
X41076Y-36216D01*
X41000Y-36400D01*
X41000Y-36401D01*
X41000Y-36400D01*
X40924Y-36217D01*
X40783Y-36076D01*
X40671Y-36029D01*
X40787Y-35981D01*
X40815Y-35885D01*
X40500Y-35570D01*
X40429Y-35641D01*
X40429Y-35500D01*
X40114Y-35184D01*
X40018Y-35212D01*
X40001Y-35260D01*
X39981Y-35212D01*
X39900Y-35188D01*
X39900Y-32300D01*
X39840Y-32155D01*
X39840Y-31388D01*
X39779Y-31241D01*
X39666Y-31129D01*
X39519Y-31068D01*
X39360Y-31067D01*
X39300Y-31093D01*
X39300Y-30700D01*
X39224Y-30517D01*
X39083Y-30376D01*
X38899Y-30300D01*
X38839Y-30300D01*
X39139Y-30300D01*
X39213Y-30269D01*
X39269Y-30213D01*
X39299Y-30139D01*
X39300Y-30060D01*
X39300Y-29460D01*
X39269Y-29386D01*
X39213Y-29330D01*
X39140Y-29300D01*
X39140Y-28300D01*
X39079Y-28153D01*
X38966Y-28041D01*
X38819Y-27980D01*
X38660Y-27979D01*
X38513Y-28040D01*
X38401Y-28153D01*
X38350Y-28276D01*
X38350Y-26870D01*
X38289Y-26723D01*
X38176Y-26611D01*
X38029Y-26550D01*
X37870Y-26549D01*
X37723Y-26610D01*
X37611Y-26723D01*
X37595Y-26760D01*
X37595Y-26651D01*
X37595Y-25651D01*
X37595Y-24651D01*
X37593Y-24645D01*
X37593Y-21427D01*
X37585Y-21132D01*
X37487Y-20896D01*
X37372Y-20845D01*
X37301Y-20916D01*
X37301Y-20775D01*
X37250Y-20659D01*
X36974Y-20554D01*
X36679Y-20562D01*
X36443Y-20659D01*
X36393Y-20775D01*
X36847Y-21229D01*
X37301Y-20775D01*
X37301Y-20916D01*
X36917Y-21300D01*
X37372Y-21754D01*
X37487Y-21703D01*
X37593Y-21427D01*
X37593Y-24645D01*
X37520Y-24469D01*
X37381Y-24330D01*
X37301Y-24297D01*
X37301Y-21824D01*
X36847Y-21370D01*
X36776Y-21441D01*
X36776Y-21300D01*
X36322Y-20845D01*
X36207Y-20896D01*
X36101Y-21172D01*
X36109Y-21467D01*
X36207Y-21703D01*
X36322Y-21754D01*
X36776Y-21300D01*
X36776Y-21441D01*
X36393Y-21824D01*
X36443Y-21940D01*
X36719Y-22045D01*
X37014Y-22037D01*
X37250Y-21940D01*
X37301Y-21824D01*
X37301Y-24297D01*
X37198Y-24254D01*
X37001Y-24254D01*
X36819Y-24329D01*
X36680Y-24468D01*
X36604Y-24651D01*
X36604Y-24848D01*
X36679Y-25030D01*
X36818Y-25169D01*
X37001Y-25245D01*
X37198Y-25245D01*
X37380Y-25170D01*
X37519Y-25031D01*
X37595Y-24848D01*
X37595Y-24651D01*
X37595Y-25651D01*
X37520Y-25469D01*
X37381Y-25330D01*
X37198Y-25254D01*
X37001Y-25254D01*
X36819Y-25329D01*
X36680Y-25468D01*
X36604Y-25651D01*
X36604Y-25848D01*
X36679Y-26030D01*
X36818Y-26169D01*
X37001Y-26245D01*
X37198Y-26245D01*
X37380Y-26170D01*
X37519Y-26031D01*
X37595Y-25848D01*
X37595Y-25651D01*
X37595Y-26651D01*
X37520Y-26469D01*
X37381Y-26330D01*
X37198Y-26254D01*
X37001Y-26254D01*
X36819Y-26329D01*
X36680Y-26468D01*
X36604Y-26651D01*
X36604Y-26848D01*
X36679Y-27030D01*
X36818Y-27169D01*
X37001Y-27245D01*
X37198Y-27245D01*
X37380Y-27170D01*
X37519Y-27031D01*
X37549Y-26958D01*
X37549Y-27029D01*
X37610Y-27176D01*
X37723Y-27288D01*
X37870Y-27349D01*
X38029Y-27350D01*
X38176Y-27289D01*
X38288Y-27176D01*
X38349Y-27029D01*
X38350Y-26870D01*
X38350Y-28276D01*
X38340Y-28300D01*
X38339Y-28459D01*
X38400Y-28606D01*
X38513Y-28718D01*
X38660Y-28779D01*
X38819Y-28780D01*
X38966Y-28719D01*
X39078Y-28606D01*
X39139Y-28459D01*
X39140Y-28300D01*
X39140Y-29300D01*
X39139Y-29300D01*
X39060Y-29299D01*
X38460Y-29299D01*
X38386Y-29330D01*
X38330Y-29386D01*
X38300Y-29460D01*
X38299Y-29539D01*
X38299Y-30139D01*
X38330Y-30213D01*
X38386Y-30269D01*
X38460Y-30299D01*
X38539Y-30300D01*
X38700Y-30300D01*
X38517Y-30375D01*
X38376Y-30516D01*
X38300Y-30700D01*
X38299Y-30899D01*
X38375Y-31082D01*
X38516Y-31223D01*
X38700Y-31299D01*
X38899Y-31300D01*
X39082Y-31224D01*
X39223Y-31083D01*
X39299Y-30899D01*
X39300Y-30700D01*
X39300Y-31093D01*
X39213Y-31128D01*
X39101Y-31241D01*
X39040Y-31388D01*
X39039Y-31547D01*
X39100Y-31694D01*
X39213Y-31806D01*
X39360Y-31867D01*
X39519Y-31868D01*
X39666Y-31807D01*
X39778Y-31694D01*
X39839Y-31547D01*
X39840Y-31388D01*
X39840Y-32155D01*
X39824Y-32117D01*
X39683Y-31976D01*
X39499Y-31900D01*
X39300Y-31899D01*
X39117Y-31975D01*
X38976Y-32116D01*
X38900Y-32300D01*
X38900Y-32360D01*
X38900Y-32060D01*
X38869Y-31986D01*
X38813Y-31930D01*
X38739Y-31900D01*
X38660Y-31899D01*
X38060Y-31899D01*
X37986Y-31930D01*
X37930Y-31986D01*
X37900Y-32060D01*
X37899Y-32139D01*
X37899Y-32739D01*
X37930Y-32813D01*
X37986Y-32869D01*
X38060Y-32899D01*
X38139Y-32900D01*
X38739Y-32900D01*
X38813Y-32869D01*
X38869Y-32813D01*
X38899Y-32739D01*
X38900Y-32660D01*
X38900Y-32499D01*
X38975Y-32682D01*
X39116Y-32823D01*
X39300Y-32899D01*
X39499Y-32900D01*
X39682Y-32824D01*
X39823Y-32683D01*
X39899Y-32499D01*
X39900Y-32300D01*
X39900Y-35188D01*
X39885Y-35184D01*
X39815Y-35255D01*
X39815Y-35114D01*
X39787Y-35018D01*
X39581Y-34945D01*
X39400Y-34954D01*
X39400Y-33320D01*
X39339Y-33173D01*
X39226Y-33061D01*
X39079Y-33000D01*
X38920Y-32999D01*
X38773Y-33060D01*
X38661Y-33173D01*
X38600Y-33320D01*
X38599Y-33479D01*
X38660Y-33626D01*
X38773Y-33738D01*
X38920Y-33799D01*
X39079Y-33800D01*
X39226Y-33739D01*
X39338Y-33626D01*
X39399Y-33479D01*
X39400Y-33320D01*
X39400Y-34954D01*
X39363Y-34956D01*
X39212Y-35018D01*
X39184Y-35114D01*
X39500Y-35429D01*
X39815Y-35114D01*
X39815Y-35255D01*
X39570Y-35500D01*
X39885Y-35815D01*
X39981Y-35787D01*
X39998Y-35739D01*
X40018Y-35787D01*
X40114Y-35815D01*
X40429Y-35500D01*
X40429Y-35641D01*
X40184Y-35885D01*
X40212Y-35981D01*
X40337Y-36026D01*
X40217Y-36075D01*
X40076Y-36216D01*
X40000Y-36400D01*
X40000Y-36401D01*
X40000Y-36400D01*
X39924Y-36217D01*
X39783Y-36076D01*
X39671Y-36029D01*
X39787Y-35981D01*
X39815Y-35885D01*
X39500Y-35570D01*
X39429Y-35641D01*
X39429Y-35500D01*
X39114Y-35184D01*
X39018Y-35212D01*
X38945Y-35418D01*
X38956Y-35636D01*
X39018Y-35787D01*
X39114Y-35815D01*
X39429Y-35500D01*
X39429Y-35641D01*
X39184Y-35885D01*
X39212Y-35981D01*
X39337Y-36026D01*
X39217Y-36075D01*
X39076Y-36216D01*
X39000Y-36400D01*
X38999Y-36599D01*
X39075Y-36782D01*
X39216Y-36923D01*
X39400Y-36999D01*
X39599Y-37000D01*
X39782Y-36924D01*
X39923Y-36783D01*
X39999Y-36599D01*
X40000Y-36400D01*
X40000Y-36401D01*
X39999Y-36599D01*
X40075Y-36782D01*
X40216Y-36923D01*
X40400Y-36999D01*
X40599Y-37000D01*
X40782Y-36924D01*
X40923Y-36783D01*
X40999Y-36599D01*
X41000Y-36400D01*
X41000Y-36401D01*
X40999Y-36599D01*
X41075Y-36782D01*
X41216Y-36923D01*
X41400Y-36999D01*
X41599Y-37000D01*
X41782Y-36924D01*
X41923Y-36783D01*
X41999Y-36599D01*
X42000Y-36400D01*
X42000Y-36401D01*
X41999Y-36599D01*
X42075Y-36782D01*
X42216Y-36923D01*
X42400Y-36999D01*
X42599Y-37000D01*
X42782Y-36924D01*
X42923Y-36783D01*
X42999Y-36599D01*
X43000Y-36400D01*
X43000Y-36401D01*
X42999Y-36599D01*
X43075Y-36782D01*
X43216Y-36923D01*
X43400Y-36999D01*
X43599Y-37000D01*
X43782Y-36924D01*
X43923Y-36783D01*
X43999Y-36599D01*
X44000Y-36400D01*
X44000Y-36401D01*
X43999Y-36599D01*
X44075Y-36782D01*
X44216Y-36923D01*
X44400Y-36999D01*
X44599Y-37000D01*
X44782Y-36924D01*
X44923Y-36783D01*
X44999Y-36599D01*
X45000Y-36400D01*
X45000Y-36401D01*
X44999Y-36599D01*
X45075Y-36782D01*
X45216Y-36923D01*
X45400Y-36999D01*
X45599Y-37000D01*
X45782Y-36924D01*
X45923Y-36783D01*
X45999Y-36599D01*
X45999Y-36539D01*
X45999Y-36839D01*
X46030Y-36913D01*
X46086Y-36969D01*
X46160Y-36999D01*
X46239Y-37000D01*
X46839Y-37000D01*
X46913Y-36969D01*
X46969Y-36913D01*
X46999Y-36839D01*
X47000Y-36760D01*
X47000Y-37704D01*
X46697Y-37402D01*
X46607Y-37341D01*
X46500Y-37320D01*
X38900Y-37320D01*
X38900Y-36120D01*
X38839Y-35973D01*
X38726Y-35861D01*
X38579Y-35800D01*
X38420Y-35799D01*
X38273Y-35860D01*
X38161Y-35973D01*
X38100Y-36120D01*
X38099Y-36279D01*
X38160Y-36426D01*
X38273Y-36538D01*
X38420Y-36599D01*
X38579Y-36600D01*
X38726Y-36539D01*
X38838Y-36426D01*
X38899Y-36279D01*
X38900Y-36120D01*
X38900Y-37320D01*
X38585Y-37320D01*
X38526Y-37261D01*
X38379Y-37200D01*
X38220Y-37199D01*
X38073Y-37260D01*
X37961Y-37373D01*
X37930Y-37447D01*
X37930Y-37095D01*
X37849Y-36900D01*
X37700Y-36750D01*
X37595Y-36707D01*
X37595Y-33951D01*
X37595Y-32951D01*
X37595Y-31951D01*
X37595Y-30951D01*
X37595Y-27651D01*
X37520Y-27469D01*
X37381Y-27330D01*
X37198Y-27254D01*
X37001Y-27254D01*
X36819Y-27329D01*
X36680Y-27468D01*
X36604Y-27651D01*
X36604Y-27848D01*
X36679Y-28030D01*
X36818Y-28169D01*
X37001Y-28245D01*
X37198Y-28245D01*
X37380Y-28170D01*
X37519Y-28031D01*
X37595Y-27848D01*
X37595Y-27651D01*
X37595Y-30951D01*
X37520Y-30769D01*
X37381Y-30630D01*
X37198Y-30554D01*
X37001Y-30554D01*
X36819Y-30629D01*
X36680Y-30768D01*
X36604Y-30951D01*
X36604Y-31148D01*
X36679Y-31330D01*
X36818Y-31469D01*
X37001Y-31545D01*
X37198Y-31545D01*
X37380Y-31470D01*
X37519Y-31331D01*
X37595Y-31148D01*
X37595Y-30951D01*
X37595Y-31951D01*
X37520Y-31769D01*
X37381Y-31630D01*
X37198Y-31554D01*
X37001Y-31554D01*
X36819Y-31629D01*
X36680Y-31768D01*
X36604Y-31951D01*
X36604Y-32148D01*
X36679Y-32330D01*
X36818Y-32469D01*
X37001Y-32545D01*
X37198Y-32545D01*
X37380Y-32470D01*
X37519Y-32331D01*
X37595Y-32148D01*
X37595Y-31951D01*
X37595Y-32951D01*
X37520Y-32769D01*
X37381Y-32630D01*
X37198Y-32554D01*
X37001Y-32554D01*
X36819Y-32629D01*
X36680Y-32768D01*
X36604Y-32951D01*
X36604Y-33148D01*
X36679Y-33330D01*
X36818Y-33469D01*
X37001Y-33545D01*
X37198Y-33545D01*
X37380Y-33470D01*
X37519Y-33331D01*
X37595Y-33148D01*
X37595Y-32951D01*
X37595Y-33951D01*
X37520Y-33769D01*
X37381Y-33630D01*
X37198Y-33554D01*
X37001Y-33554D01*
X36819Y-33629D01*
X36680Y-33768D01*
X36604Y-33951D01*
X36604Y-34148D01*
X36679Y-34330D01*
X36818Y-34469D01*
X37001Y-34545D01*
X37198Y-34545D01*
X37380Y-34470D01*
X37519Y-34331D01*
X37595Y-34148D01*
X37595Y-33951D01*
X37595Y-36707D01*
X37505Y-36670D01*
X37295Y-36669D01*
X37100Y-36750D01*
X36950Y-36899D01*
X36929Y-36950D01*
X36906Y-36894D01*
X36807Y-36863D01*
X36736Y-36933D01*
X36736Y-36792D01*
X36705Y-36693D01*
X36595Y-36653D01*
X36595Y-33451D01*
X36595Y-32451D01*
X36595Y-31451D01*
X36595Y-27151D01*
X36595Y-26151D01*
X36595Y-25151D01*
X36520Y-24969D01*
X36381Y-24830D01*
X36198Y-24754D01*
X36001Y-24754D01*
X35819Y-24829D01*
X35680Y-24968D01*
X35650Y-25040D01*
X35593Y-24904D01*
X35397Y-24706D01*
X35139Y-24600D01*
X34861Y-24599D01*
X34604Y-24706D01*
X34518Y-24791D01*
X34518Y-23980D01*
X34379Y-23642D01*
X34120Y-23383D01*
X33783Y-23243D01*
X33418Y-23243D01*
X33080Y-23382D01*
X32821Y-23641D01*
X32681Y-23978D01*
X32681Y-24343D01*
X32820Y-24681D01*
X33079Y-24940D01*
X33416Y-25080D01*
X33781Y-25080D01*
X34119Y-24941D01*
X34378Y-24682D01*
X34518Y-24345D01*
X34518Y-23980D01*
X34518Y-24791D01*
X34406Y-24902D01*
X34300Y-25160D01*
X34299Y-25438D01*
X34406Y-25696D01*
X34602Y-25893D01*
X34860Y-25999D01*
X35138Y-26000D01*
X35396Y-25893D01*
X35593Y-25697D01*
X35671Y-25509D01*
X35679Y-25530D01*
X35818Y-25669D01*
X36001Y-25745D01*
X36198Y-25745D01*
X36380Y-25670D01*
X36519Y-25531D01*
X36595Y-25348D01*
X36595Y-25151D01*
X36595Y-26151D01*
X36520Y-25969D01*
X36381Y-25830D01*
X36198Y-25754D01*
X36001Y-25754D01*
X35819Y-25829D01*
X35680Y-25968D01*
X35604Y-26151D01*
X35604Y-26348D01*
X35679Y-26530D01*
X35818Y-26669D01*
X36001Y-26745D01*
X36198Y-26745D01*
X36380Y-26670D01*
X36519Y-26531D01*
X36595Y-26348D01*
X36595Y-26151D01*
X36595Y-27151D01*
X36520Y-26969D01*
X36381Y-26830D01*
X36198Y-26754D01*
X36001Y-26754D01*
X35819Y-26829D01*
X35693Y-26955D01*
X35699Y-26939D01*
X35700Y-26661D01*
X35593Y-26404D01*
X35397Y-26206D01*
X35139Y-26100D01*
X34861Y-26099D01*
X34604Y-26206D01*
X34406Y-26402D01*
X34300Y-26660D01*
X34299Y-26938D01*
X34406Y-27196D01*
X34602Y-27393D01*
X34860Y-27499D01*
X35138Y-27500D01*
X35396Y-27393D01*
X35593Y-27197D01*
X35604Y-27169D01*
X35604Y-27348D01*
X35679Y-27530D01*
X35818Y-27669D01*
X36001Y-27745D01*
X36198Y-27745D01*
X36380Y-27670D01*
X36519Y-27531D01*
X36595Y-27348D01*
X36595Y-27151D01*
X36595Y-31451D01*
X36595Y-31451D01*
X36595Y-28505D01*
X36595Y-27914D01*
X36565Y-27841D01*
X36508Y-27785D01*
X36435Y-27754D01*
X36355Y-27754D01*
X35764Y-27754D01*
X35700Y-27781D01*
X35700Y-27760D01*
X35669Y-27686D01*
X35613Y-27630D01*
X35539Y-27600D01*
X35460Y-27599D01*
X34460Y-27599D01*
X34386Y-27630D01*
X34330Y-27686D01*
X34300Y-27760D01*
X34299Y-27839D01*
X34299Y-28236D01*
X34120Y-28056D01*
X33783Y-27916D01*
X33418Y-27916D01*
X33080Y-28055D01*
X32821Y-28314D01*
X32681Y-28651D01*
X32681Y-29016D01*
X32820Y-29354D01*
X33079Y-29613D01*
X33163Y-29648D01*
X33080Y-29682D01*
X32821Y-29941D01*
X32681Y-30278D01*
X32681Y-30643D01*
X32820Y-30981D01*
X33079Y-31240D01*
X33416Y-31380D01*
X33781Y-31380D01*
X34119Y-31241D01*
X34378Y-30982D01*
X34518Y-30645D01*
X34518Y-30280D01*
X34379Y-29942D01*
X34120Y-29683D01*
X34036Y-29648D01*
X34119Y-29614D01*
X34378Y-29355D01*
X34518Y-29018D01*
X34518Y-29000D01*
X34539Y-29000D01*
X35539Y-29000D01*
X35613Y-28969D01*
X35669Y-28913D01*
X35699Y-28839D01*
X35700Y-28760D01*
X35700Y-28718D01*
X35764Y-28745D01*
X35844Y-28745D01*
X36435Y-28745D01*
X36508Y-28715D01*
X36564Y-28658D01*
X36595Y-28585D01*
X36595Y-28505D01*
X36595Y-31451D01*
X36520Y-31269D01*
X36381Y-31130D01*
X36198Y-31054D01*
X36001Y-31054D01*
X35819Y-31129D01*
X35680Y-31268D01*
X35604Y-31451D01*
X35604Y-31648D01*
X35679Y-31830D01*
X35818Y-31969D01*
X36001Y-32045D01*
X36198Y-32045D01*
X36380Y-31970D01*
X36519Y-31831D01*
X36595Y-31648D01*
X36595Y-31451D01*
X36595Y-32451D01*
X36520Y-32269D01*
X36381Y-32130D01*
X36198Y-32054D01*
X36001Y-32054D01*
X35819Y-32129D01*
X35680Y-32268D01*
X35604Y-32451D01*
X35604Y-32648D01*
X35679Y-32830D01*
X35818Y-32969D01*
X36001Y-33045D01*
X36198Y-33045D01*
X36380Y-32970D01*
X36519Y-32831D01*
X36595Y-32648D01*
X36595Y-32451D01*
X36595Y-33451D01*
X36520Y-33269D01*
X36381Y-33130D01*
X36198Y-33054D01*
X36001Y-33054D01*
X35819Y-33129D01*
X35680Y-33268D01*
X35604Y-33451D01*
X35604Y-33648D01*
X35679Y-33830D01*
X35818Y-33969D01*
X36001Y-34045D01*
X36198Y-34045D01*
X36380Y-33970D01*
X36519Y-33831D01*
X36595Y-33648D01*
X36595Y-33451D01*
X36595Y-36653D01*
X36595Y-36653D01*
X36595Y-34805D01*
X36595Y-34214D01*
X36565Y-34141D01*
X36508Y-34085D01*
X36435Y-34054D01*
X36355Y-34054D01*
X35764Y-34054D01*
X35691Y-34084D01*
X35635Y-34141D01*
X35604Y-34214D01*
X35604Y-34294D01*
X35604Y-34885D01*
X35634Y-34958D01*
X35691Y-35014D01*
X35764Y-35045D01*
X35844Y-35045D01*
X36435Y-35045D01*
X36508Y-35015D01*
X36564Y-34958D01*
X36595Y-34885D01*
X36595Y-34805D01*
X36595Y-36653D01*
X36488Y-36615D01*
X36258Y-36625D01*
X36094Y-36693D01*
X36063Y-36792D01*
X36400Y-37129D01*
X36736Y-36792D01*
X36736Y-36933D01*
X36470Y-37200D01*
X36807Y-37536D01*
X36906Y-37505D01*
X36927Y-37445D01*
X36950Y-37499D01*
X37099Y-37649D01*
X37294Y-37729D01*
X37504Y-37730D01*
X37699Y-37649D01*
X37849Y-37500D01*
X37929Y-37305D01*
X37930Y-37095D01*
X37930Y-37447D01*
X37900Y-37520D01*
X37899Y-37679D01*
X37960Y-37826D01*
X38073Y-37938D01*
X38220Y-37999D01*
X38379Y-38000D01*
X38472Y-37961D01*
X38461Y-37973D01*
X38400Y-38120D01*
X38399Y-38279D01*
X38460Y-38426D01*
X38573Y-38538D01*
X38720Y-38599D01*
X38879Y-38600D01*
X38999Y-38550D01*
X38999Y-38599D01*
X39041Y-38700D01*
X36736Y-38700D01*
X36736Y-37607D01*
X36400Y-37270D01*
X36329Y-37341D01*
X36329Y-37200D01*
X35992Y-36863D01*
X35893Y-36894D01*
X35872Y-36954D01*
X35849Y-36900D01*
X35700Y-36750D01*
X35600Y-36709D01*
X35600Y-33820D01*
X35539Y-33673D01*
X35426Y-33561D01*
X35279Y-33500D01*
X35120Y-33499D01*
X34973Y-33560D01*
X34861Y-33673D01*
X34800Y-33820D01*
X34799Y-33979D01*
X34860Y-34126D01*
X34973Y-34238D01*
X35120Y-34299D01*
X35279Y-34300D01*
X35426Y-34239D01*
X35538Y-34126D01*
X35599Y-33979D01*
X35600Y-33820D01*
X35600Y-36709D01*
X35505Y-36670D01*
X35295Y-36669D01*
X35100Y-36750D01*
X34950Y-36899D01*
X34870Y-37094D01*
X34869Y-37304D01*
X34950Y-37499D01*
X35099Y-37649D01*
X35294Y-37729D01*
X35504Y-37730D01*
X35699Y-37649D01*
X35849Y-37500D01*
X35870Y-37449D01*
X35893Y-37505D01*
X35992Y-37536D01*
X36329Y-37200D01*
X36329Y-37341D01*
X36063Y-37607D01*
X36094Y-37706D01*
X36311Y-37784D01*
X36541Y-37774D01*
X36705Y-37706D01*
X36736Y-37607D01*
X36736Y-38700D01*
X36200Y-38700D01*
X36200Y-38150D01*
X35990Y-38150D01*
X35990Y-37920D01*
X35109Y-37920D01*
X35109Y-38150D01*
X34737Y-38150D01*
X34745Y-38129D01*
X34746Y-37463D01*
X34518Y-36912D01*
X34518Y-34953D01*
X34379Y-34615D01*
X34180Y-34415D01*
X34180Y-31980D01*
X34119Y-31833D01*
X34006Y-31721D01*
X33859Y-31660D01*
X33700Y-31659D01*
X33553Y-31720D01*
X33441Y-31833D01*
X33380Y-31980D01*
X33379Y-32139D01*
X33440Y-32286D01*
X33553Y-32398D01*
X33700Y-32459D01*
X33859Y-32460D01*
X34006Y-32399D01*
X34118Y-32286D01*
X34179Y-32139D01*
X34180Y-31980D01*
X34180Y-34415D01*
X34160Y-34395D01*
X34160Y-33220D01*
X34099Y-33073D01*
X33986Y-32961D01*
X33839Y-32900D01*
X33680Y-32899D01*
X33533Y-32960D01*
X33421Y-33073D01*
X33360Y-33220D01*
X33359Y-33379D01*
X33420Y-33526D01*
X33533Y-33638D01*
X33680Y-33699D01*
X33839Y-33700D01*
X33986Y-33639D01*
X34098Y-33526D01*
X34159Y-33379D01*
X34160Y-33220D01*
X34160Y-34395D01*
X34120Y-34356D01*
X33783Y-34216D01*
X33418Y-34216D01*
X33080Y-34355D01*
X32900Y-34535D01*
X32900Y-33020D01*
X32839Y-32873D01*
X32726Y-32761D01*
X32579Y-32700D01*
X32420Y-32699D01*
X32273Y-32760D01*
X32161Y-32873D01*
X32100Y-33020D01*
X32099Y-33179D01*
X32160Y-33326D01*
X32273Y-33438D01*
X32420Y-33499D01*
X32579Y-33500D01*
X32726Y-33439D01*
X32838Y-33326D01*
X32899Y-33179D01*
X32900Y-33020D01*
X32900Y-34535D01*
X32821Y-34614D01*
X32681Y-34951D01*
X32681Y-35316D01*
X32820Y-35654D01*
X33079Y-35913D01*
X33416Y-36053D01*
X33781Y-36053D01*
X34119Y-35914D01*
X34378Y-35655D01*
X34518Y-35318D01*
X34518Y-34953D01*
X34518Y-36912D01*
X34491Y-36847D01*
X34020Y-36376D01*
X33405Y-36120D01*
X32739Y-36119D01*
X32123Y-36374D01*
X32050Y-36447D01*
X32050Y-22559D01*
X32140Y-22649D01*
X32743Y-22900D01*
X33395Y-22900D01*
X33998Y-22651D01*
X34400Y-22250D01*
X34399Y-22379D01*
X34460Y-22526D01*
X34573Y-22638D01*
X34720Y-22699D01*
X34879Y-22700D01*
X35026Y-22639D01*
X35138Y-22526D01*
X35199Y-22379D01*
X35200Y-22220D01*
X35139Y-22073D01*
X35026Y-21961D01*
X34879Y-21900D01*
X34720Y-21899D01*
X34573Y-21960D01*
X34543Y-21990D01*
X34711Y-21587D01*
X34711Y-20934D01*
X34462Y-20331D01*
X34430Y-20300D01*
X47763Y-20300D01*
X47786Y-20412D01*
X47876Y-20548D01*
X47939Y-20589D01*
X47899Y-20629D01*
X47855Y-20735D01*
X47855Y-20850D01*
X47899Y-20956D01*
X47955Y-21012D01*
X47945Y-21008D01*
X47844Y-21008D01*
X47831Y-20940D01*
X47740Y-20805D01*
X47605Y-20715D01*
X47446Y-20683D01*
X47281Y-20683D01*
X47273Y-20671D01*
X47144Y-20585D01*
X46992Y-20554D01*
X46840Y-20585D01*
X46711Y-20671D01*
X46625Y-20799D01*
X46595Y-20951D01*
X46595Y-21248D01*
X46625Y-21400D01*
X46711Y-21528D01*
X46840Y-21614D01*
X46992Y-21645D01*
X47144Y-21614D01*
X47273Y-21528D01*
X47281Y-21516D01*
X47446Y-21516D01*
X47605Y-21484D01*
X47643Y-21459D01*
X47643Y-21460D01*
X47724Y-21541D01*
X47830Y-21585D01*
X47945Y-21585D01*
X48051Y-21541D01*
X48132Y-21460D01*
X48144Y-21433D01*
X48155Y-21460D01*
X48236Y-21541D01*
X48342Y-21585D01*
X48457Y-21585D01*
X48563Y-21541D01*
X48642Y-21462D01*
X48683Y-21462D01*
X48849Y-21296D01*
X48839Y-21287D01*
X48902Y-21224D01*
X48911Y-21234D01*
X48921Y-21224D01*
X48984Y-21287D01*
X48974Y-21296D01*
X49033Y-21355D01*
X49059Y-21394D01*
X49098Y-21420D01*
X49140Y-21462D01*
X49161Y-21462D01*
X49194Y-21484D01*
X49353Y-21516D01*
X49518Y-21516D01*
X49526Y-21528D01*
X49655Y-21614D01*
X49807Y-21645D01*
X49959Y-21614D01*
X50088Y-21528D01*
X50174Y-21400D01*
X50204Y-21248D01*
X50204Y-21169D01*
X50273Y-21238D01*
X50420Y-21299D01*
X50579Y-21300D01*
X50726Y-21239D01*
X50838Y-21126D01*
X50849Y-21100D01*
X50860Y-21126D01*
X50973Y-21238D01*
X51120Y-21299D01*
X51279Y-21300D01*
X51426Y-21239D01*
X51538Y-21126D01*
X51599Y-20979D01*
X51600Y-20820D01*
X51539Y-20673D01*
X51426Y-20561D01*
X51279Y-20500D01*
X51120Y-20499D01*
X50973Y-20560D01*
X50861Y-20673D01*
X50850Y-20699D01*
X50839Y-20673D01*
X50726Y-20561D01*
X50579Y-20500D01*
X50420Y-20499D01*
X50273Y-20560D01*
X50161Y-20673D01*
X50133Y-20739D01*
X50088Y-20671D01*
X49959Y-20585D01*
X49807Y-20554D01*
X49655Y-20585D01*
X49526Y-20671D01*
X49518Y-20683D01*
X49353Y-20683D01*
X49194Y-20715D01*
X49059Y-20805D01*
X48968Y-20940D01*
X48965Y-20958D01*
X48948Y-20953D01*
X48898Y-20958D01*
X48900Y-20956D01*
X48944Y-20850D01*
X48944Y-20735D01*
X48900Y-20629D01*
X48860Y-20589D01*
X48923Y-20548D01*
X49013Y-20412D01*
X49036Y-20300D01*
X56100Y-20300D01*
X56100Y-23900D01*
X55623Y-23900D01*
X55623Y-21262D01*
X55518Y-21008D01*
X55324Y-20813D01*
X55069Y-20707D01*
X54794Y-20707D01*
X54539Y-20812D01*
X54345Y-21007D01*
X54239Y-21261D01*
X54239Y-21537D01*
X54344Y-21791D01*
X54538Y-21986D01*
X54793Y-22092D01*
X55068Y-22092D01*
X55323Y-21987D01*
X55517Y-21792D01*
X55623Y-21538D01*
X55623Y-21262D01*
X55623Y-23900D01*
X55000Y-23900D01*
X55000Y-27759D01*
X54923Y-27790D01*
X54894Y-27819D01*
X54859Y-27733D01*
X54746Y-27621D01*
X54599Y-27560D01*
X54510Y-27559D01*
X54510Y-24070D01*
X54449Y-23923D01*
X54336Y-23811D01*
X54189Y-23750D01*
X54030Y-23749D01*
X53883Y-23810D01*
X53771Y-23923D01*
X53755Y-23961D01*
X53755Y-21243D01*
X53634Y-20951D01*
X53412Y-20728D01*
X53121Y-20608D01*
X52806Y-20607D01*
X52514Y-20728D01*
X52291Y-20950D01*
X52171Y-21241D01*
X52170Y-21556D01*
X52291Y-21848D01*
X52513Y-22071D01*
X52804Y-22191D01*
X53119Y-22192D01*
X53411Y-22071D01*
X53634Y-21849D01*
X53754Y-21558D01*
X53755Y-21243D01*
X53755Y-23961D01*
X53710Y-24070D01*
X53709Y-24229D01*
X53770Y-24376D01*
X53883Y-24488D01*
X54030Y-24549D01*
X54189Y-24550D01*
X54336Y-24489D01*
X54448Y-24376D01*
X54509Y-24229D01*
X54510Y-24070D01*
X54510Y-27559D01*
X54440Y-27559D01*
X54293Y-27620D01*
X54181Y-27733D01*
X54120Y-27880D01*
X54119Y-28039D01*
X54180Y-28186D01*
X54293Y-28298D01*
X54440Y-28359D01*
X54599Y-28360D01*
X54746Y-28299D01*
X54775Y-28270D01*
X54810Y-28356D01*
X54923Y-28468D01*
X55000Y-28500D01*
X55000Y-30000D01*
X55834Y-30000D01*
X55853Y-30018D01*
X56000Y-30079D01*
X56159Y-30080D01*
X56306Y-30019D01*
X56325Y-30000D01*
X56763Y-30000D01*
X56824Y-30040D01*
X56920Y-30060D01*
X57350Y-30060D01*
X57350Y-34300D01*
X62400Y-34300D01*
X62400Y-38700D01*
X62400Y-38700D01*
G37*
G54D11*
X62400Y-38700D02*
X59943Y-38700D01*
X60012Y-38671D01*
X60174Y-38510D01*
X60261Y-38298D01*
X60262Y-38070D01*
X60262Y-38069D01*
X60262Y-36551D01*
X60262Y-35801D01*
X60231Y-35727D01*
X60175Y-35671D01*
X60101Y-35641D01*
X60022Y-35640D01*
X59272Y-35640D01*
X59198Y-35671D01*
X59142Y-35727D01*
X59112Y-35801D01*
X59111Y-35880D01*
X59111Y-36630D01*
X59142Y-36704D01*
X59198Y-36760D01*
X59272Y-36790D01*
X59351Y-36791D01*
X60101Y-36791D01*
X60175Y-36760D01*
X60231Y-36704D01*
X60261Y-36630D01*
X60262Y-36551D01*
X60262Y-38069D01*
X60174Y-37858D01*
X60013Y-37696D01*
X59801Y-37609D01*
X59573Y-37608D01*
X59361Y-37696D01*
X59199Y-37857D01*
X59112Y-38069D01*
X59111Y-38297D01*
X59199Y-38509D01*
X59360Y-38671D01*
X59430Y-38700D01*
X58449Y-38700D01*
X58464Y-38674D01*
X58488Y-38637D01*
X58491Y-38625D01*
X58496Y-38615D01*
X58496Y-38613D01*
X58600Y-38510D01*
X58687Y-38298D01*
X58688Y-38070D01*
X58688Y-36102D01*
X58600Y-35890D01*
X58439Y-35728D01*
X58227Y-35641D01*
X57999Y-35640D01*
X57787Y-35728D01*
X57625Y-35889D01*
X57538Y-36101D01*
X57537Y-36329D01*
X57625Y-36541D01*
X57786Y-36703D01*
X57998Y-36790D01*
X58226Y-36791D01*
X58438Y-36703D01*
X58600Y-36542D01*
X58687Y-36330D01*
X58688Y-36102D01*
X58688Y-38070D01*
X58600Y-37858D01*
X58491Y-37749D01*
X58488Y-37734D01*
X58427Y-37644D01*
X58337Y-37583D01*
X58230Y-37562D01*
X58122Y-37583D01*
X58084Y-37608D01*
X57999Y-37608D01*
X57787Y-37696D01*
X57625Y-37857D01*
X57538Y-38069D01*
X57537Y-38297D01*
X57571Y-38380D01*
X57138Y-38380D01*
X57138Y-34414D01*
X57138Y-33706D01*
X57108Y-33632D01*
X57052Y-33576D01*
X56978Y-33545D01*
X56898Y-33545D01*
X56350Y-33545D01*
X56350Y-32150D01*
X56274Y-31967D01*
X56133Y-31826D01*
X55949Y-31750D01*
X55871Y-31750D01*
X55982Y-31704D01*
X56123Y-31563D01*
X56199Y-31379D01*
X56200Y-31180D01*
X56124Y-30997D01*
X55983Y-30856D01*
X55799Y-30780D01*
X55600Y-30779D01*
X55417Y-30855D01*
X55276Y-30996D01*
X55200Y-31180D01*
X55199Y-31379D01*
X55275Y-31562D01*
X55416Y-31703D01*
X55600Y-31779D01*
X55678Y-31779D01*
X55567Y-31825D01*
X55426Y-31966D01*
X55350Y-32150D01*
X55349Y-32349D01*
X55425Y-32532D01*
X55566Y-32673D01*
X55750Y-32749D01*
X55949Y-32750D01*
X56132Y-32674D01*
X56273Y-32533D01*
X56349Y-32349D01*
X56350Y-32150D01*
X56350Y-33545D01*
X56190Y-33545D01*
X56116Y-33576D01*
X56060Y-33632D01*
X56029Y-33705D01*
X56029Y-33785D01*
X56029Y-34493D01*
X56060Y-34567D01*
X56116Y-34623D01*
X56189Y-34654D01*
X56269Y-34654D01*
X56978Y-34654D01*
X57051Y-34623D01*
X57108Y-34567D01*
X57138Y-34494D01*
X57138Y-34414D01*
X57138Y-38380D01*
X57085Y-38380D01*
X57124Y-38284D01*
X57125Y-38115D01*
X57060Y-37959D01*
X56941Y-37839D01*
X56784Y-37775D01*
X56615Y-37774D01*
X56459Y-37839D01*
X56339Y-37958D01*
X56275Y-38115D01*
X56274Y-38284D01*
X56314Y-38380D01*
X55114Y-38380D01*
X55114Y-37837D01*
X55084Y-37764D01*
X55028Y-37707D01*
X54954Y-37677D01*
X54875Y-37677D01*
X54245Y-37677D01*
X54171Y-37707D01*
X54150Y-37729D01*
X54150Y-33620D01*
X54089Y-33473D01*
X53976Y-33361D01*
X53829Y-33300D01*
X53670Y-33299D01*
X53600Y-33329D01*
X53600Y-29920D01*
X53539Y-29773D01*
X53490Y-29725D01*
X53538Y-29676D01*
X53599Y-29529D01*
X53600Y-29370D01*
X53539Y-29223D01*
X53426Y-29111D01*
X53279Y-29050D01*
X53120Y-29049D01*
X52973Y-29110D01*
X52861Y-29223D01*
X52800Y-29370D01*
X52799Y-29529D01*
X52860Y-29676D01*
X52909Y-29724D01*
X52861Y-29773D01*
X52800Y-29920D01*
X52799Y-30079D01*
X52860Y-30226D01*
X52973Y-30338D01*
X53120Y-30399D01*
X53279Y-30400D01*
X53426Y-30339D01*
X53538Y-30226D01*
X53599Y-30079D01*
X53600Y-29920D01*
X53600Y-33329D01*
X53523Y-33360D01*
X53500Y-33384D01*
X53476Y-33361D01*
X53329Y-33300D01*
X53170Y-33299D01*
X53023Y-33360D01*
X52911Y-33473D01*
X52850Y-33620D01*
X52849Y-33779D01*
X52910Y-33926D01*
X53023Y-34038D01*
X53170Y-34099D01*
X53329Y-34100D01*
X53476Y-34039D01*
X53499Y-34015D01*
X53523Y-34038D01*
X53670Y-34099D01*
X53829Y-34100D01*
X53976Y-34039D01*
X54088Y-33926D01*
X54149Y-33779D01*
X54150Y-33620D01*
X54150Y-37729D01*
X54115Y-37763D01*
X54085Y-37837D01*
X54085Y-37916D01*
X54085Y-38380D01*
X52324Y-38380D01*
X52324Y-33296D01*
X52245Y-33103D01*
X52097Y-32955D01*
X52024Y-32924D01*
X52164Y-32924D01*
X52237Y-32894D01*
X52294Y-32838D01*
X52324Y-32764D01*
X52324Y-32685D01*
X52324Y-32035D01*
X52294Y-31962D01*
X52238Y-31905D01*
X52220Y-31898D01*
X52220Y-29340D01*
X52159Y-29193D01*
X52100Y-29134D01*
X52100Y-27570D01*
X52039Y-27423D01*
X52010Y-27394D01*
X52010Y-26170D01*
X51949Y-26023D01*
X51836Y-25911D01*
X51689Y-25850D01*
X51650Y-25850D01*
X51650Y-22450D01*
X51574Y-22267D01*
X51433Y-22126D01*
X51249Y-22050D01*
X51050Y-22049D01*
X50867Y-22125D01*
X50726Y-22266D01*
X50679Y-22378D01*
X50631Y-22262D01*
X50535Y-22234D01*
X50465Y-22305D01*
X50465Y-22164D01*
X50437Y-22068D01*
X50231Y-21995D01*
X50013Y-22006D01*
X49862Y-22068D01*
X49834Y-22164D01*
X50150Y-22479D01*
X50465Y-22164D01*
X50465Y-22305D01*
X50220Y-22550D01*
X50535Y-22865D01*
X50631Y-22837D01*
X50676Y-22712D01*
X50725Y-22832D01*
X50866Y-22973D01*
X51050Y-23049D01*
X51249Y-23050D01*
X51432Y-22974D01*
X51573Y-22833D01*
X51649Y-22649D01*
X51650Y-22450D01*
X51650Y-25850D01*
X51530Y-25849D01*
X51383Y-25910D01*
X51271Y-26023D01*
X51210Y-26170D01*
X51209Y-26329D01*
X51270Y-26476D01*
X51383Y-26588D01*
X51530Y-26649D01*
X51689Y-26650D01*
X51836Y-26589D01*
X51948Y-26476D01*
X52009Y-26329D01*
X52010Y-26170D01*
X52010Y-27394D01*
X51926Y-27311D01*
X51779Y-27250D01*
X51620Y-27249D01*
X51473Y-27310D01*
X51361Y-27423D01*
X51350Y-27449D01*
X51350Y-27020D01*
X51289Y-26873D01*
X51176Y-26761D01*
X51029Y-26700D01*
X50870Y-26699D01*
X50723Y-26760D01*
X50611Y-26873D01*
X50550Y-27020D01*
X50549Y-27179D01*
X50610Y-27326D01*
X50723Y-27438D01*
X50870Y-27499D01*
X51029Y-27500D01*
X51176Y-27439D01*
X51288Y-27326D01*
X51349Y-27179D01*
X51350Y-27020D01*
X51350Y-27449D01*
X51300Y-27570D01*
X51299Y-27729D01*
X51360Y-27876D01*
X51473Y-27988D01*
X51620Y-28049D01*
X51779Y-28050D01*
X51926Y-27989D01*
X52038Y-27876D01*
X52099Y-27729D01*
X52100Y-27570D01*
X52100Y-29134D01*
X52046Y-29081D01*
X51899Y-29020D01*
X51740Y-29019D01*
X51593Y-29080D01*
X51481Y-29193D01*
X51420Y-29340D01*
X51419Y-29499D01*
X51480Y-29646D01*
X51593Y-29758D01*
X51740Y-29819D01*
X51899Y-29820D01*
X52046Y-29759D01*
X52158Y-29646D01*
X52219Y-29499D01*
X52220Y-29340D01*
X52220Y-31898D01*
X52164Y-31875D01*
X52085Y-31875D01*
X51435Y-31875D01*
X51362Y-31905D01*
X51305Y-31961D01*
X51275Y-32035D01*
X51275Y-32114D01*
X51275Y-32764D01*
X51305Y-32837D01*
X51361Y-32894D01*
X51435Y-32924D01*
X51514Y-32924D01*
X51575Y-32924D01*
X51503Y-32954D01*
X51355Y-33102D01*
X51275Y-33295D01*
X51275Y-33503D01*
X51354Y-33696D01*
X51502Y-33844D01*
X51695Y-33924D01*
X51903Y-33924D01*
X52096Y-33845D01*
X52244Y-33697D01*
X52324Y-33504D01*
X52324Y-33296D01*
X52324Y-38380D01*
X52100Y-38380D01*
X52100Y-35420D01*
X52039Y-35273D01*
X51965Y-35199D01*
X52038Y-35126D01*
X52099Y-34979D01*
X52100Y-34820D01*
X52039Y-34673D01*
X51926Y-34561D01*
X51779Y-34500D01*
X51620Y-34499D01*
X51473Y-34560D01*
X51361Y-34673D01*
X51300Y-34820D01*
X51299Y-34979D01*
X51360Y-35126D01*
X51434Y-35200D01*
X51361Y-35273D01*
X51300Y-35420D01*
X51299Y-35579D01*
X51360Y-35726D01*
X51473Y-35838D01*
X51620Y-35899D01*
X51779Y-35900D01*
X51926Y-35839D01*
X52038Y-35726D01*
X52099Y-35579D01*
X52100Y-35420D01*
X52100Y-38380D01*
X50750Y-38380D01*
X50750Y-30970D01*
X50689Y-30823D01*
X50576Y-30711D01*
X50465Y-30664D01*
X50465Y-22935D01*
X50150Y-22620D01*
X50079Y-22691D01*
X50079Y-22550D01*
X49764Y-22234D01*
X49668Y-22262D01*
X49623Y-22387D01*
X49574Y-22267D01*
X49433Y-22126D01*
X49249Y-22050D01*
X49077Y-22049D01*
X49077Y-21525D01*
X48911Y-21359D01*
X48745Y-21525D01*
X48746Y-21599D01*
X48874Y-21640D01*
X49009Y-21628D01*
X49077Y-21599D01*
X49077Y-21525D01*
X49077Y-22049D01*
X49050Y-22049D01*
X48867Y-22125D01*
X48726Y-22266D01*
X48650Y-22450D01*
X48650Y-22451D01*
X48650Y-22450D01*
X48574Y-22267D01*
X48433Y-22126D01*
X48249Y-22050D01*
X48050Y-22049D01*
X47867Y-22125D01*
X47726Y-22266D01*
X47650Y-22450D01*
X47650Y-22510D01*
X47650Y-22210D01*
X47619Y-22136D01*
X47563Y-22080D01*
X47489Y-22050D01*
X47410Y-22049D01*
X46810Y-22049D01*
X46736Y-22080D01*
X46680Y-22136D01*
X46650Y-22210D01*
X46649Y-22289D01*
X46649Y-22889D01*
X46680Y-22963D01*
X46736Y-23019D01*
X46810Y-23049D01*
X46889Y-23050D01*
X47489Y-23050D01*
X47563Y-23019D01*
X47619Y-22963D01*
X47649Y-22889D01*
X47650Y-22810D01*
X47650Y-22649D01*
X47725Y-22832D01*
X47866Y-22973D01*
X48050Y-23049D01*
X48249Y-23050D01*
X48432Y-22974D01*
X48573Y-22833D01*
X48649Y-22649D01*
X48650Y-22450D01*
X48650Y-22451D01*
X48649Y-22649D01*
X48725Y-22832D01*
X48866Y-22973D01*
X49050Y-23049D01*
X49249Y-23050D01*
X49432Y-22974D01*
X49573Y-22833D01*
X49620Y-22721D01*
X49668Y-22837D01*
X49764Y-22865D01*
X50079Y-22550D01*
X50079Y-22691D01*
X49834Y-22935D01*
X49862Y-23031D01*
X50068Y-23104D01*
X50286Y-23093D01*
X50437Y-23031D01*
X50465Y-22935D01*
X50465Y-30664D01*
X50429Y-30650D01*
X50270Y-30649D01*
X50123Y-30710D01*
X50011Y-30823D01*
X49950Y-30970D01*
X49949Y-31129D01*
X50010Y-31276D01*
X50123Y-31388D01*
X50270Y-31449D01*
X50429Y-31450D01*
X50576Y-31389D01*
X50688Y-31276D01*
X50749Y-31129D01*
X50750Y-30970D01*
X50750Y-38380D01*
X50400Y-38380D01*
X50400Y-31920D01*
X50339Y-31773D01*
X50226Y-31661D01*
X50079Y-31600D01*
X49920Y-31599D01*
X49773Y-31660D01*
X49661Y-31773D01*
X49600Y-31920D01*
X49599Y-32079D01*
X49660Y-32226D01*
X49773Y-32338D01*
X49920Y-32399D01*
X50079Y-32400D01*
X50226Y-32339D01*
X50338Y-32226D01*
X50399Y-32079D01*
X50400Y-31920D01*
X50400Y-38380D01*
X50300Y-38380D01*
X50300Y-34320D01*
X50239Y-34173D01*
X50126Y-34061D01*
X49979Y-34000D01*
X49820Y-33999D01*
X49673Y-34060D01*
X49561Y-34173D01*
X49500Y-34320D01*
X49500Y-26030D01*
X49439Y-25883D01*
X49326Y-25771D01*
X49190Y-25714D01*
X49190Y-24740D01*
X49129Y-24593D01*
X49016Y-24481D01*
X48869Y-24420D01*
X48710Y-24419D01*
X48563Y-24480D01*
X48451Y-24593D01*
X48390Y-24740D01*
X48389Y-24899D01*
X48450Y-25046D01*
X48563Y-25158D01*
X48710Y-25219D01*
X48869Y-25220D01*
X49016Y-25159D01*
X49128Y-25046D01*
X49189Y-24899D01*
X49190Y-24740D01*
X49190Y-25714D01*
X49179Y-25710D01*
X49020Y-25709D01*
X48873Y-25770D01*
X48761Y-25883D01*
X48700Y-26030D01*
X48699Y-26189D01*
X48760Y-26336D01*
X48873Y-26448D01*
X49020Y-26509D01*
X49179Y-26510D01*
X49326Y-26449D01*
X49438Y-26336D01*
X49499Y-26189D01*
X49500Y-26030D01*
X49500Y-34320D01*
X49499Y-34479D01*
X49560Y-34626D01*
X49673Y-34738D01*
X49820Y-34799D01*
X49979Y-34800D01*
X50126Y-34739D01*
X50238Y-34626D01*
X50299Y-34479D01*
X50300Y-34320D01*
X50300Y-38380D01*
X49220Y-38380D01*
X49220Y-30280D01*
X49159Y-30133D01*
X49080Y-30054D01*
X49080Y-26970D01*
X49019Y-26823D01*
X48906Y-26711D01*
X48759Y-26650D01*
X48600Y-26649D01*
X48453Y-26710D01*
X48341Y-26823D01*
X48280Y-26970D01*
X48279Y-27129D01*
X48340Y-27276D01*
X48453Y-27388D01*
X48600Y-27449D01*
X48759Y-27450D01*
X48906Y-27389D01*
X49018Y-27276D01*
X49079Y-27129D01*
X49080Y-26970D01*
X49080Y-30054D01*
X49046Y-30021D01*
X48899Y-29960D01*
X48740Y-29959D01*
X48593Y-30020D01*
X48481Y-30133D01*
X48460Y-30183D01*
X48460Y-28530D01*
X48399Y-28383D01*
X48286Y-28271D01*
X48139Y-28210D01*
X47980Y-28209D01*
X47833Y-28270D01*
X47721Y-28383D01*
X47660Y-28530D01*
X47659Y-28689D01*
X47720Y-28836D01*
X47833Y-28948D01*
X47980Y-29009D01*
X48139Y-29010D01*
X48286Y-28949D01*
X48398Y-28836D01*
X48459Y-28689D01*
X48460Y-28530D01*
X48460Y-30183D01*
X48420Y-30280D01*
X48419Y-30439D01*
X48480Y-30586D01*
X48593Y-30698D01*
X48740Y-30759D01*
X48899Y-30760D01*
X49046Y-30699D01*
X49158Y-30586D01*
X49219Y-30439D01*
X49220Y-30280D01*
X49220Y-38380D01*
X48624Y-38380D01*
X48624Y-33296D01*
X48545Y-33103D01*
X48397Y-32955D01*
X48324Y-32924D01*
X48464Y-32924D01*
X48537Y-32894D01*
X48594Y-32838D01*
X48624Y-32764D01*
X48624Y-32685D01*
X48624Y-32035D01*
X48594Y-31962D01*
X48538Y-31905D01*
X48464Y-31875D01*
X48385Y-31875D01*
X47735Y-31875D01*
X47694Y-31891D01*
X47699Y-31879D01*
X47700Y-31720D01*
X47639Y-31573D01*
X47526Y-31461D01*
X47379Y-31400D01*
X47220Y-31399D01*
X47100Y-31449D01*
X47100Y-27720D01*
X47039Y-27573D01*
X46926Y-27461D01*
X46779Y-27400D01*
X46620Y-27399D01*
X46473Y-27460D01*
X46361Y-27573D01*
X46300Y-27720D01*
X46299Y-27879D01*
X46360Y-28026D01*
X46473Y-28138D01*
X46620Y-28199D01*
X46779Y-28200D01*
X46926Y-28139D01*
X47038Y-28026D01*
X47099Y-27879D01*
X47100Y-27720D01*
X47100Y-31449D01*
X47073Y-31460D01*
X46961Y-31573D01*
X46900Y-31720D01*
X46899Y-31879D01*
X46960Y-32026D01*
X47073Y-32138D01*
X47220Y-32199D01*
X47379Y-32200D01*
X47526Y-32139D01*
X47575Y-32090D01*
X47575Y-32114D01*
X47575Y-32764D01*
X47605Y-32837D01*
X47661Y-32894D01*
X47735Y-32924D01*
X47814Y-32924D01*
X47875Y-32924D01*
X47803Y-32954D01*
X47655Y-33102D01*
X47575Y-33295D01*
X47575Y-33503D01*
X47654Y-33696D01*
X47802Y-33844D01*
X47995Y-33924D01*
X48203Y-33924D01*
X48396Y-33845D01*
X48544Y-33697D01*
X48624Y-33504D01*
X48624Y-33296D01*
X48624Y-38380D01*
X47395Y-38380D01*
X47260Y-38244D01*
X47260Y-38080D01*
X47242Y-37990D01*
X47238Y-37972D01*
X47238Y-37972D01*
X47177Y-37882D01*
X47054Y-37758D01*
X47054Y-35581D01*
X47043Y-35363D01*
X46981Y-35212D01*
X46885Y-35184D01*
X46815Y-35255D01*
X46815Y-35114D01*
X46787Y-35018D01*
X46581Y-34945D01*
X46363Y-34956D01*
X46320Y-34974D01*
X46320Y-29160D01*
X46259Y-29013D01*
X46146Y-28901D01*
X46040Y-28856D01*
X46040Y-24990D01*
X45979Y-24843D01*
X45866Y-24731D01*
X45750Y-24682D01*
X45750Y-23770D01*
X45689Y-23623D01*
X45576Y-23511D01*
X45429Y-23450D01*
X45360Y-23450D01*
X45360Y-23020D01*
X45299Y-22873D01*
X45186Y-22761D01*
X45039Y-22700D01*
X44880Y-22699D01*
X44733Y-22760D01*
X44629Y-22864D01*
X44546Y-22781D01*
X44399Y-22720D01*
X44240Y-22719D01*
X44093Y-22780D01*
X43981Y-22893D01*
X43920Y-23040D01*
X43919Y-23199D01*
X43980Y-23346D01*
X44093Y-23458D01*
X44240Y-23519D01*
X44399Y-23520D01*
X44546Y-23459D01*
X44650Y-23355D01*
X44733Y-23438D01*
X44880Y-23499D01*
X45039Y-23500D01*
X45186Y-23439D01*
X45298Y-23326D01*
X45359Y-23179D01*
X45360Y-23020D01*
X45360Y-23450D01*
X45270Y-23449D01*
X45123Y-23510D01*
X45011Y-23623D01*
X44950Y-23770D01*
X44949Y-23929D01*
X45010Y-24076D01*
X45123Y-24188D01*
X45270Y-24249D01*
X45429Y-24250D01*
X45576Y-24189D01*
X45688Y-24076D01*
X45749Y-23929D01*
X45750Y-23770D01*
X45750Y-24682D01*
X45719Y-24670D01*
X45560Y-24669D01*
X45413Y-24730D01*
X45301Y-24843D01*
X45240Y-24990D01*
X45239Y-25149D01*
X45300Y-25296D01*
X45413Y-25408D01*
X45560Y-25469D01*
X45719Y-25470D01*
X45866Y-25409D01*
X45978Y-25296D01*
X46039Y-25149D01*
X46040Y-24990D01*
X46040Y-28856D01*
X45999Y-28840D01*
X45840Y-28839D01*
X45700Y-28898D01*
X45700Y-27920D01*
X45700Y-26510D01*
X45639Y-26363D01*
X45526Y-26251D01*
X45379Y-26190D01*
X45220Y-26189D01*
X45073Y-26250D01*
X44961Y-26363D01*
X44900Y-26510D01*
X44899Y-26669D01*
X44960Y-26816D01*
X45073Y-26928D01*
X45220Y-26989D01*
X45379Y-26990D01*
X45526Y-26929D01*
X45638Y-26816D01*
X45699Y-26669D01*
X45700Y-26510D01*
X45700Y-27920D01*
X45639Y-27773D01*
X45526Y-27661D01*
X45379Y-27600D01*
X45220Y-27599D01*
X45073Y-27660D01*
X44961Y-27773D01*
X44900Y-27920D01*
X44899Y-28079D01*
X44960Y-28226D01*
X45073Y-28338D01*
X45220Y-28399D01*
X45379Y-28400D01*
X45526Y-28339D01*
X45638Y-28226D01*
X45699Y-28079D01*
X45700Y-27920D01*
X45700Y-28898D01*
X45693Y-28900D01*
X45581Y-29013D01*
X45520Y-29160D01*
X45519Y-29319D01*
X45580Y-29466D01*
X45693Y-29578D01*
X45840Y-29639D01*
X45999Y-29640D01*
X46146Y-29579D01*
X46258Y-29466D01*
X46319Y-29319D01*
X46320Y-29160D01*
X46320Y-34974D01*
X46212Y-35018D01*
X46184Y-35114D01*
X46500Y-35429D01*
X46815Y-35114D01*
X46815Y-35255D01*
X46570Y-35500D01*
X46885Y-35815D01*
X46981Y-35787D01*
X47054Y-35581D01*
X47054Y-37758D01*
X47000Y-37704D01*
X47000Y-36760D01*
X47000Y-36160D01*
X46969Y-36086D01*
X46913Y-36030D01*
X46839Y-36000D01*
X46760Y-35999D01*
X46742Y-35999D01*
X46787Y-35981D01*
X46815Y-35885D01*
X46500Y-35570D01*
X46429Y-35641D01*
X46429Y-35500D01*
X46114Y-35184D01*
X46018Y-35212D01*
X46001Y-35260D01*
X45981Y-35212D01*
X45885Y-35184D01*
X45815Y-35255D01*
X45815Y-35114D01*
X45787Y-35018D01*
X45581Y-34945D01*
X45363Y-34956D01*
X45212Y-35018D01*
X45184Y-35114D01*
X45500Y-35429D01*
X45815Y-35114D01*
X45815Y-35255D01*
X45570Y-35500D01*
X45885Y-35815D01*
X45981Y-35787D01*
X45998Y-35739D01*
X46018Y-35787D01*
X46114Y-35815D01*
X46429Y-35500D01*
X46429Y-35641D01*
X46184Y-35885D01*
X46212Y-35981D01*
X46264Y-35999D01*
X46160Y-35999D01*
X46086Y-36030D01*
X46030Y-36086D01*
X46000Y-36160D01*
X45999Y-36239D01*
X45999Y-36400D01*
X45924Y-36217D01*
X45783Y-36076D01*
X45671Y-36029D01*
X45787Y-35981D01*
X45815Y-35885D01*
X45500Y-35570D01*
X45429Y-35641D01*
X45429Y-35500D01*
X45114Y-35184D01*
X45018Y-35212D01*
X45001Y-35260D01*
X44981Y-35212D01*
X44885Y-35184D01*
X44815Y-35255D01*
X44815Y-35114D01*
X44787Y-35018D01*
X44581Y-34945D01*
X44580Y-34945D01*
X44580Y-29470D01*
X44519Y-29323D01*
X44450Y-29254D01*
X44450Y-25020D01*
X44389Y-24873D01*
X44276Y-24761D01*
X44140Y-24704D01*
X44140Y-23760D01*
X44079Y-23613D01*
X43966Y-23501D01*
X43819Y-23440D01*
X43660Y-23439D01*
X43513Y-23500D01*
X43445Y-23569D01*
X43445Y-21162D01*
X43339Y-20908D01*
X43145Y-20713D01*
X42891Y-20607D01*
X42615Y-20607D01*
X42361Y-20712D01*
X42166Y-20907D01*
X42060Y-21161D01*
X42060Y-21437D01*
X42165Y-21691D01*
X42360Y-21886D01*
X42614Y-21992D01*
X42889Y-21992D01*
X43144Y-21887D01*
X43339Y-21692D01*
X43444Y-21438D01*
X43445Y-21162D01*
X43445Y-23569D01*
X43401Y-23613D01*
X43340Y-23760D01*
X43339Y-23919D01*
X43400Y-24066D01*
X43513Y-24178D01*
X43660Y-24239D01*
X43819Y-24240D01*
X43966Y-24179D01*
X44078Y-24066D01*
X44139Y-23919D01*
X44140Y-23760D01*
X44140Y-24704D01*
X44129Y-24700D01*
X43970Y-24699D01*
X43823Y-24760D01*
X43711Y-24873D01*
X43650Y-25020D01*
X43649Y-25179D01*
X43710Y-25326D01*
X43823Y-25438D01*
X43970Y-25499D01*
X44129Y-25500D01*
X44276Y-25439D01*
X44388Y-25326D01*
X44449Y-25179D01*
X44450Y-25020D01*
X44450Y-29254D01*
X44406Y-29211D01*
X44259Y-29150D01*
X44100Y-29149D01*
X43973Y-29202D01*
X43949Y-29143D01*
X43836Y-29031D01*
X43689Y-28970D01*
X43530Y-28969D01*
X43383Y-29030D01*
X43271Y-29143D01*
X43210Y-29290D01*
X43209Y-29449D01*
X43270Y-29596D01*
X43324Y-29650D01*
X43221Y-29753D01*
X43160Y-29900D01*
X43159Y-30059D01*
X43220Y-30206D01*
X43333Y-30318D01*
X43480Y-30379D01*
X43639Y-30380D01*
X43786Y-30319D01*
X43898Y-30206D01*
X43959Y-30059D01*
X43960Y-29900D01*
X43955Y-29889D01*
X44100Y-29949D01*
X44259Y-29950D01*
X44406Y-29889D01*
X44518Y-29776D01*
X44579Y-29629D01*
X44580Y-29470D01*
X44580Y-34945D01*
X44363Y-34956D01*
X44212Y-35018D01*
X44184Y-35114D01*
X44500Y-35429D01*
X44815Y-35114D01*
X44815Y-35255D01*
X44570Y-35500D01*
X44885Y-35815D01*
X44981Y-35787D01*
X44998Y-35739D01*
X45018Y-35787D01*
X45114Y-35815D01*
X45429Y-35500D01*
X45429Y-35641D01*
X45184Y-35885D01*
X45212Y-35981D01*
X45337Y-36026D01*
X45217Y-36075D01*
X45076Y-36216D01*
X45000Y-36400D01*
X45000Y-36401D01*
X45000Y-36400D01*
X44924Y-36217D01*
X44783Y-36076D01*
X44671Y-36029D01*
X44787Y-35981D01*
X44815Y-35885D01*
X44500Y-35570D01*
X44429Y-35641D01*
X44429Y-35500D01*
X44114Y-35184D01*
X44018Y-35212D01*
X44001Y-35260D01*
X43981Y-35212D01*
X43885Y-35184D01*
X43815Y-35255D01*
X43815Y-35114D01*
X43787Y-35018D01*
X43740Y-35001D01*
X43740Y-30750D01*
X43679Y-30603D01*
X43566Y-30491D01*
X43419Y-30430D01*
X43260Y-30429D01*
X43113Y-30490D01*
X43095Y-30509D01*
X43016Y-30431D01*
X43000Y-30424D01*
X43000Y-27460D01*
X42939Y-27313D01*
X42826Y-27201D01*
X42679Y-27140D01*
X42520Y-27139D01*
X42373Y-27200D01*
X42261Y-27313D01*
X42200Y-27460D01*
X42199Y-27619D01*
X42260Y-27766D01*
X42373Y-27878D01*
X42520Y-27939D01*
X42679Y-27940D01*
X42826Y-27879D01*
X42938Y-27766D01*
X42999Y-27619D01*
X43000Y-27460D01*
X43000Y-30424D01*
X42869Y-30370D01*
X42830Y-30370D01*
X42830Y-29130D01*
X42769Y-28983D01*
X42656Y-28871D01*
X42509Y-28810D01*
X42350Y-28809D01*
X42203Y-28870D01*
X42091Y-28983D01*
X42070Y-29033D01*
X42070Y-21800D01*
X42009Y-21653D01*
X41896Y-21541D01*
X41749Y-21480D01*
X41590Y-21479D01*
X41443Y-21540D01*
X41426Y-21557D01*
X41476Y-21438D01*
X41476Y-21162D01*
X41371Y-20908D01*
X41176Y-20713D01*
X40922Y-20607D01*
X40647Y-20607D01*
X40392Y-20712D01*
X40197Y-20907D01*
X40092Y-21161D01*
X40092Y-21437D01*
X40197Y-21691D01*
X40391Y-21886D01*
X40645Y-21992D01*
X40921Y-21992D01*
X41175Y-21887D01*
X41275Y-21787D01*
X41270Y-21800D01*
X41269Y-21959D01*
X41330Y-22106D01*
X41381Y-22157D01*
X41373Y-22160D01*
X41261Y-22273D01*
X41200Y-22420D01*
X41199Y-22579D01*
X41260Y-22726D01*
X41373Y-22838D01*
X41520Y-22899D01*
X41679Y-22900D01*
X41826Y-22839D01*
X41938Y-22726D01*
X41999Y-22579D01*
X42000Y-22420D01*
X41939Y-22273D01*
X41888Y-22222D01*
X41896Y-22219D01*
X42008Y-22106D01*
X42069Y-21959D01*
X42070Y-21800D01*
X42070Y-29033D01*
X42030Y-29130D01*
X42029Y-29289D01*
X42090Y-29436D01*
X42203Y-29548D01*
X42350Y-29609D01*
X42509Y-29610D01*
X42656Y-29549D01*
X42768Y-29436D01*
X42829Y-29289D01*
X42830Y-29130D01*
X42830Y-30370D01*
X42710Y-30369D01*
X42563Y-30430D01*
X42451Y-30543D01*
X42390Y-30690D01*
X42390Y-30130D01*
X42329Y-29983D01*
X42216Y-29871D01*
X42069Y-29810D01*
X41910Y-29809D01*
X41763Y-29870D01*
X41651Y-29983D01*
X41590Y-30130D01*
X41589Y-30289D01*
X41650Y-30436D01*
X41763Y-30548D01*
X41910Y-30609D01*
X42069Y-30610D01*
X42216Y-30549D01*
X42328Y-30436D01*
X42389Y-30289D01*
X42390Y-30130D01*
X42390Y-30690D01*
X42389Y-30849D01*
X42450Y-30996D01*
X42563Y-31108D01*
X42710Y-31169D01*
X42869Y-31170D01*
X43016Y-31109D01*
X43034Y-31090D01*
X43113Y-31168D01*
X43260Y-31229D01*
X43419Y-31230D01*
X43566Y-31169D01*
X43678Y-31056D01*
X43739Y-30909D01*
X43740Y-30750D01*
X43740Y-35001D01*
X43581Y-34945D01*
X43363Y-34956D01*
X43212Y-35018D01*
X43184Y-35114D01*
X43500Y-35429D01*
X43815Y-35114D01*
X43815Y-35255D01*
X43570Y-35500D01*
X43885Y-35815D01*
X43981Y-35787D01*
X43998Y-35739D01*
X44018Y-35787D01*
X44114Y-35815D01*
X44429Y-35500D01*
X44429Y-35641D01*
X44184Y-35885D01*
X44212Y-35981D01*
X44337Y-36026D01*
X44217Y-36075D01*
X44076Y-36216D01*
X44000Y-36400D01*
X44000Y-36401D01*
X44000Y-36400D01*
X43924Y-36217D01*
X43783Y-36076D01*
X43671Y-36029D01*
X43787Y-35981D01*
X43815Y-35885D01*
X43500Y-35570D01*
X43429Y-35641D01*
X43429Y-35500D01*
X43114Y-35184D01*
X43018Y-35212D01*
X43001Y-35260D01*
X42981Y-35212D01*
X42885Y-35184D01*
X42815Y-35255D01*
X42815Y-35114D01*
X42787Y-35018D01*
X42581Y-34945D01*
X42363Y-34956D01*
X42212Y-35018D01*
X42184Y-35114D01*
X42500Y-35429D01*
X42815Y-35114D01*
X42815Y-35255D01*
X42570Y-35500D01*
X42885Y-35815D01*
X42981Y-35787D01*
X42998Y-35739D01*
X43018Y-35787D01*
X43114Y-35815D01*
X43429Y-35500D01*
X43429Y-35641D01*
X43184Y-35885D01*
X43212Y-35981D01*
X43337Y-36026D01*
X43217Y-36075D01*
X43076Y-36216D01*
X43000Y-36400D01*
X43000Y-36401D01*
X43000Y-36400D01*
X42924Y-36217D01*
X42783Y-36076D01*
X42671Y-36029D01*
X42787Y-35981D01*
X42815Y-35885D01*
X42500Y-35570D01*
X42429Y-35641D01*
X42429Y-35500D01*
X42114Y-35184D01*
X42018Y-35212D01*
X42001Y-35260D01*
X41981Y-35212D01*
X41885Y-35184D01*
X41815Y-35255D01*
X41815Y-35114D01*
X41787Y-35018D01*
X41581Y-34945D01*
X41500Y-34949D01*
X41500Y-28000D01*
X41500Y-27000D01*
X41424Y-26817D01*
X41283Y-26676D01*
X41099Y-26600D01*
X40900Y-26599D01*
X40760Y-26658D01*
X40760Y-25080D01*
X40699Y-24933D01*
X40586Y-24821D01*
X40439Y-24760D01*
X40280Y-24759D01*
X40133Y-24820D01*
X40021Y-24933D01*
X39960Y-25080D01*
X39959Y-25239D01*
X40020Y-25386D01*
X40133Y-25498D01*
X40280Y-25559D01*
X40439Y-25560D01*
X40586Y-25499D01*
X40698Y-25386D01*
X40759Y-25239D01*
X40760Y-25080D01*
X40760Y-26658D01*
X40717Y-26675D01*
X40576Y-26816D01*
X40500Y-27000D01*
X40499Y-27199D01*
X40575Y-27382D01*
X40716Y-27523D01*
X40900Y-27599D01*
X41099Y-27600D01*
X41282Y-27524D01*
X41423Y-27383D01*
X41499Y-27199D01*
X41500Y-27000D01*
X41500Y-28000D01*
X41424Y-27817D01*
X41283Y-27676D01*
X41099Y-27600D01*
X40900Y-27599D01*
X40717Y-27675D01*
X40576Y-27816D01*
X40500Y-28000D01*
X40500Y-28060D01*
X40500Y-27760D01*
X40469Y-27686D01*
X40413Y-27630D01*
X40339Y-27600D01*
X40260Y-27599D01*
X40099Y-27599D01*
X40282Y-27524D01*
X40423Y-27383D01*
X40499Y-27199D01*
X40500Y-27000D01*
X40500Y-26000D01*
X40424Y-25817D01*
X40283Y-25676D01*
X40099Y-25600D01*
X39900Y-25599D01*
X39738Y-25667D01*
X39838Y-25566D01*
X39899Y-25419D01*
X39900Y-25260D01*
X39839Y-25113D01*
X39726Y-25001D01*
X39700Y-24989D01*
X39700Y-24320D01*
X39639Y-24173D01*
X39526Y-24061D01*
X39507Y-24053D01*
X39507Y-21162D01*
X39402Y-20908D01*
X39208Y-20713D01*
X38954Y-20607D01*
X38678Y-20607D01*
X38424Y-20712D01*
X38229Y-20907D01*
X38123Y-21161D01*
X38123Y-21437D01*
X38228Y-21691D01*
X38423Y-21886D01*
X38677Y-21992D01*
X38952Y-21992D01*
X39207Y-21887D01*
X39402Y-21692D01*
X39507Y-21438D01*
X39507Y-21162D01*
X39507Y-24053D01*
X39379Y-24000D01*
X39220Y-23999D01*
X39073Y-24060D01*
X39050Y-24084D01*
X39026Y-24061D01*
X38879Y-24000D01*
X38720Y-23999D01*
X38573Y-24060D01*
X38461Y-24173D01*
X38400Y-24320D01*
X38399Y-24479D01*
X38460Y-24626D01*
X38573Y-24738D01*
X38720Y-24799D01*
X38879Y-24800D01*
X39026Y-24739D01*
X39049Y-24715D01*
X39073Y-24738D01*
X39220Y-24799D01*
X39379Y-24800D01*
X39526Y-24739D01*
X39638Y-24626D01*
X39699Y-24479D01*
X39700Y-24320D01*
X39700Y-24989D01*
X39579Y-24940D01*
X39420Y-24939D01*
X39273Y-25000D01*
X39161Y-25113D01*
X39100Y-25260D01*
X39099Y-25419D01*
X39160Y-25566D01*
X39273Y-25678D01*
X39420Y-25739D01*
X39579Y-25740D01*
X39704Y-25688D01*
X39576Y-25816D01*
X39500Y-26000D01*
X39499Y-26199D01*
X39575Y-26382D01*
X39716Y-26523D01*
X39900Y-26599D01*
X40099Y-26600D01*
X40282Y-26524D01*
X40423Y-26383D01*
X40499Y-26199D01*
X40500Y-26000D01*
X40500Y-27000D01*
X40424Y-26817D01*
X40283Y-26676D01*
X40099Y-26600D01*
X39900Y-26599D01*
X39717Y-26675D01*
X39576Y-26816D01*
X39500Y-27000D01*
X39499Y-27199D01*
X39575Y-27382D01*
X39716Y-27523D01*
X39900Y-27599D01*
X39960Y-27599D01*
X39660Y-27599D01*
X39586Y-27630D01*
X39530Y-27686D01*
X39500Y-27760D01*
X39499Y-27839D01*
X39499Y-28439D01*
X39530Y-28513D01*
X39586Y-28569D01*
X39660Y-28599D01*
X39739Y-28600D01*
X40339Y-28600D01*
X40413Y-28569D01*
X40469Y-28513D01*
X40499Y-28439D01*
X40500Y-28360D01*
X40500Y-28199D01*
X40575Y-28382D01*
X40716Y-28523D01*
X40900Y-28599D01*
X41099Y-28600D01*
X41282Y-28524D01*
X41423Y-28383D01*
X41499Y-28199D01*
X41500Y-28000D01*
X41500Y-34949D01*
X41363Y-34956D01*
X41212Y-35018D01*
X41184Y-35114D01*
X41500Y-35429D01*
X41815Y-35114D01*
X41815Y-35255D01*
X41570Y-35500D01*
X41885Y-35815D01*
X41981Y-35787D01*
X41998Y-35739D01*
X42018Y-35787D01*
X42114Y-35815D01*
X42429Y-35500D01*
X42429Y-35641D01*
X42184Y-35885D01*
X42212Y-35981D01*
X42337Y-36026D01*
X42217Y-36075D01*
X42076Y-36216D01*
X42000Y-36400D01*
X42000Y-36401D01*
X42000Y-36400D01*
X41924Y-36217D01*
X41783Y-36076D01*
X41671Y-36029D01*
X41787Y-35981D01*
X41815Y-35885D01*
X41500Y-35570D01*
X41429Y-35641D01*
X41429Y-35500D01*
X41114Y-35184D01*
X41018Y-35212D01*
X41001Y-35260D01*
X40981Y-35212D01*
X40885Y-35184D01*
X40840Y-35230D01*
X40840Y-31020D01*
X40825Y-30984D01*
X40825Y-29945D01*
X40764Y-29798D01*
X40651Y-29686D01*
X40504Y-29625D01*
X40345Y-29624D01*
X40198Y-29685D01*
X40086Y-29798D01*
X40025Y-29945D01*
X40024Y-30104D01*
X40085Y-30251D01*
X40198Y-30363D01*
X40345Y-30424D01*
X40504Y-30425D01*
X40651Y-30364D01*
X40763Y-30251D01*
X40824Y-30104D01*
X40825Y-29945D01*
X40825Y-30984D01*
X40779Y-30873D01*
X40666Y-30761D01*
X40519Y-30700D01*
X40360Y-30699D01*
X40213Y-30760D01*
X40101Y-30873D01*
X40040Y-31020D01*
X40039Y-31179D01*
X40100Y-31326D01*
X40213Y-31438D01*
X40326Y-31485D01*
X40193Y-31540D01*
X40081Y-31653D01*
X40020Y-31800D01*
X40019Y-31959D01*
X40080Y-32106D01*
X40193Y-32218D01*
X40340Y-32279D01*
X40499Y-32280D01*
X40646Y-32219D01*
X40758Y-32106D01*
X40819Y-31959D01*
X40820Y-31800D01*
X40759Y-31653D01*
X40646Y-31541D01*
X40533Y-31494D01*
X40666Y-31439D01*
X40778Y-31326D01*
X40839Y-31179D01*
X40840Y-31020D01*
X40840Y-35230D01*
X40815Y-35255D01*
X40815Y-35114D01*
X40787Y-35018D01*
X40581Y-34945D01*
X40363Y-34956D01*
X40212Y-35018D01*
X40184Y-35114D01*
X40500Y-35429D01*
X40815Y-35114D01*
X40815Y-35255D01*
X40570Y-35500D01*
X40885Y-35815D01*
X40981Y-35787D01*
X40998Y-35739D01*
X41018Y-35787D01*
X41114Y-35815D01*
X41429Y-35500D01*
X41429Y-35641D01*
X41184Y-35885D01*
X41212Y-35981D01*
X41337Y-36026D01*
X41217Y-36075D01*
X41076Y-36216D01*
X41000Y-36400D01*
X41000Y-36401D01*
X41000Y-36400D01*
X40924Y-36217D01*
X40783Y-36076D01*
X40671Y-36029D01*
X40787Y-35981D01*
X40815Y-35885D01*
X40500Y-35570D01*
X40429Y-35641D01*
X40429Y-35500D01*
X40114Y-35184D01*
X40018Y-35212D01*
X40001Y-35260D01*
X39981Y-35212D01*
X39900Y-35188D01*
X39900Y-32300D01*
X39840Y-32155D01*
X39840Y-31388D01*
X39779Y-31241D01*
X39666Y-31129D01*
X39519Y-31068D01*
X39360Y-31067D01*
X39300Y-31093D01*
X39300Y-30700D01*
X39224Y-30517D01*
X39083Y-30376D01*
X38899Y-30300D01*
X38839Y-30300D01*
X39139Y-30300D01*
X39213Y-30269D01*
X39269Y-30213D01*
X39299Y-30139D01*
X39300Y-30060D01*
X39300Y-29460D01*
X39269Y-29386D01*
X39213Y-29330D01*
X39140Y-29300D01*
X39140Y-28300D01*
X39079Y-28153D01*
X38966Y-28041D01*
X38819Y-27980D01*
X38660Y-27979D01*
X38513Y-28040D01*
X38401Y-28153D01*
X38350Y-28276D01*
X38350Y-26870D01*
X38289Y-26723D01*
X38176Y-26611D01*
X38029Y-26550D01*
X37870Y-26549D01*
X37723Y-26610D01*
X37611Y-26723D01*
X37595Y-26760D01*
X37595Y-26651D01*
X37595Y-25651D01*
X37595Y-24651D01*
X37593Y-24645D01*
X37593Y-21427D01*
X37585Y-21132D01*
X37487Y-20896D01*
X37372Y-20845D01*
X37301Y-20916D01*
X37301Y-20775D01*
X37250Y-20659D01*
X36974Y-20554D01*
X36679Y-20562D01*
X36443Y-20659D01*
X36393Y-20775D01*
X36847Y-21229D01*
X37301Y-20775D01*
X37301Y-20916D01*
X36917Y-21300D01*
X37372Y-21754D01*
X37487Y-21703D01*
X37593Y-21427D01*
X37593Y-24645D01*
X37520Y-24469D01*
X37381Y-24330D01*
X37301Y-24297D01*
X37301Y-21824D01*
X36847Y-21370D01*
X36776Y-21441D01*
X36776Y-21300D01*
X36322Y-20845D01*
X36207Y-20896D01*
X36101Y-21172D01*
X36109Y-21467D01*
X36207Y-21703D01*
X36322Y-21754D01*
X36776Y-21300D01*
X36776Y-21441D01*
X36393Y-21824D01*
X36443Y-21940D01*
X36719Y-22045D01*
X37014Y-22037D01*
X37250Y-21940D01*
X37301Y-21824D01*
X37301Y-24297D01*
X37198Y-24254D01*
X37001Y-24254D01*
X36819Y-24329D01*
X36680Y-24468D01*
X36604Y-24651D01*
X36604Y-24848D01*
X36679Y-25030D01*
X36818Y-25169D01*
X37001Y-25245D01*
X37198Y-25245D01*
X37380Y-25170D01*
X37519Y-25031D01*
X37595Y-24848D01*
X37595Y-24651D01*
X37595Y-25651D01*
X37520Y-25469D01*
X37381Y-25330D01*
X37198Y-25254D01*
X37001Y-25254D01*
X36819Y-25329D01*
X36680Y-25468D01*
X36604Y-25651D01*
X36604Y-25848D01*
X36679Y-26030D01*
X36818Y-26169D01*
X37001Y-26245D01*
X37198Y-26245D01*
X37380Y-26170D01*
X37519Y-26031D01*
X37595Y-25848D01*
X37595Y-25651D01*
X37595Y-26651D01*
X37520Y-26469D01*
X37381Y-26330D01*
X37198Y-26254D01*
X37001Y-26254D01*
X36819Y-26329D01*
X36680Y-26468D01*
X36604Y-26651D01*
X36604Y-26848D01*
X36679Y-27030D01*
X36818Y-27169D01*
X37001Y-27245D01*
X37198Y-27245D01*
X37380Y-27170D01*
X37519Y-27031D01*
X37549Y-26958D01*
X37549Y-27029D01*
X37610Y-27176D01*
X37723Y-27288D01*
X37870Y-27349D01*
X38029Y-27350D01*
X38176Y-27289D01*
X38288Y-27176D01*
X38349Y-27029D01*
X38350Y-26870D01*
X38350Y-28276D01*
X38340Y-28300D01*
X38339Y-28459D01*
X38400Y-28606D01*
X38513Y-28718D01*
X38660Y-28779D01*
X38819Y-28780D01*
X38966Y-28719D01*
X39078Y-28606D01*
X39139Y-28459D01*
X39140Y-28300D01*
X39140Y-29300D01*
X39139Y-29300D01*
X39060Y-29299D01*
X38460Y-29299D01*
X38386Y-29330D01*
X38330Y-29386D01*
X38300Y-29460D01*
X38299Y-29539D01*
X38299Y-30139D01*
X38330Y-30213D01*
X38386Y-30269D01*
X38460Y-30299D01*
X38539Y-30300D01*
X38700Y-30300D01*
X38517Y-30375D01*
X38376Y-30516D01*
X38300Y-30700D01*
X38299Y-30899D01*
X38375Y-31082D01*
X38516Y-31223D01*
X38700Y-31299D01*
X38899Y-31300D01*
X39082Y-31224D01*
X39223Y-31083D01*
X39299Y-30899D01*
X39300Y-30700D01*
X39300Y-31093D01*
X39213Y-31128D01*
X39101Y-31241D01*
X39040Y-31388D01*
X39039Y-31547D01*
X39100Y-31694D01*
X39213Y-31806D01*
X39360Y-31867D01*
X39519Y-31868D01*
X39666Y-31807D01*
X39778Y-31694D01*
X39839Y-31547D01*
X39840Y-31388D01*
X39840Y-32155D01*
X39824Y-32117D01*
X39683Y-31976D01*
X39499Y-31900D01*
X39300Y-31899D01*
X39117Y-31975D01*
X38976Y-32116D01*
X38900Y-32300D01*
X38900Y-32360D01*
X38900Y-32060D01*
X38869Y-31986D01*
X38813Y-31930D01*
X38739Y-31900D01*
X38660Y-31899D01*
X38060Y-31899D01*
X37986Y-31930D01*
X37930Y-31986D01*
X37900Y-32060D01*
X37899Y-32139D01*
X37899Y-32739D01*
X37930Y-32813D01*
X37986Y-32869D01*
X38060Y-32899D01*
X38139Y-32900D01*
X38739Y-32900D01*
X38813Y-32869D01*
X38869Y-32813D01*
X38899Y-32739D01*
X38900Y-32660D01*
X38900Y-32499D01*
X38975Y-32682D01*
X39116Y-32823D01*
X39300Y-32899D01*
X39499Y-32900D01*
X39682Y-32824D01*
X39823Y-32683D01*
X39899Y-32499D01*
X39900Y-32300D01*
X39900Y-35188D01*
X39885Y-35184D01*
X39815Y-35255D01*
X39815Y-35114D01*
X39787Y-35018D01*
X39581Y-34945D01*
X39400Y-34954D01*
X39400Y-33320D01*
X39339Y-33173D01*
X39226Y-33061D01*
X39079Y-33000D01*
X38920Y-32999D01*
X38773Y-33060D01*
X38661Y-33173D01*
X38600Y-33320D01*
X38599Y-33479D01*
X38660Y-33626D01*
X38773Y-33738D01*
X38920Y-33799D01*
X39079Y-33800D01*
X39226Y-33739D01*
X39338Y-33626D01*
X39399Y-33479D01*
X39400Y-33320D01*
X39400Y-34954D01*
X39363Y-34956D01*
X39212Y-35018D01*
X39184Y-35114D01*
X39500Y-35429D01*
X39815Y-35114D01*
X39815Y-35255D01*
X39570Y-35500D01*
X39885Y-35815D01*
X39981Y-35787D01*
X39998Y-35739D01*
X40018Y-35787D01*
X40114Y-35815D01*
X40429Y-35500D01*
X40429Y-35641D01*
X40184Y-35885D01*
X40212Y-35981D01*
X40337Y-36026D01*
X40217Y-36075D01*
X40076Y-36216D01*
X40000Y-36400D01*
X40000Y-36401D01*
X40000Y-36400D01*
X39924Y-36217D01*
X39783Y-36076D01*
X39671Y-36029D01*
X39787Y-35981D01*
X39815Y-35885D01*
X39500Y-35570D01*
X39429Y-35641D01*
X39429Y-35500D01*
X39114Y-35184D01*
X39018Y-35212D01*
X38945Y-35418D01*
X38956Y-35636D01*
X39018Y-35787D01*
X39114Y-35815D01*
X39429Y-35500D01*
X39429Y-35641D01*
X39184Y-35885D01*
X39212Y-35981D01*
X39337Y-36026D01*
X39217Y-36075D01*
X39076Y-36216D01*
X39000Y-36400D01*
X38999Y-36599D01*
X39075Y-36782D01*
X39216Y-36923D01*
X39400Y-36999D01*
X39599Y-37000D01*
X39782Y-36924D01*
X39923Y-36783D01*
X39999Y-36599D01*
X40000Y-36400D01*
X40000Y-36401D01*
X39999Y-36599D01*
X40075Y-36782D01*
X40216Y-36923D01*
X40400Y-36999D01*
X40599Y-37000D01*
X40782Y-36924D01*
X40923Y-36783D01*
X40999Y-36599D01*
X41000Y-36400D01*
X41000Y-36401D01*
X40999Y-36599D01*
X41075Y-36782D01*
X41216Y-36923D01*
X41400Y-36999D01*
X41599Y-37000D01*
X41782Y-36924D01*
X41923Y-36783D01*
X41999Y-36599D01*
X42000Y-36400D01*
X42000Y-36401D01*
X41999Y-36599D01*
X42075Y-36782D01*
X42216Y-36923D01*
X42400Y-36999D01*
X42599Y-37000D01*
X42782Y-36924D01*
X42923Y-36783D01*
X42999Y-36599D01*
X43000Y-36400D01*
X43000Y-36401D01*
X42999Y-36599D01*
X43075Y-36782D01*
X43216Y-36923D01*
X43400Y-36999D01*
X43599Y-37000D01*
X43782Y-36924D01*
X43923Y-36783D01*
X43999Y-36599D01*
X44000Y-36400D01*
X44000Y-36401D01*
X43999Y-36599D01*
X44075Y-36782D01*
X44216Y-36923D01*
X44400Y-36999D01*
X44599Y-37000D01*
X44782Y-36924D01*
X44923Y-36783D01*
X44999Y-36599D01*
X45000Y-36400D01*
X45000Y-36401D01*
X44999Y-36599D01*
X45075Y-36782D01*
X45216Y-36923D01*
X45400Y-36999D01*
X45599Y-37000D01*
X45782Y-36924D01*
X45923Y-36783D01*
X45999Y-36599D01*
X45999Y-36539D01*
X45999Y-36839D01*
X46030Y-36913D01*
X46086Y-36969D01*
X46160Y-36999D01*
X46239Y-37000D01*
X46839Y-37000D01*
X46913Y-36969D01*
X46969Y-36913D01*
X46999Y-36839D01*
X47000Y-36760D01*
X47000Y-37704D01*
X46697Y-37402D01*
X46607Y-37341D01*
X46500Y-37320D01*
X38900Y-37320D01*
X38900Y-36120D01*
X38839Y-35973D01*
X38726Y-35861D01*
X38579Y-35800D01*
X38420Y-35799D01*
X38273Y-35860D01*
X38161Y-35973D01*
X38100Y-36120D01*
X38099Y-36279D01*
X38160Y-36426D01*
X38273Y-36538D01*
X38420Y-36599D01*
X38579Y-36600D01*
X38726Y-36539D01*
X38838Y-36426D01*
X38899Y-36279D01*
X38900Y-36120D01*
X38900Y-37320D01*
X38585Y-37320D01*
X38526Y-37261D01*
X38379Y-37200D01*
X38220Y-37199D01*
X38073Y-37260D01*
X37961Y-37373D01*
X37930Y-37447D01*
X37930Y-37095D01*
X37849Y-36900D01*
X37700Y-36750D01*
X37595Y-36707D01*
X37595Y-33951D01*
X37595Y-32951D01*
X37595Y-31951D01*
X37595Y-30951D01*
X37595Y-27651D01*
X37520Y-27469D01*
X37381Y-27330D01*
X37198Y-27254D01*
X37001Y-27254D01*
X36819Y-27329D01*
X36680Y-27468D01*
X36604Y-27651D01*
X36604Y-27848D01*
X36679Y-28030D01*
X36818Y-28169D01*
X37001Y-28245D01*
X37198Y-28245D01*
X37380Y-28170D01*
X37519Y-28031D01*
X37595Y-27848D01*
X37595Y-27651D01*
X37595Y-30951D01*
X37520Y-30769D01*
X37381Y-30630D01*
X37198Y-30554D01*
X37001Y-30554D01*
X36819Y-30629D01*
X36680Y-30768D01*
X36604Y-30951D01*
X36604Y-31148D01*
X36679Y-31330D01*
X36818Y-31469D01*
X37001Y-31545D01*
X37198Y-31545D01*
X37380Y-31470D01*
X37519Y-31331D01*
X37595Y-31148D01*
X37595Y-30951D01*
X37595Y-31951D01*
X37520Y-31769D01*
X37381Y-31630D01*
X37198Y-31554D01*
X37001Y-31554D01*
X36819Y-31629D01*
X36680Y-31768D01*
X36604Y-31951D01*
X36604Y-32148D01*
X36679Y-32330D01*
X36818Y-32469D01*
X37001Y-32545D01*
X37198Y-32545D01*
X37380Y-32470D01*
X37519Y-32331D01*
X37595Y-32148D01*
X37595Y-31951D01*
X37595Y-32951D01*
X37520Y-32769D01*
X37381Y-32630D01*
X37198Y-32554D01*
X37001Y-32554D01*
X36819Y-32629D01*
X36680Y-32768D01*
X36604Y-32951D01*
X36604Y-33148D01*
X36679Y-33330D01*
X36818Y-33469D01*
X37001Y-33545D01*
X37198Y-33545D01*
X37380Y-33470D01*
X37519Y-33331D01*
X37595Y-33148D01*
X37595Y-32951D01*
X37595Y-33951D01*
X37520Y-33769D01*
X37381Y-33630D01*
X37198Y-33554D01*
X37001Y-33554D01*
X36819Y-33629D01*
X36680Y-33768D01*
X36604Y-33951D01*
X36604Y-34148D01*
X36679Y-34330D01*
X36818Y-34469D01*
X37001Y-34545D01*
X37198Y-34545D01*
X37380Y-34470D01*
X37519Y-34331D01*
X37595Y-34148D01*
X37595Y-33951D01*
X37595Y-36707D01*
X37505Y-36670D01*
X37295Y-36669D01*
X37100Y-36750D01*
X36950Y-36899D01*
X36929Y-36950D01*
X36906Y-36894D01*
X36807Y-36863D01*
X36736Y-36933D01*
X36736Y-36792D01*
X36705Y-36693D01*
X36595Y-36653D01*
X36595Y-33451D01*
X36595Y-32451D01*
X36595Y-31451D01*
X36595Y-27151D01*
X36595Y-26151D01*
X36595Y-25151D01*
X36520Y-24969D01*
X36381Y-24830D01*
X36198Y-24754D01*
X36001Y-24754D01*
X35819Y-24829D01*
X35680Y-24968D01*
X35650Y-25040D01*
X35593Y-24904D01*
X35397Y-24706D01*
X35139Y-24600D01*
X34861Y-24599D01*
X34604Y-24706D01*
X34518Y-24791D01*
X34518Y-23980D01*
X34379Y-23642D01*
X34120Y-23383D01*
X33783Y-23243D01*
X33418Y-23243D01*
X33080Y-23382D01*
X32821Y-23641D01*
X32681Y-23978D01*
X32681Y-24343D01*
X32820Y-24681D01*
X33079Y-24940D01*
X33416Y-25080D01*
X33781Y-25080D01*
X34119Y-24941D01*
X34378Y-24682D01*
X34518Y-24345D01*
X34518Y-23980D01*
X34518Y-24791D01*
X34406Y-24902D01*
X34300Y-25160D01*
X34299Y-25438D01*
X34406Y-25696D01*
X34602Y-25893D01*
X34860Y-25999D01*
X35138Y-26000D01*
X35396Y-25893D01*
X35593Y-25697D01*
X35671Y-25509D01*
X35679Y-25530D01*
X35818Y-25669D01*
X36001Y-25745D01*
X36198Y-25745D01*
X36380Y-25670D01*
X36519Y-25531D01*
X36595Y-25348D01*
X36595Y-25151D01*
X36595Y-26151D01*
X36520Y-25969D01*
X36381Y-25830D01*
X36198Y-25754D01*
X36001Y-25754D01*
X35819Y-25829D01*
X35680Y-25968D01*
X35604Y-26151D01*
X35604Y-26348D01*
X35679Y-26530D01*
X35818Y-26669D01*
X36001Y-26745D01*
X36198Y-26745D01*
X36380Y-26670D01*
X36519Y-26531D01*
X36595Y-26348D01*
X36595Y-26151D01*
X36595Y-27151D01*
X36520Y-26969D01*
X36381Y-26830D01*
X36198Y-26754D01*
X36001Y-26754D01*
X35819Y-26829D01*
X35693Y-26955D01*
X35699Y-26939D01*
X35700Y-26661D01*
X35593Y-26404D01*
X35397Y-26206D01*
X35139Y-26100D01*
X34861Y-26099D01*
X34604Y-26206D01*
X34406Y-26402D01*
X34300Y-26660D01*
X34299Y-26938D01*
X34406Y-27196D01*
X34602Y-27393D01*
X34860Y-27499D01*
X35138Y-27500D01*
X35396Y-27393D01*
X35593Y-27197D01*
X35604Y-27169D01*
X35604Y-27348D01*
X35679Y-27530D01*
X35818Y-27669D01*
X36001Y-27745D01*
X36198Y-27745D01*
X36380Y-27670D01*
X36519Y-27531D01*
X36595Y-27348D01*
X36595Y-27151D01*
X36595Y-31451D01*
X36595Y-31451D01*
X36595Y-28505D01*
X36595Y-27914D01*
X36565Y-27841D01*
X36508Y-27785D01*
X36435Y-27754D01*
X36355Y-27754D01*
X35764Y-27754D01*
X35700Y-27781D01*
X35700Y-27760D01*
X35669Y-27686D01*
X35613Y-27630D01*
X35539Y-27600D01*
X35460Y-27599D01*
X34460Y-27599D01*
X34386Y-27630D01*
X34330Y-27686D01*
X34300Y-27760D01*
X34299Y-27839D01*
X34299Y-28236D01*
X34120Y-28056D01*
X33783Y-27916D01*
X33418Y-27916D01*
X33080Y-28055D01*
X32821Y-28314D01*
X32681Y-28651D01*
X32681Y-29016D01*
X32820Y-29354D01*
X33079Y-29613D01*
X33163Y-29648D01*
X33080Y-29682D01*
X32821Y-29941D01*
X32681Y-30278D01*
X32681Y-30643D01*
X32820Y-30981D01*
X33079Y-31240D01*
X33416Y-31380D01*
X33781Y-31380D01*
X34119Y-31241D01*
X34378Y-30982D01*
X34518Y-30645D01*
X34518Y-30280D01*
X34379Y-29942D01*
X34120Y-29683D01*
X34036Y-29648D01*
X34119Y-29614D01*
X34378Y-29355D01*
X34518Y-29018D01*
X34518Y-29000D01*
X34539Y-29000D01*
X35539Y-29000D01*
X35613Y-28969D01*
X35669Y-28913D01*
X35699Y-28839D01*
X35700Y-28760D01*
X35700Y-28718D01*
X35764Y-28745D01*
X35844Y-28745D01*
X36435Y-28745D01*
X36508Y-28715D01*
X36564Y-28658D01*
X36595Y-28585D01*
X36595Y-28505D01*
X36595Y-31451D01*
X36520Y-31269D01*
X36381Y-31130D01*
X36198Y-31054D01*
X36001Y-31054D01*
X35819Y-31129D01*
X35680Y-31268D01*
X35604Y-31451D01*
X35604Y-31648D01*
X35679Y-31830D01*
X35818Y-31969D01*
X36001Y-32045D01*
X36198Y-32045D01*
X36380Y-31970D01*
X36519Y-31831D01*
X36595Y-31648D01*
X36595Y-31451D01*
X36595Y-32451D01*
X36520Y-32269D01*
X36381Y-32130D01*
X36198Y-32054D01*
X36001Y-32054D01*
X35819Y-32129D01*
X35680Y-32268D01*
X35604Y-32451D01*
X35604Y-32648D01*
X35679Y-32830D01*
X35818Y-32969D01*
X36001Y-33045D01*
X36198Y-33045D01*
X36380Y-32970D01*
X36519Y-32831D01*
X36595Y-32648D01*
X36595Y-32451D01*
X36595Y-33451D01*
X36520Y-33269D01*
X36381Y-33130D01*
X36198Y-33054D01*
X36001Y-33054D01*
X35819Y-33129D01*
X35680Y-33268D01*
X35604Y-33451D01*
X35604Y-33648D01*
X35679Y-33830D01*
X35818Y-33969D01*
X36001Y-34045D01*
X36198Y-34045D01*
X36380Y-33970D01*
X36519Y-33831D01*
X36595Y-33648D01*
X36595Y-33451D01*
X36595Y-36653D01*
X36595Y-36653D01*
X36595Y-34805D01*
X36595Y-34214D01*
X36565Y-34141D01*
X36508Y-34085D01*
X36435Y-34054D01*
X36355Y-34054D01*
X35764Y-34054D01*
X35691Y-34084D01*
X35635Y-34141D01*
X35604Y-34214D01*
X35604Y-34294D01*
X35604Y-34885D01*
X35634Y-34958D01*
X35691Y-35014D01*
X35764Y-35045D01*
X35844Y-35045D01*
X36435Y-35045D01*
X36508Y-35015D01*
X36564Y-34958D01*
X36595Y-34885D01*
X36595Y-34805D01*
X36595Y-36653D01*
X36488Y-36615D01*
X36258Y-36625D01*
X36094Y-36693D01*
X36063Y-36792D01*
X36400Y-37129D01*
X36736Y-36792D01*
X36736Y-36933D01*
X36470Y-37200D01*
X36807Y-37536D01*
X36906Y-37505D01*
X36927Y-37445D01*
X36950Y-37499D01*
X37099Y-37649D01*
X37294Y-37729D01*
X37504Y-37730D01*
X37699Y-37649D01*
X37849Y-37500D01*
X37929Y-37305D01*
X37930Y-37095D01*
X37930Y-37447D01*
X37900Y-37520D01*
X37899Y-37679D01*
X37960Y-37826D01*
X38073Y-37938D01*
X38220Y-37999D01*
X38379Y-38000D01*
X38472Y-37961D01*
X38461Y-37973D01*
X38400Y-38120D01*
X38399Y-38279D01*
X38460Y-38426D01*
X38573Y-38538D01*
X38720Y-38599D01*
X38879Y-38600D01*
X38999Y-38550D01*
X38999Y-38599D01*
X39041Y-38700D01*
X36736Y-38700D01*
X36736Y-37607D01*
X36400Y-37270D01*
X36329Y-37341D01*
X36329Y-37200D01*
X35992Y-36863D01*
X35893Y-36894D01*
X35872Y-36954D01*
X35849Y-36900D01*
X35700Y-36750D01*
X35600Y-36709D01*
X35600Y-33820D01*
X35539Y-33673D01*
X35426Y-33561D01*
X35279Y-33500D01*
X35120Y-33499D01*
X34973Y-33560D01*
X34861Y-33673D01*
X34800Y-33820D01*
X34799Y-33979D01*
X34860Y-34126D01*
X34973Y-34238D01*
X35120Y-34299D01*
X35279Y-34300D01*
X35426Y-34239D01*
X35538Y-34126D01*
X35599Y-33979D01*
X35600Y-33820D01*
X35600Y-36709D01*
X35505Y-36670D01*
X35295Y-36669D01*
X35100Y-36750D01*
X34950Y-36899D01*
X34870Y-37094D01*
X34869Y-37304D01*
X34950Y-37499D01*
X35099Y-37649D01*
X35294Y-37729D01*
X35504Y-37730D01*
X35699Y-37649D01*
X35849Y-37500D01*
X35870Y-37449D01*
X35893Y-37505D01*
X35992Y-37536D01*
X36329Y-37200D01*
X36329Y-37341D01*
X36063Y-37607D01*
X36094Y-37706D01*
X36311Y-37784D01*
X36541Y-37774D01*
X36705Y-37706D01*
X36736Y-37607D01*
X36736Y-38700D01*
X36200Y-38700D01*
X36200Y-38150D01*
X35990Y-38150D01*
X35990Y-37920D01*
X35109Y-37920D01*
X35109Y-38150D01*
X34737Y-38150D01*
X34745Y-38129D01*
X34746Y-37463D01*
X34518Y-36912D01*
X34518Y-34953D01*
X34379Y-34615D01*
X34180Y-34415D01*
X34180Y-31980D01*
X34119Y-31833D01*
X34006Y-31721D01*
X33859Y-31660D01*
X33700Y-31659D01*
X33553Y-31720D01*
X33441Y-31833D01*
X33380Y-31980D01*
X33379Y-32139D01*
X33440Y-32286D01*
X33553Y-32398D01*
X33700Y-32459D01*
X33859Y-32460D01*
X34006Y-32399D01*
X34118Y-32286D01*
X34179Y-32139D01*
X34180Y-31980D01*
X34180Y-34415D01*
X34160Y-34395D01*
X34160Y-33220D01*
X34099Y-33073D01*
X33986Y-32961D01*
X33839Y-32900D01*
X33680Y-32899D01*
X33533Y-32960D01*
X33421Y-33073D01*
X33360Y-33220D01*
X33359Y-33379D01*
X33420Y-33526D01*
X33533Y-33638D01*
X33680Y-33699D01*
X33839Y-33700D01*
X33986Y-33639D01*
X34098Y-33526D01*
X34159Y-33379D01*
X34160Y-33220D01*
X34160Y-34395D01*
X34120Y-34356D01*
X33783Y-34216D01*
X33418Y-34216D01*
X33080Y-34355D01*
X32900Y-34535D01*
X32900Y-33020D01*
X32839Y-32873D01*
X32726Y-32761D01*
X32579Y-32700D01*
X32420Y-32699D01*
X32273Y-32760D01*
X32161Y-32873D01*
X32100Y-33020D01*
X32099Y-33179D01*
X32160Y-33326D01*
X32273Y-33438D01*
X32420Y-33499D01*
X32579Y-33500D01*
X32726Y-33439D01*
X32838Y-33326D01*
X32899Y-33179D01*
X32900Y-33020D01*
X32900Y-34535D01*
X32821Y-34614D01*
X32681Y-34951D01*
X32681Y-35316D01*
X32820Y-35654D01*
X33079Y-35913D01*
X33416Y-36053D01*
X33781Y-36053D01*
X34119Y-35914D01*
X34378Y-35655D01*
X34518Y-35318D01*
X34518Y-34953D01*
X34518Y-36912D01*
X34491Y-36847D01*
X34020Y-36376D01*
X33405Y-36120D01*
X32739Y-36119D01*
X32123Y-36374D01*
X32050Y-36447D01*
X32050Y-22559D01*
X32140Y-22649D01*
X32743Y-22900D01*
X33395Y-22900D01*
X33998Y-22651D01*
X34400Y-22250D01*
X34399Y-22379D01*
X34460Y-22526D01*
X34573Y-22638D01*
X34720Y-22699D01*
X34879Y-22700D01*
X35026Y-22639D01*
X35138Y-22526D01*
X35199Y-22379D01*
X35200Y-22220D01*
X35139Y-22073D01*
X35026Y-21961D01*
X34879Y-21900D01*
X34720Y-21899D01*
X34573Y-21960D01*
X34543Y-21990D01*
X34711Y-21587D01*
X34711Y-20934D01*
X34462Y-20331D01*
X34430Y-20300D01*
X47763Y-20300D01*
X47786Y-20412D01*
X47876Y-20548D01*
X47939Y-20589D01*
X47899Y-20629D01*
X47855Y-20735D01*
X47855Y-20850D01*
X47899Y-20956D01*
X47955Y-21012D01*
X47945Y-21008D01*
X47844Y-21008D01*
X47831Y-20940D01*
X47740Y-20805D01*
X47605Y-20715D01*
X47446Y-20683D01*
X47281Y-20683D01*
X47273Y-20671D01*
X47144Y-20585D01*
X46992Y-20554D01*
X46840Y-20585D01*
X46711Y-20671D01*
X46625Y-20799D01*
X46595Y-20951D01*
X46595Y-21248D01*
X46625Y-21400D01*
X46711Y-21528D01*
X46840Y-21614D01*
X46992Y-21645D01*
X47144Y-21614D01*
X47273Y-21528D01*
X47281Y-21516D01*
X47446Y-21516D01*
X47605Y-21484D01*
X47643Y-21459D01*
X47643Y-21460D01*
X47724Y-21541D01*
X47830Y-21585D01*
X47945Y-21585D01*
X48051Y-21541D01*
X48132Y-21460D01*
X48144Y-21433D01*
X48155Y-21460D01*
X48236Y-21541D01*
X48342Y-21585D01*
X48457Y-21585D01*
X48563Y-21541D01*
X48642Y-21462D01*
X48683Y-21462D01*
X48849Y-21296D01*
X48839Y-21287D01*
X48902Y-21224D01*
X48911Y-21234D01*
X48921Y-21224D01*
X48984Y-21287D01*
X48974Y-21296D01*
X49033Y-21355D01*
X49059Y-21394D01*
X49098Y-21420D01*
X49140Y-21462D01*
X49161Y-21462D01*
X49194Y-21484D01*
X49353Y-21516D01*
X49518Y-21516D01*
X49526Y-21528D01*
X49655Y-21614D01*
X49807Y-21645D01*
X49959Y-21614D01*
X50088Y-21528D01*
X50174Y-21400D01*
X50204Y-21248D01*
X50204Y-21169D01*
X50273Y-21238D01*
X50420Y-21299D01*
X50579Y-21300D01*
X50726Y-21239D01*
X50838Y-21126D01*
X50849Y-21100D01*
X50860Y-21126D01*
X50973Y-21238D01*
X51120Y-21299D01*
X51279Y-21300D01*
X51426Y-21239D01*
X51538Y-21126D01*
X51599Y-20979D01*
X51600Y-20820D01*
X51539Y-20673D01*
X51426Y-20561D01*
X51279Y-20500D01*
X51120Y-20499D01*
X50973Y-20560D01*
X50861Y-20673D01*
X50850Y-20699D01*
X50839Y-20673D01*
X50726Y-20561D01*
X50579Y-20500D01*
X50420Y-20499D01*
X50273Y-20560D01*
X50161Y-20673D01*
X50133Y-20739D01*
X50088Y-20671D01*
X49959Y-20585D01*
X49807Y-20554D01*
X49655Y-20585D01*
X49526Y-20671D01*
X49518Y-20683D01*
X49353Y-20683D01*
X49194Y-20715D01*
X49059Y-20805D01*
X48968Y-20940D01*
X48965Y-20958D01*
X48948Y-20953D01*
X48898Y-20958D01*
X48900Y-20956D01*
X48944Y-20850D01*
X48944Y-20735D01*
X48900Y-20629D01*
X48860Y-20589D01*
X48923Y-20548D01*
X49013Y-20412D01*
X49036Y-20300D01*
X56100Y-20300D01*
X56100Y-23900D01*
X55623Y-23900D01*
X55623Y-21262D01*
X55518Y-21008D01*
X55324Y-20813D01*
X55069Y-20707D01*
X54794Y-20707D01*
X54539Y-20812D01*
X54345Y-21007D01*
X54239Y-21261D01*
X54239Y-21537D01*
X54344Y-21791D01*
X54538Y-21986D01*
X54793Y-22092D01*
X55068Y-22092D01*
X55323Y-21987D01*
X55517Y-21792D01*
X55623Y-21538D01*
X55623Y-21262D01*
X55623Y-23900D01*
X55000Y-23900D01*
X55000Y-27759D01*
X54923Y-27790D01*
X54894Y-27819D01*
X54859Y-27733D01*
X54746Y-27621D01*
X54599Y-27560D01*
X54510Y-27559D01*
X54510Y-24070D01*
X54449Y-23923D01*
X54336Y-23811D01*
X54189Y-23750D01*
X54030Y-23749D01*
X53883Y-23810D01*
X53771Y-23923D01*
X53755Y-23961D01*
X53755Y-21243D01*
X53634Y-20951D01*
X53412Y-20728D01*
X53121Y-20608D01*
X52806Y-20607D01*
X52514Y-20728D01*
X52291Y-20950D01*
X52171Y-21241D01*
X52170Y-21556D01*
X52291Y-21848D01*
X52513Y-22071D01*
X52804Y-22191D01*
X53119Y-22192D01*
X53411Y-22071D01*
X53634Y-21849D01*
X53754Y-21558D01*
X53755Y-21243D01*
X53755Y-23961D01*
X53710Y-24070D01*
X53709Y-24229D01*
X53770Y-24376D01*
X53883Y-24488D01*
X54030Y-24549D01*
X54189Y-24550D01*
X54336Y-24489D01*
X54448Y-24376D01*
X54509Y-24229D01*
X54510Y-24070D01*
X54510Y-27559D01*
X54440Y-27559D01*
X54293Y-27620D01*
X54181Y-27733D01*
X54120Y-27880D01*
X54119Y-28039D01*
X54180Y-28186D01*
X54293Y-28298D01*
X54440Y-28359D01*
X54599Y-28360D01*
X54746Y-28299D01*
X54775Y-28270D01*
X54810Y-28356D01*
X54923Y-28468D01*
X55000Y-28500D01*
X55000Y-30000D01*
X55834Y-30000D01*
X55853Y-30018D01*
X56000Y-30079D01*
X56159Y-30080D01*
X56306Y-30019D01*
X56325Y-30000D01*
X56763Y-30000D01*
X56824Y-30040D01*
X56920Y-30060D01*
X57350Y-30060D01*
X57350Y-34300D01*
X62400Y-34300D01*
X62400Y-38700D01*
G54D10*
G36*
X70210Y-31810D02*
X68388Y-31810D01*
X67360Y-32478D01*
X67360Y-34610D01*
X63690Y-34610D01*
X63690Y-33910D01*
X59398Y-33910D01*
X59368Y-33837D01*
X59312Y-33781D01*
X59239Y-33750D01*
X59160Y-33750D01*
X59087Y-33781D01*
X59031Y-33837D01*
X59001Y-33910D01*
X58549Y-33910D01*
X58549Y-33510D01*
X58518Y-33437D01*
X58462Y-33381D01*
X58389Y-33350D01*
X58310Y-33350D01*
X58237Y-33381D01*
X58181Y-33437D01*
X58150Y-33510D01*
X58150Y-33589D01*
X58181Y-33662D01*
X58237Y-33718D01*
X58310Y-33749D01*
X58389Y-33749D01*
X58462Y-33718D01*
X58518Y-33662D01*
X58549Y-33589D01*
X58549Y-33510D01*
X58549Y-33910D01*
X57740Y-33910D01*
X57740Y-30000D01*
X64704Y-30000D01*
X64627Y-30031D01*
X64531Y-30127D01*
X64480Y-30252D01*
X64479Y-30387D01*
X64531Y-30512D01*
X64627Y-30608D01*
X64752Y-30659D01*
X64887Y-30660D01*
X65012Y-30608D01*
X65108Y-30512D01*
X65123Y-30474D01*
X65232Y-30519D01*
X65367Y-30520D01*
X65492Y-30468D01*
X65588Y-30372D01*
X65639Y-30247D01*
X65640Y-30112D01*
X65593Y-30000D01*
X67261Y-30000D01*
X67511Y-30249D01*
X67510Y-30252D01*
X67509Y-30387D01*
X67561Y-30512D01*
X67657Y-30608D01*
X67782Y-30659D01*
X67917Y-30660D01*
X68042Y-30608D01*
X68138Y-30512D01*
X68189Y-30387D01*
X68190Y-30252D01*
X68138Y-30127D01*
X68042Y-30031D01*
X67941Y-29990D01*
X70210Y-29990D01*
X70210Y-31810D01*
X70210Y-31810D01*
G37*
G54D38*
X70210Y-31810D02*
X68388Y-31810D01*
X67360Y-32478D01*
X67360Y-34610D01*
X63690Y-34610D01*
X63690Y-33910D01*
X59398Y-33910D01*
X59368Y-33837D01*
X59312Y-33781D01*
X59239Y-33750D01*
X59160Y-33750D01*
X59087Y-33781D01*
X59031Y-33837D01*
X59001Y-33910D01*
X58549Y-33910D01*
X58549Y-33510D01*
X58518Y-33437D01*
X58462Y-33381D01*
X58389Y-33350D01*
X58310Y-33350D01*
X58237Y-33381D01*
X58181Y-33437D01*
X58150Y-33510D01*
X58150Y-33589D01*
X58181Y-33662D01*
X58237Y-33718D01*
X58310Y-33749D01*
X58389Y-33749D01*
X58462Y-33718D01*
X58518Y-33662D01*
X58549Y-33589D01*
X58549Y-33510D01*
X58549Y-33910D01*
X57740Y-33910D01*
X57740Y-30000D01*
X64704Y-30000D01*
X64627Y-30031D01*
X64531Y-30127D01*
X64480Y-30252D01*
X64479Y-30387D01*
X64531Y-30512D01*
X64627Y-30608D01*
X64752Y-30659D01*
X64887Y-30660D01*
X65012Y-30608D01*
X65108Y-30512D01*
X65123Y-30474D01*
X65232Y-30519D01*
X65367Y-30520D01*
X65492Y-30468D01*
X65588Y-30372D01*
X65639Y-30247D01*
X65640Y-30112D01*
X65593Y-30000D01*
X67261Y-30000D01*
X67511Y-30249D01*
X67510Y-30252D01*
X67509Y-30387D01*
X67561Y-30512D01*
X67657Y-30608D01*
X67782Y-30659D01*
X67917Y-30660D01*
X68042Y-30608D01*
X68138Y-30512D01*
X68189Y-30387D01*
X68190Y-30252D01*
X68138Y-30127D01*
X68042Y-30031D01*
X67941Y-29990D01*
X70210Y-29990D01*
X70210Y-31810D01*
G54D10*
G36*
X70210Y-36411D02*
X69617Y-36165D01*
X68968Y-36164D01*
X68368Y-36412D01*
X67909Y-36870D01*
X67661Y-37469D01*
X67660Y-38118D01*
X67905Y-38710D01*
X65920Y-38710D01*
X65920Y-37736D01*
X65920Y-35536D01*
X65871Y-35418D01*
X65781Y-35328D01*
X65663Y-35280D01*
X65536Y-35279D01*
X65418Y-35328D01*
X65328Y-35418D01*
X65280Y-35536D01*
X65279Y-35663D01*
X65328Y-35781D01*
X65418Y-35871D01*
X65536Y-35919D01*
X65663Y-35920D01*
X65781Y-35871D01*
X65871Y-35781D01*
X65919Y-35663D01*
X65920Y-35536D01*
X65920Y-37736D01*
X65871Y-37618D01*
X65781Y-37528D01*
X65663Y-37480D01*
X65536Y-37479D01*
X65418Y-37528D01*
X65328Y-37618D01*
X65280Y-37736D01*
X65279Y-37863D01*
X65328Y-37981D01*
X65418Y-38071D01*
X65536Y-38119D01*
X65663Y-38120D01*
X65781Y-38071D01*
X65871Y-37981D01*
X65919Y-37863D01*
X65920Y-37736D01*
X65920Y-38710D01*
X64720Y-38710D01*
X64720Y-36536D01*
X64671Y-36418D01*
X64581Y-36328D01*
X64463Y-36280D01*
X64336Y-36279D01*
X64218Y-36328D01*
X64128Y-36418D01*
X64080Y-36536D01*
X64079Y-36663D01*
X64128Y-36781D01*
X64218Y-36871D01*
X64336Y-36919D01*
X64463Y-36920D01*
X64581Y-36871D01*
X64671Y-36781D01*
X64719Y-36663D01*
X64720Y-36536D01*
X64720Y-38710D01*
X62740Y-38710D01*
X62740Y-35140D01*
X67640Y-35140D01*
X67640Y-32821D01*
X68512Y-32240D01*
X70210Y-32240D01*
X70210Y-36411D01*
X70210Y-36411D01*
G37*
G54D38*
X70210Y-36411D02*
X69617Y-36165D01*
X68968Y-36164D01*
X68368Y-36412D01*
X67909Y-36870D01*
X67661Y-37469D01*
X67660Y-38118D01*
X67905Y-38710D01*
X65920Y-38710D01*
X65920Y-37736D01*
X65920Y-35536D01*
X65871Y-35418D01*
X65781Y-35328D01*
X65663Y-35280D01*
X65536Y-35279D01*
X65418Y-35328D01*
X65328Y-35418D01*
X65280Y-35536D01*
X65279Y-35663D01*
X65328Y-35781D01*
X65418Y-35871D01*
X65536Y-35919D01*
X65663Y-35920D01*
X65781Y-35871D01*
X65871Y-35781D01*
X65919Y-35663D01*
X65920Y-35536D01*
X65920Y-37736D01*
X65871Y-37618D01*
X65781Y-37528D01*
X65663Y-37480D01*
X65536Y-37479D01*
X65418Y-37528D01*
X65328Y-37618D01*
X65280Y-37736D01*
X65279Y-37863D01*
X65328Y-37981D01*
X65418Y-38071D01*
X65536Y-38119D01*
X65663Y-38120D01*
X65781Y-38071D01*
X65871Y-37981D01*
X65919Y-37863D01*
X65920Y-37736D01*
X65920Y-38710D01*
X64720Y-38710D01*
X64720Y-36536D01*
X64671Y-36418D01*
X64581Y-36328D01*
X64463Y-36280D01*
X64336Y-36279D01*
X64218Y-36328D01*
X64128Y-36418D01*
X64080Y-36536D01*
X64079Y-36663D01*
X64128Y-36781D01*
X64218Y-36871D01*
X64336Y-36919D01*
X64463Y-36920D01*
X64581Y-36871D01*
X64671Y-36781D01*
X64719Y-36663D01*
X64720Y-36536D01*
X64720Y-38710D01*
X62740Y-38710D01*
X62740Y-35140D01*
X67640Y-35140D01*
X67640Y-32821D01*
X68512Y-32240D01*
X70210Y-32240D01*
X70210Y-36411D01*
G54D10*
G36*
X70210Y-29610D02*
X65208Y-29610D01*
X65334Y-29484D01*
X65334Y-29484D01*
X65334Y-29484D01*
X65375Y-29422D01*
X65390Y-29350D01*
X65390Y-29239D01*
X65392Y-29238D01*
X65488Y-29142D01*
X65539Y-29017D01*
X65540Y-28882D01*
X65488Y-28757D01*
X65392Y-28661D01*
X65267Y-28610D01*
X65132Y-28609D01*
X65007Y-28661D01*
X64911Y-28757D01*
X64860Y-28882D01*
X64859Y-29017D01*
X64911Y-29142D01*
X65007Y-29238D01*
X65010Y-29239D01*
X65010Y-29271D01*
X64901Y-29380D01*
X61619Y-29380D01*
X61619Y-21245D01*
X61500Y-20957D01*
X61280Y-20737D01*
X60993Y-20618D01*
X60682Y-20617D01*
X60394Y-20736D01*
X60174Y-20956D01*
X60055Y-21243D01*
X60054Y-21554D01*
X60173Y-21842D01*
X60393Y-22062D01*
X60680Y-22181D01*
X60991Y-22182D01*
X61279Y-22063D01*
X61499Y-21843D01*
X61618Y-21556D01*
X61619Y-21245D01*
X61619Y-29380D01*
X59650Y-29380D01*
X59650Y-21245D01*
X59531Y-20957D01*
X59312Y-20737D01*
X59024Y-20618D01*
X58713Y-20617D01*
X58426Y-20736D01*
X58205Y-20956D01*
X58086Y-21243D01*
X58086Y-21554D01*
X58205Y-21842D01*
X58424Y-22062D01*
X58712Y-22181D01*
X59023Y-22182D01*
X59310Y-22063D01*
X59531Y-21843D01*
X59650Y-21556D01*
X59650Y-21245D01*
X59650Y-29380D01*
X57088Y-29380D01*
X56910Y-29201D01*
X56910Y-27788D01*
X56994Y-27704D01*
X56994Y-27704D01*
X56994Y-27704D01*
X57035Y-27642D01*
X57050Y-27570D01*
X57050Y-27180D01*
X57035Y-27107D01*
X56994Y-27045D01*
X56994Y-27045D01*
X56754Y-26805D01*
X56692Y-26764D01*
X56620Y-26750D01*
X56440Y-26750D01*
X56440Y-22046D01*
X56456Y-22062D01*
X56743Y-22181D01*
X57054Y-22182D01*
X57342Y-22063D01*
X57562Y-21843D01*
X57681Y-21556D01*
X57682Y-21245D01*
X57563Y-20957D01*
X57343Y-20737D01*
X57056Y-20618D01*
X56745Y-20617D01*
X56457Y-20736D01*
X56440Y-20754D01*
X56440Y-20290D01*
X66010Y-20290D01*
X66010Y-26572D01*
X68088Y-27840D01*
X70210Y-27840D01*
X70210Y-29610D01*
X70210Y-29610D01*
G37*
G54D38*
X70210Y-29610D02*
X65208Y-29610D01*
X65334Y-29484D01*
X65334Y-29484D01*
X65334Y-29484D01*
X65375Y-29422D01*
X65390Y-29350D01*
X65390Y-29239D01*
X65392Y-29238D01*
X65488Y-29142D01*
X65539Y-29017D01*
X65540Y-28882D01*
X65488Y-28757D01*
X65392Y-28661D01*
X65267Y-28610D01*
X65132Y-28609D01*
X65007Y-28661D01*
X64911Y-28757D01*
X64860Y-28882D01*
X64859Y-29017D01*
X64911Y-29142D01*
X65007Y-29238D01*
X65010Y-29239D01*
X65010Y-29271D01*
X64901Y-29380D01*
X61619Y-29380D01*
X61619Y-21245D01*
X61500Y-20957D01*
X61280Y-20737D01*
X60993Y-20618D01*
X60682Y-20617D01*
X60394Y-20736D01*
X60174Y-20956D01*
X60055Y-21243D01*
X60054Y-21554D01*
X60173Y-21842D01*
X60393Y-22062D01*
X60680Y-22181D01*
X60991Y-22182D01*
X61279Y-22063D01*
X61499Y-21843D01*
X61618Y-21556D01*
X61619Y-21245D01*
X61619Y-29380D01*
X59650Y-29380D01*
X59650Y-21245D01*
X59531Y-20957D01*
X59312Y-20737D01*
X59024Y-20618D01*
X58713Y-20617D01*
X58426Y-20736D01*
X58205Y-20956D01*
X58086Y-21243D01*
X58086Y-21554D01*
X58205Y-21842D01*
X58424Y-22062D01*
X58712Y-22181D01*
X59023Y-22182D01*
X59310Y-22063D01*
X59531Y-21843D01*
X59650Y-21556D01*
X59650Y-21245D01*
X59650Y-29380D01*
X57088Y-29380D01*
X56910Y-29201D01*
X56910Y-27788D01*
X56994Y-27704D01*
X56994Y-27704D01*
X56994Y-27704D01*
X57035Y-27642D01*
X57050Y-27570D01*
X57050Y-27180D01*
X57035Y-27107D01*
X56994Y-27045D01*
X56994Y-27045D01*
X56754Y-26805D01*
X56692Y-26764D01*
X56620Y-26750D01*
X56440Y-26750D01*
X56440Y-22046D01*
X56456Y-22062D01*
X56743Y-22181D01*
X57054Y-22182D01*
X57342Y-22063D01*
X57562Y-21843D01*
X57681Y-21556D01*
X57682Y-21245D01*
X57563Y-20957D01*
X57343Y-20737D01*
X57056Y-20618D01*
X56745Y-20617D01*
X56457Y-20736D01*
X56440Y-20754D01*
X56440Y-20290D01*
X66010Y-20290D01*
X66010Y-26572D01*
X68088Y-27840D01*
X70210Y-27840D01*
X70210Y-29610D01*
G54D10*
G36*
X70210Y-27410D02*
X68060Y-27410D01*
X66290Y-26377D01*
X66290Y-20290D01*
X68047Y-20290D01*
X67965Y-20372D01*
X67726Y-20947D01*
X67726Y-21569D01*
X67963Y-22145D01*
X68403Y-22585D01*
X68978Y-22824D01*
X69601Y-22825D01*
X70176Y-22587D01*
X70210Y-22554D01*
X70210Y-27410D01*
X70210Y-27410D01*
G37*
G54D38*
X70210Y-27410D02*
X68060Y-27410D01*
X66290Y-26377D01*
X66290Y-20290D01*
X68047Y-20290D01*
X67965Y-20372D01*
X67726Y-20947D01*
X67726Y-21569D01*
X67963Y-22145D01*
X68403Y-22585D01*
X68978Y-22824D01*
X69601Y-22825D01*
X70176Y-22587D01*
X70210Y-22554D01*
X70210Y-27410D01*
M02*
