G04 (created by PCBNEW (2013-07-07 BZR 4022)-stable) date 4/21/2018 10:45:42 AM*
%MOIN*%
G04 Gerber Fmt 3.4, Leading zero omitted, Abs format*
%FSLAX34Y34*%
G01*
G70*
G90*
G04 APERTURE LIST*
%ADD10C,0.00590551*%
%ADD11C,0.01*%
%ADD12R,0.1X0.1*%
%ADD13C,0.1*%
%ADD14R,0.06X0.06*%
%ADD15C,0.06*%
%ADD16R,0.0629921X0.0629921*%
%ADD17C,0.0629921*%
%ADD18C,0.0984252*%
%ADD19C,0.011811*%
%ADD20R,0.0708661X0.0708661*%
%ADD21C,0.0708661*%
%ADD22C,0.045*%
%ADD23C,0.066*%
%ADD24C,0.1437*%
%ADD25R,0.0591X0.0591*%
%ADD26C,0.0591*%
%ADD27O,0.0393701X0.0669291*%
%ADD28C,0.0177165*%
%ADD29C,0.075*%
%ADD30R,0.075X0.075*%
%ADD31O,0.0590551X0.0826772*%
%ADD32R,0.0787402X0.0562992*%
%ADD33R,0.0787402X0.0574803*%
%ADD34C,0.04*%
%ADD35C,0.016*%
%ADD36C,0.008*%
G04 APERTURE END LIST*
G54D10*
G54D11*
X54316Y-44355D02*
X54316Y-44621D01*
X54220Y-44202D02*
X54125Y-44488D01*
X54373Y-44488D01*
G54D12*
X64248Y-44094D03*
G54D13*
X65748Y-44094D03*
X67248Y-44094D03*
G54D14*
X46600Y-43100D03*
G54D15*
X45600Y-43100D03*
X44600Y-43100D03*
X43600Y-43100D03*
X42600Y-43100D03*
G54D14*
X53100Y-37100D03*
G54D15*
X52100Y-37100D03*
X53100Y-36100D03*
X52100Y-36100D03*
X53100Y-35100D03*
X52100Y-35100D03*
G54D16*
X38192Y-38600D03*
G54D17*
X37207Y-38600D03*
G54D18*
X35178Y-19300D03*
X37147Y-19300D03*
X39115Y-19300D03*
X41084Y-19300D03*
X45021Y-19300D03*
X43052Y-19300D03*
G54D19*
X62810Y-32780D03*
X42600Y-38700D03*
X44200Y-35200D03*
X40500Y-33300D03*
X42500Y-36600D03*
X40500Y-34700D03*
X41600Y-33900D03*
X40500Y-35900D03*
X44930Y-34250D03*
G54D20*
X32100Y-38115D03*
G54D21*
X32100Y-40084D03*
G54D19*
X43200Y-33900D03*
X41540Y-35320D03*
X43200Y-35300D03*
X44200Y-33300D03*
X42500Y-34700D03*
G54D22*
X40800Y-39000D03*
G54D23*
X49600Y-43900D03*
X48600Y-43900D03*
X47600Y-43900D03*
G54D14*
X70800Y-38600D03*
G54D15*
X70800Y-39600D03*
G54D24*
X62180Y-43700D03*
X57507Y-43700D03*
G54D25*
X58092Y-41200D03*
G54D26*
X58592Y-40200D03*
X59092Y-41200D03*
X59592Y-40200D03*
X60092Y-41200D03*
X60592Y-40200D03*
X61092Y-41200D03*
X61592Y-40200D03*
G54D24*
X55881Y-43700D03*
X51208Y-43700D03*
G54D25*
X51793Y-41200D03*
G54D26*
X52293Y-40200D03*
X52793Y-41200D03*
X53293Y-40200D03*
X53793Y-41200D03*
X54293Y-40200D03*
X54793Y-41200D03*
X55293Y-40200D03*
G54D14*
X52100Y-33100D03*
G54D15*
X53100Y-33100D03*
G54D27*
X46107Y-44600D03*
X43292Y-44600D03*
G54D28*
X44955Y-44292D03*
X44700Y-44796D03*
X44444Y-44292D03*
X44188Y-44796D03*
X45211Y-44796D03*
G54D15*
X70800Y-29600D03*
X70800Y-30600D03*
X70800Y-31600D03*
X70800Y-32600D03*
X70800Y-33600D03*
X70800Y-34600D03*
X70800Y-35600D03*
G54D14*
X70800Y-36600D03*
X72800Y-36600D03*
G54D15*
X72800Y-35600D03*
X72800Y-34600D03*
X72800Y-33600D03*
X72800Y-32600D03*
X72800Y-31600D03*
X72800Y-30600D03*
X72800Y-29600D03*
X69800Y-29600D03*
X69800Y-30600D03*
X69800Y-31600D03*
X69800Y-32600D03*
X69800Y-33600D03*
X69800Y-34600D03*
X69800Y-35600D03*
X69800Y-36600D03*
G54D29*
X38284Y-33913D03*
X38284Y-35487D03*
G54D30*
X36316Y-35487D03*
G54D29*
X36316Y-33913D03*
G54D19*
X62810Y-34070D03*
X61150Y-34090D03*
X61380Y-33170D03*
X61800Y-32450D03*
G54D22*
X49450Y-23550D03*
X39900Y-45200D03*
X38150Y-44300D03*
X56600Y-22500D03*
X54350Y-20600D03*
X52300Y-20600D03*
X36200Y-44400D03*
X48700Y-32200D03*
X47300Y-24300D03*
X47400Y-27600D03*
X33300Y-27000D03*
X34600Y-22900D03*
X50100Y-32200D03*
X65100Y-22200D03*
X62650Y-22200D03*
G54D18*
X39768Y-48400D03*
X35831Y-48400D03*
X37800Y-48400D03*
X66074Y-19200D03*
X64105Y-19200D03*
X62137Y-19200D03*
X60168Y-19200D03*
X58200Y-19200D03*
X56231Y-19200D03*
X54262Y-19200D03*
X50325Y-19200D03*
X52294Y-19200D03*
G54D14*
X70800Y-38600D03*
G54D15*
X71800Y-38600D03*
G54D22*
X68700Y-39600D03*
X62600Y-39900D03*
G54D31*
X43085Y-45700D03*
G54D32*
X45841Y-44487D03*
G54D33*
X43558Y-44487D03*
G54D31*
X46314Y-45700D03*
G54D34*
X44000Y-24600D03*
X45000Y-24600D03*
X45800Y-24600D03*
X45800Y-23600D03*
X50230Y-27050D03*
X50400Y-30200D03*
X58750Y-24200D03*
X48630Y-39030D03*
X58290Y-35230D03*
X55300Y-23900D03*
X63400Y-24400D03*
X61780Y-26600D03*
X48800Y-34300D03*
X45390Y-34280D03*
X59010Y-37480D03*
X44100Y-36600D03*
X60470Y-28480D03*
X61510Y-38230D03*
X52090Y-31000D03*
X53070Y-30980D03*
X45200Y-36550D03*
X44000Y-37600D03*
X51000Y-32800D03*
X63800Y-30170D03*
X63600Y-28070D03*
X44600Y-27800D03*
X44600Y-31000D03*
X41000Y-31000D03*
X41000Y-28200D03*
X42400Y-26800D03*
X42400Y-26000D03*
X42400Y-25200D03*
X42400Y-24000D03*
X42400Y-23200D03*
X42400Y-22400D03*
X42200Y-21600D03*
X41400Y-21600D03*
X40600Y-21600D03*
X62790Y-28040D03*
X63130Y-30250D03*
X34600Y-28600D03*
X38200Y-28600D03*
X37700Y-26600D03*
X39000Y-26800D03*
X39000Y-26000D03*
X39000Y-25200D03*
X39000Y-24000D03*
X39000Y-23200D03*
X39000Y-22400D03*
X39000Y-21600D03*
X38200Y-21600D03*
X37400Y-21600D03*
X63430Y-40220D03*
X65200Y-37800D03*
X62250Y-40600D03*
X60000Y-39000D03*
X55340Y-31520D03*
X55070Y-33180D03*
X55820Y-32670D03*
X48470Y-33000D03*
X41530Y-31350D03*
X41500Y-24600D03*
X56970Y-29800D03*
X50000Y-33900D03*
X56880Y-29110D03*
X41790Y-40280D03*
X49075Y-38575D03*
X38800Y-31680D03*
X56010Y-36420D03*
X49700Y-41300D03*
X55990Y-34500D03*
X48900Y-41300D03*
X60870Y-34760D03*
X60820Y-35320D03*
X47700Y-41400D03*
X45600Y-21600D03*
X44800Y-21600D03*
X44000Y-21600D03*
X35400Y-24400D03*
X35400Y-23200D03*
X35400Y-21800D03*
X34800Y-21000D03*
X36200Y-21000D03*
X48500Y-30400D03*
X54300Y-22250D03*
X61050Y-25900D03*
X55800Y-29670D03*
X36900Y-43550D03*
X36900Y-42950D03*
X58810Y-35230D03*
X51250Y-22200D03*
X63900Y-37100D03*
X66500Y-24000D03*
X66350Y-23050D03*
X64200Y-23850D03*
X50480Y-38920D03*
X41800Y-42400D03*
X40550Y-32070D03*
X33430Y-24370D03*
X33460Y-23420D03*
X61550Y-23450D03*
X50220Y-26550D03*
X33420Y-32060D03*
X47700Y-38900D03*
X47200Y-41400D03*
X54100Y-36600D03*
X54100Y-35500D03*
X50100Y-36200D03*
X48600Y-36100D03*
X31000Y-35200D03*
X46470Y-41690D03*
X35850Y-39150D03*
X34400Y-39150D03*
X62300Y-36100D03*
X60670Y-38330D03*
X59000Y-36830D03*
X42250Y-40450D03*
X46460Y-42460D03*
X45680Y-40030D03*
X32450Y-35720D03*
X51100Y-28400D03*
X40100Y-24600D03*
X57830Y-27050D03*
X61050Y-26800D03*
X58710Y-29750D03*
X58720Y-28490D03*
X32300Y-33600D03*
X41760Y-41740D03*
X48300Y-41400D03*
X56500Y-39000D03*
X58260Y-24260D03*
X39900Y-43000D03*
X46800Y-34450D03*
X49500Y-31000D03*
X48600Y-36800D03*
X51200Y-37660D03*
X43700Y-40450D03*
X62680Y-31780D03*
X56530Y-35120D03*
X45750Y-25950D03*
X52275Y-29100D03*
X65300Y-30300D03*
G54D11*
X45000Y-24600D02*
X44000Y-24600D01*
X45800Y-23600D02*
X45800Y-24600D01*
X63600Y-29970D02*
X63600Y-28070D01*
X63800Y-30170D02*
X63600Y-29970D01*
X41200Y-31000D02*
X44600Y-31000D01*
X41000Y-31000D02*
X41200Y-31000D01*
X42400Y-26800D02*
X41000Y-28200D01*
X42400Y-25200D02*
X42400Y-26000D01*
X42400Y-23200D02*
X42400Y-24000D01*
X42400Y-21800D02*
X42400Y-22400D01*
X42200Y-21600D02*
X42400Y-21800D01*
X40600Y-21600D02*
X41400Y-21600D01*
X62790Y-28040D02*
X62790Y-29910D01*
X62790Y-29910D02*
X63130Y-30250D01*
X38200Y-27600D02*
X38200Y-28600D01*
X37700Y-26600D02*
X38200Y-27600D01*
X39000Y-25200D02*
X39000Y-26000D01*
X39000Y-23200D02*
X39000Y-24000D01*
X39000Y-21600D02*
X39000Y-22400D01*
X37400Y-21600D02*
X38200Y-21600D01*
X63440Y-42030D02*
X63280Y-42190D01*
X63440Y-40230D02*
X63440Y-42030D01*
X63430Y-40220D02*
X63440Y-40230D01*
X64248Y-43158D02*
X64248Y-44094D01*
X63280Y-42190D02*
X64248Y-43158D01*
X63200Y-42110D02*
X63280Y-42190D01*
X58100Y-42110D02*
X63200Y-42110D01*
X58092Y-42110D02*
X58100Y-42110D01*
X52180Y-42110D02*
X58100Y-42110D01*
X51793Y-41723D02*
X52180Y-42110D01*
X58092Y-41200D02*
X58092Y-42110D01*
X51793Y-41200D02*
X51793Y-41723D01*
G54D35*
X63000Y-38800D02*
X63000Y-41200D01*
X64000Y-37800D02*
X63000Y-38800D01*
X65200Y-37800D02*
X64000Y-37800D01*
X61592Y-40200D02*
X61592Y-40942D01*
X62800Y-41400D02*
X63000Y-41200D01*
X62050Y-41400D02*
X62800Y-41400D01*
X61592Y-40942D02*
X62050Y-41400D01*
X61592Y-40200D02*
X61579Y-40200D01*
X61579Y-40200D02*
X61050Y-40730D01*
X60320Y-40730D02*
X60090Y-40500D01*
X61050Y-40730D02*
X60320Y-40730D01*
X60090Y-40500D02*
X60090Y-39880D01*
X60090Y-39880D02*
X59870Y-39660D01*
X59870Y-39660D02*
X55834Y-39660D01*
X55834Y-39660D02*
X55293Y-40200D01*
G54D11*
X55764Y-39730D02*
X55293Y-40200D01*
X59870Y-39730D02*
X55764Y-39730D01*
X60090Y-39950D02*
X59870Y-39730D01*
X60090Y-40500D02*
X60090Y-39950D01*
X60300Y-40710D02*
X60090Y-40500D01*
X61070Y-40710D02*
X60300Y-40710D01*
X61579Y-40200D02*
X61070Y-40710D01*
G54D35*
X62255Y-40595D02*
X62255Y-40095D01*
X62250Y-40600D02*
X62255Y-40595D01*
X60592Y-40200D02*
X60592Y-39000D01*
X60592Y-39000D02*
X60590Y-39000D01*
X60000Y-39000D02*
X60590Y-39000D01*
X60590Y-39000D02*
X61160Y-39000D01*
X61160Y-39000D02*
X62255Y-40095D01*
X60000Y-39000D02*
X57810Y-39000D01*
X55124Y-39370D02*
X54293Y-40200D01*
X57440Y-39370D02*
X55124Y-39370D01*
X57810Y-39000D02*
X57440Y-39370D01*
G54D11*
X57325Y-30725D02*
X65525Y-30725D01*
X65520Y-30720D02*
X68890Y-34090D01*
X70810Y-36600D02*
X71500Y-35910D01*
X71500Y-35910D02*
X71500Y-34310D01*
X71500Y-34310D02*
X71280Y-34090D01*
X71280Y-34090D02*
X68890Y-34090D01*
X70810Y-36600D02*
X70800Y-36600D01*
X65525Y-30725D02*
X65520Y-30720D01*
X55340Y-31520D02*
X56530Y-31520D01*
X56530Y-31520D02*
X57325Y-30725D01*
X57325Y-30725D02*
X57330Y-30720D01*
X57940Y-31190D02*
X64580Y-31190D01*
X70800Y-35670D02*
X70380Y-36090D01*
X70380Y-36090D02*
X69480Y-36090D01*
X69480Y-36090D02*
X64580Y-31190D01*
X57940Y-31190D02*
X55950Y-33180D01*
X55950Y-33180D02*
X55070Y-33180D01*
X70800Y-35600D02*
X70800Y-35670D01*
X65165Y-30935D02*
X57555Y-30935D01*
X55820Y-32670D02*
X57560Y-30930D01*
X57555Y-30935D02*
X57560Y-30930D01*
X70340Y-35060D02*
X70800Y-34600D01*
X69290Y-35060D02*
X70340Y-35060D01*
X65160Y-30930D02*
X65165Y-30935D01*
X65165Y-30935D02*
X69290Y-35060D01*
X41920Y-31509D02*
X41920Y-31500D01*
X46979Y-31509D02*
X41920Y-31509D01*
X48470Y-33000D02*
X46979Y-31509D01*
X41770Y-31350D02*
X41920Y-31500D01*
X41530Y-31350D02*
X41770Y-31350D01*
X41920Y-31500D02*
X41920Y-31500D01*
X56970Y-29800D02*
X56660Y-29800D01*
X50250Y-33900D02*
X50000Y-33900D01*
X50640Y-33510D02*
X50250Y-33900D01*
X50640Y-31600D02*
X50640Y-33510D01*
X51670Y-30570D02*
X50640Y-31600D01*
X55890Y-30570D02*
X51670Y-30570D01*
X56660Y-29800D02*
X55890Y-30570D01*
X55747Y-30272D02*
X51352Y-30272D01*
X51352Y-30272D02*
X49625Y-32000D01*
X45510Y-39520D02*
X48855Y-39520D01*
X48855Y-39520D02*
X50600Y-37775D01*
X50600Y-37775D02*
X50600Y-35350D01*
X50600Y-35350D02*
X49625Y-34375D01*
X49625Y-34375D02*
X49625Y-32000D01*
X56880Y-29140D02*
X55747Y-30272D01*
X56880Y-29110D02*
X56880Y-29140D01*
X41790Y-40280D02*
X41790Y-40270D01*
X44950Y-40080D02*
X45510Y-39520D01*
X41980Y-40080D02*
X44950Y-40080D01*
X41790Y-40270D02*
X41980Y-40080D01*
X48010Y-37510D02*
X48010Y-32840D01*
X49075Y-38575D02*
X48010Y-37510D01*
X38800Y-31690D02*
X46860Y-31690D01*
X48010Y-32840D02*
X46860Y-31690D01*
X38800Y-31680D02*
X38800Y-31690D01*
X48010Y-36510D02*
X48010Y-32840D01*
X48010Y-36510D02*
X48010Y-32840D01*
X55990Y-37780D02*
X55990Y-36440D01*
X55990Y-36440D02*
X56010Y-36420D01*
X49700Y-41270D02*
X51440Y-39530D01*
X54240Y-39530D02*
X55990Y-37780D01*
X51440Y-39530D02*
X54240Y-39530D01*
X55990Y-34500D02*
X55990Y-35380D01*
X55990Y-35380D02*
X55640Y-35730D01*
X55640Y-35730D02*
X55640Y-37700D01*
X50890Y-39310D02*
X54030Y-39310D01*
X54030Y-39310D02*
X55640Y-37700D01*
X48900Y-41300D02*
X50890Y-39310D01*
X53100Y-33100D02*
X53550Y-33550D01*
X59660Y-33550D02*
X60870Y-34760D01*
X53550Y-33550D02*
X59660Y-33550D01*
X60820Y-35320D02*
X60810Y-35320D01*
X52840Y-33840D02*
X52100Y-33100D01*
X59330Y-33840D02*
X52840Y-33840D01*
X60810Y-35320D02*
X59330Y-33840D01*
G54D35*
X47700Y-41400D02*
X47700Y-42000D01*
X47700Y-42000D02*
X46600Y-43100D01*
G54D11*
X44000Y-21600D02*
X44800Y-21600D01*
G54D35*
X35400Y-21800D02*
X35400Y-23200D01*
X36200Y-21000D02*
X34800Y-21000D01*
G54D11*
X48500Y-30400D02*
X48525Y-30400D01*
X39900Y-43000D02*
X39900Y-39860D01*
X39900Y-39860D02*
X40240Y-39520D01*
X40240Y-39520D02*
X44630Y-39520D01*
X46800Y-37350D02*
X46800Y-34450D01*
X44630Y-39520D02*
X46800Y-37350D01*
X53793Y-41200D02*
X53799Y-41200D01*
X59581Y-40690D02*
X60092Y-41200D01*
X54310Y-40690D02*
X59581Y-40690D01*
X53799Y-41200D02*
X54310Y-40690D01*
X49300Y-31200D02*
X49500Y-31000D01*
X49300Y-36100D02*
X49300Y-31200D01*
X48600Y-36800D02*
X49300Y-36100D01*
X43700Y-40450D02*
X48410Y-40450D01*
X48410Y-40450D02*
X51200Y-37660D01*
X62680Y-31780D02*
X63030Y-31780D01*
X57110Y-35700D02*
X56530Y-35120D01*
X62550Y-35700D02*
X57110Y-35700D01*
X63840Y-34410D02*
X62550Y-35700D01*
X63840Y-32590D02*
X63840Y-34410D01*
X63030Y-31780D02*
X63840Y-32590D01*
X56600Y-22500D02*
X56600Y-24200D01*
X54850Y-25950D02*
X45750Y-25950D01*
X56600Y-24200D02*
X54850Y-25950D01*
G54D35*
X52275Y-29100D02*
X55710Y-29100D01*
X55710Y-29100D02*
X57210Y-27600D01*
X65300Y-30300D02*
X65300Y-28600D01*
X64300Y-27600D02*
X57210Y-27600D01*
X65300Y-28600D02*
X64300Y-27600D01*
G54D10*
G36*
X48110Y-31410D02*
X47120Y-31410D01*
X47100Y-31389D01*
X47045Y-31352D01*
X46979Y-31339D01*
X42000Y-31339D01*
X41890Y-31229D01*
X41835Y-31192D01*
X41820Y-31189D01*
X41820Y-24536D01*
X41771Y-24418D01*
X41681Y-24328D01*
X41563Y-24280D01*
X41436Y-24279D01*
X41318Y-24328D01*
X41228Y-24418D01*
X41180Y-24536D01*
X41179Y-24663D01*
X41228Y-24781D01*
X41318Y-24871D01*
X41436Y-24919D01*
X41563Y-24920D01*
X41681Y-24871D01*
X41771Y-24781D01*
X41819Y-24663D01*
X41820Y-24536D01*
X41820Y-31189D01*
X41809Y-31187D01*
X41801Y-31168D01*
X41711Y-31078D01*
X41593Y-31030D01*
X41466Y-31029D01*
X41348Y-31078D01*
X41258Y-31168D01*
X41210Y-31286D01*
X41209Y-31410D01*
X40240Y-31410D01*
X40240Y-24888D01*
X40281Y-24871D01*
X40371Y-24781D01*
X40419Y-24663D01*
X40420Y-24536D01*
X40371Y-24418D01*
X40281Y-24328D01*
X40240Y-24311D01*
X40240Y-18290D01*
X42210Y-18290D01*
X42210Y-20966D01*
X43360Y-22116D01*
X43360Y-26990D01*
X48110Y-26990D01*
X48110Y-31410D01*
X48110Y-31410D01*
G37*
G54D36*
X48110Y-31410D02*
X47120Y-31410D01*
X47100Y-31389D01*
X47045Y-31352D01*
X46979Y-31339D01*
X42000Y-31339D01*
X41890Y-31229D01*
X41835Y-31192D01*
X41820Y-31189D01*
X41820Y-24536D01*
X41771Y-24418D01*
X41681Y-24328D01*
X41563Y-24280D01*
X41436Y-24279D01*
X41318Y-24328D01*
X41228Y-24418D01*
X41180Y-24536D01*
X41179Y-24663D01*
X41228Y-24781D01*
X41318Y-24871D01*
X41436Y-24919D01*
X41563Y-24920D01*
X41681Y-24871D01*
X41771Y-24781D01*
X41819Y-24663D01*
X41820Y-24536D01*
X41820Y-31189D01*
X41809Y-31187D01*
X41801Y-31168D01*
X41711Y-31078D01*
X41593Y-31030D01*
X41466Y-31029D01*
X41348Y-31078D01*
X41258Y-31168D01*
X41210Y-31286D01*
X41209Y-31410D01*
X40240Y-31410D01*
X40240Y-24888D01*
X40281Y-24871D01*
X40371Y-24781D01*
X40419Y-24663D01*
X40420Y-24536D01*
X40371Y-24418D01*
X40281Y-24328D01*
X40240Y-24311D01*
X40240Y-18290D01*
X42210Y-18290D01*
X42210Y-20966D01*
X43360Y-22116D01*
X43360Y-26990D01*
X48110Y-26990D01*
X48110Y-31410D01*
G54D10*
G36*
X37760Y-20183D02*
X36460Y-21533D01*
X36460Y-24710D01*
X34490Y-24710D01*
X34490Y-18290D01*
X37760Y-18290D01*
X37760Y-20183D01*
X37760Y-20183D01*
G37*
G54D36*
X37760Y-20183D02*
X36460Y-21533D01*
X36460Y-24710D01*
X34490Y-24710D01*
X34490Y-18290D01*
X37760Y-18290D01*
X37760Y-20183D01*
G54D10*
G36*
X39910Y-31360D02*
X38800Y-31360D01*
X38736Y-31359D01*
X38736Y-31360D01*
X37260Y-31360D01*
X37260Y-26414D01*
X37030Y-25857D01*
X36604Y-25430D01*
X36047Y-25198D01*
X35443Y-25198D01*
X34886Y-25428D01*
X34459Y-25854D01*
X34227Y-26412D01*
X34227Y-27015D01*
X34457Y-27572D01*
X34884Y-27999D01*
X35441Y-28231D01*
X36044Y-28231D01*
X36601Y-28001D01*
X37028Y-27575D01*
X37260Y-27017D01*
X37260Y-26414D01*
X37260Y-31360D01*
X32240Y-31360D01*
X32240Y-26067D01*
X33365Y-25040D01*
X36790Y-25040D01*
X36790Y-21767D01*
X38290Y-20367D01*
X38290Y-18290D01*
X39910Y-18290D01*
X39910Y-24337D01*
X39828Y-24418D01*
X39780Y-24536D01*
X39779Y-24663D01*
X39828Y-24781D01*
X39910Y-24862D01*
X39910Y-31360D01*
X39910Y-31360D01*
G37*
G54D36*
X39910Y-31360D02*
X38800Y-31360D01*
X38736Y-31359D01*
X38736Y-31360D01*
X37260Y-31360D01*
X37260Y-26414D01*
X37030Y-25857D01*
X36604Y-25430D01*
X36047Y-25198D01*
X35443Y-25198D01*
X34886Y-25428D01*
X34459Y-25854D01*
X34227Y-26412D01*
X34227Y-27015D01*
X34457Y-27572D01*
X34884Y-27999D01*
X35441Y-28231D01*
X36044Y-28231D01*
X36601Y-28001D01*
X37028Y-27575D01*
X37260Y-27017D01*
X37260Y-26414D01*
X37260Y-31360D01*
X32240Y-31360D01*
X32240Y-26067D01*
X33365Y-25040D01*
X36790Y-25040D01*
X36790Y-21767D01*
X38290Y-20367D01*
X38290Y-18290D01*
X39910Y-18290D01*
X39910Y-24337D01*
X39828Y-24418D01*
X39780Y-24536D01*
X39779Y-24663D01*
X39828Y-24781D01*
X39910Y-24862D01*
X39910Y-31360D01*
G54D10*
G36*
X46356Y-31860D02*
X46281Y-37628D01*
X45710Y-38199D01*
X45710Y-34216D01*
X45661Y-34098D01*
X45571Y-34008D01*
X45453Y-33960D01*
X45326Y-33959D01*
X45208Y-34008D01*
X45118Y-34098D01*
X45070Y-34216D01*
X45069Y-34343D01*
X45118Y-34461D01*
X45208Y-34551D01*
X45326Y-34599D01*
X45453Y-34600D01*
X45571Y-34551D01*
X45661Y-34461D01*
X45709Y-34343D01*
X45710Y-34216D01*
X45710Y-38199D01*
X45520Y-38389D01*
X45520Y-36486D01*
X45471Y-36368D01*
X45381Y-36278D01*
X45263Y-36230D01*
X45136Y-36229D01*
X45018Y-36278D01*
X44928Y-36368D01*
X44880Y-36486D01*
X44879Y-36613D01*
X44928Y-36731D01*
X45018Y-36821D01*
X45136Y-36869D01*
X45263Y-36870D01*
X45381Y-36821D01*
X45471Y-36731D01*
X45519Y-36613D01*
X45520Y-36486D01*
X45520Y-38389D01*
X44699Y-39210D01*
X44420Y-39210D01*
X44420Y-36536D01*
X44371Y-36418D01*
X44281Y-36328D01*
X44163Y-36280D01*
X44036Y-36279D01*
X43918Y-36328D01*
X43828Y-36418D01*
X43780Y-36536D01*
X43779Y-36663D01*
X43828Y-36781D01*
X43918Y-36871D01*
X44036Y-36919D01*
X44163Y-36920D01*
X44281Y-36871D01*
X44371Y-36781D01*
X44419Y-36663D01*
X44420Y-36536D01*
X44420Y-39210D01*
X44320Y-39210D01*
X44320Y-37536D01*
X44271Y-37418D01*
X44181Y-37328D01*
X44063Y-37280D01*
X43936Y-37279D01*
X43818Y-37328D01*
X43728Y-37418D01*
X43680Y-37536D01*
X43679Y-37663D01*
X43728Y-37781D01*
X43818Y-37871D01*
X43936Y-37919D01*
X44063Y-37920D01*
X44181Y-37871D01*
X44271Y-37781D01*
X44319Y-37663D01*
X44320Y-37536D01*
X44320Y-39210D01*
X41077Y-39210D01*
X41092Y-39195D01*
X41144Y-39068D01*
X41145Y-38931D01*
X41092Y-38804D01*
X40995Y-38707D01*
X40868Y-38655D01*
X40731Y-38654D01*
X40604Y-38707D01*
X40507Y-38804D01*
X40455Y-38931D01*
X40454Y-39068D01*
X40507Y-39195D01*
X40522Y-39210D01*
X38779Y-39210D01*
X38779Y-35388D01*
X38779Y-33814D01*
X38703Y-33632D01*
X38564Y-33493D01*
X38382Y-33418D01*
X38185Y-33417D01*
X38003Y-33493D01*
X37864Y-33632D01*
X37789Y-33814D01*
X37788Y-34011D01*
X37864Y-34193D01*
X38003Y-34332D01*
X38185Y-34407D01*
X38382Y-34408D01*
X38564Y-34332D01*
X38703Y-34193D01*
X38778Y-34011D01*
X38779Y-33814D01*
X38779Y-35388D01*
X38703Y-35206D01*
X38564Y-35067D01*
X38382Y-34992D01*
X38185Y-34991D01*
X38003Y-35067D01*
X37864Y-35206D01*
X37789Y-35388D01*
X37788Y-35585D01*
X37864Y-35767D01*
X38003Y-35906D01*
X38185Y-35981D01*
X38382Y-35982D01*
X38564Y-35906D01*
X38703Y-35767D01*
X38778Y-35585D01*
X38779Y-35388D01*
X38779Y-39210D01*
X38627Y-39210D01*
X38627Y-38891D01*
X38627Y-38261D01*
X38608Y-38217D01*
X38575Y-38183D01*
X38531Y-38165D01*
X38483Y-38165D01*
X37853Y-38165D01*
X37809Y-38183D01*
X37775Y-38216D01*
X37757Y-38261D01*
X37757Y-38308D01*
X37757Y-38938D01*
X37775Y-38982D01*
X37809Y-39016D01*
X37853Y-39034D01*
X37900Y-39034D01*
X38530Y-39034D01*
X38574Y-39016D01*
X38608Y-38983D01*
X38627Y-38938D01*
X38627Y-38891D01*
X38627Y-39210D01*
X37590Y-39210D01*
X37590Y-31640D01*
X38480Y-31640D01*
X38479Y-31743D01*
X38528Y-31861D01*
X38618Y-31951D01*
X38736Y-31999D01*
X38863Y-32000D01*
X38981Y-31951D01*
X39071Y-31861D01*
X39071Y-31860D01*
X46356Y-31860D01*
X46356Y-31860D01*
G37*
G54D36*
X46356Y-31860D02*
X46281Y-37628D01*
X45710Y-38199D01*
X45710Y-34216D01*
X45661Y-34098D01*
X45571Y-34008D01*
X45453Y-33960D01*
X45326Y-33959D01*
X45208Y-34008D01*
X45118Y-34098D01*
X45070Y-34216D01*
X45069Y-34343D01*
X45118Y-34461D01*
X45208Y-34551D01*
X45326Y-34599D01*
X45453Y-34600D01*
X45571Y-34551D01*
X45661Y-34461D01*
X45709Y-34343D01*
X45710Y-34216D01*
X45710Y-38199D01*
X45520Y-38389D01*
X45520Y-36486D01*
X45471Y-36368D01*
X45381Y-36278D01*
X45263Y-36230D01*
X45136Y-36229D01*
X45018Y-36278D01*
X44928Y-36368D01*
X44880Y-36486D01*
X44879Y-36613D01*
X44928Y-36731D01*
X45018Y-36821D01*
X45136Y-36869D01*
X45263Y-36870D01*
X45381Y-36821D01*
X45471Y-36731D01*
X45519Y-36613D01*
X45520Y-36486D01*
X45520Y-38389D01*
X44699Y-39210D01*
X44420Y-39210D01*
X44420Y-36536D01*
X44371Y-36418D01*
X44281Y-36328D01*
X44163Y-36280D01*
X44036Y-36279D01*
X43918Y-36328D01*
X43828Y-36418D01*
X43780Y-36536D01*
X43779Y-36663D01*
X43828Y-36781D01*
X43918Y-36871D01*
X44036Y-36919D01*
X44163Y-36920D01*
X44281Y-36871D01*
X44371Y-36781D01*
X44419Y-36663D01*
X44420Y-36536D01*
X44420Y-39210D01*
X44320Y-39210D01*
X44320Y-37536D01*
X44271Y-37418D01*
X44181Y-37328D01*
X44063Y-37280D01*
X43936Y-37279D01*
X43818Y-37328D01*
X43728Y-37418D01*
X43680Y-37536D01*
X43679Y-37663D01*
X43728Y-37781D01*
X43818Y-37871D01*
X43936Y-37919D01*
X44063Y-37920D01*
X44181Y-37871D01*
X44271Y-37781D01*
X44319Y-37663D01*
X44320Y-37536D01*
X44320Y-39210D01*
X41077Y-39210D01*
X41092Y-39195D01*
X41144Y-39068D01*
X41145Y-38931D01*
X41092Y-38804D01*
X40995Y-38707D01*
X40868Y-38655D01*
X40731Y-38654D01*
X40604Y-38707D01*
X40507Y-38804D01*
X40455Y-38931D01*
X40454Y-39068D01*
X40507Y-39195D01*
X40522Y-39210D01*
X38779Y-39210D01*
X38779Y-35388D01*
X38779Y-33814D01*
X38703Y-33632D01*
X38564Y-33493D01*
X38382Y-33418D01*
X38185Y-33417D01*
X38003Y-33493D01*
X37864Y-33632D01*
X37789Y-33814D01*
X37788Y-34011D01*
X37864Y-34193D01*
X38003Y-34332D01*
X38185Y-34407D01*
X38382Y-34408D01*
X38564Y-34332D01*
X38703Y-34193D01*
X38778Y-34011D01*
X38779Y-33814D01*
X38779Y-35388D01*
X38703Y-35206D01*
X38564Y-35067D01*
X38382Y-34992D01*
X38185Y-34991D01*
X38003Y-35067D01*
X37864Y-35206D01*
X37789Y-35388D01*
X37788Y-35585D01*
X37864Y-35767D01*
X38003Y-35906D01*
X38185Y-35981D01*
X38382Y-35982D01*
X38564Y-35906D01*
X38703Y-35767D01*
X38778Y-35585D01*
X38779Y-35388D01*
X38779Y-39210D01*
X38627Y-39210D01*
X38627Y-38891D01*
X38627Y-38261D01*
X38608Y-38217D01*
X38575Y-38183D01*
X38531Y-38165D01*
X38483Y-38165D01*
X37853Y-38165D01*
X37809Y-38183D01*
X37775Y-38216D01*
X37757Y-38261D01*
X37757Y-38308D01*
X37757Y-38938D01*
X37775Y-38982D01*
X37809Y-39016D01*
X37853Y-39034D01*
X37900Y-39034D01*
X38530Y-39034D01*
X38574Y-39016D01*
X38608Y-38983D01*
X38627Y-38938D01*
X38627Y-38891D01*
X38627Y-39210D01*
X37590Y-39210D01*
X37590Y-31640D01*
X38480Y-31640D01*
X38479Y-31743D01*
X38528Y-31861D01*
X38618Y-31951D01*
X38736Y-31999D01*
X38863Y-32000D01*
X38981Y-31951D01*
X39071Y-31861D01*
X39071Y-31860D01*
X46356Y-31860D01*
G54D10*
G36*
X48160Y-26560D02*
X45320Y-26560D01*
X45320Y-24536D01*
X45271Y-24418D01*
X45181Y-24328D01*
X45063Y-24280D01*
X44936Y-24279D01*
X44818Y-24328D01*
X44728Y-24418D01*
X44724Y-24430D01*
X44275Y-24430D01*
X44271Y-24418D01*
X44181Y-24328D01*
X44063Y-24280D01*
X43936Y-24279D01*
X43818Y-24328D01*
X43728Y-24418D01*
X43680Y-24536D01*
X43679Y-24663D01*
X43728Y-24781D01*
X43818Y-24871D01*
X43936Y-24919D01*
X44063Y-24920D01*
X44181Y-24871D01*
X44271Y-24781D01*
X44275Y-24770D01*
X44724Y-24770D01*
X44728Y-24781D01*
X44818Y-24871D01*
X44936Y-24919D01*
X45063Y-24920D01*
X45181Y-24871D01*
X45271Y-24781D01*
X45319Y-24663D01*
X45320Y-24536D01*
X45320Y-26560D01*
X43590Y-26560D01*
X43590Y-21783D01*
X42540Y-20683D01*
X42540Y-18290D01*
X45710Y-18290D01*
X45710Y-23040D01*
X48160Y-23040D01*
X48160Y-25780D01*
X46120Y-25780D01*
X46120Y-24536D01*
X46071Y-24418D01*
X45981Y-24328D01*
X45970Y-24324D01*
X45970Y-23875D01*
X45981Y-23871D01*
X46071Y-23781D01*
X46119Y-23663D01*
X46120Y-23536D01*
X46071Y-23418D01*
X45981Y-23328D01*
X45863Y-23280D01*
X45736Y-23279D01*
X45618Y-23328D01*
X45528Y-23418D01*
X45480Y-23536D01*
X45479Y-23663D01*
X45528Y-23781D01*
X45618Y-23871D01*
X45630Y-23875D01*
X45630Y-24324D01*
X45618Y-24328D01*
X45528Y-24418D01*
X45480Y-24536D01*
X45479Y-24663D01*
X45528Y-24781D01*
X45618Y-24871D01*
X45736Y-24919D01*
X45863Y-24920D01*
X45981Y-24871D01*
X46071Y-24781D01*
X46119Y-24663D01*
X46120Y-24536D01*
X46120Y-25780D01*
X46025Y-25780D01*
X46021Y-25768D01*
X45931Y-25678D01*
X45813Y-25630D01*
X45686Y-25629D01*
X45568Y-25678D01*
X45478Y-25768D01*
X45430Y-25886D01*
X45429Y-26013D01*
X45478Y-26131D01*
X45568Y-26221D01*
X45686Y-26269D01*
X45813Y-26270D01*
X45931Y-26221D01*
X46021Y-26131D01*
X46025Y-26120D01*
X48160Y-26120D01*
X48160Y-26560D01*
X48160Y-26560D01*
G37*
G54D36*
X48160Y-26560D02*
X45320Y-26560D01*
X45320Y-24536D01*
X45271Y-24418D01*
X45181Y-24328D01*
X45063Y-24280D01*
X44936Y-24279D01*
X44818Y-24328D01*
X44728Y-24418D01*
X44724Y-24430D01*
X44275Y-24430D01*
X44271Y-24418D01*
X44181Y-24328D01*
X44063Y-24280D01*
X43936Y-24279D01*
X43818Y-24328D01*
X43728Y-24418D01*
X43680Y-24536D01*
X43679Y-24663D01*
X43728Y-24781D01*
X43818Y-24871D01*
X43936Y-24919D01*
X44063Y-24920D01*
X44181Y-24871D01*
X44271Y-24781D01*
X44275Y-24770D01*
X44724Y-24770D01*
X44728Y-24781D01*
X44818Y-24871D01*
X44936Y-24919D01*
X45063Y-24920D01*
X45181Y-24871D01*
X45271Y-24781D01*
X45319Y-24663D01*
X45320Y-24536D01*
X45320Y-26560D01*
X43590Y-26560D01*
X43590Y-21783D01*
X42540Y-20683D01*
X42540Y-18290D01*
X45710Y-18290D01*
X45710Y-23040D01*
X48160Y-23040D01*
X48160Y-25780D01*
X46120Y-25780D01*
X46120Y-24536D01*
X46071Y-24418D01*
X45981Y-24328D01*
X45970Y-24324D01*
X45970Y-23875D01*
X45981Y-23871D01*
X46071Y-23781D01*
X46119Y-23663D01*
X46120Y-23536D01*
X46071Y-23418D01*
X45981Y-23328D01*
X45863Y-23280D01*
X45736Y-23279D01*
X45618Y-23328D01*
X45528Y-23418D01*
X45480Y-23536D01*
X45479Y-23663D01*
X45528Y-23781D01*
X45618Y-23871D01*
X45630Y-23875D01*
X45630Y-24324D01*
X45618Y-24328D01*
X45528Y-24418D01*
X45480Y-24536D01*
X45479Y-24663D01*
X45528Y-24781D01*
X45618Y-24871D01*
X45736Y-24919D01*
X45863Y-24920D01*
X45981Y-24871D01*
X46071Y-24781D01*
X46119Y-24663D01*
X46120Y-24536D01*
X46120Y-25780D01*
X46025Y-25780D01*
X46021Y-25768D01*
X45931Y-25678D01*
X45813Y-25630D01*
X45686Y-25629D01*
X45568Y-25678D01*
X45478Y-25768D01*
X45430Y-25886D01*
X45429Y-26013D01*
X45478Y-26131D01*
X45568Y-26221D01*
X45686Y-26269D01*
X45813Y-26270D01*
X45931Y-26221D01*
X46021Y-26131D01*
X46025Y-26120D01*
X48160Y-26120D01*
X48160Y-26560D01*
M02*
