G04 (created by PCBNEW (2013-07-07 BZR 4022)-stable) date 4/21/2018 10:45:42 AM*
%MOIN*%
G04 Gerber Fmt 3.4, Leading zero omitted, Abs format*
%FSLAX34Y34*%
G01*
G70*
G90*
G04 APERTURE LIST*
%ADD10C,0.00590551*%
%ADD11C,0.01*%
%ADD12R,0.1X0.1*%
%ADD13C,0.1*%
%ADD14R,0.06X0.06*%
%ADD15C,0.06*%
%ADD16R,0.0629921X0.0629921*%
%ADD17C,0.0629921*%
%ADD18C,0.0984252*%
%ADD19C,0.011811*%
%ADD20R,0.0708661X0.0708661*%
%ADD21C,0.0708661*%
%ADD22C,0.045*%
%ADD23C,0.066*%
%ADD24C,0.1437*%
%ADD25R,0.0591X0.0591*%
%ADD26C,0.0591*%
%ADD27O,0.0393701X0.0669291*%
%ADD28C,0.0177165*%
%ADD29C,0.075*%
%ADD30R,0.075X0.075*%
%ADD31O,0.0590551X0.0826772*%
%ADD32R,0.0787402X0.0562992*%
%ADD33R,0.0787402X0.0574803*%
%ADD34C,0.04*%
%ADD35C,0.016*%
%ADD36C,0.008*%
G04 APERTURE END LIST*
G54D10*
G54D11*
X53756Y-44221D02*
X54004Y-44221D01*
X53870Y-44374D01*
X53928Y-44374D01*
X53966Y-44393D01*
X53985Y-44412D01*
X54004Y-44450D01*
X54004Y-44545D01*
X53985Y-44583D01*
X53966Y-44602D01*
X53928Y-44621D01*
X53813Y-44621D01*
X53775Y-44602D01*
X53756Y-44583D01*
G54D12*
X64248Y-44094D03*
G54D13*
X65748Y-44094D03*
X67248Y-44094D03*
G54D14*
X46600Y-43100D03*
G54D15*
X45600Y-43100D03*
X44600Y-43100D03*
X43600Y-43100D03*
X42600Y-43100D03*
G54D14*
X53100Y-37100D03*
G54D15*
X52100Y-37100D03*
X53100Y-36100D03*
X52100Y-36100D03*
X53100Y-35100D03*
X52100Y-35100D03*
G54D16*
X38192Y-38600D03*
G54D17*
X37207Y-38600D03*
G54D18*
X35178Y-19300D03*
X37147Y-19300D03*
X39115Y-19300D03*
X41084Y-19300D03*
X45021Y-19300D03*
X43052Y-19300D03*
G54D19*
X62810Y-32780D03*
X42600Y-38700D03*
X44200Y-35200D03*
X40500Y-33300D03*
X42500Y-36600D03*
X40500Y-34700D03*
X41600Y-33900D03*
X40500Y-35900D03*
X44930Y-34250D03*
G54D20*
X32100Y-38115D03*
G54D21*
X32100Y-40084D03*
G54D19*
X43200Y-33900D03*
X41540Y-35320D03*
X43200Y-35300D03*
X44200Y-33300D03*
X42500Y-34700D03*
G54D22*
X40800Y-39000D03*
G54D23*
X49600Y-43900D03*
X48600Y-43900D03*
X47600Y-43900D03*
G54D14*
X70800Y-38600D03*
G54D15*
X70800Y-39600D03*
G54D24*
X62180Y-43700D03*
X57507Y-43700D03*
G54D25*
X58092Y-41200D03*
G54D26*
X58592Y-40200D03*
X59092Y-41200D03*
X59592Y-40200D03*
X60092Y-41200D03*
X60592Y-40200D03*
X61092Y-41200D03*
X61592Y-40200D03*
G54D24*
X55881Y-43700D03*
X51208Y-43700D03*
G54D25*
X51793Y-41200D03*
G54D26*
X52293Y-40200D03*
X52793Y-41200D03*
X53293Y-40200D03*
X53793Y-41200D03*
X54293Y-40200D03*
X54793Y-41200D03*
X55293Y-40200D03*
G54D14*
X52100Y-33100D03*
G54D15*
X53100Y-33100D03*
G54D27*
X46107Y-44600D03*
X43292Y-44600D03*
G54D28*
X44955Y-44292D03*
X44700Y-44796D03*
X44444Y-44292D03*
X44188Y-44796D03*
X45211Y-44796D03*
G54D15*
X70800Y-29600D03*
X70800Y-30600D03*
X70800Y-31600D03*
X70800Y-32600D03*
X70800Y-33600D03*
X70800Y-34600D03*
X70800Y-35600D03*
G54D14*
X70800Y-36600D03*
X72800Y-36600D03*
G54D15*
X72800Y-35600D03*
X72800Y-34600D03*
X72800Y-33600D03*
X72800Y-32600D03*
X72800Y-31600D03*
X72800Y-30600D03*
X72800Y-29600D03*
X69800Y-29600D03*
X69800Y-30600D03*
X69800Y-31600D03*
X69800Y-32600D03*
X69800Y-33600D03*
X69800Y-34600D03*
X69800Y-35600D03*
X69800Y-36600D03*
G54D29*
X38284Y-33913D03*
X38284Y-35487D03*
G54D30*
X36316Y-35487D03*
G54D29*
X36316Y-33913D03*
G54D19*
X62810Y-34070D03*
X61150Y-34090D03*
X61380Y-33170D03*
X61800Y-32450D03*
G54D22*
X49450Y-23550D03*
X39900Y-45200D03*
X38150Y-44300D03*
X56600Y-22500D03*
X54350Y-20600D03*
X52300Y-20600D03*
X36200Y-44400D03*
X48700Y-32200D03*
X47300Y-24300D03*
X47400Y-27600D03*
X33300Y-27000D03*
X34600Y-22900D03*
X50100Y-32200D03*
X65100Y-22200D03*
X62650Y-22200D03*
G54D18*
X39768Y-48400D03*
X35831Y-48400D03*
X37800Y-48400D03*
X66074Y-19200D03*
X64105Y-19200D03*
X62137Y-19200D03*
X60168Y-19200D03*
X58200Y-19200D03*
X56231Y-19200D03*
X54262Y-19200D03*
X50325Y-19200D03*
X52294Y-19200D03*
G54D14*
X70800Y-38600D03*
G54D15*
X71800Y-38600D03*
G54D22*
X68700Y-39600D03*
X62600Y-39900D03*
G54D31*
X43085Y-45700D03*
G54D32*
X45841Y-44487D03*
G54D33*
X43558Y-44487D03*
G54D31*
X46314Y-45700D03*
G54D34*
X44000Y-24600D03*
X45000Y-24600D03*
X45800Y-24600D03*
X45800Y-23600D03*
X50230Y-27050D03*
X50400Y-30200D03*
X58750Y-24200D03*
X48630Y-39030D03*
X58290Y-35230D03*
X55300Y-23900D03*
X63400Y-24400D03*
X61780Y-26600D03*
X48800Y-34300D03*
X45390Y-34280D03*
X59010Y-37480D03*
X44100Y-36600D03*
X60470Y-28480D03*
X61510Y-38230D03*
X52090Y-31000D03*
X53070Y-30980D03*
X45200Y-36550D03*
X44000Y-37600D03*
X51000Y-32800D03*
X63800Y-30170D03*
X63600Y-28070D03*
X44600Y-27800D03*
X44600Y-31000D03*
X41000Y-31000D03*
X41000Y-28200D03*
X42400Y-26800D03*
X42400Y-26000D03*
X42400Y-25200D03*
X42400Y-24000D03*
X42400Y-23200D03*
X42400Y-22400D03*
X42200Y-21600D03*
X41400Y-21600D03*
X40600Y-21600D03*
X62790Y-28040D03*
X63130Y-30250D03*
X34600Y-28600D03*
X38200Y-28600D03*
X37700Y-26600D03*
X39000Y-26800D03*
X39000Y-26000D03*
X39000Y-25200D03*
X39000Y-24000D03*
X39000Y-23200D03*
X39000Y-22400D03*
X39000Y-21600D03*
X38200Y-21600D03*
X37400Y-21600D03*
X63430Y-40220D03*
X65200Y-37800D03*
X62250Y-40600D03*
X60000Y-39000D03*
X55340Y-31520D03*
X55070Y-33180D03*
X55820Y-32670D03*
X48470Y-33000D03*
X41530Y-31350D03*
X41500Y-24600D03*
X56970Y-29800D03*
X50000Y-33900D03*
X56880Y-29110D03*
X41790Y-40280D03*
X49075Y-38575D03*
X38800Y-31680D03*
X56010Y-36420D03*
X49700Y-41300D03*
X55990Y-34500D03*
X48900Y-41300D03*
X60870Y-34760D03*
X60820Y-35320D03*
X47700Y-41400D03*
X45600Y-21600D03*
X44800Y-21600D03*
X44000Y-21600D03*
X35400Y-24400D03*
X35400Y-23200D03*
X35400Y-21800D03*
X34800Y-21000D03*
X36200Y-21000D03*
X48500Y-30400D03*
X54300Y-22250D03*
X61050Y-25900D03*
X55800Y-29670D03*
X36900Y-43550D03*
X36900Y-42950D03*
X58810Y-35230D03*
X51250Y-22200D03*
X63900Y-37100D03*
X66500Y-24000D03*
X66350Y-23050D03*
X64200Y-23850D03*
X50480Y-38920D03*
X41800Y-42400D03*
X40550Y-32070D03*
X33430Y-24370D03*
X33460Y-23420D03*
X61550Y-23450D03*
X50220Y-26550D03*
X33420Y-32060D03*
X47700Y-38900D03*
X47200Y-41400D03*
X54100Y-36600D03*
X54100Y-35500D03*
X50100Y-36200D03*
X48600Y-36100D03*
X31000Y-35200D03*
X46470Y-41690D03*
X35850Y-39150D03*
X34400Y-39150D03*
X62300Y-36100D03*
X60670Y-38330D03*
X59000Y-36830D03*
X42250Y-40450D03*
X46460Y-42460D03*
X45680Y-40030D03*
X32450Y-35720D03*
X51100Y-28400D03*
X40100Y-24600D03*
X57830Y-27050D03*
X61050Y-26800D03*
X58710Y-29750D03*
X58720Y-28490D03*
X32300Y-33600D03*
X41760Y-41740D03*
X48300Y-41400D03*
X56500Y-39000D03*
X58260Y-24260D03*
X39900Y-43000D03*
X46800Y-34450D03*
X49500Y-31000D03*
X48600Y-36800D03*
X51200Y-37660D03*
X43700Y-40450D03*
X62680Y-31780D03*
X56530Y-35120D03*
X45750Y-25950D03*
X52275Y-29100D03*
X65300Y-30300D03*
G54D35*
X40100Y-24600D02*
X40100Y-34000D01*
X40800Y-34700D02*
X42500Y-34700D01*
X40100Y-34000D02*
X40800Y-34700D01*
G54D10*
G36*
X71709Y-41210D02*
X71220Y-41210D01*
X71220Y-39516D01*
X71220Y-35516D01*
X71220Y-34516D01*
X71220Y-33516D01*
X71220Y-32516D01*
X71220Y-31516D01*
X71220Y-30516D01*
X71220Y-29516D01*
X71156Y-29362D01*
X71038Y-29244D01*
X70883Y-29180D01*
X70716Y-29179D01*
X70562Y-29243D01*
X70444Y-29361D01*
X70380Y-29516D01*
X70379Y-29683D01*
X70443Y-29837D01*
X70561Y-29955D01*
X70716Y-30019D01*
X70883Y-30020D01*
X71037Y-29956D01*
X71155Y-29838D01*
X71219Y-29683D01*
X71220Y-29516D01*
X71220Y-30516D01*
X71156Y-30362D01*
X71038Y-30244D01*
X70883Y-30180D01*
X70716Y-30179D01*
X70562Y-30243D01*
X70444Y-30361D01*
X70380Y-30516D01*
X70379Y-30683D01*
X70443Y-30837D01*
X70561Y-30955D01*
X70716Y-31019D01*
X70883Y-31020D01*
X71037Y-30956D01*
X71155Y-30838D01*
X71219Y-30683D01*
X71220Y-30516D01*
X71220Y-31516D01*
X71156Y-31362D01*
X71038Y-31244D01*
X70883Y-31180D01*
X70716Y-31179D01*
X70562Y-31243D01*
X70444Y-31361D01*
X70380Y-31516D01*
X70379Y-31683D01*
X70443Y-31837D01*
X70561Y-31955D01*
X70716Y-32019D01*
X70883Y-32020D01*
X71037Y-31956D01*
X71155Y-31838D01*
X71219Y-31683D01*
X71220Y-31516D01*
X71220Y-32516D01*
X71156Y-32362D01*
X71038Y-32244D01*
X70883Y-32180D01*
X70716Y-32179D01*
X70562Y-32243D01*
X70444Y-32361D01*
X70380Y-32516D01*
X70379Y-32683D01*
X70443Y-32837D01*
X70561Y-32955D01*
X70716Y-33019D01*
X70883Y-33020D01*
X71037Y-32956D01*
X71155Y-32838D01*
X71219Y-32683D01*
X71220Y-32516D01*
X71220Y-33516D01*
X71156Y-33362D01*
X71038Y-33244D01*
X70883Y-33180D01*
X70716Y-33179D01*
X70562Y-33243D01*
X70444Y-33361D01*
X70380Y-33516D01*
X70379Y-33683D01*
X70443Y-33837D01*
X70561Y-33955D01*
X70716Y-34019D01*
X70883Y-34020D01*
X71037Y-33956D01*
X71155Y-33838D01*
X71219Y-33683D01*
X71220Y-33516D01*
X71220Y-34516D01*
X71156Y-34362D01*
X71038Y-34244D01*
X70883Y-34180D01*
X70716Y-34179D01*
X70562Y-34243D01*
X70444Y-34361D01*
X70380Y-34516D01*
X70379Y-34683D01*
X70443Y-34837D01*
X70561Y-34955D01*
X70716Y-35019D01*
X70883Y-35020D01*
X71037Y-34956D01*
X71155Y-34838D01*
X71219Y-34683D01*
X71220Y-34516D01*
X71220Y-35516D01*
X71156Y-35362D01*
X71038Y-35244D01*
X70883Y-35180D01*
X70716Y-35179D01*
X70562Y-35243D01*
X70444Y-35361D01*
X70380Y-35516D01*
X70379Y-35683D01*
X70443Y-35837D01*
X70561Y-35955D01*
X70716Y-36019D01*
X70883Y-36020D01*
X71037Y-35956D01*
X71155Y-35838D01*
X71219Y-35683D01*
X71220Y-35516D01*
X71220Y-39516D01*
X71220Y-39516D01*
X71220Y-38876D01*
X71220Y-38276D01*
X71220Y-36876D01*
X71220Y-36276D01*
X71201Y-36232D01*
X71168Y-36198D01*
X71123Y-36180D01*
X71076Y-36179D01*
X70476Y-36179D01*
X70432Y-36198D01*
X70398Y-36231D01*
X70380Y-36276D01*
X70379Y-36323D01*
X70379Y-36923D01*
X70398Y-36967D01*
X70431Y-37001D01*
X70476Y-37019D01*
X70523Y-37020D01*
X71123Y-37020D01*
X71167Y-37001D01*
X71201Y-36968D01*
X71219Y-36923D01*
X71220Y-36876D01*
X71220Y-38276D01*
X71201Y-38232D01*
X71168Y-38198D01*
X71123Y-38180D01*
X71076Y-38179D01*
X70476Y-38179D01*
X70432Y-38198D01*
X70398Y-38231D01*
X70380Y-38276D01*
X70379Y-38323D01*
X70379Y-38923D01*
X70398Y-38967D01*
X70431Y-39001D01*
X70476Y-39019D01*
X70523Y-39020D01*
X71123Y-39020D01*
X71167Y-39001D01*
X71201Y-38968D01*
X71219Y-38923D01*
X71220Y-38876D01*
X71220Y-39516D01*
X71156Y-39362D01*
X71038Y-39244D01*
X70883Y-39180D01*
X70716Y-39179D01*
X70562Y-39243D01*
X70444Y-39361D01*
X70380Y-39516D01*
X70379Y-39683D01*
X70443Y-39837D01*
X70561Y-39955D01*
X70716Y-40019D01*
X70883Y-40020D01*
X71037Y-39956D01*
X71155Y-39838D01*
X71219Y-39683D01*
X71220Y-39516D01*
X71220Y-41210D01*
X70346Y-41210D01*
X70346Y-36669D01*
X70346Y-35669D01*
X70346Y-34669D01*
X70346Y-33669D01*
X70346Y-32669D01*
X70346Y-31669D01*
X70346Y-30669D01*
X70346Y-29669D01*
X70331Y-29455D01*
X70278Y-29326D01*
X70186Y-29298D01*
X70101Y-29382D01*
X70101Y-29213D01*
X70073Y-29121D01*
X69869Y-29053D01*
X69655Y-29068D01*
X69526Y-29121D01*
X69498Y-29213D01*
X69800Y-29515D01*
X70101Y-29213D01*
X70101Y-29382D01*
X69884Y-29600D01*
X70186Y-29901D01*
X70278Y-29873D01*
X70346Y-29669D01*
X70346Y-30669D01*
X70331Y-30455D01*
X70278Y-30326D01*
X70186Y-30298D01*
X70101Y-30382D01*
X70101Y-30213D01*
X70073Y-30121D01*
X70014Y-30102D01*
X70073Y-30078D01*
X70101Y-29986D01*
X69800Y-29684D01*
X69715Y-29769D01*
X69715Y-29600D01*
X69413Y-29298D01*
X69321Y-29326D01*
X69253Y-29530D01*
X69268Y-29744D01*
X69321Y-29873D01*
X69413Y-29901D01*
X69715Y-29600D01*
X69715Y-29769D01*
X69498Y-29986D01*
X69526Y-30078D01*
X69585Y-30097D01*
X69526Y-30121D01*
X69498Y-30213D01*
X69800Y-30515D01*
X70101Y-30213D01*
X70101Y-30382D01*
X69884Y-30600D01*
X70186Y-30901D01*
X70278Y-30873D01*
X70346Y-30669D01*
X70346Y-31669D01*
X70331Y-31455D01*
X70278Y-31326D01*
X70186Y-31298D01*
X70101Y-31382D01*
X70101Y-31213D01*
X70073Y-31121D01*
X70014Y-31102D01*
X70073Y-31078D01*
X70101Y-30986D01*
X69800Y-30684D01*
X69715Y-30769D01*
X69715Y-30600D01*
X69413Y-30298D01*
X69321Y-30326D01*
X69253Y-30530D01*
X69268Y-30744D01*
X69321Y-30873D01*
X69413Y-30901D01*
X69715Y-30600D01*
X69715Y-30769D01*
X69498Y-30986D01*
X69526Y-31078D01*
X69585Y-31097D01*
X69526Y-31121D01*
X69498Y-31213D01*
X69800Y-31515D01*
X70101Y-31213D01*
X70101Y-31382D01*
X69884Y-31600D01*
X70186Y-31901D01*
X70278Y-31873D01*
X70346Y-31669D01*
X70346Y-32669D01*
X70331Y-32455D01*
X70278Y-32326D01*
X70186Y-32298D01*
X70101Y-32382D01*
X70101Y-32213D01*
X70073Y-32121D01*
X70014Y-32102D01*
X70073Y-32078D01*
X70101Y-31986D01*
X69800Y-31684D01*
X69715Y-31769D01*
X69715Y-31600D01*
X69413Y-31298D01*
X69321Y-31326D01*
X69253Y-31530D01*
X69268Y-31744D01*
X69321Y-31873D01*
X69413Y-31901D01*
X69715Y-31600D01*
X69715Y-31769D01*
X69498Y-31986D01*
X69526Y-32078D01*
X69585Y-32097D01*
X69526Y-32121D01*
X69498Y-32213D01*
X69800Y-32515D01*
X70101Y-32213D01*
X70101Y-32382D01*
X69884Y-32600D01*
X70186Y-32901D01*
X70278Y-32873D01*
X70346Y-32669D01*
X70346Y-33669D01*
X70331Y-33455D01*
X70278Y-33326D01*
X70186Y-33298D01*
X70101Y-33382D01*
X70101Y-33213D01*
X70073Y-33121D01*
X70014Y-33102D01*
X70073Y-33078D01*
X70101Y-32986D01*
X69800Y-32684D01*
X69715Y-32769D01*
X69715Y-32600D01*
X69413Y-32298D01*
X69321Y-32326D01*
X69253Y-32530D01*
X69268Y-32744D01*
X69321Y-32873D01*
X69413Y-32901D01*
X69715Y-32600D01*
X69715Y-32769D01*
X69498Y-32986D01*
X69526Y-33078D01*
X69585Y-33097D01*
X69526Y-33121D01*
X69498Y-33213D01*
X69800Y-33515D01*
X70101Y-33213D01*
X70101Y-33382D01*
X69884Y-33600D01*
X70186Y-33901D01*
X70278Y-33873D01*
X70346Y-33669D01*
X70346Y-34669D01*
X70331Y-34455D01*
X70278Y-34326D01*
X70186Y-34298D01*
X70101Y-34382D01*
X70101Y-34213D01*
X70073Y-34121D01*
X70014Y-34102D01*
X70073Y-34078D01*
X70101Y-33986D01*
X69800Y-33684D01*
X69715Y-33769D01*
X69715Y-33600D01*
X69413Y-33298D01*
X69321Y-33326D01*
X69253Y-33530D01*
X69268Y-33744D01*
X69321Y-33873D01*
X69413Y-33901D01*
X69715Y-33600D01*
X69715Y-33769D01*
X69498Y-33986D01*
X69526Y-34078D01*
X69585Y-34097D01*
X69526Y-34121D01*
X69498Y-34213D01*
X69800Y-34515D01*
X70101Y-34213D01*
X70101Y-34382D01*
X69884Y-34600D01*
X70186Y-34901D01*
X70278Y-34873D01*
X70346Y-34669D01*
X70346Y-35669D01*
X70331Y-35455D01*
X70278Y-35326D01*
X70186Y-35298D01*
X70101Y-35382D01*
X70101Y-35213D01*
X70073Y-35121D01*
X70014Y-35102D01*
X70073Y-35078D01*
X70101Y-34986D01*
X69800Y-34684D01*
X69715Y-34769D01*
X69715Y-34600D01*
X69413Y-34298D01*
X69321Y-34326D01*
X69253Y-34530D01*
X69268Y-34744D01*
X69321Y-34873D01*
X69413Y-34901D01*
X69715Y-34600D01*
X69715Y-34769D01*
X69498Y-34986D01*
X69526Y-35078D01*
X69585Y-35097D01*
X69526Y-35121D01*
X69498Y-35213D01*
X69800Y-35515D01*
X70101Y-35213D01*
X70101Y-35382D01*
X69884Y-35600D01*
X70186Y-35901D01*
X70278Y-35873D01*
X70346Y-35669D01*
X70346Y-36669D01*
X70331Y-36455D01*
X70278Y-36326D01*
X70186Y-36298D01*
X70101Y-36382D01*
X70101Y-36213D01*
X70073Y-36121D01*
X70014Y-36102D01*
X70073Y-36078D01*
X70101Y-35986D01*
X69800Y-35684D01*
X69715Y-35769D01*
X69715Y-35600D01*
X69413Y-35298D01*
X69321Y-35326D01*
X69253Y-35530D01*
X69268Y-35744D01*
X69321Y-35873D01*
X69413Y-35901D01*
X69715Y-35600D01*
X69715Y-35769D01*
X69498Y-35986D01*
X69526Y-36078D01*
X69585Y-36097D01*
X69526Y-36121D01*
X69498Y-36213D01*
X69800Y-36515D01*
X70101Y-36213D01*
X70101Y-36382D01*
X69884Y-36600D01*
X70186Y-36901D01*
X70278Y-36873D01*
X70346Y-36669D01*
X70346Y-41210D01*
X70101Y-41210D01*
X70101Y-36986D01*
X69800Y-36684D01*
X69715Y-36769D01*
X69715Y-36600D01*
X69413Y-36298D01*
X69321Y-36326D01*
X69253Y-36530D01*
X69268Y-36744D01*
X69321Y-36873D01*
X69413Y-36901D01*
X69715Y-36600D01*
X69715Y-36769D01*
X69498Y-36986D01*
X69526Y-37078D01*
X69730Y-37146D01*
X69944Y-37131D01*
X70073Y-37078D01*
X70101Y-36986D01*
X70101Y-41210D01*
X69831Y-41210D01*
X69045Y-42112D01*
X69045Y-39531D01*
X68992Y-39404D01*
X68895Y-39307D01*
X68768Y-39255D01*
X68631Y-39254D01*
X68504Y-39307D01*
X68407Y-39404D01*
X68355Y-39531D01*
X68354Y-39668D01*
X68407Y-39795D01*
X68504Y-39892D01*
X68631Y-39944D01*
X68768Y-39945D01*
X68895Y-39892D01*
X68992Y-39795D01*
X69044Y-39668D01*
X69045Y-39531D01*
X69045Y-42112D01*
X68110Y-43185D01*
X68110Y-44860D01*
X67868Y-44860D01*
X67868Y-43971D01*
X67773Y-43743D01*
X67772Y-43742D01*
X67772Y-40784D01*
X67772Y-26414D01*
X67542Y-25857D01*
X67115Y-25430D01*
X66558Y-25198D01*
X65955Y-25198D01*
X65398Y-25428D01*
X64971Y-25854D01*
X64739Y-26412D01*
X64739Y-27015D01*
X64969Y-27572D01*
X65395Y-27999D01*
X65952Y-28231D01*
X66556Y-28231D01*
X67113Y-28001D01*
X67540Y-27575D01*
X67772Y-27017D01*
X67772Y-26414D01*
X67772Y-40784D01*
X67542Y-40227D01*
X67115Y-39800D01*
X66558Y-39568D01*
X65955Y-39568D01*
X65620Y-39707D01*
X65620Y-30236D01*
X65571Y-30118D01*
X65481Y-30028D01*
X65363Y-29980D01*
X65236Y-29979D01*
X65118Y-30028D01*
X65028Y-30118D01*
X64980Y-30236D01*
X64979Y-30363D01*
X65028Y-30481D01*
X65118Y-30571D01*
X65236Y-30619D01*
X65363Y-30620D01*
X65481Y-30571D01*
X65571Y-30481D01*
X65619Y-30363D01*
X65620Y-30236D01*
X65620Y-39707D01*
X65520Y-39748D01*
X65520Y-37736D01*
X65471Y-37618D01*
X65381Y-37528D01*
X65263Y-37480D01*
X65136Y-37479D01*
X65018Y-37528D01*
X64928Y-37618D01*
X64880Y-37736D01*
X64879Y-37863D01*
X64928Y-37981D01*
X65018Y-38071D01*
X65136Y-38119D01*
X65263Y-38120D01*
X65381Y-38071D01*
X65471Y-37981D01*
X65519Y-37863D01*
X65520Y-37736D01*
X65520Y-39748D01*
X65398Y-39798D01*
X64971Y-40224D01*
X64739Y-40782D01*
X64739Y-41385D01*
X64969Y-41942D01*
X65395Y-42369D01*
X65952Y-42601D01*
X66556Y-42601D01*
X67113Y-42371D01*
X67540Y-41945D01*
X67772Y-41387D01*
X67772Y-40784D01*
X67772Y-43742D01*
X67599Y-43569D01*
X67371Y-43474D01*
X67125Y-43474D01*
X66897Y-43568D01*
X66722Y-43742D01*
X66628Y-43970D01*
X66627Y-44217D01*
X66722Y-44445D01*
X66896Y-44619D01*
X67124Y-44714D01*
X67370Y-44714D01*
X67598Y-44620D01*
X67773Y-44446D01*
X67867Y-44218D01*
X67868Y-43971D01*
X67868Y-44860D01*
X66368Y-44860D01*
X66368Y-43971D01*
X66273Y-43743D01*
X66099Y-43569D01*
X65871Y-43474D01*
X65625Y-43474D01*
X65397Y-43568D01*
X65222Y-43742D01*
X65128Y-43970D01*
X65127Y-44217D01*
X65222Y-44445D01*
X65396Y-44619D01*
X65624Y-44714D01*
X65870Y-44714D01*
X66098Y-44620D01*
X66273Y-44446D01*
X66367Y-44218D01*
X66368Y-43971D01*
X66368Y-44860D01*
X64868Y-44860D01*
X64868Y-44570D01*
X64868Y-43570D01*
X64849Y-43526D01*
X64816Y-43492D01*
X64772Y-43474D01*
X64724Y-43474D01*
X64120Y-43474D01*
X64120Y-30106D01*
X64071Y-29988D01*
X63981Y-29898D01*
X63920Y-29873D01*
X63920Y-28006D01*
X63871Y-27888D01*
X63781Y-27798D01*
X63720Y-27773D01*
X63720Y-24336D01*
X63671Y-24218D01*
X63581Y-24128D01*
X63463Y-24080D01*
X63336Y-24079D01*
X63218Y-24128D01*
X63128Y-24218D01*
X63080Y-24336D01*
X63079Y-24463D01*
X63128Y-24581D01*
X63218Y-24671D01*
X63336Y-24719D01*
X63463Y-24720D01*
X63581Y-24671D01*
X63671Y-24581D01*
X63719Y-24463D01*
X63720Y-24336D01*
X63720Y-27773D01*
X63663Y-27750D01*
X63536Y-27749D01*
X63418Y-27798D01*
X63328Y-27888D01*
X63280Y-28006D01*
X63279Y-28133D01*
X63328Y-28251D01*
X63418Y-28341D01*
X63536Y-28389D01*
X63663Y-28390D01*
X63781Y-28341D01*
X63871Y-28251D01*
X63919Y-28133D01*
X63920Y-28006D01*
X63920Y-29873D01*
X63863Y-29850D01*
X63736Y-29849D01*
X63618Y-29898D01*
X63528Y-29988D01*
X63480Y-30106D01*
X63479Y-30233D01*
X63528Y-30351D01*
X63618Y-30441D01*
X63736Y-30489D01*
X63863Y-30490D01*
X63981Y-30441D01*
X64071Y-30351D01*
X64119Y-30233D01*
X64120Y-30106D01*
X64120Y-43474D01*
X63750Y-43474D01*
X63750Y-40156D01*
X63701Y-40038D01*
X63611Y-39948D01*
X63493Y-39900D01*
X63450Y-39900D01*
X63450Y-30186D01*
X63401Y-30068D01*
X63311Y-29978D01*
X63193Y-29930D01*
X63110Y-29929D01*
X63110Y-27976D01*
X63061Y-27858D01*
X62971Y-27768D01*
X62853Y-27720D01*
X62726Y-27719D01*
X62608Y-27768D01*
X62518Y-27858D01*
X62470Y-27976D01*
X62469Y-28103D01*
X62518Y-28221D01*
X62608Y-28311D01*
X62726Y-28359D01*
X62853Y-28360D01*
X62971Y-28311D01*
X63061Y-28221D01*
X63109Y-28103D01*
X63110Y-27976D01*
X63110Y-29929D01*
X63066Y-29929D01*
X62948Y-29978D01*
X62858Y-30068D01*
X62810Y-30186D01*
X62809Y-30313D01*
X62858Y-30431D01*
X62948Y-30521D01*
X63066Y-30569D01*
X63193Y-30570D01*
X63311Y-30521D01*
X63401Y-30431D01*
X63449Y-30313D01*
X63450Y-30186D01*
X63450Y-39900D01*
X63366Y-39899D01*
X63248Y-39948D01*
X63158Y-40038D01*
X63110Y-40156D01*
X63109Y-40283D01*
X63158Y-40401D01*
X63248Y-40491D01*
X63366Y-40539D01*
X63493Y-40540D01*
X63611Y-40491D01*
X63701Y-40401D01*
X63749Y-40283D01*
X63750Y-40156D01*
X63750Y-43474D01*
X63724Y-43474D01*
X63680Y-43492D01*
X63646Y-43526D01*
X63628Y-43570D01*
X63628Y-43618D01*
X63628Y-44618D01*
X63646Y-44662D01*
X63679Y-44696D01*
X63724Y-44714D01*
X63771Y-44714D01*
X64771Y-44714D01*
X64815Y-44696D01*
X64849Y-44662D01*
X64868Y-44618D01*
X64868Y-44570D01*
X64868Y-44860D01*
X63019Y-44860D01*
X63019Y-43534D01*
X63000Y-43488D01*
X63000Y-31716D01*
X62951Y-31598D01*
X62861Y-31508D01*
X62743Y-31460D01*
X62616Y-31459D01*
X62498Y-31508D01*
X62408Y-31598D01*
X62360Y-31716D01*
X62359Y-31843D01*
X62408Y-31961D01*
X62498Y-32051D01*
X62616Y-32099D01*
X62743Y-32100D01*
X62861Y-32051D01*
X62951Y-31961D01*
X62999Y-31843D01*
X63000Y-31716D01*
X63000Y-43488D01*
X62945Y-43355D01*
X62945Y-39831D01*
X62892Y-39704D01*
X62795Y-39607D01*
X62668Y-39555D01*
X62531Y-39554D01*
X62404Y-39607D01*
X62307Y-39704D01*
X62255Y-39831D01*
X62254Y-39968D01*
X62307Y-40095D01*
X62404Y-40192D01*
X62531Y-40244D01*
X62668Y-40245D01*
X62795Y-40192D01*
X62892Y-40095D01*
X62944Y-39968D01*
X62945Y-39831D01*
X62945Y-43355D01*
X62891Y-43226D01*
X62656Y-42990D01*
X62570Y-42954D01*
X62570Y-40536D01*
X62521Y-40418D01*
X62431Y-40328D01*
X62313Y-40280D01*
X62186Y-40279D01*
X62100Y-40315D01*
X62100Y-26536D01*
X62051Y-26418D01*
X61961Y-26328D01*
X61843Y-26280D01*
X61716Y-26279D01*
X61598Y-26328D01*
X61508Y-26418D01*
X61460Y-26536D01*
X61459Y-26663D01*
X61508Y-26781D01*
X61598Y-26871D01*
X61716Y-26919D01*
X61843Y-26920D01*
X61961Y-26871D01*
X62051Y-26781D01*
X62099Y-26663D01*
X62100Y-26536D01*
X62100Y-40315D01*
X62068Y-40328D01*
X62008Y-40389D01*
X62008Y-40118D01*
X61944Y-39965D01*
X61830Y-39850D01*
X61830Y-38166D01*
X61781Y-38048D01*
X61691Y-37958D01*
X61573Y-37910D01*
X61446Y-37909D01*
X61328Y-37958D01*
X61238Y-38048D01*
X61190Y-38166D01*
X61190Y-34696D01*
X61141Y-34578D01*
X61051Y-34488D01*
X60933Y-34440D01*
X60806Y-34439D01*
X60790Y-34446D01*
X60790Y-28416D01*
X60741Y-28298D01*
X60651Y-28208D01*
X60533Y-28160D01*
X60406Y-28159D01*
X60288Y-28208D01*
X60198Y-28298D01*
X60150Y-28416D01*
X60149Y-28543D01*
X60198Y-28661D01*
X60288Y-28751D01*
X60406Y-28799D01*
X60533Y-28800D01*
X60651Y-28751D01*
X60741Y-28661D01*
X60789Y-28543D01*
X60790Y-28416D01*
X60790Y-34446D01*
X60688Y-34488D01*
X60598Y-34578D01*
X60550Y-34696D01*
X60549Y-34823D01*
X60598Y-34941D01*
X60686Y-35028D01*
X60638Y-35048D01*
X60548Y-35138D01*
X60500Y-35256D01*
X60499Y-35383D01*
X60548Y-35501D01*
X60638Y-35591D01*
X60756Y-35639D01*
X60883Y-35640D01*
X61001Y-35591D01*
X61091Y-35501D01*
X61139Y-35383D01*
X61140Y-35256D01*
X61091Y-35138D01*
X61003Y-35051D01*
X61051Y-35031D01*
X61141Y-34941D01*
X61189Y-34823D01*
X61190Y-34696D01*
X61190Y-38166D01*
X61189Y-38293D01*
X61238Y-38411D01*
X61328Y-38501D01*
X61446Y-38549D01*
X61573Y-38550D01*
X61691Y-38501D01*
X61781Y-38411D01*
X61829Y-38293D01*
X61830Y-38166D01*
X61830Y-39850D01*
X61828Y-39848D01*
X61675Y-39785D01*
X61510Y-39785D01*
X61357Y-39848D01*
X61240Y-39965D01*
X61177Y-40117D01*
X61176Y-40283D01*
X61240Y-40435D01*
X61356Y-40552D01*
X61509Y-40616D01*
X61674Y-40616D01*
X61827Y-40553D01*
X61944Y-40436D01*
X62007Y-40283D01*
X62008Y-40118D01*
X62008Y-40389D01*
X61978Y-40418D01*
X61930Y-40536D01*
X61929Y-40663D01*
X61978Y-40781D01*
X62068Y-40871D01*
X62186Y-40919D01*
X62313Y-40920D01*
X62431Y-40871D01*
X62521Y-40781D01*
X62569Y-40663D01*
X62570Y-40536D01*
X62570Y-42954D01*
X62348Y-42862D01*
X62014Y-42862D01*
X61706Y-42989D01*
X61508Y-43187D01*
X61508Y-41118D01*
X61444Y-40965D01*
X61328Y-40848D01*
X61175Y-40785D01*
X61010Y-40785D01*
X61008Y-40786D01*
X61008Y-40118D01*
X60944Y-39965D01*
X60828Y-39848D01*
X60675Y-39785D01*
X60510Y-39785D01*
X60357Y-39848D01*
X60320Y-39885D01*
X60320Y-38936D01*
X60271Y-38818D01*
X60181Y-38728D01*
X60063Y-38680D01*
X59936Y-38679D01*
X59818Y-38728D01*
X59728Y-38818D01*
X59680Y-38936D01*
X59679Y-39063D01*
X59728Y-39181D01*
X59818Y-39271D01*
X59936Y-39319D01*
X60063Y-39320D01*
X60181Y-39271D01*
X60271Y-39181D01*
X60319Y-39063D01*
X60320Y-38936D01*
X60320Y-39885D01*
X60240Y-39965D01*
X60177Y-40117D01*
X60176Y-40283D01*
X60240Y-40435D01*
X60356Y-40552D01*
X60509Y-40616D01*
X60674Y-40616D01*
X60827Y-40553D01*
X60944Y-40436D01*
X61007Y-40283D01*
X61008Y-40118D01*
X61008Y-40786D01*
X60857Y-40848D01*
X60740Y-40965D01*
X60677Y-41117D01*
X60676Y-41283D01*
X60740Y-41435D01*
X60856Y-41552D01*
X61009Y-41616D01*
X61174Y-41616D01*
X61327Y-41553D01*
X61444Y-41436D01*
X61507Y-41283D01*
X61508Y-41118D01*
X61508Y-43187D01*
X61470Y-43225D01*
X61342Y-43533D01*
X61341Y-43866D01*
X61469Y-44175D01*
X61704Y-44411D01*
X62013Y-44539D01*
X62346Y-44539D01*
X62654Y-44412D01*
X62890Y-44176D01*
X63018Y-43868D01*
X63019Y-43534D01*
X63019Y-44860D01*
X60508Y-44860D01*
X60508Y-41118D01*
X60444Y-40965D01*
X60328Y-40848D01*
X60175Y-40785D01*
X60010Y-40785D01*
X60008Y-40786D01*
X60008Y-40118D01*
X59944Y-39965D01*
X59828Y-39848D01*
X59675Y-39785D01*
X59510Y-39785D01*
X59357Y-39848D01*
X59330Y-39875D01*
X59330Y-37416D01*
X59281Y-37298D01*
X59191Y-37208D01*
X59073Y-37160D01*
X59070Y-37160D01*
X59070Y-24136D01*
X59021Y-24018D01*
X58931Y-23928D01*
X58813Y-23880D01*
X58686Y-23879D01*
X58641Y-23898D01*
X58641Y-19725D01*
X58200Y-19284D01*
X58115Y-19369D01*
X58115Y-19200D01*
X57674Y-18758D01*
X57562Y-18811D01*
X57462Y-19084D01*
X57474Y-19375D01*
X57562Y-19588D01*
X57674Y-19641D01*
X58115Y-19200D01*
X58115Y-19369D01*
X57758Y-19725D01*
X57811Y-19837D01*
X58084Y-19937D01*
X58375Y-19925D01*
X58588Y-19837D01*
X58641Y-19725D01*
X58641Y-23898D01*
X58568Y-23928D01*
X58478Y-24018D01*
X58430Y-24136D01*
X58429Y-24263D01*
X58478Y-24381D01*
X58568Y-24471D01*
X58686Y-24519D01*
X58813Y-24520D01*
X58931Y-24471D01*
X59021Y-24381D01*
X59069Y-24263D01*
X59070Y-24136D01*
X59070Y-37160D01*
X58946Y-37159D01*
X58828Y-37208D01*
X58738Y-37298D01*
X58690Y-37416D01*
X58689Y-37543D01*
X58738Y-37661D01*
X58828Y-37751D01*
X58946Y-37799D01*
X59073Y-37800D01*
X59191Y-37751D01*
X59281Y-37661D01*
X59329Y-37543D01*
X59330Y-37416D01*
X59330Y-39875D01*
X59240Y-39965D01*
X59177Y-40117D01*
X59176Y-40283D01*
X59240Y-40435D01*
X59356Y-40552D01*
X59509Y-40616D01*
X59674Y-40616D01*
X59827Y-40553D01*
X59944Y-40436D01*
X60007Y-40283D01*
X60008Y-40118D01*
X60008Y-40786D01*
X59857Y-40848D01*
X59740Y-40965D01*
X59677Y-41117D01*
X59676Y-41283D01*
X59740Y-41435D01*
X59856Y-41552D01*
X60009Y-41616D01*
X60174Y-41616D01*
X60327Y-41553D01*
X60444Y-41436D01*
X60507Y-41283D01*
X60508Y-41118D01*
X60508Y-44860D01*
X59508Y-44860D01*
X59508Y-41118D01*
X59444Y-40965D01*
X59328Y-40848D01*
X59175Y-40785D01*
X59010Y-40785D01*
X59008Y-40786D01*
X59008Y-40118D01*
X58944Y-39965D01*
X58828Y-39848D01*
X58675Y-39785D01*
X58610Y-39785D01*
X58610Y-35166D01*
X58561Y-35048D01*
X58471Y-34958D01*
X58353Y-34910D01*
X58226Y-34909D01*
X58108Y-34958D01*
X58018Y-35048D01*
X57970Y-35166D01*
X57969Y-35293D01*
X58018Y-35411D01*
X58108Y-35501D01*
X58226Y-35549D01*
X58353Y-35550D01*
X58471Y-35501D01*
X58561Y-35411D01*
X58609Y-35293D01*
X58610Y-35166D01*
X58610Y-39785D01*
X58510Y-39785D01*
X58357Y-39848D01*
X58240Y-39965D01*
X58177Y-40117D01*
X58176Y-40283D01*
X58240Y-40435D01*
X58356Y-40552D01*
X58509Y-40616D01*
X58674Y-40616D01*
X58827Y-40553D01*
X58944Y-40436D01*
X59007Y-40283D01*
X59008Y-40118D01*
X59008Y-40786D01*
X58857Y-40848D01*
X58740Y-40965D01*
X58677Y-41117D01*
X58676Y-41283D01*
X58740Y-41435D01*
X58856Y-41552D01*
X59009Y-41616D01*
X59174Y-41616D01*
X59327Y-41553D01*
X59444Y-41436D01*
X59507Y-41283D01*
X59508Y-41118D01*
X59508Y-44860D01*
X58508Y-44860D01*
X58508Y-41472D01*
X58508Y-40881D01*
X58489Y-40837D01*
X58456Y-40803D01*
X58411Y-40785D01*
X58364Y-40785D01*
X57773Y-40785D01*
X57729Y-40803D01*
X57695Y-40837D01*
X57677Y-40881D01*
X57676Y-40929D01*
X57676Y-41520D01*
X57695Y-41564D01*
X57728Y-41597D01*
X57773Y-41616D01*
X57820Y-41616D01*
X58411Y-41616D01*
X58455Y-41598D01*
X58489Y-41564D01*
X58507Y-41520D01*
X58508Y-41472D01*
X58508Y-44860D01*
X58346Y-44860D01*
X58346Y-43534D01*
X58218Y-43226D01*
X57983Y-42990D01*
X57675Y-42862D01*
X57341Y-42862D01*
X57290Y-42883D01*
X57290Y-29736D01*
X57241Y-29618D01*
X57200Y-29577D01*
X57200Y-29046D01*
X57151Y-28928D01*
X57061Y-28838D01*
X56945Y-28790D01*
X56945Y-22431D01*
X56892Y-22304D01*
X56795Y-22207D01*
X56668Y-22155D01*
X56531Y-22154D01*
X56404Y-22207D01*
X56307Y-22304D01*
X56255Y-22431D01*
X56254Y-22568D01*
X56307Y-22695D01*
X56404Y-22792D01*
X56531Y-22844D01*
X56668Y-22845D01*
X56795Y-22792D01*
X56892Y-22695D01*
X56944Y-22568D01*
X56945Y-22431D01*
X56945Y-28790D01*
X56943Y-28790D01*
X56816Y-28789D01*
X56698Y-28838D01*
X56608Y-28928D01*
X56560Y-29046D01*
X56559Y-29173D01*
X56608Y-29291D01*
X56698Y-29381D01*
X56816Y-29429D01*
X56943Y-29430D01*
X57061Y-29381D01*
X57151Y-29291D01*
X57199Y-29173D01*
X57200Y-29046D01*
X57200Y-29577D01*
X57151Y-29528D01*
X57033Y-29480D01*
X56906Y-29479D01*
X56788Y-29528D01*
X56698Y-29618D01*
X56650Y-29736D01*
X56649Y-29863D01*
X56698Y-29981D01*
X56788Y-30071D01*
X56906Y-30119D01*
X57033Y-30120D01*
X57151Y-30071D01*
X57241Y-29981D01*
X57289Y-29863D01*
X57290Y-29736D01*
X57290Y-42883D01*
X57033Y-42989D01*
X56850Y-43172D01*
X56850Y-35056D01*
X56801Y-34938D01*
X56711Y-34848D01*
X56593Y-34800D01*
X56466Y-34799D01*
X56348Y-34848D01*
X56310Y-34887D01*
X56310Y-34436D01*
X56261Y-34318D01*
X56171Y-34228D01*
X56140Y-34215D01*
X56140Y-32606D01*
X56091Y-32488D01*
X56001Y-32398D01*
X55883Y-32350D01*
X55756Y-32349D01*
X55660Y-32389D01*
X55660Y-31456D01*
X55620Y-31359D01*
X55620Y-23836D01*
X55571Y-23718D01*
X55481Y-23628D01*
X55363Y-23580D01*
X55236Y-23579D01*
X55118Y-23628D01*
X55028Y-23718D01*
X54980Y-23836D01*
X54979Y-23963D01*
X55028Y-24081D01*
X55118Y-24171D01*
X55236Y-24219D01*
X55363Y-24220D01*
X55481Y-24171D01*
X55571Y-24081D01*
X55619Y-23963D01*
X55620Y-23836D01*
X55620Y-31359D01*
X55611Y-31338D01*
X55521Y-31248D01*
X55403Y-31200D01*
X55276Y-31199D01*
X55158Y-31248D01*
X55068Y-31338D01*
X55020Y-31456D01*
X55019Y-31583D01*
X55068Y-31701D01*
X55158Y-31791D01*
X55276Y-31839D01*
X55403Y-31840D01*
X55521Y-31791D01*
X55611Y-31701D01*
X55659Y-31583D01*
X55660Y-31456D01*
X55660Y-32389D01*
X55638Y-32398D01*
X55548Y-32488D01*
X55500Y-32606D01*
X55499Y-32733D01*
X55548Y-32851D01*
X55638Y-32941D01*
X55756Y-32989D01*
X55883Y-32990D01*
X56001Y-32941D01*
X56091Y-32851D01*
X56139Y-32733D01*
X56140Y-32606D01*
X56140Y-34215D01*
X56053Y-34180D01*
X55926Y-34179D01*
X55808Y-34228D01*
X55718Y-34318D01*
X55670Y-34436D01*
X55669Y-34563D01*
X55718Y-34681D01*
X55808Y-34771D01*
X55926Y-34819D01*
X56053Y-34820D01*
X56171Y-34771D01*
X56261Y-34681D01*
X56309Y-34563D01*
X56310Y-34436D01*
X56310Y-34887D01*
X56258Y-34938D01*
X56210Y-35056D01*
X56209Y-35183D01*
X56258Y-35301D01*
X56348Y-35391D01*
X56466Y-35439D01*
X56593Y-35440D01*
X56711Y-35391D01*
X56801Y-35301D01*
X56849Y-35183D01*
X56850Y-35056D01*
X56850Y-43172D01*
X56797Y-43225D01*
X56694Y-43472D01*
X56592Y-43226D01*
X56356Y-42990D01*
X56330Y-42979D01*
X56330Y-36356D01*
X56281Y-36238D01*
X56191Y-36148D01*
X56073Y-36100D01*
X55946Y-36099D01*
X55828Y-36148D01*
X55738Y-36238D01*
X55690Y-36356D01*
X55689Y-36483D01*
X55738Y-36601D01*
X55828Y-36691D01*
X55946Y-36739D01*
X56073Y-36740D01*
X56191Y-36691D01*
X56281Y-36601D01*
X56329Y-36483D01*
X56330Y-36356D01*
X56330Y-42979D01*
X56048Y-42862D01*
X55715Y-42862D01*
X55708Y-42864D01*
X55708Y-40118D01*
X55645Y-39965D01*
X55528Y-39848D01*
X55390Y-39791D01*
X55390Y-33116D01*
X55341Y-32998D01*
X55251Y-32908D01*
X55133Y-32860D01*
X55006Y-32859D01*
X54888Y-32908D01*
X54798Y-32998D01*
X54750Y-33116D01*
X54749Y-33243D01*
X54798Y-33361D01*
X54888Y-33451D01*
X55006Y-33499D01*
X55133Y-33500D01*
X55251Y-33451D01*
X55341Y-33361D01*
X55389Y-33243D01*
X55390Y-33116D01*
X55390Y-39791D01*
X55376Y-39785D01*
X55211Y-39785D01*
X55058Y-39848D01*
X54941Y-39965D01*
X54877Y-40117D01*
X54877Y-40283D01*
X54940Y-40435D01*
X55057Y-40552D01*
X55210Y-40616D01*
X55375Y-40616D01*
X55528Y-40553D01*
X55645Y-40436D01*
X55708Y-40283D01*
X55708Y-40118D01*
X55708Y-42864D01*
X55406Y-42989D01*
X55208Y-43187D01*
X55208Y-41118D01*
X55145Y-40965D01*
X55028Y-40848D01*
X54876Y-40785D01*
X54711Y-40785D01*
X54708Y-40786D01*
X54708Y-40118D01*
X54645Y-39965D01*
X54528Y-39848D01*
X54376Y-39785D01*
X54211Y-39785D01*
X54058Y-39848D01*
X53941Y-39965D01*
X53877Y-40117D01*
X53877Y-40283D01*
X53940Y-40435D01*
X54057Y-40552D01*
X54210Y-40616D01*
X54375Y-40616D01*
X54528Y-40553D01*
X54645Y-40436D01*
X54708Y-40283D01*
X54708Y-40118D01*
X54708Y-40786D01*
X54558Y-40848D01*
X54441Y-40965D01*
X54377Y-41117D01*
X54377Y-41283D01*
X54440Y-41435D01*
X54557Y-41552D01*
X54710Y-41616D01*
X54875Y-41616D01*
X55028Y-41553D01*
X55145Y-41436D01*
X55208Y-41283D01*
X55208Y-41118D01*
X55208Y-43187D01*
X55170Y-43225D01*
X55042Y-43533D01*
X55042Y-43866D01*
X55170Y-44175D01*
X55405Y-44411D01*
X55713Y-44539D01*
X56047Y-44539D01*
X56355Y-44412D01*
X56591Y-44176D01*
X56694Y-43928D01*
X56796Y-44175D01*
X57031Y-44411D01*
X57340Y-44539D01*
X57673Y-44539D01*
X57981Y-44412D01*
X58217Y-44176D01*
X58345Y-43868D01*
X58346Y-43534D01*
X58346Y-44860D01*
X54640Y-44860D01*
X54640Y-44010D01*
X54250Y-44010D01*
X54250Y-43910D01*
X54208Y-43910D01*
X54208Y-41118D01*
X54145Y-40965D01*
X54028Y-40848D01*
X53876Y-40785D01*
X53711Y-40785D01*
X53708Y-40786D01*
X53708Y-40118D01*
X53645Y-39965D01*
X53528Y-39848D01*
X53520Y-39845D01*
X53520Y-36016D01*
X53520Y-35016D01*
X53520Y-33016D01*
X53456Y-32862D01*
X53390Y-32796D01*
X53390Y-30916D01*
X53341Y-30798D01*
X53251Y-30708D01*
X53133Y-30660D01*
X53006Y-30659D01*
X52888Y-30708D01*
X52798Y-30798D01*
X52750Y-30916D01*
X52749Y-31043D01*
X52798Y-31161D01*
X52888Y-31251D01*
X53006Y-31299D01*
X53133Y-31300D01*
X53251Y-31251D01*
X53341Y-31161D01*
X53389Y-31043D01*
X53390Y-30916D01*
X53390Y-32796D01*
X53338Y-32744D01*
X53183Y-32680D01*
X53016Y-32679D01*
X52862Y-32743D01*
X52744Y-32861D01*
X52680Y-33016D01*
X52679Y-33183D01*
X52743Y-33337D01*
X52861Y-33455D01*
X53016Y-33519D01*
X53183Y-33520D01*
X53337Y-33456D01*
X53455Y-33338D01*
X53519Y-33183D01*
X53520Y-33016D01*
X53520Y-35016D01*
X53456Y-34862D01*
X53338Y-34744D01*
X53183Y-34680D01*
X53016Y-34679D01*
X52862Y-34743D01*
X52744Y-34861D01*
X52680Y-35016D01*
X52679Y-35183D01*
X52743Y-35337D01*
X52861Y-35455D01*
X53016Y-35519D01*
X53183Y-35520D01*
X53337Y-35456D01*
X53455Y-35338D01*
X53519Y-35183D01*
X53520Y-35016D01*
X53520Y-36016D01*
X53456Y-35862D01*
X53338Y-35744D01*
X53183Y-35680D01*
X53016Y-35679D01*
X52862Y-35743D01*
X52744Y-35861D01*
X52680Y-36016D01*
X52679Y-36183D01*
X52743Y-36337D01*
X52861Y-36455D01*
X53016Y-36519D01*
X53183Y-36520D01*
X53337Y-36456D01*
X53455Y-36338D01*
X53519Y-36183D01*
X53520Y-36016D01*
X53520Y-39845D01*
X53520Y-39845D01*
X53520Y-37376D01*
X53520Y-36776D01*
X53501Y-36732D01*
X53468Y-36698D01*
X53423Y-36680D01*
X53376Y-36679D01*
X52776Y-36679D01*
X52732Y-36698D01*
X52698Y-36731D01*
X52680Y-36776D01*
X52679Y-36823D01*
X52679Y-37423D01*
X52698Y-37467D01*
X52731Y-37501D01*
X52776Y-37519D01*
X52823Y-37520D01*
X53423Y-37520D01*
X53467Y-37501D01*
X53501Y-37468D01*
X53519Y-37423D01*
X53520Y-37376D01*
X53520Y-39845D01*
X53376Y-39785D01*
X53211Y-39785D01*
X53058Y-39848D01*
X52941Y-39965D01*
X52877Y-40117D01*
X52877Y-40283D01*
X52940Y-40435D01*
X53057Y-40552D01*
X53210Y-40616D01*
X53375Y-40616D01*
X53528Y-40553D01*
X53645Y-40436D01*
X53708Y-40283D01*
X53708Y-40118D01*
X53708Y-40786D01*
X53558Y-40848D01*
X53441Y-40965D01*
X53377Y-41117D01*
X53377Y-41283D01*
X53440Y-41435D01*
X53557Y-41552D01*
X53710Y-41616D01*
X53875Y-41616D01*
X54028Y-41553D01*
X54145Y-41436D01*
X54208Y-41283D01*
X54208Y-41118D01*
X54208Y-43910D01*
X53529Y-43910D01*
X53529Y-44010D01*
X53208Y-44010D01*
X53208Y-41118D01*
X53145Y-40965D01*
X53028Y-40848D01*
X52876Y-40785D01*
X52711Y-40785D01*
X52708Y-40786D01*
X52708Y-40118D01*
X52645Y-39965D01*
X52595Y-39914D01*
X52595Y-29036D01*
X52546Y-28918D01*
X52456Y-28828D01*
X52338Y-28780D01*
X52211Y-28779D01*
X52093Y-28828D01*
X52003Y-28918D01*
X51955Y-29036D01*
X51954Y-29163D01*
X52003Y-29281D01*
X52093Y-29371D01*
X52211Y-29419D01*
X52338Y-29420D01*
X52456Y-29371D01*
X52546Y-29281D01*
X52594Y-29163D01*
X52595Y-29036D01*
X52595Y-39914D01*
X52528Y-39848D01*
X52520Y-39845D01*
X52520Y-37016D01*
X52520Y-36016D01*
X52520Y-36016D01*
X52520Y-33376D01*
X52520Y-32776D01*
X52501Y-32732D01*
X52468Y-32698D01*
X52423Y-32680D01*
X52410Y-32680D01*
X52410Y-30936D01*
X52361Y-30818D01*
X52271Y-30728D01*
X52153Y-30680D01*
X52026Y-30679D01*
X51908Y-30728D01*
X51818Y-30818D01*
X51770Y-30936D01*
X51769Y-31063D01*
X51818Y-31181D01*
X51908Y-31271D01*
X52026Y-31319D01*
X52153Y-31320D01*
X52271Y-31271D01*
X52361Y-31181D01*
X52409Y-31063D01*
X52410Y-30936D01*
X52410Y-32680D01*
X52376Y-32679D01*
X51776Y-32679D01*
X51732Y-32698D01*
X51698Y-32731D01*
X51680Y-32776D01*
X51679Y-32823D01*
X51679Y-33423D01*
X51698Y-33467D01*
X51731Y-33501D01*
X51776Y-33519D01*
X51823Y-33520D01*
X52423Y-33520D01*
X52467Y-33501D01*
X52501Y-33468D01*
X52519Y-33423D01*
X52520Y-33376D01*
X52520Y-36016D01*
X52456Y-35862D01*
X52338Y-35744D01*
X52183Y-35680D01*
X52016Y-35679D01*
X51862Y-35743D01*
X51744Y-35861D01*
X51680Y-36016D01*
X51679Y-36183D01*
X51743Y-36337D01*
X51861Y-36455D01*
X52016Y-36519D01*
X52183Y-36520D01*
X52337Y-36456D01*
X52455Y-36338D01*
X52519Y-36183D01*
X52520Y-36016D01*
X52520Y-37016D01*
X52456Y-36862D01*
X52338Y-36744D01*
X52183Y-36680D01*
X52016Y-36679D01*
X51862Y-36743D01*
X51744Y-36861D01*
X51680Y-37016D01*
X51679Y-37183D01*
X51743Y-37337D01*
X51861Y-37455D01*
X52016Y-37519D01*
X52183Y-37520D01*
X52337Y-37456D01*
X52455Y-37338D01*
X52519Y-37183D01*
X52520Y-37016D01*
X52520Y-39845D01*
X52376Y-39785D01*
X52211Y-39785D01*
X52058Y-39848D01*
X51941Y-39965D01*
X51877Y-40117D01*
X51877Y-40283D01*
X51940Y-40435D01*
X52057Y-40552D01*
X52210Y-40616D01*
X52375Y-40616D01*
X52528Y-40553D01*
X52645Y-40436D01*
X52708Y-40283D01*
X52708Y-40118D01*
X52708Y-40786D01*
X52558Y-40848D01*
X52441Y-40965D01*
X52377Y-41117D01*
X52377Y-41283D01*
X52440Y-41435D01*
X52557Y-41552D01*
X52710Y-41616D01*
X52875Y-41616D01*
X53028Y-41553D01*
X53145Y-41436D01*
X53208Y-41283D01*
X53208Y-41118D01*
X53208Y-44010D01*
X52660Y-44010D01*
X52660Y-44860D01*
X52208Y-44860D01*
X52208Y-41472D01*
X52208Y-40881D01*
X52190Y-40837D01*
X52156Y-40803D01*
X52112Y-40785D01*
X52065Y-40785D01*
X51520Y-40785D01*
X51520Y-37596D01*
X51471Y-37478D01*
X51381Y-37388D01*
X51320Y-37363D01*
X51320Y-32736D01*
X51271Y-32618D01*
X51181Y-32528D01*
X51063Y-32480D01*
X50936Y-32479D01*
X50818Y-32528D01*
X50728Y-32618D01*
X50720Y-32639D01*
X50720Y-30136D01*
X50671Y-30018D01*
X50581Y-29928D01*
X50550Y-29915D01*
X50550Y-26986D01*
X50501Y-26868D01*
X50411Y-26778D01*
X50293Y-26730D01*
X50166Y-26729D01*
X50048Y-26778D01*
X49958Y-26868D01*
X49910Y-26986D01*
X49909Y-27113D01*
X49958Y-27231D01*
X50048Y-27321D01*
X50166Y-27369D01*
X50293Y-27370D01*
X50411Y-27321D01*
X50501Y-27231D01*
X50549Y-27113D01*
X50550Y-26986D01*
X50550Y-29915D01*
X50463Y-29880D01*
X50336Y-29879D01*
X50218Y-29928D01*
X50128Y-30018D01*
X50080Y-30136D01*
X50079Y-30263D01*
X50128Y-30381D01*
X50218Y-30471D01*
X50336Y-30519D01*
X50463Y-30520D01*
X50581Y-30471D01*
X50671Y-30381D01*
X50719Y-30263D01*
X50720Y-30136D01*
X50720Y-32639D01*
X50680Y-32736D01*
X50679Y-32863D01*
X50728Y-32981D01*
X50818Y-33071D01*
X50936Y-33119D01*
X51063Y-33120D01*
X51181Y-33071D01*
X51271Y-32981D01*
X51319Y-32863D01*
X51320Y-32736D01*
X51320Y-37363D01*
X51263Y-37340D01*
X51136Y-37339D01*
X51018Y-37388D01*
X50928Y-37478D01*
X50880Y-37596D01*
X50879Y-37723D01*
X50928Y-37841D01*
X51018Y-37931D01*
X51136Y-37979D01*
X51263Y-37980D01*
X51381Y-37931D01*
X51471Y-37841D01*
X51519Y-37723D01*
X51520Y-37596D01*
X51520Y-40785D01*
X51474Y-40785D01*
X51429Y-40803D01*
X51396Y-40837D01*
X51377Y-40881D01*
X51377Y-40929D01*
X51377Y-41520D01*
X51396Y-41564D01*
X51429Y-41597D01*
X51473Y-41616D01*
X51521Y-41616D01*
X52112Y-41616D01*
X52156Y-41598D01*
X52190Y-41564D01*
X52208Y-41520D01*
X52208Y-41472D01*
X52208Y-44860D01*
X52046Y-44860D01*
X52046Y-43534D01*
X51919Y-43226D01*
X51683Y-42990D01*
X51375Y-42862D01*
X51042Y-42862D01*
X50733Y-42989D01*
X50497Y-43225D01*
X50445Y-43352D01*
X50445Y-32131D01*
X50392Y-32004D01*
X50295Y-31907D01*
X50168Y-31855D01*
X50031Y-31854D01*
X49904Y-31907D01*
X49865Y-31947D01*
X49865Y-23467D01*
X49802Y-23315D01*
X49685Y-23198D01*
X49532Y-23135D01*
X49367Y-23134D01*
X49215Y-23197D01*
X49098Y-23314D01*
X49035Y-23467D01*
X49034Y-23632D01*
X49097Y-23784D01*
X49214Y-23901D01*
X49367Y-23964D01*
X49532Y-23965D01*
X49684Y-23902D01*
X49801Y-23785D01*
X49864Y-23632D01*
X49865Y-23467D01*
X49865Y-31947D01*
X49820Y-31991D01*
X49820Y-30936D01*
X49771Y-30818D01*
X49681Y-30728D01*
X49563Y-30680D01*
X49436Y-30679D01*
X49318Y-30728D01*
X49228Y-30818D01*
X49180Y-30936D01*
X49179Y-31063D01*
X49228Y-31181D01*
X49318Y-31271D01*
X49436Y-31319D01*
X49563Y-31320D01*
X49681Y-31271D01*
X49771Y-31181D01*
X49819Y-31063D01*
X49820Y-30936D01*
X49820Y-31991D01*
X49807Y-32004D01*
X49755Y-32131D01*
X49754Y-32268D01*
X49807Y-32395D01*
X49904Y-32492D01*
X50031Y-32544D01*
X50168Y-32545D01*
X50295Y-32492D01*
X50392Y-32395D01*
X50444Y-32268D01*
X50445Y-32131D01*
X50445Y-43352D01*
X50369Y-43533D01*
X50369Y-43866D01*
X50497Y-44175D01*
X50732Y-44411D01*
X51040Y-44539D01*
X51374Y-44539D01*
X51682Y-44412D01*
X51918Y-44176D01*
X52046Y-43868D01*
X52046Y-43534D01*
X52046Y-44860D01*
X50320Y-44860D01*
X50320Y-33836D01*
X50271Y-33718D01*
X50181Y-33628D01*
X50063Y-33580D01*
X49936Y-33579D01*
X49818Y-33628D01*
X49728Y-33718D01*
X49680Y-33836D01*
X49679Y-33963D01*
X49728Y-34081D01*
X49818Y-34171D01*
X49936Y-34219D01*
X50063Y-34220D01*
X50181Y-34171D01*
X50271Y-34081D01*
X50319Y-33963D01*
X50320Y-33836D01*
X50320Y-44860D01*
X50050Y-44860D01*
X50050Y-43810D01*
X50020Y-43738D01*
X50020Y-41236D01*
X49971Y-41118D01*
X49881Y-41028D01*
X49763Y-40980D01*
X49636Y-40979D01*
X49518Y-41028D01*
X49428Y-41118D01*
X49395Y-41199D01*
X49395Y-38511D01*
X49346Y-38393D01*
X49256Y-38303D01*
X49171Y-38268D01*
X49171Y-32251D01*
X49155Y-32067D01*
X49115Y-31972D01*
X49032Y-31952D01*
X48947Y-32037D01*
X48947Y-31867D01*
X48927Y-31784D01*
X48751Y-31728D01*
X48567Y-31744D01*
X48472Y-31784D01*
X48452Y-31867D01*
X48700Y-32115D01*
X48947Y-31867D01*
X48947Y-32037D01*
X48784Y-32200D01*
X49032Y-32447D01*
X49115Y-32427D01*
X49171Y-32251D01*
X49171Y-38268D01*
X49138Y-38255D01*
X49120Y-38255D01*
X49120Y-34236D01*
X49071Y-34118D01*
X48981Y-34028D01*
X48947Y-34014D01*
X48947Y-32532D01*
X48700Y-32284D01*
X48615Y-32369D01*
X48615Y-32200D01*
X48367Y-31952D01*
X48284Y-31972D01*
X48228Y-32148D01*
X48244Y-32332D01*
X48284Y-32427D01*
X48367Y-32447D01*
X48615Y-32200D01*
X48615Y-32369D01*
X48452Y-32532D01*
X48472Y-32615D01*
X48648Y-32671D01*
X48832Y-32655D01*
X48927Y-32615D01*
X48947Y-32532D01*
X48947Y-34014D01*
X48863Y-33980D01*
X48790Y-33979D01*
X48790Y-32936D01*
X48741Y-32818D01*
X48651Y-32728D01*
X48533Y-32680D01*
X48406Y-32679D01*
X48288Y-32728D01*
X48198Y-32818D01*
X48150Y-32936D01*
X48149Y-33063D01*
X48198Y-33181D01*
X48288Y-33271D01*
X48406Y-33319D01*
X48533Y-33320D01*
X48651Y-33271D01*
X48741Y-33181D01*
X48789Y-33063D01*
X48790Y-32936D01*
X48790Y-33979D01*
X48736Y-33979D01*
X48618Y-34028D01*
X48528Y-34118D01*
X48480Y-34236D01*
X48479Y-34363D01*
X48528Y-34481D01*
X48618Y-34571D01*
X48736Y-34619D01*
X48863Y-34620D01*
X48981Y-34571D01*
X49071Y-34481D01*
X49119Y-34363D01*
X49120Y-34236D01*
X49120Y-38255D01*
X49011Y-38254D01*
X48920Y-38292D01*
X48920Y-36736D01*
X48871Y-36618D01*
X48781Y-36528D01*
X48663Y-36480D01*
X48536Y-36479D01*
X48418Y-36528D01*
X48328Y-36618D01*
X48280Y-36736D01*
X48279Y-36863D01*
X48328Y-36981D01*
X48418Y-37071D01*
X48536Y-37119D01*
X48663Y-37120D01*
X48781Y-37071D01*
X48871Y-36981D01*
X48919Y-36863D01*
X48920Y-36736D01*
X48920Y-38292D01*
X48893Y-38303D01*
X48803Y-38393D01*
X48755Y-38511D01*
X48754Y-38638D01*
X48803Y-38755D01*
X48693Y-38710D01*
X48566Y-38709D01*
X48448Y-38758D01*
X48358Y-38848D01*
X48310Y-38966D01*
X48309Y-39093D01*
X48358Y-39211D01*
X48448Y-39301D01*
X48566Y-39349D01*
X48693Y-39350D01*
X48811Y-39301D01*
X48901Y-39211D01*
X48949Y-39093D01*
X48950Y-38966D01*
X48901Y-38849D01*
X49011Y-38894D01*
X49138Y-38895D01*
X49256Y-38846D01*
X49346Y-38756D01*
X49394Y-38638D01*
X49395Y-38511D01*
X49395Y-41199D01*
X49380Y-41236D01*
X49379Y-41363D01*
X49428Y-41481D01*
X49518Y-41571D01*
X49636Y-41619D01*
X49763Y-41620D01*
X49881Y-41571D01*
X49971Y-41481D01*
X50019Y-41363D01*
X50020Y-41236D01*
X50020Y-43738D01*
X49981Y-43645D01*
X49855Y-43518D01*
X49689Y-43450D01*
X49510Y-43449D01*
X49345Y-43518D01*
X49220Y-43643D01*
X49220Y-41236D01*
X49171Y-41118D01*
X49081Y-41028D01*
X48963Y-40980D01*
X48836Y-40979D01*
X48718Y-41028D01*
X48628Y-41118D01*
X48580Y-41236D01*
X48579Y-41363D01*
X48628Y-41481D01*
X48718Y-41571D01*
X48836Y-41619D01*
X48963Y-41620D01*
X49081Y-41571D01*
X49171Y-41481D01*
X49219Y-41363D01*
X49220Y-41236D01*
X49220Y-43643D01*
X49218Y-43644D01*
X49163Y-43778D01*
X49161Y-43750D01*
X49102Y-43608D01*
X49008Y-43576D01*
X48923Y-43661D01*
X48923Y-43491D01*
X48891Y-43397D01*
X48676Y-43323D01*
X48450Y-43338D01*
X48308Y-43397D01*
X48276Y-43491D01*
X48600Y-43815D01*
X48923Y-43491D01*
X48923Y-43661D01*
X48684Y-43900D01*
X49008Y-44223D01*
X49102Y-44191D01*
X49161Y-44018D01*
X49218Y-44154D01*
X49344Y-44281D01*
X49510Y-44349D01*
X49689Y-44350D01*
X49854Y-44281D01*
X49981Y-44155D01*
X50049Y-43989D01*
X50050Y-43810D01*
X50050Y-44860D01*
X48923Y-44860D01*
X48923Y-44308D01*
X48600Y-43984D01*
X48515Y-44069D01*
X48515Y-43900D01*
X48191Y-43576D01*
X48097Y-43608D01*
X48038Y-43781D01*
X48020Y-43738D01*
X48020Y-41336D01*
X47971Y-41218D01*
X47881Y-41128D01*
X47763Y-41080D01*
X47636Y-41079D01*
X47518Y-41128D01*
X47428Y-41218D01*
X47380Y-41336D01*
X47379Y-41463D01*
X47428Y-41581D01*
X47518Y-41671D01*
X47636Y-41719D01*
X47763Y-41720D01*
X47881Y-41671D01*
X47971Y-41581D01*
X48019Y-41463D01*
X48020Y-41336D01*
X48020Y-43738D01*
X47981Y-43645D01*
X47855Y-43518D01*
X47689Y-43450D01*
X47510Y-43449D01*
X47345Y-43518D01*
X47218Y-43644D01*
X47150Y-43810D01*
X47149Y-43989D01*
X47218Y-44154D01*
X47344Y-44281D01*
X47510Y-44349D01*
X47689Y-44350D01*
X47854Y-44281D01*
X47981Y-44155D01*
X48036Y-44021D01*
X48038Y-44049D01*
X48097Y-44191D01*
X48191Y-44223D01*
X48515Y-43900D01*
X48515Y-44069D01*
X48276Y-44308D01*
X48308Y-44402D01*
X48523Y-44476D01*
X48749Y-44461D01*
X48891Y-44402D01*
X48923Y-44308D01*
X48923Y-44860D01*
X47120Y-44860D01*
X47120Y-34386D01*
X47071Y-34268D01*
X46981Y-34178D01*
X46863Y-34130D01*
X46736Y-34129D01*
X46618Y-34178D01*
X46528Y-34268D01*
X46480Y-34386D01*
X46479Y-34513D01*
X46528Y-34631D01*
X46618Y-34721D01*
X46736Y-34769D01*
X46863Y-34770D01*
X46981Y-34721D01*
X47071Y-34631D01*
X47119Y-34513D01*
X47120Y-34386D01*
X47120Y-44860D01*
X47020Y-44860D01*
X47020Y-43376D01*
X47020Y-42776D01*
X47001Y-42732D01*
X46968Y-42698D01*
X46923Y-42680D01*
X46876Y-42679D01*
X46276Y-42679D01*
X46232Y-42698D01*
X46198Y-42731D01*
X46180Y-42776D01*
X46179Y-42823D01*
X46179Y-43423D01*
X46198Y-43467D01*
X46231Y-43501D01*
X46276Y-43519D01*
X46323Y-43520D01*
X46923Y-43520D01*
X46967Y-43501D01*
X47001Y-43468D01*
X47019Y-43423D01*
X47020Y-43376D01*
X47020Y-44860D01*
X46401Y-44860D01*
X46424Y-44746D01*
X46424Y-44453D01*
X46400Y-44332D01*
X46355Y-44265D01*
X46355Y-44182D01*
X46337Y-44138D01*
X46303Y-44104D01*
X46259Y-44085D01*
X46211Y-44085D01*
X46020Y-44085D01*
X46020Y-43016D01*
X45956Y-42862D01*
X45838Y-42744D01*
X45710Y-42690D01*
X45710Y-34216D01*
X45661Y-34098D01*
X45571Y-34008D01*
X45453Y-33960D01*
X45326Y-33959D01*
X45208Y-34008D01*
X45118Y-34098D01*
X45070Y-34216D01*
X45069Y-34343D01*
X45118Y-34461D01*
X45208Y-34551D01*
X45326Y-34599D01*
X45453Y-34600D01*
X45571Y-34551D01*
X45661Y-34461D01*
X45709Y-34343D01*
X45710Y-34216D01*
X45710Y-42690D01*
X45683Y-42680D01*
X45520Y-42679D01*
X45520Y-36486D01*
X45471Y-36368D01*
X45381Y-36278D01*
X45263Y-36230D01*
X45136Y-36229D01*
X45018Y-36278D01*
X44928Y-36368D01*
X44880Y-36486D01*
X44879Y-36613D01*
X44928Y-36731D01*
X45018Y-36821D01*
X45136Y-36869D01*
X45263Y-36870D01*
X45381Y-36821D01*
X45471Y-36731D01*
X45519Y-36613D01*
X45520Y-36486D01*
X45520Y-42679D01*
X45516Y-42679D01*
X45362Y-42743D01*
X45244Y-42861D01*
X45180Y-43016D01*
X45179Y-43183D01*
X45243Y-43337D01*
X45361Y-43455D01*
X45516Y-43519D01*
X45683Y-43520D01*
X45837Y-43456D01*
X45955Y-43338D01*
X46019Y-43183D01*
X46020Y-43016D01*
X46020Y-44085D01*
X45424Y-44085D01*
X45380Y-44104D01*
X45346Y-44137D01*
X45328Y-44181D01*
X45328Y-44229D01*
X45328Y-44619D01*
X45253Y-44588D01*
X45170Y-44588D01*
X45164Y-44590D01*
X45164Y-44251D01*
X45132Y-44174D01*
X45074Y-44116D01*
X45020Y-44093D01*
X45020Y-43016D01*
X44956Y-42862D01*
X44838Y-42744D01*
X44683Y-42680D01*
X44516Y-42679D01*
X44420Y-42719D01*
X44420Y-36536D01*
X44371Y-36418D01*
X44281Y-36328D01*
X44163Y-36280D01*
X44036Y-36279D01*
X43918Y-36328D01*
X43828Y-36418D01*
X43780Y-36536D01*
X43779Y-36663D01*
X43828Y-36781D01*
X43918Y-36871D01*
X44036Y-36919D01*
X44163Y-36920D01*
X44281Y-36871D01*
X44371Y-36781D01*
X44419Y-36663D01*
X44420Y-36536D01*
X44420Y-42719D01*
X44362Y-42743D01*
X44320Y-42786D01*
X44320Y-37536D01*
X44271Y-37418D01*
X44181Y-37328D01*
X44063Y-37280D01*
X43936Y-37279D01*
X43818Y-37328D01*
X43728Y-37418D01*
X43680Y-37536D01*
X43679Y-37663D01*
X43728Y-37781D01*
X43818Y-37871D01*
X43936Y-37919D01*
X44063Y-37920D01*
X44181Y-37871D01*
X44271Y-37781D01*
X44319Y-37663D01*
X44320Y-37536D01*
X44320Y-42786D01*
X44244Y-42861D01*
X44180Y-43016D01*
X44179Y-43183D01*
X44243Y-43337D01*
X44361Y-43455D01*
X44516Y-43519D01*
X44683Y-43520D01*
X44837Y-43456D01*
X44955Y-43338D01*
X45019Y-43183D01*
X45020Y-43016D01*
X45020Y-44093D01*
X44997Y-44084D01*
X44914Y-44084D01*
X44837Y-44115D01*
X44779Y-44174D01*
X44747Y-44251D01*
X44747Y-44334D01*
X44778Y-44410D01*
X44837Y-44469D01*
X44914Y-44501D01*
X44997Y-44501D01*
X45073Y-44469D01*
X45132Y-44411D01*
X45164Y-44334D01*
X45164Y-44251D01*
X45164Y-44590D01*
X45093Y-44619D01*
X45035Y-44678D01*
X45003Y-44755D01*
X45003Y-44838D01*
X45012Y-44860D01*
X44899Y-44860D01*
X44908Y-44838D01*
X44908Y-44755D01*
X44876Y-44678D01*
X44818Y-44620D01*
X44741Y-44588D01*
X44658Y-44588D01*
X44652Y-44590D01*
X44652Y-44251D01*
X44621Y-44174D01*
X44562Y-44116D01*
X44485Y-44084D01*
X44402Y-44084D01*
X44326Y-44115D01*
X44267Y-44174D01*
X44235Y-44251D01*
X44235Y-44334D01*
X44267Y-44410D01*
X44325Y-44469D01*
X44402Y-44501D01*
X44485Y-44501D01*
X44562Y-44469D01*
X44620Y-44411D01*
X44652Y-44334D01*
X44652Y-44251D01*
X44652Y-44590D01*
X44582Y-44619D01*
X44523Y-44678D01*
X44510Y-44710D01*
X44509Y-44701D01*
X44482Y-44637D01*
X44411Y-44636D01*
X44250Y-44796D01*
X44267Y-44813D01*
X44221Y-44860D01*
X44188Y-44860D01*
X44188Y-44859D01*
X44187Y-44860D01*
X44155Y-44860D01*
X44108Y-44813D01*
X44125Y-44796D01*
X44108Y-44780D01*
X44171Y-44717D01*
X44188Y-44734D01*
X44348Y-44573D01*
X44347Y-44502D01*
X44222Y-44463D01*
X44146Y-44470D01*
X44146Y-43169D01*
X44131Y-42955D01*
X44078Y-42826D01*
X44020Y-42808D01*
X44020Y-40386D01*
X43971Y-40268D01*
X43881Y-40178D01*
X43763Y-40130D01*
X43636Y-40129D01*
X43518Y-40178D01*
X43428Y-40268D01*
X43380Y-40386D01*
X43379Y-40513D01*
X43428Y-40631D01*
X43518Y-40721D01*
X43636Y-40769D01*
X43763Y-40770D01*
X43881Y-40721D01*
X43971Y-40631D01*
X44019Y-40513D01*
X44020Y-40386D01*
X44020Y-42808D01*
X43986Y-42798D01*
X43901Y-42882D01*
X43901Y-42713D01*
X43873Y-42621D01*
X43669Y-42553D01*
X43455Y-42568D01*
X43326Y-42621D01*
X43298Y-42713D01*
X43600Y-43015D01*
X43901Y-42713D01*
X43901Y-42882D01*
X43684Y-43100D01*
X43986Y-43401D01*
X44078Y-43373D01*
X44146Y-43169D01*
X44146Y-44470D01*
X44092Y-44475D01*
X44071Y-44484D01*
X44071Y-44176D01*
X44053Y-44132D01*
X44020Y-44098D01*
X43975Y-44080D01*
X43928Y-44079D01*
X43901Y-44079D01*
X43901Y-43486D01*
X43600Y-43184D01*
X43515Y-43269D01*
X43515Y-43100D01*
X43213Y-42798D01*
X43121Y-42826D01*
X43053Y-43030D01*
X43068Y-43244D01*
X43121Y-43373D01*
X43213Y-43401D01*
X43515Y-43100D01*
X43515Y-43269D01*
X43298Y-43486D01*
X43326Y-43578D01*
X43530Y-43646D01*
X43744Y-43631D01*
X43873Y-43578D01*
X43901Y-43486D01*
X43901Y-44079D01*
X43140Y-44079D01*
X43096Y-44098D01*
X43062Y-44131D01*
X43044Y-44176D01*
X43044Y-44223D01*
X43044Y-44265D01*
X43020Y-44301D01*
X43020Y-43016D01*
X42956Y-42862D01*
X42838Y-42744D01*
X42683Y-42680D01*
X42516Y-42679D01*
X42362Y-42743D01*
X42244Y-42861D01*
X42180Y-43016D01*
X42179Y-43183D01*
X42243Y-43337D01*
X42361Y-43455D01*
X42516Y-43519D01*
X42683Y-43520D01*
X42837Y-43456D01*
X42955Y-43338D01*
X43019Y-43183D01*
X43020Y-43016D01*
X43020Y-44301D01*
X42999Y-44332D01*
X42975Y-44453D01*
X42975Y-44746D01*
X42998Y-44860D01*
X42110Y-44860D01*
X42110Y-40216D01*
X42061Y-40098D01*
X41971Y-40008D01*
X41853Y-39960D01*
X41726Y-39959D01*
X41608Y-40008D01*
X41518Y-40098D01*
X41470Y-40216D01*
X41469Y-40343D01*
X41518Y-40461D01*
X41608Y-40551D01*
X41726Y-40599D01*
X41853Y-40600D01*
X41971Y-40551D01*
X42061Y-40461D01*
X42109Y-40343D01*
X42110Y-40216D01*
X42110Y-44860D01*
X41145Y-44860D01*
X41145Y-38931D01*
X41092Y-38804D01*
X40995Y-38707D01*
X40868Y-38655D01*
X40731Y-38654D01*
X40604Y-38707D01*
X40507Y-38804D01*
X40455Y-38931D01*
X40454Y-39068D01*
X40507Y-39195D01*
X40604Y-39292D01*
X40731Y-39344D01*
X40868Y-39345D01*
X40995Y-39292D01*
X41092Y-39195D01*
X41144Y-39068D01*
X41145Y-38931D01*
X41145Y-44860D01*
X40220Y-44860D01*
X40220Y-42936D01*
X40171Y-42818D01*
X40081Y-42728D01*
X39963Y-42680D01*
X39836Y-42679D01*
X39718Y-42728D01*
X39628Y-42818D01*
X39580Y-42936D01*
X39579Y-43063D01*
X39628Y-43181D01*
X39718Y-43271D01*
X39836Y-43319D01*
X39963Y-43320D01*
X40081Y-43271D01*
X40171Y-43181D01*
X40219Y-43063D01*
X40220Y-42936D01*
X40220Y-44860D01*
X40146Y-44860D01*
X40135Y-44848D01*
X39982Y-44785D01*
X39817Y-44784D01*
X39665Y-44847D01*
X39653Y-44860D01*
X38779Y-44860D01*
X38779Y-35388D01*
X38779Y-33814D01*
X38703Y-33632D01*
X38564Y-33493D01*
X38382Y-33418D01*
X38185Y-33417D01*
X38003Y-33493D01*
X37864Y-33632D01*
X37789Y-33814D01*
X37788Y-34011D01*
X37864Y-34193D01*
X38003Y-34332D01*
X38185Y-34407D01*
X38382Y-34408D01*
X38564Y-34332D01*
X38703Y-34193D01*
X38778Y-34011D01*
X38779Y-33814D01*
X38779Y-35388D01*
X38703Y-35206D01*
X38564Y-35067D01*
X38382Y-34992D01*
X38185Y-34991D01*
X38003Y-35067D01*
X37864Y-35206D01*
X37789Y-35388D01*
X37788Y-35585D01*
X37864Y-35767D01*
X38003Y-35906D01*
X38185Y-35981D01*
X38382Y-35982D01*
X38564Y-35906D01*
X38703Y-35767D01*
X38778Y-35585D01*
X38779Y-35388D01*
X38779Y-44860D01*
X38627Y-44860D01*
X38627Y-38891D01*
X38627Y-38261D01*
X38608Y-38217D01*
X38575Y-38183D01*
X38531Y-38165D01*
X38483Y-38165D01*
X37853Y-38165D01*
X37809Y-38183D01*
X37775Y-38216D01*
X37757Y-38261D01*
X37757Y-38308D01*
X37757Y-38938D01*
X37775Y-38982D01*
X37809Y-39016D01*
X37853Y-39034D01*
X37900Y-39034D01*
X38530Y-39034D01*
X38574Y-39016D01*
X38608Y-38983D01*
X38627Y-38938D01*
X38627Y-38891D01*
X38627Y-44860D01*
X38565Y-44860D01*
X38565Y-44217D01*
X38502Y-44065D01*
X38385Y-43948D01*
X38232Y-43885D01*
X38067Y-43884D01*
X37915Y-43947D01*
X37798Y-44064D01*
X37735Y-44217D01*
X37734Y-44382D01*
X37797Y-44534D01*
X37914Y-44651D01*
X38067Y-44714D01*
X38232Y-44715D01*
X38384Y-44652D01*
X38501Y-44535D01*
X38564Y-44382D01*
X38565Y-44217D01*
X38565Y-44860D01*
X37260Y-44860D01*
X37260Y-40784D01*
X37030Y-40227D01*
X36811Y-40007D01*
X36811Y-33814D01*
X36735Y-33632D01*
X36596Y-33493D01*
X36414Y-33418D01*
X36217Y-33417D01*
X36035Y-33493D01*
X35896Y-33632D01*
X35821Y-33814D01*
X35820Y-34011D01*
X35896Y-34193D01*
X36035Y-34332D01*
X36217Y-34407D01*
X36414Y-34408D01*
X36596Y-34332D01*
X36735Y-34193D01*
X36810Y-34011D01*
X36811Y-33814D01*
X36811Y-40007D01*
X36811Y-40007D01*
X36811Y-35838D01*
X36811Y-35088D01*
X36792Y-35044D01*
X36759Y-35010D01*
X36714Y-34992D01*
X36667Y-34991D01*
X35917Y-34991D01*
X35873Y-35010D01*
X35839Y-35043D01*
X35821Y-35088D01*
X35820Y-35135D01*
X35820Y-35885D01*
X35839Y-35929D01*
X35872Y-35963D01*
X35917Y-35981D01*
X35964Y-35982D01*
X36714Y-35982D01*
X36758Y-35963D01*
X36792Y-35930D01*
X36810Y-35885D01*
X36811Y-35838D01*
X36811Y-40007D01*
X36604Y-39800D01*
X36047Y-39568D01*
X35443Y-39568D01*
X34886Y-39798D01*
X34459Y-40224D01*
X34227Y-40782D01*
X34227Y-41385D01*
X34457Y-41942D01*
X34884Y-42369D01*
X35441Y-42601D01*
X36044Y-42601D01*
X36601Y-42371D01*
X37028Y-41945D01*
X37260Y-41387D01*
X37260Y-40784D01*
X37260Y-44860D01*
X36615Y-44860D01*
X36615Y-44317D01*
X36552Y-44165D01*
X36435Y-44048D01*
X36282Y-43985D01*
X36117Y-43984D01*
X35965Y-44047D01*
X35848Y-44164D01*
X35785Y-44317D01*
X35784Y-44482D01*
X35847Y-44634D01*
X35964Y-44751D01*
X36117Y-44814D01*
X36282Y-44815D01*
X36434Y-44752D01*
X36551Y-44635D01*
X36614Y-44482D01*
X36615Y-44317D01*
X36615Y-44860D01*
X33645Y-44860D01*
X33645Y-26931D01*
X33592Y-26804D01*
X33495Y-26707D01*
X33368Y-26655D01*
X33231Y-26654D01*
X33104Y-26707D01*
X33007Y-26804D01*
X32955Y-26931D01*
X32954Y-27068D01*
X33007Y-27195D01*
X33104Y-27292D01*
X33231Y-27344D01*
X33368Y-27345D01*
X33495Y-27292D01*
X33592Y-27195D01*
X33644Y-27068D01*
X33645Y-26931D01*
X33645Y-44860D01*
X33440Y-44860D01*
X33440Y-43288D01*
X32829Y-42271D01*
X32700Y-42183D01*
X32700Y-40166D01*
X32686Y-39930D01*
X32623Y-39778D01*
X32574Y-39760D01*
X32574Y-38446D01*
X32574Y-37737D01*
X32556Y-37693D01*
X32522Y-37659D01*
X32478Y-37641D01*
X32430Y-37641D01*
X31721Y-37641D01*
X31677Y-37659D01*
X31643Y-37693D01*
X31625Y-37737D01*
X31625Y-37785D01*
X31625Y-38493D01*
X31643Y-38537D01*
X31677Y-38571D01*
X31721Y-38590D01*
X31769Y-38590D01*
X32478Y-38590D01*
X32522Y-38571D01*
X32556Y-38538D01*
X32574Y-38494D01*
X32574Y-38446D01*
X32574Y-39760D01*
X32526Y-39742D01*
X32441Y-39827D01*
X32441Y-39658D01*
X32405Y-39561D01*
X32182Y-39483D01*
X31946Y-39498D01*
X31794Y-39561D01*
X31758Y-39658D01*
X32100Y-39999D01*
X32441Y-39658D01*
X32441Y-39827D01*
X32184Y-40084D01*
X32526Y-40425D01*
X32623Y-40390D01*
X32700Y-40166D01*
X32700Y-42183D01*
X32441Y-42006D01*
X32441Y-40510D01*
X32100Y-40169D01*
X32015Y-40253D01*
X32015Y-40084D01*
X31673Y-39742D01*
X31576Y-39778D01*
X31499Y-40001D01*
X31513Y-40237D01*
X31576Y-40390D01*
X31673Y-40425D01*
X32015Y-40084D01*
X32015Y-40253D01*
X31758Y-40510D01*
X31794Y-40607D01*
X32017Y-40684D01*
X32253Y-40670D01*
X32405Y-40607D01*
X32441Y-40510D01*
X32441Y-42006D01*
X31862Y-41610D01*
X30390Y-41610D01*
X30390Y-26090D01*
X32215Y-26090D01*
X33090Y-25318D01*
X33090Y-23290D01*
X33959Y-23290D01*
X33909Y-31640D01*
X38480Y-31640D01*
X38479Y-31743D01*
X38528Y-31861D01*
X38618Y-31951D01*
X38736Y-31999D01*
X38863Y-32000D01*
X38981Y-31951D01*
X39071Y-31861D01*
X39119Y-31743D01*
X39120Y-31640D01*
X41393Y-31640D01*
X41466Y-31669D01*
X41593Y-31670D01*
X41666Y-31640D01*
X48440Y-31640D01*
X48440Y-23040D01*
X50740Y-23040D01*
X50740Y-21090D01*
X57392Y-21090D01*
X57390Y-18490D01*
X57986Y-18490D01*
X57811Y-18562D01*
X57758Y-18674D01*
X58200Y-19115D01*
X58641Y-18674D01*
X58588Y-18562D01*
X58390Y-18490D01*
X58910Y-18490D01*
X58910Y-18986D01*
X58837Y-18811D01*
X58725Y-18758D01*
X58284Y-19200D01*
X58725Y-19641D01*
X58837Y-19588D01*
X58910Y-19390D01*
X58910Y-23040D01*
X68510Y-23040D01*
X68510Y-24814D01*
X70131Y-26690D01*
X71610Y-26690D01*
X71689Y-38191D01*
X71562Y-38243D01*
X71444Y-38361D01*
X71380Y-38516D01*
X71379Y-38683D01*
X71443Y-38837D01*
X71561Y-38955D01*
X71694Y-39011D01*
X71709Y-41210D01*
X71709Y-41210D01*
G37*
G54D36*
X71709Y-41210D02*
X71220Y-41210D01*
X71220Y-39516D01*
X71220Y-35516D01*
X71220Y-34516D01*
X71220Y-33516D01*
X71220Y-32516D01*
X71220Y-31516D01*
X71220Y-30516D01*
X71220Y-29516D01*
X71156Y-29362D01*
X71038Y-29244D01*
X70883Y-29180D01*
X70716Y-29179D01*
X70562Y-29243D01*
X70444Y-29361D01*
X70380Y-29516D01*
X70379Y-29683D01*
X70443Y-29837D01*
X70561Y-29955D01*
X70716Y-30019D01*
X70883Y-30020D01*
X71037Y-29956D01*
X71155Y-29838D01*
X71219Y-29683D01*
X71220Y-29516D01*
X71220Y-30516D01*
X71156Y-30362D01*
X71038Y-30244D01*
X70883Y-30180D01*
X70716Y-30179D01*
X70562Y-30243D01*
X70444Y-30361D01*
X70380Y-30516D01*
X70379Y-30683D01*
X70443Y-30837D01*
X70561Y-30955D01*
X70716Y-31019D01*
X70883Y-31020D01*
X71037Y-30956D01*
X71155Y-30838D01*
X71219Y-30683D01*
X71220Y-30516D01*
X71220Y-31516D01*
X71156Y-31362D01*
X71038Y-31244D01*
X70883Y-31180D01*
X70716Y-31179D01*
X70562Y-31243D01*
X70444Y-31361D01*
X70380Y-31516D01*
X70379Y-31683D01*
X70443Y-31837D01*
X70561Y-31955D01*
X70716Y-32019D01*
X70883Y-32020D01*
X71037Y-31956D01*
X71155Y-31838D01*
X71219Y-31683D01*
X71220Y-31516D01*
X71220Y-32516D01*
X71156Y-32362D01*
X71038Y-32244D01*
X70883Y-32180D01*
X70716Y-32179D01*
X70562Y-32243D01*
X70444Y-32361D01*
X70380Y-32516D01*
X70379Y-32683D01*
X70443Y-32837D01*
X70561Y-32955D01*
X70716Y-33019D01*
X70883Y-33020D01*
X71037Y-32956D01*
X71155Y-32838D01*
X71219Y-32683D01*
X71220Y-32516D01*
X71220Y-33516D01*
X71156Y-33362D01*
X71038Y-33244D01*
X70883Y-33180D01*
X70716Y-33179D01*
X70562Y-33243D01*
X70444Y-33361D01*
X70380Y-33516D01*
X70379Y-33683D01*
X70443Y-33837D01*
X70561Y-33955D01*
X70716Y-34019D01*
X70883Y-34020D01*
X71037Y-33956D01*
X71155Y-33838D01*
X71219Y-33683D01*
X71220Y-33516D01*
X71220Y-34516D01*
X71156Y-34362D01*
X71038Y-34244D01*
X70883Y-34180D01*
X70716Y-34179D01*
X70562Y-34243D01*
X70444Y-34361D01*
X70380Y-34516D01*
X70379Y-34683D01*
X70443Y-34837D01*
X70561Y-34955D01*
X70716Y-35019D01*
X70883Y-35020D01*
X71037Y-34956D01*
X71155Y-34838D01*
X71219Y-34683D01*
X71220Y-34516D01*
X71220Y-35516D01*
X71156Y-35362D01*
X71038Y-35244D01*
X70883Y-35180D01*
X70716Y-35179D01*
X70562Y-35243D01*
X70444Y-35361D01*
X70380Y-35516D01*
X70379Y-35683D01*
X70443Y-35837D01*
X70561Y-35955D01*
X70716Y-36019D01*
X70883Y-36020D01*
X71037Y-35956D01*
X71155Y-35838D01*
X71219Y-35683D01*
X71220Y-35516D01*
X71220Y-39516D01*
X71220Y-39516D01*
X71220Y-38876D01*
X71220Y-38276D01*
X71220Y-36876D01*
X71220Y-36276D01*
X71201Y-36232D01*
X71168Y-36198D01*
X71123Y-36180D01*
X71076Y-36179D01*
X70476Y-36179D01*
X70432Y-36198D01*
X70398Y-36231D01*
X70380Y-36276D01*
X70379Y-36323D01*
X70379Y-36923D01*
X70398Y-36967D01*
X70431Y-37001D01*
X70476Y-37019D01*
X70523Y-37020D01*
X71123Y-37020D01*
X71167Y-37001D01*
X71201Y-36968D01*
X71219Y-36923D01*
X71220Y-36876D01*
X71220Y-38276D01*
X71201Y-38232D01*
X71168Y-38198D01*
X71123Y-38180D01*
X71076Y-38179D01*
X70476Y-38179D01*
X70432Y-38198D01*
X70398Y-38231D01*
X70380Y-38276D01*
X70379Y-38323D01*
X70379Y-38923D01*
X70398Y-38967D01*
X70431Y-39001D01*
X70476Y-39019D01*
X70523Y-39020D01*
X71123Y-39020D01*
X71167Y-39001D01*
X71201Y-38968D01*
X71219Y-38923D01*
X71220Y-38876D01*
X71220Y-39516D01*
X71156Y-39362D01*
X71038Y-39244D01*
X70883Y-39180D01*
X70716Y-39179D01*
X70562Y-39243D01*
X70444Y-39361D01*
X70380Y-39516D01*
X70379Y-39683D01*
X70443Y-39837D01*
X70561Y-39955D01*
X70716Y-40019D01*
X70883Y-40020D01*
X71037Y-39956D01*
X71155Y-39838D01*
X71219Y-39683D01*
X71220Y-39516D01*
X71220Y-41210D01*
X70346Y-41210D01*
X70346Y-36669D01*
X70346Y-35669D01*
X70346Y-34669D01*
X70346Y-33669D01*
X70346Y-32669D01*
X70346Y-31669D01*
X70346Y-30669D01*
X70346Y-29669D01*
X70331Y-29455D01*
X70278Y-29326D01*
X70186Y-29298D01*
X70101Y-29382D01*
X70101Y-29213D01*
X70073Y-29121D01*
X69869Y-29053D01*
X69655Y-29068D01*
X69526Y-29121D01*
X69498Y-29213D01*
X69800Y-29515D01*
X70101Y-29213D01*
X70101Y-29382D01*
X69884Y-29600D01*
X70186Y-29901D01*
X70278Y-29873D01*
X70346Y-29669D01*
X70346Y-30669D01*
X70331Y-30455D01*
X70278Y-30326D01*
X70186Y-30298D01*
X70101Y-30382D01*
X70101Y-30213D01*
X70073Y-30121D01*
X70014Y-30102D01*
X70073Y-30078D01*
X70101Y-29986D01*
X69800Y-29684D01*
X69715Y-29769D01*
X69715Y-29600D01*
X69413Y-29298D01*
X69321Y-29326D01*
X69253Y-29530D01*
X69268Y-29744D01*
X69321Y-29873D01*
X69413Y-29901D01*
X69715Y-29600D01*
X69715Y-29769D01*
X69498Y-29986D01*
X69526Y-30078D01*
X69585Y-30097D01*
X69526Y-30121D01*
X69498Y-30213D01*
X69800Y-30515D01*
X70101Y-30213D01*
X70101Y-30382D01*
X69884Y-30600D01*
X70186Y-30901D01*
X70278Y-30873D01*
X70346Y-30669D01*
X70346Y-31669D01*
X70331Y-31455D01*
X70278Y-31326D01*
X70186Y-31298D01*
X70101Y-31382D01*
X70101Y-31213D01*
X70073Y-31121D01*
X70014Y-31102D01*
X70073Y-31078D01*
X70101Y-30986D01*
X69800Y-30684D01*
X69715Y-30769D01*
X69715Y-30600D01*
X69413Y-30298D01*
X69321Y-30326D01*
X69253Y-30530D01*
X69268Y-30744D01*
X69321Y-30873D01*
X69413Y-30901D01*
X69715Y-30600D01*
X69715Y-30769D01*
X69498Y-30986D01*
X69526Y-31078D01*
X69585Y-31097D01*
X69526Y-31121D01*
X69498Y-31213D01*
X69800Y-31515D01*
X70101Y-31213D01*
X70101Y-31382D01*
X69884Y-31600D01*
X70186Y-31901D01*
X70278Y-31873D01*
X70346Y-31669D01*
X70346Y-32669D01*
X70331Y-32455D01*
X70278Y-32326D01*
X70186Y-32298D01*
X70101Y-32382D01*
X70101Y-32213D01*
X70073Y-32121D01*
X70014Y-32102D01*
X70073Y-32078D01*
X70101Y-31986D01*
X69800Y-31684D01*
X69715Y-31769D01*
X69715Y-31600D01*
X69413Y-31298D01*
X69321Y-31326D01*
X69253Y-31530D01*
X69268Y-31744D01*
X69321Y-31873D01*
X69413Y-31901D01*
X69715Y-31600D01*
X69715Y-31769D01*
X69498Y-31986D01*
X69526Y-32078D01*
X69585Y-32097D01*
X69526Y-32121D01*
X69498Y-32213D01*
X69800Y-32515D01*
X70101Y-32213D01*
X70101Y-32382D01*
X69884Y-32600D01*
X70186Y-32901D01*
X70278Y-32873D01*
X70346Y-32669D01*
X70346Y-33669D01*
X70331Y-33455D01*
X70278Y-33326D01*
X70186Y-33298D01*
X70101Y-33382D01*
X70101Y-33213D01*
X70073Y-33121D01*
X70014Y-33102D01*
X70073Y-33078D01*
X70101Y-32986D01*
X69800Y-32684D01*
X69715Y-32769D01*
X69715Y-32600D01*
X69413Y-32298D01*
X69321Y-32326D01*
X69253Y-32530D01*
X69268Y-32744D01*
X69321Y-32873D01*
X69413Y-32901D01*
X69715Y-32600D01*
X69715Y-32769D01*
X69498Y-32986D01*
X69526Y-33078D01*
X69585Y-33097D01*
X69526Y-33121D01*
X69498Y-33213D01*
X69800Y-33515D01*
X70101Y-33213D01*
X70101Y-33382D01*
X69884Y-33600D01*
X70186Y-33901D01*
X70278Y-33873D01*
X70346Y-33669D01*
X70346Y-34669D01*
X70331Y-34455D01*
X70278Y-34326D01*
X70186Y-34298D01*
X70101Y-34382D01*
X70101Y-34213D01*
X70073Y-34121D01*
X70014Y-34102D01*
X70073Y-34078D01*
X70101Y-33986D01*
X69800Y-33684D01*
X69715Y-33769D01*
X69715Y-33600D01*
X69413Y-33298D01*
X69321Y-33326D01*
X69253Y-33530D01*
X69268Y-33744D01*
X69321Y-33873D01*
X69413Y-33901D01*
X69715Y-33600D01*
X69715Y-33769D01*
X69498Y-33986D01*
X69526Y-34078D01*
X69585Y-34097D01*
X69526Y-34121D01*
X69498Y-34213D01*
X69800Y-34515D01*
X70101Y-34213D01*
X70101Y-34382D01*
X69884Y-34600D01*
X70186Y-34901D01*
X70278Y-34873D01*
X70346Y-34669D01*
X70346Y-35669D01*
X70331Y-35455D01*
X70278Y-35326D01*
X70186Y-35298D01*
X70101Y-35382D01*
X70101Y-35213D01*
X70073Y-35121D01*
X70014Y-35102D01*
X70073Y-35078D01*
X70101Y-34986D01*
X69800Y-34684D01*
X69715Y-34769D01*
X69715Y-34600D01*
X69413Y-34298D01*
X69321Y-34326D01*
X69253Y-34530D01*
X69268Y-34744D01*
X69321Y-34873D01*
X69413Y-34901D01*
X69715Y-34600D01*
X69715Y-34769D01*
X69498Y-34986D01*
X69526Y-35078D01*
X69585Y-35097D01*
X69526Y-35121D01*
X69498Y-35213D01*
X69800Y-35515D01*
X70101Y-35213D01*
X70101Y-35382D01*
X69884Y-35600D01*
X70186Y-35901D01*
X70278Y-35873D01*
X70346Y-35669D01*
X70346Y-36669D01*
X70331Y-36455D01*
X70278Y-36326D01*
X70186Y-36298D01*
X70101Y-36382D01*
X70101Y-36213D01*
X70073Y-36121D01*
X70014Y-36102D01*
X70073Y-36078D01*
X70101Y-35986D01*
X69800Y-35684D01*
X69715Y-35769D01*
X69715Y-35600D01*
X69413Y-35298D01*
X69321Y-35326D01*
X69253Y-35530D01*
X69268Y-35744D01*
X69321Y-35873D01*
X69413Y-35901D01*
X69715Y-35600D01*
X69715Y-35769D01*
X69498Y-35986D01*
X69526Y-36078D01*
X69585Y-36097D01*
X69526Y-36121D01*
X69498Y-36213D01*
X69800Y-36515D01*
X70101Y-36213D01*
X70101Y-36382D01*
X69884Y-36600D01*
X70186Y-36901D01*
X70278Y-36873D01*
X70346Y-36669D01*
X70346Y-41210D01*
X70101Y-41210D01*
X70101Y-36986D01*
X69800Y-36684D01*
X69715Y-36769D01*
X69715Y-36600D01*
X69413Y-36298D01*
X69321Y-36326D01*
X69253Y-36530D01*
X69268Y-36744D01*
X69321Y-36873D01*
X69413Y-36901D01*
X69715Y-36600D01*
X69715Y-36769D01*
X69498Y-36986D01*
X69526Y-37078D01*
X69730Y-37146D01*
X69944Y-37131D01*
X70073Y-37078D01*
X70101Y-36986D01*
X70101Y-41210D01*
X69831Y-41210D01*
X69045Y-42112D01*
X69045Y-39531D01*
X68992Y-39404D01*
X68895Y-39307D01*
X68768Y-39255D01*
X68631Y-39254D01*
X68504Y-39307D01*
X68407Y-39404D01*
X68355Y-39531D01*
X68354Y-39668D01*
X68407Y-39795D01*
X68504Y-39892D01*
X68631Y-39944D01*
X68768Y-39945D01*
X68895Y-39892D01*
X68992Y-39795D01*
X69044Y-39668D01*
X69045Y-39531D01*
X69045Y-42112D01*
X68110Y-43185D01*
X68110Y-44860D01*
X67868Y-44860D01*
X67868Y-43971D01*
X67773Y-43743D01*
X67772Y-43742D01*
X67772Y-40784D01*
X67772Y-26414D01*
X67542Y-25857D01*
X67115Y-25430D01*
X66558Y-25198D01*
X65955Y-25198D01*
X65398Y-25428D01*
X64971Y-25854D01*
X64739Y-26412D01*
X64739Y-27015D01*
X64969Y-27572D01*
X65395Y-27999D01*
X65952Y-28231D01*
X66556Y-28231D01*
X67113Y-28001D01*
X67540Y-27575D01*
X67772Y-27017D01*
X67772Y-26414D01*
X67772Y-40784D01*
X67542Y-40227D01*
X67115Y-39800D01*
X66558Y-39568D01*
X65955Y-39568D01*
X65620Y-39707D01*
X65620Y-30236D01*
X65571Y-30118D01*
X65481Y-30028D01*
X65363Y-29980D01*
X65236Y-29979D01*
X65118Y-30028D01*
X65028Y-30118D01*
X64980Y-30236D01*
X64979Y-30363D01*
X65028Y-30481D01*
X65118Y-30571D01*
X65236Y-30619D01*
X65363Y-30620D01*
X65481Y-30571D01*
X65571Y-30481D01*
X65619Y-30363D01*
X65620Y-30236D01*
X65620Y-39707D01*
X65520Y-39748D01*
X65520Y-37736D01*
X65471Y-37618D01*
X65381Y-37528D01*
X65263Y-37480D01*
X65136Y-37479D01*
X65018Y-37528D01*
X64928Y-37618D01*
X64880Y-37736D01*
X64879Y-37863D01*
X64928Y-37981D01*
X65018Y-38071D01*
X65136Y-38119D01*
X65263Y-38120D01*
X65381Y-38071D01*
X65471Y-37981D01*
X65519Y-37863D01*
X65520Y-37736D01*
X65520Y-39748D01*
X65398Y-39798D01*
X64971Y-40224D01*
X64739Y-40782D01*
X64739Y-41385D01*
X64969Y-41942D01*
X65395Y-42369D01*
X65952Y-42601D01*
X66556Y-42601D01*
X67113Y-42371D01*
X67540Y-41945D01*
X67772Y-41387D01*
X67772Y-40784D01*
X67772Y-43742D01*
X67599Y-43569D01*
X67371Y-43474D01*
X67125Y-43474D01*
X66897Y-43568D01*
X66722Y-43742D01*
X66628Y-43970D01*
X66627Y-44217D01*
X66722Y-44445D01*
X66896Y-44619D01*
X67124Y-44714D01*
X67370Y-44714D01*
X67598Y-44620D01*
X67773Y-44446D01*
X67867Y-44218D01*
X67868Y-43971D01*
X67868Y-44860D01*
X66368Y-44860D01*
X66368Y-43971D01*
X66273Y-43743D01*
X66099Y-43569D01*
X65871Y-43474D01*
X65625Y-43474D01*
X65397Y-43568D01*
X65222Y-43742D01*
X65128Y-43970D01*
X65127Y-44217D01*
X65222Y-44445D01*
X65396Y-44619D01*
X65624Y-44714D01*
X65870Y-44714D01*
X66098Y-44620D01*
X66273Y-44446D01*
X66367Y-44218D01*
X66368Y-43971D01*
X66368Y-44860D01*
X64868Y-44860D01*
X64868Y-44570D01*
X64868Y-43570D01*
X64849Y-43526D01*
X64816Y-43492D01*
X64772Y-43474D01*
X64724Y-43474D01*
X64120Y-43474D01*
X64120Y-30106D01*
X64071Y-29988D01*
X63981Y-29898D01*
X63920Y-29873D01*
X63920Y-28006D01*
X63871Y-27888D01*
X63781Y-27798D01*
X63720Y-27773D01*
X63720Y-24336D01*
X63671Y-24218D01*
X63581Y-24128D01*
X63463Y-24080D01*
X63336Y-24079D01*
X63218Y-24128D01*
X63128Y-24218D01*
X63080Y-24336D01*
X63079Y-24463D01*
X63128Y-24581D01*
X63218Y-24671D01*
X63336Y-24719D01*
X63463Y-24720D01*
X63581Y-24671D01*
X63671Y-24581D01*
X63719Y-24463D01*
X63720Y-24336D01*
X63720Y-27773D01*
X63663Y-27750D01*
X63536Y-27749D01*
X63418Y-27798D01*
X63328Y-27888D01*
X63280Y-28006D01*
X63279Y-28133D01*
X63328Y-28251D01*
X63418Y-28341D01*
X63536Y-28389D01*
X63663Y-28390D01*
X63781Y-28341D01*
X63871Y-28251D01*
X63919Y-28133D01*
X63920Y-28006D01*
X63920Y-29873D01*
X63863Y-29850D01*
X63736Y-29849D01*
X63618Y-29898D01*
X63528Y-29988D01*
X63480Y-30106D01*
X63479Y-30233D01*
X63528Y-30351D01*
X63618Y-30441D01*
X63736Y-30489D01*
X63863Y-30490D01*
X63981Y-30441D01*
X64071Y-30351D01*
X64119Y-30233D01*
X64120Y-30106D01*
X64120Y-43474D01*
X63750Y-43474D01*
X63750Y-40156D01*
X63701Y-40038D01*
X63611Y-39948D01*
X63493Y-39900D01*
X63450Y-39900D01*
X63450Y-30186D01*
X63401Y-30068D01*
X63311Y-29978D01*
X63193Y-29930D01*
X63110Y-29929D01*
X63110Y-27976D01*
X63061Y-27858D01*
X62971Y-27768D01*
X62853Y-27720D01*
X62726Y-27719D01*
X62608Y-27768D01*
X62518Y-27858D01*
X62470Y-27976D01*
X62469Y-28103D01*
X62518Y-28221D01*
X62608Y-28311D01*
X62726Y-28359D01*
X62853Y-28360D01*
X62971Y-28311D01*
X63061Y-28221D01*
X63109Y-28103D01*
X63110Y-27976D01*
X63110Y-29929D01*
X63066Y-29929D01*
X62948Y-29978D01*
X62858Y-30068D01*
X62810Y-30186D01*
X62809Y-30313D01*
X62858Y-30431D01*
X62948Y-30521D01*
X63066Y-30569D01*
X63193Y-30570D01*
X63311Y-30521D01*
X63401Y-30431D01*
X63449Y-30313D01*
X63450Y-30186D01*
X63450Y-39900D01*
X63366Y-39899D01*
X63248Y-39948D01*
X63158Y-40038D01*
X63110Y-40156D01*
X63109Y-40283D01*
X63158Y-40401D01*
X63248Y-40491D01*
X63366Y-40539D01*
X63493Y-40540D01*
X63611Y-40491D01*
X63701Y-40401D01*
X63749Y-40283D01*
X63750Y-40156D01*
X63750Y-43474D01*
X63724Y-43474D01*
X63680Y-43492D01*
X63646Y-43526D01*
X63628Y-43570D01*
X63628Y-43618D01*
X63628Y-44618D01*
X63646Y-44662D01*
X63679Y-44696D01*
X63724Y-44714D01*
X63771Y-44714D01*
X64771Y-44714D01*
X64815Y-44696D01*
X64849Y-44662D01*
X64868Y-44618D01*
X64868Y-44570D01*
X64868Y-44860D01*
X63019Y-44860D01*
X63019Y-43534D01*
X63000Y-43488D01*
X63000Y-31716D01*
X62951Y-31598D01*
X62861Y-31508D01*
X62743Y-31460D01*
X62616Y-31459D01*
X62498Y-31508D01*
X62408Y-31598D01*
X62360Y-31716D01*
X62359Y-31843D01*
X62408Y-31961D01*
X62498Y-32051D01*
X62616Y-32099D01*
X62743Y-32100D01*
X62861Y-32051D01*
X62951Y-31961D01*
X62999Y-31843D01*
X63000Y-31716D01*
X63000Y-43488D01*
X62945Y-43355D01*
X62945Y-39831D01*
X62892Y-39704D01*
X62795Y-39607D01*
X62668Y-39555D01*
X62531Y-39554D01*
X62404Y-39607D01*
X62307Y-39704D01*
X62255Y-39831D01*
X62254Y-39968D01*
X62307Y-40095D01*
X62404Y-40192D01*
X62531Y-40244D01*
X62668Y-40245D01*
X62795Y-40192D01*
X62892Y-40095D01*
X62944Y-39968D01*
X62945Y-39831D01*
X62945Y-43355D01*
X62891Y-43226D01*
X62656Y-42990D01*
X62570Y-42954D01*
X62570Y-40536D01*
X62521Y-40418D01*
X62431Y-40328D01*
X62313Y-40280D01*
X62186Y-40279D01*
X62100Y-40315D01*
X62100Y-26536D01*
X62051Y-26418D01*
X61961Y-26328D01*
X61843Y-26280D01*
X61716Y-26279D01*
X61598Y-26328D01*
X61508Y-26418D01*
X61460Y-26536D01*
X61459Y-26663D01*
X61508Y-26781D01*
X61598Y-26871D01*
X61716Y-26919D01*
X61843Y-26920D01*
X61961Y-26871D01*
X62051Y-26781D01*
X62099Y-26663D01*
X62100Y-26536D01*
X62100Y-40315D01*
X62068Y-40328D01*
X62008Y-40389D01*
X62008Y-40118D01*
X61944Y-39965D01*
X61830Y-39850D01*
X61830Y-38166D01*
X61781Y-38048D01*
X61691Y-37958D01*
X61573Y-37910D01*
X61446Y-37909D01*
X61328Y-37958D01*
X61238Y-38048D01*
X61190Y-38166D01*
X61190Y-34696D01*
X61141Y-34578D01*
X61051Y-34488D01*
X60933Y-34440D01*
X60806Y-34439D01*
X60790Y-34446D01*
X60790Y-28416D01*
X60741Y-28298D01*
X60651Y-28208D01*
X60533Y-28160D01*
X60406Y-28159D01*
X60288Y-28208D01*
X60198Y-28298D01*
X60150Y-28416D01*
X60149Y-28543D01*
X60198Y-28661D01*
X60288Y-28751D01*
X60406Y-28799D01*
X60533Y-28800D01*
X60651Y-28751D01*
X60741Y-28661D01*
X60789Y-28543D01*
X60790Y-28416D01*
X60790Y-34446D01*
X60688Y-34488D01*
X60598Y-34578D01*
X60550Y-34696D01*
X60549Y-34823D01*
X60598Y-34941D01*
X60686Y-35028D01*
X60638Y-35048D01*
X60548Y-35138D01*
X60500Y-35256D01*
X60499Y-35383D01*
X60548Y-35501D01*
X60638Y-35591D01*
X60756Y-35639D01*
X60883Y-35640D01*
X61001Y-35591D01*
X61091Y-35501D01*
X61139Y-35383D01*
X61140Y-35256D01*
X61091Y-35138D01*
X61003Y-35051D01*
X61051Y-35031D01*
X61141Y-34941D01*
X61189Y-34823D01*
X61190Y-34696D01*
X61190Y-38166D01*
X61189Y-38293D01*
X61238Y-38411D01*
X61328Y-38501D01*
X61446Y-38549D01*
X61573Y-38550D01*
X61691Y-38501D01*
X61781Y-38411D01*
X61829Y-38293D01*
X61830Y-38166D01*
X61830Y-39850D01*
X61828Y-39848D01*
X61675Y-39785D01*
X61510Y-39785D01*
X61357Y-39848D01*
X61240Y-39965D01*
X61177Y-40117D01*
X61176Y-40283D01*
X61240Y-40435D01*
X61356Y-40552D01*
X61509Y-40616D01*
X61674Y-40616D01*
X61827Y-40553D01*
X61944Y-40436D01*
X62007Y-40283D01*
X62008Y-40118D01*
X62008Y-40389D01*
X61978Y-40418D01*
X61930Y-40536D01*
X61929Y-40663D01*
X61978Y-40781D01*
X62068Y-40871D01*
X62186Y-40919D01*
X62313Y-40920D01*
X62431Y-40871D01*
X62521Y-40781D01*
X62569Y-40663D01*
X62570Y-40536D01*
X62570Y-42954D01*
X62348Y-42862D01*
X62014Y-42862D01*
X61706Y-42989D01*
X61508Y-43187D01*
X61508Y-41118D01*
X61444Y-40965D01*
X61328Y-40848D01*
X61175Y-40785D01*
X61010Y-40785D01*
X61008Y-40786D01*
X61008Y-40118D01*
X60944Y-39965D01*
X60828Y-39848D01*
X60675Y-39785D01*
X60510Y-39785D01*
X60357Y-39848D01*
X60320Y-39885D01*
X60320Y-38936D01*
X60271Y-38818D01*
X60181Y-38728D01*
X60063Y-38680D01*
X59936Y-38679D01*
X59818Y-38728D01*
X59728Y-38818D01*
X59680Y-38936D01*
X59679Y-39063D01*
X59728Y-39181D01*
X59818Y-39271D01*
X59936Y-39319D01*
X60063Y-39320D01*
X60181Y-39271D01*
X60271Y-39181D01*
X60319Y-39063D01*
X60320Y-38936D01*
X60320Y-39885D01*
X60240Y-39965D01*
X60177Y-40117D01*
X60176Y-40283D01*
X60240Y-40435D01*
X60356Y-40552D01*
X60509Y-40616D01*
X60674Y-40616D01*
X60827Y-40553D01*
X60944Y-40436D01*
X61007Y-40283D01*
X61008Y-40118D01*
X61008Y-40786D01*
X60857Y-40848D01*
X60740Y-40965D01*
X60677Y-41117D01*
X60676Y-41283D01*
X60740Y-41435D01*
X60856Y-41552D01*
X61009Y-41616D01*
X61174Y-41616D01*
X61327Y-41553D01*
X61444Y-41436D01*
X61507Y-41283D01*
X61508Y-41118D01*
X61508Y-43187D01*
X61470Y-43225D01*
X61342Y-43533D01*
X61341Y-43866D01*
X61469Y-44175D01*
X61704Y-44411D01*
X62013Y-44539D01*
X62346Y-44539D01*
X62654Y-44412D01*
X62890Y-44176D01*
X63018Y-43868D01*
X63019Y-43534D01*
X63019Y-44860D01*
X60508Y-44860D01*
X60508Y-41118D01*
X60444Y-40965D01*
X60328Y-40848D01*
X60175Y-40785D01*
X60010Y-40785D01*
X60008Y-40786D01*
X60008Y-40118D01*
X59944Y-39965D01*
X59828Y-39848D01*
X59675Y-39785D01*
X59510Y-39785D01*
X59357Y-39848D01*
X59330Y-39875D01*
X59330Y-37416D01*
X59281Y-37298D01*
X59191Y-37208D01*
X59073Y-37160D01*
X59070Y-37160D01*
X59070Y-24136D01*
X59021Y-24018D01*
X58931Y-23928D01*
X58813Y-23880D01*
X58686Y-23879D01*
X58641Y-23898D01*
X58641Y-19725D01*
X58200Y-19284D01*
X58115Y-19369D01*
X58115Y-19200D01*
X57674Y-18758D01*
X57562Y-18811D01*
X57462Y-19084D01*
X57474Y-19375D01*
X57562Y-19588D01*
X57674Y-19641D01*
X58115Y-19200D01*
X58115Y-19369D01*
X57758Y-19725D01*
X57811Y-19837D01*
X58084Y-19937D01*
X58375Y-19925D01*
X58588Y-19837D01*
X58641Y-19725D01*
X58641Y-23898D01*
X58568Y-23928D01*
X58478Y-24018D01*
X58430Y-24136D01*
X58429Y-24263D01*
X58478Y-24381D01*
X58568Y-24471D01*
X58686Y-24519D01*
X58813Y-24520D01*
X58931Y-24471D01*
X59021Y-24381D01*
X59069Y-24263D01*
X59070Y-24136D01*
X59070Y-37160D01*
X58946Y-37159D01*
X58828Y-37208D01*
X58738Y-37298D01*
X58690Y-37416D01*
X58689Y-37543D01*
X58738Y-37661D01*
X58828Y-37751D01*
X58946Y-37799D01*
X59073Y-37800D01*
X59191Y-37751D01*
X59281Y-37661D01*
X59329Y-37543D01*
X59330Y-37416D01*
X59330Y-39875D01*
X59240Y-39965D01*
X59177Y-40117D01*
X59176Y-40283D01*
X59240Y-40435D01*
X59356Y-40552D01*
X59509Y-40616D01*
X59674Y-40616D01*
X59827Y-40553D01*
X59944Y-40436D01*
X60007Y-40283D01*
X60008Y-40118D01*
X60008Y-40786D01*
X59857Y-40848D01*
X59740Y-40965D01*
X59677Y-41117D01*
X59676Y-41283D01*
X59740Y-41435D01*
X59856Y-41552D01*
X60009Y-41616D01*
X60174Y-41616D01*
X60327Y-41553D01*
X60444Y-41436D01*
X60507Y-41283D01*
X60508Y-41118D01*
X60508Y-44860D01*
X59508Y-44860D01*
X59508Y-41118D01*
X59444Y-40965D01*
X59328Y-40848D01*
X59175Y-40785D01*
X59010Y-40785D01*
X59008Y-40786D01*
X59008Y-40118D01*
X58944Y-39965D01*
X58828Y-39848D01*
X58675Y-39785D01*
X58610Y-39785D01*
X58610Y-35166D01*
X58561Y-35048D01*
X58471Y-34958D01*
X58353Y-34910D01*
X58226Y-34909D01*
X58108Y-34958D01*
X58018Y-35048D01*
X57970Y-35166D01*
X57969Y-35293D01*
X58018Y-35411D01*
X58108Y-35501D01*
X58226Y-35549D01*
X58353Y-35550D01*
X58471Y-35501D01*
X58561Y-35411D01*
X58609Y-35293D01*
X58610Y-35166D01*
X58610Y-39785D01*
X58510Y-39785D01*
X58357Y-39848D01*
X58240Y-39965D01*
X58177Y-40117D01*
X58176Y-40283D01*
X58240Y-40435D01*
X58356Y-40552D01*
X58509Y-40616D01*
X58674Y-40616D01*
X58827Y-40553D01*
X58944Y-40436D01*
X59007Y-40283D01*
X59008Y-40118D01*
X59008Y-40786D01*
X58857Y-40848D01*
X58740Y-40965D01*
X58677Y-41117D01*
X58676Y-41283D01*
X58740Y-41435D01*
X58856Y-41552D01*
X59009Y-41616D01*
X59174Y-41616D01*
X59327Y-41553D01*
X59444Y-41436D01*
X59507Y-41283D01*
X59508Y-41118D01*
X59508Y-44860D01*
X58508Y-44860D01*
X58508Y-41472D01*
X58508Y-40881D01*
X58489Y-40837D01*
X58456Y-40803D01*
X58411Y-40785D01*
X58364Y-40785D01*
X57773Y-40785D01*
X57729Y-40803D01*
X57695Y-40837D01*
X57677Y-40881D01*
X57676Y-40929D01*
X57676Y-41520D01*
X57695Y-41564D01*
X57728Y-41597D01*
X57773Y-41616D01*
X57820Y-41616D01*
X58411Y-41616D01*
X58455Y-41598D01*
X58489Y-41564D01*
X58507Y-41520D01*
X58508Y-41472D01*
X58508Y-44860D01*
X58346Y-44860D01*
X58346Y-43534D01*
X58218Y-43226D01*
X57983Y-42990D01*
X57675Y-42862D01*
X57341Y-42862D01*
X57290Y-42883D01*
X57290Y-29736D01*
X57241Y-29618D01*
X57200Y-29577D01*
X57200Y-29046D01*
X57151Y-28928D01*
X57061Y-28838D01*
X56945Y-28790D01*
X56945Y-22431D01*
X56892Y-22304D01*
X56795Y-22207D01*
X56668Y-22155D01*
X56531Y-22154D01*
X56404Y-22207D01*
X56307Y-22304D01*
X56255Y-22431D01*
X56254Y-22568D01*
X56307Y-22695D01*
X56404Y-22792D01*
X56531Y-22844D01*
X56668Y-22845D01*
X56795Y-22792D01*
X56892Y-22695D01*
X56944Y-22568D01*
X56945Y-22431D01*
X56945Y-28790D01*
X56943Y-28790D01*
X56816Y-28789D01*
X56698Y-28838D01*
X56608Y-28928D01*
X56560Y-29046D01*
X56559Y-29173D01*
X56608Y-29291D01*
X56698Y-29381D01*
X56816Y-29429D01*
X56943Y-29430D01*
X57061Y-29381D01*
X57151Y-29291D01*
X57199Y-29173D01*
X57200Y-29046D01*
X57200Y-29577D01*
X57151Y-29528D01*
X57033Y-29480D01*
X56906Y-29479D01*
X56788Y-29528D01*
X56698Y-29618D01*
X56650Y-29736D01*
X56649Y-29863D01*
X56698Y-29981D01*
X56788Y-30071D01*
X56906Y-30119D01*
X57033Y-30120D01*
X57151Y-30071D01*
X57241Y-29981D01*
X57289Y-29863D01*
X57290Y-29736D01*
X57290Y-42883D01*
X57033Y-42989D01*
X56850Y-43172D01*
X56850Y-35056D01*
X56801Y-34938D01*
X56711Y-34848D01*
X56593Y-34800D01*
X56466Y-34799D01*
X56348Y-34848D01*
X56310Y-34887D01*
X56310Y-34436D01*
X56261Y-34318D01*
X56171Y-34228D01*
X56140Y-34215D01*
X56140Y-32606D01*
X56091Y-32488D01*
X56001Y-32398D01*
X55883Y-32350D01*
X55756Y-32349D01*
X55660Y-32389D01*
X55660Y-31456D01*
X55620Y-31359D01*
X55620Y-23836D01*
X55571Y-23718D01*
X55481Y-23628D01*
X55363Y-23580D01*
X55236Y-23579D01*
X55118Y-23628D01*
X55028Y-23718D01*
X54980Y-23836D01*
X54979Y-23963D01*
X55028Y-24081D01*
X55118Y-24171D01*
X55236Y-24219D01*
X55363Y-24220D01*
X55481Y-24171D01*
X55571Y-24081D01*
X55619Y-23963D01*
X55620Y-23836D01*
X55620Y-31359D01*
X55611Y-31338D01*
X55521Y-31248D01*
X55403Y-31200D01*
X55276Y-31199D01*
X55158Y-31248D01*
X55068Y-31338D01*
X55020Y-31456D01*
X55019Y-31583D01*
X55068Y-31701D01*
X55158Y-31791D01*
X55276Y-31839D01*
X55403Y-31840D01*
X55521Y-31791D01*
X55611Y-31701D01*
X55659Y-31583D01*
X55660Y-31456D01*
X55660Y-32389D01*
X55638Y-32398D01*
X55548Y-32488D01*
X55500Y-32606D01*
X55499Y-32733D01*
X55548Y-32851D01*
X55638Y-32941D01*
X55756Y-32989D01*
X55883Y-32990D01*
X56001Y-32941D01*
X56091Y-32851D01*
X56139Y-32733D01*
X56140Y-32606D01*
X56140Y-34215D01*
X56053Y-34180D01*
X55926Y-34179D01*
X55808Y-34228D01*
X55718Y-34318D01*
X55670Y-34436D01*
X55669Y-34563D01*
X55718Y-34681D01*
X55808Y-34771D01*
X55926Y-34819D01*
X56053Y-34820D01*
X56171Y-34771D01*
X56261Y-34681D01*
X56309Y-34563D01*
X56310Y-34436D01*
X56310Y-34887D01*
X56258Y-34938D01*
X56210Y-35056D01*
X56209Y-35183D01*
X56258Y-35301D01*
X56348Y-35391D01*
X56466Y-35439D01*
X56593Y-35440D01*
X56711Y-35391D01*
X56801Y-35301D01*
X56849Y-35183D01*
X56850Y-35056D01*
X56850Y-43172D01*
X56797Y-43225D01*
X56694Y-43472D01*
X56592Y-43226D01*
X56356Y-42990D01*
X56330Y-42979D01*
X56330Y-36356D01*
X56281Y-36238D01*
X56191Y-36148D01*
X56073Y-36100D01*
X55946Y-36099D01*
X55828Y-36148D01*
X55738Y-36238D01*
X55690Y-36356D01*
X55689Y-36483D01*
X55738Y-36601D01*
X55828Y-36691D01*
X55946Y-36739D01*
X56073Y-36740D01*
X56191Y-36691D01*
X56281Y-36601D01*
X56329Y-36483D01*
X56330Y-36356D01*
X56330Y-42979D01*
X56048Y-42862D01*
X55715Y-42862D01*
X55708Y-42864D01*
X55708Y-40118D01*
X55645Y-39965D01*
X55528Y-39848D01*
X55390Y-39791D01*
X55390Y-33116D01*
X55341Y-32998D01*
X55251Y-32908D01*
X55133Y-32860D01*
X55006Y-32859D01*
X54888Y-32908D01*
X54798Y-32998D01*
X54750Y-33116D01*
X54749Y-33243D01*
X54798Y-33361D01*
X54888Y-33451D01*
X55006Y-33499D01*
X55133Y-33500D01*
X55251Y-33451D01*
X55341Y-33361D01*
X55389Y-33243D01*
X55390Y-33116D01*
X55390Y-39791D01*
X55376Y-39785D01*
X55211Y-39785D01*
X55058Y-39848D01*
X54941Y-39965D01*
X54877Y-40117D01*
X54877Y-40283D01*
X54940Y-40435D01*
X55057Y-40552D01*
X55210Y-40616D01*
X55375Y-40616D01*
X55528Y-40553D01*
X55645Y-40436D01*
X55708Y-40283D01*
X55708Y-40118D01*
X55708Y-42864D01*
X55406Y-42989D01*
X55208Y-43187D01*
X55208Y-41118D01*
X55145Y-40965D01*
X55028Y-40848D01*
X54876Y-40785D01*
X54711Y-40785D01*
X54708Y-40786D01*
X54708Y-40118D01*
X54645Y-39965D01*
X54528Y-39848D01*
X54376Y-39785D01*
X54211Y-39785D01*
X54058Y-39848D01*
X53941Y-39965D01*
X53877Y-40117D01*
X53877Y-40283D01*
X53940Y-40435D01*
X54057Y-40552D01*
X54210Y-40616D01*
X54375Y-40616D01*
X54528Y-40553D01*
X54645Y-40436D01*
X54708Y-40283D01*
X54708Y-40118D01*
X54708Y-40786D01*
X54558Y-40848D01*
X54441Y-40965D01*
X54377Y-41117D01*
X54377Y-41283D01*
X54440Y-41435D01*
X54557Y-41552D01*
X54710Y-41616D01*
X54875Y-41616D01*
X55028Y-41553D01*
X55145Y-41436D01*
X55208Y-41283D01*
X55208Y-41118D01*
X55208Y-43187D01*
X55170Y-43225D01*
X55042Y-43533D01*
X55042Y-43866D01*
X55170Y-44175D01*
X55405Y-44411D01*
X55713Y-44539D01*
X56047Y-44539D01*
X56355Y-44412D01*
X56591Y-44176D01*
X56694Y-43928D01*
X56796Y-44175D01*
X57031Y-44411D01*
X57340Y-44539D01*
X57673Y-44539D01*
X57981Y-44412D01*
X58217Y-44176D01*
X58345Y-43868D01*
X58346Y-43534D01*
X58346Y-44860D01*
X54640Y-44860D01*
X54640Y-44010D01*
X54250Y-44010D01*
X54250Y-43910D01*
X54208Y-43910D01*
X54208Y-41118D01*
X54145Y-40965D01*
X54028Y-40848D01*
X53876Y-40785D01*
X53711Y-40785D01*
X53708Y-40786D01*
X53708Y-40118D01*
X53645Y-39965D01*
X53528Y-39848D01*
X53520Y-39845D01*
X53520Y-36016D01*
X53520Y-35016D01*
X53520Y-33016D01*
X53456Y-32862D01*
X53390Y-32796D01*
X53390Y-30916D01*
X53341Y-30798D01*
X53251Y-30708D01*
X53133Y-30660D01*
X53006Y-30659D01*
X52888Y-30708D01*
X52798Y-30798D01*
X52750Y-30916D01*
X52749Y-31043D01*
X52798Y-31161D01*
X52888Y-31251D01*
X53006Y-31299D01*
X53133Y-31300D01*
X53251Y-31251D01*
X53341Y-31161D01*
X53389Y-31043D01*
X53390Y-30916D01*
X53390Y-32796D01*
X53338Y-32744D01*
X53183Y-32680D01*
X53016Y-32679D01*
X52862Y-32743D01*
X52744Y-32861D01*
X52680Y-33016D01*
X52679Y-33183D01*
X52743Y-33337D01*
X52861Y-33455D01*
X53016Y-33519D01*
X53183Y-33520D01*
X53337Y-33456D01*
X53455Y-33338D01*
X53519Y-33183D01*
X53520Y-33016D01*
X53520Y-35016D01*
X53456Y-34862D01*
X53338Y-34744D01*
X53183Y-34680D01*
X53016Y-34679D01*
X52862Y-34743D01*
X52744Y-34861D01*
X52680Y-35016D01*
X52679Y-35183D01*
X52743Y-35337D01*
X52861Y-35455D01*
X53016Y-35519D01*
X53183Y-35520D01*
X53337Y-35456D01*
X53455Y-35338D01*
X53519Y-35183D01*
X53520Y-35016D01*
X53520Y-36016D01*
X53456Y-35862D01*
X53338Y-35744D01*
X53183Y-35680D01*
X53016Y-35679D01*
X52862Y-35743D01*
X52744Y-35861D01*
X52680Y-36016D01*
X52679Y-36183D01*
X52743Y-36337D01*
X52861Y-36455D01*
X53016Y-36519D01*
X53183Y-36520D01*
X53337Y-36456D01*
X53455Y-36338D01*
X53519Y-36183D01*
X53520Y-36016D01*
X53520Y-39845D01*
X53520Y-39845D01*
X53520Y-37376D01*
X53520Y-36776D01*
X53501Y-36732D01*
X53468Y-36698D01*
X53423Y-36680D01*
X53376Y-36679D01*
X52776Y-36679D01*
X52732Y-36698D01*
X52698Y-36731D01*
X52680Y-36776D01*
X52679Y-36823D01*
X52679Y-37423D01*
X52698Y-37467D01*
X52731Y-37501D01*
X52776Y-37519D01*
X52823Y-37520D01*
X53423Y-37520D01*
X53467Y-37501D01*
X53501Y-37468D01*
X53519Y-37423D01*
X53520Y-37376D01*
X53520Y-39845D01*
X53376Y-39785D01*
X53211Y-39785D01*
X53058Y-39848D01*
X52941Y-39965D01*
X52877Y-40117D01*
X52877Y-40283D01*
X52940Y-40435D01*
X53057Y-40552D01*
X53210Y-40616D01*
X53375Y-40616D01*
X53528Y-40553D01*
X53645Y-40436D01*
X53708Y-40283D01*
X53708Y-40118D01*
X53708Y-40786D01*
X53558Y-40848D01*
X53441Y-40965D01*
X53377Y-41117D01*
X53377Y-41283D01*
X53440Y-41435D01*
X53557Y-41552D01*
X53710Y-41616D01*
X53875Y-41616D01*
X54028Y-41553D01*
X54145Y-41436D01*
X54208Y-41283D01*
X54208Y-41118D01*
X54208Y-43910D01*
X53529Y-43910D01*
X53529Y-44010D01*
X53208Y-44010D01*
X53208Y-41118D01*
X53145Y-40965D01*
X53028Y-40848D01*
X52876Y-40785D01*
X52711Y-40785D01*
X52708Y-40786D01*
X52708Y-40118D01*
X52645Y-39965D01*
X52595Y-39914D01*
X52595Y-29036D01*
X52546Y-28918D01*
X52456Y-28828D01*
X52338Y-28780D01*
X52211Y-28779D01*
X52093Y-28828D01*
X52003Y-28918D01*
X51955Y-29036D01*
X51954Y-29163D01*
X52003Y-29281D01*
X52093Y-29371D01*
X52211Y-29419D01*
X52338Y-29420D01*
X52456Y-29371D01*
X52546Y-29281D01*
X52594Y-29163D01*
X52595Y-29036D01*
X52595Y-39914D01*
X52528Y-39848D01*
X52520Y-39845D01*
X52520Y-37016D01*
X52520Y-36016D01*
X52520Y-36016D01*
X52520Y-33376D01*
X52520Y-32776D01*
X52501Y-32732D01*
X52468Y-32698D01*
X52423Y-32680D01*
X52410Y-32680D01*
X52410Y-30936D01*
X52361Y-30818D01*
X52271Y-30728D01*
X52153Y-30680D01*
X52026Y-30679D01*
X51908Y-30728D01*
X51818Y-30818D01*
X51770Y-30936D01*
X51769Y-31063D01*
X51818Y-31181D01*
X51908Y-31271D01*
X52026Y-31319D01*
X52153Y-31320D01*
X52271Y-31271D01*
X52361Y-31181D01*
X52409Y-31063D01*
X52410Y-30936D01*
X52410Y-32680D01*
X52376Y-32679D01*
X51776Y-32679D01*
X51732Y-32698D01*
X51698Y-32731D01*
X51680Y-32776D01*
X51679Y-32823D01*
X51679Y-33423D01*
X51698Y-33467D01*
X51731Y-33501D01*
X51776Y-33519D01*
X51823Y-33520D01*
X52423Y-33520D01*
X52467Y-33501D01*
X52501Y-33468D01*
X52519Y-33423D01*
X52520Y-33376D01*
X52520Y-36016D01*
X52456Y-35862D01*
X52338Y-35744D01*
X52183Y-35680D01*
X52016Y-35679D01*
X51862Y-35743D01*
X51744Y-35861D01*
X51680Y-36016D01*
X51679Y-36183D01*
X51743Y-36337D01*
X51861Y-36455D01*
X52016Y-36519D01*
X52183Y-36520D01*
X52337Y-36456D01*
X52455Y-36338D01*
X52519Y-36183D01*
X52520Y-36016D01*
X52520Y-37016D01*
X52456Y-36862D01*
X52338Y-36744D01*
X52183Y-36680D01*
X52016Y-36679D01*
X51862Y-36743D01*
X51744Y-36861D01*
X51680Y-37016D01*
X51679Y-37183D01*
X51743Y-37337D01*
X51861Y-37455D01*
X52016Y-37519D01*
X52183Y-37520D01*
X52337Y-37456D01*
X52455Y-37338D01*
X52519Y-37183D01*
X52520Y-37016D01*
X52520Y-39845D01*
X52376Y-39785D01*
X52211Y-39785D01*
X52058Y-39848D01*
X51941Y-39965D01*
X51877Y-40117D01*
X51877Y-40283D01*
X51940Y-40435D01*
X52057Y-40552D01*
X52210Y-40616D01*
X52375Y-40616D01*
X52528Y-40553D01*
X52645Y-40436D01*
X52708Y-40283D01*
X52708Y-40118D01*
X52708Y-40786D01*
X52558Y-40848D01*
X52441Y-40965D01*
X52377Y-41117D01*
X52377Y-41283D01*
X52440Y-41435D01*
X52557Y-41552D01*
X52710Y-41616D01*
X52875Y-41616D01*
X53028Y-41553D01*
X53145Y-41436D01*
X53208Y-41283D01*
X53208Y-41118D01*
X53208Y-44010D01*
X52660Y-44010D01*
X52660Y-44860D01*
X52208Y-44860D01*
X52208Y-41472D01*
X52208Y-40881D01*
X52190Y-40837D01*
X52156Y-40803D01*
X52112Y-40785D01*
X52065Y-40785D01*
X51520Y-40785D01*
X51520Y-37596D01*
X51471Y-37478D01*
X51381Y-37388D01*
X51320Y-37363D01*
X51320Y-32736D01*
X51271Y-32618D01*
X51181Y-32528D01*
X51063Y-32480D01*
X50936Y-32479D01*
X50818Y-32528D01*
X50728Y-32618D01*
X50720Y-32639D01*
X50720Y-30136D01*
X50671Y-30018D01*
X50581Y-29928D01*
X50550Y-29915D01*
X50550Y-26986D01*
X50501Y-26868D01*
X50411Y-26778D01*
X50293Y-26730D01*
X50166Y-26729D01*
X50048Y-26778D01*
X49958Y-26868D01*
X49910Y-26986D01*
X49909Y-27113D01*
X49958Y-27231D01*
X50048Y-27321D01*
X50166Y-27369D01*
X50293Y-27370D01*
X50411Y-27321D01*
X50501Y-27231D01*
X50549Y-27113D01*
X50550Y-26986D01*
X50550Y-29915D01*
X50463Y-29880D01*
X50336Y-29879D01*
X50218Y-29928D01*
X50128Y-30018D01*
X50080Y-30136D01*
X50079Y-30263D01*
X50128Y-30381D01*
X50218Y-30471D01*
X50336Y-30519D01*
X50463Y-30520D01*
X50581Y-30471D01*
X50671Y-30381D01*
X50719Y-30263D01*
X50720Y-30136D01*
X50720Y-32639D01*
X50680Y-32736D01*
X50679Y-32863D01*
X50728Y-32981D01*
X50818Y-33071D01*
X50936Y-33119D01*
X51063Y-33120D01*
X51181Y-33071D01*
X51271Y-32981D01*
X51319Y-32863D01*
X51320Y-32736D01*
X51320Y-37363D01*
X51263Y-37340D01*
X51136Y-37339D01*
X51018Y-37388D01*
X50928Y-37478D01*
X50880Y-37596D01*
X50879Y-37723D01*
X50928Y-37841D01*
X51018Y-37931D01*
X51136Y-37979D01*
X51263Y-37980D01*
X51381Y-37931D01*
X51471Y-37841D01*
X51519Y-37723D01*
X51520Y-37596D01*
X51520Y-40785D01*
X51474Y-40785D01*
X51429Y-40803D01*
X51396Y-40837D01*
X51377Y-40881D01*
X51377Y-40929D01*
X51377Y-41520D01*
X51396Y-41564D01*
X51429Y-41597D01*
X51473Y-41616D01*
X51521Y-41616D01*
X52112Y-41616D01*
X52156Y-41598D01*
X52190Y-41564D01*
X52208Y-41520D01*
X52208Y-41472D01*
X52208Y-44860D01*
X52046Y-44860D01*
X52046Y-43534D01*
X51919Y-43226D01*
X51683Y-42990D01*
X51375Y-42862D01*
X51042Y-42862D01*
X50733Y-42989D01*
X50497Y-43225D01*
X50445Y-43352D01*
X50445Y-32131D01*
X50392Y-32004D01*
X50295Y-31907D01*
X50168Y-31855D01*
X50031Y-31854D01*
X49904Y-31907D01*
X49865Y-31947D01*
X49865Y-23467D01*
X49802Y-23315D01*
X49685Y-23198D01*
X49532Y-23135D01*
X49367Y-23134D01*
X49215Y-23197D01*
X49098Y-23314D01*
X49035Y-23467D01*
X49034Y-23632D01*
X49097Y-23784D01*
X49214Y-23901D01*
X49367Y-23964D01*
X49532Y-23965D01*
X49684Y-23902D01*
X49801Y-23785D01*
X49864Y-23632D01*
X49865Y-23467D01*
X49865Y-31947D01*
X49820Y-31991D01*
X49820Y-30936D01*
X49771Y-30818D01*
X49681Y-30728D01*
X49563Y-30680D01*
X49436Y-30679D01*
X49318Y-30728D01*
X49228Y-30818D01*
X49180Y-30936D01*
X49179Y-31063D01*
X49228Y-31181D01*
X49318Y-31271D01*
X49436Y-31319D01*
X49563Y-31320D01*
X49681Y-31271D01*
X49771Y-31181D01*
X49819Y-31063D01*
X49820Y-30936D01*
X49820Y-31991D01*
X49807Y-32004D01*
X49755Y-32131D01*
X49754Y-32268D01*
X49807Y-32395D01*
X49904Y-32492D01*
X50031Y-32544D01*
X50168Y-32545D01*
X50295Y-32492D01*
X50392Y-32395D01*
X50444Y-32268D01*
X50445Y-32131D01*
X50445Y-43352D01*
X50369Y-43533D01*
X50369Y-43866D01*
X50497Y-44175D01*
X50732Y-44411D01*
X51040Y-44539D01*
X51374Y-44539D01*
X51682Y-44412D01*
X51918Y-44176D01*
X52046Y-43868D01*
X52046Y-43534D01*
X52046Y-44860D01*
X50320Y-44860D01*
X50320Y-33836D01*
X50271Y-33718D01*
X50181Y-33628D01*
X50063Y-33580D01*
X49936Y-33579D01*
X49818Y-33628D01*
X49728Y-33718D01*
X49680Y-33836D01*
X49679Y-33963D01*
X49728Y-34081D01*
X49818Y-34171D01*
X49936Y-34219D01*
X50063Y-34220D01*
X50181Y-34171D01*
X50271Y-34081D01*
X50319Y-33963D01*
X50320Y-33836D01*
X50320Y-44860D01*
X50050Y-44860D01*
X50050Y-43810D01*
X50020Y-43738D01*
X50020Y-41236D01*
X49971Y-41118D01*
X49881Y-41028D01*
X49763Y-40980D01*
X49636Y-40979D01*
X49518Y-41028D01*
X49428Y-41118D01*
X49395Y-41199D01*
X49395Y-38511D01*
X49346Y-38393D01*
X49256Y-38303D01*
X49171Y-38268D01*
X49171Y-32251D01*
X49155Y-32067D01*
X49115Y-31972D01*
X49032Y-31952D01*
X48947Y-32037D01*
X48947Y-31867D01*
X48927Y-31784D01*
X48751Y-31728D01*
X48567Y-31744D01*
X48472Y-31784D01*
X48452Y-31867D01*
X48700Y-32115D01*
X48947Y-31867D01*
X48947Y-32037D01*
X48784Y-32200D01*
X49032Y-32447D01*
X49115Y-32427D01*
X49171Y-32251D01*
X49171Y-38268D01*
X49138Y-38255D01*
X49120Y-38255D01*
X49120Y-34236D01*
X49071Y-34118D01*
X48981Y-34028D01*
X48947Y-34014D01*
X48947Y-32532D01*
X48700Y-32284D01*
X48615Y-32369D01*
X48615Y-32200D01*
X48367Y-31952D01*
X48284Y-31972D01*
X48228Y-32148D01*
X48244Y-32332D01*
X48284Y-32427D01*
X48367Y-32447D01*
X48615Y-32200D01*
X48615Y-32369D01*
X48452Y-32532D01*
X48472Y-32615D01*
X48648Y-32671D01*
X48832Y-32655D01*
X48927Y-32615D01*
X48947Y-32532D01*
X48947Y-34014D01*
X48863Y-33980D01*
X48790Y-33979D01*
X48790Y-32936D01*
X48741Y-32818D01*
X48651Y-32728D01*
X48533Y-32680D01*
X48406Y-32679D01*
X48288Y-32728D01*
X48198Y-32818D01*
X48150Y-32936D01*
X48149Y-33063D01*
X48198Y-33181D01*
X48288Y-33271D01*
X48406Y-33319D01*
X48533Y-33320D01*
X48651Y-33271D01*
X48741Y-33181D01*
X48789Y-33063D01*
X48790Y-32936D01*
X48790Y-33979D01*
X48736Y-33979D01*
X48618Y-34028D01*
X48528Y-34118D01*
X48480Y-34236D01*
X48479Y-34363D01*
X48528Y-34481D01*
X48618Y-34571D01*
X48736Y-34619D01*
X48863Y-34620D01*
X48981Y-34571D01*
X49071Y-34481D01*
X49119Y-34363D01*
X49120Y-34236D01*
X49120Y-38255D01*
X49011Y-38254D01*
X48920Y-38292D01*
X48920Y-36736D01*
X48871Y-36618D01*
X48781Y-36528D01*
X48663Y-36480D01*
X48536Y-36479D01*
X48418Y-36528D01*
X48328Y-36618D01*
X48280Y-36736D01*
X48279Y-36863D01*
X48328Y-36981D01*
X48418Y-37071D01*
X48536Y-37119D01*
X48663Y-37120D01*
X48781Y-37071D01*
X48871Y-36981D01*
X48919Y-36863D01*
X48920Y-36736D01*
X48920Y-38292D01*
X48893Y-38303D01*
X48803Y-38393D01*
X48755Y-38511D01*
X48754Y-38638D01*
X48803Y-38755D01*
X48693Y-38710D01*
X48566Y-38709D01*
X48448Y-38758D01*
X48358Y-38848D01*
X48310Y-38966D01*
X48309Y-39093D01*
X48358Y-39211D01*
X48448Y-39301D01*
X48566Y-39349D01*
X48693Y-39350D01*
X48811Y-39301D01*
X48901Y-39211D01*
X48949Y-39093D01*
X48950Y-38966D01*
X48901Y-38849D01*
X49011Y-38894D01*
X49138Y-38895D01*
X49256Y-38846D01*
X49346Y-38756D01*
X49394Y-38638D01*
X49395Y-38511D01*
X49395Y-41199D01*
X49380Y-41236D01*
X49379Y-41363D01*
X49428Y-41481D01*
X49518Y-41571D01*
X49636Y-41619D01*
X49763Y-41620D01*
X49881Y-41571D01*
X49971Y-41481D01*
X50019Y-41363D01*
X50020Y-41236D01*
X50020Y-43738D01*
X49981Y-43645D01*
X49855Y-43518D01*
X49689Y-43450D01*
X49510Y-43449D01*
X49345Y-43518D01*
X49220Y-43643D01*
X49220Y-41236D01*
X49171Y-41118D01*
X49081Y-41028D01*
X48963Y-40980D01*
X48836Y-40979D01*
X48718Y-41028D01*
X48628Y-41118D01*
X48580Y-41236D01*
X48579Y-41363D01*
X48628Y-41481D01*
X48718Y-41571D01*
X48836Y-41619D01*
X48963Y-41620D01*
X49081Y-41571D01*
X49171Y-41481D01*
X49219Y-41363D01*
X49220Y-41236D01*
X49220Y-43643D01*
X49218Y-43644D01*
X49163Y-43778D01*
X49161Y-43750D01*
X49102Y-43608D01*
X49008Y-43576D01*
X48923Y-43661D01*
X48923Y-43491D01*
X48891Y-43397D01*
X48676Y-43323D01*
X48450Y-43338D01*
X48308Y-43397D01*
X48276Y-43491D01*
X48600Y-43815D01*
X48923Y-43491D01*
X48923Y-43661D01*
X48684Y-43900D01*
X49008Y-44223D01*
X49102Y-44191D01*
X49161Y-44018D01*
X49218Y-44154D01*
X49344Y-44281D01*
X49510Y-44349D01*
X49689Y-44350D01*
X49854Y-44281D01*
X49981Y-44155D01*
X50049Y-43989D01*
X50050Y-43810D01*
X50050Y-44860D01*
X48923Y-44860D01*
X48923Y-44308D01*
X48600Y-43984D01*
X48515Y-44069D01*
X48515Y-43900D01*
X48191Y-43576D01*
X48097Y-43608D01*
X48038Y-43781D01*
X48020Y-43738D01*
X48020Y-41336D01*
X47971Y-41218D01*
X47881Y-41128D01*
X47763Y-41080D01*
X47636Y-41079D01*
X47518Y-41128D01*
X47428Y-41218D01*
X47380Y-41336D01*
X47379Y-41463D01*
X47428Y-41581D01*
X47518Y-41671D01*
X47636Y-41719D01*
X47763Y-41720D01*
X47881Y-41671D01*
X47971Y-41581D01*
X48019Y-41463D01*
X48020Y-41336D01*
X48020Y-43738D01*
X47981Y-43645D01*
X47855Y-43518D01*
X47689Y-43450D01*
X47510Y-43449D01*
X47345Y-43518D01*
X47218Y-43644D01*
X47150Y-43810D01*
X47149Y-43989D01*
X47218Y-44154D01*
X47344Y-44281D01*
X47510Y-44349D01*
X47689Y-44350D01*
X47854Y-44281D01*
X47981Y-44155D01*
X48036Y-44021D01*
X48038Y-44049D01*
X48097Y-44191D01*
X48191Y-44223D01*
X48515Y-43900D01*
X48515Y-44069D01*
X48276Y-44308D01*
X48308Y-44402D01*
X48523Y-44476D01*
X48749Y-44461D01*
X48891Y-44402D01*
X48923Y-44308D01*
X48923Y-44860D01*
X47120Y-44860D01*
X47120Y-34386D01*
X47071Y-34268D01*
X46981Y-34178D01*
X46863Y-34130D01*
X46736Y-34129D01*
X46618Y-34178D01*
X46528Y-34268D01*
X46480Y-34386D01*
X46479Y-34513D01*
X46528Y-34631D01*
X46618Y-34721D01*
X46736Y-34769D01*
X46863Y-34770D01*
X46981Y-34721D01*
X47071Y-34631D01*
X47119Y-34513D01*
X47120Y-34386D01*
X47120Y-44860D01*
X47020Y-44860D01*
X47020Y-43376D01*
X47020Y-42776D01*
X47001Y-42732D01*
X46968Y-42698D01*
X46923Y-42680D01*
X46876Y-42679D01*
X46276Y-42679D01*
X46232Y-42698D01*
X46198Y-42731D01*
X46180Y-42776D01*
X46179Y-42823D01*
X46179Y-43423D01*
X46198Y-43467D01*
X46231Y-43501D01*
X46276Y-43519D01*
X46323Y-43520D01*
X46923Y-43520D01*
X46967Y-43501D01*
X47001Y-43468D01*
X47019Y-43423D01*
X47020Y-43376D01*
X47020Y-44860D01*
X46401Y-44860D01*
X46424Y-44746D01*
X46424Y-44453D01*
X46400Y-44332D01*
X46355Y-44265D01*
X46355Y-44182D01*
X46337Y-44138D01*
X46303Y-44104D01*
X46259Y-44085D01*
X46211Y-44085D01*
X46020Y-44085D01*
X46020Y-43016D01*
X45956Y-42862D01*
X45838Y-42744D01*
X45710Y-42690D01*
X45710Y-34216D01*
X45661Y-34098D01*
X45571Y-34008D01*
X45453Y-33960D01*
X45326Y-33959D01*
X45208Y-34008D01*
X45118Y-34098D01*
X45070Y-34216D01*
X45069Y-34343D01*
X45118Y-34461D01*
X45208Y-34551D01*
X45326Y-34599D01*
X45453Y-34600D01*
X45571Y-34551D01*
X45661Y-34461D01*
X45709Y-34343D01*
X45710Y-34216D01*
X45710Y-42690D01*
X45683Y-42680D01*
X45520Y-42679D01*
X45520Y-36486D01*
X45471Y-36368D01*
X45381Y-36278D01*
X45263Y-36230D01*
X45136Y-36229D01*
X45018Y-36278D01*
X44928Y-36368D01*
X44880Y-36486D01*
X44879Y-36613D01*
X44928Y-36731D01*
X45018Y-36821D01*
X45136Y-36869D01*
X45263Y-36870D01*
X45381Y-36821D01*
X45471Y-36731D01*
X45519Y-36613D01*
X45520Y-36486D01*
X45520Y-42679D01*
X45516Y-42679D01*
X45362Y-42743D01*
X45244Y-42861D01*
X45180Y-43016D01*
X45179Y-43183D01*
X45243Y-43337D01*
X45361Y-43455D01*
X45516Y-43519D01*
X45683Y-43520D01*
X45837Y-43456D01*
X45955Y-43338D01*
X46019Y-43183D01*
X46020Y-43016D01*
X46020Y-44085D01*
X45424Y-44085D01*
X45380Y-44104D01*
X45346Y-44137D01*
X45328Y-44181D01*
X45328Y-44229D01*
X45328Y-44619D01*
X45253Y-44588D01*
X45170Y-44588D01*
X45164Y-44590D01*
X45164Y-44251D01*
X45132Y-44174D01*
X45074Y-44116D01*
X45020Y-44093D01*
X45020Y-43016D01*
X44956Y-42862D01*
X44838Y-42744D01*
X44683Y-42680D01*
X44516Y-42679D01*
X44420Y-42719D01*
X44420Y-36536D01*
X44371Y-36418D01*
X44281Y-36328D01*
X44163Y-36280D01*
X44036Y-36279D01*
X43918Y-36328D01*
X43828Y-36418D01*
X43780Y-36536D01*
X43779Y-36663D01*
X43828Y-36781D01*
X43918Y-36871D01*
X44036Y-36919D01*
X44163Y-36920D01*
X44281Y-36871D01*
X44371Y-36781D01*
X44419Y-36663D01*
X44420Y-36536D01*
X44420Y-42719D01*
X44362Y-42743D01*
X44320Y-42786D01*
X44320Y-37536D01*
X44271Y-37418D01*
X44181Y-37328D01*
X44063Y-37280D01*
X43936Y-37279D01*
X43818Y-37328D01*
X43728Y-37418D01*
X43680Y-37536D01*
X43679Y-37663D01*
X43728Y-37781D01*
X43818Y-37871D01*
X43936Y-37919D01*
X44063Y-37920D01*
X44181Y-37871D01*
X44271Y-37781D01*
X44319Y-37663D01*
X44320Y-37536D01*
X44320Y-42786D01*
X44244Y-42861D01*
X44180Y-43016D01*
X44179Y-43183D01*
X44243Y-43337D01*
X44361Y-43455D01*
X44516Y-43519D01*
X44683Y-43520D01*
X44837Y-43456D01*
X44955Y-43338D01*
X45019Y-43183D01*
X45020Y-43016D01*
X45020Y-44093D01*
X44997Y-44084D01*
X44914Y-44084D01*
X44837Y-44115D01*
X44779Y-44174D01*
X44747Y-44251D01*
X44747Y-44334D01*
X44778Y-44410D01*
X44837Y-44469D01*
X44914Y-44501D01*
X44997Y-44501D01*
X45073Y-44469D01*
X45132Y-44411D01*
X45164Y-44334D01*
X45164Y-44251D01*
X45164Y-44590D01*
X45093Y-44619D01*
X45035Y-44678D01*
X45003Y-44755D01*
X45003Y-44838D01*
X45012Y-44860D01*
X44899Y-44860D01*
X44908Y-44838D01*
X44908Y-44755D01*
X44876Y-44678D01*
X44818Y-44620D01*
X44741Y-44588D01*
X44658Y-44588D01*
X44652Y-44590D01*
X44652Y-44251D01*
X44621Y-44174D01*
X44562Y-44116D01*
X44485Y-44084D01*
X44402Y-44084D01*
X44326Y-44115D01*
X44267Y-44174D01*
X44235Y-44251D01*
X44235Y-44334D01*
X44267Y-44410D01*
X44325Y-44469D01*
X44402Y-44501D01*
X44485Y-44501D01*
X44562Y-44469D01*
X44620Y-44411D01*
X44652Y-44334D01*
X44652Y-44251D01*
X44652Y-44590D01*
X44582Y-44619D01*
X44523Y-44678D01*
X44510Y-44710D01*
X44509Y-44701D01*
X44482Y-44637D01*
X44411Y-44636D01*
X44250Y-44796D01*
X44267Y-44813D01*
X44221Y-44860D01*
X44188Y-44860D01*
X44188Y-44859D01*
X44187Y-44860D01*
X44155Y-44860D01*
X44108Y-44813D01*
X44125Y-44796D01*
X44108Y-44780D01*
X44171Y-44717D01*
X44188Y-44734D01*
X44348Y-44573D01*
X44347Y-44502D01*
X44222Y-44463D01*
X44146Y-44470D01*
X44146Y-43169D01*
X44131Y-42955D01*
X44078Y-42826D01*
X44020Y-42808D01*
X44020Y-40386D01*
X43971Y-40268D01*
X43881Y-40178D01*
X43763Y-40130D01*
X43636Y-40129D01*
X43518Y-40178D01*
X43428Y-40268D01*
X43380Y-40386D01*
X43379Y-40513D01*
X43428Y-40631D01*
X43518Y-40721D01*
X43636Y-40769D01*
X43763Y-40770D01*
X43881Y-40721D01*
X43971Y-40631D01*
X44019Y-40513D01*
X44020Y-40386D01*
X44020Y-42808D01*
X43986Y-42798D01*
X43901Y-42882D01*
X43901Y-42713D01*
X43873Y-42621D01*
X43669Y-42553D01*
X43455Y-42568D01*
X43326Y-42621D01*
X43298Y-42713D01*
X43600Y-43015D01*
X43901Y-42713D01*
X43901Y-42882D01*
X43684Y-43100D01*
X43986Y-43401D01*
X44078Y-43373D01*
X44146Y-43169D01*
X44146Y-44470D01*
X44092Y-44475D01*
X44071Y-44484D01*
X44071Y-44176D01*
X44053Y-44132D01*
X44020Y-44098D01*
X43975Y-44080D01*
X43928Y-44079D01*
X43901Y-44079D01*
X43901Y-43486D01*
X43600Y-43184D01*
X43515Y-43269D01*
X43515Y-43100D01*
X43213Y-42798D01*
X43121Y-42826D01*
X43053Y-43030D01*
X43068Y-43244D01*
X43121Y-43373D01*
X43213Y-43401D01*
X43515Y-43100D01*
X43515Y-43269D01*
X43298Y-43486D01*
X43326Y-43578D01*
X43530Y-43646D01*
X43744Y-43631D01*
X43873Y-43578D01*
X43901Y-43486D01*
X43901Y-44079D01*
X43140Y-44079D01*
X43096Y-44098D01*
X43062Y-44131D01*
X43044Y-44176D01*
X43044Y-44223D01*
X43044Y-44265D01*
X43020Y-44301D01*
X43020Y-43016D01*
X42956Y-42862D01*
X42838Y-42744D01*
X42683Y-42680D01*
X42516Y-42679D01*
X42362Y-42743D01*
X42244Y-42861D01*
X42180Y-43016D01*
X42179Y-43183D01*
X42243Y-43337D01*
X42361Y-43455D01*
X42516Y-43519D01*
X42683Y-43520D01*
X42837Y-43456D01*
X42955Y-43338D01*
X43019Y-43183D01*
X43020Y-43016D01*
X43020Y-44301D01*
X42999Y-44332D01*
X42975Y-44453D01*
X42975Y-44746D01*
X42998Y-44860D01*
X42110Y-44860D01*
X42110Y-40216D01*
X42061Y-40098D01*
X41971Y-40008D01*
X41853Y-39960D01*
X41726Y-39959D01*
X41608Y-40008D01*
X41518Y-40098D01*
X41470Y-40216D01*
X41469Y-40343D01*
X41518Y-40461D01*
X41608Y-40551D01*
X41726Y-40599D01*
X41853Y-40600D01*
X41971Y-40551D01*
X42061Y-40461D01*
X42109Y-40343D01*
X42110Y-40216D01*
X42110Y-44860D01*
X41145Y-44860D01*
X41145Y-38931D01*
X41092Y-38804D01*
X40995Y-38707D01*
X40868Y-38655D01*
X40731Y-38654D01*
X40604Y-38707D01*
X40507Y-38804D01*
X40455Y-38931D01*
X40454Y-39068D01*
X40507Y-39195D01*
X40604Y-39292D01*
X40731Y-39344D01*
X40868Y-39345D01*
X40995Y-39292D01*
X41092Y-39195D01*
X41144Y-39068D01*
X41145Y-38931D01*
X41145Y-44860D01*
X40220Y-44860D01*
X40220Y-42936D01*
X40171Y-42818D01*
X40081Y-42728D01*
X39963Y-42680D01*
X39836Y-42679D01*
X39718Y-42728D01*
X39628Y-42818D01*
X39580Y-42936D01*
X39579Y-43063D01*
X39628Y-43181D01*
X39718Y-43271D01*
X39836Y-43319D01*
X39963Y-43320D01*
X40081Y-43271D01*
X40171Y-43181D01*
X40219Y-43063D01*
X40220Y-42936D01*
X40220Y-44860D01*
X40146Y-44860D01*
X40135Y-44848D01*
X39982Y-44785D01*
X39817Y-44784D01*
X39665Y-44847D01*
X39653Y-44860D01*
X38779Y-44860D01*
X38779Y-35388D01*
X38779Y-33814D01*
X38703Y-33632D01*
X38564Y-33493D01*
X38382Y-33418D01*
X38185Y-33417D01*
X38003Y-33493D01*
X37864Y-33632D01*
X37789Y-33814D01*
X37788Y-34011D01*
X37864Y-34193D01*
X38003Y-34332D01*
X38185Y-34407D01*
X38382Y-34408D01*
X38564Y-34332D01*
X38703Y-34193D01*
X38778Y-34011D01*
X38779Y-33814D01*
X38779Y-35388D01*
X38703Y-35206D01*
X38564Y-35067D01*
X38382Y-34992D01*
X38185Y-34991D01*
X38003Y-35067D01*
X37864Y-35206D01*
X37789Y-35388D01*
X37788Y-35585D01*
X37864Y-35767D01*
X38003Y-35906D01*
X38185Y-35981D01*
X38382Y-35982D01*
X38564Y-35906D01*
X38703Y-35767D01*
X38778Y-35585D01*
X38779Y-35388D01*
X38779Y-44860D01*
X38627Y-44860D01*
X38627Y-38891D01*
X38627Y-38261D01*
X38608Y-38217D01*
X38575Y-38183D01*
X38531Y-38165D01*
X38483Y-38165D01*
X37853Y-38165D01*
X37809Y-38183D01*
X37775Y-38216D01*
X37757Y-38261D01*
X37757Y-38308D01*
X37757Y-38938D01*
X37775Y-38982D01*
X37809Y-39016D01*
X37853Y-39034D01*
X37900Y-39034D01*
X38530Y-39034D01*
X38574Y-39016D01*
X38608Y-38983D01*
X38627Y-38938D01*
X38627Y-38891D01*
X38627Y-44860D01*
X38565Y-44860D01*
X38565Y-44217D01*
X38502Y-44065D01*
X38385Y-43948D01*
X38232Y-43885D01*
X38067Y-43884D01*
X37915Y-43947D01*
X37798Y-44064D01*
X37735Y-44217D01*
X37734Y-44382D01*
X37797Y-44534D01*
X37914Y-44651D01*
X38067Y-44714D01*
X38232Y-44715D01*
X38384Y-44652D01*
X38501Y-44535D01*
X38564Y-44382D01*
X38565Y-44217D01*
X38565Y-44860D01*
X37260Y-44860D01*
X37260Y-40784D01*
X37030Y-40227D01*
X36811Y-40007D01*
X36811Y-33814D01*
X36735Y-33632D01*
X36596Y-33493D01*
X36414Y-33418D01*
X36217Y-33417D01*
X36035Y-33493D01*
X35896Y-33632D01*
X35821Y-33814D01*
X35820Y-34011D01*
X35896Y-34193D01*
X36035Y-34332D01*
X36217Y-34407D01*
X36414Y-34408D01*
X36596Y-34332D01*
X36735Y-34193D01*
X36810Y-34011D01*
X36811Y-33814D01*
X36811Y-40007D01*
X36811Y-40007D01*
X36811Y-35838D01*
X36811Y-35088D01*
X36792Y-35044D01*
X36759Y-35010D01*
X36714Y-34992D01*
X36667Y-34991D01*
X35917Y-34991D01*
X35873Y-35010D01*
X35839Y-35043D01*
X35821Y-35088D01*
X35820Y-35135D01*
X35820Y-35885D01*
X35839Y-35929D01*
X35872Y-35963D01*
X35917Y-35981D01*
X35964Y-35982D01*
X36714Y-35982D01*
X36758Y-35963D01*
X36792Y-35930D01*
X36810Y-35885D01*
X36811Y-35838D01*
X36811Y-40007D01*
X36604Y-39800D01*
X36047Y-39568D01*
X35443Y-39568D01*
X34886Y-39798D01*
X34459Y-40224D01*
X34227Y-40782D01*
X34227Y-41385D01*
X34457Y-41942D01*
X34884Y-42369D01*
X35441Y-42601D01*
X36044Y-42601D01*
X36601Y-42371D01*
X37028Y-41945D01*
X37260Y-41387D01*
X37260Y-40784D01*
X37260Y-44860D01*
X36615Y-44860D01*
X36615Y-44317D01*
X36552Y-44165D01*
X36435Y-44048D01*
X36282Y-43985D01*
X36117Y-43984D01*
X35965Y-44047D01*
X35848Y-44164D01*
X35785Y-44317D01*
X35784Y-44482D01*
X35847Y-44634D01*
X35964Y-44751D01*
X36117Y-44814D01*
X36282Y-44815D01*
X36434Y-44752D01*
X36551Y-44635D01*
X36614Y-44482D01*
X36615Y-44317D01*
X36615Y-44860D01*
X33645Y-44860D01*
X33645Y-26931D01*
X33592Y-26804D01*
X33495Y-26707D01*
X33368Y-26655D01*
X33231Y-26654D01*
X33104Y-26707D01*
X33007Y-26804D01*
X32955Y-26931D01*
X32954Y-27068D01*
X33007Y-27195D01*
X33104Y-27292D01*
X33231Y-27344D01*
X33368Y-27345D01*
X33495Y-27292D01*
X33592Y-27195D01*
X33644Y-27068D01*
X33645Y-26931D01*
X33645Y-44860D01*
X33440Y-44860D01*
X33440Y-43288D01*
X32829Y-42271D01*
X32700Y-42183D01*
X32700Y-40166D01*
X32686Y-39930D01*
X32623Y-39778D01*
X32574Y-39760D01*
X32574Y-38446D01*
X32574Y-37737D01*
X32556Y-37693D01*
X32522Y-37659D01*
X32478Y-37641D01*
X32430Y-37641D01*
X31721Y-37641D01*
X31677Y-37659D01*
X31643Y-37693D01*
X31625Y-37737D01*
X31625Y-37785D01*
X31625Y-38493D01*
X31643Y-38537D01*
X31677Y-38571D01*
X31721Y-38590D01*
X31769Y-38590D01*
X32478Y-38590D01*
X32522Y-38571D01*
X32556Y-38538D01*
X32574Y-38494D01*
X32574Y-38446D01*
X32574Y-39760D01*
X32526Y-39742D01*
X32441Y-39827D01*
X32441Y-39658D01*
X32405Y-39561D01*
X32182Y-39483D01*
X31946Y-39498D01*
X31794Y-39561D01*
X31758Y-39658D01*
X32100Y-39999D01*
X32441Y-39658D01*
X32441Y-39827D01*
X32184Y-40084D01*
X32526Y-40425D01*
X32623Y-40390D01*
X32700Y-40166D01*
X32700Y-42183D01*
X32441Y-42006D01*
X32441Y-40510D01*
X32100Y-40169D01*
X32015Y-40253D01*
X32015Y-40084D01*
X31673Y-39742D01*
X31576Y-39778D01*
X31499Y-40001D01*
X31513Y-40237D01*
X31576Y-40390D01*
X31673Y-40425D01*
X32015Y-40084D01*
X32015Y-40253D01*
X31758Y-40510D01*
X31794Y-40607D01*
X32017Y-40684D01*
X32253Y-40670D01*
X32405Y-40607D01*
X32441Y-40510D01*
X32441Y-42006D01*
X31862Y-41610D01*
X30390Y-41610D01*
X30390Y-26090D01*
X32215Y-26090D01*
X33090Y-25318D01*
X33090Y-23290D01*
X33959Y-23290D01*
X33909Y-31640D01*
X38480Y-31640D01*
X38479Y-31743D01*
X38528Y-31861D01*
X38618Y-31951D01*
X38736Y-31999D01*
X38863Y-32000D01*
X38981Y-31951D01*
X39071Y-31861D01*
X39119Y-31743D01*
X39120Y-31640D01*
X41393Y-31640D01*
X41466Y-31669D01*
X41593Y-31670D01*
X41666Y-31640D01*
X48440Y-31640D01*
X48440Y-23040D01*
X50740Y-23040D01*
X50740Y-21090D01*
X57392Y-21090D01*
X57390Y-18490D01*
X57986Y-18490D01*
X57811Y-18562D01*
X57758Y-18674D01*
X58200Y-19115D01*
X58641Y-18674D01*
X58588Y-18562D01*
X58390Y-18490D01*
X58910Y-18490D01*
X58910Y-18986D01*
X58837Y-18811D01*
X58725Y-18758D01*
X58284Y-19200D01*
X58725Y-19641D01*
X58837Y-19588D01*
X58910Y-19390D01*
X58910Y-23040D01*
X68510Y-23040D01*
X68510Y-24814D01*
X70131Y-26690D01*
X71610Y-26690D01*
X71689Y-38191D01*
X71562Y-38243D01*
X71444Y-38361D01*
X71380Y-38516D01*
X71379Y-38683D01*
X71443Y-38837D01*
X71561Y-38955D01*
X71694Y-39011D01*
X71709Y-41210D01*
G54D10*
G36*
X48110Y-31410D02*
X41849Y-31410D01*
X41850Y-31286D01*
X41820Y-31214D01*
X41820Y-24536D01*
X41771Y-24418D01*
X41681Y-24328D01*
X41563Y-24280D01*
X41436Y-24279D01*
X41318Y-24328D01*
X41228Y-24418D01*
X41180Y-24536D01*
X41179Y-24663D01*
X41228Y-24781D01*
X41318Y-24871D01*
X41436Y-24919D01*
X41563Y-24920D01*
X41681Y-24871D01*
X41771Y-24781D01*
X41819Y-24663D01*
X41820Y-24536D01*
X41820Y-31214D01*
X41801Y-31168D01*
X41711Y-31078D01*
X41593Y-31030D01*
X41466Y-31029D01*
X41348Y-31078D01*
X41258Y-31168D01*
X41210Y-31286D01*
X41209Y-31410D01*
X40300Y-31410D01*
X40300Y-24852D01*
X40371Y-24781D01*
X40419Y-24663D01*
X40420Y-24536D01*
X40371Y-24418D01*
X40281Y-24328D01*
X40240Y-24311D01*
X40240Y-18240D01*
X42210Y-18240D01*
X42210Y-20966D01*
X43360Y-22116D01*
X43360Y-26990D01*
X48110Y-26990D01*
X48110Y-31410D01*
X48110Y-31410D01*
G37*
G54D36*
X48110Y-31410D02*
X41849Y-31410D01*
X41850Y-31286D01*
X41820Y-31214D01*
X41820Y-24536D01*
X41771Y-24418D01*
X41681Y-24328D01*
X41563Y-24280D01*
X41436Y-24279D01*
X41318Y-24328D01*
X41228Y-24418D01*
X41180Y-24536D01*
X41179Y-24663D01*
X41228Y-24781D01*
X41318Y-24871D01*
X41436Y-24919D01*
X41563Y-24920D01*
X41681Y-24871D01*
X41771Y-24781D01*
X41819Y-24663D01*
X41820Y-24536D01*
X41820Y-31214D01*
X41801Y-31168D01*
X41711Y-31078D01*
X41593Y-31030D01*
X41466Y-31029D01*
X41348Y-31078D01*
X41258Y-31168D01*
X41210Y-31286D01*
X41209Y-31410D01*
X40300Y-31410D01*
X40300Y-24852D01*
X40371Y-24781D01*
X40419Y-24663D01*
X40420Y-24536D01*
X40371Y-24418D01*
X40281Y-24328D01*
X40240Y-24311D01*
X40240Y-18240D01*
X42210Y-18240D01*
X42210Y-20966D01*
X43360Y-22116D01*
X43360Y-26990D01*
X48110Y-26990D01*
X48110Y-31410D01*
G54D10*
G36*
X37760Y-20183D02*
X36460Y-21533D01*
X36460Y-24710D01*
X34490Y-24710D01*
X34490Y-18290D01*
X37760Y-18290D01*
X37760Y-20183D01*
X37760Y-20183D01*
G37*
G54D36*
X37760Y-20183D02*
X36460Y-21533D01*
X36460Y-24710D01*
X34490Y-24710D01*
X34490Y-18290D01*
X37760Y-18290D01*
X37760Y-20183D01*
G54D10*
G36*
X39910Y-24337D02*
X39828Y-24418D01*
X39780Y-24536D01*
X39779Y-24663D01*
X39828Y-24781D01*
X39900Y-24852D01*
X39900Y-31360D01*
X38800Y-31360D01*
X38736Y-31359D01*
X38736Y-31360D01*
X34290Y-31360D01*
X34290Y-27166D01*
X34457Y-27572D01*
X34884Y-27999D01*
X35441Y-28231D01*
X36044Y-28231D01*
X36601Y-28001D01*
X37028Y-27575D01*
X37260Y-27017D01*
X37260Y-26414D01*
X37030Y-25857D01*
X36604Y-25430D01*
X36047Y-25198D01*
X35443Y-25198D01*
X34886Y-25428D01*
X34459Y-25854D01*
X34290Y-26262D01*
X34290Y-25040D01*
X36790Y-25040D01*
X36790Y-21767D01*
X38290Y-20367D01*
X38290Y-18240D01*
X39910Y-18240D01*
X39910Y-24337D01*
X39910Y-24337D01*
G37*
G54D36*
X39910Y-24337D02*
X39828Y-24418D01*
X39780Y-24536D01*
X39779Y-24663D01*
X39828Y-24781D01*
X39900Y-24852D01*
X39900Y-31360D01*
X38800Y-31360D01*
X38736Y-31359D01*
X38736Y-31360D01*
X34290Y-31360D01*
X34290Y-27166D01*
X34457Y-27572D01*
X34884Y-27999D01*
X35441Y-28231D01*
X36044Y-28231D01*
X36601Y-28001D01*
X37028Y-27575D01*
X37260Y-27017D01*
X37260Y-26414D01*
X37030Y-25857D01*
X36604Y-25430D01*
X36047Y-25198D01*
X35443Y-25198D01*
X34886Y-25428D01*
X34459Y-25854D01*
X34290Y-26262D01*
X34290Y-25040D01*
X36790Y-25040D01*
X36790Y-21767D01*
X38290Y-20367D01*
X38290Y-18240D01*
X39910Y-18240D01*
X39910Y-24337D01*
G54D10*
G36*
X48160Y-26560D02*
X46120Y-26560D01*
X46120Y-24536D01*
X46120Y-23536D01*
X46071Y-23418D01*
X45981Y-23328D01*
X45863Y-23280D01*
X45736Y-23279D01*
X45618Y-23328D01*
X45528Y-23418D01*
X45480Y-23536D01*
X45479Y-23663D01*
X45528Y-23781D01*
X45618Y-23871D01*
X45736Y-23919D01*
X45863Y-23920D01*
X45981Y-23871D01*
X46071Y-23781D01*
X46119Y-23663D01*
X46120Y-23536D01*
X46120Y-24536D01*
X46071Y-24418D01*
X45981Y-24328D01*
X45863Y-24280D01*
X45736Y-24279D01*
X45618Y-24328D01*
X45528Y-24418D01*
X45480Y-24536D01*
X45479Y-24663D01*
X45528Y-24781D01*
X45618Y-24871D01*
X45736Y-24919D01*
X45863Y-24920D01*
X45981Y-24871D01*
X46071Y-24781D01*
X46119Y-24663D01*
X46120Y-24536D01*
X46120Y-26560D01*
X46070Y-26560D01*
X46070Y-25886D01*
X46021Y-25768D01*
X45931Y-25678D01*
X45813Y-25630D01*
X45686Y-25629D01*
X45568Y-25678D01*
X45478Y-25768D01*
X45430Y-25886D01*
X45429Y-26013D01*
X45478Y-26131D01*
X45568Y-26221D01*
X45686Y-26269D01*
X45813Y-26270D01*
X45931Y-26221D01*
X46021Y-26131D01*
X46069Y-26013D01*
X46070Y-25886D01*
X46070Y-26560D01*
X45320Y-26560D01*
X45320Y-24536D01*
X45271Y-24418D01*
X45181Y-24328D01*
X45063Y-24280D01*
X44936Y-24279D01*
X44818Y-24328D01*
X44728Y-24418D01*
X44680Y-24536D01*
X44679Y-24663D01*
X44728Y-24781D01*
X44818Y-24871D01*
X44936Y-24919D01*
X45063Y-24920D01*
X45181Y-24871D01*
X45271Y-24781D01*
X45319Y-24663D01*
X45320Y-24536D01*
X45320Y-26560D01*
X44320Y-26560D01*
X44320Y-24536D01*
X44271Y-24418D01*
X44181Y-24328D01*
X44063Y-24280D01*
X43936Y-24279D01*
X43818Y-24328D01*
X43728Y-24418D01*
X43680Y-24536D01*
X43679Y-24663D01*
X43728Y-24781D01*
X43818Y-24871D01*
X43936Y-24919D01*
X44063Y-24920D01*
X44181Y-24871D01*
X44271Y-24781D01*
X44319Y-24663D01*
X44320Y-24536D01*
X44320Y-26560D01*
X43590Y-26560D01*
X43590Y-21783D01*
X42540Y-20683D01*
X42540Y-18290D01*
X45710Y-18290D01*
X45710Y-23040D01*
X48160Y-23040D01*
X48160Y-26560D01*
X48160Y-26560D01*
G37*
G54D36*
X48160Y-26560D02*
X46120Y-26560D01*
X46120Y-24536D01*
X46120Y-23536D01*
X46071Y-23418D01*
X45981Y-23328D01*
X45863Y-23280D01*
X45736Y-23279D01*
X45618Y-23328D01*
X45528Y-23418D01*
X45480Y-23536D01*
X45479Y-23663D01*
X45528Y-23781D01*
X45618Y-23871D01*
X45736Y-23919D01*
X45863Y-23920D01*
X45981Y-23871D01*
X46071Y-23781D01*
X46119Y-23663D01*
X46120Y-23536D01*
X46120Y-24536D01*
X46071Y-24418D01*
X45981Y-24328D01*
X45863Y-24280D01*
X45736Y-24279D01*
X45618Y-24328D01*
X45528Y-24418D01*
X45480Y-24536D01*
X45479Y-24663D01*
X45528Y-24781D01*
X45618Y-24871D01*
X45736Y-24919D01*
X45863Y-24920D01*
X45981Y-24871D01*
X46071Y-24781D01*
X46119Y-24663D01*
X46120Y-24536D01*
X46120Y-26560D01*
X46070Y-26560D01*
X46070Y-25886D01*
X46021Y-25768D01*
X45931Y-25678D01*
X45813Y-25630D01*
X45686Y-25629D01*
X45568Y-25678D01*
X45478Y-25768D01*
X45430Y-25886D01*
X45429Y-26013D01*
X45478Y-26131D01*
X45568Y-26221D01*
X45686Y-26269D01*
X45813Y-26270D01*
X45931Y-26221D01*
X46021Y-26131D01*
X46069Y-26013D01*
X46070Y-25886D01*
X46070Y-26560D01*
X45320Y-26560D01*
X45320Y-24536D01*
X45271Y-24418D01*
X45181Y-24328D01*
X45063Y-24280D01*
X44936Y-24279D01*
X44818Y-24328D01*
X44728Y-24418D01*
X44680Y-24536D01*
X44679Y-24663D01*
X44728Y-24781D01*
X44818Y-24871D01*
X44936Y-24919D01*
X45063Y-24920D01*
X45181Y-24871D01*
X45271Y-24781D01*
X45319Y-24663D01*
X45320Y-24536D01*
X45320Y-26560D01*
X44320Y-26560D01*
X44320Y-24536D01*
X44271Y-24418D01*
X44181Y-24328D01*
X44063Y-24280D01*
X43936Y-24279D01*
X43818Y-24328D01*
X43728Y-24418D01*
X43680Y-24536D01*
X43679Y-24663D01*
X43728Y-24781D01*
X43818Y-24871D01*
X43936Y-24919D01*
X44063Y-24920D01*
X44181Y-24871D01*
X44271Y-24781D01*
X44319Y-24663D01*
X44320Y-24536D01*
X44320Y-26560D01*
X43590Y-26560D01*
X43590Y-21783D01*
X42540Y-20683D01*
X42540Y-18290D01*
X45710Y-18290D01*
X45710Y-23040D01*
X48160Y-23040D01*
X48160Y-26560D01*
M02*
