M48
;DRILL file {Pcbnew (2013-07-07 BZR 4022)-stable} date 4/21/2018 10:45:40 AM
;FORMAT={-:-/ absolute / inch / decimal}
FMAT,2
INCH,TZ
T1C0.008
T2C0.013
T3C0.025
T4C0.026
T5C0.028
T6C0.031
T7C0.032
T8C0.035
T9C0.040
T10C0.051
T11C0.060
%
G90
G05
M72
T1
X4.05Y-3.33
X4.05Y-3.47
X4.05Y-3.59
X4.154Y-3.532
X4.16Y-3.39
X4.25Y-3.47
X4.25Y-3.66
X4.26Y-3.87
X4.32Y-3.39
X4.32Y-3.53
X4.42Y-3.33
X4.42Y-3.52
X4.493Y-3.425
X6.115Y-3.409
X6.138Y-3.317
X6.18Y-3.245
X6.281Y-3.278
X6.281Y-3.407
T2
X4.4188Y-4.4797
X4.4444Y-4.4293
X4.47Y-4.4797
X4.4956Y-4.4293
X4.5212Y-4.4797
T3
X3.1Y-3.52
X3.23Y-3.36
X3.245Y-3.572
X3.33Y-2.7
X3.342Y-3.206
X3.343Y-2.437
X3.346Y-2.342
X3.44Y-3.915
X3.46Y-2.29
X3.46Y-2.86
X3.48Y-2.1
X3.54Y-2.18
X3.54Y-2.32
X3.54Y-2.44
X3.585Y-3.915
X3.62Y-2.1
X3.62Y-4.44
X3.69Y-4.295
X3.69Y-4.355
X3.74Y-2.16
X3.77Y-2.66
X3.815Y-4.43
X3.82Y-2.16
X3.82Y-2.86
X3.88Y-3.168
X3.9Y-2.16
X3.9Y-2.24
X3.9Y-2.32
X3.9Y-2.4
X3.9Y-2.52
X3.9Y-2.6
X3.9Y-2.68
X3.99Y-4.3
X3.99Y-4.52
X4.01Y-2.46
X4.055Y-3.207
X4.06Y-2.16
X4.08Y-3.9
X4.1Y-2.82
X4.1Y-3.1
X4.14Y-2.16
X4.15Y-2.46
X4.153Y-3.135
X4.176Y-4.174
X4.179Y-4.028
X4.18Y-4.24
X4.22Y-2.16
X4.225Y-4.045
X4.24Y-2.24
X4.24Y-2.32
X4.24Y-2.4
X4.24Y-2.52
X4.24Y-2.6
X4.24Y-2.68
X4.37Y-4.045
X4.4Y-2.16
X4.4Y-2.46
X4.4Y-3.76
X4.41Y-3.66
X4.46Y-2.78
X4.46Y-3.1
X4.48Y-2.16
X4.5Y-2.46
X4.52Y-3.655
X4.539Y-3.428
X4.56Y-2.16
X4.568Y-4.003
X4.575Y-2.595
X4.58Y-2.36
X4.58Y-2.46
X4.646Y-4.246
X4.647Y-4.169
X4.68Y-3.445
X4.72Y-4.14
X4.73Y-2.43
X4.74Y-2.76
X4.77Y-3.89
X4.77Y-4.14
X4.83Y-4.14
X4.847Y-3.3
X4.85Y-3.04
X4.86Y-3.61
X4.86Y-3.68
X4.863Y-3.903
X4.87Y-3.22
X4.88Y-3.43
X4.89Y-4.13
X4.9075Y-3.8575
X4.945Y-2.355
X4.95Y-3.1
X4.97Y-4.13
X5.Y-3.39
X5.01Y-3.22
X5.01Y-3.62
X5.022Y-2.655
X5.023Y-2.705
X5.04Y-3.02
X5.048Y-3.892
X5.1Y-3.28
X5.11Y-2.84
X5.12Y-3.766
X5.125Y-2.22
X5.209Y-3.1
X5.2275Y-2.91
X5.23Y-2.06
X5.307Y-3.098
X5.41Y-3.55
X5.41Y-3.66
X5.43Y-2.225
X5.435Y-2.06
X5.507Y-3.318
X5.53Y-2.39
X5.534Y-3.152
X5.58Y-2.967
X5.582Y-3.267
X5.599Y-3.45
X5.601Y-3.642
X5.65Y-3.9
X5.653Y-3.512
X5.66Y-2.25
X5.688Y-2.911
X5.697Y-2.98
X5.783Y-2.705
X5.826Y-2.426
X5.829Y-3.523
X5.871Y-2.975
X5.872Y-2.849
X5.875Y-2.42
X5.881Y-3.523
X5.9Y-3.683
X5.901Y-3.748
X6.Y-3.9
X6.047Y-2.848
X6.067Y-3.833
X6.082Y-3.532
X6.087Y-3.476
X6.105Y-2.59
X6.105Y-2.68
X6.151Y-3.823
X6.155Y-2.345
X6.178Y-2.66
X6.225Y-4.06
X6.23Y-3.61
X6.26Y-3.99
X6.265Y-2.22
X6.268Y-3.178
X6.279Y-2.804
X6.313Y-3.025
X6.34Y-2.44
X6.343Y-4.022
X6.36Y-2.807
X6.38Y-3.017
X6.39Y-3.71
X6.42Y-2.385
X6.51Y-2.22
X6.52Y-3.78
X6.53Y-3.03
X6.635Y-2.305
X6.65Y-2.4
X6.87Y-3.96
T4
X3.7208Y-3.86
X3.8192Y-3.86
T6
X3.21Y-3.8116
X3.21Y-4.0084
T7
X3.6316Y-3.3913
X3.6316Y-3.5487
X3.8284Y-3.3913
X3.8284Y-3.5487
X4.76Y-4.39
X4.86Y-4.39
X4.96Y-4.39
X6.98Y-2.96
X6.98Y-3.06
X6.98Y-3.16
X6.98Y-3.26
X6.98Y-3.36
X6.98Y-3.46
X6.98Y-3.56
X6.98Y-3.66
X7.08Y-2.96
X7.08Y-3.06
X7.08Y-3.16
X7.08Y-3.26
X7.08Y-3.36
X7.08Y-3.46
X7.08Y-3.56
X7.08Y-3.66
X7.28Y-2.96
X7.28Y-3.06
X7.28Y-3.16
X7.28Y-3.26
X7.28Y-3.36
X7.28Y-3.46
X7.28Y-3.56
X7.28Y-3.66
T8
X5.1793Y-4.1201
X5.2293Y-4.0201
X5.2793Y-4.1201
X5.3293Y-4.0201
X5.3793Y-4.1201
X5.4293Y-4.0201
X5.4793Y-4.1201
X5.5293Y-4.0201
X5.8093Y-4.1201
X5.8593Y-4.0201
X5.9093Y-4.1201
X5.9593Y-4.0201
X6.0093Y-4.1201
X6.0593Y-4.0201
X6.1093Y-4.1201
X6.1593Y-4.0201
T9
X4.26Y-4.31
X4.36Y-4.31
X4.46Y-4.31
X4.56Y-4.31
X4.66Y-4.31
X5.21Y-3.31
X5.21Y-3.51
X5.21Y-3.61
X5.21Y-3.71
X5.31Y-3.31
X5.31Y-3.51
X5.31Y-3.61
X5.31Y-3.71
X7.08Y-3.86
X7.08Y-3.86
X7.08Y-3.96
X7.18Y-3.86
T10
X3.5179Y-1.93
X3.5831Y-4.84
X3.7147Y-1.93
X3.78Y-4.84
X3.9116Y-1.93
X3.9769Y-4.84
X4.1084Y-1.93
X4.3053Y-1.93
X4.5021Y-1.93
X5.0326Y-1.92
X5.2294Y-1.92
X5.4263Y-1.92
X5.6231Y-1.92
X5.82Y-1.92
X6.0169Y-1.92
X6.2137Y-1.92
X6.4106Y-1.92
X6.6074Y-1.92
T11
X6.4248Y-4.4094
X6.5748Y-4.4094
X6.7248Y-4.4094
T4
X4.3293Y-4.4669G85X4.3293Y-4.4531
G05
X4.3745Y-4.4409G85X4.3745Y-4.4566
G05
X4.5655Y-4.4409G85X4.5655Y-4.4566
G05
X4.6107Y-4.4669G85X4.6107Y-4.4531
G05
T5
X4.3086Y-4.5582G85X4.3086Y-4.5818
G05
X4.6314Y-4.5582G85X4.6314Y-4.5818
G05
T0
M30
