G04 (created by PCBNEW (2013-07-07 BZR 4022)-stable) date 2/4/2017 6:27:51 AM*
%MOIN*%
G04 Gerber Fmt 3.4, Leading zero omitted, Abs format*
%FSLAX34Y34*%
G01*
G70*
G90*
G04 APERTURE LIST*
%ADD10C,0.00590551*%
%ADD11C,0.01*%
%ADD12O,0.0708661X0.0433071*%
%ADD13O,0.0866142X0.0433071*%
%ADD14R,0.06X0.06*%
%ADD15C,0.06*%
%ADD16C,0.1437*%
%ADD17R,0.0591X0.0591*%
%ADD18C,0.0591*%
%ADD19C,0.011811*%
%ADD20C,0.125*%
%ADD21R,0.0629921X0.0629921*%
%ADD22C,0.0629921*%
%ADD23C,0.0984252*%
%ADD24R,0.0708661X0.0708661*%
%ADD25C,0.0708661*%
%ADD26C,0.045*%
%ADD27C,0.066*%
%ADD28R,0.1X0.1*%
%ADD29C,0.1*%
%ADD30C,0.075*%
%ADD31R,0.075X0.075*%
%ADD32O,0.0393701X0.0669291*%
%ADD33C,0.0177165*%
%ADD34R,0.0649606X0.0649606*%
%ADD35C,0.0649606*%
%ADD36C,0.04*%
%ADD37C,0.008*%
G04 APERTURE END LIST*
G54D10*
G54D11*
X35085Y-38350D02*
X35104Y-38330D01*
X35142Y-38311D01*
X35238Y-38311D01*
X35276Y-38330D01*
X35295Y-38350D01*
X35314Y-38388D01*
X35314Y-38426D01*
X35295Y-38483D01*
X35066Y-38711D01*
X35314Y-38711D01*
G54D12*
X47297Y-21100D03*
X49502Y-21100D03*
G54D13*
X48400Y-20253D03*
G54D14*
X47150Y-22550D03*
G54D15*
X48150Y-22550D03*
X49150Y-22550D03*
X50150Y-22550D03*
X51150Y-22550D03*
G54D16*
X33600Y-24162D03*
X33600Y-28835D03*
G54D17*
X36100Y-28250D03*
G54D18*
X37100Y-27750D03*
X36100Y-27250D03*
X37100Y-26750D03*
X36100Y-26250D03*
X37100Y-25750D03*
X36100Y-25250D03*
X37100Y-24750D03*
G54D16*
X33600Y-30462D03*
X33600Y-35135D03*
G54D17*
X36100Y-34550D03*
G54D18*
X37100Y-34050D03*
X36100Y-33550D03*
X37100Y-33050D03*
X36100Y-32550D03*
X37100Y-32050D03*
X36100Y-31550D03*
X37100Y-31050D03*
G54D14*
X40000Y-28100D03*
G54D15*
X41000Y-28100D03*
X40000Y-27100D03*
X41000Y-27100D03*
X40000Y-26100D03*
X41000Y-26100D03*
G54D19*
X41950Y-34150D03*
X43350Y-33500D03*
X43150Y-32900D03*
X41500Y-33500D03*
X41750Y-32900D03*
X42440Y-32870D03*
G54D20*
X69291Y-21259D03*
X33070Y-37795D03*
G54D21*
X54600Y-38192D03*
G54D22*
X54600Y-37207D03*
G54D23*
X69200Y-34721D03*
X69200Y-32752D03*
X69200Y-30784D03*
X69200Y-28815D03*
X69200Y-24878D03*
X69200Y-26847D03*
G54D19*
X42900Y-34150D03*
X59200Y-34500D03*
X61300Y-35250D03*
X58350Y-33550D03*
X60150Y-34200D03*
X58350Y-34250D03*
X59200Y-33950D03*
X58350Y-34800D03*
X61250Y-34200D03*
G54D24*
X56584Y-34100D03*
G54D25*
X54615Y-34100D03*
G54D19*
X47800Y-36900D03*
X49200Y-38400D03*
X49200Y-36900D03*
X47800Y-38100D03*
X48630Y-37630D03*
G54D26*
X56700Y-38200D03*
G54D15*
X39500Y-36500D03*
X40500Y-36500D03*
X41500Y-36500D03*
X42500Y-36500D03*
X43500Y-36500D03*
X44500Y-36500D03*
X45500Y-36500D03*
G54D14*
X46500Y-36500D03*
X46500Y-38500D03*
G54D15*
X45500Y-38500D03*
X44500Y-38500D03*
X43500Y-38500D03*
X42500Y-38500D03*
X41500Y-38500D03*
X40500Y-38500D03*
X39500Y-38500D03*
X39500Y-35500D03*
X40500Y-35500D03*
X41500Y-35500D03*
X42500Y-35500D03*
X43500Y-35500D03*
X44500Y-35500D03*
X45500Y-35500D03*
X46500Y-35500D03*
G54D14*
X38400Y-32400D03*
G54D15*
X39400Y-32400D03*
G54D27*
X37400Y-37200D03*
X36400Y-37200D03*
X35400Y-37200D03*
G54D23*
X42752Y-21300D03*
X40784Y-21300D03*
X36847Y-21300D03*
X38815Y-21300D03*
G54D28*
X35000Y-28300D03*
G54D29*
X35000Y-26800D03*
X35000Y-25300D03*
G54D23*
X60837Y-21400D03*
X58868Y-21400D03*
X56900Y-21400D03*
X52962Y-21400D03*
X54931Y-21400D03*
G54D14*
X38800Y-29800D03*
G54D15*
X38800Y-30800D03*
G54D30*
X58113Y-38184D03*
X59687Y-38184D03*
G54D31*
X59687Y-36216D03*
G54D30*
X58113Y-36216D03*
G54D32*
X46992Y-21100D03*
X49807Y-21100D03*
G54D33*
X48144Y-20792D03*
X48400Y-21296D03*
X48655Y-20792D03*
X48911Y-21296D03*
X47888Y-21296D03*
G54D34*
X51800Y-32400D03*
G54D35*
X51800Y-33400D03*
G54D34*
X48100Y-32400D03*
G54D35*
X48100Y-33400D03*
G54D36*
X50950Y-27100D03*
X44050Y-25100D03*
X40360Y-25160D03*
X51700Y-27650D03*
X45300Y-26590D03*
X47300Y-31800D03*
X51700Y-35500D03*
X51700Y-34900D03*
X35200Y-33900D03*
X48820Y-30360D03*
X44320Y-23120D03*
X39000Y-33400D03*
X32500Y-33100D03*
X40425Y-30025D03*
X49900Y-34400D03*
X43560Y-29980D03*
X50000Y-32000D03*
X58400Y-25600D03*
X58400Y-28400D03*
X60400Y-28400D03*
X60400Y-24800D03*
X62200Y-22800D03*
X63600Y-21200D03*
X63800Y-23400D03*
X64800Y-24600D03*
X64800Y-25600D03*
X63400Y-27200D03*
X64400Y-27200D03*
X65400Y-27200D03*
X66400Y-27200D03*
X44180Y-29550D03*
X50350Y-31050D03*
X64400Y-36600D03*
X65600Y-37800D03*
X65600Y-35600D03*
X64800Y-33600D03*
X63600Y-33600D03*
X62200Y-33600D03*
X60800Y-32400D03*
X59000Y-32400D03*
X59000Y-30600D03*
X60800Y-30600D03*
X62200Y-31400D03*
X63200Y-31400D03*
X64200Y-31400D03*
X65200Y-31400D03*
X66000Y-31400D03*
X66800Y-31400D03*
X67600Y-31400D03*
X43610Y-29370D03*
X43340Y-30830D03*
X42790Y-30770D03*
X45300Y-28000D03*
X65300Y-30180D03*
X51820Y-29420D03*
X45920Y-29240D03*
X54110Y-24150D03*
X46700Y-27800D03*
X41990Y-30210D03*
X55150Y-28130D03*
X67850Y-30320D03*
X56480Y-27400D03*
X64820Y-30320D03*
X56080Y-29680D03*
X38740Y-28380D03*
X38800Y-38200D03*
X42430Y-29210D03*
X38500Y-36200D03*
X39500Y-25340D03*
X38800Y-24400D03*
X39440Y-31468D03*
X48060Y-28610D03*
X42600Y-27540D03*
X54520Y-27960D03*
X51200Y-20900D03*
X50500Y-20900D03*
X48680Y-27050D03*
X67200Y-21200D03*
X67200Y-23200D03*
X69000Y-23400D03*
X68200Y-36000D03*
X63520Y-35460D03*
X63540Y-38160D03*
X63560Y-36880D03*
X54150Y-26730D03*
X65200Y-28950D03*
X43700Y-23150D03*
X40410Y-24480D03*
X37580Y-24100D03*
X43430Y-27030D03*
X34700Y-24100D03*
X38100Y-25900D03*
X38700Y-27000D03*
X51370Y-28130D03*
X46050Y-27050D03*
X51700Y-30000D03*
X50470Y-24830D03*
X52450Y-25400D03*
X51400Y-37400D03*
X54835Y-24235D03*
X46410Y-24000D03*
X46430Y-23350D03*
X52550Y-26250D03*
X35220Y-35490D03*
X36700Y-35600D03*
X48140Y-30120D03*
X49290Y-28270D03*
X51710Y-25440D03*
X48290Y-25720D03*
X34200Y-25700D03*
X35140Y-31550D03*
X62040Y-35580D03*
X61960Y-38160D03*
X61920Y-36880D03*
X43880Y-26060D03*
X44840Y-21800D03*
X46100Y-21600D03*
X46100Y-20300D03*
X46200Y-21000D03*
X50000Y-32500D03*
X32600Y-32500D03*
X47460Y-30060D03*
X47400Y-30900D03*
X45700Y-30520D03*
X40425Y-30525D03*
X49590Y-30365D03*
X55850Y-32250D03*
X55700Y-31280D03*
X33760Y-33300D03*
X40420Y-31880D03*
X33780Y-32060D03*
X40440Y-31100D03*
X39300Y-24400D03*
X34800Y-22300D03*
X37950Y-26950D03*
X41670Y-21880D03*
X45350Y-23850D03*
X45640Y-25070D03*
X49100Y-26110D03*
X44960Y-23100D03*
X41600Y-22500D03*
X51610Y-26250D03*
X48790Y-24820D03*
X55480Y-26010D03*
X53250Y-33700D03*
X53750Y-33700D03*
X38300Y-37600D03*
X43740Y-23840D03*
X53200Y-29450D03*
X53200Y-30000D03*
G54D11*
X35000Y-25280D02*
X35240Y-25280D01*
X36620Y-27270D02*
X37100Y-27750D01*
X36620Y-25960D02*
X36620Y-27270D01*
X36400Y-25740D02*
X36620Y-25960D01*
X35700Y-25740D02*
X36400Y-25740D01*
X35240Y-25280D02*
X35700Y-25740D01*
X46500Y-38500D02*
X46500Y-36500D01*
X45500Y-36500D02*
X45500Y-38500D01*
X44500Y-38500D02*
X44500Y-36500D01*
X43500Y-36500D02*
X43500Y-38500D01*
X42500Y-38500D02*
X42500Y-36500D01*
X41500Y-36500D02*
X41500Y-38500D01*
X40500Y-38500D02*
X40500Y-36500D01*
X39500Y-36500D02*
X39500Y-38500D01*
X56080Y-29680D02*
X64180Y-29680D01*
X64180Y-29680D02*
X64820Y-30320D01*
X40420Y-31880D02*
X38070Y-31880D01*
X34010Y-33050D02*
X33760Y-33300D01*
X36360Y-33050D02*
X34010Y-33050D01*
X36880Y-32530D02*
X36360Y-33050D01*
X37420Y-32530D02*
X36880Y-32530D01*
X38070Y-31880D02*
X37420Y-32530D01*
X38905Y-31495D02*
X36875Y-31495D01*
X36310Y-32060D02*
X33780Y-32060D01*
X36875Y-31495D02*
X36310Y-32060D01*
X40440Y-31100D02*
X39300Y-31100D01*
X39300Y-31100D02*
X38905Y-31495D01*
X38905Y-31495D02*
X38900Y-31500D01*
X34800Y-22300D02*
X37490Y-22300D01*
X37490Y-22300D02*
X39300Y-24110D01*
X39300Y-24110D02*
X39300Y-24400D01*
G54D10*
G36*
X52150Y-38700D02*
X51800Y-38700D01*
X51800Y-37320D01*
X51739Y-37173D01*
X51626Y-37061D01*
X51479Y-37000D01*
X51320Y-36999D01*
X51173Y-37060D01*
X51061Y-37173D01*
X51000Y-37320D01*
X50999Y-37479D01*
X51060Y-37626D01*
X51173Y-37738D01*
X51320Y-37799D01*
X51479Y-37800D01*
X51626Y-37739D01*
X51738Y-37626D01*
X51799Y-37479D01*
X51800Y-37320D01*
X51800Y-38700D01*
X50870Y-38700D01*
X50870Y-24750D01*
X50809Y-24603D01*
X50696Y-24491D01*
X50549Y-24430D01*
X50390Y-24429D01*
X50243Y-24490D01*
X50131Y-24603D01*
X50070Y-24750D01*
X50069Y-24909D01*
X50130Y-25056D01*
X50243Y-25168D01*
X50390Y-25229D01*
X50549Y-25230D01*
X50696Y-25169D01*
X50808Y-25056D01*
X50869Y-24909D01*
X50870Y-24750D01*
X50870Y-38700D01*
X50750Y-38700D01*
X50750Y-30970D01*
X50689Y-30823D01*
X50576Y-30711D01*
X50429Y-30650D01*
X50270Y-30649D01*
X50123Y-30710D01*
X50011Y-30823D01*
X49990Y-30873D01*
X49990Y-30285D01*
X49929Y-30138D01*
X49816Y-30026D01*
X49690Y-29973D01*
X49690Y-28190D01*
X49629Y-28043D01*
X49516Y-27931D01*
X49500Y-27924D01*
X49500Y-26030D01*
X49439Y-25883D01*
X49326Y-25771D01*
X49190Y-25714D01*
X49190Y-24740D01*
X49129Y-24593D01*
X49016Y-24481D01*
X48869Y-24420D01*
X48710Y-24419D01*
X48563Y-24480D01*
X48451Y-24593D01*
X48390Y-24740D01*
X48389Y-24899D01*
X48450Y-25046D01*
X48563Y-25158D01*
X48710Y-25219D01*
X48869Y-25220D01*
X49016Y-25159D01*
X49128Y-25046D01*
X49189Y-24899D01*
X49190Y-24740D01*
X49190Y-25714D01*
X49179Y-25710D01*
X49020Y-25709D01*
X48873Y-25770D01*
X48761Y-25883D01*
X48700Y-26030D01*
X48699Y-26189D01*
X48760Y-26336D01*
X48873Y-26448D01*
X49020Y-26509D01*
X49179Y-26510D01*
X49326Y-26449D01*
X49438Y-26336D01*
X49499Y-26189D01*
X49500Y-26030D01*
X49500Y-27924D01*
X49369Y-27870D01*
X49210Y-27869D01*
X49080Y-27923D01*
X49080Y-26970D01*
X49019Y-26823D01*
X48906Y-26711D01*
X48759Y-26650D01*
X48690Y-26650D01*
X48690Y-25640D01*
X48629Y-25493D01*
X48516Y-25381D01*
X48369Y-25320D01*
X48210Y-25319D01*
X48063Y-25380D01*
X47951Y-25493D01*
X47890Y-25640D01*
X47889Y-25799D01*
X47950Y-25946D01*
X48063Y-26058D01*
X48210Y-26119D01*
X48369Y-26120D01*
X48516Y-26059D01*
X48628Y-25946D01*
X48689Y-25799D01*
X48690Y-25640D01*
X48690Y-26650D01*
X48600Y-26649D01*
X48453Y-26710D01*
X48341Y-26823D01*
X48280Y-26970D01*
X48279Y-27129D01*
X48340Y-27276D01*
X48453Y-27388D01*
X48600Y-27449D01*
X48759Y-27450D01*
X48906Y-27389D01*
X49018Y-27276D01*
X49079Y-27129D01*
X49080Y-26970D01*
X49080Y-27923D01*
X49063Y-27930D01*
X48951Y-28043D01*
X48890Y-28190D01*
X48889Y-28349D01*
X48950Y-28496D01*
X49063Y-28608D01*
X49210Y-28669D01*
X49369Y-28670D01*
X49516Y-28609D01*
X49628Y-28496D01*
X49689Y-28349D01*
X49690Y-28190D01*
X49690Y-29973D01*
X49669Y-29965D01*
X49510Y-29964D01*
X49363Y-30025D01*
X49251Y-30138D01*
X49190Y-30285D01*
X49189Y-30444D01*
X49250Y-30591D01*
X49363Y-30703D01*
X49510Y-30764D01*
X49669Y-30765D01*
X49816Y-30704D01*
X49928Y-30591D01*
X49989Y-30444D01*
X49990Y-30285D01*
X49990Y-30873D01*
X49950Y-30970D01*
X49949Y-31129D01*
X50010Y-31276D01*
X50123Y-31388D01*
X50270Y-31449D01*
X50429Y-31450D01*
X50576Y-31389D01*
X50688Y-31276D01*
X50749Y-31129D01*
X50750Y-30970D01*
X50750Y-38700D01*
X50400Y-38700D01*
X50400Y-32420D01*
X50339Y-32273D01*
X50315Y-32250D01*
X50338Y-32226D01*
X50399Y-32079D01*
X50400Y-31920D01*
X50339Y-31773D01*
X50226Y-31661D01*
X50079Y-31600D01*
X49920Y-31599D01*
X49773Y-31660D01*
X49661Y-31773D01*
X49600Y-31920D01*
X49599Y-32079D01*
X49660Y-32226D01*
X49684Y-32249D01*
X49661Y-32273D01*
X49600Y-32420D01*
X49599Y-32579D01*
X49660Y-32726D01*
X49773Y-32838D01*
X49920Y-32899D01*
X50079Y-32900D01*
X50226Y-32839D01*
X50338Y-32726D01*
X50399Y-32579D01*
X50400Y-32420D01*
X50400Y-38700D01*
X49459Y-38700D01*
X49459Y-38348D01*
X49459Y-36848D01*
X49419Y-36753D01*
X49346Y-36680D01*
X49251Y-36640D01*
X49148Y-36640D01*
X49053Y-36680D01*
X48980Y-36753D01*
X48940Y-36848D01*
X48940Y-36951D01*
X48980Y-37046D01*
X49053Y-37119D01*
X49148Y-37159D01*
X49251Y-37159D01*
X49346Y-37119D01*
X49419Y-37046D01*
X49459Y-36951D01*
X49459Y-36848D01*
X49459Y-38348D01*
X49419Y-38253D01*
X49346Y-38180D01*
X49251Y-38140D01*
X49148Y-38140D01*
X49053Y-38180D01*
X48980Y-38253D01*
X48940Y-38348D01*
X48940Y-38451D01*
X48980Y-38546D01*
X49053Y-38619D01*
X49148Y-38659D01*
X49251Y-38659D01*
X49346Y-38619D01*
X49419Y-38546D01*
X49459Y-38451D01*
X49459Y-38348D01*
X49459Y-38700D01*
X48889Y-38700D01*
X48889Y-37578D01*
X48849Y-37483D01*
X48776Y-37410D01*
X48681Y-37370D01*
X48624Y-37370D01*
X48624Y-33296D01*
X48545Y-33103D01*
X48397Y-32955D01*
X48324Y-32924D01*
X48464Y-32924D01*
X48537Y-32894D01*
X48594Y-32838D01*
X48624Y-32764D01*
X48624Y-32685D01*
X48624Y-32035D01*
X48594Y-31962D01*
X48540Y-31907D01*
X48540Y-30040D01*
X48479Y-29893D01*
X48460Y-29874D01*
X48460Y-28530D01*
X48399Y-28383D01*
X48286Y-28271D01*
X48139Y-28210D01*
X47980Y-28209D01*
X47833Y-28270D01*
X47721Y-28383D01*
X47660Y-28530D01*
X47659Y-28689D01*
X47720Y-28836D01*
X47833Y-28948D01*
X47980Y-29009D01*
X48139Y-29010D01*
X48286Y-28949D01*
X48398Y-28836D01*
X48459Y-28689D01*
X48460Y-28530D01*
X48460Y-29874D01*
X48366Y-29781D01*
X48219Y-29720D01*
X48060Y-29719D01*
X47913Y-29780D01*
X47817Y-29877D01*
X47799Y-29833D01*
X47686Y-29721D01*
X47539Y-29660D01*
X47380Y-29659D01*
X47233Y-29720D01*
X47121Y-29833D01*
X47100Y-29883D01*
X47100Y-27720D01*
X47039Y-27573D01*
X46926Y-27461D01*
X46830Y-27420D01*
X46830Y-23270D01*
X46769Y-23123D01*
X46656Y-23011D01*
X46509Y-22950D01*
X46350Y-22949D01*
X46203Y-23010D01*
X46091Y-23123D01*
X46030Y-23270D01*
X46029Y-23429D01*
X46090Y-23576D01*
X46179Y-23665D01*
X46071Y-23773D01*
X46010Y-23920D01*
X46009Y-24079D01*
X46070Y-24226D01*
X46183Y-24338D01*
X46330Y-24399D01*
X46489Y-24400D01*
X46636Y-24339D01*
X46748Y-24226D01*
X46809Y-24079D01*
X46810Y-23920D01*
X46749Y-23773D01*
X46660Y-23684D01*
X46768Y-23576D01*
X46829Y-23429D01*
X46830Y-23270D01*
X46830Y-27420D01*
X46779Y-27400D01*
X46620Y-27399D01*
X46473Y-27460D01*
X46450Y-27484D01*
X46450Y-26970D01*
X46389Y-26823D01*
X46276Y-26711D01*
X46129Y-26650D01*
X46040Y-26649D01*
X46040Y-24990D01*
X45979Y-24843D01*
X45866Y-24731D01*
X45750Y-24682D01*
X45750Y-23770D01*
X45689Y-23623D01*
X45576Y-23511D01*
X45429Y-23450D01*
X45360Y-23450D01*
X45360Y-23020D01*
X45299Y-22873D01*
X45240Y-22814D01*
X45240Y-21720D01*
X45179Y-21573D01*
X45066Y-21461D01*
X44919Y-21400D01*
X44760Y-21399D01*
X44613Y-21460D01*
X44501Y-21573D01*
X44440Y-21720D01*
X44439Y-21879D01*
X44500Y-22026D01*
X44613Y-22138D01*
X44760Y-22199D01*
X44919Y-22200D01*
X45066Y-22139D01*
X45178Y-22026D01*
X45239Y-21879D01*
X45240Y-21720D01*
X45240Y-22814D01*
X45186Y-22761D01*
X45039Y-22700D01*
X44880Y-22699D01*
X44733Y-22760D01*
X44621Y-22873D01*
X44560Y-23020D01*
X44559Y-23179D01*
X44620Y-23326D01*
X44733Y-23438D01*
X44880Y-23499D01*
X45039Y-23500D01*
X45186Y-23439D01*
X45298Y-23326D01*
X45359Y-23179D01*
X45360Y-23020D01*
X45360Y-23450D01*
X45270Y-23449D01*
X45123Y-23510D01*
X45011Y-23623D01*
X44950Y-23770D01*
X44949Y-23929D01*
X45010Y-24076D01*
X45123Y-24188D01*
X45270Y-24249D01*
X45429Y-24250D01*
X45576Y-24189D01*
X45688Y-24076D01*
X45749Y-23929D01*
X45750Y-23770D01*
X45750Y-24682D01*
X45719Y-24670D01*
X45560Y-24669D01*
X45413Y-24730D01*
X45301Y-24843D01*
X45240Y-24990D01*
X45239Y-25149D01*
X45300Y-25296D01*
X45413Y-25408D01*
X45560Y-25469D01*
X45719Y-25470D01*
X45866Y-25409D01*
X45978Y-25296D01*
X46039Y-25149D01*
X46040Y-24990D01*
X46040Y-26649D01*
X45970Y-26649D01*
X45823Y-26710D01*
X45711Y-26823D01*
X45650Y-26970D01*
X45649Y-27129D01*
X45710Y-27276D01*
X45823Y-27388D01*
X45970Y-27449D01*
X46129Y-27450D01*
X46276Y-27389D01*
X46388Y-27276D01*
X46449Y-27129D01*
X46450Y-26970D01*
X46450Y-27484D01*
X46361Y-27573D01*
X46300Y-27720D01*
X46299Y-27879D01*
X46360Y-28026D01*
X46473Y-28138D01*
X46620Y-28199D01*
X46779Y-28200D01*
X46926Y-28139D01*
X47038Y-28026D01*
X47099Y-27879D01*
X47100Y-27720D01*
X47100Y-29883D01*
X47060Y-29980D01*
X47059Y-30139D01*
X47120Y-30286D01*
X47233Y-30398D01*
X47380Y-30459D01*
X47539Y-30460D01*
X47686Y-30399D01*
X47782Y-30302D01*
X47800Y-30346D01*
X47913Y-30458D01*
X48060Y-30519D01*
X48219Y-30520D01*
X48366Y-30459D01*
X48478Y-30346D01*
X48539Y-30199D01*
X48540Y-30040D01*
X48540Y-31907D01*
X48538Y-31905D01*
X48464Y-31875D01*
X48385Y-31875D01*
X47800Y-31875D01*
X47800Y-30820D01*
X47739Y-30673D01*
X47626Y-30561D01*
X47479Y-30500D01*
X47320Y-30499D01*
X47173Y-30560D01*
X47061Y-30673D01*
X47000Y-30820D01*
X46999Y-30979D01*
X47060Y-31126D01*
X47173Y-31238D01*
X47320Y-31299D01*
X47479Y-31300D01*
X47626Y-31239D01*
X47738Y-31126D01*
X47799Y-30979D01*
X47800Y-30820D01*
X47800Y-31875D01*
X47735Y-31875D01*
X47662Y-31905D01*
X47605Y-31961D01*
X47575Y-32035D01*
X47575Y-32114D01*
X47575Y-32764D01*
X47605Y-32837D01*
X47661Y-32894D01*
X47735Y-32924D01*
X47814Y-32924D01*
X47875Y-32924D01*
X47803Y-32954D01*
X47655Y-33102D01*
X47575Y-33295D01*
X47575Y-33503D01*
X47654Y-33696D01*
X47802Y-33844D01*
X47995Y-33924D01*
X48203Y-33924D01*
X48396Y-33845D01*
X48544Y-33697D01*
X48624Y-33504D01*
X48624Y-33296D01*
X48624Y-37370D01*
X48578Y-37370D01*
X48483Y-37410D01*
X48410Y-37483D01*
X48370Y-37578D01*
X48370Y-37681D01*
X48410Y-37776D01*
X48483Y-37849D01*
X48578Y-37889D01*
X48681Y-37889D01*
X48776Y-37849D01*
X48849Y-37776D01*
X48889Y-37681D01*
X48889Y-37578D01*
X48889Y-38700D01*
X48059Y-38700D01*
X48059Y-38048D01*
X48059Y-36848D01*
X48019Y-36753D01*
X47946Y-36680D01*
X47851Y-36640D01*
X47748Y-36640D01*
X47653Y-36680D01*
X47580Y-36753D01*
X47540Y-36848D01*
X47540Y-36951D01*
X47580Y-37046D01*
X47653Y-37119D01*
X47748Y-37159D01*
X47851Y-37159D01*
X47946Y-37119D01*
X48019Y-37046D01*
X48059Y-36951D01*
X48059Y-36848D01*
X48059Y-38048D01*
X48019Y-37953D01*
X47946Y-37880D01*
X47851Y-37840D01*
X47748Y-37840D01*
X47653Y-37880D01*
X47580Y-37953D01*
X47540Y-38048D01*
X47540Y-38151D01*
X47580Y-38246D01*
X47653Y-38319D01*
X47748Y-38359D01*
X47851Y-38359D01*
X47946Y-38319D01*
X48019Y-38246D01*
X48059Y-38151D01*
X48059Y-38048D01*
X48059Y-38700D01*
X47000Y-38700D01*
X47000Y-38160D01*
X46969Y-38086D01*
X46913Y-38030D01*
X46839Y-38000D01*
X46760Y-37999D01*
X46750Y-37999D01*
X46750Y-37000D01*
X46839Y-37000D01*
X46913Y-36969D01*
X46969Y-36913D01*
X46999Y-36839D01*
X47000Y-36760D01*
X47000Y-36160D01*
X46969Y-36086D01*
X46913Y-36030D01*
X46839Y-36000D01*
X46760Y-35999D01*
X46599Y-35999D01*
X46782Y-35924D01*
X46923Y-35783D01*
X46999Y-35599D01*
X47000Y-35400D01*
X46924Y-35217D01*
X46783Y-35076D01*
X46599Y-35000D01*
X46400Y-34999D01*
X46320Y-35033D01*
X46320Y-29160D01*
X46259Y-29013D01*
X46146Y-28901D01*
X45999Y-28840D01*
X45840Y-28839D01*
X45700Y-28898D01*
X45700Y-27920D01*
X45639Y-27773D01*
X45526Y-27661D01*
X45379Y-27600D01*
X45220Y-27599D01*
X45073Y-27660D01*
X44961Y-27773D01*
X44900Y-27920D01*
X44899Y-28079D01*
X44960Y-28226D01*
X45073Y-28338D01*
X45220Y-28399D01*
X45379Y-28400D01*
X45526Y-28339D01*
X45638Y-28226D01*
X45699Y-28079D01*
X45700Y-27920D01*
X45700Y-28898D01*
X45693Y-28900D01*
X45581Y-29013D01*
X45520Y-29160D01*
X45519Y-29319D01*
X45580Y-29466D01*
X45693Y-29578D01*
X45840Y-29639D01*
X45999Y-29640D01*
X46146Y-29579D01*
X46258Y-29466D01*
X46319Y-29319D01*
X46320Y-29160D01*
X46320Y-35033D01*
X46217Y-35075D01*
X46100Y-35192D01*
X46100Y-30440D01*
X46039Y-30293D01*
X45926Y-30181D01*
X45779Y-30120D01*
X45620Y-30119D01*
X45473Y-30180D01*
X45361Y-30293D01*
X45300Y-30440D01*
X45299Y-30599D01*
X45360Y-30746D01*
X45473Y-30858D01*
X45620Y-30919D01*
X45779Y-30920D01*
X45926Y-30859D01*
X46038Y-30746D01*
X46099Y-30599D01*
X46100Y-30440D01*
X46100Y-35192D01*
X46076Y-35216D01*
X46000Y-35400D01*
X46000Y-35401D01*
X46000Y-35400D01*
X45924Y-35217D01*
X45783Y-35076D01*
X45599Y-35000D01*
X45400Y-34999D01*
X45217Y-35075D01*
X45076Y-35216D01*
X45000Y-35400D01*
X45000Y-35401D01*
X45000Y-35400D01*
X44924Y-35217D01*
X44783Y-35076D01*
X44599Y-35000D01*
X44580Y-35000D01*
X44580Y-29470D01*
X44519Y-29323D01*
X44406Y-29211D01*
X44280Y-29158D01*
X44280Y-25980D01*
X44219Y-25833D01*
X44140Y-25754D01*
X44140Y-23760D01*
X44079Y-23613D01*
X43966Y-23501D01*
X43929Y-23485D01*
X44038Y-23376D01*
X44099Y-23229D01*
X44100Y-23070D01*
X44039Y-22923D01*
X43926Y-22811D01*
X43779Y-22750D01*
X43620Y-22749D01*
X43473Y-22810D01*
X43445Y-22839D01*
X43445Y-21162D01*
X43339Y-20908D01*
X43145Y-20713D01*
X42891Y-20607D01*
X42615Y-20607D01*
X42361Y-20712D01*
X42166Y-20907D01*
X42060Y-21161D01*
X42060Y-21437D01*
X42165Y-21691D01*
X42360Y-21886D01*
X42614Y-21992D01*
X42889Y-21992D01*
X43144Y-21887D01*
X43339Y-21692D01*
X43444Y-21438D01*
X43445Y-21162D01*
X43445Y-22839D01*
X43361Y-22923D01*
X43300Y-23070D01*
X43299Y-23229D01*
X43360Y-23376D01*
X43473Y-23488D01*
X43510Y-23504D01*
X43401Y-23613D01*
X43340Y-23760D01*
X43339Y-23919D01*
X43400Y-24066D01*
X43513Y-24178D01*
X43660Y-24239D01*
X43819Y-24240D01*
X43966Y-24179D01*
X44078Y-24066D01*
X44139Y-23919D01*
X44140Y-23760D01*
X44140Y-25754D01*
X44106Y-25721D01*
X43959Y-25660D01*
X43800Y-25659D01*
X43653Y-25720D01*
X43541Y-25833D01*
X43480Y-25980D01*
X43479Y-26139D01*
X43540Y-26286D01*
X43653Y-26398D01*
X43800Y-26459D01*
X43959Y-26460D01*
X44106Y-26399D01*
X44218Y-26286D01*
X44279Y-26139D01*
X44280Y-25980D01*
X44280Y-29158D01*
X44259Y-29150D01*
X44100Y-29149D01*
X43973Y-29202D01*
X43949Y-29143D01*
X43836Y-29031D01*
X43830Y-29028D01*
X43830Y-26950D01*
X43769Y-26803D01*
X43656Y-26691D01*
X43509Y-26630D01*
X43350Y-26629D01*
X43203Y-26690D01*
X43091Y-26803D01*
X43030Y-26950D01*
X43029Y-27109D01*
X43090Y-27256D01*
X43203Y-27368D01*
X43350Y-27429D01*
X43509Y-27430D01*
X43656Y-27369D01*
X43768Y-27256D01*
X43829Y-27109D01*
X43830Y-26950D01*
X43830Y-29028D01*
X43689Y-28970D01*
X43530Y-28969D01*
X43383Y-29030D01*
X43271Y-29143D01*
X43210Y-29290D01*
X43209Y-29449D01*
X43270Y-29596D01*
X43324Y-29650D01*
X43221Y-29753D01*
X43160Y-29900D01*
X43159Y-30059D01*
X43220Y-30206D01*
X43333Y-30318D01*
X43480Y-30379D01*
X43639Y-30380D01*
X43786Y-30319D01*
X43898Y-30206D01*
X43959Y-30059D01*
X43960Y-29900D01*
X43955Y-29889D01*
X44100Y-29949D01*
X44259Y-29950D01*
X44406Y-29889D01*
X44518Y-29776D01*
X44579Y-29629D01*
X44580Y-29470D01*
X44580Y-35000D01*
X44400Y-34999D01*
X44217Y-35075D01*
X44076Y-35216D01*
X44000Y-35400D01*
X44000Y-35401D01*
X44000Y-35400D01*
X43924Y-35217D01*
X43850Y-35142D01*
X43850Y-34650D01*
X43850Y-32450D01*
X43740Y-32450D01*
X43740Y-30750D01*
X43679Y-30603D01*
X43566Y-30491D01*
X43419Y-30430D01*
X43260Y-30429D01*
X43113Y-30490D01*
X43095Y-30509D01*
X43016Y-30431D01*
X43000Y-30424D01*
X43000Y-27460D01*
X42939Y-27313D01*
X42826Y-27201D01*
X42679Y-27140D01*
X42520Y-27139D01*
X42373Y-27200D01*
X42261Y-27313D01*
X42200Y-27460D01*
X42199Y-27619D01*
X42260Y-27766D01*
X42373Y-27878D01*
X42520Y-27939D01*
X42679Y-27940D01*
X42826Y-27879D01*
X42938Y-27766D01*
X42999Y-27619D01*
X43000Y-27460D01*
X43000Y-30424D01*
X42869Y-30370D01*
X42830Y-30370D01*
X42830Y-29130D01*
X42769Y-28983D01*
X42656Y-28871D01*
X42509Y-28810D01*
X42350Y-28809D01*
X42203Y-28870D01*
X42091Y-28983D01*
X42070Y-29033D01*
X42070Y-21800D01*
X42009Y-21653D01*
X41896Y-21541D01*
X41749Y-21480D01*
X41590Y-21479D01*
X41443Y-21540D01*
X41426Y-21557D01*
X41476Y-21438D01*
X41476Y-21162D01*
X41371Y-20908D01*
X41176Y-20713D01*
X40922Y-20607D01*
X40647Y-20607D01*
X40392Y-20712D01*
X40197Y-20907D01*
X40092Y-21161D01*
X40092Y-21437D01*
X40197Y-21691D01*
X40391Y-21886D01*
X40645Y-21992D01*
X40921Y-21992D01*
X41175Y-21887D01*
X41275Y-21787D01*
X41270Y-21800D01*
X41269Y-21959D01*
X41330Y-22106D01*
X41381Y-22157D01*
X41373Y-22160D01*
X41261Y-22273D01*
X41200Y-22420D01*
X41199Y-22579D01*
X41260Y-22726D01*
X41373Y-22838D01*
X41520Y-22899D01*
X41679Y-22900D01*
X41826Y-22839D01*
X41938Y-22726D01*
X41999Y-22579D01*
X42000Y-22420D01*
X41939Y-22273D01*
X41888Y-22222D01*
X41896Y-22219D01*
X42008Y-22106D01*
X42069Y-21959D01*
X42070Y-21800D01*
X42070Y-29033D01*
X42030Y-29130D01*
X42029Y-29289D01*
X42090Y-29436D01*
X42203Y-29548D01*
X42350Y-29609D01*
X42509Y-29610D01*
X42656Y-29549D01*
X42768Y-29436D01*
X42829Y-29289D01*
X42830Y-29130D01*
X42830Y-30370D01*
X42710Y-30369D01*
X42563Y-30430D01*
X42451Y-30543D01*
X42390Y-30690D01*
X42390Y-30130D01*
X42329Y-29983D01*
X42216Y-29871D01*
X42069Y-29810D01*
X41910Y-29809D01*
X41763Y-29870D01*
X41651Y-29983D01*
X41590Y-30130D01*
X41589Y-30289D01*
X41650Y-30436D01*
X41763Y-30548D01*
X41910Y-30609D01*
X42069Y-30610D01*
X42216Y-30549D01*
X42328Y-30436D01*
X42389Y-30289D01*
X42390Y-30130D01*
X42390Y-30690D01*
X42389Y-30849D01*
X42450Y-30996D01*
X42563Y-31108D01*
X42710Y-31169D01*
X42869Y-31170D01*
X43016Y-31109D01*
X43034Y-31090D01*
X43113Y-31168D01*
X43260Y-31229D01*
X43419Y-31230D01*
X43566Y-31169D01*
X43678Y-31056D01*
X43739Y-30909D01*
X43740Y-30750D01*
X43740Y-32450D01*
X43550Y-32450D01*
X43550Y-31550D01*
X41769Y-31550D01*
X41554Y-31978D01*
X41554Y-28181D01*
X41543Y-27963D01*
X41500Y-27857D01*
X41500Y-27000D01*
X41500Y-26000D01*
X41424Y-25817D01*
X41283Y-25676D01*
X41099Y-25600D01*
X40900Y-25599D01*
X40810Y-25637D01*
X40810Y-24400D01*
X40749Y-24253D01*
X40636Y-24141D01*
X40489Y-24080D01*
X40330Y-24079D01*
X40183Y-24140D01*
X40071Y-24253D01*
X40010Y-24400D01*
X40009Y-24559D01*
X40070Y-24706D01*
X40183Y-24818D01*
X40330Y-24879D01*
X40489Y-24880D01*
X40636Y-24819D01*
X40748Y-24706D01*
X40809Y-24559D01*
X40810Y-24400D01*
X40810Y-25637D01*
X40717Y-25675D01*
X40576Y-25816D01*
X40500Y-26000D01*
X40500Y-26001D01*
X40500Y-26000D01*
X40424Y-25817D01*
X40283Y-25676D01*
X40099Y-25600D01*
X39900Y-25599D01*
X39738Y-25667D01*
X39838Y-25566D01*
X39899Y-25419D01*
X39900Y-25260D01*
X39839Y-25113D01*
X39726Y-25001D01*
X39579Y-24940D01*
X39420Y-24939D01*
X39273Y-25000D01*
X39161Y-25113D01*
X39100Y-25260D01*
X39099Y-25419D01*
X39160Y-25566D01*
X39273Y-25678D01*
X39420Y-25739D01*
X39579Y-25740D01*
X39704Y-25688D01*
X39576Y-25816D01*
X39500Y-26000D01*
X39499Y-26199D01*
X39575Y-26382D01*
X39716Y-26523D01*
X39900Y-26599D01*
X40099Y-26600D01*
X40282Y-26524D01*
X40423Y-26383D01*
X40499Y-26199D01*
X40500Y-26000D01*
X40500Y-26001D01*
X40499Y-26199D01*
X40575Y-26382D01*
X40716Y-26523D01*
X40900Y-26599D01*
X41099Y-26600D01*
X41282Y-26524D01*
X41423Y-26383D01*
X41499Y-26199D01*
X41500Y-26000D01*
X41500Y-27000D01*
X41424Y-26817D01*
X41283Y-26676D01*
X41099Y-26600D01*
X40900Y-26599D01*
X40717Y-26675D01*
X40576Y-26816D01*
X40500Y-27000D01*
X40499Y-27199D01*
X40575Y-27382D01*
X40716Y-27523D01*
X40828Y-27570D01*
X40712Y-27618D01*
X40684Y-27714D01*
X41000Y-28029D01*
X41315Y-27714D01*
X41287Y-27618D01*
X41162Y-27573D01*
X41282Y-27524D01*
X41423Y-27383D01*
X41499Y-27199D01*
X41500Y-27000D01*
X41500Y-27857D01*
X41481Y-27812D01*
X41385Y-27784D01*
X41070Y-28100D01*
X41385Y-28415D01*
X41481Y-28387D01*
X41554Y-28181D01*
X41554Y-31978D01*
X41315Y-32457D01*
X41315Y-28485D01*
X41000Y-28170D01*
X40929Y-28241D01*
X40929Y-28100D01*
X40614Y-27784D01*
X40518Y-27812D01*
X40500Y-27864D01*
X40500Y-27760D01*
X40469Y-27686D01*
X40413Y-27630D01*
X40339Y-27600D01*
X40260Y-27599D01*
X40099Y-27599D01*
X40282Y-27524D01*
X40423Y-27383D01*
X40499Y-27199D01*
X40500Y-27000D01*
X40424Y-26817D01*
X40283Y-26676D01*
X40099Y-26600D01*
X39900Y-26599D01*
X39717Y-26675D01*
X39576Y-26816D01*
X39500Y-27000D01*
X39499Y-27199D01*
X39575Y-27382D01*
X39716Y-27523D01*
X39900Y-27599D01*
X39960Y-27599D01*
X39660Y-27599D01*
X39586Y-27630D01*
X39530Y-27686D01*
X39500Y-27760D01*
X39499Y-27839D01*
X39499Y-28439D01*
X39530Y-28513D01*
X39586Y-28569D01*
X39660Y-28599D01*
X39739Y-28600D01*
X40339Y-28600D01*
X40413Y-28569D01*
X40469Y-28513D01*
X40499Y-28439D01*
X40500Y-28360D01*
X40500Y-28342D01*
X40518Y-28387D01*
X40614Y-28415D01*
X40929Y-28100D01*
X40929Y-28241D01*
X40684Y-28485D01*
X40712Y-28581D01*
X40918Y-28654D01*
X41136Y-28643D01*
X41287Y-28581D01*
X41315Y-28485D01*
X41315Y-32457D01*
X41269Y-32550D01*
X40950Y-32550D01*
X40950Y-34650D01*
X43850Y-34650D01*
X43850Y-35142D01*
X43783Y-35076D01*
X43599Y-35000D01*
X43400Y-34999D01*
X43217Y-35075D01*
X43076Y-35216D01*
X43000Y-35400D01*
X43000Y-35401D01*
X43000Y-35400D01*
X42924Y-35217D01*
X42783Y-35076D01*
X42599Y-35000D01*
X42400Y-34999D01*
X42217Y-35075D01*
X42076Y-35216D01*
X42000Y-35400D01*
X42000Y-35401D01*
X42000Y-35400D01*
X41924Y-35217D01*
X41783Y-35076D01*
X41599Y-35000D01*
X41400Y-34999D01*
X41217Y-35075D01*
X41076Y-35216D01*
X41000Y-35400D01*
X41000Y-35401D01*
X41000Y-35400D01*
X40924Y-35217D01*
X40840Y-35132D01*
X40840Y-31020D01*
X40779Y-30873D01*
X40710Y-30804D01*
X40763Y-30751D01*
X40824Y-30604D01*
X40825Y-30445D01*
X40764Y-30298D01*
X40651Y-30186D01*
X40504Y-30125D01*
X40345Y-30124D01*
X40198Y-30185D01*
X40086Y-30298D01*
X40025Y-30445D01*
X40024Y-30604D01*
X40085Y-30751D01*
X40154Y-30820D01*
X40124Y-30850D01*
X39300Y-30850D01*
X39299Y-30850D01*
X39300Y-30700D01*
X39224Y-30517D01*
X39083Y-30376D01*
X38899Y-30300D01*
X38839Y-30300D01*
X39139Y-30300D01*
X39213Y-30269D01*
X39269Y-30213D01*
X39299Y-30139D01*
X39300Y-30060D01*
X39300Y-29460D01*
X39269Y-29386D01*
X39213Y-29330D01*
X39140Y-29300D01*
X39140Y-28300D01*
X39100Y-28203D01*
X39100Y-26920D01*
X39039Y-26773D01*
X38926Y-26661D01*
X38779Y-26600D01*
X38620Y-26599D01*
X38500Y-26649D01*
X38500Y-25820D01*
X38439Y-25673D01*
X38326Y-25561D01*
X38179Y-25500D01*
X38020Y-25499D01*
X37980Y-25516D01*
X37980Y-24020D01*
X37919Y-23873D01*
X37806Y-23761D01*
X37659Y-23700D01*
X37500Y-23699D01*
X37353Y-23760D01*
X37241Y-23873D01*
X37180Y-24020D01*
X37179Y-24179D01*
X37213Y-24260D01*
X37198Y-24254D01*
X37001Y-24254D01*
X36819Y-24329D01*
X36680Y-24468D01*
X36604Y-24651D01*
X36604Y-24848D01*
X36679Y-25030D01*
X36818Y-25169D01*
X37001Y-25245D01*
X37198Y-25245D01*
X37380Y-25170D01*
X37519Y-25031D01*
X37595Y-24848D01*
X37595Y-24651D01*
X37532Y-24499D01*
X37659Y-24500D01*
X37806Y-24439D01*
X37918Y-24326D01*
X37979Y-24179D01*
X37980Y-24020D01*
X37980Y-25516D01*
X37873Y-25560D01*
X37761Y-25673D01*
X37700Y-25820D01*
X37699Y-25979D01*
X37760Y-26126D01*
X37873Y-26238D01*
X38020Y-26299D01*
X38179Y-26300D01*
X38326Y-26239D01*
X38438Y-26126D01*
X38499Y-25979D01*
X38500Y-25820D01*
X38500Y-26649D01*
X38473Y-26660D01*
X38361Y-26773D01*
X38335Y-26835D01*
X38289Y-26723D01*
X38176Y-26611D01*
X38029Y-26550D01*
X37870Y-26549D01*
X37723Y-26610D01*
X37611Y-26723D01*
X37595Y-26760D01*
X37595Y-26651D01*
X37520Y-26469D01*
X37381Y-26330D01*
X37198Y-26254D01*
X37001Y-26254D01*
X36870Y-26308D01*
X36870Y-26191D01*
X37001Y-26245D01*
X37198Y-26245D01*
X37380Y-26170D01*
X37519Y-26031D01*
X37595Y-25848D01*
X37595Y-25651D01*
X37520Y-25469D01*
X37381Y-25330D01*
X37198Y-25254D01*
X37001Y-25254D01*
X36819Y-25329D01*
X36680Y-25468D01*
X36622Y-25608D01*
X36576Y-25563D01*
X36521Y-25526D01*
X36595Y-25348D01*
X36595Y-25151D01*
X36520Y-24969D01*
X36381Y-24830D01*
X36198Y-24754D01*
X36001Y-24754D01*
X35819Y-24829D01*
X35680Y-24968D01*
X35650Y-25040D01*
X35593Y-24904D01*
X35397Y-24706D01*
X35139Y-24600D01*
X35100Y-24600D01*
X35100Y-24020D01*
X35039Y-23873D01*
X34926Y-23761D01*
X34779Y-23700D01*
X34620Y-23699D01*
X34473Y-23760D01*
X34441Y-23793D01*
X34379Y-23642D01*
X34120Y-23383D01*
X33783Y-23243D01*
X33418Y-23243D01*
X33080Y-23382D01*
X32821Y-23641D01*
X32681Y-23978D01*
X32681Y-24343D01*
X32820Y-24681D01*
X33079Y-24940D01*
X33416Y-25080D01*
X33781Y-25080D01*
X34119Y-24941D01*
X34378Y-24682D01*
X34478Y-24441D01*
X34620Y-24499D01*
X34779Y-24500D01*
X34926Y-24439D01*
X35038Y-24326D01*
X35099Y-24179D01*
X35100Y-24020D01*
X35100Y-24600D01*
X34861Y-24599D01*
X34604Y-24706D01*
X34406Y-24902D01*
X34300Y-25160D01*
X34299Y-25308D01*
X34279Y-25300D01*
X34120Y-25299D01*
X33973Y-25360D01*
X33861Y-25473D01*
X33800Y-25620D01*
X33799Y-25779D01*
X33860Y-25926D01*
X33973Y-26038D01*
X34120Y-26099D01*
X34279Y-26100D01*
X34426Y-26039D01*
X34538Y-25926D01*
X34567Y-25857D01*
X34602Y-25893D01*
X34860Y-25999D01*
X35138Y-26000D01*
X35396Y-25893D01*
X35448Y-25841D01*
X35523Y-25916D01*
X35604Y-25970D01*
X35673Y-25984D01*
X35604Y-26151D01*
X35604Y-26348D01*
X35679Y-26530D01*
X35818Y-26669D01*
X36001Y-26745D01*
X36198Y-26745D01*
X36370Y-26674D01*
X36370Y-26825D01*
X36198Y-26754D01*
X36001Y-26754D01*
X35819Y-26829D01*
X35693Y-26955D01*
X35699Y-26939D01*
X35700Y-26661D01*
X35593Y-26404D01*
X35397Y-26206D01*
X35139Y-26100D01*
X34861Y-26099D01*
X34604Y-26206D01*
X34406Y-26402D01*
X34300Y-26660D01*
X34299Y-26938D01*
X34406Y-27196D01*
X34602Y-27393D01*
X34860Y-27499D01*
X35138Y-27500D01*
X35396Y-27393D01*
X35593Y-27197D01*
X35604Y-27169D01*
X35604Y-27348D01*
X35679Y-27530D01*
X35818Y-27669D01*
X36001Y-27745D01*
X36198Y-27745D01*
X36380Y-27670D01*
X36519Y-27531D01*
X36522Y-27525D01*
X36617Y-27620D01*
X36604Y-27651D01*
X36604Y-27848D01*
X36679Y-28030D01*
X36818Y-28169D01*
X37001Y-28245D01*
X37198Y-28245D01*
X37380Y-28170D01*
X37519Y-28031D01*
X37595Y-27848D01*
X37595Y-27651D01*
X37520Y-27469D01*
X37381Y-27330D01*
X37198Y-27254D01*
X37001Y-27254D01*
X36970Y-27267D01*
X36912Y-27208D01*
X37001Y-27245D01*
X37198Y-27245D01*
X37380Y-27170D01*
X37519Y-27031D01*
X37549Y-26958D01*
X37549Y-27029D01*
X37610Y-27176D01*
X37723Y-27288D01*
X37870Y-27349D01*
X38029Y-27350D01*
X38176Y-27289D01*
X38288Y-27176D01*
X38314Y-27114D01*
X38360Y-27226D01*
X38473Y-27338D01*
X38620Y-27399D01*
X38779Y-27400D01*
X38926Y-27339D01*
X39038Y-27226D01*
X39099Y-27079D01*
X39100Y-26920D01*
X39100Y-28203D01*
X39079Y-28153D01*
X38966Y-28041D01*
X38819Y-27980D01*
X38660Y-27979D01*
X38513Y-28040D01*
X38401Y-28153D01*
X38340Y-28300D01*
X38339Y-28459D01*
X38400Y-28606D01*
X38513Y-28718D01*
X38660Y-28779D01*
X38819Y-28780D01*
X38966Y-28719D01*
X39078Y-28606D01*
X39139Y-28459D01*
X39140Y-28300D01*
X39140Y-29300D01*
X39139Y-29300D01*
X39060Y-29299D01*
X38460Y-29299D01*
X38386Y-29330D01*
X38330Y-29386D01*
X38300Y-29460D01*
X38299Y-29539D01*
X38299Y-30139D01*
X38330Y-30213D01*
X38386Y-30269D01*
X38460Y-30299D01*
X38539Y-30300D01*
X38700Y-30300D01*
X38517Y-30375D01*
X38376Y-30516D01*
X38300Y-30700D01*
X38299Y-30899D01*
X38375Y-31082D01*
X38516Y-31223D01*
X38567Y-31245D01*
X37555Y-31245D01*
X37595Y-31148D01*
X37595Y-30951D01*
X37520Y-30769D01*
X37381Y-30630D01*
X37198Y-30554D01*
X37001Y-30554D01*
X36819Y-30629D01*
X36680Y-30768D01*
X36604Y-30951D01*
X36604Y-31148D01*
X36679Y-31330D01*
X36682Y-31333D01*
X36595Y-31420D01*
X36595Y-28505D01*
X36595Y-27914D01*
X36565Y-27841D01*
X36508Y-27785D01*
X36435Y-27754D01*
X36355Y-27754D01*
X35764Y-27754D01*
X35700Y-27781D01*
X35700Y-27760D01*
X35669Y-27686D01*
X35613Y-27630D01*
X35539Y-27600D01*
X35460Y-27599D01*
X34460Y-27599D01*
X34386Y-27630D01*
X34330Y-27686D01*
X34300Y-27760D01*
X34299Y-27839D01*
X34299Y-28236D01*
X34120Y-28056D01*
X33783Y-27916D01*
X33418Y-27916D01*
X33080Y-28055D01*
X32821Y-28314D01*
X32681Y-28651D01*
X32681Y-29016D01*
X32820Y-29354D01*
X33079Y-29613D01*
X33163Y-29648D01*
X33080Y-29682D01*
X32821Y-29941D01*
X32681Y-30278D01*
X32681Y-30643D01*
X32820Y-30981D01*
X33079Y-31240D01*
X33416Y-31380D01*
X33781Y-31380D01*
X34119Y-31241D01*
X34378Y-30982D01*
X34518Y-30645D01*
X34518Y-30280D01*
X34379Y-29942D01*
X34120Y-29683D01*
X34036Y-29648D01*
X34119Y-29614D01*
X34378Y-29355D01*
X34518Y-29018D01*
X34518Y-29000D01*
X34539Y-29000D01*
X35539Y-29000D01*
X35613Y-28969D01*
X35669Y-28913D01*
X35699Y-28839D01*
X35700Y-28760D01*
X35700Y-28718D01*
X35764Y-28745D01*
X35844Y-28745D01*
X36435Y-28745D01*
X36508Y-28715D01*
X36564Y-28658D01*
X36595Y-28585D01*
X36595Y-28505D01*
X36595Y-31420D01*
X36586Y-31429D01*
X36520Y-31269D01*
X36381Y-31130D01*
X36198Y-31054D01*
X36001Y-31054D01*
X35819Y-31129D01*
X35680Y-31268D01*
X35604Y-31451D01*
X35604Y-31648D01*
X35671Y-31810D01*
X35445Y-31810D01*
X35478Y-31776D01*
X35539Y-31629D01*
X35540Y-31470D01*
X35479Y-31323D01*
X35366Y-31211D01*
X35219Y-31150D01*
X35060Y-31149D01*
X34913Y-31210D01*
X34801Y-31323D01*
X34740Y-31470D01*
X34739Y-31629D01*
X34800Y-31776D01*
X34834Y-31810D01*
X34095Y-31810D01*
X34006Y-31721D01*
X33859Y-31660D01*
X33700Y-31659D01*
X33553Y-31720D01*
X33441Y-31833D01*
X33380Y-31980D01*
X33379Y-32139D01*
X33440Y-32286D01*
X33553Y-32398D01*
X33700Y-32459D01*
X33859Y-32460D01*
X34006Y-32399D01*
X34095Y-32310D01*
X35663Y-32310D01*
X35604Y-32451D01*
X35604Y-32648D01*
X35667Y-32800D01*
X34010Y-32800D01*
X33914Y-32819D01*
X33833Y-32873D01*
X33833Y-32873D01*
X33806Y-32900D01*
X33680Y-32899D01*
X33533Y-32960D01*
X33421Y-33073D01*
X33360Y-33220D01*
X33359Y-33379D01*
X33420Y-33526D01*
X33533Y-33638D01*
X33680Y-33699D01*
X33839Y-33700D01*
X33986Y-33639D01*
X34098Y-33526D01*
X34159Y-33379D01*
X34160Y-33300D01*
X35667Y-33300D01*
X35604Y-33451D01*
X35604Y-33648D01*
X35679Y-33830D01*
X35818Y-33969D01*
X36001Y-34045D01*
X36198Y-34045D01*
X36380Y-33970D01*
X36519Y-33831D01*
X36595Y-33648D01*
X36595Y-33451D01*
X36520Y-33269D01*
X36501Y-33250D01*
X36536Y-33226D01*
X36607Y-33155D01*
X36679Y-33330D01*
X36818Y-33469D01*
X37001Y-33545D01*
X37198Y-33545D01*
X37380Y-33470D01*
X37519Y-33331D01*
X37595Y-33148D01*
X37595Y-32951D01*
X37520Y-32769D01*
X37512Y-32761D01*
X37515Y-32760D01*
X37596Y-32706D01*
X37899Y-32403D01*
X37899Y-32739D01*
X37930Y-32813D01*
X37986Y-32869D01*
X38060Y-32899D01*
X38139Y-32900D01*
X38739Y-32900D01*
X38813Y-32869D01*
X38869Y-32813D01*
X38899Y-32739D01*
X38900Y-32660D01*
X38900Y-32499D01*
X38975Y-32682D01*
X39116Y-32823D01*
X39300Y-32899D01*
X39499Y-32900D01*
X39682Y-32824D01*
X39823Y-32683D01*
X39899Y-32499D01*
X39900Y-32300D01*
X39829Y-32130D01*
X40104Y-32130D01*
X40193Y-32218D01*
X40340Y-32279D01*
X40499Y-32280D01*
X40646Y-32219D01*
X40758Y-32106D01*
X40819Y-31959D01*
X40820Y-31800D01*
X40759Y-31653D01*
X40646Y-31541D01*
X40533Y-31494D01*
X40666Y-31439D01*
X40778Y-31326D01*
X40839Y-31179D01*
X40840Y-31020D01*
X40840Y-35132D01*
X40783Y-35076D01*
X40599Y-35000D01*
X40400Y-34999D01*
X40217Y-35075D01*
X40076Y-35216D01*
X40000Y-35400D01*
X40000Y-35401D01*
X40000Y-35400D01*
X39924Y-35217D01*
X39783Y-35076D01*
X39599Y-35000D01*
X39400Y-34999D01*
X39217Y-35075D01*
X39076Y-35216D01*
X39000Y-35400D01*
X38999Y-35599D01*
X39075Y-35782D01*
X39216Y-35923D01*
X39400Y-35999D01*
X39599Y-36000D01*
X39782Y-35924D01*
X39923Y-35783D01*
X39999Y-35599D01*
X40000Y-35400D01*
X40000Y-35401D01*
X39999Y-35599D01*
X40075Y-35782D01*
X40216Y-35923D01*
X40400Y-35999D01*
X40599Y-36000D01*
X40782Y-35924D01*
X40923Y-35783D01*
X40999Y-35599D01*
X41000Y-35400D01*
X41000Y-35401D01*
X40999Y-35599D01*
X41075Y-35782D01*
X41216Y-35923D01*
X41400Y-35999D01*
X41599Y-36000D01*
X41782Y-35924D01*
X41923Y-35783D01*
X41999Y-35599D01*
X42000Y-35400D01*
X42000Y-35401D01*
X41999Y-35599D01*
X42075Y-35782D01*
X42216Y-35923D01*
X42400Y-35999D01*
X42599Y-36000D01*
X42782Y-35924D01*
X42923Y-35783D01*
X42999Y-35599D01*
X43000Y-35400D01*
X43000Y-35401D01*
X42999Y-35599D01*
X43075Y-35782D01*
X43216Y-35923D01*
X43400Y-35999D01*
X43599Y-36000D01*
X43782Y-35924D01*
X43850Y-35857D01*
X43923Y-35783D01*
X43999Y-35599D01*
X44000Y-35400D01*
X44000Y-35401D01*
X43999Y-35599D01*
X44075Y-35782D01*
X44216Y-35923D01*
X44400Y-35999D01*
X44599Y-36000D01*
X44782Y-35924D01*
X44923Y-35783D01*
X44999Y-35599D01*
X45000Y-35400D01*
X45000Y-35401D01*
X44999Y-35599D01*
X45075Y-35782D01*
X45216Y-35923D01*
X45400Y-35999D01*
X45599Y-36000D01*
X45782Y-35924D01*
X45923Y-35783D01*
X45999Y-35599D01*
X46000Y-35400D01*
X46000Y-35401D01*
X45999Y-35599D01*
X46075Y-35782D01*
X46216Y-35923D01*
X46400Y-35999D01*
X46460Y-35999D01*
X46160Y-35999D01*
X46086Y-36030D01*
X46030Y-36086D01*
X46000Y-36160D01*
X45999Y-36239D01*
X45999Y-36400D01*
X45924Y-36217D01*
X45783Y-36076D01*
X45599Y-36000D01*
X45400Y-35999D01*
X45217Y-36075D01*
X45076Y-36216D01*
X45000Y-36400D01*
X44999Y-36599D01*
X45075Y-36782D01*
X45216Y-36923D01*
X45250Y-36937D01*
X45250Y-38062D01*
X45217Y-38075D01*
X45076Y-38216D01*
X45000Y-38400D01*
X44999Y-38599D01*
X45041Y-38700D01*
X44958Y-38700D01*
X44999Y-38599D01*
X45000Y-38400D01*
X44924Y-38217D01*
X44783Y-38076D01*
X44750Y-38062D01*
X44750Y-36937D01*
X44782Y-36924D01*
X44923Y-36783D01*
X44999Y-36599D01*
X45000Y-36400D01*
X44924Y-36217D01*
X44783Y-36076D01*
X44599Y-36000D01*
X44400Y-35999D01*
X44217Y-36075D01*
X44076Y-36216D01*
X44000Y-36400D01*
X43999Y-36599D01*
X44075Y-36782D01*
X44216Y-36923D01*
X44250Y-36937D01*
X44250Y-38062D01*
X44217Y-38075D01*
X44076Y-38216D01*
X44000Y-38400D01*
X43999Y-38599D01*
X44041Y-38700D01*
X43958Y-38700D01*
X43999Y-38599D01*
X44000Y-38400D01*
X43924Y-38217D01*
X43850Y-38142D01*
X43783Y-38076D01*
X43750Y-38062D01*
X43750Y-36937D01*
X43782Y-36924D01*
X43850Y-36857D01*
X43923Y-36783D01*
X43999Y-36599D01*
X44000Y-36400D01*
X43924Y-36217D01*
X43850Y-36142D01*
X43783Y-36076D01*
X43599Y-36000D01*
X43400Y-35999D01*
X43217Y-36075D01*
X43076Y-36216D01*
X43000Y-36400D01*
X42999Y-36599D01*
X43075Y-36782D01*
X43216Y-36923D01*
X43250Y-36937D01*
X43250Y-38062D01*
X43217Y-38075D01*
X43076Y-38216D01*
X43000Y-38400D01*
X42999Y-38599D01*
X43041Y-38700D01*
X42958Y-38700D01*
X42999Y-38599D01*
X43000Y-38400D01*
X42924Y-38217D01*
X42783Y-38076D01*
X42750Y-38062D01*
X42750Y-36937D01*
X42782Y-36924D01*
X42923Y-36783D01*
X42999Y-36599D01*
X43000Y-36400D01*
X42924Y-36217D01*
X42783Y-36076D01*
X42599Y-36000D01*
X42400Y-35999D01*
X42217Y-36075D01*
X42076Y-36216D01*
X42000Y-36400D01*
X41999Y-36599D01*
X42075Y-36782D01*
X42216Y-36923D01*
X42250Y-36937D01*
X42250Y-38062D01*
X42217Y-38075D01*
X42076Y-38216D01*
X42000Y-38400D01*
X41999Y-38599D01*
X42041Y-38700D01*
X41958Y-38700D01*
X41999Y-38599D01*
X42000Y-38400D01*
X41924Y-38217D01*
X41783Y-38076D01*
X41750Y-38062D01*
X41750Y-36937D01*
X41782Y-36924D01*
X41923Y-36783D01*
X41999Y-36599D01*
X42000Y-36400D01*
X41924Y-36217D01*
X41783Y-36076D01*
X41599Y-36000D01*
X41400Y-35999D01*
X41217Y-36075D01*
X41076Y-36216D01*
X41000Y-36400D01*
X40999Y-36599D01*
X41075Y-36782D01*
X41216Y-36923D01*
X41250Y-36937D01*
X41250Y-38062D01*
X41217Y-38075D01*
X41076Y-38216D01*
X41000Y-38400D01*
X40999Y-38599D01*
X41041Y-38700D01*
X40958Y-38700D01*
X40999Y-38599D01*
X41000Y-38400D01*
X40924Y-38217D01*
X40783Y-38076D01*
X40750Y-38062D01*
X40750Y-36937D01*
X40782Y-36924D01*
X40923Y-36783D01*
X40999Y-36599D01*
X41000Y-36400D01*
X40924Y-36217D01*
X40783Y-36076D01*
X40599Y-36000D01*
X40400Y-35999D01*
X40217Y-36075D01*
X40076Y-36216D01*
X40000Y-36400D01*
X39999Y-36599D01*
X40075Y-36782D01*
X40216Y-36923D01*
X40250Y-36937D01*
X40250Y-38062D01*
X40217Y-38075D01*
X40076Y-38216D01*
X40000Y-38400D01*
X39999Y-38599D01*
X40041Y-38700D01*
X39958Y-38700D01*
X39999Y-38599D01*
X40000Y-38400D01*
X39924Y-38217D01*
X39783Y-38076D01*
X39750Y-38062D01*
X39750Y-36937D01*
X39782Y-36924D01*
X39923Y-36783D01*
X39999Y-36599D01*
X40000Y-36400D01*
X39924Y-36217D01*
X39783Y-36076D01*
X39599Y-36000D01*
X39400Y-35999D01*
X39217Y-36075D01*
X39076Y-36216D01*
X39000Y-36400D01*
X38999Y-36599D01*
X39075Y-36782D01*
X39216Y-36923D01*
X39250Y-36937D01*
X39250Y-38062D01*
X39217Y-38075D01*
X39191Y-38101D01*
X39139Y-37973D01*
X39026Y-37861D01*
X38900Y-37808D01*
X38900Y-36120D01*
X38839Y-35973D01*
X38726Y-35861D01*
X38579Y-35800D01*
X38420Y-35799D01*
X38273Y-35860D01*
X38161Y-35973D01*
X38100Y-36120D01*
X38099Y-36279D01*
X38160Y-36426D01*
X38273Y-36538D01*
X38420Y-36599D01*
X38579Y-36600D01*
X38726Y-36539D01*
X38838Y-36426D01*
X38899Y-36279D01*
X38900Y-36120D01*
X38900Y-37808D01*
X38879Y-37800D01*
X38720Y-37799D01*
X38627Y-37838D01*
X38638Y-37826D01*
X38699Y-37679D01*
X38700Y-37520D01*
X38639Y-37373D01*
X38526Y-37261D01*
X38379Y-37200D01*
X38220Y-37199D01*
X38073Y-37260D01*
X37961Y-37373D01*
X37930Y-37447D01*
X37930Y-37095D01*
X37849Y-36900D01*
X37700Y-36750D01*
X37595Y-36707D01*
X37595Y-33951D01*
X37520Y-33769D01*
X37381Y-33630D01*
X37198Y-33554D01*
X37001Y-33554D01*
X36819Y-33629D01*
X36680Y-33768D01*
X36604Y-33951D01*
X36604Y-34148D01*
X36679Y-34330D01*
X36818Y-34469D01*
X37001Y-34545D01*
X37198Y-34545D01*
X37380Y-34470D01*
X37519Y-34331D01*
X37595Y-34148D01*
X37595Y-33951D01*
X37595Y-36707D01*
X37505Y-36670D01*
X37295Y-36669D01*
X37100Y-36750D01*
X37100Y-36750D01*
X37100Y-35520D01*
X37039Y-35373D01*
X36926Y-35261D01*
X36779Y-35200D01*
X36620Y-35199D01*
X36595Y-35210D01*
X36595Y-34805D01*
X36595Y-34214D01*
X36565Y-34141D01*
X36508Y-34085D01*
X36435Y-34054D01*
X36355Y-34054D01*
X35764Y-34054D01*
X35691Y-34084D01*
X35635Y-34141D01*
X35604Y-34214D01*
X35604Y-34294D01*
X35604Y-34885D01*
X35634Y-34958D01*
X35691Y-35014D01*
X35764Y-35045D01*
X35844Y-35045D01*
X36435Y-35045D01*
X36508Y-35015D01*
X36564Y-34958D01*
X36595Y-34885D01*
X36595Y-34805D01*
X36595Y-35210D01*
X36473Y-35260D01*
X36361Y-35373D01*
X36300Y-35520D01*
X36299Y-35679D01*
X36360Y-35826D01*
X36473Y-35938D01*
X36620Y-35999D01*
X36779Y-36000D01*
X36926Y-35939D01*
X37038Y-35826D01*
X37099Y-35679D01*
X37100Y-35520D01*
X37100Y-36750D01*
X36950Y-36899D01*
X36899Y-37022D01*
X36849Y-36900D01*
X36700Y-36750D01*
X36505Y-36670D01*
X36295Y-36669D01*
X36100Y-36750D01*
X35950Y-36899D01*
X35899Y-37022D01*
X35849Y-36900D01*
X35700Y-36750D01*
X35620Y-36717D01*
X35620Y-35410D01*
X35559Y-35263D01*
X35446Y-35151D01*
X35299Y-35090D01*
X35140Y-35089D01*
X34993Y-35150D01*
X34881Y-35263D01*
X34820Y-35410D01*
X34819Y-35569D01*
X34880Y-35716D01*
X34993Y-35828D01*
X35140Y-35889D01*
X35299Y-35890D01*
X35446Y-35829D01*
X35558Y-35716D01*
X35619Y-35569D01*
X35620Y-35410D01*
X35620Y-36717D01*
X35505Y-36670D01*
X35295Y-36669D01*
X35100Y-36750D01*
X34950Y-36899D01*
X34870Y-37094D01*
X34869Y-37304D01*
X34950Y-37499D01*
X35099Y-37649D01*
X35294Y-37729D01*
X35504Y-37730D01*
X35699Y-37649D01*
X35849Y-37500D01*
X35900Y-37377D01*
X35950Y-37499D01*
X36099Y-37649D01*
X36294Y-37729D01*
X36504Y-37730D01*
X36699Y-37649D01*
X36849Y-37500D01*
X36900Y-37377D01*
X36950Y-37499D01*
X37099Y-37649D01*
X37294Y-37729D01*
X37504Y-37730D01*
X37699Y-37649D01*
X37849Y-37500D01*
X37929Y-37305D01*
X37930Y-37095D01*
X37930Y-37447D01*
X37900Y-37520D01*
X37899Y-37679D01*
X37960Y-37826D01*
X38073Y-37938D01*
X38220Y-37999D01*
X38379Y-38000D01*
X38472Y-37961D01*
X38461Y-37973D01*
X38400Y-38120D01*
X38399Y-38279D01*
X38460Y-38426D01*
X38573Y-38538D01*
X38720Y-38599D01*
X38879Y-38600D01*
X38999Y-38550D01*
X38999Y-38599D01*
X39041Y-38700D01*
X36200Y-38700D01*
X36200Y-38150D01*
X35640Y-38150D01*
X35640Y-37920D01*
X34759Y-37920D01*
X34759Y-38150D01*
X34737Y-38150D01*
X34745Y-38129D01*
X34746Y-37463D01*
X34518Y-36912D01*
X34518Y-34953D01*
X34379Y-34615D01*
X34120Y-34356D01*
X33783Y-34216D01*
X33418Y-34216D01*
X33080Y-34355D01*
X33000Y-34436D01*
X33000Y-32420D01*
X32939Y-32273D01*
X32826Y-32161D01*
X32679Y-32100D01*
X32520Y-32099D01*
X32373Y-32160D01*
X32261Y-32273D01*
X32200Y-32420D01*
X32199Y-32579D01*
X32260Y-32726D01*
X32373Y-32838D01*
X32520Y-32899D01*
X32679Y-32900D01*
X32826Y-32839D01*
X32938Y-32726D01*
X32999Y-32579D01*
X33000Y-32420D01*
X33000Y-34436D01*
X32821Y-34614D01*
X32681Y-34951D01*
X32681Y-35316D01*
X32820Y-35654D01*
X33079Y-35913D01*
X33416Y-36053D01*
X33781Y-36053D01*
X34119Y-35914D01*
X34378Y-35655D01*
X34518Y-35318D01*
X34518Y-34953D01*
X34518Y-36912D01*
X34491Y-36847D01*
X34020Y-36376D01*
X33405Y-36120D01*
X32739Y-36119D01*
X32123Y-36374D01*
X32050Y-36447D01*
X32050Y-22559D01*
X32140Y-22649D01*
X32743Y-22900D01*
X33395Y-22900D01*
X33998Y-22651D01*
X34400Y-22250D01*
X34399Y-22379D01*
X34460Y-22526D01*
X34573Y-22638D01*
X34720Y-22699D01*
X34879Y-22700D01*
X35026Y-22639D01*
X35115Y-22550D01*
X37386Y-22550D01*
X38836Y-24000D01*
X38720Y-23999D01*
X38573Y-24060D01*
X38461Y-24173D01*
X38400Y-24320D01*
X38399Y-24479D01*
X38460Y-24626D01*
X38573Y-24738D01*
X38720Y-24799D01*
X38879Y-24800D01*
X39026Y-24739D01*
X39049Y-24715D01*
X39073Y-24738D01*
X39220Y-24799D01*
X39379Y-24800D01*
X39526Y-24739D01*
X39638Y-24626D01*
X39699Y-24479D01*
X39700Y-24320D01*
X39639Y-24173D01*
X39543Y-24077D01*
X39530Y-24014D01*
X39530Y-24014D01*
X39507Y-23979D01*
X39507Y-21162D01*
X39402Y-20908D01*
X39208Y-20713D01*
X38954Y-20607D01*
X38678Y-20607D01*
X38424Y-20712D01*
X38229Y-20907D01*
X38123Y-21161D01*
X38123Y-21437D01*
X38228Y-21691D01*
X38423Y-21886D01*
X38677Y-21992D01*
X38952Y-21992D01*
X39207Y-21887D01*
X39402Y-21692D01*
X39507Y-21438D01*
X39507Y-21162D01*
X39507Y-23979D01*
X39476Y-23933D01*
X37666Y-22123D01*
X37585Y-22069D01*
X37539Y-22059D01*
X37539Y-21162D01*
X37434Y-20908D01*
X37239Y-20713D01*
X36985Y-20607D01*
X36710Y-20607D01*
X36455Y-20712D01*
X36260Y-20907D01*
X36155Y-21161D01*
X36154Y-21437D01*
X36260Y-21691D01*
X36454Y-21886D01*
X36708Y-21992D01*
X36984Y-21992D01*
X37238Y-21887D01*
X37433Y-21692D01*
X37539Y-21438D01*
X37539Y-21162D01*
X37539Y-22059D01*
X37490Y-22050D01*
X35115Y-22050D01*
X35026Y-21961D01*
X34879Y-21900D01*
X34720Y-21899D01*
X34573Y-21960D01*
X34543Y-21990D01*
X34711Y-21587D01*
X34711Y-20934D01*
X34462Y-20331D01*
X34430Y-20300D01*
X45699Y-20300D01*
X45699Y-20379D01*
X45760Y-20526D01*
X45873Y-20638D01*
X45959Y-20674D01*
X45861Y-20773D01*
X45800Y-20920D01*
X45799Y-21079D01*
X45860Y-21226D01*
X45888Y-21254D01*
X45873Y-21260D01*
X45761Y-21373D01*
X45700Y-21520D01*
X45699Y-21679D01*
X45760Y-21826D01*
X45873Y-21938D01*
X46020Y-21999D01*
X46179Y-22000D01*
X46326Y-21939D01*
X46438Y-21826D01*
X46499Y-21679D01*
X46500Y-21520D01*
X46439Y-21373D01*
X46411Y-21345D01*
X46426Y-21339D01*
X46538Y-21226D01*
X46595Y-21090D01*
X46595Y-21248D01*
X46625Y-21400D01*
X46711Y-21528D01*
X46840Y-21614D01*
X46992Y-21645D01*
X47144Y-21614D01*
X47273Y-21528D01*
X47281Y-21516D01*
X47446Y-21516D01*
X47605Y-21484D01*
X47643Y-21459D01*
X47643Y-21460D01*
X47724Y-21541D01*
X47830Y-21585D01*
X47945Y-21585D01*
X48051Y-21541D01*
X48132Y-21460D01*
X48144Y-21433D01*
X48155Y-21460D01*
X48236Y-21541D01*
X48342Y-21585D01*
X48457Y-21585D01*
X48563Y-21541D01*
X48644Y-21460D01*
X48655Y-21433D01*
X48667Y-21460D01*
X48748Y-21541D01*
X48854Y-21585D01*
X48968Y-21585D01*
X49075Y-21541D01*
X49156Y-21460D01*
X49156Y-21459D01*
X49194Y-21484D01*
X49353Y-21516D01*
X49518Y-21516D01*
X49526Y-21528D01*
X49655Y-21614D01*
X49807Y-21645D01*
X49959Y-21614D01*
X50088Y-21528D01*
X50174Y-21400D01*
X50204Y-21248D01*
X50204Y-21169D01*
X50273Y-21238D01*
X50420Y-21299D01*
X50579Y-21300D01*
X50726Y-21239D01*
X50838Y-21126D01*
X50849Y-21100D01*
X50860Y-21126D01*
X50973Y-21238D01*
X51120Y-21299D01*
X51279Y-21300D01*
X51426Y-21239D01*
X51538Y-21126D01*
X51599Y-20979D01*
X51600Y-20820D01*
X51539Y-20673D01*
X51426Y-20561D01*
X51279Y-20500D01*
X51120Y-20499D01*
X50973Y-20560D01*
X50861Y-20673D01*
X50850Y-20699D01*
X50839Y-20673D01*
X50726Y-20561D01*
X50579Y-20500D01*
X50420Y-20499D01*
X50273Y-20560D01*
X50161Y-20673D01*
X50133Y-20739D01*
X50088Y-20671D01*
X49959Y-20585D01*
X49807Y-20554D01*
X49655Y-20585D01*
X49526Y-20671D01*
X49518Y-20683D01*
X49353Y-20683D01*
X49194Y-20715D01*
X49059Y-20805D01*
X48968Y-20940D01*
X48955Y-21008D01*
X48854Y-21008D01*
X48844Y-21012D01*
X48900Y-20956D01*
X48944Y-20850D01*
X48944Y-20735D01*
X48900Y-20629D01*
X48860Y-20589D01*
X48923Y-20548D01*
X49013Y-20412D01*
X49036Y-20300D01*
X52150Y-20300D01*
X52150Y-25134D01*
X52111Y-25173D01*
X52071Y-25267D01*
X52049Y-25213D01*
X51936Y-25101D01*
X51789Y-25040D01*
X51650Y-25039D01*
X51650Y-22450D01*
X51574Y-22267D01*
X51433Y-22126D01*
X51249Y-22050D01*
X51050Y-22049D01*
X50867Y-22125D01*
X50726Y-22266D01*
X50650Y-22450D01*
X50650Y-22451D01*
X50650Y-22450D01*
X50574Y-22267D01*
X50433Y-22126D01*
X50249Y-22050D01*
X50050Y-22049D01*
X49867Y-22125D01*
X49726Y-22266D01*
X49650Y-22450D01*
X49650Y-22451D01*
X49650Y-22450D01*
X49574Y-22267D01*
X49433Y-22126D01*
X49249Y-22050D01*
X49050Y-22049D01*
X48867Y-22125D01*
X48726Y-22266D01*
X48650Y-22450D01*
X48650Y-22451D01*
X48650Y-22450D01*
X48574Y-22267D01*
X48433Y-22126D01*
X48249Y-22050D01*
X48050Y-22049D01*
X47867Y-22125D01*
X47726Y-22266D01*
X47650Y-22450D01*
X47650Y-22510D01*
X47650Y-22210D01*
X47619Y-22136D01*
X47563Y-22080D01*
X47489Y-22050D01*
X47410Y-22049D01*
X46810Y-22049D01*
X46736Y-22080D01*
X46680Y-22136D01*
X46650Y-22210D01*
X46649Y-22289D01*
X46649Y-22889D01*
X46680Y-22963D01*
X46736Y-23019D01*
X46810Y-23049D01*
X46889Y-23050D01*
X47489Y-23050D01*
X47563Y-23019D01*
X47619Y-22963D01*
X47649Y-22889D01*
X47650Y-22810D01*
X47650Y-22649D01*
X47725Y-22832D01*
X47866Y-22973D01*
X48050Y-23049D01*
X48249Y-23050D01*
X48432Y-22974D01*
X48573Y-22833D01*
X48649Y-22649D01*
X48650Y-22450D01*
X48650Y-22451D01*
X48649Y-22649D01*
X48725Y-22832D01*
X48866Y-22973D01*
X49050Y-23049D01*
X49249Y-23050D01*
X49432Y-22974D01*
X49573Y-22833D01*
X49649Y-22649D01*
X49650Y-22450D01*
X49650Y-22451D01*
X49649Y-22649D01*
X49725Y-22832D01*
X49866Y-22973D01*
X50050Y-23049D01*
X50249Y-23050D01*
X50432Y-22974D01*
X50573Y-22833D01*
X50649Y-22649D01*
X50650Y-22450D01*
X50650Y-22451D01*
X50649Y-22649D01*
X50725Y-22832D01*
X50866Y-22973D01*
X51050Y-23049D01*
X51249Y-23050D01*
X51432Y-22974D01*
X51573Y-22833D01*
X51649Y-22649D01*
X51650Y-22450D01*
X51650Y-25039D01*
X51630Y-25039D01*
X51483Y-25100D01*
X51371Y-25213D01*
X51310Y-25360D01*
X51309Y-25519D01*
X51370Y-25666D01*
X51483Y-25778D01*
X51630Y-25839D01*
X51789Y-25840D01*
X51936Y-25779D01*
X52048Y-25666D01*
X52088Y-25572D01*
X52110Y-25626D01*
X52150Y-25665D01*
X52150Y-26249D01*
X52149Y-26329D01*
X52150Y-26329D01*
X52150Y-28050D01*
X52150Y-29184D01*
X52046Y-29081D01*
X52010Y-29065D01*
X52010Y-26170D01*
X51949Y-26023D01*
X51836Y-25911D01*
X51689Y-25850D01*
X51530Y-25849D01*
X51383Y-25910D01*
X51271Y-26023D01*
X51210Y-26170D01*
X51209Y-26329D01*
X51270Y-26476D01*
X51383Y-26588D01*
X51530Y-26649D01*
X51689Y-26650D01*
X51836Y-26589D01*
X51948Y-26476D01*
X52009Y-26329D01*
X52010Y-26170D01*
X52010Y-29065D01*
X51899Y-29020D01*
X51770Y-29019D01*
X51770Y-28050D01*
X51709Y-27903D01*
X51596Y-27791D01*
X51449Y-27730D01*
X51290Y-27729D01*
X51143Y-27790D01*
X51031Y-27903D01*
X50970Y-28050D01*
X50969Y-28209D01*
X51030Y-28356D01*
X51143Y-28468D01*
X51290Y-28529D01*
X51449Y-28530D01*
X51596Y-28469D01*
X51708Y-28356D01*
X51769Y-28209D01*
X51770Y-28050D01*
X51770Y-29019D01*
X51740Y-29019D01*
X51593Y-29080D01*
X51481Y-29193D01*
X51420Y-29340D01*
X51419Y-29499D01*
X51480Y-29646D01*
X51488Y-29654D01*
X51473Y-29660D01*
X51361Y-29773D01*
X51300Y-29920D01*
X51299Y-30079D01*
X51360Y-30226D01*
X51473Y-30338D01*
X51620Y-30399D01*
X51779Y-30400D01*
X51926Y-30339D01*
X52038Y-30226D01*
X52099Y-30079D01*
X52100Y-29920D01*
X52039Y-29773D01*
X52031Y-29765D01*
X52046Y-29759D01*
X52150Y-29655D01*
X52150Y-31875D01*
X52085Y-31875D01*
X51435Y-31875D01*
X51362Y-31905D01*
X51305Y-31961D01*
X51275Y-32035D01*
X51275Y-32114D01*
X51275Y-32764D01*
X51305Y-32837D01*
X51361Y-32894D01*
X51435Y-32924D01*
X51514Y-32924D01*
X51575Y-32924D01*
X51503Y-32954D01*
X51355Y-33102D01*
X51275Y-33295D01*
X51275Y-33503D01*
X51354Y-33696D01*
X51502Y-33844D01*
X51695Y-33924D01*
X51903Y-33924D01*
X52096Y-33845D01*
X52150Y-33792D01*
X52150Y-38700D01*
X52150Y-38700D01*
G37*
G54D11*
X52150Y-38700D02*
X51800Y-38700D01*
X51800Y-37320D01*
X51739Y-37173D01*
X51626Y-37061D01*
X51479Y-37000D01*
X51320Y-36999D01*
X51173Y-37060D01*
X51061Y-37173D01*
X51000Y-37320D01*
X50999Y-37479D01*
X51060Y-37626D01*
X51173Y-37738D01*
X51320Y-37799D01*
X51479Y-37800D01*
X51626Y-37739D01*
X51738Y-37626D01*
X51799Y-37479D01*
X51800Y-37320D01*
X51800Y-38700D01*
X50870Y-38700D01*
X50870Y-24750D01*
X50809Y-24603D01*
X50696Y-24491D01*
X50549Y-24430D01*
X50390Y-24429D01*
X50243Y-24490D01*
X50131Y-24603D01*
X50070Y-24750D01*
X50069Y-24909D01*
X50130Y-25056D01*
X50243Y-25168D01*
X50390Y-25229D01*
X50549Y-25230D01*
X50696Y-25169D01*
X50808Y-25056D01*
X50869Y-24909D01*
X50870Y-24750D01*
X50870Y-38700D01*
X50750Y-38700D01*
X50750Y-30970D01*
X50689Y-30823D01*
X50576Y-30711D01*
X50429Y-30650D01*
X50270Y-30649D01*
X50123Y-30710D01*
X50011Y-30823D01*
X49990Y-30873D01*
X49990Y-30285D01*
X49929Y-30138D01*
X49816Y-30026D01*
X49690Y-29973D01*
X49690Y-28190D01*
X49629Y-28043D01*
X49516Y-27931D01*
X49500Y-27924D01*
X49500Y-26030D01*
X49439Y-25883D01*
X49326Y-25771D01*
X49190Y-25714D01*
X49190Y-24740D01*
X49129Y-24593D01*
X49016Y-24481D01*
X48869Y-24420D01*
X48710Y-24419D01*
X48563Y-24480D01*
X48451Y-24593D01*
X48390Y-24740D01*
X48389Y-24899D01*
X48450Y-25046D01*
X48563Y-25158D01*
X48710Y-25219D01*
X48869Y-25220D01*
X49016Y-25159D01*
X49128Y-25046D01*
X49189Y-24899D01*
X49190Y-24740D01*
X49190Y-25714D01*
X49179Y-25710D01*
X49020Y-25709D01*
X48873Y-25770D01*
X48761Y-25883D01*
X48700Y-26030D01*
X48699Y-26189D01*
X48760Y-26336D01*
X48873Y-26448D01*
X49020Y-26509D01*
X49179Y-26510D01*
X49326Y-26449D01*
X49438Y-26336D01*
X49499Y-26189D01*
X49500Y-26030D01*
X49500Y-27924D01*
X49369Y-27870D01*
X49210Y-27869D01*
X49080Y-27923D01*
X49080Y-26970D01*
X49019Y-26823D01*
X48906Y-26711D01*
X48759Y-26650D01*
X48690Y-26650D01*
X48690Y-25640D01*
X48629Y-25493D01*
X48516Y-25381D01*
X48369Y-25320D01*
X48210Y-25319D01*
X48063Y-25380D01*
X47951Y-25493D01*
X47890Y-25640D01*
X47889Y-25799D01*
X47950Y-25946D01*
X48063Y-26058D01*
X48210Y-26119D01*
X48369Y-26120D01*
X48516Y-26059D01*
X48628Y-25946D01*
X48689Y-25799D01*
X48690Y-25640D01*
X48690Y-26650D01*
X48600Y-26649D01*
X48453Y-26710D01*
X48341Y-26823D01*
X48280Y-26970D01*
X48279Y-27129D01*
X48340Y-27276D01*
X48453Y-27388D01*
X48600Y-27449D01*
X48759Y-27450D01*
X48906Y-27389D01*
X49018Y-27276D01*
X49079Y-27129D01*
X49080Y-26970D01*
X49080Y-27923D01*
X49063Y-27930D01*
X48951Y-28043D01*
X48890Y-28190D01*
X48889Y-28349D01*
X48950Y-28496D01*
X49063Y-28608D01*
X49210Y-28669D01*
X49369Y-28670D01*
X49516Y-28609D01*
X49628Y-28496D01*
X49689Y-28349D01*
X49690Y-28190D01*
X49690Y-29973D01*
X49669Y-29965D01*
X49510Y-29964D01*
X49363Y-30025D01*
X49251Y-30138D01*
X49190Y-30285D01*
X49189Y-30444D01*
X49250Y-30591D01*
X49363Y-30703D01*
X49510Y-30764D01*
X49669Y-30765D01*
X49816Y-30704D01*
X49928Y-30591D01*
X49989Y-30444D01*
X49990Y-30285D01*
X49990Y-30873D01*
X49950Y-30970D01*
X49949Y-31129D01*
X50010Y-31276D01*
X50123Y-31388D01*
X50270Y-31449D01*
X50429Y-31450D01*
X50576Y-31389D01*
X50688Y-31276D01*
X50749Y-31129D01*
X50750Y-30970D01*
X50750Y-38700D01*
X50400Y-38700D01*
X50400Y-32420D01*
X50339Y-32273D01*
X50315Y-32250D01*
X50338Y-32226D01*
X50399Y-32079D01*
X50400Y-31920D01*
X50339Y-31773D01*
X50226Y-31661D01*
X50079Y-31600D01*
X49920Y-31599D01*
X49773Y-31660D01*
X49661Y-31773D01*
X49600Y-31920D01*
X49599Y-32079D01*
X49660Y-32226D01*
X49684Y-32249D01*
X49661Y-32273D01*
X49600Y-32420D01*
X49599Y-32579D01*
X49660Y-32726D01*
X49773Y-32838D01*
X49920Y-32899D01*
X50079Y-32900D01*
X50226Y-32839D01*
X50338Y-32726D01*
X50399Y-32579D01*
X50400Y-32420D01*
X50400Y-38700D01*
X49459Y-38700D01*
X49459Y-38348D01*
X49459Y-36848D01*
X49419Y-36753D01*
X49346Y-36680D01*
X49251Y-36640D01*
X49148Y-36640D01*
X49053Y-36680D01*
X48980Y-36753D01*
X48940Y-36848D01*
X48940Y-36951D01*
X48980Y-37046D01*
X49053Y-37119D01*
X49148Y-37159D01*
X49251Y-37159D01*
X49346Y-37119D01*
X49419Y-37046D01*
X49459Y-36951D01*
X49459Y-36848D01*
X49459Y-38348D01*
X49419Y-38253D01*
X49346Y-38180D01*
X49251Y-38140D01*
X49148Y-38140D01*
X49053Y-38180D01*
X48980Y-38253D01*
X48940Y-38348D01*
X48940Y-38451D01*
X48980Y-38546D01*
X49053Y-38619D01*
X49148Y-38659D01*
X49251Y-38659D01*
X49346Y-38619D01*
X49419Y-38546D01*
X49459Y-38451D01*
X49459Y-38348D01*
X49459Y-38700D01*
X48889Y-38700D01*
X48889Y-37578D01*
X48849Y-37483D01*
X48776Y-37410D01*
X48681Y-37370D01*
X48624Y-37370D01*
X48624Y-33296D01*
X48545Y-33103D01*
X48397Y-32955D01*
X48324Y-32924D01*
X48464Y-32924D01*
X48537Y-32894D01*
X48594Y-32838D01*
X48624Y-32764D01*
X48624Y-32685D01*
X48624Y-32035D01*
X48594Y-31962D01*
X48540Y-31907D01*
X48540Y-30040D01*
X48479Y-29893D01*
X48460Y-29874D01*
X48460Y-28530D01*
X48399Y-28383D01*
X48286Y-28271D01*
X48139Y-28210D01*
X47980Y-28209D01*
X47833Y-28270D01*
X47721Y-28383D01*
X47660Y-28530D01*
X47659Y-28689D01*
X47720Y-28836D01*
X47833Y-28948D01*
X47980Y-29009D01*
X48139Y-29010D01*
X48286Y-28949D01*
X48398Y-28836D01*
X48459Y-28689D01*
X48460Y-28530D01*
X48460Y-29874D01*
X48366Y-29781D01*
X48219Y-29720D01*
X48060Y-29719D01*
X47913Y-29780D01*
X47817Y-29877D01*
X47799Y-29833D01*
X47686Y-29721D01*
X47539Y-29660D01*
X47380Y-29659D01*
X47233Y-29720D01*
X47121Y-29833D01*
X47100Y-29883D01*
X47100Y-27720D01*
X47039Y-27573D01*
X46926Y-27461D01*
X46830Y-27420D01*
X46830Y-23270D01*
X46769Y-23123D01*
X46656Y-23011D01*
X46509Y-22950D01*
X46350Y-22949D01*
X46203Y-23010D01*
X46091Y-23123D01*
X46030Y-23270D01*
X46029Y-23429D01*
X46090Y-23576D01*
X46179Y-23665D01*
X46071Y-23773D01*
X46010Y-23920D01*
X46009Y-24079D01*
X46070Y-24226D01*
X46183Y-24338D01*
X46330Y-24399D01*
X46489Y-24400D01*
X46636Y-24339D01*
X46748Y-24226D01*
X46809Y-24079D01*
X46810Y-23920D01*
X46749Y-23773D01*
X46660Y-23684D01*
X46768Y-23576D01*
X46829Y-23429D01*
X46830Y-23270D01*
X46830Y-27420D01*
X46779Y-27400D01*
X46620Y-27399D01*
X46473Y-27460D01*
X46450Y-27484D01*
X46450Y-26970D01*
X46389Y-26823D01*
X46276Y-26711D01*
X46129Y-26650D01*
X46040Y-26649D01*
X46040Y-24990D01*
X45979Y-24843D01*
X45866Y-24731D01*
X45750Y-24682D01*
X45750Y-23770D01*
X45689Y-23623D01*
X45576Y-23511D01*
X45429Y-23450D01*
X45360Y-23450D01*
X45360Y-23020D01*
X45299Y-22873D01*
X45240Y-22814D01*
X45240Y-21720D01*
X45179Y-21573D01*
X45066Y-21461D01*
X44919Y-21400D01*
X44760Y-21399D01*
X44613Y-21460D01*
X44501Y-21573D01*
X44440Y-21720D01*
X44439Y-21879D01*
X44500Y-22026D01*
X44613Y-22138D01*
X44760Y-22199D01*
X44919Y-22200D01*
X45066Y-22139D01*
X45178Y-22026D01*
X45239Y-21879D01*
X45240Y-21720D01*
X45240Y-22814D01*
X45186Y-22761D01*
X45039Y-22700D01*
X44880Y-22699D01*
X44733Y-22760D01*
X44621Y-22873D01*
X44560Y-23020D01*
X44559Y-23179D01*
X44620Y-23326D01*
X44733Y-23438D01*
X44880Y-23499D01*
X45039Y-23500D01*
X45186Y-23439D01*
X45298Y-23326D01*
X45359Y-23179D01*
X45360Y-23020D01*
X45360Y-23450D01*
X45270Y-23449D01*
X45123Y-23510D01*
X45011Y-23623D01*
X44950Y-23770D01*
X44949Y-23929D01*
X45010Y-24076D01*
X45123Y-24188D01*
X45270Y-24249D01*
X45429Y-24250D01*
X45576Y-24189D01*
X45688Y-24076D01*
X45749Y-23929D01*
X45750Y-23770D01*
X45750Y-24682D01*
X45719Y-24670D01*
X45560Y-24669D01*
X45413Y-24730D01*
X45301Y-24843D01*
X45240Y-24990D01*
X45239Y-25149D01*
X45300Y-25296D01*
X45413Y-25408D01*
X45560Y-25469D01*
X45719Y-25470D01*
X45866Y-25409D01*
X45978Y-25296D01*
X46039Y-25149D01*
X46040Y-24990D01*
X46040Y-26649D01*
X45970Y-26649D01*
X45823Y-26710D01*
X45711Y-26823D01*
X45650Y-26970D01*
X45649Y-27129D01*
X45710Y-27276D01*
X45823Y-27388D01*
X45970Y-27449D01*
X46129Y-27450D01*
X46276Y-27389D01*
X46388Y-27276D01*
X46449Y-27129D01*
X46450Y-26970D01*
X46450Y-27484D01*
X46361Y-27573D01*
X46300Y-27720D01*
X46299Y-27879D01*
X46360Y-28026D01*
X46473Y-28138D01*
X46620Y-28199D01*
X46779Y-28200D01*
X46926Y-28139D01*
X47038Y-28026D01*
X47099Y-27879D01*
X47100Y-27720D01*
X47100Y-29883D01*
X47060Y-29980D01*
X47059Y-30139D01*
X47120Y-30286D01*
X47233Y-30398D01*
X47380Y-30459D01*
X47539Y-30460D01*
X47686Y-30399D01*
X47782Y-30302D01*
X47800Y-30346D01*
X47913Y-30458D01*
X48060Y-30519D01*
X48219Y-30520D01*
X48366Y-30459D01*
X48478Y-30346D01*
X48539Y-30199D01*
X48540Y-30040D01*
X48540Y-31907D01*
X48538Y-31905D01*
X48464Y-31875D01*
X48385Y-31875D01*
X47800Y-31875D01*
X47800Y-30820D01*
X47739Y-30673D01*
X47626Y-30561D01*
X47479Y-30500D01*
X47320Y-30499D01*
X47173Y-30560D01*
X47061Y-30673D01*
X47000Y-30820D01*
X46999Y-30979D01*
X47060Y-31126D01*
X47173Y-31238D01*
X47320Y-31299D01*
X47479Y-31300D01*
X47626Y-31239D01*
X47738Y-31126D01*
X47799Y-30979D01*
X47800Y-30820D01*
X47800Y-31875D01*
X47735Y-31875D01*
X47662Y-31905D01*
X47605Y-31961D01*
X47575Y-32035D01*
X47575Y-32114D01*
X47575Y-32764D01*
X47605Y-32837D01*
X47661Y-32894D01*
X47735Y-32924D01*
X47814Y-32924D01*
X47875Y-32924D01*
X47803Y-32954D01*
X47655Y-33102D01*
X47575Y-33295D01*
X47575Y-33503D01*
X47654Y-33696D01*
X47802Y-33844D01*
X47995Y-33924D01*
X48203Y-33924D01*
X48396Y-33845D01*
X48544Y-33697D01*
X48624Y-33504D01*
X48624Y-33296D01*
X48624Y-37370D01*
X48578Y-37370D01*
X48483Y-37410D01*
X48410Y-37483D01*
X48370Y-37578D01*
X48370Y-37681D01*
X48410Y-37776D01*
X48483Y-37849D01*
X48578Y-37889D01*
X48681Y-37889D01*
X48776Y-37849D01*
X48849Y-37776D01*
X48889Y-37681D01*
X48889Y-37578D01*
X48889Y-38700D01*
X48059Y-38700D01*
X48059Y-38048D01*
X48059Y-36848D01*
X48019Y-36753D01*
X47946Y-36680D01*
X47851Y-36640D01*
X47748Y-36640D01*
X47653Y-36680D01*
X47580Y-36753D01*
X47540Y-36848D01*
X47540Y-36951D01*
X47580Y-37046D01*
X47653Y-37119D01*
X47748Y-37159D01*
X47851Y-37159D01*
X47946Y-37119D01*
X48019Y-37046D01*
X48059Y-36951D01*
X48059Y-36848D01*
X48059Y-38048D01*
X48019Y-37953D01*
X47946Y-37880D01*
X47851Y-37840D01*
X47748Y-37840D01*
X47653Y-37880D01*
X47580Y-37953D01*
X47540Y-38048D01*
X47540Y-38151D01*
X47580Y-38246D01*
X47653Y-38319D01*
X47748Y-38359D01*
X47851Y-38359D01*
X47946Y-38319D01*
X48019Y-38246D01*
X48059Y-38151D01*
X48059Y-38048D01*
X48059Y-38700D01*
X47000Y-38700D01*
X47000Y-38160D01*
X46969Y-38086D01*
X46913Y-38030D01*
X46839Y-38000D01*
X46760Y-37999D01*
X46750Y-37999D01*
X46750Y-37000D01*
X46839Y-37000D01*
X46913Y-36969D01*
X46969Y-36913D01*
X46999Y-36839D01*
X47000Y-36760D01*
X47000Y-36160D01*
X46969Y-36086D01*
X46913Y-36030D01*
X46839Y-36000D01*
X46760Y-35999D01*
X46599Y-35999D01*
X46782Y-35924D01*
X46923Y-35783D01*
X46999Y-35599D01*
X47000Y-35400D01*
X46924Y-35217D01*
X46783Y-35076D01*
X46599Y-35000D01*
X46400Y-34999D01*
X46320Y-35033D01*
X46320Y-29160D01*
X46259Y-29013D01*
X46146Y-28901D01*
X45999Y-28840D01*
X45840Y-28839D01*
X45700Y-28898D01*
X45700Y-27920D01*
X45639Y-27773D01*
X45526Y-27661D01*
X45379Y-27600D01*
X45220Y-27599D01*
X45073Y-27660D01*
X44961Y-27773D01*
X44900Y-27920D01*
X44899Y-28079D01*
X44960Y-28226D01*
X45073Y-28338D01*
X45220Y-28399D01*
X45379Y-28400D01*
X45526Y-28339D01*
X45638Y-28226D01*
X45699Y-28079D01*
X45700Y-27920D01*
X45700Y-28898D01*
X45693Y-28900D01*
X45581Y-29013D01*
X45520Y-29160D01*
X45519Y-29319D01*
X45580Y-29466D01*
X45693Y-29578D01*
X45840Y-29639D01*
X45999Y-29640D01*
X46146Y-29579D01*
X46258Y-29466D01*
X46319Y-29319D01*
X46320Y-29160D01*
X46320Y-35033D01*
X46217Y-35075D01*
X46100Y-35192D01*
X46100Y-30440D01*
X46039Y-30293D01*
X45926Y-30181D01*
X45779Y-30120D01*
X45620Y-30119D01*
X45473Y-30180D01*
X45361Y-30293D01*
X45300Y-30440D01*
X45299Y-30599D01*
X45360Y-30746D01*
X45473Y-30858D01*
X45620Y-30919D01*
X45779Y-30920D01*
X45926Y-30859D01*
X46038Y-30746D01*
X46099Y-30599D01*
X46100Y-30440D01*
X46100Y-35192D01*
X46076Y-35216D01*
X46000Y-35400D01*
X46000Y-35401D01*
X46000Y-35400D01*
X45924Y-35217D01*
X45783Y-35076D01*
X45599Y-35000D01*
X45400Y-34999D01*
X45217Y-35075D01*
X45076Y-35216D01*
X45000Y-35400D01*
X45000Y-35401D01*
X45000Y-35400D01*
X44924Y-35217D01*
X44783Y-35076D01*
X44599Y-35000D01*
X44580Y-35000D01*
X44580Y-29470D01*
X44519Y-29323D01*
X44406Y-29211D01*
X44280Y-29158D01*
X44280Y-25980D01*
X44219Y-25833D01*
X44140Y-25754D01*
X44140Y-23760D01*
X44079Y-23613D01*
X43966Y-23501D01*
X43929Y-23485D01*
X44038Y-23376D01*
X44099Y-23229D01*
X44100Y-23070D01*
X44039Y-22923D01*
X43926Y-22811D01*
X43779Y-22750D01*
X43620Y-22749D01*
X43473Y-22810D01*
X43445Y-22839D01*
X43445Y-21162D01*
X43339Y-20908D01*
X43145Y-20713D01*
X42891Y-20607D01*
X42615Y-20607D01*
X42361Y-20712D01*
X42166Y-20907D01*
X42060Y-21161D01*
X42060Y-21437D01*
X42165Y-21691D01*
X42360Y-21886D01*
X42614Y-21992D01*
X42889Y-21992D01*
X43144Y-21887D01*
X43339Y-21692D01*
X43444Y-21438D01*
X43445Y-21162D01*
X43445Y-22839D01*
X43361Y-22923D01*
X43300Y-23070D01*
X43299Y-23229D01*
X43360Y-23376D01*
X43473Y-23488D01*
X43510Y-23504D01*
X43401Y-23613D01*
X43340Y-23760D01*
X43339Y-23919D01*
X43400Y-24066D01*
X43513Y-24178D01*
X43660Y-24239D01*
X43819Y-24240D01*
X43966Y-24179D01*
X44078Y-24066D01*
X44139Y-23919D01*
X44140Y-23760D01*
X44140Y-25754D01*
X44106Y-25721D01*
X43959Y-25660D01*
X43800Y-25659D01*
X43653Y-25720D01*
X43541Y-25833D01*
X43480Y-25980D01*
X43479Y-26139D01*
X43540Y-26286D01*
X43653Y-26398D01*
X43800Y-26459D01*
X43959Y-26460D01*
X44106Y-26399D01*
X44218Y-26286D01*
X44279Y-26139D01*
X44280Y-25980D01*
X44280Y-29158D01*
X44259Y-29150D01*
X44100Y-29149D01*
X43973Y-29202D01*
X43949Y-29143D01*
X43836Y-29031D01*
X43830Y-29028D01*
X43830Y-26950D01*
X43769Y-26803D01*
X43656Y-26691D01*
X43509Y-26630D01*
X43350Y-26629D01*
X43203Y-26690D01*
X43091Y-26803D01*
X43030Y-26950D01*
X43029Y-27109D01*
X43090Y-27256D01*
X43203Y-27368D01*
X43350Y-27429D01*
X43509Y-27430D01*
X43656Y-27369D01*
X43768Y-27256D01*
X43829Y-27109D01*
X43830Y-26950D01*
X43830Y-29028D01*
X43689Y-28970D01*
X43530Y-28969D01*
X43383Y-29030D01*
X43271Y-29143D01*
X43210Y-29290D01*
X43209Y-29449D01*
X43270Y-29596D01*
X43324Y-29650D01*
X43221Y-29753D01*
X43160Y-29900D01*
X43159Y-30059D01*
X43220Y-30206D01*
X43333Y-30318D01*
X43480Y-30379D01*
X43639Y-30380D01*
X43786Y-30319D01*
X43898Y-30206D01*
X43959Y-30059D01*
X43960Y-29900D01*
X43955Y-29889D01*
X44100Y-29949D01*
X44259Y-29950D01*
X44406Y-29889D01*
X44518Y-29776D01*
X44579Y-29629D01*
X44580Y-29470D01*
X44580Y-35000D01*
X44400Y-34999D01*
X44217Y-35075D01*
X44076Y-35216D01*
X44000Y-35400D01*
X44000Y-35401D01*
X44000Y-35400D01*
X43924Y-35217D01*
X43850Y-35142D01*
X43850Y-34650D01*
X43850Y-32450D01*
X43740Y-32450D01*
X43740Y-30750D01*
X43679Y-30603D01*
X43566Y-30491D01*
X43419Y-30430D01*
X43260Y-30429D01*
X43113Y-30490D01*
X43095Y-30509D01*
X43016Y-30431D01*
X43000Y-30424D01*
X43000Y-27460D01*
X42939Y-27313D01*
X42826Y-27201D01*
X42679Y-27140D01*
X42520Y-27139D01*
X42373Y-27200D01*
X42261Y-27313D01*
X42200Y-27460D01*
X42199Y-27619D01*
X42260Y-27766D01*
X42373Y-27878D01*
X42520Y-27939D01*
X42679Y-27940D01*
X42826Y-27879D01*
X42938Y-27766D01*
X42999Y-27619D01*
X43000Y-27460D01*
X43000Y-30424D01*
X42869Y-30370D01*
X42830Y-30370D01*
X42830Y-29130D01*
X42769Y-28983D01*
X42656Y-28871D01*
X42509Y-28810D01*
X42350Y-28809D01*
X42203Y-28870D01*
X42091Y-28983D01*
X42070Y-29033D01*
X42070Y-21800D01*
X42009Y-21653D01*
X41896Y-21541D01*
X41749Y-21480D01*
X41590Y-21479D01*
X41443Y-21540D01*
X41426Y-21557D01*
X41476Y-21438D01*
X41476Y-21162D01*
X41371Y-20908D01*
X41176Y-20713D01*
X40922Y-20607D01*
X40647Y-20607D01*
X40392Y-20712D01*
X40197Y-20907D01*
X40092Y-21161D01*
X40092Y-21437D01*
X40197Y-21691D01*
X40391Y-21886D01*
X40645Y-21992D01*
X40921Y-21992D01*
X41175Y-21887D01*
X41275Y-21787D01*
X41270Y-21800D01*
X41269Y-21959D01*
X41330Y-22106D01*
X41381Y-22157D01*
X41373Y-22160D01*
X41261Y-22273D01*
X41200Y-22420D01*
X41199Y-22579D01*
X41260Y-22726D01*
X41373Y-22838D01*
X41520Y-22899D01*
X41679Y-22900D01*
X41826Y-22839D01*
X41938Y-22726D01*
X41999Y-22579D01*
X42000Y-22420D01*
X41939Y-22273D01*
X41888Y-22222D01*
X41896Y-22219D01*
X42008Y-22106D01*
X42069Y-21959D01*
X42070Y-21800D01*
X42070Y-29033D01*
X42030Y-29130D01*
X42029Y-29289D01*
X42090Y-29436D01*
X42203Y-29548D01*
X42350Y-29609D01*
X42509Y-29610D01*
X42656Y-29549D01*
X42768Y-29436D01*
X42829Y-29289D01*
X42830Y-29130D01*
X42830Y-30370D01*
X42710Y-30369D01*
X42563Y-30430D01*
X42451Y-30543D01*
X42390Y-30690D01*
X42390Y-30130D01*
X42329Y-29983D01*
X42216Y-29871D01*
X42069Y-29810D01*
X41910Y-29809D01*
X41763Y-29870D01*
X41651Y-29983D01*
X41590Y-30130D01*
X41589Y-30289D01*
X41650Y-30436D01*
X41763Y-30548D01*
X41910Y-30609D01*
X42069Y-30610D01*
X42216Y-30549D01*
X42328Y-30436D01*
X42389Y-30289D01*
X42390Y-30130D01*
X42390Y-30690D01*
X42389Y-30849D01*
X42450Y-30996D01*
X42563Y-31108D01*
X42710Y-31169D01*
X42869Y-31170D01*
X43016Y-31109D01*
X43034Y-31090D01*
X43113Y-31168D01*
X43260Y-31229D01*
X43419Y-31230D01*
X43566Y-31169D01*
X43678Y-31056D01*
X43739Y-30909D01*
X43740Y-30750D01*
X43740Y-32450D01*
X43550Y-32450D01*
X43550Y-31550D01*
X41769Y-31550D01*
X41554Y-31978D01*
X41554Y-28181D01*
X41543Y-27963D01*
X41500Y-27857D01*
X41500Y-27000D01*
X41500Y-26000D01*
X41424Y-25817D01*
X41283Y-25676D01*
X41099Y-25600D01*
X40900Y-25599D01*
X40810Y-25637D01*
X40810Y-24400D01*
X40749Y-24253D01*
X40636Y-24141D01*
X40489Y-24080D01*
X40330Y-24079D01*
X40183Y-24140D01*
X40071Y-24253D01*
X40010Y-24400D01*
X40009Y-24559D01*
X40070Y-24706D01*
X40183Y-24818D01*
X40330Y-24879D01*
X40489Y-24880D01*
X40636Y-24819D01*
X40748Y-24706D01*
X40809Y-24559D01*
X40810Y-24400D01*
X40810Y-25637D01*
X40717Y-25675D01*
X40576Y-25816D01*
X40500Y-26000D01*
X40500Y-26001D01*
X40500Y-26000D01*
X40424Y-25817D01*
X40283Y-25676D01*
X40099Y-25600D01*
X39900Y-25599D01*
X39738Y-25667D01*
X39838Y-25566D01*
X39899Y-25419D01*
X39900Y-25260D01*
X39839Y-25113D01*
X39726Y-25001D01*
X39579Y-24940D01*
X39420Y-24939D01*
X39273Y-25000D01*
X39161Y-25113D01*
X39100Y-25260D01*
X39099Y-25419D01*
X39160Y-25566D01*
X39273Y-25678D01*
X39420Y-25739D01*
X39579Y-25740D01*
X39704Y-25688D01*
X39576Y-25816D01*
X39500Y-26000D01*
X39499Y-26199D01*
X39575Y-26382D01*
X39716Y-26523D01*
X39900Y-26599D01*
X40099Y-26600D01*
X40282Y-26524D01*
X40423Y-26383D01*
X40499Y-26199D01*
X40500Y-26000D01*
X40500Y-26001D01*
X40499Y-26199D01*
X40575Y-26382D01*
X40716Y-26523D01*
X40900Y-26599D01*
X41099Y-26600D01*
X41282Y-26524D01*
X41423Y-26383D01*
X41499Y-26199D01*
X41500Y-26000D01*
X41500Y-27000D01*
X41424Y-26817D01*
X41283Y-26676D01*
X41099Y-26600D01*
X40900Y-26599D01*
X40717Y-26675D01*
X40576Y-26816D01*
X40500Y-27000D01*
X40499Y-27199D01*
X40575Y-27382D01*
X40716Y-27523D01*
X40828Y-27570D01*
X40712Y-27618D01*
X40684Y-27714D01*
X41000Y-28029D01*
X41315Y-27714D01*
X41287Y-27618D01*
X41162Y-27573D01*
X41282Y-27524D01*
X41423Y-27383D01*
X41499Y-27199D01*
X41500Y-27000D01*
X41500Y-27857D01*
X41481Y-27812D01*
X41385Y-27784D01*
X41070Y-28100D01*
X41385Y-28415D01*
X41481Y-28387D01*
X41554Y-28181D01*
X41554Y-31978D01*
X41315Y-32457D01*
X41315Y-28485D01*
X41000Y-28170D01*
X40929Y-28241D01*
X40929Y-28100D01*
X40614Y-27784D01*
X40518Y-27812D01*
X40500Y-27864D01*
X40500Y-27760D01*
X40469Y-27686D01*
X40413Y-27630D01*
X40339Y-27600D01*
X40260Y-27599D01*
X40099Y-27599D01*
X40282Y-27524D01*
X40423Y-27383D01*
X40499Y-27199D01*
X40500Y-27000D01*
X40424Y-26817D01*
X40283Y-26676D01*
X40099Y-26600D01*
X39900Y-26599D01*
X39717Y-26675D01*
X39576Y-26816D01*
X39500Y-27000D01*
X39499Y-27199D01*
X39575Y-27382D01*
X39716Y-27523D01*
X39900Y-27599D01*
X39960Y-27599D01*
X39660Y-27599D01*
X39586Y-27630D01*
X39530Y-27686D01*
X39500Y-27760D01*
X39499Y-27839D01*
X39499Y-28439D01*
X39530Y-28513D01*
X39586Y-28569D01*
X39660Y-28599D01*
X39739Y-28600D01*
X40339Y-28600D01*
X40413Y-28569D01*
X40469Y-28513D01*
X40499Y-28439D01*
X40500Y-28360D01*
X40500Y-28342D01*
X40518Y-28387D01*
X40614Y-28415D01*
X40929Y-28100D01*
X40929Y-28241D01*
X40684Y-28485D01*
X40712Y-28581D01*
X40918Y-28654D01*
X41136Y-28643D01*
X41287Y-28581D01*
X41315Y-28485D01*
X41315Y-32457D01*
X41269Y-32550D01*
X40950Y-32550D01*
X40950Y-34650D01*
X43850Y-34650D01*
X43850Y-35142D01*
X43783Y-35076D01*
X43599Y-35000D01*
X43400Y-34999D01*
X43217Y-35075D01*
X43076Y-35216D01*
X43000Y-35400D01*
X43000Y-35401D01*
X43000Y-35400D01*
X42924Y-35217D01*
X42783Y-35076D01*
X42599Y-35000D01*
X42400Y-34999D01*
X42217Y-35075D01*
X42076Y-35216D01*
X42000Y-35400D01*
X42000Y-35401D01*
X42000Y-35400D01*
X41924Y-35217D01*
X41783Y-35076D01*
X41599Y-35000D01*
X41400Y-34999D01*
X41217Y-35075D01*
X41076Y-35216D01*
X41000Y-35400D01*
X41000Y-35401D01*
X41000Y-35400D01*
X40924Y-35217D01*
X40840Y-35132D01*
X40840Y-31020D01*
X40779Y-30873D01*
X40710Y-30804D01*
X40763Y-30751D01*
X40824Y-30604D01*
X40825Y-30445D01*
X40764Y-30298D01*
X40651Y-30186D01*
X40504Y-30125D01*
X40345Y-30124D01*
X40198Y-30185D01*
X40086Y-30298D01*
X40025Y-30445D01*
X40024Y-30604D01*
X40085Y-30751D01*
X40154Y-30820D01*
X40124Y-30850D01*
X39300Y-30850D01*
X39299Y-30850D01*
X39300Y-30700D01*
X39224Y-30517D01*
X39083Y-30376D01*
X38899Y-30300D01*
X38839Y-30300D01*
X39139Y-30300D01*
X39213Y-30269D01*
X39269Y-30213D01*
X39299Y-30139D01*
X39300Y-30060D01*
X39300Y-29460D01*
X39269Y-29386D01*
X39213Y-29330D01*
X39140Y-29300D01*
X39140Y-28300D01*
X39100Y-28203D01*
X39100Y-26920D01*
X39039Y-26773D01*
X38926Y-26661D01*
X38779Y-26600D01*
X38620Y-26599D01*
X38500Y-26649D01*
X38500Y-25820D01*
X38439Y-25673D01*
X38326Y-25561D01*
X38179Y-25500D01*
X38020Y-25499D01*
X37980Y-25516D01*
X37980Y-24020D01*
X37919Y-23873D01*
X37806Y-23761D01*
X37659Y-23700D01*
X37500Y-23699D01*
X37353Y-23760D01*
X37241Y-23873D01*
X37180Y-24020D01*
X37179Y-24179D01*
X37213Y-24260D01*
X37198Y-24254D01*
X37001Y-24254D01*
X36819Y-24329D01*
X36680Y-24468D01*
X36604Y-24651D01*
X36604Y-24848D01*
X36679Y-25030D01*
X36818Y-25169D01*
X37001Y-25245D01*
X37198Y-25245D01*
X37380Y-25170D01*
X37519Y-25031D01*
X37595Y-24848D01*
X37595Y-24651D01*
X37532Y-24499D01*
X37659Y-24500D01*
X37806Y-24439D01*
X37918Y-24326D01*
X37979Y-24179D01*
X37980Y-24020D01*
X37980Y-25516D01*
X37873Y-25560D01*
X37761Y-25673D01*
X37700Y-25820D01*
X37699Y-25979D01*
X37760Y-26126D01*
X37873Y-26238D01*
X38020Y-26299D01*
X38179Y-26300D01*
X38326Y-26239D01*
X38438Y-26126D01*
X38499Y-25979D01*
X38500Y-25820D01*
X38500Y-26649D01*
X38473Y-26660D01*
X38361Y-26773D01*
X38335Y-26835D01*
X38289Y-26723D01*
X38176Y-26611D01*
X38029Y-26550D01*
X37870Y-26549D01*
X37723Y-26610D01*
X37611Y-26723D01*
X37595Y-26760D01*
X37595Y-26651D01*
X37520Y-26469D01*
X37381Y-26330D01*
X37198Y-26254D01*
X37001Y-26254D01*
X36870Y-26308D01*
X36870Y-26191D01*
X37001Y-26245D01*
X37198Y-26245D01*
X37380Y-26170D01*
X37519Y-26031D01*
X37595Y-25848D01*
X37595Y-25651D01*
X37520Y-25469D01*
X37381Y-25330D01*
X37198Y-25254D01*
X37001Y-25254D01*
X36819Y-25329D01*
X36680Y-25468D01*
X36622Y-25608D01*
X36576Y-25563D01*
X36521Y-25526D01*
X36595Y-25348D01*
X36595Y-25151D01*
X36520Y-24969D01*
X36381Y-24830D01*
X36198Y-24754D01*
X36001Y-24754D01*
X35819Y-24829D01*
X35680Y-24968D01*
X35650Y-25040D01*
X35593Y-24904D01*
X35397Y-24706D01*
X35139Y-24600D01*
X35100Y-24600D01*
X35100Y-24020D01*
X35039Y-23873D01*
X34926Y-23761D01*
X34779Y-23700D01*
X34620Y-23699D01*
X34473Y-23760D01*
X34441Y-23793D01*
X34379Y-23642D01*
X34120Y-23383D01*
X33783Y-23243D01*
X33418Y-23243D01*
X33080Y-23382D01*
X32821Y-23641D01*
X32681Y-23978D01*
X32681Y-24343D01*
X32820Y-24681D01*
X33079Y-24940D01*
X33416Y-25080D01*
X33781Y-25080D01*
X34119Y-24941D01*
X34378Y-24682D01*
X34478Y-24441D01*
X34620Y-24499D01*
X34779Y-24500D01*
X34926Y-24439D01*
X35038Y-24326D01*
X35099Y-24179D01*
X35100Y-24020D01*
X35100Y-24600D01*
X34861Y-24599D01*
X34604Y-24706D01*
X34406Y-24902D01*
X34300Y-25160D01*
X34299Y-25308D01*
X34279Y-25300D01*
X34120Y-25299D01*
X33973Y-25360D01*
X33861Y-25473D01*
X33800Y-25620D01*
X33799Y-25779D01*
X33860Y-25926D01*
X33973Y-26038D01*
X34120Y-26099D01*
X34279Y-26100D01*
X34426Y-26039D01*
X34538Y-25926D01*
X34567Y-25857D01*
X34602Y-25893D01*
X34860Y-25999D01*
X35138Y-26000D01*
X35396Y-25893D01*
X35448Y-25841D01*
X35523Y-25916D01*
X35604Y-25970D01*
X35673Y-25984D01*
X35604Y-26151D01*
X35604Y-26348D01*
X35679Y-26530D01*
X35818Y-26669D01*
X36001Y-26745D01*
X36198Y-26745D01*
X36370Y-26674D01*
X36370Y-26825D01*
X36198Y-26754D01*
X36001Y-26754D01*
X35819Y-26829D01*
X35693Y-26955D01*
X35699Y-26939D01*
X35700Y-26661D01*
X35593Y-26404D01*
X35397Y-26206D01*
X35139Y-26100D01*
X34861Y-26099D01*
X34604Y-26206D01*
X34406Y-26402D01*
X34300Y-26660D01*
X34299Y-26938D01*
X34406Y-27196D01*
X34602Y-27393D01*
X34860Y-27499D01*
X35138Y-27500D01*
X35396Y-27393D01*
X35593Y-27197D01*
X35604Y-27169D01*
X35604Y-27348D01*
X35679Y-27530D01*
X35818Y-27669D01*
X36001Y-27745D01*
X36198Y-27745D01*
X36380Y-27670D01*
X36519Y-27531D01*
X36522Y-27525D01*
X36617Y-27620D01*
X36604Y-27651D01*
X36604Y-27848D01*
X36679Y-28030D01*
X36818Y-28169D01*
X37001Y-28245D01*
X37198Y-28245D01*
X37380Y-28170D01*
X37519Y-28031D01*
X37595Y-27848D01*
X37595Y-27651D01*
X37520Y-27469D01*
X37381Y-27330D01*
X37198Y-27254D01*
X37001Y-27254D01*
X36970Y-27267D01*
X36912Y-27208D01*
X37001Y-27245D01*
X37198Y-27245D01*
X37380Y-27170D01*
X37519Y-27031D01*
X37549Y-26958D01*
X37549Y-27029D01*
X37610Y-27176D01*
X37723Y-27288D01*
X37870Y-27349D01*
X38029Y-27350D01*
X38176Y-27289D01*
X38288Y-27176D01*
X38314Y-27114D01*
X38360Y-27226D01*
X38473Y-27338D01*
X38620Y-27399D01*
X38779Y-27400D01*
X38926Y-27339D01*
X39038Y-27226D01*
X39099Y-27079D01*
X39100Y-26920D01*
X39100Y-28203D01*
X39079Y-28153D01*
X38966Y-28041D01*
X38819Y-27980D01*
X38660Y-27979D01*
X38513Y-28040D01*
X38401Y-28153D01*
X38340Y-28300D01*
X38339Y-28459D01*
X38400Y-28606D01*
X38513Y-28718D01*
X38660Y-28779D01*
X38819Y-28780D01*
X38966Y-28719D01*
X39078Y-28606D01*
X39139Y-28459D01*
X39140Y-28300D01*
X39140Y-29300D01*
X39139Y-29300D01*
X39060Y-29299D01*
X38460Y-29299D01*
X38386Y-29330D01*
X38330Y-29386D01*
X38300Y-29460D01*
X38299Y-29539D01*
X38299Y-30139D01*
X38330Y-30213D01*
X38386Y-30269D01*
X38460Y-30299D01*
X38539Y-30300D01*
X38700Y-30300D01*
X38517Y-30375D01*
X38376Y-30516D01*
X38300Y-30700D01*
X38299Y-30899D01*
X38375Y-31082D01*
X38516Y-31223D01*
X38567Y-31245D01*
X37555Y-31245D01*
X37595Y-31148D01*
X37595Y-30951D01*
X37520Y-30769D01*
X37381Y-30630D01*
X37198Y-30554D01*
X37001Y-30554D01*
X36819Y-30629D01*
X36680Y-30768D01*
X36604Y-30951D01*
X36604Y-31148D01*
X36679Y-31330D01*
X36682Y-31333D01*
X36595Y-31420D01*
X36595Y-28505D01*
X36595Y-27914D01*
X36565Y-27841D01*
X36508Y-27785D01*
X36435Y-27754D01*
X36355Y-27754D01*
X35764Y-27754D01*
X35700Y-27781D01*
X35700Y-27760D01*
X35669Y-27686D01*
X35613Y-27630D01*
X35539Y-27600D01*
X35460Y-27599D01*
X34460Y-27599D01*
X34386Y-27630D01*
X34330Y-27686D01*
X34300Y-27760D01*
X34299Y-27839D01*
X34299Y-28236D01*
X34120Y-28056D01*
X33783Y-27916D01*
X33418Y-27916D01*
X33080Y-28055D01*
X32821Y-28314D01*
X32681Y-28651D01*
X32681Y-29016D01*
X32820Y-29354D01*
X33079Y-29613D01*
X33163Y-29648D01*
X33080Y-29682D01*
X32821Y-29941D01*
X32681Y-30278D01*
X32681Y-30643D01*
X32820Y-30981D01*
X33079Y-31240D01*
X33416Y-31380D01*
X33781Y-31380D01*
X34119Y-31241D01*
X34378Y-30982D01*
X34518Y-30645D01*
X34518Y-30280D01*
X34379Y-29942D01*
X34120Y-29683D01*
X34036Y-29648D01*
X34119Y-29614D01*
X34378Y-29355D01*
X34518Y-29018D01*
X34518Y-29000D01*
X34539Y-29000D01*
X35539Y-29000D01*
X35613Y-28969D01*
X35669Y-28913D01*
X35699Y-28839D01*
X35700Y-28760D01*
X35700Y-28718D01*
X35764Y-28745D01*
X35844Y-28745D01*
X36435Y-28745D01*
X36508Y-28715D01*
X36564Y-28658D01*
X36595Y-28585D01*
X36595Y-28505D01*
X36595Y-31420D01*
X36586Y-31429D01*
X36520Y-31269D01*
X36381Y-31130D01*
X36198Y-31054D01*
X36001Y-31054D01*
X35819Y-31129D01*
X35680Y-31268D01*
X35604Y-31451D01*
X35604Y-31648D01*
X35671Y-31810D01*
X35445Y-31810D01*
X35478Y-31776D01*
X35539Y-31629D01*
X35540Y-31470D01*
X35479Y-31323D01*
X35366Y-31211D01*
X35219Y-31150D01*
X35060Y-31149D01*
X34913Y-31210D01*
X34801Y-31323D01*
X34740Y-31470D01*
X34739Y-31629D01*
X34800Y-31776D01*
X34834Y-31810D01*
X34095Y-31810D01*
X34006Y-31721D01*
X33859Y-31660D01*
X33700Y-31659D01*
X33553Y-31720D01*
X33441Y-31833D01*
X33380Y-31980D01*
X33379Y-32139D01*
X33440Y-32286D01*
X33553Y-32398D01*
X33700Y-32459D01*
X33859Y-32460D01*
X34006Y-32399D01*
X34095Y-32310D01*
X35663Y-32310D01*
X35604Y-32451D01*
X35604Y-32648D01*
X35667Y-32800D01*
X34010Y-32800D01*
X33914Y-32819D01*
X33833Y-32873D01*
X33833Y-32873D01*
X33806Y-32900D01*
X33680Y-32899D01*
X33533Y-32960D01*
X33421Y-33073D01*
X33360Y-33220D01*
X33359Y-33379D01*
X33420Y-33526D01*
X33533Y-33638D01*
X33680Y-33699D01*
X33839Y-33700D01*
X33986Y-33639D01*
X34098Y-33526D01*
X34159Y-33379D01*
X34160Y-33300D01*
X35667Y-33300D01*
X35604Y-33451D01*
X35604Y-33648D01*
X35679Y-33830D01*
X35818Y-33969D01*
X36001Y-34045D01*
X36198Y-34045D01*
X36380Y-33970D01*
X36519Y-33831D01*
X36595Y-33648D01*
X36595Y-33451D01*
X36520Y-33269D01*
X36501Y-33250D01*
X36536Y-33226D01*
X36607Y-33155D01*
X36679Y-33330D01*
X36818Y-33469D01*
X37001Y-33545D01*
X37198Y-33545D01*
X37380Y-33470D01*
X37519Y-33331D01*
X37595Y-33148D01*
X37595Y-32951D01*
X37520Y-32769D01*
X37512Y-32761D01*
X37515Y-32760D01*
X37596Y-32706D01*
X37899Y-32403D01*
X37899Y-32739D01*
X37930Y-32813D01*
X37986Y-32869D01*
X38060Y-32899D01*
X38139Y-32900D01*
X38739Y-32900D01*
X38813Y-32869D01*
X38869Y-32813D01*
X38899Y-32739D01*
X38900Y-32660D01*
X38900Y-32499D01*
X38975Y-32682D01*
X39116Y-32823D01*
X39300Y-32899D01*
X39499Y-32900D01*
X39682Y-32824D01*
X39823Y-32683D01*
X39899Y-32499D01*
X39900Y-32300D01*
X39829Y-32130D01*
X40104Y-32130D01*
X40193Y-32218D01*
X40340Y-32279D01*
X40499Y-32280D01*
X40646Y-32219D01*
X40758Y-32106D01*
X40819Y-31959D01*
X40820Y-31800D01*
X40759Y-31653D01*
X40646Y-31541D01*
X40533Y-31494D01*
X40666Y-31439D01*
X40778Y-31326D01*
X40839Y-31179D01*
X40840Y-31020D01*
X40840Y-35132D01*
X40783Y-35076D01*
X40599Y-35000D01*
X40400Y-34999D01*
X40217Y-35075D01*
X40076Y-35216D01*
X40000Y-35400D01*
X40000Y-35401D01*
X40000Y-35400D01*
X39924Y-35217D01*
X39783Y-35076D01*
X39599Y-35000D01*
X39400Y-34999D01*
X39217Y-35075D01*
X39076Y-35216D01*
X39000Y-35400D01*
X38999Y-35599D01*
X39075Y-35782D01*
X39216Y-35923D01*
X39400Y-35999D01*
X39599Y-36000D01*
X39782Y-35924D01*
X39923Y-35783D01*
X39999Y-35599D01*
X40000Y-35400D01*
X40000Y-35401D01*
X39999Y-35599D01*
X40075Y-35782D01*
X40216Y-35923D01*
X40400Y-35999D01*
X40599Y-36000D01*
X40782Y-35924D01*
X40923Y-35783D01*
X40999Y-35599D01*
X41000Y-35400D01*
X41000Y-35401D01*
X40999Y-35599D01*
X41075Y-35782D01*
X41216Y-35923D01*
X41400Y-35999D01*
X41599Y-36000D01*
X41782Y-35924D01*
X41923Y-35783D01*
X41999Y-35599D01*
X42000Y-35400D01*
X42000Y-35401D01*
X41999Y-35599D01*
X42075Y-35782D01*
X42216Y-35923D01*
X42400Y-35999D01*
X42599Y-36000D01*
X42782Y-35924D01*
X42923Y-35783D01*
X42999Y-35599D01*
X43000Y-35400D01*
X43000Y-35401D01*
X42999Y-35599D01*
X43075Y-35782D01*
X43216Y-35923D01*
X43400Y-35999D01*
X43599Y-36000D01*
X43782Y-35924D01*
X43850Y-35857D01*
X43923Y-35783D01*
X43999Y-35599D01*
X44000Y-35400D01*
X44000Y-35401D01*
X43999Y-35599D01*
X44075Y-35782D01*
X44216Y-35923D01*
X44400Y-35999D01*
X44599Y-36000D01*
X44782Y-35924D01*
X44923Y-35783D01*
X44999Y-35599D01*
X45000Y-35400D01*
X45000Y-35401D01*
X44999Y-35599D01*
X45075Y-35782D01*
X45216Y-35923D01*
X45400Y-35999D01*
X45599Y-36000D01*
X45782Y-35924D01*
X45923Y-35783D01*
X45999Y-35599D01*
X46000Y-35400D01*
X46000Y-35401D01*
X45999Y-35599D01*
X46075Y-35782D01*
X46216Y-35923D01*
X46400Y-35999D01*
X46460Y-35999D01*
X46160Y-35999D01*
X46086Y-36030D01*
X46030Y-36086D01*
X46000Y-36160D01*
X45999Y-36239D01*
X45999Y-36400D01*
X45924Y-36217D01*
X45783Y-36076D01*
X45599Y-36000D01*
X45400Y-35999D01*
X45217Y-36075D01*
X45076Y-36216D01*
X45000Y-36400D01*
X44999Y-36599D01*
X45075Y-36782D01*
X45216Y-36923D01*
X45250Y-36937D01*
X45250Y-38062D01*
X45217Y-38075D01*
X45076Y-38216D01*
X45000Y-38400D01*
X44999Y-38599D01*
X45041Y-38700D01*
X44958Y-38700D01*
X44999Y-38599D01*
X45000Y-38400D01*
X44924Y-38217D01*
X44783Y-38076D01*
X44750Y-38062D01*
X44750Y-36937D01*
X44782Y-36924D01*
X44923Y-36783D01*
X44999Y-36599D01*
X45000Y-36400D01*
X44924Y-36217D01*
X44783Y-36076D01*
X44599Y-36000D01*
X44400Y-35999D01*
X44217Y-36075D01*
X44076Y-36216D01*
X44000Y-36400D01*
X43999Y-36599D01*
X44075Y-36782D01*
X44216Y-36923D01*
X44250Y-36937D01*
X44250Y-38062D01*
X44217Y-38075D01*
X44076Y-38216D01*
X44000Y-38400D01*
X43999Y-38599D01*
X44041Y-38700D01*
X43958Y-38700D01*
X43999Y-38599D01*
X44000Y-38400D01*
X43924Y-38217D01*
X43850Y-38142D01*
X43783Y-38076D01*
X43750Y-38062D01*
X43750Y-36937D01*
X43782Y-36924D01*
X43850Y-36857D01*
X43923Y-36783D01*
X43999Y-36599D01*
X44000Y-36400D01*
X43924Y-36217D01*
X43850Y-36142D01*
X43783Y-36076D01*
X43599Y-36000D01*
X43400Y-35999D01*
X43217Y-36075D01*
X43076Y-36216D01*
X43000Y-36400D01*
X42999Y-36599D01*
X43075Y-36782D01*
X43216Y-36923D01*
X43250Y-36937D01*
X43250Y-38062D01*
X43217Y-38075D01*
X43076Y-38216D01*
X43000Y-38400D01*
X42999Y-38599D01*
X43041Y-38700D01*
X42958Y-38700D01*
X42999Y-38599D01*
X43000Y-38400D01*
X42924Y-38217D01*
X42783Y-38076D01*
X42750Y-38062D01*
X42750Y-36937D01*
X42782Y-36924D01*
X42923Y-36783D01*
X42999Y-36599D01*
X43000Y-36400D01*
X42924Y-36217D01*
X42783Y-36076D01*
X42599Y-36000D01*
X42400Y-35999D01*
X42217Y-36075D01*
X42076Y-36216D01*
X42000Y-36400D01*
X41999Y-36599D01*
X42075Y-36782D01*
X42216Y-36923D01*
X42250Y-36937D01*
X42250Y-38062D01*
X42217Y-38075D01*
X42076Y-38216D01*
X42000Y-38400D01*
X41999Y-38599D01*
X42041Y-38700D01*
X41958Y-38700D01*
X41999Y-38599D01*
X42000Y-38400D01*
X41924Y-38217D01*
X41783Y-38076D01*
X41750Y-38062D01*
X41750Y-36937D01*
X41782Y-36924D01*
X41923Y-36783D01*
X41999Y-36599D01*
X42000Y-36400D01*
X41924Y-36217D01*
X41783Y-36076D01*
X41599Y-36000D01*
X41400Y-35999D01*
X41217Y-36075D01*
X41076Y-36216D01*
X41000Y-36400D01*
X40999Y-36599D01*
X41075Y-36782D01*
X41216Y-36923D01*
X41250Y-36937D01*
X41250Y-38062D01*
X41217Y-38075D01*
X41076Y-38216D01*
X41000Y-38400D01*
X40999Y-38599D01*
X41041Y-38700D01*
X40958Y-38700D01*
X40999Y-38599D01*
X41000Y-38400D01*
X40924Y-38217D01*
X40783Y-38076D01*
X40750Y-38062D01*
X40750Y-36937D01*
X40782Y-36924D01*
X40923Y-36783D01*
X40999Y-36599D01*
X41000Y-36400D01*
X40924Y-36217D01*
X40783Y-36076D01*
X40599Y-36000D01*
X40400Y-35999D01*
X40217Y-36075D01*
X40076Y-36216D01*
X40000Y-36400D01*
X39999Y-36599D01*
X40075Y-36782D01*
X40216Y-36923D01*
X40250Y-36937D01*
X40250Y-38062D01*
X40217Y-38075D01*
X40076Y-38216D01*
X40000Y-38400D01*
X39999Y-38599D01*
X40041Y-38700D01*
X39958Y-38700D01*
X39999Y-38599D01*
X40000Y-38400D01*
X39924Y-38217D01*
X39783Y-38076D01*
X39750Y-38062D01*
X39750Y-36937D01*
X39782Y-36924D01*
X39923Y-36783D01*
X39999Y-36599D01*
X40000Y-36400D01*
X39924Y-36217D01*
X39783Y-36076D01*
X39599Y-36000D01*
X39400Y-35999D01*
X39217Y-36075D01*
X39076Y-36216D01*
X39000Y-36400D01*
X38999Y-36599D01*
X39075Y-36782D01*
X39216Y-36923D01*
X39250Y-36937D01*
X39250Y-38062D01*
X39217Y-38075D01*
X39191Y-38101D01*
X39139Y-37973D01*
X39026Y-37861D01*
X38900Y-37808D01*
X38900Y-36120D01*
X38839Y-35973D01*
X38726Y-35861D01*
X38579Y-35800D01*
X38420Y-35799D01*
X38273Y-35860D01*
X38161Y-35973D01*
X38100Y-36120D01*
X38099Y-36279D01*
X38160Y-36426D01*
X38273Y-36538D01*
X38420Y-36599D01*
X38579Y-36600D01*
X38726Y-36539D01*
X38838Y-36426D01*
X38899Y-36279D01*
X38900Y-36120D01*
X38900Y-37808D01*
X38879Y-37800D01*
X38720Y-37799D01*
X38627Y-37838D01*
X38638Y-37826D01*
X38699Y-37679D01*
X38700Y-37520D01*
X38639Y-37373D01*
X38526Y-37261D01*
X38379Y-37200D01*
X38220Y-37199D01*
X38073Y-37260D01*
X37961Y-37373D01*
X37930Y-37447D01*
X37930Y-37095D01*
X37849Y-36900D01*
X37700Y-36750D01*
X37595Y-36707D01*
X37595Y-33951D01*
X37520Y-33769D01*
X37381Y-33630D01*
X37198Y-33554D01*
X37001Y-33554D01*
X36819Y-33629D01*
X36680Y-33768D01*
X36604Y-33951D01*
X36604Y-34148D01*
X36679Y-34330D01*
X36818Y-34469D01*
X37001Y-34545D01*
X37198Y-34545D01*
X37380Y-34470D01*
X37519Y-34331D01*
X37595Y-34148D01*
X37595Y-33951D01*
X37595Y-36707D01*
X37505Y-36670D01*
X37295Y-36669D01*
X37100Y-36750D01*
X37100Y-36750D01*
X37100Y-35520D01*
X37039Y-35373D01*
X36926Y-35261D01*
X36779Y-35200D01*
X36620Y-35199D01*
X36595Y-35210D01*
X36595Y-34805D01*
X36595Y-34214D01*
X36565Y-34141D01*
X36508Y-34085D01*
X36435Y-34054D01*
X36355Y-34054D01*
X35764Y-34054D01*
X35691Y-34084D01*
X35635Y-34141D01*
X35604Y-34214D01*
X35604Y-34294D01*
X35604Y-34885D01*
X35634Y-34958D01*
X35691Y-35014D01*
X35764Y-35045D01*
X35844Y-35045D01*
X36435Y-35045D01*
X36508Y-35015D01*
X36564Y-34958D01*
X36595Y-34885D01*
X36595Y-34805D01*
X36595Y-35210D01*
X36473Y-35260D01*
X36361Y-35373D01*
X36300Y-35520D01*
X36299Y-35679D01*
X36360Y-35826D01*
X36473Y-35938D01*
X36620Y-35999D01*
X36779Y-36000D01*
X36926Y-35939D01*
X37038Y-35826D01*
X37099Y-35679D01*
X37100Y-35520D01*
X37100Y-36750D01*
X36950Y-36899D01*
X36899Y-37022D01*
X36849Y-36900D01*
X36700Y-36750D01*
X36505Y-36670D01*
X36295Y-36669D01*
X36100Y-36750D01*
X35950Y-36899D01*
X35899Y-37022D01*
X35849Y-36900D01*
X35700Y-36750D01*
X35620Y-36717D01*
X35620Y-35410D01*
X35559Y-35263D01*
X35446Y-35151D01*
X35299Y-35090D01*
X35140Y-35089D01*
X34993Y-35150D01*
X34881Y-35263D01*
X34820Y-35410D01*
X34819Y-35569D01*
X34880Y-35716D01*
X34993Y-35828D01*
X35140Y-35889D01*
X35299Y-35890D01*
X35446Y-35829D01*
X35558Y-35716D01*
X35619Y-35569D01*
X35620Y-35410D01*
X35620Y-36717D01*
X35505Y-36670D01*
X35295Y-36669D01*
X35100Y-36750D01*
X34950Y-36899D01*
X34870Y-37094D01*
X34869Y-37304D01*
X34950Y-37499D01*
X35099Y-37649D01*
X35294Y-37729D01*
X35504Y-37730D01*
X35699Y-37649D01*
X35849Y-37500D01*
X35900Y-37377D01*
X35950Y-37499D01*
X36099Y-37649D01*
X36294Y-37729D01*
X36504Y-37730D01*
X36699Y-37649D01*
X36849Y-37500D01*
X36900Y-37377D01*
X36950Y-37499D01*
X37099Y-37649D01*
X37294Y-37729D01*
X37504Y-37730D01*
X37699Y-37649D01*
X37849Y-37500D01*
X37929Y-37305D01*
X37930Y-37095D01*
X37930Y-37447D01*
X37900Y-37520D01*
X37899Y-37679D01*
X37960Y-37826D01*
X38073Y-37938D01*
X38220Y-37999D01*
X38379Y-38000D01*
X38472Y-37961D01*
X38461Y-37973D01*
X38400Y-38120D01*
X38399Y-38279D01*
X38460Y-38426D01*
X38573Y-38538D01*
X38720Y-38599D01*
X38879Y-38600D01*
X38999Y-38550D01*
X38999Y-38599D01*
X39041Y-38700D01*
X36200Y-38700D01*
X36200Y-38150D01*
X35640Y-38150D01*
X35640Y-37920D01*
X34759Y-37920D01*
X34759Y-38150D01*
X34737Y-38150D01*
X34745Y-38129D01*
X34746Y-37463D01*
X34518Y-36912D01*
X34518Y-34953D01*
X34379Y-34615D01*
X34120Y-34356D01*
X33783Y-34216D01*
X33418Y-34216D01*
X33080Y-34355D01*
X33000Y-34436D01*
X33000Y-32420D01*
X32939Y-32273D01*
X32826Y-32161D01*
X32679Y-32100D01*
X32520Y-32099D01*
X32373Y-32160D01*
X32261Y-32273D01*
X32200Y-32420D01*
X32199Y-32579D01*
X32260Y-32726D01*
X32373Y-32838D01*
X32520Y-32899D01*
X32679Y-32900D01*
X32826Y-32839D01*
X32938Y-32726D01*
X32999Y-32579D01*
X33000Y-32420D01*
X33000Y-34436D01*
X32821Y-34614D01*
X32681Y-34951D01*
X32681Y-35316D01*
X32820Y-35654D01*
X33079Y-35913D01*
X33416Y-36053D01*
X33781Y-36053D01*
X34119Y-35914D01*
X34378Y-35655D01*
X34518Y-35318D01*
X34518Y-34953D01*
X34518Y-36912D01*
X34491Y-36847D01*
X34020Y-36376D01*
X33405Y-36120D01*
X32739Y-36119D01*
X32123Y-36374D01*
X32050Y-36447D01*
X32050Y-22559D01*
X32140Y-22649D01*
X32743Y-22900D01*
X33395Y-22900D01*
X33998Y-22651D01*
X34400Y-22250D01*
X34399Y-22379D01*
X34460Y-22526D01*
X34573Y-22638D01*
X34720Y-22699D01*
X34879Y-22700D01*
X35026Y-22639D01*
X35115Y-22550D01*
X37386Y-22550D01*
X38836Y-24000D01*
X38720Y-23999D01*
X38573Y-24060D01*
X38461Y-24173D01*
X38400Y-24320D01*
X38399Y-24479D01*
X38460Y-24626D01*
X38573Y-24738D01*
X38720Y-24799D01*
X38879Y-24800D01*
X39026Y-24739D01*
X39049Y-24715D01*
X39073Y-24738D01*
X39220Y-24799D01*
X39379Y-24800D01*
X39526Y-24739D01*
X39638Y-24626D01*
X39699Y-24479D01*
X39700Y-24320D01*
X39639Y-24173D01*
X39543Y-24077D01*
X39530Y-24014D01*
X39530Y-24014D01*
X39507Y-23979D01*
X39507Y-21162D01*
X39402Y-20908D01*
X39208Y-20713D01*
X38954Y-20607D01*
X38678Y-20607D01*
X38424Y-20712D01*
X38229Y-20907D01*
X38123Y-21161D01*
X38123Y-21437D01*
X38228Y-21691D01*
X38423Y-21886D01*
X38677Y-21992D01*
X38952Y-21992D01*
X39207Y-21887D01*
X39402Y-21692D01*
X39507Y-21438D01*
X39507Y-21162D01*
X39507Y-23979D01*
X39476Y-23933D01*
X37666Y-22123D01*
X37585Y-22069D01*
X37539Y-22059D01*
X37539Y-21162D01*
X37434Y-20908D01*
X37239Y-20713D01*
X36985Y-20607D01*
X36710Y-20607D01*
X36455Y-20712D01*
X36260Y-20907D01*
X36155Y-21161D01*
X36154Y-21437D01*
X36260Y-21691D01*
X36454Y-21886D01*
X36708Y-21992D01*
X36984Y-21992D01*
X37238Y-21887D01*
X37433Y-21692D01*
X37539Y-21438D01*
X37539Y-21162D01*
X37539Y-22059D01*
X37490Y-22050D01*
X35115Y-22050D01*
X35026Y-21961D01*
X34879Y-21900D01*
X34720Y-21899D01*
X34573Y-21960D01*
X34543Y-21990D01*
X34711Y-21587D01*
X34711Y-20934D01*
X34462Y-20331D01*
X34430Y-20300D01*
X45699Y-20300D01*
X45699Y-20379D01*
X45760Y-20526D01*
X45873Y-20638D01*
X45959Y-20674D01*
X45861Y-20773D01*
X45800Y-20920D01*
X45799Y-21079D01*
X45860Y-21226D01*
X45888Y-21254D01*
X45873Y-21260D01*
X45761Y-21373D01*
X45700Y-21520D01*
X45699Y-21679D01*
X45760Y-21826D01*
X45873Y-21938D01*
X46020Y-21999D01*
X46179Y-22000D01*
X46326Y-21939D01*
X46438Y-21826D01*
X46499Y-21679D01*
X46500Y-21520D01*
X46439Y-21373D01*
X46411Y-21345D01*
X46426Y-21339D01*
X46538Y-21226D01*
X46595Y-21090D01*
X46595Y-21248D01*
X46625Y-21400D01*
X46711Y-21528D01*
X46840Y-21614D01*
X46992Y-21645D01*
X47144Y-21614D01*
X47273Y-21528D01*
X47281Y-21516D01*
X47446Y-21516D01*
X47605Y-21484D01*
X47643Y-21459D01*
X47643Y-21460D01*
X47724Y-21541D01*
X47830Y-21585D01*
X47945Y-21585D01*
X48051Y-21541D01*
X48132Y-21460D01*
X48144Y-21433D01*
X48155Y-21460D01*
X48236Y-21541D01*
X48342Y-21585D01*
X48457Y-21585D01*
X48563Y-21541D01*
X48644Y-21460D01*
X48655Y-21433D01*
X48667Y-21460D01*
X48748Y-21541D01*
X48854Y-21585D01*
X48968Y-21585D01*
X49075Y-21541D01*
X49156Y-21460D01*
X49156Y-21459D01*
X49194Y-21484D01*
X49353Y-21516D01*
X49518Y-21516D01*
X49526Y-21528D01*
X49655Y-21614D01*
X49807Y-21645D01*
X49959Y-21614D01*
X50088Y-21528D01*
X50174Y-21400D01*
X50204Y-21248D01*
X50204Y-21169D01*
X50273Y-21238D01*
X50420Y-21299D01*
X50579Y-21300D01*
X50726Y-21239D01*
X50838Y-21126D01*
X50849Y-21100D01*
X50860Y-21126D01*
X50973Y-21238D01*
X51120Y-21299D01*
X51279Y-21300D01*
X51426Y-21239D01*
X51538Y-21126D01*
X51599Y-20979D01*
X51600Y-20820D01*
X51539Y-20673D01*
X51426Y-20561D01*
X51279Y-20500D01*
X51120Y-20499D01*
X50973Y-20560D01*
X50861Y-20673D01*
X50850Y-20699D01*
X50839Y-20673D01*
X50726Y-20561D01*
X50579Y-20500D01*
X50420Y-20499D01*
X50273Y-20560D01*
X50161Y-20673D01*
X50133Y-20739D01*
X50088Y-20671D01*
X49959Y-20585D01*
X49807Y-20554D01*
X49655Y-20585D01*
X49526Y-20671D01*
X49518Y-20683D01*
X49353Y-20683D01*
X49194Y-20715D01*
X49059Y-20805D01*
X48968Y-20940D01*
X48955Y-21008D01*
X48854Y-21008D01*
X48844Y-21012D01*
X48900Y-20956D01*
X48944Y-20850D01*
X48944Y-20735D01*
X48900Y-20629D01*
X48860Y-20589D01*
X48923Y-20548D01*
X49013Y-20412D01*
X49036Y-20300D01*
X52150Y-20300D01*
X52150Y-25134D01*
X52111Y-25173D01*
X52071Y-25267D01*
X52049Y-25213D01*
X51936Y-25101D01*
X51789Y-25040D01*
X51650Y-25039D01*
X51650Y-22450D01*
X51574Y-22267D01*
X51433Y-22126D01*
X51249Y-22050D01*
X51050Y-22049D01*
X50867Y-22125D01*
X50726Y-22266D01*
X50650Y-22450D01*
X50650Y-22451D01*
X50650Y-22450D01*
X50574Y-22267D01*
X50433Y-22126D01*
X50249Y-22050D01*
X50050Y-22049D01*
X49867Y-22125D01*
X49726Y-22266D01*
X49650Y-22450D01*
X49650Y-22451D01*
X49650Y-22450D01*
X49574Y-22267D01*
X49433Y-22126D01*
X49249Y-22050D01*
X49050Y-22049D01*
X48867Y-22125D01*
X48726Y-22266D01*
X48650Y-22450D01*
X48650Y-22451D01*
X48650Y-22450D01*
X48574Y-22267D01*
X48433Y-22126D01*
X48249Y-22050D01*
X48050Y-22049D01*
X47867Y-22125D01*
X47726Y-22266D01*
X47650Y-22450D01*
X47650Y-22510D01*
X47650Y-22210D01*
X47619Y-22136D01*
X47563Y-22080D01*
X47489Y-22050D01*
X47410Y-22049D01*
X46810Y-22049D01*
X46736Y-22080D01*
X46680Y-22136D01*
X46650Y-22210D01*
X46649Y-22289D01*
X46649Y-22889D01*
X46680Y-22963D01*
X46736Y-23019D01*
X46810Y-23049D01*
X46889Y-23050D01*
X47489Y-23050D01*
X47563Y-23019D01*
X47619Y-22963D01*
X47649Y-22889D01*
X47650Y-22810D01*
X47650Y-22649D01*
X47725Y-22832D01*
X47866Y-22973D01*
X48050Y-23049D01*
X48249Y-23050D01*
X48432Y-22974D01*
X48573Y-22833D01*
X48649Y-22649D01*
X48650Y-22450D01*
X48650Y-22451D01*
X48649Y-22649D01*
X48725Y-22832D01*
X48866Y-22973D01*
X49050Y-23049D01*
X49249Y-23050D01*
X49432Y-22974D01*
X49573Y-22833D01*
X49649Y-22649D01*
X49650Y-22450D01*
X49650Y-22451D01*
X49649Y-22649D01*
X49725Y-22832D01*
X49866Y-22973D01*
X50050Y-23049D01*
X50249Y-23050D01*
X50432Y-22974D01*
X50573Y-22833D01*
X50649Y-22649D01*
X50650Y-22450D01*
X50650Y-22451D01*
X50649Y-22649D01*
X50725Y-22832D01*
X50866Y-22973D01*
X51050Y-23049D01*
X51249Y-23050D01*
X51432Y-22974D01*
X51573Y-22833D01*
X51649Y-22649D01*
X51650Y-22450D01*
X51650Y-25039D01*
X51630Y-25039D01*
X51483Y-25100D01*
X51371Y-25213D01*
X51310Y-25360D01*
X51309Y-25519D01*
X51370Y-25666D01*
X51483Y-25778D01*
X51630Y-25839D01*
X51789Y-25840D01*
X51936Y-25779D01*
X52048Y-25666D01*
X52088Y-25572D01*
X52110Y-25626D01*
X52150Y-25665D01*
X52150Y-26249D01*
X52149Y-26329D01*
X52150Y-26329D01*
X52150Y-28050D01*
X52150Y-29184D01*
X52046Y-29081D01*
X52010Y-29065D01*
X52010Y-26170D01*
X51949Y-26023D01*
X51836Y-25911D01*
X51689Y-25850D01*
X51530Y-25849D01*
X51383Y-25910D01*
X51271Y-26023D01*
X51210Y-26170D01*
X51209Y-26329D01*
X51270Y-26476D01*
X51383Y-26588D01*
X51530Y-26649D01*
X51689Y-26650D01*
X51836Y-26589D01*
X51948Y-26476D01*
X52009Y-26329D01*
X52010Y-26170D01*
X52010Y-29065D01*
X51899Y-29020D01*
X51770Y-29019D01*
X51770Y-28050D01*
X51709Y-27903D01*
X51596Y-27791D01*
X51449Y-27730D01*
X51290Y-27729D01*
X51143Y-27790D01*
X51031Y-27903D01*
X50970Y-28050D01*
X50969Y-28209D01*
X51030Y-28356D01*
X51143Y-28468D01*
X51290Y-28529D01*
X51449Y-28530D01*
X51596Y-28469D01*
X51708Y-28356D01*
X51769Y-28209D01*
X51770Y-28050D01*
X51770Y-29019D01*
X51740Y-29019D01*
X51593Y-29080D01*
X51481Y-29193D01*
X51420Y-29340D01*
X51419Y-29499D01*
X51480Y-29646D01*
X51488Y-29654D01*
X51473Y-29660D01*
X51361Y-29773D01*
X51300Y-29920D01*
X51299Y-30079D01*
X51360Y-30226D01*
X51473Y-30338D01*
X51620Y-30399D01*
X51779Y-30400D01*
X51926Y-30339D01*
X52038Y-30226D01*
X52099Y-30079D01*
X52100Y-29920D01*
X52039Y-29773D01*
X52031Y-29765D01*
X52046Y-29759D01*
X52150Y-29655D01*
X52150Y-31875D01*
X52085Y-31875D01*
X51435Y-31875D01*
X51362Y-31905D01*
X51305Y-31961D01*
X51275Y-32035D01*
X51275Y-32114D01*
X51275Y-32764D01*
X51305Y-32837D01*
X51361Y-32894D01*
X51435Y-32924D01*
X51514Y-32924D01*
X51575Y-32924D01*
X51503Y-32954D01*
X51355Y-33102D01*
X51275Y-33295D01*
X51275Y-33503D01*
X51354Y-33696D01*
X51502Y-33844D01*
X51695Y-33924D01*
X51903Y-33924D01*
X52096Y-33845D01*
X52150Y-33792D01*
X52150Y-38700D01*
G54D10*
G36*
X43535Y-34335D02*
X41365Y-34335D01*
X41365Y-32865D01*
X41552Y-32865D01*
X41902Y-31915D01*
X43085Y-31915D01*
X43085Y-32865D01*
X43535Y-32865D01*
X43535Y-34335D01*
X43535Y-34335D01*
G37*
G54D37*
X43535Y-34335D02*
X41365Y-34335D01*
X41365Y-32865D01*
X41552Y-32865D01*
X41902Y-31915D01*
X43085Y-31915D01*
X43085Y-32865D01*
X43535Y-32865D01*
X43535Y-34335D01*
G54D10*
G36*
X70210Y-31810D02*
X68010Y-31810D01*
X68010Y-33383D01*
X67483Y-33910D01*
X66710Y-33910D01*
X66710Y-38710D01*
X63900Y-38710D01*
X63900Y-36812D01*
X63860Y-36715D01*
X63860Y-35392D01*
X63808Y-35267D01*
X63712Y-35171D01*
X63587Y-35120D01*
X63452Y-35119D01*
X63327Y-35171D01*
X63231Y-35267D01*
X63180Y-35392D01*
X63179Y-35527D01*
X63231Y-35652D01*
X63327Y-35748D01*
X63452Y-35799D01*
X63587Y-35800D01*
X63712Y-35748D01*
X63808Y-35652D01*
X63859Y-35527D01*
X63860Y-35392D01*
X63860Y-36715D01*
X63848Y-36687D01*
X63752Y-36591D01*
X63627Y-36540D01*
X63492Y-36539D01*
X63367Y-36591D01*
X63271Y-36687D01*
X63220Y-36812D01*
X63219Y-36947D01*
X63271Y-37072D01*
X63367Y-37168D01*
X63492Y-37219D01*
X63627Y-37220D01*
X63752Y-37168D01*
X63848Y-37072D01*
X63899Y-36947D01*
X63900Y-36812D01*
X63900Y-38710D01*
X63880Y-38710D01*
X63880Y-38092D01*
X63828Y-37967D01*
X63732Y-37871D01*
X63607Y-37820D01*
X63472Y-37819D01*
X63347Y-37871D01*
X63251Y-37967D01*
X63200Y-38092D01*
X63199Y-38227D01*
X63251Y-38352D01*
X63347Y-38448D01*
X63472Y-38499D01*
X63607Y-38500D01*
X63732Y-38448D01*
X63828Y-38352D01*
X63879Y-38227D01*
X63880Y-38092D01*
X63880Y-38710D01*
X63650Y-38710D01*
X62380Y-38710D01*
X62380Y-35512D01*
X62328Y-35387D01*
X62232Y-35291D01*
X62107Y-35240D01*
X61972Y-35239D01*
X61847Y-35291D01*
X61751Y-35387D01*
X61700Y-35512D01*
X61699Y-35647D01*
X61751Y-35772D01*
X61847Y-35868D01*
X61972Y-35919D01*
X62107Y-35920D01*
X62232Y-35868D01*
X62328Y-35772D01*
X62379Y-35647D01*
X62380Y-35512D01*
X62380Y-38710D01*
X62300Y-38710D01*
X62300Y-38092D01*
X62260Y-37995D01*
X62260Y-36812D01*
X62208Y-36687D01*
X62112Y-36591D01*
X61987Y-36540D01*
X61852Y-36539D01*
X61727Y-36591D01*
X61631Y-36687D01*
X61580Y-36812D01*
X61579Y-36947D01*
X61631Y-37072D01*
X61727Y-37168D01*
X61852Y-37219D01*
X61987Y-37220D01*
X62112Y-37168D01*
X62208Y-37072D01*
X62259Y-36947D01*
X62260Y-36812D01*
X62260Y-37995D01*
X62248Y-37967D01*
X62152Y-37871D01*
X62027Y-37820D01*
X61892Y-37819D01*
X61767Y-37871D01*
X61671Y-37967D01*
X61620Y-38092D01*
X61619Y-38227D01*
X61671Y-38352D01*
X61767Y-38448D01*
X61892Y-38499D01*
X62027Y-38500D01*
X62152Y-38448D01*
X62248Y-38352D01*
X62299Y-38227D01*
X62300Y-38092D01*
X62300Y-38710D01*
X61499Y-38710D01*
X61499Y-35210D01*
X61468Y-35137D01*
X61449Y-35117D01*
X61449Y-34160D01*
X61418Y-34087D01*
X61362Y-34031D01*
X61289Y-34000D01*
X61210Y-34000D01*
X61137Y-34031D01*
X61081Y-34087D01*
X61050Y-34160D01*
X61050Y-34239D01*
X61081Y-34312D01*
X61137Y-34368D01*
X61210Y-34399D01*
X61289Y-34399D01*
X61362Y-34368D01*
X61418Y-34312D01*
X61449Y-34239D01*
X61449Y-34160D01*
X61449Y-35117D01*
X61412Y-35081D01*
X61339Y-35050D01*
X61260Y-35050D01*
X61187Y-35081D01*
X61131Y-35137D01*
X61100Y-35210D01*
X61100Y-35289D01*
X61131Y-35362D01*
X61187Y-35418D01*
X61260Y-35449D01*
X61339Y-35449D01*
X61412Y-35418D01*
X61468Y-35362D01*
X61499Y-35289D01*
X61499Y-35210D01*
X61499Y-38710D01*
X60840Y-38710D01*
X60840Y-37360D01*
X60349Y-37360D01*
X60349Y-34160D01*
X60318Y-34087D01*
X60262Y-34031D01*
X60189Y-34000D01*
X60110Y-34000D01*
X60037Y-34031D01*
X59981Y-34087D01*
X59950Y-34160D01*
X59950Y-34239D01*
X59981Y-34312D01*
X60037Y-34368D01*
X60110Y-34399D01*
X60189Y-34399D01*
X60262Y-34368D01*
X60318Y-34312D01*
X60349Y-34239D01*
X60349Y-34160D01*
X60349Y-37360D01*
X60202Y-37360D01*
X60202Y-36563D01*
X60202Y-35813D01*
X60180Y-35761D01*
X60141Y-35722D01*
X60089Y-35701D01*
X60034Y-35700D01*
X59399Y-35700D01*
X59399Y-34460D01*
X59399Y-33910D01*
X59368Y-33837D01*
X59312Y-33781D01*
X59239Y-33750D01*
X59160Y-33750D01*
X59087Y-33781D01*
X59031Y-33837D01*
X59000Y-33910D01*
X59000Y-33989D01*
X59031Y-34062D01*
X59087Y-34118D01*
X59160Y-34149D01*
X59239Y-34149D01*
X59312Y-34118D01*
X59368Y-34062D01*
X59399Y-33989D01*
X59399Y-33910D01*
X59399Y-34460D01*
X59368Y-34387D01*
X59312Y-34331D01*
X59239Y-34300D01*
X59160Y-34300D01*
X59087Y-34331D01*
X59031Y-34387D01*
X59000Y-34460D01*
X59000Y-34539D01*
X59031Y-34612D01*
X59087Y-34668D01*
X59160Y-34699D01*
X59239Y-34699D01*
X59312Y-34668D01*
X59368Y-34612D01*
X59399Y-34539D01*
X59399Y-34460D01*
X59399Y-35700D01*
X59284Y-35700D01*
X59232Y-35722D01*
X59193Y-35761D01*
X59172Y-35813D01*
X59171Y-35868D01*
X59171Y-36618D01*
X59193Y-36670D01*
X59232Y-36709D01*
X59284Y-36730D01*
X59339Y-36731D01*
X60089Y-36731D01*
X60141Y-36709D01*
X60180Y-36670D01*
X60201Y-36618D01*
X60202Y-36563D01*
X60202Y-37360D01*
X58628Y-37360D01*
X58628Y-36114D01*
X58549Y-35924D01*
X58549Y-35923D01*
X58549Y-34760D01*
X58549Y-34210D01*
X58549Y-33510D01*
X58518Y-33437D01*
X58462Y-33381D01*
X58389Y-33350D01*
X58310Y-33350D01*
X58237Y-33381D01*
X58181Y-33437D01*
X58150Y-33510D01*
X58150Y-33589D01*
X58181Y-33662D01*
X58237Y-33718D01*
X58310Y-33749D01*
X58389Y-33749D01*
X58462Y-33718D01*
X58518Y-33662D01*
X58549Y-33589D01*
X58549Y-33510D01*
X58549Y-34210D01*
X58518Y-34137D01*
X58462Y-34081D01*
X58389Y-34050D01*
X58310Y-34050D01*
X58237Y-34081D01*
X58181Y-34137D01*
X58150Y-34210D01*
X58150Y-34289D01*
X58181Y-34362D01*
X58237Y-34418D01*
X58310Y-34449D01*
X58389Y-34449D01*
X58462Y-34418D01*
X58518Y-34362D01*
X58549Y-34289D01*
X58549Y-34210D01*
X58549Y-34760D01*
X58518Y-34687D01*
X58462Y-34631D01*
X58389Y-34600D01*
X58310Y-34600D01*
X58237Y-34631D01*
X58181Y-34687D01*
X58150Y-34760D01*
X58150Y-34839D01*
X58181Y-34912D01*
X58237Y-34968D01*
X58310Y-34999D01*
X58389Y-34999D01*
X58462Y-34968D01*
X58518Y-34912D01*
X58549Y-34839D01*
X58549Y-34760D01*
X58549Y-35923D01*
X58405Y-35779D01*
X58215Y-35701D01*
X58011Y-35700D01*
X57821Y-35779D01*
X57676Y-35923D01*
X57598Y-36113D01*
X57597Y-36317D01*
X57676Y-36507D01*
X57820Y-36652D01*
X58010Y-36730D01*
X58214Y-36731D01*
X58404Y-36652D01*
X58549Y-36508D01*
X58627Y-36318D01*
X58628Y-36114D01*
X58628Y-37360D01*
X57390Y-37360D01*
X57390Y-29990D01*
X64221Y-29990D01*
X64481Y-30249D01*
X64480Y-30252D01*
X64479Y-30387D01*
X64531Y-30512D01*
X64627Y-30608D01*
X64752Y-30659D01*
X64887Y-30660D01*
X65012Y-30608D01*
X65108Y-30512D01*
X65123Y-30474D01*
X65232Y-30519D01*
X65367Y-30520D01*
X65492Y-30468D01*
X65588Y-30372D01*
X65639Y-30247D01*
X65640Y-30112D01*
X65589Y-29990D01*
X67758Y-29990D01*
X67657Y-30031D01*
X67561Y-30127D01*
X67510Y-30252D01*
X67509Y-30387D01*
X67561Y-30512D01*
X67657Y-30608D01*
X67782Y-30659D01*
X67917Y-30660D01*
X68042Y-30608D01*
X68138Y-30512D01*
X68189Y-30387D01*
X68190Y-30252D01*
X68138Y-30127D01*
X68042Y-30031D01*
X67941Y-29990D01*
X70210Y-29990D01*
X70210Y-31810D01*
X70210Y-31810D01*
G37*
G54D37*
X70210Y-31810D02*
X68010Y-31810D01*
X68010Y-33383D01*
X67483Y-33910D01*
X66710Y-33910D01*
X66710Y-38710D01*
X63900Y-38710D01*
X63900Y-36812D01*
X63860Y-36715D01*
X63860Y-35392D01*
X63808Y-35267D01*
X63712Y-35171D01*
X63587Y-35120D01*
X63452Y-35119D01*
X63327Y-35171D01*
X63231Y-35267D01*
X63180Y-35392D01*
X63179Y-35527D01*
X63231Y-35652D01*
X63327Y-35748D01*
X63452Y-35799D01*
X63587Y-35800D01*
X63712Y-35748D01*
X63808Y-35652D01*
X63859Y-35527D01*
X63860Y-35392D01*
X63860Y-36715D01*
X63848Y-36687D01*
X63752Y-36591D01*
X63627Y-36540D01*
X63492Y-36539D01*
X63367Y-36591D01*
X63271Y-36687D01*
X63220Y-36812D01*
X63219Y-36947D01*
X63271Y-37072D01*
X63367Y-37168D01*
X63492Y-37219D01*
X63627Y-37220D01*
X63752Y-37168D01*
X63848Y-37072D01*
X63899Y-36947D01*
X63900Y-36812D01*
X63900Y-38710D01*
X63880Y-38710D01*
X63880Y-38092D01*
X63828Y-37967D01*
X63732Y-37871D01*
X63607Y-37820D01*
X63472Y-37819D01*
X63347Y-37871D01*
X63251Y-37967D01*
X63200Y-38092D01*
X63199Y-38227D01*
X63251Y-38352D01*
X63347Y-38448D01*
X63472Y-38499D01*
X63607Y-38500D01*
X63732Y-38448D01*
X63828Y-38352D01*
X63879Y-38227D01*
X63880Y-38092D01*
X63880Y-38710D01*
X63650Y-38710D01*
X62380Y-38710D01*
X62380Y-35512D01*
X62328Y-35387D01*
X62232Y-35291D01*
X62107Y-35240D01*
X61972Y-35239D01*
X61847Y-35291D01*
X61751Y-35387D01*
X61700Y-35512D01*
X61699Y-35647D01*
X61751Y-35772D01*
X61847Y-35868D01*
X61972Y-35919D01*
X62107Y-35920D01*
X62232Y-35868D01*
X62328Y-35772D01*
X62379Y-35647D01*
X62380Y-35512D01*
X62380Y-38710D01*
X62300Y-38710D01*
X62300Y-38092D01*
X62260Y-37995D01*
X62260Y-36812D01*
X62208Y-36687D01*
X62112Y-36591D01*
X61987Y-36540D01*
X61852Y-36539D01*
X61727Y-36591D01*
X61631Y-36687D01*
X61580Y-36812D01*
X61579Y-36947D01*
X61631Y-37072D01*
X61727Y-37168D01*
X61852Y-37219D01*
X61987Y-37220D01*
X62112Y-37168D01*
X62208Y-37072D01*
X62259Y-36947D01*
X62260Y-36812D01*
X62260Y-37995D01*
X62248Y-37967D01*
X62152Y-37871D01*
X62027Y-37820D01*
X61892Y-37819D01*
X61767Y-37871D01*
X61671Y-37967D01*
X61620Y-38092D01*
X61619Y-38227D01*
X61671Y-38352D01*
X61767Y-38448D01*
X61892Y-38499D01*
X62027Y-38500D01*
X62152Y-38448D01*
X62248Y-38352D01*
X62299Y-38227D01*
X62300Y-38092D01*
X62300Y-38710D01*
X61499Y-38710D01*
X61499Y-35210D01*
X61468Y-35137D01*
X61449Y-35117D01*
X61449Y-34160D01*
X61418Y-34087D01*
X61362Y-34031D01*
X61289Y-34000D01*
X61210Y-34000D01*
X61137Y-34031D01*
X61081Y-34087D01*
X61050Y-34160D01*
X61050Y-34239D01*
X61081Y-34312D01*
X61137Y-34368D01*
X61210Y-34399D01*
X61289Y-34399D01*
X61362Y-34368D01*
X61418Y-34312D01*
X61449Y-34239D01*
X61449Y-34160D01*
X61449Y-35117D01*
X61412Y-35081D01*
X61339Y-35050D01*
X61260Y-35050D01*
X61187Y-35081D01*
X61131Y-35137D01*
X61100Y-35210D01*
X61100Y-35289D01*
X61131Y-35362D01*
X61187Y-35418D01*
X61260Y-35449D01*
X61339Y-35449D01*
X61412Y-35418D01*
X61468Y-35362D01*
X61499Y-35289D01*
X61499Y-35210D01*
X61499Y-38710D01*
X60840Y-38710D01*
X60840Y-37360D01*
X60349Y-37360D01*
X60349Y-34160D01*
X60318Y-34087D01*
X60262Y-34031D01*
X60189Y-34000D01*
X60110Y-34000D01*
X60037Y-34031D01*
X59981Y-34087D01*
X59950Y-34160D01*
X59950Y-34239D01*
X59981Y-34312D01*
X60037Y-34368D01*
X60110Y-34399D01*
X60189Y-34399D01*
X60262Y-34368D01*
X60318Y-34312D01*
X60349Y-34239D01*
X60349Y-34160D01*
X60349Y-37360D01*
X60202Y-37360D01*
X60202Y-36563D01*
X60202Y-35813D01*
X60180Y-35761D01*
X60141Y-35722D01*
X60089Y-35701D01*
X60034Y-35700D01*
X59399Y-35700D01*
X59399Y-34460D01*
X59399Y-33910D01*
X59368Y-33837D01*
X59312Y-33781D01*
X59239Y-33750D01*
X59160Y-33750D01*
X59087Y-33781D01*
X59031Y-33837D01*
X59000Y-33910D01*
X59000Y-33989D01*
X59031Y-34062D01*
X59087Y-34118D01*
X59160Y-34149D01*
X59239Y-34149D01*
X59312Y-34118D01*
X59368Y-34062D01*
X59399Y-33989D01*
X59399Y-33910D01*
X59399Y-34460D01*
X59368Y-34387D01*
X59312Y-34331D01*
X59239Y-34300D01*
X59160Y-34300D01*
X59087Y-34331D01*
X59031Y-34387D01*
X59000Y-34460D01*
X59000Y-34539D01*
X59031Y-34612D01*
X59087Y-34668D01*
X59160Y-34699D01*
X59239Y-34699D01*
X59312Y-34668D01*
X59368Y-34612D01*
X59399Y-34539D01*
X59399Y-34460D01*
X59399Y-35700D01*
X59284Y-35700D01*
X59232Y-35722D01*
X59193Y-35761D01*
X59172Y-35813D01*
X59171Y-35868D01*
X59171Y-36618D01*
X59193Y-36670D01*
X59232Y-36709D01*
X59284Y-36730D01*
X59339Y-36731D01*
X60089Y-36731D01*
X60141Y-36709D01*
X60180Y-36670D01*
X60201Y-36618D01*
X60202Y-36563D01*
X60202Y-37360D01*
X58628Y-37360D01*
X58628Y-36114D01*
X58549Y-35924D01*
X58549Y-35923D01*
X58549Y-34760D01*
X58549Y-34210D01*
X58549Y-33510D01*
X58518Y-33437D01*
X58462Y-33381D01*
X58389Y-33350D01*
X58310Y-33350D01*
X58237Y-33381D01*
X58181Y-33437D01*
X58150Y-33510D01*
X58150Y-33589D01*
X58181Y-33662D01*
X58237Y-33718D01*
X58310Y-33749D01*
X58389Y-33749D01*
X58462Y-33718D01*
X58518Y-33662D01*
X58549Y-33589D01*
X58549Y-33510D01*
X58549Y-34210D01*
X58518Y-34137D01*
X58462Y-34081D01*
X58389Y-34050D01*
X58310Y-34050D01*
X58237Y-34081D01*
X58181Y-34137D01*
X58150Y-34210D01*
X58150Y-34289D01*
X58181Y-34362D01*
X58237Y-34418D01*
X58310Y-34449D01*
X58389Y-34449D01*
X58462Y-34418D01*
X58518Y-34362D01*
X58549Y-34289D01*
X58549Y-34210D01*
X58549Y-34760D01*
X58518Y-34687D01*
X58462Y-34631D01*
X58389Y-34600D01*
X58310Y-34600D01*
X58237Y-34631D01*
X58181Y-34687D01*
X58150Y-34760D01*
X58150Y-34839D01*
X58181Y-34912D01*
X58237Y-34968D01*
X58310Y-34999D01*
X58389Y-34999D01*
X58462Y-34968D01*
X58518Y-34912D01*
X58549Y-34839D01*
X58549Y-34760D01*
X58549Y-35923D01*
X58405Y-35779D01*
X58215Y-35701D01*
X58011Y-35700D01*
X57821Y-35779D01*
X57676Y-35923D01*
X57598Y-36113D01*
X57597Y-36317D01*
X57676Y-36507D01*
X57820Y-36652D01*
X58010Y-36730D01*
X58214Y-36731D01*
X58404Y-36652D01*
X58549Y-36508D01*
X58627Y-36318D01*
X58628Y-36114D01*
X58628Y-37360D01*
X57390Y-37360D01*
X57390Y-29990D01*
X64221Y-29990D01*
X64481Y-30249D01*
X64480Y-30252D01*
X64479Y-30387D01*
X64531Y-30512D01*
X64627Y-30608D01*
X64752Y-30659D01*
X64887Y-30660D01*
X65012Y-30608D01*
X65108Y-30512D01*
X65123Y-30474D01*
X65232Y-30519D01*
X65367Y-30520D01*
X65492Y-30468D01*
X65588Y-30372D01*
X65639Y-30247D01*
X65640Y-30112D01*
X65589Y-29990D01*
X67758Y-29990D01*
X67657Y-30031D01*
X67561Y-30127D01*
X67510Y-30252D01*
X67509Y-30387D01*
X67561Y-30512D01*
X67657Y-30608D01*
X67782Y-30659D01*
X67917Y-30660D01*
X68042Y-30608D01*
X68138Y-30512D01*
X68189Y-30387D01*
X68190Y-30252D01*
X68138Y-30127D01*
X68042Y-30031D01*
X67941Y-29990D01*
X70210Y-29990D01*
X70210Y-31810D01*
G54D10*
G36*
X60160Y-38760D02*
X52590Y-38760D01*
X52590Y-26570D01*
X52613Y-26570D01*
X52731Y-26521D01*
X52821Y-26431D01*
X52869Y-26313D01*
X52870Y-26186D01*
X52821Y-26068D01*
X52731Y-25978D01*
X52613Y-25930D01*
X52590Y-25930D01*
X52590Y-25688D01*
X52631Y-25671D01*
X52721Y-25581D01*
X52769Y-25463D01*
X52770Y-25336D01*
X52721Y-25218D01*
X52631Y-25128D01*
X52590Y-25111D01*
X52590Y-22590D01*
X55110Y-22590D01*
X55110Y-24062D01*
X55106Y-24053D01*
X55016Y-23963D01*
X54898Y-23915D01*
X54771Y-23914D01*
X54653Y-23963D01*
X54563Y-24053D01*
X54515Y-24171D01*
X54514Y-24298D01*
X54563Y-24416D01*
X54653Y-24506D01*
X54771Y-24554D01*
X54898Y-24555D01*
X55016Y-24506D01*
X55106Y-24416D01*
X55110Y-24407D01*
X55110Y-25810D01*
X54430Y-25810D01*
X54430Y-24086D01*
X54381Y-23968D01*
X54291Y-23878D01*
X54173Y-23830D01*
X54046Y-23829D01*
X53928Y-23878D01*
X53838Y-23968D01*
X53790Y-24086D01*
X53789Y-24213D01*
X53838Y-24331D01*
X53928Y-24421D01*
X54046Y-24469D01*
X54173Y-24470D01*
X54291Y-24421D01*
X54381Y-24331D01*
X54429Y-24213D01*
X54430Y-24086D01*
X54430Y-25810D01*
X54210Y-25810D01*
X54210Y-26410D01*
X54086Y-26409D01*
X53968Y-26458D01*
X53878Y-26548D01*
X53830Y-26666D01*
X53829Y-26793D01*
X53878Y-26911D01*
X53968Y-27001D01*
X54086Y-27049D01*
X54210Y-27050D01*
X54210Y-27872D01*
X54200Y-27896D01*
X54199Y-28023D01*
X54210Y-28047D01*
X54210Y-33840D01*
X54141Y-34005D01*
X54141Y-34193D01*
X54210Y-34360D01*
X54210Y-37012D01*
X54165Y-37120D01*
X54164Y-37294D01*
X54210Y-37403D01*
X54210Y-37640D01*
X54506Y-37640D01*
X54513Y-37642D01*
X54686Y-37642D01*
X54693Y-37640D01*
X60160Y-37640D01*
X60160Y-38760D01*
X60160Y-38760D01*
G37*
G54D37*
X60160Y-38760D02*
X52590Y-38760D01*
X52590Y-26570D01*
X52613Y-26570D01*
X52731Y-26521D01*
X52821Y-26431D01*
X52869Y-26313D01*
X52870Y-26186D01*
X52821Y-26068D01*
X52731Y-25978D01*
X52613Y-25930D01*
X52590Y-25930D01*
X52590Y-25688D01*
X52631Y-25671D01*
X52721Y-25581D01*
X52769Y-25463D01*
X52770Y-25336D01*
X52721Y-25218D01*
X52631Y-25128D01*
X52590Y-25111D01*
X52590Y-22590D01*
X55110Y-22590D01*
X55110Y-24062D01*
X55106Y-24053D01*
X55016Y-23963D01*
X54898Y-23915D01*
X54771Y-23914D01*
X54653Y-23963D01*
X54563Y-24053D01*
X54515Y-24171D01*
X54514Y-24298D01*
X54563Y-24416D01*
X54653Y-24506D01*
X54771Y-24554D01*
X54898Y-24555D01*
X55016Y-24506D01*
X55106Y-24416D01*
X55110Y-24407D01*
X55110Y-25810D01*
X54430Y-25810D01*
X54430Y-24086D01*
X54381Y-23968D01*
X54291Y-23878D01*
X54173Y-23830D01*
X54046Y-23829D01*
X53928Y-23878D01*
X53838Y-23968D01*
X53790Y-24086D01*
X53789Y-24213D01*
X53838Y-24331D01*
X53928Y-24421D01*
X54046Y-24469D01*
X54173Y-24470D01*
X54291Y-24421D01*
X54381Y-24331D01*
X54429Y-24213D01*
X54430Y-24086D01*
X54430Y-25810D01*
X54210Y-25810D01*
X54210Y-26410D01*
X54086Y-26409D01*
X53968Y-26458D01*
X53878Y-26548D01*
X53830Y-26666D01*
X53829Y-26793D01*
X53878Y-26911D01*
X53968Y-27001D01*
X54086Y-27049D01*
X54210Y-27050D01*
X54210Y-27872D01*
X54200Y-27896D01*
X54199Y-28023D01*
X54210Y-28047D01*
X54210Y-33840D01*
X54141Y-34005D01*
X54141Y-34193D01*
X54210Y-34360D01*
X54210Y-37012D01*
X54165Y-37120D01*
X54164Y-37294D01*
X54210Y-37403D01*
X54210Y-37640D01*
X54506Y-37640D01*
X54513Y-37642D01*
X54686Y-37642D01*
X54693Y-37640D01*
X60160Y-37640D01*
X60160Y-38760D01*
G54D10*
G36*
X61710Y-22510D02*
X59650Y-22510D01*
X59650Y-21245D01*
X59531Y-20957D01*
X59312Y-20737D01*
X59024Y-20618D01*
X58713Y-20617D01*
X58426Y-20736D01*
X58205Y-20956D01*
X58086Y-21243D01*
X58086Y-21554D01*
X58205Y-21842D01*
X58424Y-22062D01*
X58712Y-22181D01*
X59023Y-22182D01*
X59310Y-22063D01*
X59531Y-21843D01*
X59650Y-21556D01*
X59650Y-21245D01*
X59650Y-22510D01*
X57682Y-22510D01*
X57682Y-21245D01*
X57563Y-20957D01*
X57343Y-20737D01*
X57056Y-20618D01*
X56745Y-20617D01*
X56457Y-20736D01*
X56237Y-20956D01*
X56118Y-21243D01*
X56117Y-21554D01*
X56236Y-21842D01*
X56456Y-22062D01*
X56743Y-22181D01*
X57054Y-22182D01*
X57342Y-22063D01*
X57562Y-21843D01*
X57681Y-21556D01*
X57682Y-21245D01*
X57682Y-22510D01*
X56986Y-22510D01*
X56260Y-23080D01*
X56260Y-26960D01*
X56202Y-26984D01*
X56064Y-27122D01*
X55990Y-27302D01*
X55989Y-27497D01*
X56064Y-27677D01*
X56202Y-27815D01*
X56260Y-27839D01*
X56260Y-29224D01*
X56177Y-29190D01*
X55982Y-29189D01*
X55802Y-29264D01*
X55664Y-29402D01*
X55590Y-29582D01*
X55589Y-29777D01*
X55664Y-29957D01*
X55802Y-30095D01*
X55982Y-30169D01*
X56177Y-30170D01*
X56357Y-30095D01*
X56432Y-30020D01*
X56910Y-30020D01*
X56910Y-32560D01*
X54590Y-32560D01*
X54590Y-28450D01*
X54617Y-28450D01*
X54732Y-28402D01*
X54734Y-28407D01*
X54872Y-28545D01*
X55052Y-28619D01*
X55247Y-28620D01*
X55427Y-28545D01*
X55565Y-28407D01*
X55639Y-28227D01*
X55640Y-28032D01*
X55565Y-27852D01*
X55427Y-27714D01*
X55247Y-27640D01*
X55052Y-27639D01*
X54937Y-27687D01*
X54935Y-27682D01*
X54797Y-27544D01*
X54617Y-27470D01*
X54590Y-27470D01*
X54590Y-26948D01*
X54639Y-26827D01*
X54640Y-26632D01*
X54590Y-26511D01*
X54590Y-26490D01*
X55358Y-26490D01*
X55382Y-26499D01*
X55577Y-26500D01*
X55757Y-26425D01*
X55895Y-26287D01*
X55969Y-26107D01*
X55970Y-25912D01*
X55895Y-25732D01*
X55757Y-25594D01*
X55577Y-25520D01*
X55440Y-25519D01*
X55440Y-21997D01*
X55594Y-21843D01*
X55713Y-21556D01*
X55713Y-21245D01*
X55594Y-20957D01*
X55440Y-20802D01*
X55440Y-20290D01*
X61710Y-20290D01*
X61710Y-22510D01*
X61710Y-22510D01*
G37*
G54D37*
X61710Y-22510D02*
X59650Y-22510D01*
X59650Y-21245D01*
X59531Y-20957D01*
X59312Y-20737D01*
X59024Y-20618D01*
X58713Y-20617D01*
X58426Y-20736D01*
X58205Y-20956D01*
X58086Y-21243D01*
X58086Y-21554D01*
X58205Y-21842D01*
X58424Y-22062D01*
X58712Y-22181D01*
X59023Y-22182D01*
X59310Y-22063D01*
X59531Y-21843D01*
X59650Y-21556D01*
X59650Y-21245D01*
X59650Y-22510D01*
X57682Y-22510D01*
X57682Y-21245D01*
X57563Y-20957D01*
X57343Y-20737D01*
X57056Y-20618D01*
X56745Y-20617D01*
X56457Y-20736D01*
X56237Y-20956D01*
X56118Y-21243D01*
X56117Y-21554D01*
X56236Y-21842D01*
X56456Y-22062D01*
X56743Y-22181D01*
X57054Y-22182D01*
X57342Y-22063D01*
X57562Y-21843D01*
X57681Y-21556D01*
X57682Y-21245D01*
X57682Y-22510D01*
X56986Y-22510D01*
X56260Y-23080D01*
X56260Y-26960D01*
X56202Y-26984D01*
X56064Y-27122D01*
X55990Y-27302D01*
X55989Y-27497D01*
X56064Y-27677D01*
X56202Y-27815D01*
X56260Y-27839D01*
X56260Y-29224D01*
X56177Y-29190D01*
X55982Y-29189D01*
X55802Y-29264D01*
X55664Y-29402D01*
X55590Y-29582D01*
X55589Y-29777D01*
X55664Y-29957D01*
X55802Y-30095D01*
X55982Y-30169D01*
X56177Y-30170D01*
X56357Y-30095D01*
X56432Y-30020D01*
X56910Y-30020D01*
X56910Y-32560D01*
X54590Y-32560D01*
X54590Y-28450D01*
X54617Y-28450D01*
X54732Y-28402D01*
X54734Y-28407D01*
X54872Y-28545D01*
X55052Y-28619D01*
X55247Y-28620D01*
X55427Y-28545D01*
X55565Y-28407D01*
X55639Y-28227D01*
X55640Y-28032D01*
X55565Y-27852D01*
X55427Y-27714D01*
X55247Y-27640D01*
X55052Y-27639D01*
X54937Y-27687D01*
X54935Y-27682D01*
X54797Y-27544D01*
X54617Y-27470D01*
X54590Y-27470D01*
X54590Y-26948D01*
X54639Y-26827D01*
X54640Y-26632D01*
X54590Y-26511D01*
X54590Y-26490D01*
X55358Y-26490D01*
X55382Y-26499D01*
X55577Y-26500D01*
X55757Y-26425D01*
X55895Y-26287D01*
X55969Y-26107D01*
X55970Y-25912D01*
X55895Y-25732D01*
X55757Y-25594D01*
X55577Y-25520D01*
X55440Y-25519D01*
X55440Y-21997D01*
X55594Y-21843D01*
X55713Y-21556D01*
X55713Y-21245D01*
X55594Y-20957D01*
X55440Y-20802D01*
X55440Y-20290D01*
X61710Y-20290D01*
X61710Y-22510D01*
G54D10*
G36*
X70210Y-27410D02*
X68060Y-27410D01*
X66290Y-26377D01*
X66290Y-20290D01*
X68047Y-20290D01*
X67965Y-20372D01*
X67726Y-20947D01*
X67726Y-21569D01*
X67963Y-22145D01*
X68403Y-22585D01*
X68978Y-22824D01*
X69601Y-22825D01*
X70176Y-22587D01*
X70210Y-22554D01*
X70210Y-27410D01*
X70210Y-27410D01*
G37*
G54D37*
X70210Y-27410D02*
X68060Y-27410D01*
X66290Y-26377D01*
X66290Y-20290D01*
X68047Y-20290D01*
X67965Y-20372D01*
X67726Y-20947D01*
X67726Y-21569D01*
X67963Y-22145D01*
X68403Y-22585D01*
X68978Y-22824D01*
X69601Y-22825D01*
X70176Y-22587D01*
X70210Y-22554D01*
X70210Y-27410D01*
G54D10*
G36*
X70210Y-29610D02*
X65540Y-29610D01*
X65540Y-28882D01*
X65488Y-28757D01*
X65392Y-28661D01*
X65267Y-28610D01*
X65132Y-28609D01*
X65007Y-28661D01*
X64911Y-28757D01*
X64860Y-28882D01*
X64859Y-29017D01*
X64911Y-29142D01*
X65007Y-29238D01*
X65132Y-29289D01*
X65267Y-29290D01*
X65392Y-29238D01*
X65488Y-29142D01*
X65539Y-29017D01*
X65540Y-28882D01*
X65540Y-29610D01*
X64378Y-29610D01*
X64314Y-29545D01*
X64252Y-29504D01*
X64180Y-29490D01*
X56590Y-29490D01*
X56590Y-27722D01*
X56672Y-27688D01*
X56768Y-27592D01*
X56819Y-27467D01*
X56820Y-27332D01*
X56768Y-27207D01*
X56672Y-27111D01*
X56590Y-27077D01*
X56590Y-23517D01*
X57315Y-22840D01*
X62090Y-22840D01*
X62090Y-20290D01*
X66010Y-20290D01*
X66010Y-26572D01*
X68088Y-27840D01*
X70210Y-27840D01*
X70210Y-29610D01*
X70210Y-29610D01*
G37*
G54D37*
X70210Y-29610D02*
X65540Y-29610D01*
X65540Y-28882D01*
X65488Y-28757D01*
X65392Y-28661D01*
X65267Y-28610D01*
X65132Y-28609D01*
X65007Y-28661D01*
X64911Y-28757D01*
X64860Y-28882D01*
X64859Y-29017D01*
X64911Y-29142D01*
X65007Y-29238D01*
X65132Y-29289D01*
X65267Y-29290D01*
X65392Y-29238D01*
X65488Y-29142D01*
X65539Y-29017D01*
X65540Y-28882D01*
X65540Y-29610D01*
X64378Y-29610D01*
X64314Y-29545D01*
X64252Y-29504D01*
X64180Y-29490D01*
X56590Y-29490D01*
X56590Y-27722D01*
X56672Y-27688D01*
X56768Y-27592D01*
X56819Y-27467D01*
X56820Y-27332D01*
X56768Y-27207D01*
X56672Y-27111D01*
X56590Y-27077D01*
X56590Y-23517D01*
X57315Y-22840D01*
X62090Y-22840D01*
X62090Y-20290D01*
X66010Y-20290D01*
X66010Y-26572D01*
X68088Y-27840D01*
X70210Y-27840D01*
X70210Y-29610D01*
M02*
