G04 (created by PCBNEW (2013-07-07 BZR 4022)-stable) date 2/4/2017 6:27:51 AM*
%MOIN*%
G04 Gerber Fmt 3.4, Leading zero omitted, Abs format*
%FSLAX34Y34*%
G01*
G70*
G90*
G04 APERTURE LIST*
%ADD10C,0.00590551*%
%ADD11C,0.01*%
%ADD12R,0.0177165X0.0590551*%
%ADD13O,0.0708661X0.0433071*%
%ADD14O,0.0866142X0.0433071*%
%ADD15R,0.06X0.06*%
%ADD16C,0.06*%
%ADD17R,0.0315X0.11*%
%ADD18R,0.025X0.113*%
%ADD19C,0.1437*%
%ADD20R,0.0591X0.0591*%
%ADD21C,0.0591*%
%ADD22C,0.011811*%
%ADD23C,0.125*%
%ADD24R,0.0629921X0.0629921*%
%ADD25C,0.0629921*%
%ADD26C,0.0984252*%
%ADD27R,0.0708661X0.0708661*%
%ADD28C,0.0708661*%
%ADD29C,0.045*%
%ADD30C,0.066*%
%ADD31R,0.1X0.1*%
%ADD32C,0.1*%
%ADD33C,0.075*%
%ADD34R,0.075X0.075*%
%ADD35O,0.0393701X0.0669291*%
%ADD36C,0.0177165*%
%ADD37R,0.0649606X0.0649606*%
%ADD38C,0.0649606*%
%ADD39C,0.04*%
%ADD40C,0.016*%
%ADD41C,0.008*%
G04 APERTURE END LIST*
G54D10*
G54D11*
X35823Y-38445D02*
X35823Y-38711D01*
X35919Y-38292D02*
X36014Y-38578D01*
X35766Y-38578D01*
G54D12*
X47888Y-21001D03*
X48144Y-21001D03*
X48400Y-21001D03*
X48656Y-21001D03*
X48912Y-21001D03*
G54D13*
X47297Y-21100D03*
X49502Y-21100D03*
G54D14*
X48400Y-20253D03*
G54D15*
X47150Y-22550D03*
G54D16*
X48150Y-22550D03*
X49150Y-22550D03*
X50150Y-22550D03*
X51150Y-22550D03*
G54D10*
G36*
X62472Y-36145D02*
X62472Y-35015D01*
X62787Y-35515D01*
X62787Y-35645D01*
X62472Y-36145D01*
X62472Y-36145D01*
G37*
G54D17*
X63130Y-35580D03*
G54D18*
X62350Y-35580D03*
G54D10*
G36*
X62972Y-35530D02*
X62672Y-35030D01*
X63287Y-35030D01*
X62987Y-35530D01*
X62972Y-35530D01*
X62972Y-35530D01*
G37*
G36*
X62987Y-35630D02*
X63287Y-36130D01*
X62672Y-36130D01*
X62972Y-35630D01*
X62987Y-35630D01*
X62987Y-35630D01*
G37*
G54D19*
X33600Y-24162D03*
X33600Y-28835D03*
G54D20*
X36100Y-28250D03*
G54D21*
X37100Y-27750D03*
X36100Y-27250D03*
X37100Y-26750D03*
X36100Y-26250D03*
X37100Y-25750D03*
X36100Y-25250D03*
X37100Y-24750D03*
G54D19*
X33600Y-30462D03*
X33600Y-35135D03*
G54D20*
X36100Y-34550D03*
G54D21*
X37100Y-34050D03*
X36100Y-33550D03*
X37100Y-33050D03*
X36100Y-32550D03*
X37100Y-32050D03*
X36100Y-31550D03*
X37100Y-31050D03*
G54D15*
X40000Y-28100D03*
G54D16*
X41000Y-28100D03*
X40000Y-27100D03*
X41000Y-27100D03*
X40000Y-26100D03*
X41000Y-26100D03*
G54D22*
X41950Y-34150D03*
X43350Y-33500D03*
X43150Y-32900D03*
X41500Y-33500D03*
X41750Y-32900D03*
X42440Y-32870D03*
G54D23*
X69291Y-21259D03*
X33070Y-37795D03*
G54D24*
X54600Y-38192D03*
G54D25*
X54600Y-37207D03*
G54D26*
X69200Y-34721D03*
X69200Y-32752D03*
X69200Y-30784D03*
X69200Y-28815D03*
X69200Y-24878D03*
X69200Y-26847D03*
G54D22*
X42900Y-34150D03*
X59200Y-34500D03*
X61300Y-35250D03*
X58350Y-33550D03*
X60150Y-34200D03*
X58350Y-34250D03*
X59200Y-33950D03*
X58350Y-34800D03*
X61250Y-34200D03*
G54D27*
X56584Y-34100D03*
G54D28*
X54615Y-34100D03*
G54D22*
X47800Y-36900D03*
X49200Y-38400D03*
X49200Y-36900D03*
X47800Y-38100D03*
X48630Y-37630D03*
G54D29*
X56700Y-38200D03*
G54D16*
X39500Y-36500D03*
X40500Y-36500D03*
X41500Y-36500D03*
X42500Y-36500D03*
X43500Y-36500D03*
X44500Y-36500D03*
X45500Y-36500D03*
G54D15*
X46500Y-36500D03*
X46500Y-38500D03*
G54D16*
X45500Y-38500D03*
X44500Y-38500D03*
X43500Y-38500D03*
X42500Y-38500D03*
X41500Y-38500D03*
X40500Y-38500D03*
X39500Y-38500D03*
X39500Y-35500D03*
X40500Y-35500D03*
X41500Y-35500D03*
X42500Y-35500D03*
X43500Y-35500D03*
X44500Y-35500D03*
X45500Y-35500D03*
X46500Y-35500D03*
G54D15*
X38400Y-32400D03*
G54D16*
X39400Y-32400D03*
G54D30*
X37400Y-37200D03*
X36400Y-37200D03*
X35400Y-37200D03*
G54D10*
G36*
X62472Y-38725D02*
X62472Y-37595D01*
X62787Y-38095D01*
X62787Y-38225D01*
X62472Y-38725D01*
X62472Y-38725D01*
G37*
G54D17*
X63130Y-38160D03*
G54D18*
X62350Y-38160D03*
G54D10*
G36*
X62972Y-38110D02*
X62672Y-37610D01*
X63287Y-37610D01*
X62987Y-38110D01*
X62972Y-38110D01*
X62972Y-38110D01*
G37*
G36*
X62987Y-38210D02*
X63287Y-38710D01*
X62672Y-38710D01*
X62972Y-38210D01*
X62987Y-38210D01*
X62987Y-38210D01*
G37*
G36*
X62472Y-37445D02*
X62472Y-36315D01*
X62787Y-36815D01*
X62787Y-36945D01*
X62472Y-37445D01*
X62472Y-37445D01*
G37*
G54D17*
X63130Y-36880D03*
G54D18*
X62350Y-36880D03*
G54D10*
G36*
X62972Y-36830D02*
X62672Y-36330D01*
X63287Y-36330D01*
X62987Y-36830D01*
X62972Y-36830D01*
X62972Y-36830D01*
G37*
G36*
X62987Y-36930D02*
X63287Y-37430D01*
X62672Y-37430D01*
X62972Y-36930D01*
X62987Y-36930D01*
X62987Y-36930D01*
G37*
G54D26*
X42752Y-21300D03*
X40784Y-21300D03*
X36847Y-21300D03*
X38815Y-21300D03*
G54D31*
X35000Y-28300D03*
G54D32*
X35000Y-26800D03*
X35000Y-25300D03*
G54D26*
X60837Y-21400D03*
X58868Y-21400D03*
X56900Y-21400D03*
X52962Y-21400D03*
X54931Y-21400D03*
G54D15*
X38800Y-29800D03*
G54D16*
X38800Y-30800D03*
G54D33*
X58113Y-38184D03*
X59687Y-38184D03*
G54D34*
X59687Y-36216D03*
G54D33*
X58113Y-36216D03*
G54D35*
X46992Y-21100D03*
X49807Y-21100D03*
G54D36*
X48144Y-20792D03*
X48400Y-21296D03*
X48655Y-20792D03*
X48911Y-21296D03*
X47888Y-21296D03*
G54D37*
X51800Y-32400D03*
G54D38*
X51800Y-33400D03*
G54D37*
X48100Y-32400D03*
G54D38*
X48100Y-33400D03*
G54D39*
X50950Y-27100D03*
X44050Y-25100D03*
X40360Y-25160D03*
X51700Y-27650D03*
X45300Y-26590D03*
X47300Y-31800D03*
X51700Y-35500D03*
X51700Y-34900D03*
X35200Y-33900D03*
X48820Y-30360D03*
X44320Y-23120D03*
X39000Y-33400D03*
X32500Y-33100D03*
X40425Y-30025D03*
X49900Y-34400D03*
X43560Y-29980D03*
X50000Y-32000D03*
X58400Y-25600D03*
X58400Y-28400D03*
X60400Y-28400D03*
X60400Y-24800D03*
X62200Y-22800D03*
X63600Y-21200D03*
X63800Y-23400D03*
X64800Y-24600D03*
X64800Y-25600D03*
X63400Y-27200D03*
X64400Y-27200D03*
X65400Y-27200D03*
X66400Y-27200D03*
X44180Y-29550D03*
X50350Y-31050D03*
X64400Y-36600D03*
X65600Y-37800D03*
X65600Y-35600D03*
X64800Y-33600D03*
X63600Y-33600D03*
X62200Y-33600D03*
X60800Y-32400D03*
X59000Y-32400D03*
X59000Y-30600D03*
X60800Y-30600D03*
X62200Y-31400D03*
X63200Y-31400D03*
X64200Y-31400D03*
X65200Y-31400D03*
X66000Y-31400D03*
X66800Y-31400D03*
X67600Y-31400D03*
X43610Y-29370D03*
X43340Y-30830D03*
X42790Y-30770D03*
X45300Y-28000D03*
X65300Y-30180D03*
X51820Y-29420D03*
X45920Y-29240D03*
X54110Y-24150D03*
X46700Y-27800D03*
X41990Y-30210D03*
X55150Y-28130D03*
X67850Y-30320D03*
X56480Y-27400D03*
X64820Y-30320D03*
X56080Y-29680D03*
X38740Y-28380D03*
X38800Y-38200D03*
X42430Y-29210D03*
X38500Y-36200D03*
X39500Y-25340D03*
X38800Y-24400D03*
X39440Y-31468D03*
X48060Y-28610D03*
X42600Y-27540D03*
X54520Y-27960D03*
X51200Y-20900D03*
X50500Y-20900D03*
X48680Y-27050D03*
X67200Y-21200D03*
X67200Y-23200D03*
X69000Y-23400D03*
X68200Y-36000D03*
X63520Y-35460D03*
X63540Y-38160D03*
X63560Y-36880D03*
X54150Y-26730D03*
X65200Y-28950D03*
X43700Y-23150D03*
X40410Y-24480D03*
X37580Y-24100D03*
X43430Y-27030D03*
X34700Y-24100D03*
X38100Y-25900D03*
X38700Y-27000D03*
X51370Y-28130D03*
X46050Y-27050D03*
X51700Y-30000D03*
X50470Y-24830D03*
X52450Y-25400D03*
X51400Y-37400D03*
X54835Y-24235D03*
X46410Y-24000D03*
X46430Y-23350D03*
X52550Y-26250D03*
X35220Y-35490D03*
X36700Y-35600D03*
X48140Y-30120D03*
X49290Y-28270D03*
X51710Y-25440D03*
X48290Y-25720D03*
X34200Y-25700D03*
X35140Y-31550D03*
X62040Y-35580D03*
X61960Y-38160D03*
X61920Y-36880D03*
X43880Y-26060D03*
X44840Y-21800D03*
X46100Y-21600D03*
X46100Y-20300D03*
X46200Y-21000D03*
X50000Y-32500D03*
X32600Y-32500D03*
X47460Y-30060D03*
X47400Y-30900D03*
X45700Y-30520D03*
X40425Y-30525D03*
X49590Y-30365D03*
X55850Y-32250D03*
X55700Y-31280D03*
X33760Y-33300D03*
X40420Y-31880D03*
X33780Y-32060D03*
X40440Y-31100D03*
X39300Y-24400D03*
X34800Y-22300D03*
X37950Y-26950D03*
X41670Y-21880D03*
X45350Y-23850D03*
X45640Y-25070D03*
X49100Y-26110D03*
X44960Y-23100D03*
X41600Y-22500D03*
X51610Y-26250D03*
X48790Y-24820D03*
X55480Y-26010D03*
X53250Y-33700D03*
X53750Y-33700D03*
X38300Y-37600D03*
X43740Y-23840D03*
X53200Y-29450D03*
X53200Y-30000D03*
G54D11*
X46760Y-30890D02*
X47320Y-31450D01*
X44470Y-30890D02*
X46760Y-30890D01*
X43560Y-29980D02*
X44470Y-30890D01*
X50000Y-31650D02*
X50000Y-32000D01*
X49800Y-31450D02*
X50000Y-31650D01*
X47320Y-31450D02*
X49800Y-31450D01*
X69200Y-28815D02*
X68015Y-28815D01*
X58400Y-28400D02*
X58400Y-25600D01*
X60400Y-24800D02*
X60400Y-28400D01*
X62200Y-22600D02*
X62200Y-22800D01*
X63600Y-21200D02*
X62200Y-22600D01*
X63800Y-23600D02*
X63800Y-23400D01*
X64800Y-24600D02*
X63800Y-23600D01*
X64800Y-25800D02*
X64800Y-25600D01*
X63400Y-27200D02*
X64800Y-25800D01*
X65400Y-27200D02*
X64400Y-27200D01*
X68015Y-28815D02*
X66400Y-27200D01*
X48760Y-31050D02*
X50350Y-31050D01*
X48270Y-30560D02*
X48760Y-31050D01*
X47190Y-30560D02*
X48270Y-30560D01*
X46700Y-30070D02*
X47190Y-30560D01*
X44700Y-30070D02*
X46700Y-30070D01*
X44180Y-29550D02*
X44700Y-30070D01*
X65600Y-35600D02*
X65600Y-37800D01*
X63600Y-33600D02*
X64800Y-33600D01*
X62200Y-32800D02*
X62200Y-33600D01*
X62000Y-32600D02*
X62200Y-32800D01*
X61000Y-32600D02*
X62000Y-32600D01*
X60800Y-32400D02*
X61000Y-32600D01*
X59000Y-30600D02*
X59000Y-32400D01*
X61400Y-30600D02*
X60800Y-30600D01*
X62200Y-31400D02*
X61400Y-30600D01*
X64200Y-31400D02*
X63200Y-31400D01*
X66000Y-31400D02*
X65200Y-31400D01*
X67600Y-31400D02*
X66800Y-31400D01*
G54D40*
X36100Y-27250D02*
X36100Y-26933D01*
X35610Y-26443D02*
X35610Y-25690D01*
X36100Y-26933D02*
X35610Y-26443D01*
X36100Y-31550D02*
X36100Y-29220D01*
X36560Y-27710D02*
X36100Y-27250D01*
X36560Y-28760D02*
X36560Y-27710D01*
X36100Y-29220D02*
X36560Y-28760D01*
X36100Y-25250D02*
X36050Y-25250D01*
X36050Y-25250D02*
X35610Y-25690D01*
X36100Y-33550D02*
X36100Y-33530D01*
X36100Y-33530D02*
X35490Y-32920D01*
X35490Y-32160D02*
X36100Y-31550D01*
X35490Y-32920D02*
X35490Y-32160D01*
G54D11*
X45980Y-35980D02*
X46500Y-36500D01*
X45980Y-32970D02*
X45980Y-35980D01*
X43130Y-30120D02*
X45980Y-32970D01*
X43130Y-29850D02*
X43130Y-30120D01*
X43610Y-29370D02*
X43130Y-29850D01*
X44980Y-35980D02*
X45500Y-36500D01*
X44980Y-32470D02*
X44980Y-35980D01*
X43340Y-30830D02*
X44980Y-32470D01*
X44020Y-36020D02*
X44500Y-36500D01*
X44020Y-32000D02*
X44020Y-36020D01*
X42790Y-30770D02*
X44020Y-32000D01*
X45720Y-28000D02*
X46900Y-29180D01*
X45720Y-28000D02*
X45300Y-28000D01*
X65300Y-29960D02*
X65300Y-30180D01*
X65060Y-29720D02*
X65300Y-29960D01*
X56780Y-29720D02*
X65060Y-29720D01*
X51640Y-29050D02*
X56110Y-29050D01*
X56110Y-29050D02*
X56780Y-29720D01*
X51510Y-29180D02*
X51640Y-29050D01*
X46900Y-29180D02*
X51510Y-29180D01*
X51820Y-29420D02*
X46100Y-29420D01*
X46100Y-29420D02*
X45920Y-29240D01*
X46100Y-29420D02*
X45920Y-29240D01*
X54100Y-24160D02*
X54100Y-25780D01*
X54110Y-24150D02*
X54100Y-24160D01*
X46700Y-27800D02*
X50840Y-27800D01*
X51360Y-27280D02*
X52600Y-27280D01*
X50840Y-27800D02*
X51360Y-27280D01*
X54100Y-25780D02*
X52600Y-27280D01*
X47000Y-28950D02*
X51420Y-28950D01*
X55150Y-28510D02*
X55150Y-28130D01*
X54850Y-28810D02*
X55150Y-28510D01*
X51560Y-28810D02*
X54850Y-28810D01*
X51420Y-28950D02*
X51560Y-28810D01*
X41990Y-30210D02*
X41980Y-30210D01*
X43850Y-27600D02*
X45650Y-27600D01*
X42810Y-28640D02*
X43850Y-27600D01*
X42810Y-29380D02*
X42810Y-28640D01*
X41980Y-30210D02*
X42810Y-29380D01*
X45650Y-27600D02*
X47000Y-28950D01*
X37900Y-36330D02*
X37900Y-30960D01*
X38160Y-29600D02*
X38720Y-29040D01*
X38160Y-30700D02*
X38160Y-29600D01*
X38800Y-38200D02*
X38800Y-37230D01*
X38720Y-28400D02*
X38720Y-29040D01*
X38740Y-28380D02*
X38720Y-28400D01*
X38800Y-37230D02*
X37900Y-36330D01*
X37900Y-30960D02*
X38160Y-30700D01*
X38500Y-36200D02*
X38500Y-35160D01*
X42070Y-29200D02*
X42430Y-29210D01*
X41520Y-29750D02*
X42070Y-29200D01*
X41520Y-32140D02*
X41520Y-29750D01*
X38500Y-35160D02*
X41520Y-32140D01*
X39310Y-25530D02*
X39310Y-28690D01*
X39500Y-25340D02*
X39310Y-25530D01*
X39400Y-32400D02*
X39400Y-32080D01*
X39820Y-29200D02*
X39310Y-28690D01*
X39820Y-31660D02*
X39820Y-29200D01*
X39400Y-32080D02*
X39820Y-31660D01*
X38800Y-24400D02*
X38800Y-25460D01*
X38800Y-25460D02*
X39090Y-25750D01*
X39090Y-25750D02*
X39090Y-28830D01*
X39440Y-31430D02*
X39440Y-29180D01*
X39440Y-29180D02*
X39090Y-28830D01*
X54520Y-27960D02*
X54520Y-28390D01*
X48340Y-28610D02*
X48060Y-28610D01*
X48490Y-28760D02*
X48340Y-28610D01*
X51260Y-28760D02*
X48490Y-28760D01*
X51420Y-28600D02*
X51260Y-28760D01*
X54310Y-28600D02*
X51420Y-28600D01*
X54520Y-28390D02*
X54310Y-28600D01*
X47010Y-28610D02*
X48060Y-28610D01*
X45790Y-27390D02*
X47010Y-28610D01*
X42750Y-27390D02*
X45790Y-27390D01*
X42600Y-27540D02*
X42750Y-27390D01*
G54D40*
X48680Y-27050D02*
X48680Y-26970D01*
X48950Y-26700D02*
X51750Y-26700D01*
X48680Y-26970D02*
X48950Y-26700D01*
X51750Y-26700D02*
X52075Y-26375D01*
X48680Y-27050D02*
X48650Y-27050D01*
X47150Y-22550D02*
X47150Y-22035D01*
X47150Y-22035D02*
X47888Y-21296D01*
X52075Y-24925D02*
X52075Y-26375D01*
X47150Y-22550D02*
X47150Y-24000D01*
X51570Y-24420D02*
X52075Y-24925D01*
X52075Y-24925D02*
X52080Y-24930D01*
X47570Y-24420D02*
X51570Y-24420D01*
X47150Y-24000D02*
X47570Y-24420D01*
G54D11*
X68800Y-23200D02*
X67200Y-23200D01*
X69000Y-23400D02*
X68800Y-23200D01*
G54D40*
X69200Y-34721D02*
X69200Y-35000D01*
X69200Y-35000D02*
X68200Y-36000D01*
X63130Y-35580D02*
X63400Y-35580D01*
X63400Y-35580D02*
X63520Y-35460D01*
X63130Y-38160D02*
X63540Y-38160D01*
X63130Y-36880D02*
X63560Y-36880D01*
X48911Y-21296D02*
X48911Y-21311D01*
X48911Y-21311D02*
X50150Y-22550D01*
X39500Y-35500D02*
X39700Y-35500D01*
X39700Y-35500D02*
X40000Y-35200D01*
X62630Y-35580D02*
X62350Y-35580D01*
X62630Y-36880D02*
X62350Y-36880D01*
X62630Y-38160D02*
X62350Y-38160D01*
X62350Y-35580D02*
X62040Y-35580D01*
X62630Y-38160D02*
X61960Y-38160D01*
X62630Y-36880D02*
X61920Y-36880D01*
G54D11*
X37100Y-24750D02*
X37130Y-24750D01*
X37130Y-24750D02*
X37570Y-25190D01*
X37100Y-29220D02*
X37100Y-31050D01*
X37740Y-28580D02*
X37100Y-29220D01*
X37740Y-27340D02*
X37740Y-28580D01*
X37570Y-27170D02*
X37740Y-27340D01*
X37570Y-25190D02*
X37570Y-27170D01*
X37950Y-26950D02*
X37950Y-28770D01*
X37950Y-28770D02*
X37620Y-29100D01*
X37100Y-33050D02*
X37120Y-33050D01*
X37620Y-32550D02*
X37620Y-29100D01*
X37120Y-33050D02*
X37620Y-32550D01*
X36100Y-26250D02*
X36100Y-26260D01*
X36100Y-26260D02*
X36590Y-26750D01*
X36550Y-29260D02*
X36550Y-32090D01*
X37550Y-28260D02*
X36550Y-29260D01*
X37550Y-27500D02*
X37550Y-28260D01*
X37320Y-27270D02*
X37550Y-27500D01*
X36790Y-27270D02*
X37320Y-27270D01*
X36590Y-27070D02*
X36790Y-27270D01*
X36590Y-26750D02*
X36590Y-27070D01*
X36100Y-32550D02*
X36100Y-32540D01*
X36100Y-32540D02*
X36550Y-32090D01*
X48400Y-21296D02*
X48400Y-21800D01*
X48400Y-21800D02*
X49150Y-22550D01*
X48150Y-22550D02*
X48150Y-20798D01*
X48150Y-20798D02*
X48144Y-20792D01*
X42050Y-22260D02*
X41670Y-21880D01*
X44830Y-22260D02*
X42050Y-22260D01*
X45360Y-22790D02*
X44830Y-22260D01*
X45360Y-23540D02*
X45360Y-22790D01*
X45350Y-23850D02*
X45360Y-23540D01*
X46690Y-26120D02*
X45640Y-25070D01*
X49090Y-26120D02*
X46690Y-26120D01*
X49100Y-26110D02*
X49090Y-26120D01*
X44960Y-23100D02*
X44960Y-22810D01*
X44650Y-22500D02*
X41600Y-22500D01*
X44960Y-22810D02*
X44650Y-22500D01*
X51610Y-26250D02*
X50590Y-26250D01*
X50590Y-26250D02*
X50390Y-26450D01*
X46610Y-26450D02*
X45790Y-25630D01*
X50390Y-26450D02*
X46610Y-26450D01*
X40520Y-27620D02*
X40000Y-27100D01*
X41230Y-27620D02*
X40520Y-27620D01*
X43220Y-25630D02*
X41230Y-27620D01*
X45790Y-25630D02*
X43220Y-25630D01*
X48790Y-24820D02*
X46350Y-24820D01*
X46350Y-24820D02*
X46110Y-24580D01*
X46110Y-24580D02*
X43570Y-24580D01*
X41000Y-27100D02*
X41050Y-27100D01*
X41050Y-27100D02*
X43570Y-24580D01*
X54931Y-21400D02*
X54931Y-23471D01*
X55480Y-24020D02*
X55480Y-26010D01*
X54931Y-23471D02*
X55480Y-24020D01*
G54D40*
X43740Y-23840D02*
X43740Y-23715D01*
X43605Y-23580D02*
X37020Y-23580D01*
X43740Y-23715D02*
X43605Y-23580D01*
X38300Y-37600D02*
X38300Y-37230D01*
X34625Y-24525D02*
X32570Y-26580D01*
X32570Y-26580D02*
X32570Y-31470D01*
X32570Y-31470D02*
X33000Y-31900D01*
X33000Y-31900D02*
X33000Y-33420D01*
X33000Y-33420D02*
X33730Y-34150D01*
X33730Y-34150D02*
X34460Y-34150D01*
X34460Y-34150D02*
X36410Y-36100D01*
X36410Y-36100D02*
X37170Y-36100D01*
X36075Y-24525D02*
X37020Y-23580D01*
X34625Y-24525D02*
X36075Y-24525D01*
X38300Y-37230D02*
X37170Y-36100D01*
G54D10*
G36*
X44590Y-35505D02*
X44505Y-35590D01*
X44500Y-35584D01*
X44494Y-35590D01*
X44409Y-35505D01*
X44415Y-35500D01*
X44409Y-35494D01*
X44494Y-35409D01*
X44500Y-35415D01*
X44505Y-35409D01*
X44590Y-35494D01*
X44584Y-35500D01*
X44590Y-35505D01*
X44590Y-35505D01*
G37*
G54D41*
X44590Y-35505D02*
X44505Y-35590D01*
X44500Y-35584D01*
X44494Y-35590D01*
X44409Y-35505D01*
X44415Y-35500D01*
X44409Y-35494D01*
X44494Y-35409D01*
X44500Y-35415D01*
X44505Y-35409D01*
X44590Y-35494D01*
X44584Y-35500D01*
X44590Y-35505D01*
G54D10*
G36*
X45590Y-35505D02*
X45505Y-35590D01*
X45500Y-35584D01*
X45494Y-35590D01*
X45409Y-35505D01*
X45415Y-35500D01*
X45409Y-35494D01*
X45494Y-35409D01*
X45500Y-35415D01*
X45505Y-35409D01*
X45590Y-35494D01*
X45584Y-35500D01*
X45590Y-35505D01*
X45590Y-35505D01*
G37*
G54D41*
X45590Y-35505D02*
X45505Y-35590D01*
X45500Y-35584D01*
X45494Y-35590D01*
X45409Y-35505D01*
X45415Y-35500D01*
X45409Y-35494D01*
X45494Y-35409D01*
X45500Y-35415D01*
X45505Y-35409D01*
X45590Y-35494D01*
X45584Y-35500D01*
X45590Y-35505D01*
G54D10*
G36*
X49860Y-38710D02*
X47046Y-38710D01*
X47046Y-35569D01*
X47031Y-35355D01*
X46978Y-35226D01*
X46886Y-35198D01*
X46801Y-35282D01*
X46584Y-35500D01*
X46886Y-35801D01*
X46978Y-35773D01*
X47046Y-35569D01*
X47046Y-38710D01*
X46940Y-38710D01*
X46940Y-38172D01*
X46918Y-38120D01*
X46879Y-38081D01*
X46827Y-38060D01*
X46772Y-38059D01*
X46172Y-38059D01*
X46120Y-38081D01*
X46081Y-38120D01*
X46060Y-38172D01*
X46059Y-38227D01*
X46059Y-38710D01*
X45889Y-38710D01*
X45939Y-38587D01*
X45940Y-38412D01*
X45873Y-38251D01*
X45749Y-38127D01*
X45587Y-38060D01*
X45412Y-38059D01*
X45251Y-38126D01*
X45127Y-38250D01*
X45060Y-38412D01*
X45059Y-38587D01*
X45110Y-38710D01*
X44889Y-38710D01*
X44939Y-38587D01*
X44940Y-38412D01*
X44873Y-38251D01*
X44749Y-38127D01*
X44587Y-38060D01*
X44412Y-38059D01*
X44251Y-38126D01*
X44127Y-38250D01*
X44060Y-38412D01*
X44059Y-38587D01*
X44110Y-38710D01*
X43889Y-38710D01*
X43939Y-38587D01*
X43940Y-38412D01*
X43940Y-36412D01*
X43873Y-36251D01*
X43801Y-36179D01*
X43749Y-36127D01*
X43587Y-36060D01*
X43412Y-36059D01*
X43251Y-36126D01*
X43127Y-36250D01*
X43060Y-36412D01*
X43059Y-36587D01*
X43126Y-36748D01*
X43250Y-36872D01*
X43412Y-36939D01*
X43587Y-36940D01*
X43748Y-36873D01*
X43872Y-36749D01*
X43939Y-36587D01*
X43940Y-36412D01*
X43940Y-38412D01*
X43873Y-38251D01*
X43749Y-38127D01*
X43587Y-38060D01*
X43412Y-38059D01*
X43251Y-38126D01*
X43127Y-38250D01*
X43060Y-38412D01*
X43059Y-38587D01*
X43110Y-38710D01*
X42889Y-38710D01*
X42939Y-38587D01*
X42940Y-38412D01*
X42940Y-36412D01*
X42873Y-36251D01*
X42801Y-36179D01*
X42801Y-35886D01*
X42500Y-35584D01*
X42415Y-35669D01*
X42415Y-35500D01*
X42113Y-35198D01*
X42021Y-35226D01*
X42002Y-35285D01*
X41978Y-35226D01*
X41886Y-35198D01*
X41801Y-35282D01*
X41801Y-35113D01*
X41773Y-35021D01*
X41569Y-34953D01*
X41355Y-34968D01*
X41226Y-35021D01*
X41198Y-35113D01*
X41500Y-35415D01*
X41801Y-35113D01*
X41801Y-35282D01*
X41584Y-35500D01*
X41886Y-35801D01*
X41978Y-35773D01*
X41997Y-35714D01*
X42021Y-35773D01*
X42113Y-35801D01*
X42415Y-35500D01*
X42415Y-35669D01*
X42198Y-35886D01*
X42226Y-35978D01*
X42430Y-36046D01*
X42644Y-36031D01*
X42773Y-35978D01*
X42801Y-35886D01*
X42801Y-36179D01*
X42749Y-36127D01*
X42587Y-36060D01*
X42412Y-36059D01*
X42251Y-36126D01*
X42127Y-36250D01*
X42060Y-36412D01*
X42059Y-36587D01*
X42126Y-36748D01*
X42250Y-36872D01*
X42412Y-36939D01*
X42587Y-36940D01*
X42748Y-36873D01*
X42872Y-36749D01*
X42939Y-36587D01*
X42940Y-36412D01*
X42940Y-38412D01*
X42873Y-38251D01*
X42749Y-38127D01*
X42587Y-38060D01*
X42412Y-38059D01*
X42251Y-38126D01*
X42127Y-38250D01*
X42060Y-38412D01*
X42059Y-38587D01*
X42110Y-38710D01*
X41889Y-38710D01*
X41939Y-38587D01*
X41940Y-38412D01*
X41940Y-36412D01*
X41873Y-36251D01*
X41801Y-36179D01*
X41801Y-35886D01*
X41500Y-35584D01*
X41415Y-35669D01*
X41415Y-35500D01*
X41113Y-35198D01*
X41021Y-35226D01*
X41002Y-35285D01*
X40978Y-35226D01*
X40886Y-35198D01*
X40801Y-35282D01*
X40801Y-35113D01*
X40773Y-35021D01*
X40569Y-34953D01*
X40355Y-34968D01*
X40226Y-35021D01*
X40198Y-35113D01*
X40500Y-35415D01*
X40801Y-35113D01*
X40801Y-35282D01*
X40584Y-35500D01*
X40886Y-35801D01*
X40978Y-35773D01*
X40997Y-35714D01*
X41021Y-35773D01*
X41113Y-35801D01*
X41415Y-35500D01*
X41415Y-35669D01*
X41198Y-35886D01*
X41226Y-35978D01*
X41430Y-36046D01*
X41644Y-36031D01*
X41773Y-35978D01*
X41801Y-35886D01*
X41801Y-36179D01*
X41749Y-36127D01*
X41587Y-36060D01*
X41412Y-36059D01*
X41251Y-36126D01*
X41127Y-36250D01*
X41060Y-36412D01*
X41059Y-36587D01*
X41126Y-36748D01*
X41250Y-36872D01*
X41412Y-36939D01*
X41587Y-36940D01*
X41748Y-36873D01*
X41872Y-36749D01*
X41939Y-36587D01*
X41940Y-36412D01*
X41940Y-38412D01*
X41873Y-38251D01*
X41749Y-38127D01*
X41587Y-38060D01*
X41412Y-38059D01*
X41251Y-38126D01*
X41127Y-38250D01*
X41060Y-38412D01*
X41059Y-38587D01*
X41110Y-38710D01*
X40889Y-38710D01*
X40939Y-38587D01*
X40940Y-38412D01*
X40940Y-36412D01*
X40873Y-36251D01*
X40801Y-36179D01*
X40801Y-35886D01*
X40500Y-35584D01*
X40415Y-35669D01*
X40415Y-35500D01*
X40113Y-35198D01*
X40021Y-35226D01*
X40002Y-35285D01*
X39978Y-35226D01*
X39886Y-35198D01*
X39584Y-35500D01*
X39886Y-35801D01*
X39978Y-35773D01*
X39997Y-35714D01*
X40021Y-35773D01*
X40113Y-35801D01*
X40415Y-35500D01*
X40415Y-35669D01*
X40198Y-35886D01*
X40226Y-35978D01*
X40430Y-36046D01*
X40644Y-36031D01*
X40773Y-35978D01*
X40801Y-35886D01*
X40801Y-36179D01*
X40749Y-36127D01*
X40587Y-36060D01*
X40412Y-36059D01*
X40251Y-36126D01*
X40127Y-36250D01*
X40060Y-36412D01*
X40059Y-36587D01*
X40126Y-36748D01*
X40250Y-36872D01*
X40412Y-36939D01*
X40587Y-36940D01*
X40748Y-36873D01*
X40872Y-36749D01*
X40939Y-36587D01*
X40940Y-36412D01*
X40940Y-38412D01*
X40873Y-38251D01*
X40749Y-38127D01*
X40587Y-38060D01*
X40412Y-38059D01*
X40251Y-38126D01*
X40127Y-38250D01*
X40060Y-38412D01*
X40059Y-38587D01*
X40110Y-38710D01*
X39889Y-38710D01*
X39939Y-38587D01*
X39940Y-38412D01*
X39873Y-38251D01*
X39749Y-38127D01*
X39587Y-38060D01*
X39412Y-38059D01*
X39251Y-38126D01*
X39240Y-38137D01*
X39240Y-36862D01*
X39250Y-36872D01*
X39412Y-36939D01*
X39587Y-36940D01*
X39748Y-36873D01*
X39872Y-36749D01*
X39939Y-36587D01*
X39940Y-36412D01*
X39873Y-36251D01*
X39749Y-36127D01*
X39587Y-36060D01*
X39412Y-36059D01*
X39251Y-36126D01*
X39240Y-36137D01*
X39240Y-35982D01*
X39430Y-36046D01*
X39644Y-36031D01*
X39773Y-35978D01*
X39801Y-35886D01*
X39500Y-35584D01*
X39494Y-35590D01*
X39409Y-35505D01*
X39415Y-35500D01*
X39409Y-35494D01*
X39494Y-35409D01*
X39500Y-35415D01*
X39801Y-35113D01*
X39773Y-35021D01*
X39569Y-34953D01*
X39355Y-34968D01*
X39240Y-35016D01*
X39240Y-34940D01*
X43830Y-34940D01*
X43830Y-35085D01*
X43801Y-35113D01*
X43773Y-35021D01*
X43569Y-34953D01*
X43355Y-34968D01*
X43226Y-35021D01*
X43198Y-35113D01*
X43500Y-35415D01*
X43505Y-35409D01*
X43590Y-35494D01*
X43584Y-35500D01*
X43590Y-35505D01*
X43505Y-35590D01*
X43500Y-35584D01*
X43415Y-35669D01*
X43415Y-35500D01*
X43113Y-35198D01*
X43021Y-35226D01*
X43002Y-35285D01*
X42978Y-35226D01*
X42886Y-35198D01*
X42801Y-35282D01*
X42801Y-35113D01*
X42773Y-35021D01*
X42569Y-34953D01*
X42355Y-34968D01*
X42226Y-35021D01*
X42198Y-35113D01*
X42500Y-35415D01*
X42801Y-35113D01*
X42801Y-35282D01*
X42584Y-35500D01*
X42886Y-35801D01*
X42978Y-35773D01*
X42997Y-35714D01*
X43021Y-35773D01*
X43113Y-35801D01*
X43415Y-35500D01*
X43415Y-35669D01*
X43198Y-35886D01*
X43226Y-35978D01*
X43430Y-36046D01*
X43644Y-36031D01*
X43773Y-35978D01*
X43801Y-35886D01*
X43801Y-35886D01*
X43830Y-35914D01*
X43830Y-36020D01*
X43844Y-36092D01*
X43885Y-36154D01*
X44084Y-36353D01*
X44060Y-36412D01*
X44059Y-36587D01*
X44126Y-36748D01*
X44250Y-36872D01*
X44412Y-36939D01*
X44587Y-36940D01*
X44748Y-36873D01*
X44872Y-36749D01*
X44939Y-36587D01*
X44940Y-36412D01*
X44873Y-36251D01*
X44749Y-36127D01*
X44587Y-36060D01*
X44412Y-36059D01*
X44353Y-36084D01*
X44256Y-35988D01*
X44430Y-36046D01*
X44644Y-36031D01*
X44773Y-35978D01*
X44790Y-35924D01*
X44790Y-35980D01*
X44804Y-36052D01*
X44845Y-36114D01*
X45084Y-36353D01*
X45060Y-36412D01*
X45059Y-36587D01*
X45126Y-36748D01*
X45250Y-36872D01*
X45412Y-36939D01*
X45587Y-36940D01*
X45748Y-36873D01*
X45872Y-36749D01*
X45939Y-36587D01*
X45940Y-36412D01*
X45873Y-36251D01*
X45749Y-36127D01*
X45587Y-36060D01*
X45412Y-36059D01*
X45353Y-36084D01*
X45256Y-35988D01*
X45430Y-36046D01*
X45644Y-36031D01*
X45773Y-35978D01*
X45790Y-35924D01*
X45790Y-35980D01*
X45804Y-36052D01*
X45845Y-36114D01*
X46059Y-36328D01*
X46059Y-36827D01*
X46081Y-36879D01*
X46120Y-36918D01*
X46172Y-36939D01*
X46227Y-36940D01*
X46827Y-36940D01*
X46879Y-36918D01*
X46918Y-36879D01*
X46939Y-36827D01*
X46940Y-36772D01*
X46940Y-36172D01*
X46918Y-36120D01*
X46879Y-36081D01*
X46827Y-36060D01*
X46772Y-36059D01*
X46328Y-36059D01*
X46256Y-35988D01*
X46430Y-36046D01*
X46644Y-36031D01*
X46773Y-35978D01*
X46801Y-35886D01*
X46500Y-35584D01*
X46494Y-35590D01*
X46409Y-35505D01*
X46415Y-35500D01*
X46409Y-35494D01*
X46494Y-35409D01*
X46500Y-35415D01*
X46801Y-35113D01*
X46773Y-35021D01*
X46569Y-34953D01*
X46355Y-34968D01*
X46226Y-35021D01*
X46198Y-35113D01*
X46170Y-35085D01*
X46170Y-34940D01*
X49860Y-34940D01*
X49860Y-38710D01*
X49860Y-38710D01*
G37*
G54D41*
X49860Y-38710D02*
X47046Y-38710D01*
X47046Y-35569D01*
X47031Y-35355D01*
X46978Y-35226D01*
X46886Y-35198D01*
X46801Y-35282D01*
X46584Y-35500D01*
X46886Y-35801D01*
X46978Y-35773D01*
X47046Y-35569D01*
X47046Y-38710D01*
X46940Y-38710D01*
X46940Y-38172D01*
X46918Y-38120D01*
X46879Y-38081D01*
X46827Y-38060D01*
X46772Y-38059D01*
X46172Y-38059D01*
X46120Y-38081D01*
X46081Y-38120D01*
X46060Y-38172D01*
X46059Y-38227D01*
X46059Y-38710D01*
X45889Y-38710D01*
X45939Y-38587D01*
X45940Y-38412D01*
X45873Y-38251D01*
X45749Y-38127D01*
X45587Y-38060D01*
X45412Y-38059D01*
X45251Y-38126D01*
X45127Y-38250D01*
X45060Y-38412D01*
X45059Y-38587D01*
X45110Y-38710D01*
X44889Y-38710D01*
X44939Y-38587D01*
X44940Y-38412D01*
X44873Y-38251D01*
X44749Y-38127D01*
X44587Y-38060D01*
X44412Y-38059D01*
X44251Y-38126D01*
X44127Y-38250D01*
X44060Y-38412D01*
X44059Y-38587D01*
X44110Y-38710D01*
X43889Y-38710D01*
X43939Y-38587D01*
X43940Y-38412D01*
X43940Y-36412D01*
X43873Y-36251D01*
X43801Y-36179D01*
X43749Y-36127D01*
X43587Y-36060D01*
X43412Y-36059D01*
X43251Y-36126D01*
X43127Y-36250D01*
X43060Y-36412D01*
X43059Y-36587D01*
X43126Y-36748D01*
X43250Y-36872D01*
X43412Y-36939D01*
X43587Y-36940D01*
X43748Y-36873D01*
X43872Y-36749D01*
X43939Y-36587D01*
X43940Y-36412D01*
X43940Y-38412D01*
X43873Y-38251D01*
X43749Y-38127D01*
X43587Y-38060D01*
X43412Y-38059D01*
X43251Y-38126D01*
X43127Y-38250D01*
X43060Y-38412D01*
X43059Y-38587D01*
X43110Y-38710D01*
X42889Y-38710D01*
X42939Y-38587D01*
X42940Y-38412D01*
X42940Y-36412D01*
X42873Y-36251D01*
X42801Y-36179D01*
X42801Y-35886D01*
X42500Y-35584D01*
X42415Y-35669D01*
X42415Y-35500D01*
X42113Y-35198D01*
X42021Y-35226D01*
X42002Y-35285D01*
X41978Y-35226D01*
X41886Y-35198D01*
X41801Y-35282D01*
X41801Y-35113D01*
X41773Y-35021D01*
X41569Y-34953D01*
X41355Y-34968D01*
X41226Y-35021D01*
X41198Y-35113D01*
X41500Y-35415D01*
X41801Y-35113D01*
X41801Y-35282D01*
X41584Y-35500D01*
X41886Y-35801D01*
X41978Y-35773D01*
X41997Y-35714D01*
X42021Y-35773D01*
X42113Y-35801D01*
X42415Y-35500D01*
X42415Y-35669D01*
X42198Y-35886D01*
X42226Y-35978D01*
X42430Y-36046D01*
X42644Y-36031D01*
X42773Y-35978D01*
X42801Y-35886D01*
X42801Y-36179D01*
X42749Y-36127D01*
X42587Y-36060D01*
X42412Y-36059D01*
X42251Y-36126D01*
X42127Y-36250D01*
X42060Y-36412D01*
X42059Y-36587D01*
X42126Y-36748D01*
X42250Y-36872D01*
X42412Y-36939D01*
X42587Y-36940D01*
X42748Y-36873D01*
X42872Y-36749D01*
X42939Y-36587D01*
X42940Y-36412D01*
X42940Y-38412D01*
X42873Y-38251D01*
X42749Y-38127D01*
X42587Y-38060D01*
X42412Y-38059D01*
X42251Y-38126D01*
X42127Y-38250D01*
X42060Y-38412D01*
X42059Y-38587D01*
X42110Y-38710D01*
X41889Y-38710D01*
X41939Y-38587D01*
X41940Y-38412D01*
X41940Y-36412D01*
X41873Y-36251D01*
X41801Y-36179D01*
X41801Y-35886D01*
X41500Y-35584D01*
X41415Y-35669D01*
X41415Y-35500D01*
X41113Y-35198D01*
X41021Y-35226D01*
X41002Y-35285D01*
X40978Y-35226D01*
X40886Y-35198D01*
X40801Y-35282D01*
X40801Y-35113D01*
X40773Y-35021D01*
X40569Y-34953D01*
X40355Y-34968D01*
X40226Y-35021D01*
X40198Y-35113D01*
X40500Y-35415D01*
X40801Y-35113D01*
X40801Y-35282D01*
X40584Y-35500D01*
X40886Y-35801D01*
X40978Y-35773D01*
X40997Y-35714D01*
X41021Y-35773D01*
X41113Y-35801D01*
X41415Y-35500D01*
X41415Y-35669D01*
X41198Y-35886D01*
X41226Y-35978D01*
X41430Y-36046D01*
X41644Y-36031D01*
X41773Y-35978D01*
X41801Y-35886D01*
X41801Y-36179D01*
X41749Y-36127D01*
X41587Y-36060D01*
X41412Y-36059D01*
X41251Y-36126D01*
X41127Y-36250D01*
X41060Y-36412D01*
X41059Y-36587D01*
X41126Y-36748D01*
X41250Y-36872D01*
X41412Y-36939D01*
X41587Y-36940D01*
X41748Y-36873D01*
X41872Y-36749D01*
X41939Y-36587D01*
X41940Y-36412D01*
X41940Y-38412D01*
X41873Y-38251D01*
X41749Y-38127D01*
X41587Y-38060D01*
X41412Y-38059D01*
X41251Y-38126D01*
X41127Y-38250D01*
X41060Y-38412D01*
X41059Y-38587D01*
X41110Y-38710D01*
X40889Y-38710D01*
X40939Y-38587D01*
X40940Y-38412D01*
X40940Y-36412D01*
X40873Y-36251D01*
X40801Y-36179D01*
X40801Y-35886D01*
X40500Y-35584D01*
X40415Y-35669D01*
X40415Y-35500D01*
X40113Y-35198D01*
X40021Y-35226D01*
X40002Y-35285D01*
X39978Y-35226D01*
X39886Y-35198D01*
X39584Y-35500D01*
X39886Y-35801D01*
X39978Y-35773D01*
X39997Y-35714D01*
X40021Y-35773D01*
X40113Y-35801D01*
X40415Y-35500D01*
X40415Y-35669D01*
X40198Y-35886D01*
X40226Y-35978D01*
X40430Y-36046D01*
X40644Y-36031D01*
X40773Y-35978D01*
X40801Y-35886D01*
X40801Y-36179D01*
X40749Y-36127D01*
X40587Y-36060D01*
X40412Y-36059D01*
X40251Y-36126D01*
X40127Y-36250D01*
X40060Y-36412D01*
X40059Y-36587D01*
X40126Y-36748D01*
X40250Y-36872D01*
X40412Y-36939D01*
X40587Y-36940D01*
X40748Y-36873D01*
X40872Y-36749D01*
X40939Y-36587D01*
X40940Y-36412D01*
X40940Y-38412D01*
X40873Y-38251D01*
X40749Y-38127D01*
X40587Y-38060D01*
X40412Y-38059D01*
X40251Y-38126D01*
X40127Y-38250D01*
X40060Y-38412D01*
X40059Y-38587D01*
X40110Y-38710D01*
X39889Y-38710D01*
X39939Y-38587D01*
X39940Y-38412D01*
X39873Y-38251D01*
X39749Y-38127D01*
X39587Y-38060D01*
X39412Y-38059D01*
X39251Y-38126D01*
X39240Y-38137D01*
X39240Y-36862D01*
X39250Y-36872D01*
X39412Y-36939D01*
X39587Y-36940D01*
X39748Y-36873D01*
X39872Y-36749D01*
X39939Y-36587D01*
X39940Y-36412D01*
X39873Y-36251D01*
X39749Y-36127D01*
X39587Y-36060D01*
X39412Y-36059D01*
X39251Y-36126D01*
X39240Y-36137D01*
X39240Y-35982D01*
X39430Y-36046D01*
X39644Y-36031D01*
X39773Y-35978D01*
X39801Y-35886D01*
X39500Y-35584D01*
X39494Y-35590D01*
X39409Y-35505D01*
X39415Y-35500D01*
X39409Y-35494D01*
X39494Y-35409D01*
X39500Y-35415D01*
X39801Y-35113D01*
X39773Y-35021D01*
X39569Y-34953D01*
X39355Y-34968D01*
X39240Y-35016D01*
X39240Y-34940D01*
X43830Y-34940D01*
X43830Y-35085D01*
X43801Y-35113D01*
X43773Y-35021D01*
X43569Y-34953D01*
X43355Y-34968D01*
X43226Y-35021D01*
X43198Y-35113D01*
X43500Y-35415D01*
X43505Y-35409D01*
X43590Y-35494D01*
X43584Y-35500D01*
X43590Y-35505D01*
X43505Y-35590D01*
X43500Y-35584D01*
X43415Y-35669D01*
X43415Y-35500D01*
X43113Y-35198D01*
X43021Y-35226D01*
X43002Y-35285D01*
X42978Y-35226D01*
X42886Y-35198D01*
X42801Y-35282D01*
X42801Y-35113D01*
X42773Y-35021D01*
X42569Y-34953D01*
X42355Y-34968D01*
X42226Y-35021D01*
X42198Y-35113D01*
X42500Y-35415D01*
X42801Y-35113D01*
X42801Y-35282D01*
X42584Y-35500D01*
X42886Y-35801D01*
X42978Y-35773D01*
X42997Y-35714D01*
X43021Y-35773D01*
X43113Y-35801D01*
X43415Y-35500D01*
X43415Y-35669D01*
X43198Y-35886D01*
X43226Y-35978D01*
X43430Y-36046D01*
X43644Y-36031D01*
X43773Y-35978D01*
X43801Y-35886D01*
X43801Y-35886D01*
X43830Y-35914D01*
X43830Y-36020D01*
X43844Y-36092D01*
X43885Y-36154D01*
X44084Y-36353D01*
X44060Y-36412D01*
X44059Y-36587D01*
X44126Y-36748D01*
X44250Y-36872D01*
X44412Y-36939D01*
X44587Y-36940D01*
X44748Y-36873D01*
X44872Y-36749D01*
X44939Y-36587D01*
X44940Y-36412D01*
X44873Y-36251D01*
X44749Y-36127D01*
X44587Y-36060D01*
X44412Y-36059D01*
X44353Y-36084D01*
X44256Y-35988D01*
X44430Y-36046D01*
X44644Y-36031D01*
X44773Y-35978D01*
X44790Y-35924D01*
X44790Y-35980D01*
X44804Y-36052D01*
X44845Y-36114D01*
X45084Y-36353D01*
X45060Y-36412D01*
X45059Y-36587D01*
X45126Y-36748D01*
X45250Y-36872D01*
X45412Y-36939D01*
X45587Y-36940D01*
X45748Y-36873D01*
X45872Y-36749D01*
X45939Y-36587D01*
X45940Y-36412D01*
X45873Y-36251D01*
X45749Y-36127D01*
X45587Y-36060D01*
X45412Y-36059D01*
X45353Y-36084D01*
X45256Y-35988D01*
X45430Y-36046D01*
X45644Y-36031D01*
X45773Y-35978D01*
X45790Y-35924D01*
X45790Y-35980D01*
X45804Y-36052D01*
X45845Y-36114D01*
X46059Y-36328D01*
X46059Y-36827D01*
X46081Y-36879D01*
X46120Y-36918D01*
X46172Y-36939D01*
X46227Y-36940D01*
X46827Y-36940D01*
X46879Y-36918D01*
X46918Y-36879D01*
X46939Y-36827D01*
X46940Y-36772D01*
X46940Y-36172D01*
X46918Y-36120D01*
X46879Y-36081D01*
X46827Y-36060D01*
X46772Y-36059D01*
X46328Y-36059D01*
X46256Y-35988D01*
X46430Y-36046D01*
X46644Y-36031D01*
X46773Y-35978D01*
X46801Y-35886D01*
X46500Y-35584D01*
X46494Y-35590D01*
X46409Y-35505D01*
X46415Y-35500D01*
X46409Y-35494D01*
X46494Y-35409D01*
X46500Y-35415D01*
X46801Y-35113D01*
X46773Y-35021D01*
X46569Y-34953D01*
X46355Y-34968D01*
X46226Y-35021D01*
X46198Y-35113D01*
X46170Y-35085D01*
X46170Y-34940D01*
X49860Y-34940D01*
X49860Y-38710D01*
G54D10*
G36*
X70210Y-31810D02*
X68388Y-31810D01*
X67360Y-32478D01*
X67360Y-38710D01*
X63690Y-38710D01*
X63690Y-38465D01*
X63732Y-38448D01*
X63828Y-38352D01*
X63879Y-38227D01*
X63880Y-38092D01*
X63828Y-37967D01*
X63732Y-37871D01*
X63690Y-37854D01*
X63690Y-37194D01*
X63752Y-37168D01*
X63848Y-37072D01*
X63899Y-36947D01*
X63900Y-36812D01*
X63848Y-36687D01*
X63752Y-36591D01*
X63690Y-36565D01*
X63690Y-35757D01*
X63712Y-35748D01*
X63808Y-35652D01*
X63859Y-35527D01*
X63860Y-35392D01*
X63808Y-35267D01*
X63712Y-35171D01*
X63587Y-35120D01*
X63452Y-35119D01*
X63427Y-35130D01*
X63427Y-35002D01*
X63406Y-34950D01*
X63366Y-34911D01*
X63315Y-34890D01*
X63259Y-34889D01*
X62944Y-34889D01*
X62851Y-34889D01*
X62815Y-34875D01*
X62759Y-34874D01*
X62447Y-34874D01*
X62444Y-34874D01*
X62197Y-34874D01*
X62145Y-34896D01*
X62106Y-34935D01*
X62085Y-34987D01*
X62084Y-35042D01*
X62084Y-35240D01*
X61972Y-35239D01*
X61924Y-35260D01*
X61810Y-35260D01*
X61810Y-35329D01*
X61751Y-35387D01*
X61700Y-35512D01*
X61699Y-35647D01*
X61751Y-35772D01*
X61810Y-35830D01*
X61810Y-36557D01*
X61727Y-36591D01*
X61631Y-36687D01*
X61580Y-36812D01*
X61579Y-36947D01*
X61631Y-37072D01*
X61727Y-37168D01*
X61810Y-37202D01*
X61810Y-37854D01*
X61767Y-37871D01*
X61671Y-37967D01*
X61620Y-38092D01*
X61619Y-38227D01*
X61671Y-38352D01*
X61767Y-38448D01*
X61810Y-38465D01*
X61810Y-38710D01*
X61499Y-38710D01*
X61499Y-35210D01*
X61468Y-35137D01*
X61449Y-35117D01*
X61449Y-34160D01*
X61418Y-34087D01*
X61362Y-34031D01*
X61289Y-34000D01*
X61210Y-34000D01*
X61137Y-34031D01*
X61081Y-34087D01*
X61050Y-34160D01*
X61050Y-34239D01*
X61081Y-34312D01*
X61137Y-34368D01*
X61210Y-34399D01*
X61289Y-34399D01*
X61362Y-34368D01*
X61418Y-34312D01*
X61449Y-34239D01*
X61449Y-34160D01*
X61449Y-35117D01*
X61412Y-35081D01*
X61339Y-35050D01*
X61260Y-35050D01*
X61187Y-35081D01*
X61131Y-35137D01*
X61100Y-35210D01*
X61100Y-35289D01*
X61131Y-35362D01*
X61187Y-35418D01*
X61260Y-35449D01*
X61339Y-35449D01*
X61412Y-35418D01*
X61468Y-35362D01*
X61499Y-35289D01*
X61499Y-35210D01*
X61499Y-38710D01*
X60349Y-38710D01*
X60349Y-34160D01*
X60318Y-34087D01*
X60262Y-34031D01*
X60189Y-34000D01*
X60110Y-34000D01*
X60037Y-34031D01*
X59981Y-34087D01*
X59950Y-34160D01*
X59950Y-34239D01*
X59981Y-34312D01*
X60037Y-34368D01*
X60110Y-34399D01*
X60189Y-34399D01*
X60262Y-34368D01*
X60318Y-34312D01*
X60349Y-34239D01*
X60349Y-34160D01*
X60349Y-38710D01*
X60202Y-38710D01*
X60202Y-38082D01*
X60202Y-38081D01*
X60202Y-36563D01*
X60202Y-35813D01*
X60180Y-35761D01*
X60141Y-35722D01*
X60089Y-35701D01*
X60034Y-35700D01*
X59399Y-35700D01*
X59399Y-34460D01*
X59399Y-33910D01*
X59368Y-33837D01*
X59312Y-33781D01*
X59239Y-33750D01*
X59160Y-33750D01*
X59087Y-33781D01*
X59031Y-33837D01*
X59000Y-33910D01*
X59000Y-33989D01*
X59031Y-34062D01*
X59087Y-34118D01*
X59160Y-34149D01*
X59239Y-34149D01*
X59312Y-34118D01*
X59368Y-34062D01*
X59399Y-33989D01*
X59399Y-33910D01*
X59399Y-34460D01*
X59368Y-34387D01*
X59312Y-34331D01*
X59239Y-34300D01*
X59160Y-34300D01*
X59087Y-34331D01*
X59031Y-34387D01*
X59000Y-34460D01*
X59000Y-34539D01*
X59031Y-34612D01*
X59087Y-34668D01*
X59160Y-34699D01*
X59239Y-34699D01*
X59312Y-34668D01*
X59368Y-34612D01*
X59399Y-34539D01*
X59399Y-34460D01*
X59399Y-35700D01*
X59284Y-35700D01*
X59232Y-35722D01*
X59193Y-35761D01*
X59172Y-35813D01*
X59171Y-35868D01*
X59171Y-36618D01*
X59193Y-36670D01*
X59232Y-36709D01*
X59284Y-36730D01*
X59339Y-36731D01*
X60089Y-36731D01*
X60141Y-36709D01*
X60180Y-36670D01*
X60201Y-36618D01*
X60202Y-36563D01*
X60202Y-38081D01*
X60123Y-37892D01*
X59979Y-37747D01*
X59789Y-37669D01*
X59585Y-37668D01*
X59395Y-37747D01*
X59250Y-37891D01*
X59172Y-38081D01*
X59171Y-38285D01*
X59250Y-38475D01*
X59394Y-38620D01*
X59584Y-38698D01*
X59788Y-38699D01*
X59978Y-38620D01*
X60123Y-38476D01*
X60201Y-38286D01*
X60202Y-38082D01*
X60202Y-38710D01*
X58628Y-38710D01*
X58628Y-38082D01*
X58628Y-36114D01*
X58549Y-35924D01*
X58549Y-35923D01*
X58549Y-34760D01*
X58549Y-34210D01*
X58549Y-33510D01*
X58518Y-33437D01*
X58462Y-33381D01*
X58389Y-33350D01*
X58310Y-33350D01*
X58237Y-33381D01*
X58181Y-33437D01*
X58150Y-33510D01*
X58150Y-33589D01*
X58181Y-33662D01*
X58237Y-33718D01*
X58310Y-33749D01*
X58389Y-33749D01*
X58462Y-33718D01*
X58518Y-33662D01*
X58549Y-33589D01*
X58549Y-33510D01*
X58549Y-34210D01*
X58518Y-34137D01*
X58462Y-34081D01*
X58389Y-34050D01*
X58310Y-34050D01*
X58237Y-34081D01*
X58181Y-34137D01*
X58150Y-34210D01*
X58150Y-34289D01*
X58181Y-34362D01*
X58237Y-34418D01*
X58310Y-34449D01*
X58389Y-34449D01*
X58462Y-34418D01*
X58518Y-34362D01*
X58549Y-34289D01*
X58549Y-34210D01*
X58549Y-34760D01*
X58518Y-34687D01*
X58462Y-34631D01*
X58389Y-34600D01*
X58310Y-34600D01*
X58237Y-34631D01*
X58181Y-34687D01*
X58150Y-34760D01*
X58150Y-34839D01*
X58181Y-34912D01*
X58237Y-34968D01*
X58310Y-34999D01*
X58389Y-34999D01*
X58462Y-34968D01*
X58518Y-34912D01*
X58549Y-34839D01*
X58549Y-34760D01*
X58549Y-35923D01*
X58405Y-35779D01*
X58215Y-35701D01*
X58011Y-35700D01*
X57821Y-35779D01*
X57676Y-35923D01*
X57598Y-36113D01*
X57597Y-36317D01*
X57676Y-36507D01*
X57820Y-36652D01*
X58010Y-36730D01*
X58214Y-36731D01*
X58404Y-36652D01*
X58549Y-36508D01*
X58627Y-36318D01*
X58628Y-36114D01*
X58628Y-38082D01*
X58549Y-37892D01*
X58405Y-37747D01*
X58215Y-37669D01*
X58011Y-37668D01*
X57821Y-37747D01*
X57676Y-37891D01*
X57598Y-38081D01*
X57597Y-38285D01*
X57676Y-38475D01*
X57820Y-38620D01*
X58010Y-38698D01*
X58214Y-38699D01*
X58404Y-38620D01*
X58549Y-38476D01*
X58627Y-38286D01*
X58628Y-38082D01*
X58628Y-38710D01*
X56440Y-38710D01*
X56440Y-38456D01*
X56492Y-38509D01*
X56627Y-38564D01*
X56772Y-38565D01*
X56906Y-38509D01*
X57009Y-38407D01*
X57064Y-38272D01*
X57065Y-38127D01*
X57009Y-37993D01*
X56907Y-37890D01*
X56772Y-37835D01*
X56627Y-37834D01*
X56493Y-37890D01*
X56440Y-37943D01*
X56440Y-34594D01*
X56966Y-34594D01*
X57017Y-34573D01*
X57057Y-34533D01*
X57078Y-34482D01*
X57078Y-34426D01*
X57078Y-33717D01*
X57057Y-33666D01*
X57017Y-33627D01*
X56966Y-33605D01*
X56910Y-33605D01*
X56440Y-33605D01*
X56440Y-29990D01*
X64728Y-29990D01*
X64627Y-30031D01*
X64531Y-30127D01*
X64480Y-30252D01*
X64479Y-30387D01*
X64531Y-30512D01*
X64627Y-30608D01*
X64752Y-30659D01*
X64887Y-30660D01*
X65012Y-30608D01*
X65108Y-30512D01*
X65123Y-30474D01*
X65232Y-30519D01*
X65367Y-30520D01*
X65492Y-30468D01*
X65588Y-30372D01*
X65639Y-30247D01*
X65640Y-30112D01*
X65589Y-29990D01*
X67758Y-29990D01*
X67657Y-30031D01*
X67561Y-30127D01*
X67510Y-30252D01*
X67509Y-30387D01*
X67561Y-30512D01*
X67657Y-30608D01*
X67782Y-30659D01*
X67917Y-30660D01*
X68042Y-30608D01*
X68138Y-30512D01*
X68189Y-30387D01*
X68190Y-30252D01*
X68138Y-30127D01*
X68042Y-30031D01*
X67941Y-29990D01*
X70210Y-29990D01*
X70210Y-31810D01*
X70210Y-31810D01*
G37*
G54D41*
X70210Y-31810D02*
X68388Y-31810D01*
X67360Y-32478D01*
X67360Y-38710D01*
X63690Y-38710D01*
X63690Y-38465D01*
X63732Y-38448D01*
X63828Y-38352D01*
X63879Y-38227D01*
X63880Y-38092D01*
X63828Y-37967D01*
X63732Y-37871D01*
X63690Y-37854D01*
X63690Y-37194D01*
X63752Y-37168D01*
X63848Y-37072D01*
X63899Y-36947D01*
X63900Y-36812D01*
X63848Y-36687D01*
X63752Y-36591D01*
X63690Y-36565D01*
X63690Y-35757D01*
X63712Y-35748D01*
X63808Y-35652D01*
X63859Y-35527D01*
X63860Y-35392D01*
X63808Y-35267D01*
X63712Y-35171D01*
X63587Y-35120D01*
X63452Y-35119D01*
X63427Y-35130D01*
X63427Y-35002D01*
X63406Y-34950D01*
X63366Y-34911D01*
X63315Y-34890D01*
X63259Y-34889D01*
X62944Y-34889D01*
X62851Y-34889D01*
X62815Y-34875D01*
X62759Y-34874D01*
X62447Y-34874D01*
X62444Y-34874D01*
X62197Y-34874D01*
X62145Y-34896D01*
X62106Y-34935D01*
X62085Y-34987D01*
X62084Y-35042D01*
X62084Y-35240D01*
X61972Y-35239D01*
X61924Y-35260D01*
X61810Y-35260D01*
X61810Y-35329D01*
X61751Y-35387D01*
X61700Y-35512D01*
X61699Y-35647D01*
X61751Y-35772D01*
X61810Y-35830D01*
X61810Y-36557D01*
X61727Y-36591D01*
X61631Y-36687D01*
X61580Y-36812D01*
X61579Y-36947D01*
X61631Y-37072D01*
X61727Y-37168D01*
X61810Y-37202D01*
X61810Y-37854D01*
X61767Y-37871D01*
X61671Y-37967D01*
X61620Y-38092D01*
X61619Y-38227D01*
X61671Y-38352D01*
X61767Y-38448D01*
X61810Y-38465D01*
X61810Y-38710D01*
X61499Y-38710D01*
X61499Y-35210D01*
X61468Y-35137D01*
X61449Y-35117D01*
X61449Y-34160D01*
X61418Y-34087D01*
X61362Y-34031D01*
X61289Y-34000D01*
X61210Y-34000D01*
X61137Y-34031D01*
X61081Y-34087D01*
X61050Y-34160D01*
X61050Y-34239D01*
X61081Y-34312D01*
X61137Y-34368D01*
X61210Y-34399D01*
X61289Y-34399D01*
X61362Y-34368D01*
X61418Y-34312D01*
X61449Y-34239D01*
X61449Y-34160D01*
X61449Y-35117D01*
X61412Y-35081D01*
X61339Y-35050D01*
X61260Y-35050D01*
X61187Y-35081D01*
X61131Y-35137D01*
X61100Y-35210D01*
X61100Y-35289D01*
X61131Y-35362D01*
X61187Y-35418D01*
X61260Y-35449D01*
X61339Y-35449D01*
X61412Y-35418D01*
X61468Y-35362D01*
X61499Y-35289D01*
X61499Y-35210D01*
X61499Y-38710D01*
X60349Y-38710D01*
X60349Y-34160D01*
X60318Y-34087D01*
X60262Y-34031D01*
X60189Y-34000D01*
X60110Y-34000D01*
X60037Y-34031D01*
X59981Y-34087D01*
X59950Y-34160D01*
X59950Y-34239D01*
X59981Y-34312D01*
X60037Y-34368D01*
X60110Y-34399D01*
X60189Y-34399D01*
X60262Y-34368D01*
X60318Y-34312D01*
X60349Y-34239D01*
X60349Y-34160D01*
X60349Y-38710D01*
X60202Y-38710D01*
X60202Y-38082D01*
X60202Y-38081D01*
X60202Y-36563D01*
X60202Y-35813D01*
X60180Y-35761D01*
X60141Y-35722D01*
X60089Y-35701D01*
X60034Y-35700D01*
X59399Y-35700D01*
X59399Y-34460D01*
X59399Y-33910D01*
X59368Y-33837D01*
X59312Y-33781D01*
X59239Y-33750D01*
X59160Y-33750D01*
X59087Y-33781D01*
X59031Y-33837D01*
X59000Y-33910D01*
X59000Y-33989D01*
X59031Y-34062D01*
X59087Y-34118D01*
X59160Y-34149D01*
X59239Y-34149D01*
X59312Y-34118D01*
X59368Y-34062D01*
X59399Y-33989D01*
X59399Y-33910D01*
X59399Y-34460D01*
X59368Y-34387D01*
X59312Y-34331D01*
X59239Y-34300D01*
X59160Y-34300D01*
X59087Y-34331D01*
X59031Y-34387D01*
X59000Y-34460D01*
X59000Y-34539D01*
X59031Y-34612D01*
X59087Y-34668D01*
X59160Y-34699D01*
X59239Y-34699D01*
X59312Y-34668D01*
X59368Y-34612D01*
X59399Y-34539D01*
X59399Y-34460D01*
X59399Y-35700D01*
X59284Y-35700D01*
X59232Y-35722D01*
X59193Y-35761D01*
X59172Y-35813D01*
X59171Y-35868D01*
X59171Y-36618D01*
X59193Y-36670D01*
X59232Y-36709D01*
X59284Y-36730D01*
X59339Y-36731D01*
X60089Y-36731D01*
X60141Y-36709D01*
X60180Y-36670D01*
X60201Y-36618D01*
X60202Y-36563D01*
X60202Y-38081D01*
X60123Y-37892D01*
X59979Y-37747D01*
X59789Y-37669D01*
X59585Y-37668D01*
X59395Y-37747D01*
X59250Y-37891D01*
X59172Y-38081D01*
X59171Y-38285D01*
X59250Y-38475D01*
X59394Y-38620D01*
X59584Y-38698D01*
X59788Y-38699D01*
X59978Y-38620D01*
X60123Y-38476D01*
X60201Y-38286D01*
X60202Y-38082D01*
X60202Y-38710D01*
X58628Y-38710D01*
X58628Y-38082D01*
X58628Y-36114D01*
X58549Y-35924D01*
X58549Y-35923D01*
X58549Y-34760D01*
X58549Y-34210D01*
X58549Y-33510D01*
X58518Y-33437D01*
X58462Y-33381D01*
X58389Y-33350D01*
X58310Y-33350D01*
X58237Y-33381D01*
X58181Y-33437D01*
X58150Y-33510D01*
X58150Y-33589D01*
X58181Y-33662D01*
X58237Y-33718D01*
X58310Y-33749D01*
X58389Y-33749D01*
X58462Y-33718D01*
X58518Y-33662D01*
X58549Y-33589D01*
X58549Y-33510D01*
X58549Y-34210D01*
X58518Y-34137D01*
X58462Y-34081D01*
X58389Y-34050D01*
X58310Y-34050D01*
X58237Y-34081D01*
X58181Y-34137D01*
X58150Y-34210D01*
X58150Y-34289D01*
X58181Y-34362D01*
X58237Y-34418D01*
X58310Y-34449D01*
X58389Y-34449D01*
X58462Y-34418D01*
X58518Y-34362D01*
X58549Y-34289D01*
X58549Y-34210D01*
X58549Y-34760D01*
X58518Y-34687D01*
X58462Y-34631D01*
X58389Y-34600D01*
X58310Y-34600D01*
X58237Y-34631D01*
X58181Y-34687D01*
X58150Y-34760D01*
X58150Y-34839D01*
X58181Y-34912D01*
X58237Y-34968D01*
X58310Y-34999D01*
X58389Y-34999D01*
X58462Y-34968D01*
X58518Y-34912D01*
X58549Y-34839D01*
X58549Y-34760D01*
X58549Y-35923D01*
X58405Y-35779D01*
X58215Y-35701D01*
X58011Y-35700D01*
X57821Y-35779D01*
X57676Y-35923D01*
X57598Y-36113D01*
X57597Y-36317D01*
X57676Y-36507D01*
X57820Y-36652D01*
X58010Y-36730D01*
X58214Y-36731D01*
X58404Y-36652D01*
X58549Y-36508D01*
X58627Y-36318D01*
X58628Y-36114D01*
X58628Y-38082D01*
X58549Y-37892D01*
X58405Y-37747D01*
X58215Y-37669D01*
X58011Y-37668D01*
X57821Y-37747D01*
X57676Y-37891D01*
X57598Y-38081D01*
X57597Y-38285D01*
X57676Y-38475D01*
X57820Y-38620D01*
X58010Y-38698D01*
X58214Y-38699D01*
X58404Y-38620D01*
X58549Y-38476D01*
X58627Y-38286D01*
X58628Y-38082D01*
X58628Y-38710D01*
X56440Y-38710D01*
X56440Y-38456D01*
X56492Y-38509D01*
X56627Y-38564D01*
X56772Y-38565D01*
X56906Y-38509D01*
X57009Y-38407D01*
X57064Y-38272D01*
X57065Y-38127D01*
X57009Y-37993D01*
X56907Y-37890D01*
X56772Y-37835D01*
X56627Y-37834D01*
X56493Y-37890D01*
X56440Y-37943D01*
X56440Y-34594D01*
X56966Y-34594D01*
X57017Y-34573D01*
X57057Y-34533D01*
X57078Y-34482D01*
X57078Y-34426D01*
X57078Y-33717D01*
X57057Y-33666D01*
X57017Y-33627D01*
X56966Y-33605D01*
X56910Y-33605D01*
X56440Y-33605D01*
X56440Y-29990D01*
X64728Y-29990D01*
X64627Y-30031D01*
X64531Y-30127D01*
X64480Y-30252D01*
X64479Y-30387D01*
X64531Y-30512D01*
X64627Y-30608D01*
X64752Y-30659D01*
X64887Y-30660D01*
X65012Y-30608D01*
X65108Y-30512D01*
X65123Y-30474D01*
X65232Y-30519D01*
X65367Y-30520D01*
X65492Y-30468D01*
X65588Y-30372D01*
X65639Y-30247D01*
X65640Y-30112D01*
X65589Y-29990D01*
X67758Y-29990D01*
X67657Y-30031D01*
X67561Y-30127D01*
X67510Y-30252D01*
X67509Y-30387D01*
X67561Y-30512D01*
X67657Y-30608D01*
X67782Y-30659D01*
X67917Y-30660D01*
X68042Y-30608D01*
X68138Y-30512D01*
X68189Y-30387D01*
X68190Y-30252D01*
X68138Y-30127D01*
X68042Y-30031D01*
X67941Y-29990D01*
X70210Y-29990D01*
X70210Y-31810D01*
G54D10*
G36*
X70210Y-36411D02*
X69617Y-36165D01*
X68968Y-36164D01*
X68368Y-36412D01*
X67909Y-36870D01*
X67661Y-37469D01*
X67660Y-38118D01*
X67905Y-38710D01*
X67640Y-38710D01*
X67640Y-32821D01*
X68512Y-32240D01*
X70210Y-32240D01*
X70210Y-36411D01*
X70210Y-36411D01*
G37*
G54D41*
X70210Y-36411D02*
X69617Y-36165D01*
X68968Y-36164D01*
X68368Y-36412D01*
X67909Y-36870D01*
X67661Y-37469D01*
X67660Y-38118D01*
X67905Y-38710D01*
X67640Y-38710D01*
X67640Y-32821D01*
X68512Y-32240D01*
X70210Y-32240D01*
X70210Y-36411D01*
G54D10*
G36*
X70210Y-27410D02*
X68060Y-27410D01*
X66290Y-26377D01*
X66290Y-20290D01*
X68047Y-20290D01*
X67965Y-20372D01*
X67726Y-20947D01*
X67726Y-21569D01*
X67963Y-22145D01*
X68403Y-22585D01*
X68978Y-22824D01*
X69601Y-22825D01*
X70176Y-22587D01*
X70210Y-22554D01*
X70210Y-27410D01*
X70210Y-27410D01*
G37*
G54D41*
X70210Y-27410D02*
X68060Y-27410D01*
X66290Y-26377D01*
X66290Y-20290D01*
X68047Y-20290D01*
X67965Y-20372D01*
X67726Y-20947D01*
X67726Y-21569D01*
X67963Y-22145D01*
X68403Y-22585D01*
X68978Y-22824D01*
X69601Y-22825D01*
X70176Y-22587D01*
X70210Y-22554D01*
X70210Y-27410D01*
G54D10*
G36*
X70210Y-29610D02*
X65540Y-29610D01*
X65540Y-28882D01*
X65488Y-28757D01*
X65392Y-28661D01*
X65267Y-28610D01*
X65132Y-28609D01*
X65007Y-28661D01*
X64911Y-28757D01*
X64860Y-28882D01*
X64859Y-29017D01*
X64911Y-29142D01*
X65007Y-29238D01*
X65132Y-29289D01*
X65267Y-29290D01*
X65392Y-29238D01*
X65488Y-29142D01*
X65539Y-29017D01*
X65540Y-28882D01*
X65540Y-29610D01*
X65218Y-29610D01*
X65194Y-29585D01*
X65132Y-29544D01*
X65060Y-29530D01*
X61619Y-29530D01*
X61619Y-21245D01*
X61500Y-20957D01*
X61280Y-20737D01*
X60993Y-20618D01*
X60682Y-20617D01*
X60394Y-20736D01*
X60174Y-20956D01*
X60055Y-21243D01*
X60054Y-21554D01*
X60173Y-21842D01*
X60393Y-22062D01*
X60680Y-22181D01*
X60991Y-22182D01*
X61279Y-22063D01*
X61499Y-21843D01*
X61618Y-21556D01*
X61619Y-21245D01*
X61619Y-29530D01*
X59650Y-29530D01*
X59650Y-21245D01*
X59531Y-20957D01*
X59312Y-20737D01*
X59024Y-20618D01*
X58713Y-20617D01*
X58426Y-20736D01*
X58205Y-20956D01*
X58086Y-21243D01*
X58086Y-21554D01*
X58205Y-21842D01*
X58424Y-22062D01*
X58712Y-22181D01*
X59023Y-22182D01*
X59310Y-22063D01*
X59531Y-21843D01*
X59650Y-21556D01*
X59650Y-21245D01*
X59650Y-29530D01*
X56858Y-29530D01*
X56440Y-29111D01*
X56440Y-27739D01*
X56547Y-27740D01*
X56672Y-27688D01*
X56768Y-27592D01*
X56819Y-27467D01*
X56820Y-27332D01*
X56768Y-27207D01*
X56672Y-27111D01*
X56547Y-27060D01*
X56440Y-27059D01*
X56440Y-22046D01*
X56456Y-22062D01*
X56743Y-22181D01*
X57054Y-22182D01*
X57342Y-22063D01*
X57562Y-21843D01*
X57681Y-21556D01*
X57682Y-21245D01*
X57563Y-20957D01*
X57343Y-20737D01*
X57056Y-20618D01*
X56745Y-20617D01*
X56457Y-20736D01*
X56440Y-20754D01*
X56440Y-20290D01*
X66010Y-20290D01*
X66010Y-26572D01*
X68088Y-27840D01*
X70210Y-27840D01*
X70210Y-29610D01*
X70210Y-29610D01*
G37*
G54D41*
X70210Y-29610D02*
X65540Y-29610D01*
X65540Y-28882D01*
X65488Y-28757D01*
X65392Y-28661D01*
X65267Y-28610D01*
X65132Y-28609D01*
X65007Y-28661D01*
X64911Y-28757D01*
X64860Y-28882D01*
X64859Y-29017D01*
X64911Y-29142D01*
X65007Y-29238D01*
X65132Y-29289D01*
X65267Y-29290D01*
X65392Y-29238D01*
X65488Y-29142D01*
X65539Y-29017D01*
X65540Y-28882D01*
X65540Y-29610D01*
X65218Y-29610D01*
X65194Y-29585D01*
X65132Y-29544D01*
X65060Y-29530D01*
X61619Y-29530D01*
X61619Y-21245D01*
X61500Y-20957D01*
X61280Y-20737D01*
X60993Y-20618D01*
X60682Y-20617D01*
X60394Y-20736D01*
X60174Y-20956D01*
X60055Y-21243D01*
X60054Y-21554D01*
X60173Y-21842D01*
X60393Y-22062D01*
X60680Y-22181D01*
X60991Y-22182D01*
X61279Y-22063D01*
X61499Y-21843D01*
X61618Y-21556D01*
X61619Y-21245D01*
X61619Y-29530D01*
X59650Y-29530D01*
X59650Y-21245D01*
X59531Y-20957D01*
X59312Y-20737D01*
X59024Y-20618D01*
X58713Y-20617D01*
X58426Y-20736D01*
X58205Y-20956D01*
X58086Y-21243D01*
X58086Y-21554D01*
X58205Y-21842D01*
X58424Y-22062D01*
X58712Y-22181D01*
X59023Y-22182D01*
X59310Y-22063D01*
X59531Y-21843D01*
X59650Y-21556D01*
X59650Y-21245D01*
X59650Y-29530D01*
X56858Y-29530D01*
X56440Y-29111D01*
X56440Y-27739D01*
X56547Y-27740D01*
X56672Y-27688D01*
X56768Y-27592D01*
X56819Y-27467D01*
X56820Y-27332D01*
X56768Y-27207D01*
X56672Y-27111D01*
X56547Y-27060D01*
X56440Y-27059D01*
X56440Y-22046D01*
X56456Y-22062D01*
X56743Y-22181D01*
X57054Y-22182D01*
X57342Y-22063D01*
X57562Y-21843D01*
X57681Y-21556D01*
X57682Y-21245D01*
X57563Y-20957D01*
X57343Y-20737D01*
X57056Y-20618D01*
X56745Y-20617D01*
X56457Y-20736D01*
X56440Y-20754D01*
X56440Y-20290D01*
X66010Y-20290D01*
X66010Y-26572D01*
X68088Y-27840D01*
X70210Y-27840D01*
X70210Y-29610D01*
G54D10*
G36*
X51560Y-22373D02*
X51544Y-22337D01*
X51481Y-22303D01*
X51396Y-22387D01*
X51396Y-22218D01*
X51362Y-22155D01*
X51195Y-22103D01*
X51021Y-22120D01*
X50937Y-22155D01*
X50903Y-22218D01*
X51150Y-22465D01*
X51396Y-22218D01*
X51396Y-22387D01*
X51234Y-22550D01*
X51240Y-22555D01*
X51155Y-22640D01*
X51150Y-22634D01*
X51144Y-22640D01*
X51065Y-22561D01*
X51059Y-22555D01*
X51065Y-22550D01*
X50818Y-22303D01*
X50755Y-22337D01*
X50703Y-22504D01*
X50720Y-22678D01*
X50755Y-22762D01*
X50818Y-22796D01*
X50790Y-22824D01*
X50826Y-22860D01*
X50433Y-22860D01*
X50505Y-22788D01*
X50569Y-22633D01*
X50570Y-22466D01*
X50506Y-22312D01*
X50388Y-22194D01*
X50233Y-22130D01*
X50144Y-22129D01*
X50144Y-21297D01*
X50144Y-21160D01*
X50144Y-21040D01*
X50144Y-20902D01*
X50095Y-20777D01*
X50003Y-20681D01*
X49918Y-20644D01*
X49867Y-20666D01*
X49867Y-20826D01*
X49832Y-20793D01*
X49747Y-20761D01*
X49747Y-20666D01*
X49696Y-20644D01*
X49611Y-20681D01*
X49519Y-20777D01*
X49470Y-20902D01*
X49470Y-21040D01*
X49562Y-21040D01*
X49747Y-21040D01*
X49867Y-21040D01*
X49956Y-21040D01*
X50144Y-21040D01*
X50144Y-21160D01*
X49956Y-21160D01*
X49867Y-21160D01*
X49747Y-21160D01*
X49562Y-21160D01*
X49470Y-21160D01*
X49470Y-21297D01*
X49519Y-21422D01*
X49611Y-21518D01*
X49696Y-21555D01*
X49747Y-21533D01*
X49747Y-21438D01*
X49832Y-21406D01*
X49867Y-21373D01*
X49867Y-21533D01*
X49918Y-21555D01*
X50003Y-21518D01*
X50095Y-21422D01*
X50144Y-21297D01*
X50144Y-22129D01*
X50066Y-22129D01*
X50028Y-22145D01*
X49339Y-21456D01*
X49442Y-21456D01*
X49442Y-21160D01*
X49434Y-21160D01*
X49434Y-21040D01*
X49442Y-21040D01*
X49442Y-20743D01*
X49304Y-20743D01*
X49172Y-20793D01*
X49120Y-20842D01*
X49120Y-20682D01*
X49102Y-20638D01*
X49068Y-20604D01*
X49024Y-20586D01*
X48976Y-20586D01*
X48799Y-20586D01*
X48784Y-20592D01*
X48768Y-20586D01*
X48739Y-20586D01*
X48808Y-20559D01*
X48911Y-20463D01*
X48954Y-20367D01*
X48932Y-20313D01*
X48460Y-20313D01*
X48460Y-20321D01*
X48340Y-20321D01*
X48340Y-20313D01*
X47867Y-20313D01*
X47845Y-20367D01*
X47888Y-20463D01*
X47991Y-20559D01*
X48060Y-20586D01*
X48031Y-20586D01*
X48016Y-20592D01*
X48000Y-20586D01*
X47952Y-20586D01*
X47775Y-20586D01*
X47731Y-20604D01*
X47697Y-20638D01*
X47679Y-20682D01*
X47679Y-20730D01*
X47679Y-20842D01*
X47627Y-20793D01*
X47495Y-20743D01*
X47357Y-20743D01*
X47357Y-21040D01*
X47365Y-21040D01*
X47365Y-21160D01*
X47357Y-21160D01*
X47357Y-21456D01*
X47445Y-21456D01*
X47329Y-21572D01*
X47329Y-21297D01*
X47329Y-21160D01*
X47329Y-21040D01*
X47329Y-20902D01*
X47280Y-20777D01*
X47188Y-20681D01*
X47103Y-20644D01*
X47052Y-20666D01*
X47052Y-20761D01*
X46967Y-20793D01*
X46932Y-20826D01*
X46932Y-20666D01*
X46881Y-20644D01*
X46796Y-20681D01*
X46704Y-20777D01*
X46655Y-20902D01*
X46655Y-21040D01*
X46843Y-21040D01*
X46932Y-21040D01*
X47052Y-21040D01*
X47237Y-21040D01*
X47329Y-21040D01*
X47329Y-21160D01*
X47237Y-21160D01*
X47052Y-21160D01*
X46932Y-21160D01*
X46843Y-21160D01*
X46655Y-21160D01*
X46655Y-21297D01*
X46704Y-21422D01*
X46796Y-21518D01*
X46881Y-21555D01*
X46932Y-21533D01*
X46932Y-21373D01*
X46967Y-21406D01*
X47052Y-21438D01*
X47052Y-21533D01*
X47103Y-21555D01*
X47188Y-21518D01*
X47280Y-21422D01*
X47329Y-21297D01*
X47329Y-21572D01*
X47008Y-21893D01*
X46965Y-21958D01*
X46950Y-22035D01*
X46950Y-22129D01*
X46826Y-22129D01*
X46782Y-22148D01*
X46748Y-22181D01*
X46730Y-22226D01*
X46729Y-22273D01*
X46729Y-22860D01*
X46590Y-22860D01*
X46590Y-19940D01*
X48010Y-19940D01*
X47991Y-19947D01*
X47888Y-20043D01*
X47845Y-20139D01*
X47867Y-20193D01*
X48340Y-20193D01*
X48340Y-20185D01*
X48460Y-20185D01*
X48460Y-20193D01*
X48932Y-20193D01*
X48954Y-20139D01*
X48911Y-20043D01*
X48808Y-19947D01*
X48789Y-19940D01*
X51560Y-19940D01*
X51560Y-22373D01*
X51560Y-22373D01*
G37*
G54D41*
X51560Y-22373D02*
X51544Y-22337D01*
X51481Y-22303D01*
X51396Y-22387D01*
X51396Y-22218D01*
X51362Y-22155D01*
X51195Y-22103D01*
X51021Y-22120D01*
X50937Y-22155D01*
X50903Y-22218D01*
X51150Y-22465D01*
X51396Y-22218D01*
X51396Y-22387D01*
X51234Y-22550D01*
X51240Y-22555D01*
X51155Y-22640D01*
X51150Y-22634D01*
X51144Y-22640D01*
X51065Y-22561D01*
X51059Y-22555D01*
X51065Y-22550D01*
X50818Y-22303D01*
X50755Y-22337D01*
X50703Y-22504D01*
X50720Y-22678D01*
X50755Y-22762D01*
X50818Y-22796D01*
X50790Y-22824D01*
X50826Y-22860D01*
X50433Y-22860D01*
X50505Y-22788D01*
X50569Y-22633D01*
X50570Y-22466D01*
X50506Y-22312D01*
X50388Y-22194D01*
X50233Y-22130D01*
X50144Y-22129D01*
X50144Y-21297D01*
X50144Y-21160D01*
X50144Y-21040D01*
X50144Y-20902D01*
X50095Y-20777D01*
X50003Y-20681D01*
X49918Y-20644D01*
X49867Y-20666D01*
X49867Y-20826D01*
X49832Y-20793D01*
X49747Y-20761D01*
X49747Y-20666D01*
X49696Y-20644D01*
X49611Y-20681D01*
X49519Y-20777D01*
X49470Y-20902D01*
X49470Y-21040D01*
X49562Y-21040D01*
X49747Y-21040D01*
X49867Y-21040D01*
X49956Y-21040D01*
X50144Y-21040D01*
X50144Y-21160D01*
X49956Y-21160D01*
X49867Y-21160D01*
X49747Y-21160D01*
X49562Y-21160D01*
X49470Y-21160D01*
X49470Y-21297D01*
X49519Y-21422D01*
X49611Y-21518D01*
X49696Y-21555D01*
X49747Y-21533D01*
X49747Y-21438D01*
X49832Y-21406D01*
X49867Y-21373D01*
X49867Y-21533D01*
X49918Y-21555D01*
X50003Y-21518D01*
X50095Y-21422D01*
X50144Y-21297D01*
X50144Y-22129D01*
X50066Y-22129D01*
X50028Y-22145D01*
X49339Y-21456D01*
X49442Y-21456D01*
X49442Y-21160D01*
X49434Y-21160D01*
X49434Y-21040D01*
X49442Y-21040D01*
X49442Y-20743D01*
X49304Y-20743D01*
X49172Y-20793D01*
X49120Y-20842D01*
X49120Y-20682D01*
X49102Y-20638D01*
X49068Y-20604D01*
X49024Y-20586D01*
X48976Y-20586D01*
X48799Y-20586D01*
X48784Y-20592D01*
X48768Y-20586D01*
X48739Y-20586D01*
X48808Y-20559D01*
X48911Y-20463D01*
X48954Y-20367D01*
X48932Y-20313D01*
X48460Y-20313D01*
X48460Y-20321D01*
X48340Y-20321D01*
X48340Y-20313D01*
X47867Y-20313D01*
X47845Y-20367D01*
X47888Y-20463D01*
X47991Y-20559D01*
X48060Y-20586D01*
X48031Y-20586D01*
X48016Y-20592D01*
X48000Y-20586D01*
X47952Y-20586D01*
X47775Y-20586D01*
X47731Y-20604D01*
X47697Y-20638D01*
X47679Y-20682D01*
X47679Y-20730D01*
X47679Y-20842D01*
X47627Y-20793D01*
X47495Y-20743D01*
X47357Y-20743D01*
X47357Y-21040D01*
X47365Y-21040D01*
X47365Y-21160D01*
X47357Y-21160D01*
X47357Y-21456D01*
X47445Y-21456D01*
X47329Y-21572D01*
X47329Y-21297D01*
X47329Y-21160D01*
X47329Y-21040D01*
X47329Y-20902D01*
X47280Y-20777D01*
X47188Y-20681D01*
X47103Y-20644D01*
X47052Y-20666D01*
X47052Y-20761D01*
X46967Y-20793D01*
X46932Y-20826D01*
X46932Y-20666D01*
X46881Y-20644D01*
X46796Y-20681D01*
X46704Y-20777D01*
X46655Y-20902D01*
X46655Y-21040D01*
X46843Y-21040D01*
X46932Y-21040D01*
X47052Y-21040D01*
X47237Y-21040D01*
X47329Y-21040D01*
X47329Y-21160D01*
X47237Y-21160D01*
X47052Y-21160D01*
X46932Y-21160D01*
X46843Y-21160D01*
X46655Y-21160D01*
X46655Y-21297D01*
X46704Y-21422D01*
X46796Y-21518D01*
X46881Y-21555D01*
X46932Y-21533D01*
X46932Y-21373D01*
X46967Y-21406D01*
X47052Y-21438D01*
X47052Y-21533D01*
X47103Y-21555D01*
X47188Y-21518D01*
X47280Y-21422D01*
X47329Y-21297D01*
X47329Y-21572D01*
X47008Y-21893D01*
X46965Y-21958D01*
X46950Y-22035D01*
X46950Y-22129D01*
X46826Y-22129D01*
X46782Y-22148D01*
X46748Y-22181D01*
X46730Y-22226D01*
X46729Y-22273D01*
X46729Y-22860D01*
X46590Y-22860D01*
X46590Y-19940D01*
X48010Y-19940D01*
X47991Y-19947D01*
X47888Y-20043D01*
X47845Y-20139D01*
X47867Y-20193D01*
X48340Y-20193D01*
X48340Y-20185D01*
X48460Y-20185D01*
X48460Y-20193D01*
X48932Y-20193D01*
X48954Y-20139D01*
X48911Y-20043D01*
X48808Y-19947D01*
X48789Y-19940D01*
X51560Y-19940D01*
X51560Y-22373D01*
M02*
